G75*
%MOIN*%
%OFA0B0*%
%FSLAX24Y24*%
%IPPOS*%
%LPD*%
%AMOC8*
5,1,8,0,0,1.08239X$1,22.5*
%
%ADD10C,0.0000*%
D10*
X000100Y000240D02*
X000100Y016775D01*
X036714Y016775D01*
X036714Y000240D01*
X000100Y000240D01*
X004509Y006932D02*
X004511Y006985D01*
X004517Y007038D01*
X004527Y007090D01*
X004540Y007141D01*
X004558Y007191D01*
X004579Y007240D01*
X004604Y007287D01*
X004632Y007331D01*
X004664Y007374D01*
X004698Y007414D01*
X004736Y007452D01*
X004776Y007486D01*
X004819Y007518D01*
X004864Y007546D01*
X004910Y007571D01*
X004959Y007592D01*
X005009Y007610D01*
X005060Y007623D01*
X005112Y007633D01*
X005165Y007639D01*
X005218Y007641D01*
X005271Y007639D01*
X005324Y007633D01*
X005376Y007623D01*
X005427Y007610D01*
X005477Y007592D01*
X005526Y007571D01*
X005573Y007546D01*
X005617Y007518D01*
X005660Y007486D01*
X005700Y007452D01*
X005738Y007414D01*
X005772Y007374D01*
X005804Y007331D01*
X005832Y007286D01*
X005857Y007240D01*
X005878Y007191D01*
X005896Y007141D01*
X005909Y007090D01*
X005919Y007038D01*
X005925Y006985D01*
X005927Y006932D01*
X005925Y006879D01*
X005919Y006826D01*
X005909Y006774D01*
X005896Y006723D01*
X005878Y006673D01*
X005857Y006624D01*
X005832Y006577D01*
X005804Y006533D01*
X005772Y006490D01*
X005738Y006450D01*
X005700Y006412D01*
X005660Y006378D01*
X005617Y006346D01*
X005572Y006318D01*
X005526Y006293D01*
X005477Y006272D01*
X005427Y006254D01*
X005376Y006241D01*
X005324Y006231D01*
X005271Y006225D01*
X005218Y006223D01*
X005165Y006225D01*
X005112Y006231D01*
X005060Y006241D01*
X005009Y006254D01*
X004959Y006272D01*
X004910Y006293D01*
X004863Y006318D01*
X004819Y006346D01*
X004776Y006378D01*
X004736Y006412D01*
X004698Y006450D01*
X004664Y006490D01*
X004632Y006533D01*
X004604Y006578D01*
X004579Y006624D01*
X004558Y006673D01*
X004540Y006723D01*
X004527Y006774D01*
X004517Y006826D01*
X004511Y006879D01*
X004509Y006932D01*
X004194Y010982D02*
X004196Y011032D01*
X004202Y011082D01*
X004212Y011131D01*
X004226Y011179D01*
X004243Y011226D01*
X004264Y011271D01*
X004289Y011315D01*
X004317Y011356D01*
X004349Y011395D01*
X004383Y011432D01*
X004420Y011466D01*
X004460Y011496D01*
X004502Y011523D01*
X004546Y011547D01*
X004592Y011568D01*
X004639Y011584D01*
X004687Y011597D01*
X004737Y011606D01*
X004786Y011611D01*
X004837Y011612D01*
X004887Y011609D01*
X004936Y011602D01*
X004985Y011591D01*
X005033Y011576D01*
X005079Y011558D01*
X005124Y011536D01*
X005167Y011510D01*
X005208Y011481D01*
X005247Y011449D01*
X005283Y011414D01*
X005315Y011376D01*
X005345Y011336D01*
X005372Y011293D01*
X005395Y011249D01*
X005414Y011203D01*
X005430Y011155D01*
X005442Y011106D01*
X005450Y011057D01*
X005454Y011007D01*
X005454Y010957D01*
X005450Y010907D01*
X005442Y010858D01*
X005430Y010809D01*
X005414Y010761D01*
X005395Y010715D01*
X005372Y010671D01*
X005345Y010628D01*
X005315Y010588D01*
X005283Y010550D01*
X005247Y010515D01*
X005208Y010483D01*
X005167Y010454D01*
X005124Y010428D01*
X005079Y010406D01*
X005033Y010388D01*
X004985Y010373D01*
X004936Y010362D01*
X004887Y010355D01*
X004837Y010352D01*
X004786Y010353D01*
X004737Y010358D01*
X004687Y010367D01*
X004639Y010380D01*
X004592Y010396D01*
X004546Y010417D01*
X004502Y010441D01*
X004460Y010468D01*
X004420Y010498D01*
X004383Y010532D01*
X004349Y010569D01*
X004317Y010608D01*
X004289Y010649D01*
X004264Y010693D01*
X004243Y010738D01*
X004226Y010785D01*
X004212Y010833D01*
X004202Y010882D01*
X004196Y010932D01*
X004194Y010982D01*
X004194Y015482D02*
X004196Y015532D01*
X004202Y015582D01*
X004212Y015631D01*
X004226Y015679D01*
X004243Y015726D01*
X004264Y015771D01*
X004289Y015815D01*
X004317Y015856D01*
X004349Y015895D01*
X004383Y015932D01*
X004420Y015966D01*
X004460Y015996D01*
X004502Y016023D01*
X004546Y016047D01*
X004592Y016068D01*
X004639Y016084D01*
X004687Y016097D01*
X004737Y016106D01*
X004786Y016111D01*
X004837Y016112D01*
X004887Y016109D01*
X004936Y016102D01*
X004985Y016091D01*
X005033Y016076D01*
X005079Y016058D01*
X005124Y016036D01*
X005167Y016010D01*
X005208Y015981D01*
X005247Y015949D01*
X005283Y015914D01*
X005315Y015876D01*
X005345Y015836D01*
X005372Y015793D01*
X005395Y015749D01*
X005414Y015703D01*
X005430Y015655D01*
X005442Y015606D01*
X005450Y015557D01*
X005454Y015507D01*
X005454Y015457D01*
X005450Y015407D01*
X005442Y015358D01*
X005430Y015309D01*
X005414Y015261D01*
X005395Y015215D01*
X005372Y015171D01*
X005345Y015128D01*
X005315Y015088D01*
X005283Y015050D01*
X005247Y015015D01*
X005208Y014983D01*
X005167Y014954D01*
X005124Y014928D01*
X005079Y014906D01*
X005033Y014888D01*
X004985Y014873D01*
X004936Y014862D01*
X004887Y014855D01*
X004837Y014852D01*
X004786Y014853D01*
X004737Y014858D01*
X004687Y014867D01*
X004639Y014880D01*
X004592Y014896D01*
X004546Y014917D01*
X004502Y014941D01*
X004460Y014968D01*
X004420Y014998D01*
X004383Y015032D01*
X004349Y015069D01*
X004317Y015108D01*
X004289Y015149D01*
X004264Y015193D01*
X004243Y015238D01*
X004226Y015285D01*
X004212Y015333D01*
X004202Y015382D01*
X004196Y015432D01*
X004194Y015482D01*
X027141Y004570D02*
X027143Y004620D01*
X027149Y004670D01*
X027159Y004719D01*
X027173Y004767D01*
X027190Y004814D01*
X027211Y004859D01*
X027236Y004903D01*
X027264Y004944D01*
X027296Y004983D01*
X027330Y005020D01*
X027367Y005054D01*
X027407Y005084D01*
X027449Y005111D01*
X027493Y005135D01*
X027539Y005156D01*
X027586Y005172D01*
X027634Y005185D01*
X027684Y005194D01*
X027733Y005199D01*
X027784Y005200D01*
X027834Y005197D01*
X027883Y005190D01*
X027932Y005179D01*
X027980Y005164D01*
X028026Y005146D01*
X028071Y005124D01*
X028114Y005098D01*
X028155Y005069D01*
X028194Y005037D01*
X028230Y005002D01*
X028262Y004964D01*
X028292Y004924D01*
X028319Y004881D01*
X028342Y004837D01*
X028361Y004791D01*
X028377Y004743D01*
X028389Y004694D01*
X028397Y004645D01*
X028401Y004595D01*
X028401Y004545D01*
X028397Y004495D01*
X028389Y004446D01*
X028377Y004397D01*
X028361Y004349D01*
X028342Y004303D01*
X028319Y004259D01*
X028292Y004216D01*
X028262Y004176D01*
X028230Y004138D01*
X028194Y004103D01*
X028155Y004071D01*
X028114Y004042D01*
X028071Y004016D01*
X028026Y003994D01*
X027980Y003976D01*
X027932Y003961D01*
X027883Y003950D01*
X027834Y003943D01*
X027784Y003940D01*
X027733Y003941D01*
X027684Y003946D01*
X027634Y003955D01*
X027586Y003968D01*
X027539Y003984D01*
X027493Y004005D01*
X027449Y004029D01*
X027407Y004056D01*
X027367Y004086D01*
X027330Y004120D01*
X027296Y004157D01*
X027264Y004196D01*
X027236Y004237D01*
X027211Y004281D01*
X027190Y004326D01*
X027173Y004373D01*
X027159Y004421D01*
X027149Y004470D01*
X027143Y004520D01*
X027141Y004570D01*
X031641Y004570D02*
X031643Y004620D01*
X031649Y004670D01*
X031659Y004719D01*
X031673Y004767D01*
X031690Y004814D01*
X031711Y004859D01*
X031736Y004903D01*
X031764Y004944D01*
X031796Y004983D01*
X031830Y005020D01*
X031867Y005054D01*
X031907Y005084D01*
X031949Y005111D01*
X031993Y005135D01*
X032039Y005156D01*
X032086Y005172D01*
X032134Y005185D01*
X032184Y005194D01*
X032233Y005199D01*
X032284Y005200D01*
X032334Y005197D01*
X032383Y005190D01*
X032432Y005179D01*
X032480Y005164D01*
X032526Y005146D01*
X032571Y005124D01*
X032614Y005098D01*
X032655Y005069D01*
X032694Y005037D01*
X032730Y005002D01*
X032762Y004964D01*
X032792Y004924D01*
X032819Y004881D01*
X032842Y004837D01*
X032861Y004791D01*
X032877Y004743D01*
X032889Y004694D01*
X032897Y004645D01*
X032901Y004595D01*
X032901Y004545D01*
X032897Y004495D01*
X032889Y004446D01*
X032877Y004397D01*
X032861Y004349D01*
X032842Y004303D01*
X032819Y004259D01*
X032792Y004216D01*
X032762Y004176D01*
X032730Y004138D01*
X032694Y004103D01*
X032655Y004071D01*
X032614Y004042D01*
X032571Y004016D01*
X032526Y003994D01*
X032480Y003976D01*
X032432Y003961D01*
X032383Y003950D01*
X032334Y003943D01*
X032284Y003940D01*
X032233Y003941D01*
X032184Y003946D01*
X032134Y003955D01*
X032086Y003968D01*
X032039Y003984D01*
X031993Y004005D01*
X031949Y004029D01*
X031907Y004056D01*
X031867Y004086D01*
X031830Y004120D01*
X031796Y004157D01*
X031764Y004196D01*
X031736Y004237D01*
X031711Y004281D01*
X031690Y004326D01*
X031673Y004373D01*
X031659Y004421D01*
X031649Y004470D01*
X031643Y004520D01*
X031641Y004570D01*
X034430Y006932D02*
X034432Y006985D01*
X034438Y007038D01*
X034448Y007090D01*
X034461Y007141D01*
X034479Y007191D01*
X034500Y007240D01*
X034525Y007287D01*
X034553Y007331D01*
X034585Y007374D01*
X034619Y007414D01*
X034657Y007452D01*
X034697Y007486D01*
X034740Y007518D01*
X034785Y007546D01*
X034831Y007571D01*
X034880Y007592D01*
X034930Y007610D01*
X034981Y007623D01*
X035033Y007633D01*
X035086Y007639D01*
X035139Y007641D01*
X035192Y007639D01*
X035245Y007633D01*
X035297Y007623D01*
X035348Y007610D01*
X035398Y007592D01*
X035447Y007571D01*
X035494Y007546D01*
X035538Y007518D01*
X035581Y007486D01*
X035621Y007452D01*
X035659Y007414D01*
X035693Y007374D01*
X035725Y007331D01*
X035753Y007286D01*
X035778Y007240D01*
X035799Y007191D01*
X035817Y007141D01*
X035830Y007090D01*
X035840Y007038D01*
X035846Y006985D01*
X035848Y006932D01*
X035846Y006879D01*
X035840Y006826D01*
X035830Y006774D01*
X035817Y006723D01*
X035799Y006673D01*
X035778Y006624D01*
X035753Y006577D01*
X035725Y006533D01*
X035693Y006490D01*
X035659Y006450D01*
X035621Y006412D01*
X035581Y006378D01*
X035538Y006346D01*
X035493Y006318D01*
X035447Y006293D01*
X035398Y006272D01*
X035348Y006254D01*
X035297Y006241D01*
X035245Y006231D01*
X035192Y006225D01*
X035139Y006223D01*
X035086Y006225D01*
X035033Y006231D01*
X034981Y006241D01*
X034930Y006254D01*
X034880Y006272D01*
X034831Y006293D01*
X034784Y006318D01*
X034740Y006346D01*
X034697Y006378D01*
X034657Y006412D01*
X034619Y006450D01*
X034585Y006490D01*
X034553Y006533D01*
X034525Y006578D01*
X034500Y006624D01*
X034479Y006673D01*
X034461Y006723D01*
X034448Y006774D01*
X034438Y006826D01*
X034432Y006879D01*
X034430Y006932D01*
X031360Y010982D02*
X031362Y011032D01*
X031368Y011082D01*
X031378Y011131D01*
X031392Y011179D01*
X031409Y011226D01*
X031430Y011271D01*
X031455Y011315D01*
X031483Y011356D01*
X031515Y011395D01*
X031549Y011432D01*
X031586Y011466D01*
X031626Y011496D01*
X031668Y011523D01*
X031712Y011547D01*
X031758Y011568D01*
X031805Y011584D01*
X031853Y011597D01*
X031903Y011606D01*
X031952Y011611D01*
X032003Y011612D01*
X032053Y011609D01*
X032102Y011602D01*
X032151Y011591D01*
X032199Y011576D01*
X032245Y011558D01*
X032290Y011536D01*
X032333Y011510D01*
X032374Y011481D01*
X032413Y011449D01*
X032449Y011414D01*
X032481Y011376D01*
X032511Y011336D01*
X032538Y011293D01*
X032561Y011249D01*
X032580Y011203D01*
X032596Y011155D01*
X032608Y011106D01*
X032616Y011057D01*
X032620Y011007D01*
X032620Y010957D01*
X032616Y010907D01*
X032608Y010858D01*
X032596Y010809D01*
X032580Y010761D01*
X032561Y010715D01*
X032538Y010671D01*
X032511Y010628D01*
X032481Y010588D01*
X032449Y010550D01*
X032413Y010515D01*
X032374Y010483D01*
X032333Y010454D01*
X032290Y010428D01*
X032245Y010406D01*
X032199Y010388D01*
X032151Y010373D01*
X032102Y010362D01*
X032053Y010355D01*
X032003Y010352D01*
X031952Y010353D01*
X031903Y010358D01*
X031853Y010367D01*
X031805Y010380D01*
X031758Y010396D01*
X031712Y010417D01*
X031668Y010441D01*
X031626Y010468D01*
X031586Y010498D01*
X031549Y010532D01*
X031515Y010569D01*
X031483Y010608D01*
X031455Y010649D01*
X031430Y010693D01*
X031409Y010738D01*
X031392Y010785D01*
X031378Y010833D01*
X031368Y010882D01*
X031362Y010932D01*
X031360Y010982D01*
X031360Y015482D02*
X031362Y015532D01*
X031368Y015582D01*
X031378Y015631D01*
X031392Y015679D01*
X031409Y015726D01*
X031430Y015771D01*
X031455Y015815D01*
X031483Y015856D01*
X031515Y015895D01*
X031549Y015932D01*
X031586Y015966D01*
X031626Y015996D01*
X031668Y016023D01*
X031712Y016047D01*
X031758Y016068D01*
X031805Y016084D01*
X031853Y016097D01*
X031903Y016106D01*
X031952Y016111D01*
X032003Y016112D01*
X032053Y016109D01*
X032102Y016102D01*
X032151Y016091D01*
X032199Y016076D01*
X032245Y016058D01*
X032290Y016036D01*
X032333Y016010D01*
X032374Y015981D01*
X032413Y015949D01*
X032449Y015914D01*
X032481Y015876D01*
X032511Y015836D01*
X032538Y015793D01*
X032561Y015749D01*
X032580Y015703D01*
X032596Y015655D01*
X032608Y015606D01*
X032616Y015557D01*
X032620Y015507D01*
X032620Y015457D01*
X032616Y015407D01*
X032608Y015358D01*
X032596Y015309D01*
X032580Y015261D01*
X032561Y015215D01*
X032538Y015171D01*
X032511Y015128D01*
X032481Y015088D01*
X032449Y015050D01*
X032413Y015015D01*
X032374Y014983D01*
X032333Y014954D01*
X032290Y014928D01*
X032245Y014906D01*
X032199Y014888D01*
X032151Y014873D01*
X032102Y014862D01*
X032053Y014855D01*
X032003Y014852D01*
X031952Y014853D01*
X031903Y014858D01*
X031853Y014867D01*
X031805Y014880D01*
X031758Y014896D01*
X031712Y014917D01*
X031668Y014941D01*
X031626Y014968D01*
X031586Y014998D01*
X031549Y015032D01*
X031515Y015069D01*
X031483Y015108D01*
X031455Y015149D01*
X031430Y015193D01*
X031409Y015238D01*
X031392Y015285D01*
X031378Y015333D01*
X031368Y015382D01*
X031362Y015432D01*
X031360Y015482D01*
M02*
