G75*
%MOIN*%
%OFA0B0*%
%FSLAX24Y24*%
%IPPOS*%
%LPD*%
%AMOC8*
5,1,8,0,0,1.08239X$1,22.5*
%
%ADD10C,0.1497*%
%ADD11C,0.0820*%
%ADD12R,0.0820X0.0820*%
%ADD13C,0.1340*%
%ADD14OC8,0.0680*%
%ADD15OC8,0.0600*%
%ADD16C,0.0674*%
%ADD17C,0.0740*%
D10*
X005218Y006932D03*
X035139Y006932D03*
D11*
X031771Y008070D03*
X030771Y008070D03*
X029771Y008070D03*
X028771Y008070D03*
X029271Y007070D03*
X030271Y007070D03*
X031271Y007070D03*
X028490Y011982D03*
X029490Y012482D03*
X028490Y012982D03*
X029490Y013482D03*
X028490Y013982D03*
X029490Y014482D03*
X028490Y014982D03*
X008324Y014482D03*
X007324Y013982D03*
X008324Y013482D03*
X007324Y012982D03*
X008324Y012482D03*
X007324Y011982D03*
X008324Y011482D03*
D12*
X007324Y014982D03*
X028271Y007070D03*
X029490Y011482D03*
D13*
X031990Y010982D03*
X031990Y015482D03*
X032271Y004570D03*
X027771Y004570D03*
X004824Y010982D03*
X004824Y015482D03*
D14*
X023086Y006428D03*
X024086Y006428D03*
X025086Y006428D03*
X025086Y005428D03*
X024086Y005428D03*
X023086Y005428D03*
D15*
X023209Y008040D03*
X025209Y008040D03*
X016080Y008559D03*
X016080Y009559D03*
X017709Y013112D03*
X021209Y013112D03*
X021209Y015112D03*
X017709Y015112D03*
X014004Y006058D03*
X012754Y005558D03*
X012004Y005058D03*
X010504Y005058D03*
X009254Y005558D03*
X008504Y005058D03*
X008504Y006058D03*
X010504Y006058D03*
X012004Y006058D03*
X014004Y005058D03*
X012213Y003152D03*
X010713Y002852D03*
X010713Y001852D03*
X012213Y001152D03*
X008613Y001852D03*
X007113Y001052D03*
X008613Y002852D03*
X007113Y003052D03*
D16*
X001972Y001102D02*
X001378Y001102D01*
X001378Y002102D02*
X001972Y002102D01*
X001972Y003102D02*
X001378Y003102D01*
X001378Y004102D02*
X001972Y004102D01*
X001972Y005826D02*
X001378Y005826D01*
X001378Y006826D02*
X001972Y006826D01*
X001972Y007826D02*
X001378Y007826D01*
X001378Y008826D02*
X001972Y008826D01*
D17*
X016679Y001814D03*
X017679Y001814D03*
X018679Y001814D03*
X019679Y001814D03*
X020679Y001814D03*
X021679Y001814D03*
X022679Y001814D03*
X023679Y001814D03*
M02*
