%
M48
M72
T01C0.0120
T02C0.0320
T03C0.0394
T04C0.0400
T05C0.1260
T06C0.1417
%
T01
X9628Y3586
X18525Y8114
X19824Y8744
X18525Y9413
X19352Y10003
X20415Y9688
X20257Y11499
X20139Y11972
X18565Y13822
X9194Y12444
X21557Y7366
X21517Y5870
X28250Y11106
T02
X25209Y8040
X23209Y8040
X16080Y8559
X16080Y9559
X17709Y13112
X21209Y13112
X21209Y15112
X17709Y15112
X14004Y6058
X12754Y5558
X12004Y5058
X10504Y5058
X9254Y5558
X8504Y5058
X8504Y6058
X10504Y6058
X12004Y6058
X14004Y5058
X12213Y3152
X10713Y2852
X10713Y1852
X12213Y1152
X8613Y1852
X7113Y1052
X8613Y2852
X7113Y3052
T03
X1675Y1102
X1675Y2102
X1675Y3102
X1675Y4102
X1675Y5826
X1675Y6826
X1675Y7826
X1675Y8826
X8324Y11482
X7324Y11982
X8324Y12482
X7324Y12982
X8324Y13482
X7324Y13982
X8324Y14482
X7324Y14982
X28271Y7070
X29271Y7070
X30271Y7070
X31271Y7070
X30771Y8070
X29771Y8070
X28771Y8070
X31771Y8070
X29490Y11482
X28490Y11982
X29490Y12482
X28490Y12982
X29490Y13482
X28490Y13982
X29490Y14482
X28490Y14982
X23679Y1814
X22679Y1814
X21679Y1814
X20679Y1814
X19679Y1814
X18679Y1814
X17679Y1814
X16679Y1814
T04
X23086Y5428
X24086Y5428
X25086Y5428
X25086Y6428
X24086Y6428
X23086Y6428
T05
X27771Y4570
X32271Y4570
X31990Y10982
X31990Y15482
X4824Y15482
X4824Y10982
T06
X5218Y6932
X35139Y6932
M30
