G75*
%MOIN*%
%OFA0B0*%
%FSLAX24Y24*%
%IPPOS*%
%LPD*%
%AMOC8*
5,1,8,0,0,1.08239X$1,22.5*
%
%ADD10C,0.0740*%
%ADD11R,0.0740X0.0740*%
%ADD12OC8,0.0600*%
%ADD13OC8,0.0520*%
%ADD14C,0.0594*%
%ADD15C,0.0660*%
%ADD16C,0.0120*%
%ADD17C,0.0280*%
%ADD18C,0.0060*%
D10*
X008324Y011482D03*
X007324Y011982D03*
X008324Y012482D03*
X007324Y012982D03*
X008324Y013482D03*
X007324Y013982D03*
X008324Y014482D03*
X028490Y014982D03*
X029490Y014482D03*
X028490Y013982D03*
X029490Y013482D03*
X028490Y012982D03*
X029490Y012482D03*
X028490Y011982D03*
X028771Y008070D03*
X029771Y008070D03*
X030771Y008070D03*
X031771Y008070D03*
X031271Y007070D03*
X030271Y007070D03*
X029271Y007070D03*
D11*
X028271Y007070D03*
X029490Y011482D03*
X007324Y014982D03*
D12*
X023086Y006428D03*
X024086Y006428D03*
X025086Y006428D03*
X025086Y005428D03*
X024086Y005428D03*
X023086Y005428D03*
D13*
X023209Y008040D03*
X025209Y008040D03*
X016080Y008559D03*
X016080Y009559D03*
X017709Y013112D03*
X021209Y013112D03*
X021209Y015112D03*
X017709Y015112D03*
X014004Y006058D03*
X012754Y005558D03*
X012004Y005058D03*
X010504Y005058D03*
X009254Y005558D03*
X008504Y005058D03*
X008504Y006058D03*
X010504Y006058D03*
X012004Y006058D03*
X014004Y005058D03*
X012213Y003152D03*
X010713Y002852D03*
X010713Y001852D03*
X012213Y001152D03*
X008613Y001852D03*
X007113Y001052D03*
X008613Y002852D03*
X007113Y003052D03*
D14*
X001972Y001102D02*
X001378Y001102D01*
X001378Y002102D02*
X001972Y002102D01*
X001972Y003102D02*
X001378Y003102D01*
X001378Y004102D02*
X001972Y004102D01*
X001972Y005826D02*
X001378Y005826D01*
X001378Y006826D02*
X001972Y006826D01*
X001972Y007826D02*
X001378Y007826D01*
X001378Y008826D02*
X001972Y008826D01*
D15*
X016679Y001814D03*
X017679Y001814D03*
X018679Y001814D03*
X019679Y001814D03*
X020679Y001814D03*
X021679Y001814D03*
X022679Y001814D03*
X023679Y001814D03*
D16*
X023525Y004964D02*
X025297Y004964D01*
X027738Y007405D01*
X027738Y008035D01*
X028761Y008035D01*
X028771Y008070D01*
X029771Y008070D02*
X029785Y008074D01*
X030336Y008625D01*
X030297Y008665D01*
X030297Y014452D01*
X029509Y014452D01*
X029490Y014482D01*
X029470Y014492D01*
X029470Y014767D01*
X028722Y015515D01*
X027935Y015515D01*
X027935Y013547D01*
X027069Y012681D01*
X009470Y012681D01*
X008683Y013468D01*
X008328Y013468D01*
X008324Y013482D01*
X007344Y012956D02*
X007324Y012982D01*
X007344Y012956D02*
X007817Y012484D01*
X008289Y012484D01*
X008324Y012482D01*
X008368Y012444D01*
X009194Y012444D01*
X008324Y011482D02*
X008289Y011460D01*
X006793Y009964D01*
X002777Y009964D01*
X001675Y008862D01*
X001675Y008826D01*
X001675Y005826D02*
X001675Y005791D01*
X001911Y005555D01*
X008013Y005555D01*
X008486Y006027D01*
X008504Y006058D01*
X009273Y005594D02*
X009254Y005558D01*
X009273Y005594D02*
X009706Y006027D01*
X010494Y006027D01*
X010504Y006058D01*
X010533Y005988D01*
X010887Y005633D01*
X012620Y005633D01*
X012698Y005555D01*
X012754Y005558D01*
X012777Y005555D01*
X013525Y005555D01*
X013998Y005082D01*
X014004Y005058D01*
X012004Y005058D02*
X011990Y005082D01*
X010533Y005082D01*
X010504Y005058D01*
X010494Y005082D01*
X008525Y005082D01*
X008504Y005058D01*
X007659Y003586D02*
X009628Y003586D01*
X007659Y003586D02*
X007147Y003074D01*
X007113Y003052D01*
X018407Y009531D02*
X018525Y009413D01*
X018407Y009531D02*
X017738Y009531D01*
X017738Y009570D01*
X020139Y011972D01*
X020179Y012011D01*
X028486Y012011D01*
X028490Y011982D01*
X028490Y012982D02*
X028486Y012995D01*
X027935Y013547D01*
X028490Y013982D02*
X028525Y013980D01*
X028998Y013980D01*
X029470Y013507D01*
X029490Y013482D01*
X021209Y013112D02*
X021202Y013114D01*
X019234Y015082D01*
X017738Y015082D01*
X017709Y015112D01*
X017738Y009531D02*
X016084Y009531D01*
X016080Y009559D01*
X023086Y005428D02*
X023092Y005397D01*
X023525Y004964D01*
X031271Y007070D02*
X031281Y007090D01*
X032305Y007090D01*
X032305Y008310D01*
X031990Y008625D01*
X030336Y008625D01*
D17*
X028250Y011106D03*
X020415Y009688D03*
X019352Y010003D03*
X018525Y009413D03*
X019824Y008744D03*
X018525Y008114D03*
X021557Y007366D03*
X021517Y005870D03*
X009628Y003586D03*
X020257Y011499D03*
X020139Y011972D03*
X018565Y013822D03*
X009194Y012444D03*
D18*
X007324Y014982D02*
X007344Y015003D01*
X017265Y015003D01*
X018446Y013822D01*
X018565Y013822D01*
X020257Y011499D02*
X020297Y011460D01*
X028250Y011460D01*
X028250Y011106D01*
X028250Y011460D02*
X029470Y011460D01*
X029490Y011482D01*
X023209Y008040D02*
X023171Y008074D01*
X021281Y009964D01*
X019391Y009964D01*
X019352Y010003D01*
X019706Y008980D02*
X020415Y009688D01*
X019706Y008980D02*
X002817Y008980D01*
X001675Y007838D01*
X001675Y007826D01*
X001675Y006854D02*
X003092Y008271D01*
X005612Y008271D01*
X005730Y008153D01*
X016242Y008153D01*
X016478Y008389D01*
X019470Y008389D01*
X019824Y008744D01*
X018525Y008114D02*
X014273Y003862D01*
X002423Y003862D01*
X001675Y003114D01*
X001675Y003102D01*
X001793Y002247D02*
X001675Y002129D01*
X001675Y002102D01*
X001793Y002247D02*
X016439Y002247D01*
X021557Y007366D01*
X021517Y005870D02*
X023643Y005870D01*
X024076Y005436D01*
X024086Y005428D01*
X012213Y001152D02*
X012187Y001184D01*
X011360Y001184D01*
X010730Y001814D01*
X010713Y001852D01*
X008613Y001852D02*
X008604Y001814D01*
X007895Y001814D01*
X007147Y001066D01*
X007113Y001052D01*
X001675Y006826D02*
X001675Y006854D01*
M02*
