G75*
%MOIN*%
%OFA0B0*%
%FSLAX24Y24*%
%IPPOS*%
%LPD*%
%AMOC8*
5,1,8,0,0,1.08239X$1,22.5*
%
%ADD10C,0.0000*%
%ADD11C,0.0060*%
%ADD12C,0.0040*%
%ADD13R,0.0390X0.0180*%
%ADD14R,0.0180X0.0390*%
%ADD15C,0.0030*%
%ADD16C,0.0080*%
%ADD17C,0.0050*%
%ADD18R,0.0200X0.0200*%
%ADD19C,0.0200*%
%ADD20R,0.0100X0.0200*%
%ADD21C,0.0100*%
%ADD22C,0.0020*%
%ADD23R,0.0200X0.0450*%
%ADD24R,0.0200X0.0100*%
D10*
X000100Y000240D02*
X000100Y016775D01*
X036714Y016775D01*
X036714Y000240D01*
X000100Y000240D01*
X001675Y002202D02*
X001675Y003002D01*
X001275Y002602D02*
X002075Y002602D01*
X006713Y002052D02*
X007513Y002052D01*
X007113Y001652D02*
X007113Y002452D01*
X008213Y002352D02*
X009013Y002352D01*
X008613Y001952D02*
X008613Y002752D01*
X010313Y002352D02*
X011113Y002352D01*
X010713Y001952D02*
X010713Y002752D01*
X011813Y002152D02*
X012613Y002152D01*
X012213Y001752D02*
X012213Y002552D01*
X012004Y005158D02*
X012004Y005958D01*
X011604Y005558D02*
X012404Y005558D01*
X013604Y005558D02*
X014404Y005558D01*
X014004Y005158D02*
X014004Y005958D01*
X010904Y005558D02*
X010104Y005558D01*
X010504Y005158D02*
X010504Y005958D01*
X008904Y005558D02*
X008104Y005558D01*
X008504Y005158D02*
X008504Y005958D01*
X004509Y006932D02*
X004511Y006985D01*
X004517Y007038D01*
X004527Y007090D01*
X004540Y007141D01*
X004558Y007191D01*
X004579Y007240D01*
X004604Y007287D01*
X004632Y007331D01*
X004664Y007374D01*
X004698Y007414D01*
X004736Y007452D01*
X004776Y007486D01*
X004819Y007518D01*
X004864Y007546D01*
X004910Y007571D01*
X004959Y007592D01*
X005009Y007610D01*
X005060Y007623D01*
X005112Y007633D01*
X005165Y007639D01*
X005218Y007641D01*
X005271Y007639D01*
X005324Y007633D01*
X005376Y007623D01*
X005427Y007610D01*
X005477Y007592D01*
X005526Y007571D01*
X005573Y007546D01*
X005617Y007518D01*
X005660Y007486D01*
X005700Y007452D01*
X005738Y007414D01*
X005772Y007374D01*
X005804Y007331D01*
X005832Y007286D01*
X005857Y007240D01*
X005878Y007191D01*
X005896Y007141D01*
X005909Y007090D01*
X005919Y007038D01*
X005925Y006985D01*
X005927Y006932D01*
X005925Y006879D01*
X005919Y006826D01*
X005909Y006774D01*
X005896Y006723D01*
X005878Y006673D01*
X005857Y006624D01*
X005832Y006577D01*
X005804Y006533D01*
X005772Y006490D01*
X005738Y006450D01*
X005700Y006412D01*
X005660Y006378D01*
X005617Y006346D01*
X005572Y006318D01*
X005526Y006293D01*
X005477Y006272D01*
X005427Y006254D01*
X005376Y006241D01*
X005324Y006231D01*
X005271Y006225D01*
X005218Y006223D01*
X005165Y006225D01*
X005112Y006231D01*
X005060Y006241D01*
X005009Y006254D01*
X004959Y006272D01*
X004910Y006293D01*
X004863Y006318D01*
X004819Y006346D01*
X004776Y006378D01*
X004736Y006412D01*
X004698Y006450D01*
X004664Y006490D01*
X004632Y006533D01*
X004604Y006578D01*
X004579Y006624D01*
X004558Y006673D01*
X004540Y006723D01*
X004527Y006774D01*
X004517Y006826D01*
X004511Y006879D01*
X004509Y006932D01*
X002075Y007326D02*
X001275Y007326D01*
X001675Y006926D02*
X001675Y007726D01*
X004194Y010982D02*
X004196Y011032D01*
X004202Y011082D01*
X004212Y011131D01*
X004226Y011179D01*
X004243Y011226D01*
X004264Y011271D01*
X004289Y011315D01*
X004317Y011356D01*
X004349Y011395D01*
X004383Y011432D01*
X004420Y011466D01*
X004460Y011496D01*
X004502Y011523D01*
X004546Y011547D01*
X004592Y011568D01*
X004639Y011584D01*
X004687Y011597D01*
X004737Y011606D01*
X004786Y011611D01*
X004837Y011612D01*
X004887Y011609D01*
X004936Y011602D01*
X004985Y011591D01*
X005033Y011576D01*
X005079Y011558D01*
X005124Y011536D01*
X005167Y011510D01*
X005208Y011481D01*
X005247Y011449D01*
X005283Y011414D01*
X005315Y011376D01*
X005345Y011336D01*
X005372Y011293D01*
X005395Y011249D01*
X005414Y011203D01*
X005430Y011155D01*
X005442Y011106D01*
X005450Y011057D01*
X005454Y011007D01*
X005454Y010957D01*
X005450Y010907D01*
X005442Y010858D01*
X005430Y010809D01*
X005414Y010761D01*
X005395Y010715D01*
X005372Y010671D01*
X005345Y010628D01*
X005315Y010588D01*
X005283Y010550D01*
X005247Y010515D01*
X005208Y010483D01*
X005167Y010454D01*
X005124Y010428D01*
X005079Y010406D01*
X005033Y010388D01*
X004985Y010373D01*
X004936Y010362D01*
X004887Y010355D01*
X004837Y010352D01*
X004786Y010353D01*
X004737Y010358D01*
X004687Y010367D01*
X004639Y010380D01*
X004592Y010396D01*
X004546Y010417D01*
X004502Y010441D01*
X004460Y010468D01*
X004420Y010498D01*
X004383Y010532D01*
X004349Y010569D01*
X004317Y010608D01*
X004289Y010649D01*
X004264Y010693D01*
X004243Y010738D01*
X004226Y010785D01*
X004212Y010833D01*
X004202Y010882D01*
X004196Y010932D01*
X004194Y010982D01*
X004824Y012832D02*
X004824Y013632D01*
X004424Y013232D02*
X005224Y013232D01*
X004194Y015482D02*
X004196Y015532D01*
X004202Y015582D01*
X004212Y015631D01*
X004226Y015679D01*
X004243Y015726D01*
X004264Y015771D01*
X004289Y015815D01*
X004317Y015856D01*
X004349Y015895D01*
X004383Y015932D01*
X004420Y015966D01*
X004460Y015996D01*
X004502Y016023D01*
X004546Y016047D01*
X004592Y016068D01*
X004639Y016084D01*
X004687Y016097D01*
X004737Y016106D01*
X004786Y016111D01*
X004837Y016112D01*
X004887Y016109D01*
X004936Y016102D01*
X004985Y016091D01*
X005033Y016076D01*
X005079Y016058D01*
X005124Y016036D01*
X005167Y016010D01*
X005208Y015981D01*
X005247Y015949D01*
X005283Y015914D01*
X005315Y015876D01*
X005345Y015836D01*
X005372Y015793D01*
X005395Y015749D01*
X005414Y015703D01*
X005430Y015655D01*
X005442Y015606D01*
X005450Y015557D01*
X005454Y015507D01*
X005454Y015457D01*
X005450Y015407D01*
X005442Y015358D01*
X005430Y015309D01*
X005414Y015261D01*
X005395Y015215D01*
X005372Y015171D01*
X005345Y015128D01*
X005315Y015088D01*
X005283Y015050D01*
X005247Y015015D01*
X005208Y014983D01*
X005167Y014954D01*
X005124Y014928D01*
X005079Y014906D01*
X005033Y014888D01*
X004985Y014873D01*
X004936Y014862D01*
X004887Y014855D01*
X004837Y014852D01*
X004786Y014853D01*
X004737Y014858D01*
X004687Y014867D01*
X004639Y014880D01*
X004592Y014896D01*
X004546Y014917D01*
X004502Y014941D01*
X004460Y014968D01*
X004420Y014998D01*
X004383Y015032D01*
X004349Y015069D01*
X004317Y015108D01*
X004289Y015149D01*
X004264Y015193D01*
X004243Y015238D01*
X004226Y015285D01*
X004212Y015333D01*
X004202Y015382D01*
X004196Y015432D01*
X004194Y015482D01*
X016080Y009459D02*
X016080Y008659D01*
X015680Y009059D02*
X016480Y009059D01*
X019068Y009059D02*
X019868Y009059D01*
X019468Y008659D02*
X019468Y009459D01*
X023939Y008040D02*
X024479Y008040D01*
X024209Y007770D02*
X024209Y008310D01*
X024086Y006328D02*
X024086Y005528D01*
X023686Y005928D02*
X024486Y005928D01*
X027141Y004570D02*
X027143Y004620D01*
X027149Y004670D01*
X027159Y004719D01*
X027173Y004767D01*
X027190Y004814D01*
X027211Y004859D01*
X027236Y004903D01*
X027264Y004944D01*
X027296Y004983D01*
X027330Y005020D01*
X027367Y005054D01*
X027407Y005084D01*
X027449Y005111D01*
X027493Y005135D01*
X027539Y005156D01*
X027586Y005172D01*
X027634Y005185D01*
X027684Y005194D01*
X027733Y005199D01*
X027784Y005200D01*
X027834Y005197D01*
X027883Y005190D01*
X027932Y005179D01*
X027980Y005164D01*
X028026Y005146D01*
X028071Y005124D01*
X028114Y005098D01*
X028155Y005069D01*
X028194Y005037D01*
X028230Y005002D01*
X028262Y004964D01*
X028292Y004924D01*
X028319Y004881D01*
X028342Y004837D01*
X028361Y004791D01*
X028377Y004743D01*
X028389Y004694D01*
X028397Y004645D01*
X028401Y004595D01*
X028401Y004545D01*
X028397Y004495D01*
X028389Y004446D01*
X028377Y004397D01*
X028361Y004349D01*
X028342Y004303D01*
X028319Y004259D01*
X028292Y004216D01*
X028262Y004176D01*
X028230Y004138D01*
X028194Y004103D01*
X028155Y004071D01*
X028114Y004042D01*
X028071Y004016D01*
X028026Y003994D01*
X027980Y003976D01*
X027932Y003961D01*
X027883Y003950D01*
X027834Y003943D01*
X027784Y003940D01*
X027733Y003941D01*
X027684Y003946D01*
X027634Y003955D01*
X027586Y003968D01*
X027539Y003984D01*
X027493Y004005D01*
X027449Y004029D01*
X027407Y004056D01*
X027367Y004086D01*
X027330Y004120D01*
X027296Y004157D01*
X027264Y004196D01*
X027236Y004237D01*
X027211Y004281D01*
X027190Y004326D01*
X027173Y004373D01*
X027159Y004421D01*
X027149Y004470D01*
X027143Y004520D01*
X027141Y004570D01*
X029621Y004570D02*
X030421Y004570D01*
X030021Y004170D02*
X030021Y004970D01*
X031641Y004570D02*
X031643Y004620D01*
X031649Y004670D01*
X031659Y004719D01*
X031673Y004767D01*
X031690Y004814D01*
X031711Y004859D01*
X031736Y004903D01*
X031764Y004944D01*
X031796Y004983D01*
X031830Y005020D01*
X031867Y005054D01*
X031907Y005084D01*
X031949Y005111D01*
X031993Y005135D01*
X032039Y005156D01*
X032086Y005172D01*
X032134Y005185D01*
X032184Y005194D01*
X032233Y005199D01*
X032284Y005200D01*
X032334Y005197D01*
X032383Y005190D01*
X032432Y005179D01*
X032480Y005164D01*
X032526Y005146D01*
X032571Y005124D01*
X032614Y005098D01*
X032655Y005069D01*
X032694Y005037D01*
X032730Y005002D01*
X032762Y004964D01*
X032792Y004924D01*
X032819Y004881D01*
X032842Y004837D01*
X032861Y004791D01*
X032877Y004743D01*
X032889Y004694D01*
X032897Y004645D01*
X032901Y004595D01*
X032901Y004545D01*
X032897Y004495D01*
X032889Y004446D01*
X032877Y004397D01*
X032861Y004349D01*
X032842Y004303D01*
X032819Y004259D01*
X032792Y004216D01*
X032762Y004176D01*
X032730Y004138D01*
X032694Y004103D01*
X032655Y004071D01*
X032614Y004042D01*
X032571Y004016D01*
X032526Y003994D01*
X032480Y003976D01*
X032432Y003961D01*
X032383Y003950D01*
X032334Y003943D01*
X032284Y003940D01*
X032233Y003941D01*
X032184Y003946D01*
X032134Y003955D01*
X032086Y003968D01*
X032039Y003984D01*
X031993Y004005D01*
X031949Y004029D01*
X031907Y004056D01*
X031867Y004086D01*
X031830Y004120D01*
X031796Y004157D01*
X031764Y004196D01*
X031736Y004237D01*
X031711Y004281D01*
X031690Y004326D01*
X031673Y004373D01*
X031659Y004421D01*
X031649Y004470D01*
X031643Y004520D01*
X031641Y004570D01*
X034430Y006932D02*
X034432Y006985D01*
X034438Y007038D01*
X034448Y007090D01*
X034461Y007141D01*
X034479Y007191D01*
X034500Y007240D01*
X034525Y007287D01*
X034553Y007331D01*
X034585Y007374D01*
X034619Y007414D01*
X034657Y007452D01*
X034697Y007486D01*
X034740Y007518D01*
X034785Y007546D01*
X034831Y007571D01*
X034880Y007592D01*
X034930Y007610D01*
X034981Y007623D01*
X035033Y007633D01*
X035086Y007639D01*
X035139Y007641D01*
X035192Y007639D01*
X035245Y007633D01*
X035297Y007623D01*
X035348Y007610D01*
X035398Y007592D01*
X035447Y007571D01*
X035494Y007546D01*
X035538Y007518D01*
X035581Y007486D01*
X035621Y007452D01*
X035659Y007414D01*
X035693Y007374D01*
X035725Y007331D01*
X035753Y007286D01*
X035778Y007240D01*
X035799Y007191D01*
X035817Y007141D01*
X035830Y007090D01*
X035840Y007038D01*
X035846Y006985D01*
X035848Y006932D01*
X035846Y006879D01*
X035840Y006826D01*
X035830Y006774D01*
X035817Y006723D01*
X035799Y006673D01*
X035778Y006624D01*
X035753Y006577D01*
X035725Y006533D01*
X035693Y006490D01*
X035659Y006450D01*
X035621Y006412D01*
X035581Y006378D01*
X035538Y006346D01*
X035493Y006318D01*
X035447Y006293D01*
X035398Y006272D01*
X035348Y006254D01*
X035297Y006241D01*
X035245Y006231D01*
X035192Y006225D01*
X035139Y006223D01*
X035086Y006225D01*
X035033Y006231D01*
X034981Y006241D01*
X034930Y006254D01*
X034880Y006272D01*
X034831Y006293D01*
X034784Y006318D01*
X034740Y006346D01*
X034697Y006378D01*
X034657Y006412D01*
X034619Y006450D01*
X034585Y006490D01*
X034553Y006533D01*
X034525Y006578D01*
X034500Y006624D01*
X034479Y006673D01*
X034461Y006723D01*
X034448Y006774D01*
X034438Y006826D01*
X034432Y006879D01*
X034430Y006932D01*
X031360Y010982D02*
X031362Y011032D01*
X031368Y011082D01*
X031378Y011131D01*
X031392Y011179D01*
X031409Y011226D01*
X031430Y011271D01*
X031455Y011315D01*
X031483Y011356D01*
X031515Y011395D01*
X031549Y011432D01*
X031586Y011466D01*
X031626Y011496D01*
X031668Y011523D01*
X031712Y011547D01*
X031758Y011568D01*
X031805Y011584D01*
X031853Y011597D01*
X031903Y011606D01*
X031952Y011611D01*
X032003Y011612D01*
X032053Y011609D01*
X032102Y011602D01*
X032151Y011591D01*
X032199Y011576D01*
X032245Y011558D01*
X032290Y011536D01*
X032333Y011510D01*
X032374Y011481D01*
X032413Y011449D01*
X032449Y011414D01*
X032481Y011376D01*
X032511Y011336D01*
X032538Y011293D01*
X032561Y011249D01*
X032580Y011203D01*
X032596Y011155D01*
X032608Y011106D01*
X032616Y011057D01*
X032620Y011007D01*
X032620Y010957D01*
X032616Y010907D01*
X032608Y010858D01*
X032596Y010809D01*
X032580Y010761D01*
X032561Y010715D01*
X032538Y010671D01*
X032511Y010628D01*
X032481Y010588D01*
X032449Y010550D01*
X032413Y010515D01*
X032374Y010483D01*
X032333Y010454D01*
X032290Y010428D01*
X032245Y010406D01*
X032199Y010388D01*
X032151Y010373D01*
X032102Y010362D01*
X032053Y010355D01*
X032003Y010352D01*
X031952Y010353D01*
X031903Y010358D01*
X031853Y010367D01*
X031805Y010380D01*
X031758Y010396D01*
X031712Y010417D01*
X031668Y010441D01*
X031626Y010468D01*
X031586Y010498D01*
X031549Y010532D01*
X031515Y010569D01*
X031483Y010608D01*
X031455Y010649D01*
X031430Y010693D01*
X031409Y010738D01*
X031392Y010785D01*
X031378Y010833D01*
X031368Y010882D01*
X031362Y010932D01*
X031360Y010982D01*
X031990Y012832D02*
X031990Y013632D01*
X031590Y013232D02*
X032390Y013232D01*
X031360Y015482D02*
X031362Y015532D01*
X031368Y015582D01*
X031378Y015631D01*
X031392Y015679D01*
X031409Y015726D01*
X031430Y015771D01*
X031455Y015815D01*
X031483Y015856D01*
X031515Y015895D01*
X031549Y015932D01*
X031586Y015966D01*
X031626Y015996D01*
X031668Y016023D01*
X031712Y016047D01*
X031758Y016068D01*
X031805Y016084D01*
X031853Y016097D01*
X031903Y016106D01*
X031952Y016111D01*
X032003Y016112D01*
X032053Y016109D01*
X032102Y016102D01*
X032151Y016091D01*
X032199Y016076D01*
X032245Y016058D01*
X032290Y016036D01*
X032333Y016010D01*
X032374Y015981D01*
X032413Y015949D01*
X032449Y015914D01*
X032481Y015876D01*
X032511Y015836D01*
X032538Y015793D01*
X032561Y015749D01*
X032580Y015703D01*
X032596Y015655D01*
X032608Y015606D01*
X032616Y015557D01*
X032620Y015507D01*
X032620Y015457D01*
X032616Y015407D01*
X032608Y015358D01*
X032596Y015309D01*
X032580Y015261D01*
X032561Y015215D01*
X032538Y015171D01*
X032511Y015128D01*
X032481Y015088D01*
X032449Y015050D01*
X032413Y015015D01*
X032374Y014983D01*
X032333Y014954D01*
X032290Y014928D01*
X032245Y014906D01*
X032199Y014888D01*
X032151Y014873D01*
X032102Y014862D01*
X032053Y014855D01*
X032003Y014852D01*
X031952Y014853D01*
X031903Y014858D01*
X031853Y014867D01*
X031805Y014880D01*
X031758Y014896D01*
X031712Y014917D01*
X031668Y014941D01*
X031626Y014968D01*
X031586Y014998D01*
X031549Y015032D01*
X031515Y015069D01*
X031483Y015108D01*
X031455Y015149D01*
X031430Y015193D01*
X031409Y015238D01*
X031392Y015285D01*
X031378Y015333D01*
X031368Y015382D01*
X031362Y015432D01*
X031360Y015482D01*
X021480Y014112D02*
X020937Y014112D01*
X021209Y013840D02*
X021209Y014384D01*
X019809Y014112D02*
X019009Y014112D01*
X019409Y013712D02*
X019409Y014512D01*
X017979Y014112D02*
X017439Y014112D01*
X017709Y013842D02*
X017709Y014382D01*
X020179Y002214D02*
X020179Y001414D01*
X019779Y001814D02*
X020579Y001814D01*
D11*
X016942Y002564D02*
X016768Y002564D01*
X016855Y002564D02*
X016855Y002825D01*
X016768Y002738D01*
X016647Y002781D02*
X016647Y002694D01*
X016604Y002651D01*
X016473Y002651D01*
X016473Y002564D02*
X016473Y002825D01*
X016604Y002825D01*
X016647Y002781D01*
X016352Y002825D02*
X016265Y002825D01*
X016309Y002825D02*
X016309Y002608D01*
X016265Y002564D01*
X016222Y002564D01*
X016179Y002608D01*
X012563Y002652D02*
X012563Y002752D01*
X012563Y002652D02*
X012513Y002602D01*
X012513Y001702D01*
X012563Y001652D01*
X012563Y001552D01*
X012561Y001535D01*
X012557Y001518D01*
X012550Y001502D01*
X012540Y001488D01*
X012527Y001475D01*
X012513Y001465D01*
X012497Y001458D01*
X012480Y001454D01*
X012463Y001452D01*
X011963Y001452D01*
X011946Y001454D01*
X011929Y001458D01*
X011913Y001465D01*
X011899Y001475D01*
X011886Y001488D01*
X011876Y001502D01*
X011869Y001518D01*
X011865Y001535D01*
X011863Y001552D01*
X011863Y001652D01*
X011913Y001702D01*
X011913Y002602D01*
X011863Y002652D01*
X011863Y002752D01*
X011865Y002769D01*
X011869Y002786D01*
X011876Y002802D01*
X011886Y002816D01*
X011899Y002829D01*
X011913Y002839D01*
X011929Y002846D01*
X011946Y002850D01*
X011963Y002852D01*
X012463Y002852D01*
X012480Y002850D01*
X012497Y002846D01*
X012513Y002839D01*
X012527Y002829D01*
X012540Y002816D01*
X012550Y002802D01*
X012557Y002786D01*
X012561Y002769D01*
X012563Y002752D01*
X011112Y001904D02*
X011074Y001873D01*
X011034Y001845D01*
X010992Y001821D01*
X010949Y001800D01*
X010903Y001783D01*
X010857Y001770D01*
X010809Y001760D01*
X010761Y001754D01*
X010713Y001752D01*
X010113Y002352D02*
X010115Y002399D01*
X010121Y002447D01*
X010130Y002493D01*
X010143Y002539D01*
X010159Y002583D01*
X010180Y002627D01*
X010203Y002668D01*
X010229Y002707D01*
X010259Y002744D01*
X010292Y002779D01*
X010327Y002811D01*
X010364Y002840D01*
X011313Y002352D02*
X011311Y002307D01*
X011306Y002261D01*
X011298Y002217D01*
X011286Y002173D01*
X011270Y002130D01*
X011252Y002088D01*
X011230Y002048D01*
X011206Y002010D01*
X011179Y001974D01*
X011149Y001939D01*
X011116Y001908D01*
X011081Y001878D01*
X010713Y002952D02*
X010666Y002950D01*
X010619Y002945D01*
X010573Y002935D01*
X010527Y002922D01*
X010483Y002906D01*
X010440Y002886D01*
X010399Y002863D01*
X010360Y002837D01*
X010323Y002808D01*
X010713Y002952D02*
X010759Y002950D01*
X010805Y002945D01*
X010851Y002936D01*
X010895Y002924D01*
X010939Y002908D01*
X010981Y002889D01*
X011022Y002867D01*
X011060Y002841D01*
X011097Y002813D01*
X010713Y002752D02*
X010752Y002750D01*
X010791Y002744D01*
X010829Y002735D01*
X010866Y002722D01*
X010902Y002705D01*
X010935Y002685D01*
X010967Y002661D01*
X010996Y002635D01*
X011022Y002606D01*
X011046Y002574D01*
X011066Y002541D01*
X011083Y002505D01*
X011096Y002468D01*
X011105Y002430D01*
X011111Y002391D01*
X011113Y002352D01*
X010713Y001752D02*
X010667Y001754D01*
X010621Y001759D01*
X010575Y001768D01*
X010531Y001780D01*
X010487Y001796D01*
X010445Y001815D01*
X010404Y001837D01*
X010366Y001863D01*
X010329Y001891D01*
X011313Y002352D02*
X011311Y002397D01*
X011306Y002443D01*
X011298Y002487D01*
X011286Y002531D01*
X011270Y002574D01*
X011252Y002616D01*
X011230Y002656D01*
X011206Y002694D01*
X011179Y002730D01*
X011149Y002765D01*
X011116Y002796D01*
X011081Y002826D01*
X010713Y002602D02*
X010743Y002600D01*
X010773Y002595D01*
X010802Y002586D01*
X010829Y002573D01*
X010855Y002558D01*
X010879Y002539D01*
X010900Y002518D01*
X010919Y002494D01*
X010934Y002468D01*
X010947Y002441D01*
X010956Y002412D01*
X010961Y002382D01*
X010963Y002352D01*
X010713Y001952D02*
X010674Y001954D01*
X010635Y001960D01*
X010597Y001969D01*
X010560Y001982D01*
X010524Y001999D01*
X010491Y002019D01*
X010459Y002043D01*
X010430Y002069D01*
X010404Y002098D01*
X010380Y002130D01*
X010360Y002163D01*
X010343Y002199D01*
X010330Y002236D01*
X010321Y002274D01*
X010315Y002313D01*
X010313Y002352D01*
X010463Y002352D02*
X010465Y002322D01*
X010470Y002292D01*
X010479Y002263D01*
X010492Y002236D01*
X010507Y002210D01*
X010526Y002186D01*
X010547Y002165D01*
X010571Y002146D01*
X010597Y002131D01*
X010624Y002118D01*
X010653Y002109D01*
X010683Y002104D01*
X010713Y002102D01*
X010353Y001872D02*
X010317Y001901D01*
X010283Y001933D01*
X010252Y001968D01*
X010224Y002004D01*
X010199Y002043D01*
X010176Y002084D01*
X010157Y002126D01*
X010141Y002169D01*
X010129Y002214D01*
X010120Y002260D01*
X010115Y002306D01*
X010113Y002352D01*
X009012Y001904D02*
X008974Y001873D01*
X008934Y001845D01*
X008892Y001821D01*
X008849Y001800D01*
X008803Y001783D01*
X008757Y001770D01*
X008709Y001760D01*
X008661Y001754D01*
X008613Y001752D01*
X008013Y002352D02*
X008015Y002399D01*
X008021Y002447D01*
X008030Y002493D01*
X008043Y002539D01*
X008059Y002583D01*
X008080Y002627D01*
X008103Y002668D01*
X008129Y002707D01*
X008159Y002744D01*
X008192Y002779D01*
X008227Y002811D01*
X008264Y002840D01*
X007463Y002652D02*
X007463Y002552D01*
X007413Y002502D01*
X007413Y001602D01*
X007463Y001552D01*
X007463Y001452D01*
X007461Y001435D01*
X007457Y001418D01*
X007450Y001402D01*
X007440Y001388D01*
X007427Y001375D01*
X007413Y001365D01*
X007397Y001358D01*
X007380Y001354D01*
X007363Y001352D01*
X006863Y001352D01*
X006846Y001354D01*
X006829Y001358D01*
X006813Y001365D01*
X006799Y001375D01*
X006786Y001388D01*
X006776Y001402D01*
X006769Y001418D01*
X006765Y001435D01*
X006763Y001452D01*
X006763Y001552D01*
X006813Y001602D01*
X006813Y002502D01*
X006763Y002552D01*
X006763Y002652D01*
X006765Y002669D01*
X006769Y002686D01*
X006776Y002702D01*
X006786Y002716D01*
X006799Y002729D01*
X006813Y002739D01*
X006829Y002746D01*
X006846Y002750D01*
X006863Y002752D01*
X007363Y002752D01*
X007380Y002750D01*
X007397Y002746D01*
X007413Y002739D01*
X007427Y002729D01*
X007440Y002716D01*
X007450Y002702D01*
X007457Y002686D01*
X007461Y002669D01*
X007463Y002652D01*
X008613Y002952D02*
X008659Y002950D01*
X008705Y002945D01*
X008751Y002936D01*
X008795Y002924D01*
X008839Y002908D01*
X008881Y002889D01*
X008922Y002867D01*
X008960Y002841D01*
X008997Y002813D01*
X008613Y002952D02*
X008566Y002950D01*
X008519Y002945D01*
X008473Y002935D01*
X008427Y002922D01*
X008383Y002906D01*
X008340Y002886D01*
X008299Y002863D01*
X008260Y002837D01*
X008223Y002808D01*
X009213Y002352D02*
X009211Y002307D01*
X009206Y002261D01*
X009198Y002217D01*
X009186Y002173D01*
X009170Y002130D01*
X009152Y002088D01*
X009130Y002048D01*
X009106Y002010D01*
X009079Y001974D01*
X009049Y001939D01*
X009016Y001908D01*
X008981Y001878D01*
X009213Y002352D02*
X009211Y002397D01*
X009206Y002443D01*
X009198Y002487D01*
X009186Y002531D01*
X009170Y002574D01*
X009152Y002616D01*
X009130Y002656D01*
X009106Y002694D01*
X009079Y002730D01*
X009049Y002765D01*
X009016Y002796D01*
X008981Y002826D01*
X008613Y002752D02*
X008652Y002750D01*
X008691Y002744D01*
X008729Y002735D01*
X008766Y002722D01*
X008802Y002705D01*
X008835Y002685D01*
X008867Y002661D01*
X008896Y002635D01*
X008922Y002606D01*
X008946Y002574D01*
X008966Y002541D01*
X008983Y002505D01*
X008996Y002468D01*
X009005Y002430D01*
X009011Y002391D01*
X009013Y002352D01*
X008613Y001752D02*
X008567Y001754D01*
X008521Y001759D01*
X008475Y001768D01*
X008431Y001780D01*
X008387Y001796D01*
X008345Y001815D01*
X008304Y001837D01*
X008266Y001863D01*
X008229Y001891D01*
X008863Y002352D02*
X008861Y002382D01*
X008856Y002412D01*
X008847Y002441D01*
X008834Y002468D01*
X008819Y002494D01*
X008800Y002518D01*
X008779Y002539D01*
X008755Y002558D01*
X008729Y002573D01*
X008702Y002586D01*
X008673Y002595D01*
X008643Y002600D01*
X008613Y002602D01*
X008213Y002352D02*
X008215Y002313D01*
X008221Y002274D01*
X008230Y002236D01*
X008243Y002199D01*
X008260Y002163D01*
X008280Y002130D01*
X008304Y002098D01*
X008330Y002069D01*
X008359Y002043D01*
X008391Y002019D01*
X008424Y001999D01*
X008460Y001982D01*
X008497Y001969D01*
X008535Y001960D01*
X008574Y001954D01*
X008613Y001952D01*
X008613Y002102D02*
X008583Y002104D01*
X008553Y002109D01*
X008524Y002118D01*
X008497Y002131D01*
X008471Y002146D01*
X008447Y002165D01*
X008426Y002186D01*
X008407Y002210D01*
X008392Y002236D01*
X008379Y002263D01*
X008370Y002292D01*
X008365Y002322D01*
X008363Y002352D01*
X008013Y002352D02*
X008015Y002306D01*
X008020Y002260D01*
X008029Y002214D01*
X008041Y002169D01*
X008057Y002126D01*
X008076Y002084D01*
X008099Y002043D01*
X008124Y002004D01*
X008152Y001968D01*
X008183Y001933D01*
X008217Y001901D01*
X008253Y001872D01*
X008404Y004513D02*
X008404Y004671D01*
X008404Y005446D01*
X008404Y005671D01*
X008404Y006446D01*
X008404Y006604D01*
X007854Y006383D02*
X007854Y004734D01*
X007854Y004733D02*
X007905Y004696D01*
X007958Y004661D01*
X008014Y004629D01*
X008071Y004601D01*
X008130Y004577D01*
X008190Y004556D01*
X008251Y004539D01*
X008313Y004525D01*
X008376Y004516D01*
X008439Y004510D01*
X008503Y004508D01*
X008567Y004510D01*
X008630Y004516D01*
X008693Y004525D01*
X008755Y004538D01*
X008816Y004556D01*
X008876Y004576D01*
X008935Y004601D01*
X008992Y004628D01*
X009048Y004660D01*
X009101Y004694D01*
X009152Y004732D01*
X009201Y004773D01*
X009247Y004817D01*
X009291Y004863D01*
X009332Y004912D01*
X009369Y004963D01*
X009404Y005017D01*
X009435Y005072D01*
X009463Y005129D01*
X009487Y005188D01*
X009507Y005248D01*
X009524Y005309D01*
X009537Y005370D01*
X009546Y005433D01*
X009552Y005495D01*
X009554Y005558D01*
X009552Y005621D01*
X009546Y005683D01*
X009537Y005746D01*
X009524Y005807D01*
X009507Y005868D01*
X009507Y005869D02*
X009487Y005929D01*
X009463Y005988D01*
X009435Y006045D01*
X009404Y006100D01*
X009369Y006154D01*
X009332Y006205D01*
X009291Y006254D01*
X009247Y006300D01*
X009201Y006344D01*
X009152Y006385D01*
X009101Y006423D01*
X009048Y006457D01*
X008992Y006489D01*
X008935Y006516D01*
X008876Y006541D01*
X008816Y006561D01*
X008755Y006579D01*
X008693Y006592D01*
X008630Y006601D01*
X008567Y006607D01*
X008503Y006609D01*
X008439Y006607D01*
X008376Y006601D01*
X008313Y006592D01*
X008251Y006578D01*
X008190Y006561D01*
X008130Y006540D01*
X008071Y006516D01*
X008014Y006488D01*
X007958Y006456D01*
X007905Y006421D01*
X007854Y006384D01*
X010004Y006408D02*
X010004Y004708D01*
X010006Y004691D01*
X010010Y004674D01*
X010017Y004658D01*
X010027Y004644D01*
X010040Y004631D01*
X010054Y004621D01*
X010070Y004614D01*
X010087Y004610D01*
X010104Y004608D01*
X010904Y004608D01*
X010921Y004610D01*
X010938Y004614D01*
X010954Y004621D01*
X010968Y004631D01*
X010981Y004644D01*
X010991Y004658D01*
X010998Y004674D01*
X011002Y004691D01*
X011004Y004708D01*
X011004Y006408D01*
X011002Y006425D01*
X010998Y006442D01*
X010991Y006458D01*
X010981Y006472D01*
X010968Y006485D01*
X010954Y006495D01*
X010938Y006502D01*
X010921Y006506D01*
X010904Y006508D01*
X010104Y006508D01*
X010087Y006506D01*
X010070Y006502D01*
X010054Y006495D01*
X010040Y006485D01*
X010027Y006472D01*
X010017Y006458D01*
X010010Y006442D01*
X010006Y006425D01*
X010004Y006408D01*
X010504Y005858D02*
X010504Y005708D01*
X010504Y005658D01*
X010504Y005458D02*
X010504Y005408D01*
X010504Y005258D01*
X011354Y004734D02*
X011354Y006383D01*
X011904Y006446D02*
X011904Y006604D01*
X011904Y006446D02*
X011904Y005671D01*
X011904Y005446D01*
X011904Y004671D01*
X011904Y004513D01*
X013504Y004708D02*
X013504Y006408D01*
X013506Y006425D01*
X013510Y006442D01*
X013517Y006458D01*
X013527Y006472D01*
X013540Y006485D01*
X013554Y006495D01*
X013570Y006502D01*
X013587Y006506D01*
X013604Y006508D01*
X014404Y006508D01*
X014421Y006506D01*
X014438Y006502D01*
X014454Y006495D01*
X014468Y006485D01*
X014481Y006472D01*
X014491Y006458D01*
X014498Y006442D01*
X014502Y006425D01*
X014504Y006408D01*
X014504Y004708D01*
X014502Y004691D01*
X014498Y004674D01*
X014491Y004658D01*
X014481Y004644D01*
X014468Y004631D01*
X014454Y004621D01*
X014438Y004614D01*
X014421Y004610D01*
X014404Y004608D01*
X013604Y004608D01*
X013587Y004610D01*
X013570Y004614D01*
X013554Y004621D01*
X013540Y004631D01*
X013527Y004644D01*
X013517Y004658D01*
X013510Y004674D01*
X013506Y004691D01*
X013504Y004708D01*
X014004Y005258D02*
X014004Y005408D01*
X014004Y005458D01*
X014004Y005658D02*
X014004Y005708D01*
X014004Y005858D01*
X013007Y005869D02*
X012987Y005929D01*
X012963Y005988D01*
X012935Y006045D01*
X012904Y006100D01*
X012869Y006154D01*
X012832Y006205D01*
X012791Y006254D01*
X012747Y006300D01*
X012701Y006344D01*
X012652Y006385D01*
X012601Y006423D01*
X012548Y006457D01*
X012492Y006489D01*
X012435Y006516D01*
X012376Y006541D01*
X012316Y006561D01*
X012255Y006579D01*
X012193Y006592D01*
X012130Y006601D01*
X012067Y006607D01*
X012003Y006609D01*
X011939Y006607D01*
X011876Y006601D01*
X011813Y006592D01*
X011751Y006578D01*
X011690Y006561D01*
X011630Y006540D01*
X011571Y006516D01*
X011514Y006488D01*
X011458Y006456D01*
X011405Y006421D01*
X011354Y006384D01*
X013007Y005868D02*
X013024Y005807D01*
X013037Y005746D01*
X013046Y005683D01*
X013052Y005621D01*
X013054Y005558D01*
X013052Y005495D01*
X013046Y005433D01*
X013037Y005370D01*
X013024Y005309D01*
X013007Y005248D01*
X012987Y005188D01*
X012963Y005129D01*
X012935Y005072D01*
X012904Y005017D01*
X012869Y004963D01*
X012832Y004912D01*
X012791Y004863D01*
X012747Y004817D01*
X012701Y004773D01*
X012652Y004732D01*
X012601Y004694D01*
X012548Y004660D01*
X012492Y004628D01*
X012435Y004601D01*
X012376Y004576D01*
X012316Y004556D01*
X012255Y004538D01*
X012193Y004525D01*
X012130Y004516D01*
X012067Y004510D01*
X012003Y004508D01*
X011939Y004510D01*
X011876Y004516D01*
X011813Y004525D01*
X011751Y004539D01*
X011690Y004556D01*
X011630Y004577D01*
X011571Y004601D01*
X011514Y004629D01*
X011458Y004661D01*
X011405Y004696D01*
X011354Y004733D01*
X018088Y007679D02*
X018088Y010299D01*
X018228Y010439D01*
X020848Y010439D01*
X020848Y007679D01*
X018088Y007679D01*
X016580Y008209D02*
X016580Y009909D01*
X016578Y009926D01*
X016574Y009943D01*
X016567Y009959D01*
X016557Y009973D01*
X016544Y009986D01*
X016530Y009996D01*
X016514Y010003D01*
X016497Y010007D01*
X016480Y010009D01*
X015680Y010009D01*
X015663Y010007D01*
X015646Y010003D01*
X015630Y009996D01*
X015616Y009986D01*
X015603Y009973D01*
X015593Y009959D01*
X015586Y009943D01*
X015582Y009926D01*
X015580Y009909D01*
X015580Y008209D01*
X015582Y008192D01*
X015586Y008175D01*
X015593Y008159D01*
X015603Y008145D01*
X015616Y008132D01*
X015630Y008122D01*
X015646Y008115D01*
X015663Y008111D01*
X015680Y008109D01*
X016480Y008109D01*
X016497Y008111D01*
X016514Y008115D01*
X016530Y008122D01*
X016544Y008132D01*
X016557Y008145D01*
X016567Y008159D01*
X016574Y008175D01*
X016578Y008192D01*
X016580Y008209D01*
X016080Y008759D02*
X016080Y008909D01*
X016080Y008959D01*
X016080Y009159D02*
X016080Y009209D01*
X016080Y009359D01*
X018247Y010139D02*
X018249Y010162D01*
X018255Y010185D01*
X018264Y010206D01*
X018277Y010226D01*
X018293Y010243D01*
X018311Y010257D01*
X018331Y010268D01*
X018353Y010276D01*
X018376Y010280D01*
X018400Y010280D01*
X018423Y010276D01*
X018445Y010268D01*
X018465Y010257D01*
X018483Y010243D01*
X018499Y010226D01*
X018512Y010206D01*
X018521Y010185D01*
X018527Y010162D01*
X018529Y010139D01*
X018527Y010116D01*
X018521Y010093D01*
X018512Y010072D01*
X018499Y010052D01*
X018483Y010035D01*
X018465Y010021D01*
X018445Y010010D01*
X018423Y010002D01*
X018400Y009998D01*
X018376Y009998D01*
X018353Y010002D01*
X018331Y010010D01*
X018311Y010021D01*
X018293Y010035D01*
X018277Y010052D01*
X018264Y010072D01*
X018255Y010093D01*
X018249Y010116D01*
X018247Y010139D01*
X023509Y008290D02*
X023509Y007790D01*
X023511Y007773D01*
X023515Y007756D01*
X023522Y007740D01*
X023532Y007726D01*
X023545Y007713D01*
X023559Y007703D01*
X023575Y007696D01*
X023592Y007692D01*
X023609Y007690D01*
X023709Y007690D01*
X023759Y007740D01*
X024659Y007740D01*
X024709Y007690D01*
X024809Y007690D01*
X024826Y007692D01*
X024843Y007696D01*
X024859Y007703D01*
X024873Y007713D01*
X024886Y007726D01*
X024896Y007740D01*
X024903Y007756D01*
X024907Y007773D01*
X024909Y007790D01*
X024909Y008290D01*
X024907Y008307D01*
X024903Y008324D01*
X024896Y008340D01*
X024886Y008354D01*
X024873Y008367D01*
X024859Y008377D01*
X024843Y008384D01*
X024826Y008388D01*
X024809Y008390D01*
X024709Y008390D01*
X024659Y008340D01*
X023759Y008340D01*
X023709Y008390D01*
X023609Y008390D01*
X023592Y008388D01*
X023575Y008384D01*
X023559Y008377D01*
X023545Y008367D01*
X023532Y008354D01*
X023522Y008340D01*
X023515Y008324D01*
X023511Y008307D01*
X023509Y008290D01*
X023336Y006928D02*
X022836Y006928D01*
X022586Y006678D01*
X022586Y005178D01*
X022836Y004928D01*
X023336Y004928D01*
X023586Y005178D01*
X023586Y006678D01*
X023336Y006928D01*
X023586Y006678D02*
X023836Y006928D01*
X024336Y006928D01*
X024586Y006678D01*
X024586Y005178D01*
X024336Y004928D01*
X023836Y004928D01*
X023586Y005178D01*
X024586Y005178D02*
X024836Y004928D01*
X025336Y004928D01*
X025586Y005178D01*
X025586Y006678D01*
X025336Y006928D01*
X024836Y006928D01*
X024586Y006678D01*
X025947Y006757D02*
X026160Y006971D01*
X026160Y006330D01*
X025947Y006330D02*
X026374Y006330D01*
X021459Y013412D02*
X020959Y013412D01*
X020942Y013414D01*
X020925Y013418D01*
X020909Y013425D01*
X020895Y013435D01*
X020882Y013448D01*
X020872Y013462D01*
X020865Y013478D01*
X020861Y013495D01*
X020859Y013512D01*
X020859Y013612D01*
X020909Y013662D01*
X020909Y014562D01*
X020859Y014612D01*
X020859Y014712D01*
X020861Y014729D01*
X020865Y014746D01*
X020872Y014762D01*
X020882Y014776D01*
X020895Y014789D01*
X020909Y014799D01*
X020925Y014806D01*
X020942Y014810D01*
X020959Y014812D01*
X021459Y014812D01*
X021476Y014810D01*
X021493Y014806D01*
X021509Y014799D01*
X021523Y014789D01*
X021536Y014776D01*
X021546Y014762D01*
X021553Y014746D01*
X021557Y014729D01*
X021559Y014712D01*
X021559Y014612D01*
X021509Y014562D01*
X021509Y013662D01*
X021559Y013612D01*
X021559Y013512D01*
X021557Y013495D01*
X021553Y013478D01*
X021546Y013462D01*
X021536Y013448D01*
X021523Y013435D01*
X021509Y013425D01*
X021493Y013418D01*
X021476Y013414D01*
X021459Y013412D01*
X020409Y013492D02*
X020409Y014732D01*
X020407Y014755D01*
X020402Y014778D01*
X020393Y014800D01*
X020380Y014820D01*
X020365Y014838D01*
X020347Y014853D01*
X020327Y014866D01*
X020305Y014875D01*
X020282Y014880D01*
X020259Y014882D01*
X018559Y014882D01*
X018536Y014880D01*
X018513Y014875D01*
X018491Y014866D01*
X018471Y014853D01*
X018453Y014838D01*
X018438Y014820D01*
X018425Y014800D01*
X018416Y014778D01*
X018411Y014755D01*
X018409Y014732D01*
X018409Y014312D01*
X018409Y013912D01*
X018409Y013492D01*
X018411Y013469D01*
X018416Y013446D01*
X018425Y013424D01*
X018438Y013404D01*
X018453Y013386D01*
X018471Y013371D01*
X018491Y013358D01*
X018513Y013349D01*
X018536Y013344D01*
X018559Y013342D01*
X020259Y013342D01*
X020282Y013344D01*
X020305Y013349D01*
X020327Y013358D01*
X020347Y013371D01*
X020365Y013386D01*
X020380Y013404D01*
X020393Y013424D01*
X020402Y013446D01*
X020407Y013469D01*
X020409Y013492D01*
X018409Y013912D02*
X018436Y013914D01*
X018463Y013919D01*
X018489Y013929D01*
X018513Y013941D01*
X018535Y013957D01*
X018555Y013975D01*
X018572Y013997D01*
X018587Y014020D01*
X018597Y014045D01*
X018605Y014071D01*
X018609Y014098D01*
X018609Y014126D01*
X018605Y014153D01*
X018597Y014179D01*
X018587Y014204D01*
X018572Y014227D01*
X018555Y014249D01*
X018535Y014267D01*
X018513Y014283D01*
X018489Y014295D01*
X018463Y014305D01*
X018436Y014310D01*
X018409Y014312D01*
X018059Y014612D02*
X018009Y014562D01*
X018009Y013662D01*
X018059Y013612D01*
X018059Y013512D01*
X018057Y013495D01*
X018053Y013478D01*
X018046Y013462D01*
X018036Y013448D01*
X018023Y013435D01*
X018009Y013425D01*
X017993Y013418D01*
X017976Y013414D01*
X017959Y013412D01*
X017459Y013412D01*
X017442Y013414D01*
X017425Y013418D01*
X017409Y013425D01*
X017395Y013435D01*
X017382Y013448D01*
X017372Y013462D01*
X017365Y013478D01*
X017361Y013495D01*
X017359Y013512D01*
X017359Y013612D01*
X017409Y013662D01*
X017409Y014562D01*
X017359Y014612D01*
X017359Y014712D01*
X017361Y014729D01*
X017365Y014746D01*
X017372Y014762D01*
X017382Y014776D01*
X017395Y014789D01*
X017409Y014799D01*
X017425Y014806D01*
X017442Y014810D01*
X017459Y014812D01*
X017959Y014812D01*
X017976Y014810D01*
X017993Y014806D01*
X018009Y014799D01*
X018023Y014789D01*
X018036Y014776D01*
X018046Y014762D01*
X018053Y014746D01*
X018057Y014729D01*
X018059Y014712D01*
X018059Y014612D01*
D12*
X017042Y015055D02*
X016735Y015055D01*
X016735Y014978D02*
X016735Y015132D01*
X016811Y015209D01*
X016965Y015209D01*
X017042Y015132D01*
X017042Y015055D01*
X016965Y014902D02*
X016811Y014902D01*
X016735Y014978D01*
X016581Y014902D02*
X016351Y014902D01*
X016274Y014978D01*
X016274Y015132D01*
X016351Y015209D01*
X016581Y015209D01*
X016581Y014825D01*
X016504Y014748D01*
X016428Y014748D01*
X016428Y014612D02*
X016274Y014612D01*
X016198Y014535D01*
X016198Y014459D01*
X016274Y014382D01*
X016504Y014382D01*
X016504Y014535D02*
X016504Y014228D01*
X016428Y014152D01*
X016274Y014152D01*
X016198Y014228D01*
X016044Y014152D02*
X015737Y014152D01*
X015891Y014152D02*
X015891Y014612D01*
X015737Y014459D01*
X015584Y014535D02*
X015277Y014228D01*
X015353Y014152D01*
X015507Y014152D01*
X015584Y014228D01*
X015584Y014535D01*
X015507Y014612D01*
X015353Y014612D01*
X015277Y014535D01*
X015277Y014228D01*
X015123Y014152D02*
X014816Y014152D01*
X015123Y014459D01*
X015123Y014535D01*
X015047Y014612D01*
X014893Y014612D01*
X014816Y014535D01*
X014893Y014902D02*
X014663Y014902D01*
X014663Y015362D01*
X014893Y015362D01*
X014970Y015285D01*
X014970Y015209D01*
X014893Y015132D01*
X014663Y015132D01*
X014893Y015132D02*
X014970Y015055D01*
X014970Y014978D01*
X014893Y014902D01*
X015123Y014902D02*
X015123Y015209D01*
X015277Y015209D02*
X015353Y015209D01*
X015277Y015209D02*
X015123Y015055D01*
X015507Y014902D02*
X015660Y014902D01*
X015584Y014902D02*
X015584Y015209D01*
X015507Y015209D01*
X015584Y015362D02*
X015584Y015439D01*
X015891Y015209D02*
X016121Y015209D01*
X016121Y015362D02*
X016121Y014902D01*
X015891Y014902D01*
X015814Y014978D01*
X015814Y015132D01*
X015891Y015209D01*
X016428Y014612D02*
X016504Y014535D01*
X017538Y015590D02*
X017597Y015532D01*
X017538Y015590D02*
X017538Y015707D01*
X017597Y015766D01*
X017655Y015766D01*
X017889Y015532D01*
X017889Y015766D01*
X017889Y015891D02*
X017538Y015891D01*
X017714Y015950D02*
X017889Y016125D01*
X017772Y015891D02*
X017538Y016125D01*
X014049Y015132D02*
X014049Y014902D01*
X014049Y015132D02*
X013972Y015209D01*
X013819Y015209D01*
X013742Y015132D01*
X013589Y015209D02*
X013435Y015209D01*
X013512Y015285D02*
X013512Y014978D01*
X013589Y014902D01*
X013742Y014902D02*
X013742Y015362D01*
X013282Y015209D02*
X013282Y014902D01*
X013052Y014902D01*
X012975Y014978D01*
X012975Y015209D01*
X012821Y015132D02*
X012745Y015209D01*
X012591Y015209D01*
X012514Y015132D01*
X012514Y014978D01*
X012591Y014902D01*
X012745Y014902D01*
X012821Y014978D01*
X012821Y015132D01*
X012361Y015055D02*
X012361Y014978D01*
X012284Y014902D01*
X012131Y014902D01*
X012054Y014978D01*
X012131Y015132D02*
X012284Y015132D01*
X012361Y015055D01*
X012361Y015285D02*
X012284Y015362D01*
X012131Y015362D01*
X012054Y015285D01*
X012054Y015209D01*
X012131Y015132D01*
X011440Y015055D02*
X011440Y015362D01*
X011133Y015362D02*
X011133Y015055D01*
X011287Y014902D01*
X011440Y015055D01*
X010980Y015132D02*
X010673Y015132D01*
X010673Y015209D02*
X010673Y014902D01*
X010519Y014902D02*
X010212Y014902D01*
X010212Y015362D01*
X010059Y015362D02*
X010059Y014978D01*
X009982Y014902D01*
X009829Y014902D01*
X009752Y014978D01*
X009752Y015362D01*
X009599Y015285D02*
X009599Y015132D01*
X009522Y015055D01*
X009292Y015055D01*
X009445Y015055D02*
X009599Y014902D01*
X009292Y014902D02*
X009292Y015362D01*
X009522Y015362D01*
X009599Y015285D01*
X010673Y015209D02*
X010826Y015362D01*
X010980Y015209D01*
X010980Y014902D01*
X010519Y014535D02*
X010519Y014382D01*
X010443Y014305D01*
X010212Y014305D01*
X010212Y014152D02*
X010212Y014612D01*
X010443Y014612D01*
X010519Y014535D01*
X010673Y014382D02*
X010750Y014459D01*
X010903Y014459D01*
X010980Y014382D01*
X010980Y014305D01*
X010673Y014305D01*
X010673Y014228D02*
X010673Y014382D01*
X010673Y014228D02*
X010750Y014152D01*
X010903Y014152D01*
X011133Y014459D02*
X011287Y014152D01*
X011440Y014459D01*
X012054Y014459D02*
X012207Y014612D01*
X012361Y014459D01*
X012361Y014152D01*
X012054Y014152D02*
X012054Y014459D01*
X012054Y014382D02*
X012361Y014382D01*
X012975Y014228D02*
X013052Y014152D01*
X013128Y014152D01*
X013205Y014228D01*
X013205Y014612D01*
X013128Y014612D02*
X013282Y014612D01*
X013512Y014459D02*
X013665Y014459D01*
X013742Y014382D01*
X013742Y014152D01*
X013512Y014152D01*
X013435Y014228D01*
X013512Y014305D01*
X013742Y014305D01*
X013896Y014152D02*
X013896Y014459D01*
X014126Y014459D01*
X014203Y014382D01*
X014203Y014152D01*
X017528Y012576D02*
X017528Y012460D01*
X017587Y012401D01*
X017587Y012276D02*
X017704Y012276D01*
X017762Y012217D01*
X017762Y012042D01*
X017879Y012042D02*
X017528Y012042D01*
X017528Y012217D01*
X017587Y012276D01*
X017762Y012159D02*
X017879Y012276D01*
X017879Y012401D02*
X017645Y012635D01*
X017587Y012635D01*
X017528Y012576D01*
X017879Y012635D02*
X017879Y012401D01*
X021028Y012510D02*
X021087Y012451D01*
X021028Y012510D02*
X021028Y012626D01*
X021087Y012685D01*
X021145Y012685D01*
X021204Y012626D01*
X021262Y012685D01*
X021320Y012685D01*
X021379Y012626D01*
X021379Y012510D01*
X021320Y012451D01*
X021379Y012326D02*
X021262Y012209D01*
X021262Y012267D02*
X021262Y012092D01*
X021379Y012092D02*
X021028Y012092D01*
X021028Y012267D01*
X021087Y012326D01*
X021204Y012326D01*
X021262Y012267D01*
X021204Y012568D02*
X021204Y012626D01*
X016176Y010430D02*
X016176Y010079D01*
X016059Y010079D02*
X016293Y010079D01*
X015934Y010138D02*
X015875Y010079D01*
X015759Y010079D01*
X015700Y010138D01*
X015700Y010371D01*
X015759Y010430D01*
X015875Y010430D01*
X015934Y010371D01*
X016059Y010313D02*
X016176Y010430D01*
X016056Y007730D02*
X016056Y007379D01*
X015939Y007379D02*
X016173Y007379D01*
X016298Y007438D02*
X016356Y007379D01*
X016532Y007379D01*
X016532Y007613D01*
X016657Y007554D02*
X016774Y007554D01*
X016657Y007379D02*
X016657Y007730D01*
X016891Y007730D01*
X016298Y007613D02*
X016298Y007438D01*
X016056Y007730D02*
X015939Y007613D01*
X015818Y007438D02*
X015818Y007379D01*
X015759Y007379D01*
X015759Y007438D01*
X015818Y007438D01*
X015634Y007438D02*
X015575Y007379D01*
X015459Y007379D01*
X015400Y007438D01*
X015634Y007671D01*
X015634Y007438D01*
X015634Y007671D02*
X015575Y007730D01*
X015459Y007730D01*
X015400Y007671D01*
X015400Y007438D01*
X014198Y007080D02*
X014198Y007022D01*
X014140Y006964D01*
X014198Y006905D01*
X014198Y006847D01*
X014140Y006788D01*
X014023Y006788D01*
X013965Y006847D01*
X013839Y006847D02*
X013781Y006788D01*
X013664Y006788D01*
X013606Y006847D01*
X013606Y007080D01*
X013664Y007139D01*
X013781Y007139D01*
X013839Y007080D01*
X013965Y007080D02*
X014023Y007139D01*
X014140Y007139D01*
X014198Y007080D01*
X014140Y006964D02*
X014082Y006964D01*
X012348Y007022D02*
X012290Y006964D01*
X012348Y006905D01*
X012348Y006847D01*
X012290Y006788D01*
X012173Y006788D01*
X012115Y006847D01*
X011989Y006847D02*
X011931Y006788D01*
X011814Y006788D01*
X011756Y006847D01*
X011756Y007080D01*
X011814Y007139D01*
X011931Y007139D01*
X011989Y007080D01*
X012115Y007080D02*
X012173Y007139D01*
X012290Y007139D01*
X012348Y007080D01*
X012348Y007022D01*
X012290Y006964D02*
X012232Y006964D01*
X011633Y007139D02*
X011516Y007139D01*
X011575Y007139D02*
X011575Y006788D01*
X011633Y006788D02*
X011516Y006788D01*
X010698Y006788D02*
X010465Y006788D01*
X010698Y007022D01*
X010698Y007080D01*
X010640Y007139D01*
X010523Y007139D01*
X010465Y007080D01*
X010339Y007080D02*
X010281Y007139D01*
X010164Y007139D01*
X010106Y007080D01*
X010106Y006847D01*
X010164Y006788D01*
X010281Y006788D01*
X010339Y006847D01*
X008848Y006788D02*
X008615Y006788D01*
X008848Y007022D01*
X008848Y007080D01*
X008790Y007139D01*
X008673Y007139D01*
X008615Y007080D01*
X008489Y007080D02*
X008431Y007139D01*
X008314Y007139D01*
X008256Y007080D01*
X008256Y006847D01*
X008314Y006788D01*
X008431Y006788D01*
X008489Y006847D01*
X008133Y006788D02*
X008016Y006788D01*
X008075Y006788D02*
X008075Y007139D01*
X008133Y007139D02*
X008016Y007139D01*
X003698Y007188D02*
X003338Y007188D01*
X003698Y007428D01*
X003338Y007428D01*
X003398Y007556D02*
X003638Y007556D01*
X003698Y007616D01*
X003698Y007736D01*
X003638Y007796D01*
X003698Y007924D02*
X003698Y008165D01*
X003698Y008044D02*
X003338Y008044D01*
X003458Y007924D01*
X003398Y007796D02*
X003338Y007736D01*
X003338Y007616D01*
X003398Y007556D01*
X003338Y007060D02*
X003338Y006819D01*
X003698Y006819D01*
X003698Y007060D01*
X003518Y006940D02*
X003518Y006819D01*
X003338Y006691D02*
X003698Y006451D01*
X003338Y006323D02*
X003338Y006083D01*
X003338Y006203D02*
X003698Y006203D01*
X003638Y005955D02*
X003398Y005955D01*
X003338Y005895D01*
X003338Y005775D01*
X003398Y005715D01*
X003638Y005715D01*
X003698Y005775D01*
X003698Y005895D01*
X003638Y005955D01*
X003518Y005586D02*
X003578Y005526D01*
X003578Y005346D01*
X003698Y005346D02*
X003338Y005346D01*
X003338Y005526D01*
X003398Y005586D01*
X003518Y005586D01*
X007638Y004339D02*
X007871Y004339D01*
X007871Y004280D01*
X007638Y004047D01*
X007638Y003988D01*
X007997Y004047D02*
X007997Y004105D01*
X008055Y004164D01*
X008172Y004164D01*
X008230Y004105D01*
X008230Y004047D01*
X008172Y003988D01*
X008055Y003988D01*
X007997Y004047D01*
X008055Y004164D02*
X007997Y004222D01*
X007997Y004280D01*
X008055Y004339D01*
X008172Y004339D01*
X008230Y004280D01*
X008230Y004222D01*
X008172Y004164D01*
X008356Y004280D02*
X008356Y004047D01*
X008589Y004280D01*
X008589Y004047D01*
X008531Y003988D01*
X008414Y003988D01*
X008356Y004047D01*
X008715Y004047D02*
X008773Y003988D01*
X008890Y003988D01*
X008948Y004047D01*
X008948Y004164D01*
X008890Y004222D01*
X008832Y004222D01*
X008715Y004164D01*
X008715Y004339D01*
X008948Y004339D01*
X008589Y004280D02*
X008531Y004339D01*
X008414Y004339D01*
X008356Y004280D01*
X009588Y004222D02*
X009704Y004339D01*
X009704Y003988D01*
X009588Y003988D02*
X009821Y003988D01*
X009947Y004047D02*
X010180Y004280D01*
X010180Y004047D01*
X010122Y003988D01*
X010005Y003988D01*
X009947Y004047D01*
X009947Y004280D01*
X010005Y004339D01*
X010122Y004339D01*
X010180Y004280D01*
X010306Y004222D02*
X010306Y004047D01*
X010364Y003988D01*
X010539Y003988D01*
X010539Y004222D01*
X010665Y004164D02*
X010782Y004164D01*
X010898Y004339D02*
X010665Y004339D01*
X010665Y003988D01*
X011138Y003988D02*
X011138Y004047D01*
X011371Y004280D01*
X011371Y004339D01*
X011138Y004339D01*
X011497Y004280D02*
X011497Y004222D01*
X011555Y004164D01*
X011672Y004164D01*
X011730Y004105D01*
X011730Y004047D01*
X011672Y003988D01*
X011555Y003988D01*
X011497Y004047D01*
X011497Y004105D01*
X011555Y004164D01*
X011672Y004164D02*
X011730Y004222D01*
X011730Y004280D01*
X011672Y004339D01*
X011555Y004339D01*
X011497Y004280D01*
X011856Y004222D02*
X011972Y004339D01*
X011972Y003988D01*
X011856Y003988D02*
X012089Y003988D01*
X012215Y004047D02*
X012448Y004280D01*
X012448Y004047D01*
X012390Y003988D01*
X012273Y003988D01*
X012215Y004047D01*
X012215Y004280D01*
X012273Y004339D01*
X012390Y004339D01*
X012448Y004280D01*
X013008Y004280D02*
X013008Y004047D01*
X013241Y004280D01*
X013241Y004047D01*
X013183Y003988D01*
X013066Y003988D01*
X013008Y004047D01*
X013367Y004047D02*
X013425Y004047D01*
X013425Y003988D01*
X013367Y003988D01*
X013367Y004047D01*
X013547Y003988D02*
X013780Y003988D01*
X013663Y003988D02*
X013663Y004339D01*
X013547Y004222D01*
X013241Y004280D02*
X013183Y004339D01*
X013066Y004339D01*
X013008Y004280D01*
X013906Y004222D02*
X013906Y004047D01*
X013964Y003988D01*
X014139Y003988D01*
X014139Y004222D01*
X014265Y004164D02*
X014382Y004164D01*
X014498Y004339D02*
X014265Y004339D01*
X014265Y003988D01*
X012983Y002788D02*
X012983Y002671D01*
X012924Y002613D01*
X012807Y002613D02*
X012749Y002730D01*
X012749Y002788D01*
X012807Y002847D01*
X012924Y002847D01*
X012983Y002788D01*
X012807Y002613D02*
X012632Y002613D01*
X012632Y002847D01*
X012691Y002487D02*
X012807Y002487D01*
X012866Y002429D01*
X012866Y002254D01*
X012983Y002254D02*
X012632Y002254D01*
X012632Y002429D01*
X012691Y002487D01*
X012866Y002371D02*
X012983Y002487D01*
X012983Y001847D02*
X012807Y001671D01*
X012866Y001613D02*
X012632Y001847D01*
X012632Y001613D02*
X012983Y001613D01*
X012924Y001487D02*
X012866Y001487D01*
X012807Y001429D01*
X012807Y001371D01*
X012807Y001429D02*
X012749Y001487D01*
X012691Y001487D01*
X012632Y001429D01*
X012632Y001312D01*
X012691Y001254D01*
X012807Y001128D02*
X012807Y000895D01*
X012807Y000769D02*
X012924Y000769D01*
X012983Y000711D01*
X012983Y000594D01*
X012924Y000536D01*
X012807Y000536D02*
X012749Y000653D01*
X012749Y000711D01*
X012807Y000769D01*
X012632Y000769D02*
X012632Y000536D01*
X012807Y000536D01*
X012924Y000415D02*
X012983Y000415D01*
X012983Y000356D01*
X012924Y000356D01*
X012924Y000415D01*
X012924Y000231D02*
X012691Y000231D01*
X012924Y-000003D01*
X012983Y000055D01*
X012983Y000172D01*
X012924Y000231D01*
X012691Y000231D02*
X012632Y000172D01*
X012632Y000055D01*
X012691Y-000003D01*
X012924Y-000003D01*
X012924Y001254D02*
X012983Y001312D01*
X012983Y001429D01*
X012924Y001487D01*
X006673Y001553D02*
X006322Y001553D01*
X006381Y001427D02*
X006439Y001427D01*
X006497Y001369D01*
X006556Y001427D01*
X006614Y001427D01*
X006673Y001369D01*
X006673Y001252D01*
X006614Y001194D01*
X006497Y001311D02*
X006497Y001369D01*
X006381Y001427D02*
X006322Y001369D01*
X006322Y001252D01*
X006381Y001194D01*
X006497Y001068D02*
X006497Y000835D01*
X006497Y000709D02*
X006614Y000709D01*
X006673Y000651D01*
X006673Y000534D01*
X006614Y000476D01*
X006497Y000476D02*
X006439Y000593D01*
X006439Y000651D01*
X006497Y000709D01*
X006322Y000709D02*
X006322Y000476D01*
X006497Y000476D01*
X006614Y000355D02*
X006673Y000355D01*
X006673Y000296D01*
X006614Y000296D01*
X006614Y000355D01*
X006614Y000171D02*
X006673Y000112D01*
X006673Y-000005D01*
X006614Y-000063D01*
X006381Y000171D01*
X006614Y000171D01*
X006381Y000171D02*
X006322Y000112D01*
X006322Y-000005D01*
X006381Y-000063D01*
X006614Y-000063D01*
X003698Y000622D02*
X003338Y000622D01*
X003338Y000802D01*
X003398Y000862D01*
X003518Y000862D01*
X003578Y000802D01*
X003578Y000622D01*
X003638Y000990D02*
X003698Y001050D01*
X003698Y001170D01*
X003638Y001230D01*
X003398Y001230D01*
X003338Y001170D01*
X003338Y001050D01*
X003398Y000990D01*
X003638Y000990D01*
X003338Y001358D02*
X003338Y001599D01*
X003338Y001479D02*
X003698Y001479D01*
X003698Y001727D02*
X003338Y001967D01*
X003338Y002095D02*
X003698Y002095D01*
X003698Y002335D01*
X003698Y002463D02*
X003338Y002463D01*
X003698Y002704D01*
X003338Y002704D01*
X003398Y002832D02*
X003638Y002832D01*
X003698Y002892D01*
X003698Y003012D01*
X003638Y003072D01*
X003698Y003200D02*
X003458Y003440D01*
X003398Y003440D01*
X003338Y003380D01*
X003338Y003260D01*
X003398Y003200D01*
X003398Y003072D02*
X003338Y003012D01*
X003338Y002892D01*
X003398Y002832D01*
X003698Y003200D02*
X003698Y003440D01*
X003338Y002335D02*
X003338Y002095D01*
X003518Y002095D02*
X003518Y002215D01*
X006332Y002254D02*
X006332Y002429D01*
X006391Y002487D01*
X006507Y002487D01*
X006566Y002429D01*
X006566Y002254D01*
X006683Y002254D02*
X006332Y002254D01*
X006566Y002371D02*
X006683Y002487D01*
X006507Y002613D02*
X006507Y002847D01*
X006332Y002788D02*
X006507Y002613D01*
X006332Y002788D02*
X006683Y002788D01*
X006673Y001787D02*
X006497Y001611D01*
X006556Y001553D02*
X006322Y001787D01*
X022139Y007870D02*
X022139Y008221D01*
X022314Y008221D01*
X022372Y008162D01*
X022372Y008046D01*
X022314Y007987D01*
X022139Y007987D01*
X022255Y007987D02*
X022372Y007870D01*
X022498Y007870D02*
X022731Y007870D01*
X022615Y007870D02*
X022615Y008221D01*
X022498Y008104D01*
X025629Y008094D02*
X025745Y008211D01*
X025745Y007860D01*
X025629Y007860D02*
X025862Y007860D01*
X025988Y007919D02*
X026221Y008152D01*
X026221Y007919D01*
X026163Y007860D01*
X026046Y007860D01*
X025988Y007919D01*
X025988Y008152D01*
X026046Y008211D01*
X026163Y008211D01*
X026221Y008152D01*
X026347Y008211D02*
X026347Y007860D01*
X026347Y007977D02*
X026580Y008211D01*
X026405Y008036D02*
X026580Y007860D01*
X010519Y014152D02*
X010366Y014305D01*
X021048Y015750D02*
X021107Y015692D01*
X021048Y015750D02*
X021048Y015867D01*
X021107Y015926D01*
X021165Y015926D01*
X021399Y015692D01*
X021399Y015926D01*
X021399Y016051D02*
X021048Y016051D01*
X021224Y016110D02*
X021399Y016285D01*
X021282Y016051D02*
X021048Y016285D01*
X022237Y016309D02*
X022237Y015849D01*
X022543Y015849D01*
X022697Y015849D02*
X023004Y016309D01*
X023157Y016309D02*
X023388Y016309D01*
X023464Y016232D01*
X023464Y016079D01*
X023388Y016002D01*
X023157Y016002D01*
X023157Y015849D02*
X023157Y016309D01*
X022697Y016309D02*
X023004Y015849D01*
X023618Y015849D02*
X023925Y015849D01*
X024078Y015849D02*
X024078Y016309D01*
X024308Y016309D01*
X024385Y016232D01*
X024385Y016079D01*
X024308Y016002D01*
X024078Y016002D01*
X024232Y016002D02*
X024385Y015849D01*
X024538Y015849D02*
X024692Y015849D01*
X024615Y015849D02*
X024615Y016309D01*
X024538Y016309D02*
X024692Y016309D01*
X024845Y016309D02*
X024999Y016155D01*
X025152Y016309D01*
X025152Y015849D01*
X025306Y015849D02*
X025613Y015849D01*
X025766Y015849D02*
X025766Y016309D01*
X026073Y015849D01*
X026073Y016309D01*
X026227Y016309D02*
X026534Y016309D01*
X026380Y016309D02*
X026380Y015849D01*
X026687Y015849D02*
X026687Y016155D01*
X026840Y016309D01*
X026994Y016155D01*
X026994Y015849D01*
X027147Y015849D02*
X027454Y015849D01*
X027147Y015849D02*
X027147Y016309D01*
X026994Y016079D02*
X026687Y016079D01*
X025613Y016309D02*
X025306Y016309D01*
X025306Y015849D01*
X024845Y015849D02*
X024845Y016309D01*
X025306Y016079D02*
X025459Y016079D01*
X023925Y016309D02*
X023618Y016309D01*
X023618Y015849D01*
X023618Y016079D02*
X023771Y016079D01*
X022543Y016309D02*
X022237Y016309D01*
X022237Y016079D02*
X022390Y016079D01*
D13*
X021063Y010162D03*
X021063Y009847D03*
X021063Y009532D03*
X021063Y009217D03*
X021063Y008902D03*
X021063Y008587D03*
X021063Y008272D03*
X021063Y007957D03*
X017873Y007957D03*
X017873Y008272D03*
X017873Y008587D03*
X017873Y008902D03*
X017873Y009217D03*
X017873Y009532D03*
X017873Y009847D03*
X017873Y010162D03*
D14*
X018365Y010654D03*
X018680Y010654D03*
X018995Y010654D03*
X019310Y010654D03*
X019625Y010654D03*
X019940Y010654D03*
X020255Y010654D03*
X020570Y010654D03*
X020570Y007464D03*
X020255Y007464D03*
X019940Y007464D03*
X019625Y007464D03*
X019310Y007464D03*
X018995Y007464D03*
X018680Y007464D03*
X018365Y007464D03*
D15*
X018393Y011074D02*
X018489Y011074D01*
X018441Y011074D02*
X018441Y011365D01*
X018393Y011365D02*
X018489Y011365D01*
X018589Y011316D02*
X018589Y011123D01*
X018638Y011074D01*
X018734Y011074D01*
X018783Y011123D01*
X018884Y011074D02*
X019077Y011074D01*
X018981Y011074D02*
X018981Y011365D01*
X018884Y011268D01*
X018783Y011316D02*
X018734Y011365D01*
X018638Y011365D01*
X018589Y011316D01*
D16*
X027021Y008507D02*
X027021Y003389D01*
X027021Y000318D01*
X033021Y000318D01*
X033021Y003389D01*
X033021Y008507D01*
X027021Y008507D01*
X028053Y010232D02*
X033171Y010232D01*
X036242Y010232D01*
X036242Y016232D01*
X033171Y016232D01*
X028053Y016232D01*
X028053Y010232D01*
X033171Y010232D02*
X033171Y016232D01*
X019882Y016312D02*
X019602Y016312D01*
X019812Y016522D01*
X019812Y016102D01*
X019422Y016172D02*
X019352Y016102D01*
X019212Y016102D01*
X019142Y016172D01*
X019142Y016452D01*
X019212Y016522D01*
X019352Y016522D01*
X019422Y016452D01*
X018975Y016522D02*
X018835Y016522D01*
X018905Y016522D02*
X018905Y016102D01*
X018835Y016102D02*
X018975Y016102D01*
X008761Y016232D02*
X003643Y016232D01*
X000572Y016232D01*
X000572Y010232D01*
X003643Y010232D01*
X008761Y010232D01*
X008761Y016232D01*
X003643Y016232D02*
X003643Y010232D01*
X016179Y002064D02*
X016179Y001564D01*
X027021Y003389D02*
X033021Y003389D01*
D17*
X025451Y004278D02*
X025451Y004428D01*
X025301Y004428D01*
X025451Y004578D02*
X025376Y004653D01*
X025225Y004653D01*
X025150Y004578D01*
X025150Y004278D01*
X025225Y004203D01*
X025376Y004203D01*
X025451Y004278D01*
X024990Y004278D02*
X024990Y004578D01*
X024915Y004653D01*
X024765Y004653D01*
X024690Y004578D01*
X024690Y004278D01*
X024765Y004203D01*
X024915Y004203D01*
X024990Y004278D01*
X024530Y004203D02*
X024380Y004353D01*
X024455Y004353D02*
X024230Y004353D01*
X024230Y004203D02*
X024230Y004653D01*
X024455Y004653D01*
X024530Y004578D01*
X024530Y004428D01*
X024455Y004353D01*
X024070Y004428D02*
X023994Y004353D01*
X023769Y004353D01*
X023769Y004203D02*
X023769Y004653D01*
X023994Y004653D01*
X024070Y004578D01*
X024070Y004428D01*
X011048Y001078D02*
X011048Y000777D01*
X010898Y000627D01*
X010748Y000777D01*
X010748Y001078D01*
X010588Y001078D02*
X010288Y001078D01*
X010288Y000852D01*
X010438Y000927D01*
X010513Y000927D01*
X010588Y000852D01*
X010588Y000702D01*
X010513Y000627D01*
X010363Y000627D01*
X010288Y000702D01*
X009209Y000777D02*
X009209Y001078D01*
X008908Y001078D02*
X008908Y000777D01*
X009059Y000627D01*
X009209Y000777D01*
X008748Y000702D02*
X008673Y000627D01*
X008523Y000627D01*
X008448Y000702D01*
X008748Y001003D01*
X008748Y000702D01*
X008448Y000702D02*
X008448Y001003D01*
X008523Y001078D01*
X008673Y001078D01*
X008748Y001003D01*
X008138Y001078D02*
X008138Y000627D01*
X007988Y000627D02*
X008288Y000627D01*
X007988Y000927D02*
X008138Y001078D01*
D18*
X016679Y001814D03*
X017679Y001814D03*
X018679Y001814D03*
X019679Y001814D03*
X020679Y001814D03*
X021679Y001814D03*
X022679Y001814D03*
X023679Y001814D03*
X024086Y005428D03*
X025086Y005428D03*
X025086Y006428D03*
X024086Y006428D03*
X023086Y006428D03*
X023086Y005428D03*
D19*
X023209Y008040D02*
X023409Y008040D01*
X025009Y008040D02*
X025209Y008040D01*
X021209Y013112D02*
X021209Y013312D01*
X017709Y013312D02*
X017709Y013112D01*
X017709Y014912D02*
X017709Y015112D01*
X021209Y015112D02*
X021209Y014912D01*
X012213Y003152D02*
X012213Y002952D01*
X012213Y001352D02*
X012213Y001152D01*
X007113Y001052D02*
X007113Y001252D01*
X007113Y002852D02*
X007113Y003052D01*
D20*
X023459Y008040D03*
X024959Y008040D03*
D21*
X016380Y008959D02*
X016080Y008959D01*
X015780Y008959D01*
X015780Y009159D02*
X016080Y009159D01*
X016380Y009159D01*
X014304Y005658D02*
X014004Y005658D01*
X013704Y005658D01*
X013704Y005458D02*
X014004Y005458D01*
X014304Y005458D01*
X010804Y005458D02*
X010504Y005458D01*
X010204Y005458D01*
X010204Y005658D02*
X010504Y005658D01*
X010804Y005658D01*
X011213Y002972D02*
X010213Y002972D01*
X009113Y002972D02*
X008113Y002972D01*
X007813Y002352D02*
X007815Y002298D01*
X007820Y002244D01*
X007829Y002191D01*
X007842Y002138D01*
X007858Y002087D01*
X007878Y002037D01*
X007901Y001988D01*
X007927Y001940D01*
X007956Y001895D01*
X007989Y001852D01*
X008024Y001811D01*
X008062Y001772D01*
X008102Y001736D01*
X008145Y001703D01*
X008190Y001673D01*
X008237Y001646D01*
X009010Y001657D02*
X009058Y001687D01*
X009103Y001720D01*
X009146Y001756D01*
X009187Y001794D01*
X009224Y001836D01*
X009259Y001880D01*
X009290Y001926D01*
X009319Y001975D01*
X009343Y002025D01*
X009364Y002077D01*
X009382Y002131D01*
X009395Y002185D01*
X009405Y002240D01*
X009411Y002296D01*
X009413Y002352D01*
X009032Y001671D02*
X008984Y001643D01*
X008935Y001619D01*
X008883Y001599D01*
X008831Y001582D01*
X008777Y001569D01*
X008723Y001560D01*
X008668Y001554D01*
X008613Y001552D01*
X008557Y001554D01*
X008500Y001560D01*
X008445Y001570D01*
X008390Y001584D01*
X008337Y001601D01*
X008284Y001623D01*
X008234Y001648D01*
X007813Y002352D02*
X007815Y002406D01*
X007820Y002459D01*
X007829Y002513D01*
X007842Y002565D01*
X007858Y002616D01*
X007878Y002667D01*
X007900Y002716D01*
X007926Y002763D01*
X007956Y002808D01*
X007988Y002851D01*
X008023Y002892D01*
X008061Y002931D01*
X008101Y002967D01*
X009130Y002963D02*
X009169Y002927D01*
X009207Y002888D01*
X009241Y002848D01*
X009273Y002805D01*
X009301Y002760D01*
X009327Y002713D01*
X009350Y002664D01*
X009369Y002614D01*
X009385Y002563D01*
X009397Y002511D01*
X009406Y002459D01*
X009411Y002405D01*
X009413Y002352D01*
X011110Y001657D02*
X011158Y001687D01*
X011203Y001720D01*
X011246Y001756D01*
X011287Y001794D01*
X011324Y001836D01*
X011359Y001880D01*
X011390Y001926D01*
X011419Y001975D01*
X011443Y002025D01*
X011464Y002077D01*
X011482Y002131D01*
X011495Y002185D01*
X011505Y002240D01*
X011511Y002296D01*
X011513Y002352D01*
X011132Y001671D02*
X011084Y001643D01*
X011035Y001619D01*
X010983Y001599D01*
X010931Y001582D01*
X010877Y001569D01*
X010823Y001560D01*
X010768Y001554D01*
X010713Y001552D01*
X010657Y001554D01*
X010600Y001560D01*
X010545Y001570D01*
X010490Y001584D01*
X010437Y001601D01*
X010384Y001623D01*
X010334Y001648D01*
X009913Y002352D02*
X009915Y002406D01*
X009920Y002459D01*
X009929Y002513D01*
X009942Y002565D01*
X009958Y002616D01*
X009978Y002667D01*
X010000Y002716D01*
X010026Y002763D01*
X010056Y002808D01*
X010088Y002851D01*
X010123Y002892D01*
X010161Y002931D01*
X010201Y002967D01*
X009913Y002352D02*
X009915Y002298D01*
X009920Y002244D01*
X009929Y002191D01*
X009942Y002138D01*
X009958Y002087D01*
X009978Y002037D01*
X010001Y001988D01*
X010027Y001940D01*
X010056Y001895D01*
X010089Y001852D01*
X010124Y001811D01*
X010162Y001772D01*
X010202Y001736D01*
X010245Y001703D01*
X010290Y001673D01*
X010337Y001646D01*
X011513Y002352D02*
X011511Y002405D01*
X011506Y002459D01*
X011497Y002511D01*
X011485Y002563D01*
X011469Y002614D01*
X011450Y002664D01*
X011427Y002713D01*
X011401Y002760D01*
X011373Y002805D01*
X011341Y002848D01*
X011307Y002888D01*
X011269Y002927D01*
X011230Y002963D01*
X002925Y004602D02*
X002925Y000602D01*
X001175Y000602D01*
X001175Y004602D01*
X002925Y004602D01*
X002925Y005326D02*
X001175Y005326D01*
X001175Y009326D01*
X002925Y009326D01*
X002925Y005326D01*
X001175Y005326D02*
X000425Y005326D01*
X000425Y009326D01*
X001175Y009326D01*
X001175Y004602D02*
X000425Y004602D01*
X000425Y000602D01*
X001175Y000602D01*
D22*
X018409Y013482D02*
X020409Y013482D01*
D23*
X020159Y013117D03*
X019659Y013127D03*
X019159Y013117D03*
X018659Y013117D03*
X018659Y015107D03*
X019159Y015107D03*
X019659Y015107D03*
X020159Y015107D03*
D24*
X021209Y014862D03*
X021209Y013362D03*
X017709Y013362D03*
X017709Y014862D03*
X012213Y002902D03*
X012213Y001402D03*
X007113Y001302D03*
X007113Y002802D03*
M02*
