<?xml version="1.0" encoding="UTF-8" standalone="no"?>
<!-- Created with Inkscape (http://www.inkscape.org/) -->

<svg
   xmlns:dc="http://purl.org/dc/elements/1.1/"
   xmlns:cc="http://creativecommons.org/ns#"
   xmlns:rdf="http://www.w3.org/1999/02/22-rdf-syntax-ns#"
   xmlns:svg="http://www.w3.org/2000/svg"
   xmlns="http://www.w3.org/2000/svg"
   xmlns:sodipodi="http://sodipodi.sourceforge.net/DTD/sodipodi-0.dtd"
   xmlns:inkscape="http://www.inkscape.org/namespaces/inkscape"
   width="2160"
   height="1080"
   id="svg2"
   sodipodi:version="0.32"
   inkscape:version="0.47 r22583"
   version="1.0"
   sodipodi:docname="aze-pressure.svg"
   inkscape:output_extension="org.inkscape.output.svg.inkscape">
  <defs
     id="defs4">
    <inkscape:perspective
       sodipodi:type="inkscape:persp3d"
       inkscape:vp_x="0 : 382.5 : 1"
       inkscape:vp_y="0 : 1000 : 0"
       inkscape:vp_z="990 : 382.5 : 1"
       inkscape:persp3d-origin="495 : 255 : 1"
       id="perspective56" />
    <inkscape:perspective
       id="perspective2603"
       inkscape:persp3d-origin="495 : 255 : 1"
       inkscape:vp_z="990 : 382.5 : 1"
       inkscape:vp_y="0 : 1000 : 0"
       inkscape:vp_x="0 : 382.5 : 1"
       sodipodi:type="inkscape:persp3d" />
    <inkscape:perspective
       sodipodi:type="inkscape:persp3d"
       inkscape:vp_x="0 : 382.5 : 1"
       inkscape:vp_y="0 : 1000 : 0"
       inkscape:vp_z="990 : 382.5 : 1"
       inkscape:persp3d-origin="495 : 255 : 1"
       id="perspective3306" />
    <inkscape:perspective
       id="perspective3304"
       inkscape:persp3d-origin="495 : 255 : 1"
       inkscape:vp_z="990 : 382.5 : 1"
       inkscape:vp_y="0 : 1000 : 0"
       inkscape:vp_x="0 : 382.5 : 1"
       sodipodi:type="inkscape:persp3d" />
    <inkscape:perspective
       id="perspective2880"
       inkscape:persp3d-origin="0.5 : 0.33333333 : 1"
       inkscape:vp_z="1 : 0.5 : 1"
       inkscape:vp_y="0 : 1000 : 0"
       inkscape:vp_x="0 : 0.5 : 1"
       sodipodi:type="inkscape:persp3d" />
    <inkscape:perspective
       id="perspective2891"
       inkscape:persp3d-origin="0.5 : 0.33333333 : 1"
       inkscape:vp_z="1 : 0.5 : 1"
       inkscape:vp_y="0 : 1000 : 0"
       inkscape:vp_x="0 : 0.5 : 1"
       sodipodi:type="inkscape:persp3d" />
    <inkscape:perspective
       id="perspective2940"
       inkscape:persp3d-origin="0.5 : 0.33333333 : 1"
       inkscape:vp_z="1 : 0.5 : 1"
       inkscape:vp_y="0 : 1000 : 0"
       inkscape:vp_x="0 : 0.5 : 1"
       sodipodi:type="inkscape:persp3d" />
    <inkscape:perspective
       id="perspective2969"
       inkscape:persp3d-origin="0.5 : 0.33333333 : 1"
       inkscape:vp_z="1 : 0.5 : 1"
       inkscape:vp_y="0 : 1000 : 0"
       inkscape:vp_x="0 : 0.5 : 1"
       sodipodi:type="inkscape:persp3d" />
  </defs>
  <sodipodi:namedview
     id="base"
     pagecolor="#ffffff"
     bordercolor="#666666"
     borderopacity="1.0"
     gridtolerance="10000"
     guidetolerance="10"
     objecttolerance="10"
     inkscape:pageopacity="0.0"
     inkscape:pageshadow="2"
     inkscape:zoom="0.72288261"
     inkscape:cx="359.99899"
     inkscape:cy="631.84773"
     inkscape:document-units="in"
     inkscape:current-layer="layer1"
     showgrid="true"
     units="in"
     inkscape:window-width="1156"
     inkscape:window-height="988"
     inkscape:window-x="8"
     inkscape:window-y="188"
     inkscape:snap-intersection-grid-guide="false"
     inkscape:snap-bbox="false"
     inkscape:snap-nodes="true"
     inkscape:snap-global="true"
     showguides="true"
     inkscape:guide-bbox="true"
     inkscape:object-nodes="true"
     inkscape:object-paths="false"
     inkscape:window-maximized="0">
    <inkscape:grid
       type="xygrid"
       id="grid2509"
       visible="true"
       enabled="false"
       units="in"
       spacingx="0.0625in"
       spacingy="0.0625in"
       empspacing="16" />
  </sodipodi:namedview>
  <metadata
     id="metadata7">
    <rdf:RDF>
      <cc:Work
         rdf:about="">
        <dc:format>image/svg+xml</dc:format>
        <dc:type
           rdf:resource="http://purl.org/dc/dcmitype/StillImage" />
      </cc:Work>
    </rdf:RDF>
  </metadata>
  <g
     inkscape:label="Layer 1"
     inkscape:groupmode="layer"
     id="layer1">
    <g
       id="g2889"
       transform="matrix(0,-1,1,0,-11.250009,720)">
      <rect
         style="fill:#1cbf00;fill-opacity:0.3627451;fill-rule:evenodd;stroke:#ff00ff;stroke-width:0.62499994;stroke-linecap:butt;stroke-linejoin:miter;stroke-miterlimit:4;stroke-opacity:1;stroke-dasharray:none"
         id="rect3424"
         width="562.50311"
         height="255.9375"
         x="81.6297"
         y="668.39502" />
      <path
         sodipodi:type="arc"
         style="fill:#ffffff;fill-opacity:1;fill-rule:evenodd;stroke:#000000;stroke-width:2.19927406;stroke-linecap:butt;stroke-linejoin:miter;stroke-miterlimit:4;stroke-opacity:1;stroke-dasharray:none"
         id="path3426"
         sodipodi:cx="129.375"
         sodipodi:cy="-39.375"
         sodipodi:rx="22.5"
         sodipodi:ry="16.875"
         d="m 151.875,-39.375 c 0,9.319805 -10.07359,16.875 -22.5,16.875 -12.42641,0 -22.5,-7.555195 -22.5,-16.875 0,-9.319805 10.07359,-16.875 22.5,-16.875 12.42641,0 22.5,7.555195 22.5,16.875 z"
         transform="matrix(0.2461111,0,0,0.3281482,62.803126,924.15079)" />
      <path
         transform="matrix(0.2461111,0,0,0.3281482,599.38457,924.15079)"
         d="m 151.875,-39.375 c 0,9.319805 -10.07359,16.875 -22.5,16.875 -12.42641,0 -22.5,-7.555195 -22.5,-16.875 0,-9.319805 10.07359,-16.875 22.5,-16.875 12.42641,0 22.5,7.555195 22.5,16.875 z"
         sodipodi:ry="16.875"
         sodipodi:rx="22.5"
         sodipodi:cy="-39.375"
         sodipodi:cx="129.375"
         id="path3428"
         style="fill:#ffffff;fill-opacity:1;fill-rule:evenodd;stroke:#000000;stroke-width:2.19927406;stroke-linecap:butt;stroke-linejoin:miter;stroke-miterlimit:4;stroke-opacity:1;stroke-dasharray:none"
         sodipodi:type="arc" />
      <path
         transform="matrix(0.2461111,0,0,0.3281482,61.89404,694.46939)"
         d="m 151.875,-39.375 c 0,9.319805 -10.07359,16.875 -22.5,16.875 -12.42641,0 -22.5,-7.555195 -22.5,-16.875 0,-9.319805 10.07359,-16.875 22.5,-16.875 12.42641,0 22.5,7.555195 22.5,16.875 z"
         sodipodi:ry="16.875"
         sodipodi:rx="22.5"
         sodipodi:cy="-39.375"
         sodipodi:cx="129.375"
         id="path3430"
         style="fill:#ffffff;fill-opacity:1;fill-rule:evenodd;stroke:#000000;stroke-width:2.19927406;stroke-linecap:butt;stroke-linejoin:miter;stroke-miterlimit:4;stroke-opacity:1;stroke-dasharray:none"
         sodipodi:type="arc" />
      <path
         sodipodi:type="arc"
         style="fill:#ffffff;fill-opacity:1;fill-rule:evenodd;stroke:#000000;stroke-width:2.19927406;stroke-linecap:butt;stroke-linejoin:miter;stroke-miterlimit:4;stroke-opacity:1;stroke-dasharray:none"
         id="path3432"
         sodipodi:cx="129.375"
         sodipodi:cy="-39.375"
         sodipodi:rx="22.5"
         sodipodi:ry="16.875"
         d="m 151.875,-39.375 c 0,9.319805 -10.07359,16.875 -22.5,16.875 -12.42641,0 -22.5,-7.555195 -22.5,-16.875 0,-9.319805 10.07359,-16.875 22.5,-16.875 12.42641,0 22.5,7.555195 22.5,16.875 z"
         transform="matrix(0.2461111,0,0,0.3281482,601.34367,692.61377)" />
      <g
         transform="translate(-15.743763,573.99968)"
         id="g2500">
        <rect
           style="fill:#1cbf00;fill-opacity:0.3627451;fill-rule:evenodd;stroke:#ff00ff;stroke-width:0.62499994;stroke-linecap:butt;stroke-linejoin:miter;stroke-miterlimit:4;stroke-opacity:1;stroke-dasharray:none;stroke-dashoffset:0;marker:none;visibility:visible;display:inline;overflow:visible;enable-background:accumulate"
           id="rect2438"
           width="44.921883"
           height="62.375"
           x="583.0047"
           y="103.84531" />
        <rect
           y="103.84531"
           x="538.08282"
           height="62.375"
           width="44.921883"
           id="rect2440"
           style="fill:#1cbf00;fill-opacity:0.3627451;fill-rule:evenodd;stroke:#ff00ff;stroke-width:0.62499994;stroke-linecap:butt;stroke-linejoin:miter;stroke-miterlimit:4;stroke-opacity:1;stroke-dasharray:none;stroke-dashoffset:0;marker:none;visibility:visible;display:inline;overflow:visible;enable-background:accumulate" />
        <rect
           y="103.84531"
           x="493.16095"
           height="62.375"
           width="44.921883"
           id="rect2442"
           style="fill:#1cbf00;fill-opacity:0.3627451;fill-rule:evenodd;stroke:#ff00ff;stroke-width:0.62499994;stroke-linecap:butt;stroke-linejoin:miter;stroke-miterlimit:4;stroke-opacity:1;stroke-dasharray:none;stroke-dashoffset:0;marker:none;visibility:visible;display:inline;overflow:visible;enable-background:accumulate" />
        <rect
           style="fill:#1cbf00;fill-opacity:0.3627451;fill-rule:evenodd;stroke:#ff00ff;stroke-width:0.62499994;stroke-linecap:butt;stroke-linejoin:miter;stroke-miterlimit:4;stroke-opacity:1;stroke-dasharray:none;stroke-dashoffset:0;marker:none;visibility:visible;display:inline;overflow:visible;enable-background:accumulate"
           id="rect2444"
           width="44.921883"
           height="62.375"
           x="448.23907"
           y="103.84531" />
        <rect
           y="103.84531"
           x="403.3172"
           height="62.375"
           width="44.921883"
           id="rect2446"
           style="fill:#1cbf00;fill-opacity:0.3627451;fill-rule:evenodd;stroke:#ff00ff;stroke-width:0.62499994;stroke-linecap:butt;stroke-linejoin:miter;stroke-miterlimit:4;stroke-opacity:1;stroke-dasharray:none;stroke-dashoffset:0;marker:none;visibility:visible;display:inline;overflow:visible;enable-background:accumulate" />
        <rect
           style="fill:#1cbf00;fill-opacity:0.3627451;fill-rule:evenodd;stroke:#ff00ff;stroke-width:0.62499994;stroke-linecap:butt;stroke-linejoin:miter;stroke-miterlimit:4;stroke-opacity:1;stroke-dasharray:none;stroke-dashoffset:0;marker:none;visibility:visible;display:inline;overflow:visible;enable-background:accumulate"
           id="rect2448"
           width="44.921883"
           height="62.375"
           x="358.39532"
           y="103.84531" />
        <rect
           style="fill:#1cbf00;fill-opacity:0.3627451;fill-rule:evenodd;stroke:#ff00ff;stroke-width:0.62499994;stroke-linecap:butt;stroke-linejoin:miter;stroke-miterlimit:4;stroke-opacity:1;stroke-dasharray:none;stroke-dashoffset:0;marker:none;visibility:visible;display:inline;overflow:visible;enable-background:accumulate"
           id="rect2450"
           width="44.921883"
           height="62.375"
           x="313.47345"
           y="103.84531" />
        <rect
           y="103.84531"
           x="268.55157"
           height="62.375"
           width="44.921883"
           id="rect2452"
           style="fill:#1cbf00;fill-opacity:0.3627451;fill-rule:evenodd;stroke:#ff00ff;stroke-width:0.62499994;stroke-linecap:butt;stroke-linejoin:miter;stroke-miterlimit:4;stroke-opacity:1;stroke-dasharray:none;stroke-dashoffset:0;marker:none;visibility:visible;display:inline;overflow:visible;enable-background:accumulate" />
      </g>
      <rect
         y="759.60718"
         x="222.74533"
         height="44.375"
         width="426.87497"
         id="rect2500"
         style="fill:#1cbf00;fill-opacity:0.3627451;fill-rule:evenodd;stroke:#ff00ff;stroke-width:0.62499994;stroke-linecap:butt;stroke-linejoin:miter;stroke-miterlimit:4;stroke-opacity:1;stroke-dasharray:none;stroke-dashoffset:0;marker:none;visibility:visible;display:inline;overflow:visible;enable-background:accumulate" />
      <path
         transform="matrix(0.840294,0,0,0.7282245,-381.60361,723.00641)"
         d="m 752.29549,80.367744 c 0,4.057435 -2.85064,7.346636 -6.36708,7.346636 -3.51645,0 -6.36709,-3.289201 -6.36709,-7.346636 0,-4.057434 2.85064,-7.346635 6.36709,-7.346635 3.51644,0 6.36708,3.289201 6.36708,7.346635 z"
         sodipodi:ry="7.3466358"
         sodipodi:rx="6.3670845"
         sodipodi:cy="80.367744"
         sodipodi:cx="745.92841"
         id="path2514"
         style="fill:#ffffff;fill-opacity:1;fill-rule:evenodd;stroke:#000000;stroke-width:0.79897213;stroke-linecap:butt;stroke-linejoin:miter;stroke-miterlimit:4;stroke-opacity:1;stroke-dasharray:none;stroke-dashoffset:0;marker:none;visibility:visible;display:inline;overflow:visible;enable-background:accumulate"
         sodipodi:type="arc" />
      <path
         style="fill:#ffffff;fill-opacity:1;fill-rule:evenodd;stroke:#000000;stroke-width:0.62499982;stroke-linecap:butt;stroke-linejoin:miter;stroke-miterlimit:4;stroke-opacity:1;stroke-dashoffset:0;marker:none;visibility:visible;display:inline;overflow:visible;enable-background:accumulate"
         d="m 633.04577,781.48718 c 0,2.9532 -2.3969,5.35 -5.35022,5.35 -2.95332,0 -5.35023,-2.3968 -5.35023,-5.35 0,-2.9532 2.39691,-5.35 5.35023,-5.35 2.95332,0 5.35022,2.3968 5.35022,5.35 z"
         id="path2516" />
      <rect
         transform="matrix(0,-1,1,0,0,0)"
         y="393.17056"
         x="-650.67065"
         height="255.9375"
         width="562.50311"
         id="rect2890"
         style="fill:#1cbf00;fill-opacity:0.3627451;fill-rule:evenodd;stroke:#ff00ff;stroke-width:0.62499994;stroke-linecap:butt;stroke-linejoin:miter;stroke-miterlimit:4;stroke-opacity:1;stroke-dasharray:none" />
      <path
         transform="matrix(0,-0.2461111,0.3281482,0,648.92638,669.49721)"
         d="m 151.875,-39.375 c 0,9.319805 -10.07359,16.875 -22.5,16.875 -12.42641,0 -22.5,-7.555195 -22.5,-16.875 0,-9.319805 10.07359,-16.875 22.5,-16.875 12.42641,0 22.5,7.555195 22.5,16.875 z"
         sodipodi:ry="16.875"
         sodipodi:rx="22.5"
         sodipodi:cy="-39.375"
         sodipodi:cx="129.375"
         id="path2892"
         style="fill:#ffffff;fill-opacity:1;fill-rule:evenodd;stroke:#000000;stroke-width:2.19927406;stroke-linecap:butt;stroke-linejoin:miter;stroke-miterlimit:4;stroke-opacity:1;stroke-dasharray:none"
         sodipodi:type="arc" />
      <path
         sodipodi:type="arc"
         style="fill:#ffffff;fill-opacity:1;fill-rule:evenodd;stroke:#000000;stroke-width:2.19927406;stroke-linecap:butt;stroke-linejoin:miter;stroke-miterlimit:4;stroke-opacity:1;stroke-dasharray:none"
         id="path2894"
         sodipodi:cx="129.375"
         sodipodi:cy="-39.375"
         sodipodi:rx="22.5"
         sodipodi:ry="16.875"
         d="m 151.875,-39.375 c 0,9.319805 -10.07359,16.875 -22.5,16.875 -12.42641,0 -22.5,-7.555195 -22.5,-16.875 0,-9.319805 10.07359,-16.875 22.5,-16.875 12.42641,0 22.5,7.555195 22.5,16.875 z"
         transform="matrix(0,-0.2461111,0.3281482,0,648.92638,132.91577)" />
      <path
         sodipodi:type="arc"
         style="fill:#ffffff;fill-opacity:1;fill-rule:evenodd;stroke:#000000;stroke-width:2.19927406;stroke-linecap:butt;stroke-linejoin:miter;stroke-miterlimit:4;stroke-opacity:1;stroke-dasharray:none"
         id="path2896"
         sodipodi:cx="129.375"
         sodipodi:cy="-39.375"
         sodipodi:rx="22.5"
         sodipodi:ry="16.875"
         d="m 151.875,-39.375 c 0,9.319805 -10.07359,16.875 -22.5,16.875 -12.42641,0 -22.5,-7.555195 -22.5,-16.875 0,-9.319805 10.07359,-16.875 22.5,-16.875 12.42641,0 22.5,7.555195 22.5,16.875 z"
         transform="matrix(0,-0.2461111,0.3281482,0,419.24498,670.40629)" />
      <path
         transform="matrix(0,-0.2461111,0.3281482,0,417.38936,130.95667)"
         d="m 151.875,-39.375 c 0,9.319805 -10.07359,16.875 -22.5,16.875 -12.42641,0 -22.5,-7.555195 -22.5,-16.875 0,-9.319805 10.07359,-16.875 22.5,-16.875 12.42641,0 22.5,7.555195 22.5,16.875 z"
         sodipodi:ry="16.875"
         sodipodi:rx="22.5"
         sodipodi:cy="-39.375"
         sodipodi:cx="129.375"
         id="path2898"
         style="fill:#ffffff;fill-opacity:1;fill-rule:evenodd;stroke:#000000;stroke-width:2.19927406;stroke-linecap:butt;stroke-linejoin:miter;stroke-miterlimit:4;stroke-opacity:1;stroke-dasharray:none"
         sodipodi:type="arc" />
      <g
         id="g2900"
         transform="matrix(0,-1,1,0,298.77527,748.0441)">
        <rect
           y="103.84531"
           x="583.0047"
           height="62.375"
           width="44.921883"
           id="rect2902"
           style="fill:#1cbf00;fill-opacity:0.3627451;fill-rule:evenodd;stroke:#ff00ff;stroke-width:0.62499994;stroke-linecap:butt;stroke-linejoin:miter;stroke-miterlimit:4;stroke-opacity:1;stroke-dasharray:none;stroke-dashoffset:0;marker:none;visibility:visible;display:inline;overflow:visible;enable-background:accumulate" />
        <rect
           style="fill:#1cbf00;fill-opacity:0.3627451;fill-rule:evenodd;stroke:#ff00ff;stroke-width:0.62499994;stroke-linecap:butt;stroke-linejoin:miter;stroke-miterlimit:4;stroke-opacity:1;stroke-dasharray:none;stroke-dashoffset:0;marker:none;visibility:visible;display:inline;overflow:visible;enable-background:accumulate"
           id="rect2904"
           width="44.921883"
           height="62.375"
           x="538.08282"
           y="103.84531" />
        <rect
           style="fill:#1cbf00;fill-opacity:0.3627451;fill-rule:evenodd;stroke:#ff00ff;stroke-width:0.62499994;stroke-linecap:butt;stroke-linejoin:miter;stroke-miterlimit:4;stroke-opacity:1;stroke-dasharray:none;stroke-dashoffset:0;marker:none;visibility:visible;display:inline;overflow:visible;enable-background:accumulate"
           id="rect2906"
           width="44.921883"
           height="62.375"
           x="493.16095"
           y="103.84531" />
        <rect
           y="103.84531"
           x="448.23907"
           height="62.375"
           width="44.921883"
           id="rect2908"
           style="fill:#1cbf00;fill-opacity:0.3627451;fill-rule:evenodd;stroke:#ff00ff;stroke-width:0.62499994;stroke-linecap:butt;stroke-linejoin:miter;stroke-miterlimit:4;stroke-opacity:1;stroke-dasharray:none;stroke-dashoffset:0;marker:none;visibility:visible;display:inline;overflow:visible;enable-background:accumulate" />
        <rect
           style="fill:#1cbf00;fill-opacity:0.3627451;fill-rule:evenodd;stroke:#ff00ff;stroke-width:0.62499994;stroke-linecap:butt;stroke-linejoin:miter;stroke-miterlimit:4;stroke-opacity:1;stroke-dasharray:none;stroke-dashoffset:0;marker:none;visibility:visible;display:inline;overflow:visible;enable-background:accumulate"
           id="rect2910"
           width="44.921883"
           height="62.375"
           x="403.3172"
           y="103.84531" />
        <rect
           y="103.84531"
           x="358.39532"
           height="62.375"
           width="44.921883"
           id="rect2912"
           style="fill:#1cbf00;fill-opacity:0.3627451;fill-rule:evenodd;stroke:#ff00ff;stroke-width:0.62499994;stroke-linecap:butt;stroke-linejoin:miter;stroke-miterlimit:4;stroke-opacity:1;stroke-dasharray:none;stroke-dashoffset:0;marker:none;visibility:visible;display:inline;overflow:visible;enable-background:accumulate" />
        <rect
           y="103.84531"
           x="313.47345"
           height="62.375"
           width="44.921883"
           id="rect2914"
           style="fill:#1cbf00;fill-opacity:0.3627451;fill-rule:evenodd;stroke:#ff00ff;stroke-width:0.62499994;stroke-linecap:butt;stroke-linejoin:miter;stroke-miterlimit:4;stroke-opacity:1;stroke-dasharray:none;stroke-dashoffset:0;marker:none;visibility:visible;display:inline;overflow:visible;enable-background:accumulate" />
        <rect
           style="fill:#1cbf00;fill-opacity:0.3627451;fill-rule:evenodd;stroke:#ff00ff;stroke-width:0.62499994;stroke-linecap:butt;stroke-linejoin:miter;stroke-miterlimit:4;stroke-opacity:1;stroke-dasharray:none;stroke-dashoffset:0;marker:none;visibility:visible;display:inline;overflow:visible;enable-background:accumulate"
           id="rect2916"
           width="44.921883"
           height="62.375"
           x="268.55157"
           y="103.84531" />
      </g>
      <rect
         transform="matrix(0,-1,1,0,0,0)"
         style="fill:#1cbf00;fill-opacity:0.3627451;fill-rule:evenodd;stroke:#ff00ff;stroke-width:0.63108993;stroke-linecap:butt;stroke-linejoin:miter;stroke-miterlimit:4;stroke-opacity:1;stroke-dasharray:none;stroke-dashoffset:0;marker:none;visibility:visible;display:inline;overflow:visible;enable-background:accumulate"
         id="rect2918"
         width="156.86891"
         height="123.11889"
         x="-371.75119"
         y="484.38583" />
      <text
         sodipodi:linespacing="125%"
         id="text2934"
         y="797.9856"
         x="276.38013"
         style="font-size:24px;font-style:normal;font-variant:normal;font-weight:normal;font-stretch:normal;text-align:start;line-height:125%;writing-mode:lr-tb;text-anchor:start;color:#000000;fill:none;stroke:#ff0000;stroke-width:1px;stroke-linecap:butt;stroke-linejoin:miter;stroke-miterlimit:4;stroke-opacity:1;stroke-dasharray:none;stroke-dashoffset:0;marker:none;visibility:visible;display:inline;overflow:visible;enable-background:accumulate;font-family:Futura Md BT;-inkscape-font-specification:Futura Md BT"
         xml:space="preserve"><tspan
           y="797.9856"
           x="276.38013"
           id="tspan2936"
           sodipodi:role="line">Azimuth</tspan></text>
      <text
         sodipodi:linespacing="125%"
         id="text2938"
         y="797.9856"
         x="382.53183"
         style="font-size:24px;font-style:normal;font-variant:normal;font-weight:normal;font-stretch:normal;text-align:start;line-height:125%;writing-mode:lr-tb;text-anchor:start;color:#000000;fill:none;stroke:#ff0000;stroke-width:1px;stroke-linecap:butt;stroke-linejoin:miter;stroke-miterlimit:4;stroke-opacity:1;stroke-dasharray:none;stroke-dashoffset:0;marker:none;visibility:visible;display:inline;overflow:visible;enable-background:accumulate;font-family:Futura Md BT;-inkscape-font-specification:Futura Md BT"
         xml:space="preserve"><tspan
           y="797.9856"
           x="382.53183"
           id="tspan2940"
           sodipodi:role="line">Elevation</tspan></text>
      <text
         sodipodi:linespacing="125%"
         id="text2942"
         y="797.9856"
         x="525.45728"
         style="font-size:24px;font-style:normal;font-variant:normal;font-weight:normal;font-stretch:normal;text-align:start;line-height:125%;writing-mode:lr-tb;text-anchor:start;color:#000000;fill:none;stroke:#ff0000;stroke-width:1px;stroke-linecap:butt;stroke-linejoin:miter;stroke-miterlimit:4;stroke-opacity:1;stroke-dasharray:none;stroke-dashoffset:0;marker:none;visibility:visible;display:inline;overflow:visible;enable-background:accumulate;font-family:Futura Md BT;-inkscape-font-specification:Futura Md BT"
         xml:space="preserve"><tspan
           y="797.9856"
           x="525.45728"
           id="tspan2944"
           sodipodi:role="line">Roll</tspan></text>
      <path
         sodipodi:nodetypes="ccsssccscsccssscccsssccsssccsssccssscc"
         id="text2471"
         d="m 254.56818,764.91136 2.09765,0 c 2e-5,0.0625 -0.004,0.15626 -0.0117,0.28125 -0.008,0.12501 -0.0117,0.21485 -0.0117,0.26953 1e-5,0.85157 0.16407,1.4297 0.49218,1.73438 0.32033,0.29688 0.99611,0.44532 2.02735,0.44531 l 57.35652,0 c 1.21094,10e-6 2.07422,0.17188 2.58984,0.51562 0.50782,0.34376 0.8711,0.96485 1.08984,1.86329 0.21095,-0.89062 0.57423,-1.50781 1.08985,-1.85157 0.50782,-0.35155 1.36719,-0.52733 2.57812,-0.52734 l 57.18923,0 c 1.03125,10e-6 1.71094,-0.15234 2.03907,-0.45703 0.33593,-0.31249 0.5039,-0.89452 0.5039,-1.7461 0,-0.0547 -0.004,-0.14061 -0.0117,-0.25781 -0.008,-0.11718 -0.0117,-0.20702 -0.0117,-0.26953 l 2.0625,0 0,0.73828 c 0,0.79689 -0.0469,1.44532 -0.14062,1.94531 -0.0938,0.4922 -0.23829,0.90626 -0.43359,1.24219 -0.26563,0.44532 -0.64063,0.75782 -1.125,0.9375 -0.48438,0.17969 -1.27735,0.26954 -2.37891,0.26953 l -57.28298,0 c -1.125,10e-6 -1.91797,0.20704 -2.37891,0.6211 -0.46093,0.40625 -0.6914,1.10156 -0.6914,2.08593 0,0.0547 0.004,0.14063 0.0117,0.25782 0.008,0.10937 0.0117,0.1914 0.0117,0.24609 l -2.09765,0 c 10e-6,-0.0547 0.008,-0.13672 0.0234,-0.24609 0.008,-0.11719 0.0117,-0.20313 0.0117,-0.25782 10e-6,-0.98437 -0.23046,-1.67968 -0.6914,-2.08593 -0.46093,-0.41406 -1.24999,-0.62109 -2.36719,-0.6211 l -57.42683,0 c -1.1328,10e-6 -1.93749,-0.0898 -2.41406,-0.26953 -0.48436,-0.17968 -0.85546,-0.49218 -1.11328,-0.9375 -0.21093,-0.34374 -0.35936,-0.76952 -0.44532,-1.27734 -0.0937,-0.50781 -0.1406,-1.21484 -0.14062,-2.1211 l 0,-0.52734"
         style="font-size:24px;font-style:normal;font-variant:normal;font-weight:normal;font-stretch:normal;text-indent:0;text-align:center;text-decoration:none;line-height:125%;letter-spacing:normal;word-spacing:normal;text-transform:none;direction:ltr;block-progression:tb;writing-mode:lr-tb;text-anchor:middle;color:#000000;fill:none;stroke:#ff0000;stroke-width:1px;stroke-linecap:butt;stroke-linejoin:miter;stroke-miterlimit:4;stroke-opacity:1;stroke-dasharray:none;stroke-dashoffset:0;marker:none;visibility:visible;display:inline;overflow:visible;enable-background:accumulate;font-family:Futura Md BT;-inkscape-font-specification:Futura Md BT" />
      <path
         style="font-size:24px;font-style:normal;font-variant:normal;font-weight:normal;font-stretch:normal;text-indent:0;text-align:center;text-decoration:none;line-height:125%;letter-spacing:normal;word-spacing:normal;text-transform:none;direction:ltr;block-progression:tb;writing-mode:lr-tb;text-anchor:middle;color:#000000;fill:none;stroke:#ff0000;stroke-width:1px;stroke-linecap:butt;stroke-linejoin:miter;stroke-miterlimit:4;stroke-opacity:1;stroke-dasharray:none;stroke-dashoffset:0;marker:none;visibility:visible;display:inline;overflow:visible;enable-background:accumulate;font-family:Futura Md BT;-inkscape-font-specification:Futura Md BT"
         d="m 479.28319,764.91136 2.09765,0 c 2e-5,0.0625 -0.004,0.15626 -0.0117,0.28125 -0.008,0.12501 -0.0117,0.21485 -0.0117,0.26953 10e-6,0.85157 0.16407,1.4297 0.49218,1.73438 0.32033,0.29688 0.99611,0.44532 2.02735,0.44531 l 58.29991,0 c 1.21094,10e-6 2.07422,0.17188 2.58984,0.51562 0.50782,0.34376 0.8711,0.96485 1.08984,1.86329 0.21095,-0.89062 0.57423,-1.50781 1.08985,-1.85157 0.50782,-0.35155 1.36719,-0.52733 2.57812,-0.52734 l 57.75526,0 c 1.03125,10e-6 1.71094,-0.15234 2.03907,-0.45703 0.33593,-0.31249 0.5039,-0.89452 0.5039,-1.7461 0,-0.0547 -0.004,-0.14061 -0.0117,-0.25781 -0.008,-0.11718 -0.0117,-0.20702 -0.0117,-0.26953 l 2.0625,0 0,0.73828 c 0,0.79689 -0.0469,1.44532 -0.14062,1.94531 -0.0938,0.4922 -0.23829,0.90626 -0.43359,1.24219 -0.26563,0.44532 -0.64063,0.75782 -1.125,0.9375 -0.48438,0.17969 -1.27735,0.26954 -2.37891,0.26953 l -57.84901,0 c -1.125,10e-6 -1.91797,0.20704 -2.37891,0.6211 -0.46093,0.40625 -0.6914,1.10156 -0.6914,2.08593 0,0.0547 0.004,0.14063 0.0117,0.25782 0.008,0.10937 0.0117,0.1914 0.0117,0.24609 l -2.09765,0 c 10e-6,-0.0547 0.008,-0.13672 0.0234,-0.24609 0.008,-0.11719 0.0117,-0.20313 0.0117,-0.25782 10e-6,-0.98437 -0.23046,-1.67968 -0.6914,-2.08593 -0.46093,-0.41406 -1.24999,-0.62109 -2.36719,-0.6211 l -58.37022,0 c -1.1328,10e-6 -1.93749,-0.0898 -2.41406,-0.26953 -0.48436,-0.17968 -0.85546,-0.49218 -1.11328,-0.9375 -0.21093,-0.34374 -0.35936,-0.76952 -0.44532,-1.27734 -0.0937,-0.50781 -0.1406,-1.21484 -0.14062,-2.1211 l 0,-0.52734"
         id="path2955"
         sodipodi:nodetypes="ccsssccscsccssscccsssccsssccsssccssscc" />
      <path
         style="font-size:24px;font-style:normal;font-variant:normal;font-weight:normal;font-stretch:normal;text-indent:0;text-align:center;text-decoration:none;line-height:125%;letter-spacing:normal;word-spacing:normal;text-transform:none;direction:ltr;block-progression:tb;writing-mode:lr-tb;text-anchor:middle;color:#000000;fill:none;stroke:#ff0000;stroke-width:1px;stroke-linecap:butt;stroke-linejoin:miter;stroke-miterlimit:4;stroke-opacity:1;stroke-dasharray:none;stroke-dashoffset:0;marker:none;visibility:visible;display:inline;overflow:visible;enable-background:accumulate;font-family:Futura Md BT;-inkscape-font-specification:Futura Md BT"
         d="m 389.47192,764.91136 2.09765,0 c 2e-5,0.0625 -0.004,0.15626 -0.0117,0.28125 -0.008,0.12501 -0.0117,0.21485 -0.0117,0.26953 10e-6,0.85157 0.16407,1.4297 0.49218,1.73438 0.32033,0.29688 0.99611,0.44532 2.02735,0.44531 l 36.22463,0 c 1.21094,10e-6 2.07422,0.17188 2.58984,0.51562 0.50782,0.34376 0.8711,0.96485 1.08984,1.86329 0.21095,-0.89062 0.57423,-1.50781 1.08985,-1.85157 0.50782,-0.35155 1.36719,-0.52733 2.57812,-0.52734 l 33.22717,0 c 1.03125,10e-6 1.71094,-0.15234 2.03907,-0.45703 0.33593,-0.31249 0.5039,-0.89452 0.5039,-1.7461 0,-0.0547 -0.004,-0.14061 -0.0117,-0.25781 -0.008,-0.11718 -0.0117,-0.20702 -0.0117,-0.26953 l 2.0625,0 0,0.73828 c 0,0.79689 -0.0469,1.44532 -0.14062,1.94531 -0.0938,0.4922 -0.23829,0.90626 -0.43359,1.24219 -0.26563,0.44532 -0.64063,0.75782 -1.125,0.9375 -0.48438,0.17969 -1.27735,0.26954 -2.37891,0.26953 l -33.32092,0 c -1.125,10e-6 -1.91797,0.20704 -2.37891,0.6211 -0.46093,0.40625 -0.6914,1.10156 -0.6914,2.08593 0,0.0547 0.004,0.14063 0.0117,0.25782 0.008,0.10937 0.0117,0.1914 0.0117,0.24609 l -2.09765,0 c 1e-5,-0.0547 0.008,-0.13672 0.0234,-0.24609 0.008,-0.11719 0.0117,-0.20313 0.0117,-0.25782 1e-5,-0.98437 -0.23046,-1.67968 -0.6914,-2.08593 -0.46093,-0.41406 -1.24999,-0.62109 -2.36719,-0.6211 l -36.29494,0 c -1.1328,10e-6 -1.93749,-0.0898 -2.41406,-0.26953 -0.48436,-0.17968 -0.85546,-0.49218 -1.11328,-0.9375 -0.21093,-0.34374 -0.35936,-0.76952 -0.44532,-1.27734 -0.0937,-0.50781 -0.1406,-1.21484 -0.14062,-2.1211 l 0,-0.52734"
         id="path2957"
         sodipodi:nodetypes="ccsssccscsccssscccsssccsssccsssccssscc" />
      <text
         sodipodi:linespacing="125%"
         id="text2906"
         y="272.17026"
         x="544.28119"
         style="font-size:24px;font-style:normal;font-variant:normal;font-weight:normal;font-stretch:normal;text-indent:0;text-align:center;text-decoration:none;line-height:125%;letter-spacing:normal;word-spacing:normal;text-transform:none;direction:ltr;block-progression:tb;writing-mode:lr-tb;text-anchor:middle;color:#000000;fill:none;stroke:#ff0000;stroke-width:1px;stroke-linecap:butt;stroke-linejoin:miter;stroke-miterlimit:4;stroke-opacity:1;stroke-dasharray:none;stroke-dashoffset:0;marker:none;visibility:visible;display:inline;overflow:visible;enable-background:accumulate;font-family:Futura Md BT;-inkscape-font-specification:Futura Md BT"
         xml:space="preserve"><tspan
           style="font-size:24px;font-style:normal;font-variant:normal;font-weight:normal;font-stretch:normal;text-indent:0;text-align:center;text-decoration:none;line-height:125%;letter-spacing:normal;word-spacing:normal;text-transform:none;direction:ltr;block-progression:tb;writing-mode:lr-tb;text-anchor:middle;color:#000000;fill:none;stroke:#ff0000;stroke-width:1px;stroke-linecap:butt;stroke-linejoin:miter;stroke-miterlimit:4;stroke-opacity:1;stroke-dasharray:none;stroke-dashoffset:0;marker:none;visibility:visible;display:inline;overflow:visible;enable-background:accumulate;font-family:Futura Md BT;-inkscape-font-specification:Futura Md BT"
           y="272.17026"
           x="544.28119"
           id="tspan2908"
           sodipodi:role="line">Thruster</tspan><tspan
           style="font-size:24px;font-style:normal;font-variant:normal;font-weight:normal;font-stretch:normal;text-indent:0;text-align:center;text-decoration:none;line-height:125%;letter-spacing:normal;word-spacing:normal;text-transform:none;direction:ltr;block-progression:tb;writing-mode:lr-tb;text-anchor:middle;color:#000000;fill:none;stroke:#ff0000;stroke-width:1px;stroke-linecap:butt;stroke-linejoin:miter;stroke-miterlimit:4;stroke-opacity:1;stroke-dasharray:none;stroke-dashoffset:0;marker:none;visibility:visible;display:inline;overflow:visible;enable-background:accumulate;font-family:Futura Md BT;-inkscape-font-specification:Futura Md BT"
           id="tspan2912"
           y="302.17026"
           x="544.28119"
           sodipodi:role="line">Reactant</tspan><tspan
           style="font-size:24px;font-style:normal;font-variant:normal;font-weight:normal;font-stretch:normal;text-indent:0;text-align:center;text-decoration:none;line-height:125%;letter-spacing:normal;word-spacing:normal;text-transform:none;direction:ltr;block-progression:tb;writing-mode:lr-tb;text-anchor:middle;color:#000000;fill:none;stroke:#ff0000;stroke-width:1px;stroke-linecap:butt;stroke-linejoin:miter;stroke-miterlimit:4;stroke-opacity:1;stroke-dasharray:none;stroke-dashoffset:0;marker:none;visibility:visible;display:inline;overflow:visible;enable-background:accumulate;font-family:Futura Md BT;-inkscape-font-specification:Futura Md BT"
           id="tspan2910"
           y="332.17026"
           x="544.28119"
           sodipodi:role="line">Pressure</tspan></text>
      <g
         transform="translate(81.317194,-151.35762)"
         id="g2957">
        <path
           transform="matrix(0,-0.840294,0.7282245,0,406.10232,1127.7235)"
           d="m 752.29549,80.367744 c 0,4.057435 -2.85064,7.346636 -6.36708,7.346636 -3.51645,0 -6.36709,-3.289201 -6.36709,-7.346636 0,-4.057434 2.85064,-7.346635 6.36709,-7.346635 3.51644,0 6.36708,3.289201 6.36708,7.346635 z"
           sodipodi:ry="7.3466358"
           sodipodi:rx="6.3670845"
           sodipodi:cy="80.367744"
           sodipodi:cx="745.92841"
           id="path2920"
           style="fill:#ffffff;fill-opacity:1;fill-rule:evenodd;stroke:#000000;stroke-width:0.79897213;stroke-linecap:butt;stroke-linejoin:miter;stroke-miterlimit:4;stroke-opacity:1;stroke-dasharray:none;stroke-dashoffset:0;marker:none;visibility:visible;display:inline;overflow:visible;enable-background:accumulate"
           sodipodi:type="arc" />
        <path
           style="fill:#ffffff;fill-opacity:1;fill-rule:evenodd;stroke:#000000;stroke-width:0.62499982;stroke-linecap:butt;stroke-linejoin:miter;stroke-miterlimit:4;stroke-opacity:1;stroke-dashoffset:0;marker:none;visibility:visible;display:inline;overflow:visible;enable-background:accumulate"
           d="m 464.62808,383.07416 c 2.9532,0 5.35,2.3969 5.35,5.35022 0,2.95332 -2.3968,5.35023 -5.35,5.35023 -2.9532,0 -5.35,-2.39691 -5.35,-5.35023 0,-2.95332 2.3968,-5.35022 5.35,-5.35022 z"
           id="path2922" />
      </g>
      <flowRoot
         transform="matrix(4.1250743,0,0,4.1250743,-481.87806,-3859.4051)"
         style="font-size:12px;font-style:normal;font-weight:normal;text-align:center;text-anchor:middle;fill:#000000;fill-opacity:1;stroke:none;font-family:Bitstream Vera Sans"
         id="flowRoot3394"
         xml:space="preserve"><flowRegion
           id="flowRegion3396"><rect
             y="1248.4067"
             x="136.10957"
             height="122.26792"
             width="385.25931"
             id="rect3398" /></flowRegion><flowPara
           id="flowPara3400" /></flowRoot>      <rect
         rx="11.248013"
         ry="16.12746"
         y="22.874134"
         x="11.624126"
         height="966.75171"
         width="696.75177"
         id="rect2566"
         style="fill:none;stroke:#0000ff;stroke-width:0.74825287;stroke-linecap:butt;stroke-linejoin:miter;stroke-miterlimit:4;stroke-opacity:1;stroke-dasharray:none" />
      <flowRoot
         transform="matrix(4.1250743,0,0,4.1250743,509.36323,-3861.9346)"
         style="font-size:12px;font-style:normal;font-weight:normal;text-align:center;text-anchor:middle;fill:#000000;fill-opacity:1;stroke:none;font-family:Bitstream Vera Sans"
         id="flowRoot2607"
         xml:space="preserve"><flowRegion
           id="flowRegion2609"><rect
             y="1248.4067"
             x="136.10957"
             height="122.26792"
             width="385.25931"
             id="rect2611" /></flowRegion><flowPara
           id="flowPara2613" /></flowRoot>      <path
         sodipodi:type="arc"
         style="fill:#ffffff;fill-opacity:1;fill-rule:evenodd;stroke:#000000;stroke-width:2.19927406;stroke-linecap:butt;stroke-linejoin:miter;stroke-miterlimit:4;stroke-opacity:1;stroke-dasharray:none"
         id="path3372"
         sodipodi:cx="129.375"
         sodipodi:cy="-39.375"
         sodipodi:rx="22.5"
         sodipodi:ry="16.875"
         d="m 151.875,-39.375 c 0,9.319805 -10.07359,16.875 -22.5,16.875 -12.42641,0 -22.5,-7.555195 -22.5,-16.875 0,-9.319805 10.07359,-16.875 22.5,-16.875 12.42641,0 22.5,7.555195 22.5,16.875 z"
         transform="matrix(0.2461111,0,0,0.3281482,69.859376,58.370835)" />
      <path
         transform="matrix(0.2461111,0,0,0.3281482,581.50938,58.370835)"
         d="m 151.875,-39.375 c 0,9.319805 -10.07359,16.875 -22.5,16.875 -12.42641,0 -22.5,-7.555195 -22.5,-16.875 0,-9.319805 10.07359,-16.875 22.5,-16.875 12.42641,0 22.5,7.555195 22.5,16.875 z"
         sodipodi:ry="16.875"
         sodipodi:rx="22.5"
         sodipodi:cy="-39.375"
         sodipodi:cx="129.375"
         id="path3374"
         style="fill:#ffffff;fill-opacity:1;fill-rule:evenodd;stroke:#000000;stroke-width:2.19927406;stroke-linecap:butt;stroke-linejoin:miter;stroke-miterlimit:4;stroke-opacity:1;stroke-dasharray:none"
         sodipodi:type="arc" />
      <path
         transform="matrix(0.2461111,0,0,0.3281482,2.359375,124.97083)"
         d="m 151.875,-39.375 c 0,9.319805 -10.07359,16.875 -22.5,16.875 -12.42641,0 -22.5,-7.555195 -22.5,-16.875 0,-9.319805 10.07359,-16.875 22.5,-16.875 12.42641,0 22.5,7.555195 22.5,16.875 z"
         sodipodi:ry="16.875"
         sodipodi:rx="22.5"
         sodipodi:cy="-39.375"
         sodipodi:cx="129.375"
         id="path3380"
         style="fill:#ffffff;fill-opacity:1;fill-rule:evenodd;stroke:#000000;stroke-width:2.19927406;stroke-linecap:butt;stroke-linejoin:miter;stroke-miterlimit:4;stroke-opacity:1;stroke-dasharray:none"
         sodipodi:type="arc" />
      <path
         sodipodi:type="arc"
         style="fill:#ffffff;fill-opacity:1;fill-rule:evenodd;stroke:#000000;stroke-width:2.19927406;stroke-linecap:butt;stroke-linejoin:miter;stroke-miterlimit:4;stroke-opacity:1;stroke-dasharray:none"
         id="path3382"
         sodipodi:cx="129.375"
         sodipodi:cy="-39.375"
         sodipodi:rx="22.5"
         sodipodi:ry="16.875"
         d="m 151.875,-39.375 c 0,9.319805 -10.07359,16.875 -22.5,16.875 -12.42641,0 -22.5,-7.555195 -22.5,-16.875 0,-9.319805 10.07359,-16.875 22.5,-16.875 12.42641,0 22.5,7.555195 22.5,16.875 z"
         transform="matrix(0.2461111,0,0,0.3281482,649.00938,124.97083)" />
      <g
         transform="translate(20.610713,-91.507317)"
         inkscape:label="Layer 1"
         id="g3308" />
      <flowRoot
         transform="translate(-11.25,0)"
         style="font-size:40px;font-style:normal;font-weight:normal;fill:#000000;fill-opacity:1;stroke:none;font-family:Bitstream Vera Sans"
         id="flowRoot2926"
         xml:space="preserve"><flowRegion
           id="flowRegion2928"><rect
             y="913.76459"
             x="139.91479"
             height="47.100029"
             width="428.05615"
             id="rect2930" /></flowRegion><flowPara
           id="flowPara2932" /></flowRoot>      <path
         transform="matrix(0,-0.2461111,0.3281482,0,648.92638,915.01577)"
         d="m 151.875,-39.375 c 0,9.319805 -10.07359,16.875 -22.5,16.875 -12.42641,0 -22.5,-7.555195 -22.5,-16.875 0,-9.319805 10.07359,-16.875 22.5,-16.875 12.42641,0 22.5,7.555195 22.5,16.875 z"
         sodipodi:ry="16.875"
         sodipodi:rx="22.5"
         sodipodi:cy="-39.375"
         sodipodi:cx="129.375"
         id="path3084"
         style="fill:#ffffff;fill-opacity:1;fill-rule:evenodd;stroke:#000000;stroke-width:2.19927406;stroke-linecap:butt;stroke-linejoin:miter;stroke-miterlimit:4;stroke-opacity:1;stroke-dasharray:none"
         sodipodi:type="arc" />
      <path
         sodipodi:type="arc"
         style="fill:#ffffff;fill-opacity:1;fill-rule:evenodd;stroke:#000000;stroke-width:2.19927406;stroke-linecap:butt;stroke-linejoin:miter;stroke-miterlimit:4;stroke-opacity:1;stroke-dasharray:none"
         id="path3086"
         sodipodi:cx="129.375"
         sodipodi:cy="-39.375"
         sodipodi:rx="22.5"
         sodipodi:ry="16.875"
         d="m 151.875,-39.375 c 0,9.319805 -10.07359,16.875 -22.5,16.875 -12.42641,0 -22.5,-7.555195 -22.5,-16.875 0,-9.319805 10.07359,-16.875 22.5,-16.875 12.42641,0 22.5,7.555195 22.5,16.875 z"
         transform="matrix(0.2461111,0,0,0.3281482,2.359375,907.07083)" />
      <path
         transform="matrix(0.2461111,0,0,0.3281482,649.00938,907.07083)"
         d="m 151.875,-39.375 c 0,9.319805 -10.07359,16.875 -22.5,16.875 -12.42641,0 -22.5,-7.555195 -22.5,-16.875 0,-9.319805 10.07359,-16.875 22.5,-16.875 12.42641,0 22.5,7.555195 22.5,16.875 z"
         sodipodi:ry="16.875"
         sodipodi:rx="22.5"
         sodipodi:cy="-39.375"
         sodipodi:cx="129.375"
         id="path3088"
         style="fill:#ffffff;fill-opacity:1;fill-rule:evenodd;stroke:#000000;stroke-width:2.19927406;stroke-linecap:butt;stroke-linejoin:miter;stroke-miterlimit:4;stroke-opacity:1;stroke-dasharray:none"
         sodipodi:type="arc" />
    </g>
  </g>
</svg>
