<?xml version="1.0" encoding="UTF-8" standalone="no"?>
<!-- Created with Inkscape (http://www.inkscape.org/) -->

<svg
   xmlns:dc="http://purl.org/dc/elements/1.1/"
   xmlns:cc="http://creativecommons.org/ns#"
   xmlns:rdf="http://www.w3.org/1999/02/22-rdf-syntax-ns#"
   xmlns:svg="http://www.w3.org/2000/svg"
   xmlns="http://www.w3.org/2000/svg"
   xmlns:sodipodi="http://sodipodi.sourceforge.net/DTD/sodipodi-0.dtd"
   xmlns:inkscape="http://www.inkscape.org/namespaces/inkscape"
   width="10.749999in"
   height="7.7500005in"
   viewBox="0 0 967.49991 697.50004"
   id="svg2"
   version="1.1"
   inkscape:version="0.92.4 (unknown)"
   sodipodi:docname="aze-pressure.svg">
  <defs
     id="defs4" />
  <sodipodi:namedview
     id="base"
     pagecolor="#ffffff"
     bordercolor="#666666"
     borderopacity="1.0"
     inkscape:pageopacity="0.0"
     inkscape:pageshadow="2"
     inkscape:zoom="0.7"
     inkscape:cx="230.91632"
     inkscape:cy="223.89939"
     inkscape:document-units="in"
     inkscape:current-layer="layer1"
     showgrid="true"
     units="in"
     inkscape:window-width="2048"
     inkscape:window-height="1088"
     inkscape:window-x="0"
     inkscape:window-y="27"
     inkscape:window-maximized="1"
     fit-margin-top="0"
     fit-margin-left="0"
     fit-margin-right="0"
     fit-margin-bottom="0">
    <inkscape:grid
       type="xygrid"
       id="grid4136"
       units="in"
       spacingx="5.625"
       spacingy="5.625"
       empspacing="16"
       originx="888.75001"
       originy="438.74998" />
  </sodipodi:namedview>
  <metadata
     id="metadata7">
    <rdf:RDF>
      <cc:Work
         rdf:about="">
        <dc:format>image/svg+xml</dc:format>
        <dc:type
           rdf:resource="http://purl.org/dc/dcmitype/StillImage" />
        <dc:title></dc:title>
      </cc:Work>
    </rdf:RDF>
  </metadata>
  <g
     inkscape:label="Layer 1"
     inkscape:groupmode="layer"
     id="layer1"
     transform="translate(888.74999,-793.61216)">
    <g
       id="g2889"
       transform="matrix(0,-0.9375,0.9375,0,-911.25,1502.3622)">
      <rect
         style="fill:#1cbf00;fill-opacity:0.3627451;fill-rule:evenodd;stroke:#ff00ff;stroke-width:0.66666663;stroke-linecap:butt;stroke-linejoin:miter;stroke-miterlimit:4;stroke-dasharray:none;stroke-opacity:1"
         id="rect3424"
         width="600.0033"
         height="273"
         x="87.071678"
         y="712.95471" />
      <ellipse
         style="fill:#ffffff;fill-opacity:1;fill-rule:evenodd;stroke:#000000;stroke-width:0.66666657;stroke-linecap:butt;stroke-linejoin:miter;stroke-miterlimit:4;stroke-dasharray:none;stroke-opacity:1"
         id="path3426"
         cx="100.95333"
         cy="971.97864"
         rx="5.9066663"
         ry="5.9066677" />
      <ellipse
         id="path3428"
         style="fill:#ffffff;fill-opacity:1;fill-rule:evenodd;stroke:#000000;stroke-width:0.66666657;stroke-linecap:butt;stroke-linejoin:miter;stroke-miterlimit:4;stroke-dasharray:none;stroke-opacity:1"
         cx="673.30688"
         cy="971.97864"
         rx="5.9066663"
         ry="5.9066677" />
      <ellipse
         id="path3430"
         style="fill:#ffffff;fill-opacity:1;fill-rule:evenodd;stroke:#000000;stroke-width:0.66666657;stroke-linecap:butt;stroke-linejoin:miter;stroke-miterlimit:4;stroke-dasharray:none;stroke-opacity:1"
         cx="99.983643"
         cy="726.98511"
         rx="5.9066663"
         ry="5.9066677" />
      <ellipse
         style="fill:#ffffff;fill-opacity:1;fill-rule:evenodd;stroke:#000000;stroke-width:0.66666657;stroke-linecap:butt;stroke-linejoin:miter;stroke-miterlimit:4;stroke-dasharray:none;stroke-opacity:1"
         id="path3432"
         cx="675.39661"
         cy="725.0058"
         rx="5.9066663"
         ry="5.9066677" />
      <g
         transform="translate(-16.793347,612.26633)"
         id="g2500">
        <rect
           style="display:inline;overflow:visible;visibility:visible;fill:#1cbf00;fill-opacity:0.3627451;fill-rule:evenodd;stroke:#ff00ff;stroke-width:0.66666663;stroke-linecap:butt;stroke-linejoin:miter;stroke-miterlimit:4;stroke-dasharray:none;stroke-dashoffset:0;stroke-opacity:1;marker:none;enable-background:accumulate"
           id="rect2438"
           width="47.916676"
           height="66.533333"
           x="621.8717"
           y="110.76833" />
        <rect
           y="110.76833"
           x="573.95502"
           height="66.533333"
           width="47.916676"
           id="rect2440"
           style="display:inline;overflow:visible;visibility:visible;fill:#1cbf00;fill-opacity:0.3627451;fill-rule:evenodd;stroke:#ff00ff;stroke-width:0.66666663;stroke-linecap:butt;stroke-linejoin:miter;stroke-miterlimit:4;stroke-dasharray:none;stroke-dashoffset:0;stroke-opacity:1;marker:none;enable-background:accumulate" />
        <rect
           y="110.76833"
           x="526.03833"
           height="66.533333"
           width="47.916676"
           id="rect2442"
           style="display:inline;overflow:visible;visibility:visible;fill:#1cbf00;fill-opacity:0.3627451;fill-rule:evenodd;stroke:#ff00ff;stroke-width:0.66666663;stroke-linecap:butt;stroke-linejoin:miter;stroke-miterlimit:4;stroke-dasharray:none;stroke-dashoffset:0;stroke-opacity:1;marker:none;enable-background:accumulate" />
        <rect
           style="display:inline;overflow:visible;visibility:visible;fill:#1cbf00;fill-opacity:0.3627451;fill-rule:evenodd;stroke:#ff00ff;stroke-width:0.66666663;stroke-linecap:butt;stroke-linejoin:miter;stroke-miterlimit:4;stroke-dasharray:none;stroke-dashoffset:0;stroke-opacity:1;marker:none;enable-background:accumulate"
           id="rect2444"
           width="47.916676"
           height="66.533333"
           x="478.12167"
           y="110.76833" />
        <rect
           y="110.76833"
           x="430.20502"
           height="66.533333"
           width="47.916676"
           id="rect2446"
           style="display:inline;overflow:visible;visibility:visible;fill:#1cbf00;fill-opacity:0.3627451;fill-rule:evenodd;stroke:#ff00ff;stroke-width:0.66666663;stroke-linecap:butt;stroke-linejoin:miter;stroke-miterlimit:4;stroke-dasharray:none;stroke-dashoffset:0;stroke-opacity:1;marker:none;enable-background:accumulate" />
        <rect
           style="display:inline;overflow:visible;visibility:visible;fill:#1cbf00;fill-opacity:0.3627451;fill-rule:evenodd;stroke:#ff00ff;stroke-width:0.66666663;stroke-linecap:butt;stroke-linejoin:miter;stroke-miterlimit:4;stroke-dasharray:none;stroke-dashoffset:0;stroke-opacity:1;marker:none;enable-background:accumulate"
           id="rect2448"
           width="47.916676"
           height="66.533333"
           x="382.28836"
           y="110.76833" />
        <rect
           style="display:inline;overflow:visible;visibility:visible;fill:#1cbf00;fill-opacity:0.3627451;fill-rule:evenodd;stroke:#ff00ff;stroke-width:0.66666663;stroke-linecap:butt;stroke-linejoin:miter;stroke-miterlimit:4;stroke-dasharray:none;stroke-dashoffset:0;stroke-opacity:1;marker:none;enable-background:accumulate"
           id="rect2450"
           width="47.916676"
           height="66.533333"
           x="334.37167"
           y="110.76833" />
        <rect
           y="110.76833"
           x="286.45502"
           height="66.533333"
           width="47.916676"
           id="rect2452"
           style="display:inline;overflow:visible;visibility:visible;fill:#1cbf00;fill-opacity:0.3627451;fill-rule:evenodd;stroke:#ff00ff;stroke-width:0.66666663;stroke-linecap:butt;stroke-linejoin:miter;stroke-miterlimit:4;stroke-dasharray:none;stroke-dashoffset:0;stroke-opacity:1;marker:none;enable-background:accumulate" />
      </g>
      <rect
         y="810.24768"
         x="237.59502"
         height="47.333332"
         width="455.33331"
         id="rect2500"
         style="display:inline;overflow:visible;visibility:visible;fill:#1cbf00;fill-opacity:0.3627451;fill-rule:evenodd;stroke:#ff00ff;stroke-width:0.66666663;stroke-linecap:butt;stroke-linejoin:miter;stroke-miterlimit:4;stroke-dasharray:none;stroke-dashoffset:0;stroke-opacity:1;marker:none;enable-background:accumulate" />
      <ellipse
         id="path2514"
         style="display:inline;overflow:visible;visibility:visible;fill:#ffffff;fill-opacity:1;fill-rule:evenodd;stroke:#000000;stroke-width:0.66666651;stroke-linecap:butt;stroke-linejoin:miter;stroke-miterlimit:4;stroke-dasharray:none;stroke-dashoffset:0;stroke-opacity:1;marker:none;enable-background:accumulate"
         cx="261.54193"
         cy="833.63434"
         rx="5.7069044"
         ry="5.7066669" />
      <path
         style="display:inline;overflow:visible;visibility:visible;fill:#ffffff;fill-opacity:1;fill-rule:evenodd;stroke:#000000;stroke-width:0.66666645;stroke-linecap:butt;stroke-linejoin:miter;stroke-miterlimit:4;stroke-dashoffset:0;stroke-opacity:1;marker:none;enable-background:accumulate"
         d="m 675.24882,833.58633 c 0,3.15008 -2.55669,5.70666 -5.7069,5.70666 -3.15021,0 -5.70691,-2.55658 -5.70691,-5.70666 0,-3.15008 2.5567,-5.70667 5.70691,-5.70667 3.15021,0 5.7069,2.55659 5.7069,5.70667 z"
         id="path2516"
         inkscape:connector-curvature="0" />
      <rect
         transform="rotate(-90)"
         y="419.38193"
         x="-694.04871"
         height="273"
         width="600.0033"
         id="rect2890"
         style="fill:#1cbf00;fill-opacity:0.3627451;fill-rule:evenodd;stroke:#ff00ff;stroke-width:0.66666663;stroke-linecap:butt;stroke-linejoin:miter;stroke-miterlimit:4;stroke-dasharray:none;stroke-opacity:1" />
      <ellipse
         transform="rotate(-90)"
         id="path2892"
         style="fill:#ffffff;fill-opacity:1;fill-rule:evenodd;stroke:#000000;stroke-width:0.66666657;stroke-linecap:butt;stroke-linejoin:miter;stroke-miterlimit:4;stroke-dasharray:none;stroke-opacity:1"
         cx="-680.16705"
         cy="678.40588"
         rx="5.9066663"
         ry="5.9066677" />
      <ellipse
         style="fill:#ffffff;fill-opacity:1;fill-rule:evenodd;stroke:#000000;stroke-width:0.66666657;stroke-linecap:butt;stroke-linejoin:miter;stroke-miterlimit:4;stroke-dasharray:none;stroke-opacity:1"
         id="path2894"
         transform="rotate(-90)"
         cx="-107.81349"
         cy="678.40588"
         rx="5.9066663"
         ry="5.9066677" />
      <ellipse
         style="fill:#ffffff;fill-opacity:1;fill-rule:evenodd;stroke:#000000;stroke-width:0.66666657;stroke-linecap:butt;stroke-linejoin:miter;stroke-miterlimit:4;stroke-dasharray:none;stroke-opacity:1"
         id="path2896"
         transform="rotate(-90)"
         cx="-681.13672"
         cy="433.41241"
         rx="5.9066663"
         ry="5.9066677" />
      <ellipse
         transform="rotate(-90)"
         id="path2898"
         style="fill:#ffffff;fill-opacity:1;fill-rule:evenodd;stroke:#000000;stroke-width:0.66666657;stroke-linecap:butt;stroke-linejoin:miter;stroke-miterlimit:4;stroke-dasharray:none;stroke-opacity:1"
         cx="-105.72379"
         cy="431.43311"
         rx="5.9066663"
         ry="5.9066677" />
      <g
         id="g2900"
         transform="rotate(-90,558.30366,239.61004)">
        <rect
           y="110.76833"
           x="621.8717"
           height="66.533333"
           width="47.916676"
           id="rect2902"
           style="display:inline;overflow:visible;visibility:visible;fill:#1cbf00;fill-opacity:0.3627451;fill-rule:evenodd;stroke:#ff00ff;stroke-width:0.66666663;stroke-linecap:butt;stroke-linejoin:miter;stroke-miterlimit:4;stroke-dasharray:none;stroke-dashoffset:0;stroke-opacity:1;marker:none;enable-background:accumulate" />
        <rect
           style="display:inline;overflow:visible;visibility:visible;fill:#1cbf00;fill-opacity:0.3627451;fill-rule:evenodd;stroke:#ff00ff;stroke-width:0.66666663;stroke-linecap:butt;stroke-linejoin:miter;stroke-miterlimit:4;stroke-dasharray:none;stroke-dashoffset:0;stroke-opacity:1;marker:none;enable-background:accumulate"
           id="rect2904"
           width="47.916676"
           height="66.533333"
           x="573.95502"
           y="110.76833" />
        <rect
           style="display:inline;overflow:visible;visibility:visible;fill:#1cbf00;fill-opacity:0.3627451;fill-rule:evenodd;stroke:#ff00ff;stroke-width:0.66666663;stroke-linecap:butt;stroke-linejoin:miter;stroke-miterlimit:4;stroke-dasharray:none;stroke-dashoffset:0;stroke-opacity:1;marker:none;enable-background:accumulate"
           id="rect2906"
           width="47.916676"
           height="66.533333"
           x="526.03833"
           y="110.76833" />
        <rect
           y="110.76833"
           x="478.12167"
           height="66.533333"
           width="47.916676"
           id="rect2908"
           style="display:inline;overflow:visible;visibility:visible;fill:#1cbf00;fill-opacity:0.3627451;fill-rule:evenodd;stroke:#ff00ff;stroke-width:0.66666663;stroke-linecap:butt;stroke-linejoin:miter;stroke-miterlimit:4;stroke-dasharray:none;stroke-dashoffset:0;stroke-opacity:1;marker:none;enable-background:accumulate" />
        <rect
           style="display:inline;overflow:visible;visibility:visible;fill:#1cbf00;fill-opacity:0.3627451;fill-rule:evenodd;stroke:#ff00ff;stroke-width:0.66666663;stroke-linecap:butt;stroke-linejoin:miter;stroke-miterlimit:4;stroke-dasharray:none;stroke-dashoffset:0;stroke-opacity:1;marker:none;enable-background:accumulate"
           id="rect2910"
           width="47.916676"
           height="66.533333"
           x="430.20502"
           y="110.76833" />
        <rect
           y="110.76833"
           x="382.28836"
           height="66.533333"
           width="47.916676"
           id="rect2912"
           style="display:inline;overflow:visible;visibility:visible;fill:#1cbf00;fill-opacity:0.3627451;fill-rule:evenodd;stroke:#ff00ff;stroke-width:0.66666663;stroke-linecap:butt;stroke-linejoin:miter;stroke-miterlimit:4;stroke-dasharray:none;stroke-dashoffset:0;stroke-opacity:1;marker:none;enable-background:accumulate" />
        <rect
           y="110.76833"
           x="334.37167"
           height="66.533333"
           width="47.916676"
           id="rect2914"
           style="display:inline;overflow:visible;visibility:visible;fill:#1cbf00;fill-opacity:0.3627451;fill-rule:evenodd;stroke:#ff00ff;stroke-width:0.66666663;stroke-linecap:butt;stroke-linejoin:miter;stroke-miterlimit:4;stroke-dasharray:none;stroke-dashoffset:0;stroke-opacity:1;marker:none;enable-background:accumulate" />
        <rect
           style="display:inline;overflow:visible;visibility:visible;fill:#1cbf00;fill-opacity:0.3627451;fill-rule:evenodd;stroke:#ff00ff;stroke-width:0.66666663;stroke-linecap:butt;stroke-linejoin:miter;stroke-miterlimit:4;stroke-dasharray:none;stroke-dashoffset:0;stroke-opacity:1;marker:none;enable-background:accumulate"
           id="rect2916"
           width="47.916676"
           height="66.533333"
           x="286.45502"
           y="110.76833" />
      </g>
      <rect
         transform="rotate(-90)"
         style="display:inline;overflow:visible;visibility:visible;fill:#1cbf00;fill-opacity:0.3627451;fill-rule:evenodd;stroke:#ff00ff;stroke-width:0.67316258;stroke-linecap:butt;stroke-linejoin:miter;stroke-miterlimit:4;stroke-dasharray:none;stroke-dashoffset:0;stroke-opacity:1;marker:none;enable-background:accumulate"
         id="rect2918"
         width="167.32684"
         height="131.32681"
         x="-396.53461"
         y="516.67822" />
      <text
         id="text2934"
         y="851.18463"
         x="294.80548"
         style="color:#000000;font-style:normal;font-variant:normal;font-weight:normal;font-stretch:normal;font-size:12.80000019px;line-height:0%;font-family:'Futura Md BT';-inkscape-font-specification:'Futura Md BT';text-align:start;writing-mode:lr-tb;text-anchor:start;display:inline;overflow:visible;visibility:visible;fill:none;stroke:#ff0000;stroke-width:1.06666672px;stroke-linecap:butt;stroke-linejoin:miter;stroke-miterlimit:4;stroke-dasharray:none;stroke-dashoffset:0;stroke-opacity:1;marker:none;enable-background:accumulate"
         xml:space="preserve"><tspan
           y="851.18463"
           x="294.80548"
           id="tspan2936"
           sodipodi:role="line"
           style="font-size:25.60000038px;line-height:1.25;stroke-width:1.06666672px">Azimuth</tspan></text>
      <text
         id="text2938"
         y="851.18463"
         x="408.03397"
         style="color:#000000;font-style:normal;font-variant:normal;font-weight:normal;font-stretch:normal;font-size:12.80000019px;line-height:0%;font-family:'Futura Md BT';-inkscape-font-specification:'Futura Md BT';text-align:start;writing-mode:lr-tb;text-anchor:start;display:inline;overflow:visible;visibility:visible;fill:none;stroke:#ff0000;stroke-width:1.06666672px;stroke-linecap:butt;stroke-linejoin:miter;stroke-miterlimit:4;stroke-dasharray:none;stroke-dashoffset:0;stroke-opacity:1;marker:none;enable-background:accumulate"
         xml:space="preserve"><tspan
           y="851.18463"
           x="408.03397"
           id="tspan2940"
           sodipodi:role="line"
           style="font-size:25.60000038px;line-height:1.25;stroke-width:1.06666672px">Elevation</tspan></text>
      <text
         id="text2942"
         y="851.18463"
         x="560.48773"
         style="color:#000000;font-style:normal;font-variant:normal;font-weight:normal;font-stretch:normal;font-size:12.80000019px;line-height:0%;font-family:'Futura Md BT';-inkscape-font-specification:'Futura Md BT';text-align:start;writing-mode:lr-tb;text-anchor:start;display:inline;overflow:visible;visibility:visible;fill:none;stroke:#ff0000;stroke-width:1.06666672px;stroke-linecap:butt;stroke-linejoin:miter;stroke-miterlimit:4;stroke-dasharray:none;stroke-dashoffset:0;stroke-opacity:1;marker:none;enable-background:accumulate"
         xml:space="preserve"><tspan
           y="851.18463"
           x="560.48773"
           id="tspan2944"
           sodipodi:role="line"
           style="font-size:25.60000038px;line-height:1.25;stroke-width:1.06666672px">Roll</tspan></text>
      <path
         sodipodi:nodetypes="ccsssccscsccssscccsssccsssccsssccssscc"
         id="text2471"
         d="m 271.53939,815.90545 h 2.2375 c 2e-5,0.0667 -0.004,0.16668 -0.0125,0.3 -0.009,0.13334 -0.0125,0.22917 -0.0125,0.2875 10e-6,0.90834 0.175,1.52501 0.52499,1.85 0.34168,0.31668 1.06251,0.47501 2.1625,0.475 h 61.18029 c 1.29167,10e-6 2.2125,0.18334 2.7625,0.55 0.54167,0.36667 0.92917,1.02917 1.16249,1.98751 0.22502,-0.95 0.61252,-1.60833 1.16251,-1.97501 0.54168,-0.37499 1.45834,-0.56249 2.75,-0.5625 h 61.00184 c 1.1,10e-6 1.825,-0.16249 2.17501,-0.4875 0.35832,-0.33332 0.53749,-0.95415 0.53749,-1.8625 0,-0.0584 -0.004,-0.14999 -0.0125,-0.275 -0.009,-0.12499 -0.0125,-0.22082 -0.0125,-0.2875 h 2.2 v 0.7875 c 0,0.85002 -0.05,1.54167 -0.14999,2.075 -0.10006,0.52501 -0.25418,0.96667 -0.4625,1.325 -0.28334,0.47501 -0.68334,0.80834 -1.2,1 -0.51667,0.19167 -1.36251,0.28751 -2.5375,0.2875 h -61.10185 c -1.2,10e-6 -2.04583,0.22084 -2.5375,0.6625 -0.49166,0.43334 -0.7375,1.175 -0.7375,2.225 0,0.0583 0.004,0.15 0.0125,0.275 0.009,0.11667 0.0125,0.20416 0.0125,0.2625 h -2.23749 c 1e-5,-0.0583 0.009,-0.14583 0.025,-0.2625 0.009,-0.125 0.0125,-0.21667 0.0125,-0.275 10e-6,-1.05 -0.24582,-1.79166 -0.73749,-2.225 -0.49166,-0.44166 -1.33332,-0.66249 -2.525,-0.6625 H 275.9269 c -1.20832,10e-6 -2.06666,-0.0958 -2.575,-0.2875 -0.51665,-0.19166 -0.91249,-0.52499 -1.1875,-1 -0.22499,-0.36666 -0.38331,-0.82082 -0.475,-1.3625 -0.1,-0.54166 -0.14998,-1.29583 -0.15,-2.2625 v -0.5625"
         style="color:#000000;font-style:normal;font-variant:normal;font-weight:normal;font-stretch:normal;font-size:24px;line-height:125%;font-family:'Futura Md BT';-inkscape-font-specification:'Futura Md BT';text-indent:0;text-align:center;text-decoration:none;text-decoration-line:none;letter-spacing:normal;word-spacing:normal;text-transform:none;writing-mode:lr-tb;direction:ltr;text-anchor:middle;display:inline;overflow:visible;visibility:visible;fill:none;stroke:#ff0000;stroke-width:1.06666672px;stroke-linecap:butt;stroke-linejoin:miter;stroke-miterlimit:4;stroke-dasharray:none;stroke-dashoffset:0;stroke-opacity:1;marker:none;enable-background:accumulate"
         inkscape:connector-curvature="0" />
      <path
         style="color:#000000;font-style:normal;font-variant:normal;font-weight:normal;font-stretch:normal;font-size:24px;line-height:125%;font-family:'Futura Md BT';-inkscape-font-specification:'Futura Md BT';text-indent:0;text-align:center;text-decoration:none;text-decoration-line:none;letter-spacing:normal;word-spacing:normal;text-transform:none;writing-mode:lr-tb;direction:ltr;text-anchor:middle;display:inline;overflow:visible;visibility:visible;fill:none;stroke:#ff0000;stroke-width:1.06666672px;stroke-linecap:butt;stroke-linejoin:miter;stroke-miterlimit:4;stroke-dasharray:none;stroke-dashoffset:0;stroke-opacity:1;marker:none;enable-background:accumulate"
         d="m 511.2354,815.90545 h 2.2375 c 2e-5,0.0667 -0.004,0.16668 -0.0125,0.3 -0.009,0.13334 -0.0125,0.22917 -0.0125,0.2875 10e-6,0.90834 0.175,1.52501 0.52499,1.85 0.34168,0.31668 1.06252,0.47501 2.1625,0.475 h 62.18658 c 1.29166,10e-6 2.2125,0.18334 2.76249,0.55 0.54168,0.36667 0.92917,1.02917 1.1625,1.98751 0.22501,-0.95 0.61251,-1.60833 1.1625,-1.97501 0.54168,-0.37499 1.45834,-0.56249 2.75,-0.5625 h 61.60561 c 1.1,10e-6 1.825,-0.16249 2.17501,-0.4875 0.35832,-0.33332 0.53749,-0.95415 0.53749,-1.8625 0,-0.0584 -0.004,-0.14999 -0.0125,-0.275 -0.009,-0.12499 -0.0125,-0.22082 -0.0125,-0.2875 h 2.2 v 0.7875 c 0,0.85002 -0.05,1.54167 -0.14999,2.075 -0.10006,0.52501 -0.25418,0.96667 -0.4625,1.325 -0.28334,0.47501 -0.68334,0.80834 -1.2,1 -0.51667,0.19167 -1.36251,0.28751 -2.5375,0.2875 h -61.70561 c -1.2,10e-6 -2.04584,0.22084 -2.53751,0.6625 -0.49166,0.43334 -0.73749,1.175 -0.73749,2.225 0,0.0583 0.004,0.15 0.0125,0.275 0.009,0.11667 0.0125,0.20416 0.0125,0.2625 h -2.2375 c 2e-5,-0.0583 0.009,-0.14583 0.025,-0.2625 0.009,-0.125 0.0125,-0.21667 0.0125,-0.275 2e-5,-1.05 -0.24582,-1.79166 -0.73749,-2.225 -0.49166,-0.44166 -1.33332,-0.66249 -2.525,-0.6625 h -62.26157 c -1.20832,10e-6 -2.06666,-0.0958 -2.575,-0.2875 -0.51665,-0.19166 -0.91249,-0.52499 -1.1875,-1 -0.22499,-0.36666 -0.38331,-0.82082 -0.475,-1.3625 -0.0999,-0.54166 -0.14998,-1.29583 -0.15,-2.2625 v -0.5625"
         id="path2955"
         sodipodi:nodetypes="ccsssccscsccssscccsssccsssccsssccssscc"
         inkscape:connector-curvature="0" />
      <path
         style="color:#000000;font-style:normal;font-variant:normal;font-weight:normal;font-stretch:normal;font-size:24px;line-height:125%;font-family:'Futura Md BT';-inkscape-font-specification:'Futura Md BT';text-indent:0;text-align:center;text-decoration:none;text-decoration-line:none;letter-spacing:normal;word-spacing:normal;text-transform:none;writing-mode:lr-tb;direction:ltr;text-anchor:middle;display:inline;overflow:visible;visibility:visible;fill:none;stroke:#ff0000;stroke-width:1.06666672px;stroke-linecap:butt;stroke-linejoin:miter;stroke-miterlimit:4;stroke-dasharray:none;stroke-dashoffset:0;stroke-opacity:1;marker:none;enable-background:accumulate"
         d="m 415.43671,815.90545 h 2.2375 c 2e-5,0.0667 -0.004,0.16668 -0.0125,0.3 -0.009,0.13334 -0.0125,0.22917 -0.0125,0.2875 1e-5,0.90834 0.17501,1.52501 0.52499,1.85 0.34169,0.31668 1.06252,0.47501 2.16251,0.475 h 38.6396 c 1.29167,10e-6 2.2125,0.18334 2.7625,0.55 0.54167,0.36667 0.92917,1.02917 1.16249,1.98751 0.22502,-0.95 0.61252,-1.60833 1.16251,-1.97501 0.54168,-0.37499 1.45834,-0.56249 2.75,-0.5625 h 35.44231 c 1.1,10e-6 1.825,-0.16249 2.17501,-0.4875 0.35832,-0.33332 0.53749,-0.95415 0.53749,-1.8625 0,-0.0584 -0.004,-0.14999 -0.0125,-0.275 -0.009,-0.12499 -0.0125,-0.22082 -0.0125,-0.2875 h 2.2 v 0.7875 c 0,0.85002 -0.05,1.54167 -0.14999,2.075 -0.10006,0.52501 -0.25418,0.96667 -0.4625,1.325 -0.28334,0.47501 -0.68334,0.80834 -1.2,1 -0.51667,0.19167 -1.36251,0.28751 -2.5375,0.2875 h -35.54232 c -1.2,10e-6 -2.04583,0.22084 -2.5375,0.6625 -0.49166,0.43334 -0.7375,1.175 -0.7375,2.225 0,0.0583 0.004,0.15 0.0125,0.275 0.009,0.11667 0.0125,0.20416 0.0125,0.2625 h -2.23749 c 10e-6,-0.0583 0.009,-0.14583 0.025,-0.2625 0.009,-0.125 0.0125,-0.21667 0.0125,-0.275 1e-5,-1.05 -0.24582,-1.79166 -0.73749,-2.225 -0.49166,-0.44166 -1.33332,-0.66249 -2.525,-0.6625 H 419.8242 c -1.20832,10e-6 -2.06665,-0.0958 -2.57499,-0.2875 -0.51666,-0.19166 -0.9125,-0.52499 -1.1875,-1 -0.225,-0.36666 -0.38332,-0.82082 -0.47501,-1.3625 -0.1,-0.54166 -0.14997,-1.29583 -0.15,-2.2625 v -0.5625"
         id="path2957"
         sodipodi:nodetypes="ccsssccscsccssscccsssccsssccsssccssscc"
         inkscape:connector-curvature="0" />
      <text
         id="text2906"
         y="290.31494"
         x="580.56659"
         style="color:#000000;font-style:normal;font-variant:normal;font-weight:normal;font-stretch:normal;font-size:12.80000019px;line-height:0%;font-family:'Futura Md BT';-inkscape-font-specification:'Futura Md BT';text-indent:0;text-align:center;text-decoration:none;text-decoration-line:none;letter-spacing:normal;word-spacing:normal;text-transform:none;writing-mode:lr-tb;direction:ltr;text-anchor:middle;display:inline;overflow:visible;visibility:visible;fill:none;stroke:#ff0000;stroke-width:1.06666672px;stroke-linecap:butt;stroke-linejoin:miter;stroke-miterlimit:4;stroke-dasharray:none;stroke-dashoffset:0;stroke-opacity:1;marker:none;enable-background:accumulate"
         xml:space="preserve"><tspan
           style="color:#000000;font-style:normal;font-variant:normal;font-weight:normal;font-stretch:normal;font-size:25.60000038px;line-height:125%;font-family:'Futura Md BT';-inkscape-font-specification:'Futura Md BT';text-indent:0;text-align:center;text-decoration:none;text-decoration-line:none;letter-spacing:normal;word-spacing:normal;text-transform:none;writing-mode:lr-tb;direction:ltr;text-anchor:middle;display:inline;overflow:visible;visibility:visible;fill:none;stroke:#ff0000;stroke-width:1.06666672px;stroke-linecap:butt;stroke-linejoin:miter;stroke-miterlimit:4;stroke-dasharray:none;stroke-dashoffset:0;stroke-opacity:1;marker:none;enable-background:accumulate"
           y="290.31494"
           x="580.56659"
           id="tspan2908"
           sodipodi:role="line">Thruster</tspan><tspan
           style="color:#000000;font-style:normal;font-variant:normal;font-weight:normal;font-stretch:normal;font-size:25.60000038px;line-height:125%;font-family:'Futura Md BT';-inkscape-font-specification:'Futura Md BT';text-indent:0;text-align:center;text-decoration:none;text-decoration-line:none;letter-spacing:normal;word-spacing:normal;text-transform:none;writing-mode:lr-tb;direction:ltr;text-anchor:middle;display:inline;overflow:visible;visibility:visible;fill:none;stroke:#ff0000;stroke-width:1.06666672px;stroke-linecap:butt;stroke-linejoin:miter;stroke-miterlimit:4;stroke-dasharray:none;stroke-dashoffset:0;stroke-opacity:1;marker:none;enable-background:accumulate"
           id="tspan2912"
           y="322.31494"
           x="580.56659"
           sodipodi:role="line">Reactant</tspan><tspan
           style="color:#000000;font-style:normal;font-variant:normal;font-weight:normal;font-stretch:normal;font-size:25.60000038px;line-height:125%;font-family:'Futura Md BT';-inkscape-font-specification:'Futura Md BT';text-indent:0;text-align:center;text-decoration:none;text-decoration-line:none;letter-spacing:normal;word-spacing:normal;text-transform:none;writing-mode:lr-tb;direction:ltr;text-anchor:middle;display:inline;overflow:visible;visibility:visible;fill:none;stroke:#ff0000;stroke-width:1.06666672px;stroke-linecap:butt;stroke-linejoin:miter;stroke-miterlimit:4;stroke-dasharray:none;stroke-dashoffset:0;stroke-opacity:1;marker:none;enable-background:accumulate"
           id="tspan2910"
           y="354.31494"
           x="580.56659"
           sodipodi:role="line">Pressure</tspan></text>
      <g
         transform="translate(86.73834,-161.44813)"
         id="g2957">
        <ellipse
           transform="rotate(-90)"
           id="path2920"
           style="display:inline;overflow:visible;visibility:visible;fill:#ffffff;fill-opacity:1;fill-rule:evenodd;stroke:#000000;stroke-width:0.66666651;stroke-linecap:butt;stroke-linejoin:miter;stroke-miterlimit:4;stroke-dasharray:none;stroke-dashoffset:0;stroke-opacity:1;marker:none;enable-background:accumulate"
           cx="-534.31927"
           cy="495.60327"
           rx="5.7069044"
           ry="5.7066669" />
        <path
           style="display:inline;overflow:visible;visibility:visible;fill:#ffffff;fill-opacity:1;fill-rule:evenodd;stroke:#000000;stroke-width:0.66666645;stroke-linecap:butt;stroke-linejoin:miter;stroke-miterlimit:4;stroke-dashoffset:0;stroke-opacity:1;marker:none;enable-background:accumulate"
           d="m 495.60329,408.61244 c 3.15008,0 5.70666,2.55669 5.70666,5.7069 0,3.15021 -2.55658,5.70691 -5.70666,5.70691 -3.15008,0 -5.70667,-2.5567 -5.70667,-5.70691 0,-3.15021 2.55659,-5.7069 5.70667,-5.7069 z"
           id="path2922"
           inkscape:connector-curvature="0" />
      </g>
      <rect
         rx="11.99788"
         ry="17.202625"
         y="24.399076"
         x="12.399068"
         height="1031.2018"
         width="743.2019"
         id="rect2566"
         style="fill:none;stroke:#0000ff;stroke-width:0.79813641;stroke-linecap:butt;stroke-linejoin:miter;stroke-miterlimit:4;stroke-dasharray:none;stroke-opacity:1" />
      <ellipse
         style="fill:#ffffff;fill-opacity:1;fill-rule:evenodd;stroke:#000000;stroke-width:0.66666657;stroke-linecap:butt;stroke-linejoin:miter;stroke-miterlimit:4;stroke-dasharray:none;stroke-opacity:1"
         id="path3372"
         cx="108.48"
         cy="48.48"
         rx="5.9066663"
         ry="5.9066677" />
      <ellipse
         id="path3374"
         style="fill:#ffffff;fill-opacity:1;fill-rule:evenodd;stroke:#000000;stroke-width:0.66666657;stroke-linecap:butt;stroke-linejoin:miter;stroke-miterlimit:4;stroke-dasharray:none;stroke-opacity:1"
         cx="654.23999"
         cy="48.48"
         rx="5.9066663"
         ry="5.9066677" />
      <ellipse
         id="path3380"
         style="fill:#ffffff;fill-opacity:1;fill-rule:evenodd;stroke:#000000;stroke-width:0.66666657;stroke-linecap:butt;stroke-linejoin:miter;stroke-miterlimit:4;stroke-dasharray:none;stroke-opacity:1"
         cx="36.48"
         cy="119.52"
         rx="5.9066663"
         ry="5.9066677" />
      <ellipse
         style="fill:#ffffff;fill-opacity:1;fill-rule:evenodd;stroke:#000000;stroke-width:0.66666657;stroke-linecap:butt;stroke-linejoin:miter;stroke-miterlimit:4;stroke-dasharray:none;stroke-opacity:1"
         id="path3382"
         cx="726.23999"
         cy="119.52"
         rx="5.9066663"
         ry="5.9066677" />
      <g
         transform="translate(21.984761,-97.607805)"
         inkscape:label="Layer 1"
         id="g3308" />
      <flowRoot
         style="font-style:normal;font-weight:normal;font-size:12.80000019px;line-height:0.01%;font-family:'Bitstream Vera Sans';fill:#000000;fill-opacity:1;stroke:none;stroke-width:1.06666672"
         id="flowRoot2926"
         xml:space="preserve"><flowRegion
           id="flowRegion2928"
           style="stroke-width:1.06666672"><rect
             y="974.68225"
             x="137.24245"
             height="50.240032"
             width="456.59323"
             id="rect2930"
             style="stroke-width:1.13777781" /></flowRegion><flowPara
           id="flowPara2932"
           style="font-size:42.66666794px;line-height:1.25;stroke-width:1.06666672"> </flowPara></flowRoot>      <ellipse
         transform="rotate(-90)"
         id="path3084"
         style="fill:#ffffff;fill-opacity:1;fill-rule:evenodd;stroke:#000000;stroke-width:0.66666657;stroke-linecap:butt;stroke-linejoin:miter;stroke-miterlimit:4;stroke-dasharray:none;stroke-opacity:1"
         cx="-942.05347"
         cy="678.40588"
         rx="5.9066663"
         ry="5.9066677" />
      <ellipse
         style="fill:#ffffff;fill-opacity:1;fill-rule:evenodd;stroke:#000000;stroke-width:0.66666657;stroke-linecap:butt;stroke-linejoin:miter;stroke-miterlimit:4;stroke-dasharray:none;stroke-opacity:1"
         id="path3086"
         cx="36.48"
         cy="953.76001"
         rx="5.9066663"
         ry="5.9066677" />
      <ellipse
         id="path3088"
         style="fill:#ffffff;fill-opacity:1;fill-rule:evenodd;stroke:#000000;stroke-width:0.66666657;stroke-linecap:butt;stroke-linejoin:miter;stroke-miterlimit:4;stroke-dasharray:none;stroke-opacity:1"
         cx="726.23999"
         cy="953.76001"
         rx="5.9066663"
         ry="5.9066677" />
    </g>
  </g>
</svg>
