<?xml version="1.0" encoding="UTF-8" standalone="no"?>
<!-- Created with Inkscape (http://www.inkscape.org/) -->

<svg
   xmlns:dc="http://purl.org/dc/elements/1.1/"
   xmlns:cc="http://creativecommons.org/ns#"
   xmlns:rdf="http://www.w3.org/1999/02/22-rdf-syntax-ns#"
   xmlns:svg="http://www.w3.org/2000/svg"
   xmlns="http://www.w3.org/2000/svg"
   xmlns:sodipodi="http://sodipodi.sourceforge.net/DTD/sodipodi-0.dtd"
   xmlns:inkscape="http://www.inkscape.org/namespaces/inkscape"
   width="2160"
   height="1080"
   id="svg2"
   sodipodi:version="0.32"
   inkscape:version="0.47 r22583"
   version="1.0"
   sodipodi:docname="flashcard.svg"
   inkscape:output_extension="org.inkscape.output.svg.inkscape">
  <defs
     id="defs4">
    <inkscape:perspective
       sodipodi:type="inkscape:persp3d"
       inkscape:vp_x="0 : 382.5 : 1"
       inkscape:vp_y="0 : 1000 : 0"
       inkscape:vp_z="990 : 382.5 : 1"
       inkscape:persp3d-origin="495 : 255 : 1"
       id="perspective56" />
    <inkscape:perspective
       id="perspective3683"
       inkscape:persp3d-origin="0.5 : 0.33333333 : 1"
       inkscape:vp_z="1 : 0.5 : 1"
       inkscape:vp_y="0 : 1000 : 0"
       inkscape:vp_x="0 : 0.5 : 1"
       sodipodi:type="inkscape:persp3d" />
    <inkscape:perspective
       id="perspective3740"
       inkscape:persp3d-origin="0.5 : 0.33333333 : 1"
       inkscape:vp_z="1 : 0.5 : 1"
       inkscape:vp_y="0 : 1000 : 0"
       inkscape:vp_x="0 : 0.5 : 1"
       sodipodi:type="inkscape:persp3d" />
    <inkscape:perspective
       id="perspective3773"
       inkscape:persp3d-origin="0.5 : 0.33333333 : 1"
       inkscape:vp_z="1 : 0.5 : 1"
       inkscape:vp_y="0 : 1000 : 0"
       inkscape:vp_x="0 : 0.5 : 1"
       sodipodi:type="inkscape:persp3d" />
    <inkscape:perspective
       id="perspective3796"
       inkscape:persp3d-origin="0.5 : 0.33333333 : 1"
       inkscape:vp_z="1 : 0.5 : 1"
       inkscape:vp_y="0 : 1000 : 0"
       inkscape:vp_x="0 : 0.5 : 1"
       sodipodi:type="inkscape:persp3d" />
    <inkscape:perspective
       id="perspective2876"
       inkscape:persp3d-origin="0.5 : 0.33333333 : 1"
       inkscape:vp_z="1 : 0.5 : 1"
       inkscape:vp_y="0 : 1000 : 0"
       inkscape:vp_x="0 : 0.5 : 1"
       sodipodi:type="inkscape:persp3d" />
    <inkscape:perspective
       id="perspective2898"
       inkscape:persp3d-origin="0.5 : 0.33333333 : 1"
       inkscape:vp_z="1 : 0.5 : 1"
       inkscape:vp_y="0 : 1000 : 0"
       inkscape:vp_x="0 : 0.5 : 1"
       sodipodi:type="inkscape:persp3d" />
    <inkscape:perspective
       id="perspective3137"
       inkscape:persp3d-origin="0.5 : 0.33333333 : 1"
       inkscape:vp_z="1 : 0.5 : 1"
       inkscape:vp_y="0 : 1000 : 0"
       inkscape:vp_x="0 : 0.5 : 1"
       sodipodi:type="inkscape:persp3d" />
    <inkscape:perspective
       id="perspective3191"
       inkscape:persp3d-origin="0.5 : 0.33333333 : 1"
       inkscape:vp_z="1 : 0.5 : 1"
       inkscape:vp_y="0 : 1000 : 0"
       inkscape:vp_x="0 : 0.5 : 1"
       sodipodi:type="inkscape:persp3d" />
    <inkscape:perspective
       id="perspective3269"
       inkscape:persp3d-origin="0.5 : 0.33333333 : 1"
       inkscape:vp_z="1 : 0.5 : 1"
       inkscape:vp_y="0 : 1000 : 0"
       inkscape:vp_x="0 : 0.5 : 1"
       sodipodi:type="inkscape:persp3d" />
    <inkscape:perspective
       id="perspective3297"
       inkscape:persp3d-origin="0.5 : 0.33333333 : 1"
       inkscape:vp_z="1 : 0.5 : 1"
       inkscape:vp_y="0 : 1000 : 0"
       inkscape:vp_x="0 : 0.5 : 1"
       sodipodi:type="inkscape:persp3d" />
    <inkscape:perspective
       id="perspective3297-2"
       inkscape:persp3d-origin="0.5 : 0.33333333 : 1"
       inkscape:vp_z="1 : 0.5 : 1"
       inkscape:vp_y="0 : 1000 : 0"
       inkscape:vp_x="0 : 0.5 : 1"
       sodipodi:type="inkscape:persp3d" />
    <inkscape:perspective
       id="perspective3331"
       inkscape:persp3d-origin="0.5 : 0.33333333 : 1"
       inkscape:vp_z="1 : 0.5 : 1"
       inkscape:vp_y="0 : 1000 : 0"
       inkscape:vp_x="0 : 0.5 : 1"
       sodipodi:type="inkscape:persp3d" />
    <inkscape:perspective
       id="perspective3331-6"
       inkscape:persp3d-origin="0.5 : 0.33333333 : 1"
       inkscape:vp_z="1 : 0.5 : 1"
       inkscape:vp_y="0 : 1000 : 0"
       inkscape:vp_x="0 : 0.5 : 1"
       sodipodi:type="inkscape:persp3d" />
    <inkscape:perspective
       id="perspective3497"
       inkscape:persp3d-origin="0.5 : 0.33333333 : 1"
       inkscape:vp_z="1 : 0.5 : 1"
       inkscape:vp_y="0 : 1000 : 0"
       inkscape:vp_x="0 : 0.5 : 1"
       sodipodi:type="inkscape:persp3d" />
    <inkscape:perspective
       id="perspective3937"
       inkscape:persp3d-origin="0.5 : 0.33333333 : 1"
       inkscape:vp_z="1 : 0.5 : 1"
       inkscape:vp_y="0 : 1000 : 0"
       inkscape:vp_x="0 : 0.5 : 1"
       sodipodi:type="inkscape:persp3d" />
    <inkscape:perspective
       id="perspective4736"
       inkscape:persp3d-origin="0.5 : 0.33333333 : 1"
       inkscape:vp_z="1 : 0.5 : 1"
       inkscape:vp_y="0 : 1000 : 0"
       inkscape:vp_x="0 : 0.5 : 1"
       sodipodi:type="inkscape:persp3d" />
    <inkscape:perspective
       id="perspective4736-6"
       inkscape:persp3d-origin="0.5 : 0.33333333 : 1"
       inkscape:vp_z="1 : 0.5 : 1"
       inkscape:vp_y="0 : 1000 : 0"
       inkscape:vp_x="0 : 0.5 : 1"
       sodipodi:type="inkscape:persp3d" />
    <inkscape:perspective
       id="perspective4736-7"
       inkscape:persp3d-origin="0.5 : 0.33333333 : 1"
       inkscape:vp_z="1 : 0.5 : 1"
       inkscape:vp_y="0 : 1000 : 0"
       inkscape:vp_x="0 : 0.5 : 1"
       sodipodi:type="inkscape:persp3d" />
    <inkscape:perspective
       id="perspective4736-1"
       inkscape:persp3d-origin="0.5 : 0.33333333 : 1"
       inkscape:vp_z="1 : 0.5 : 1"
       inkscape:vp_y="0 : 1000 : 0"
       inkscape:vp_x="0 : 0.5 : 1"
       sodipodi:type="inkscape:persp3d" />
    <inkscape:perspective
       id="perspective4736-2"
       inkscape:persp3d-origin="0.5 : 0.33333333 : 1"
       inkscape:vp_z="1 : 0.5 : 1"
       inkscape:vp_y="0 : 1000 : 0"
       inkscape:vp_x="0 : 0.5 : 1"
       sodipodi:type="inkscape:persp3d" />
    <inkscape:perspective
       id="perspective4807"
       inkscape:persp3d-origin="0.5 : 0.33333333 : 1"
       inkscape:vp_z="1 : 0.5 : 1"
       inkscape:vp_y="0 : 1000 : 0"
       inkscape:vp_x="0 : 0.5 : 1"
       sodipodi:type="inkscape:persp3d" />
    <inkscape:perspective
       id="perspective2928"
       inkscape:persp3d-origin="0.5 : 0.33333333 : 1"
       inkscape:vp_z="1 : 0.5 : 1"
       inkscape:vp_y="0 : 1000 : 0"
       inkscape:vp_x="0 : 0.5 : 1"
       sodipodi:type="inkscape:persp3d" />
  </defs>
  <sodipodi:namedview
     id="base"
     pagecolor="#ffffff"
     bordercolor="#666666"
     borderopacity="1.0"
     gridtolerance="10000"
     guidetolerance="10"
     objecttolerance="10"
     inkscape:pageopacity="0.0"
     inkscape:pageshadow="2"
     inkscape:zoom="0.5460019"
     inkscape:cx="148.65148"
     inkscape:cy="638.19035"
     inkscape:document-units="in"
     inkscape:current-layer="g3880"
     showgrid="true"
     units="in"
     inkscape:window-width="1542"
     inkscape:window-height="988"
     inkscape:window-x="260"
     inkscape:window-y="45"
     inkscape:snap-intersection-grid-guide="false"
     inkscape:snap-bbox="true"
     inkscape:snap-nodes="true"
     inkscape:snap-global="true"
     inkscape:window-maximized="0"
     inkscape:snap-grids="false"
     inkscape:object-paths="false"
     inkscape:object-nodes="true"
     showguides="true"
     inkscape:guide-bbox="true"
     inkscape:snap-object-midpoints="true"
     inkscape:snap-bbox-midpoints="true">
    <inkscape:grid
       type="xygrid"
       id="grid2509"
       visible="true"
       enabled="true"
       units="in"
       spacingx="0.0625in"
       spacingy="0.0625in"
       empspacing="16" />
  </sodipodi:namedview>
  <metadata
     id="metadata7">
    <rdf:RDF>
      <cc:Work
         rdf:about="">
        <dc:format>image/svg+xml</dc:format>
        <dc:type
           rdf:resource="http://purl.org/dc/dcmitype/StillImage" />
        <dc:title />
      </cc:Work>
    </rdf:RDF>
  </metadata>
  <g
     inkscape:label="Layer 1"
     inkscape:groupmode="layer"
     id="layer1">
    <flowRoot
       xml:space="preserve"
       id="flowRoot3394"
       style="font-size:12px;font-style:normal;font-weight:normal;text-align:center;text-anchor:middle;fill:#000000;fill-opacity:1;stroke:none;font-family:Bitstream Vera Sans"
       transform="matrix(4.1250743,0,0,4.1250743,-470.62806,-3578.1551)"><flowRegion
         id="flowRegion3396"><rect
           id="rect3398"
           width="385.25931"
           height="122.26792"
           x="136.10957"
           y="1248.4067" /></flowRegion><flowPara
         id="flowPara3400" /></flowRoot>    <flowRoot
       xml:space="preserve"
       id="flowRoot3089"
       style="font-size:40px;font-style:normal;font-weight:normal;fill:#000000;fill-opacity:1;stroke:none;font-family:Bitstream Vera Sans"
       transform="translate(-1.9073486e-6,281.25)"><flowRegion
         id="flowRegion3091"><rect
           id="rect3093"
           width="91.335754"
           height="77.206467"
           x="101.4281"
           y="220.13193" /></flowRegion><flowPara
         id="flowPara3095">operand</flowPara></flowRoot>    <g
       id="g3632"
       transform="translate(-419.94592,126)" />
    <g
       transform="translate(-460.04061,58.55356)"
       id="g3282">
      <path
         style="color:#000000;fill:#ffffff;fill-opacity:1;fill-rule:evenodd;stroke:#000000;stroke-width:0.62499994;stroke-linecap:butt;stroke-linejoin:miter;stroke-miterlimit:4;stroke-opacity:1;stroke-dasharray:none;stroke-dashoffset:0;marker:none;visibility:visible;display:inline;overflow:visible;enable-background:accumulate"
         d="m 766.15625,440.59375 270.12495,0 0,22.6875 c -0.2681,-0.0165 -0.5398,-0.0312 -0.8124,-0.0312 -7.2228,0 -13.0938,5.84026 -13.0938,13.0625 0,7.22224 5.871,13.09375 13.0938,13.09375 0.2726,0 0.5443,-0.0148 0.8124,-0.0312 l 0,151.6875 c -0.2682,-0.0165 -0.5398,-0.0312 -0.8124,-0.0312 -7.2227,0 -13.0938,5.84026 -13.0938,13.0625 0,7.22224 5.8711,13.09375 13.0938,13.09375 0.2726,0 0.5442,-0.0148 0.8124,-0.0312 l 0,22.6875 -270.12495,0 0,-22.6875 c 0.26869,0.0165 0.53967,0.0312 0.8125,0.0312 7.22224,0 13.09375,-5.87151 13.09375,-13.09375 0,-7.22224 -5.87151,-13.0625 -13.09375,-13.0625 -0.27283,0 -0.54381,0.0148 -0.8125,0.0312 l 0,-151.6875 c 0.26869,0.0165 0.53967,0.0312 0.8125,0.0312 7.22224,0 13.09375,-5.87151 13.09375,-13.09375 0,-7.22224 -5.87151,-13.0625 -13.09375,-13.0625 -0.27283,0 -0.54381,0.0148 -0.8125,0.0312 l 0,-22.6875 z"
         id="path3257" />
      <path
         style="color:#000000;fill:#ffffff;fill-opacity:1;fill-rule:evenodd;stroke:#000000;stroke-width:0.62499994;stroke-linecap:butt;stroke-linejoin:miter;stroke-miterlimit:4;stroke-opacity:1;stroke-dasharray:none;stroke-dashoffset:0;marker:none;visibility:visible;display:inline;overflow:visible;enable-background:accumulate"
         d="m 766.96875,470.65625 c 3.12152,0 5.65625,2.53473 5.65625,5.65625 0,3.12152 -2.53473,5.65625 -5.65625,5.65625 -3.12152,0 -5.65625,-2.53473 -5.65625,-5.65625 0,-3.12152 2.53473,-5.65625 5.65625,-5.65625 z"
         id="path3255" />
      <path
         style="color:#000000;fill:#ffffff;fill-opacity:1;fill-rule:evenodd;stroke:#000000;stroke-width:0.62499994;stroke-linecap:butt;stroke-linejoin:miter;stroke-miterlimit:4;stroke-opacity:1;stroke-dasharray:none;stroke-dashoffset:0;marker:none;visibility:visible;display:inline;overflow:visible;enable-background:accumulate"
         d="m 1035.4688,470.65625 c 3.1213,0 5.6562,2.53473 5.6562,5.65625 0,3.12152 -2.5349,5.65625 -5.6562,5.65625 -3.1218,0 -5.6563,-2.53473 -5.6563,-5.65625 0,-3.12152 2.5345,-5.65625 5.6563,-5.65625 z"
         id="path3253" />
      <path
         style="color:#000000;fill:#ffffff;fill-opacity:1;fill-rule:evenodd;stroke:#000000;stroke-width:0.62499994;stroke-linecap:butt;stroke-linejoin:miter;stroke-miterlimit:4;stroke-opacity:1;stroke-dasharray:none;stroke-dashoffset:0;marker:none;visibility:visible;display:inline;overflow:visible;enable-background:accumulate"
         d="m 766.96875,648.4375 c 3.12152,0 5.65625,2.53473 5.65625,5.65625 0,3.12152 -2.53473,5.65625 -5.65625,5.65625 -3.12152,0 -5.65625,-2.53473 -5.65625,-5.65625 0,-3.12152 2.53473,-5.65625 5.65625,-5.65625 z"
         id="path3251" />
      <path
         style="color:#000000;fill:#ffffff;fill-opacity:1;fill-rule:evenodd;stroke:#000000;stroke-width:0.62499994;stroke-linecap:butt;stroke-linejoin:miter;stroke-miterlimit:4;stroke-opacity:1;stroke-dasharray:none;stroke-dashoffset:0;marker:none;visibility:visible;display:inline;overflow:visible;enable-background:accumulate"
         d="m 1035.4688,648.4375 c 3.1214,0 5.6562,2.53473 5.6562,5.65625 0,3.12152 -2.5348,5.65625 -5.6562,5.65625 -3.1217,0 -5.6563,-2.53473 -5.6563,-5.65625 0,-3.12152 2.5346,-5.65625 5.6563,-5.65625 z"
         id="rect3232" />
    </g>
    <g
       id="g3888">
      <rect
         y="66.008873"
         x="493.56055"
         height="149.39999"
         width="340.20001"
         id="rect2976"
         style="opacity:1;color:#000000;fill:none;stroke:#0000ff;stroke-width:1.25000000000000000;stroke-linecap:butt;stroke-linejoin:miter;stroke-miterlimit:4;stroke-opacity:1;stroke-dasharray:none;stroke-dashoffset:0;marker:none;visibility:visible;display:inline;overflow:visible;enable-background:accumulate" />
      <path
         transform="matrix(0.15141839,0,0,0.11709688,473.46263,54.587638)"
         d="m 265.87215,264.70587 a 41.012192,53.033009 0 1 1 -82.02439,0 41.012192,53.033009 0 1 1 82.02439,0 z"
         sodipodi:ry="53.033009"
         sodipodi:rx="41.012192"
         sodipodi:cy="264.70587"
         sodipodi:cx="224.85995"
         id="path2984"
         style="opacity:1;color:#000000;fill:none;stroke:#000000;stroke-width:9.3874587;marker:none;visibility:visible;display:inline;overflow:visible;enable-background:accumulate;stroke-miterlimit:4;stroke-dasharray:none"
         sodipodi:type="arc" />
      <path
         sodipodi:type="arc"
         style="opacity:1;color:#000000;fill:none;stroke:#000000;stroke-width:9.3874587;marker:none;visibility:visible;display:inline;overflow:visible;enable-background:accumulate;stroke-miterlimit:4;stroke-dasharray:none"
         id="path3758"
         sodipodi:cx="224.85995"
         sodipodi:cy="264.70587"
         sodipodi:rx="41.012192"
         sodipodi:ry="53.033009"
         d="m 265.87215,264.70587 a 41.012192,53.033009 0 1 1 -82.02439,0 41.012192,53.033009 0 1 1 82.02439,0 z"
         transform="matrix(0.15141839,0,0,0.11709688,785.76261,54.587638)" />
      <path
         sodipodi:type="arc"
         style="opacity:1;color:#000000;fill:none;stroke:#000000;stroke-width:9.3874587;marker:none;visibility:visible;display:inline;overflow:visible;enable-background:accumulate;stroke-miterlimit:4;stroke-dasharray:none"
         id="path3760"
         sodipodi:cx="224.85995"
         sodipodi:cy="264.70587"
         sodipodi:rx="41.012192"
         sodipodi:ry="53.033009"
         d="m 265.87215,264.70587 a 41.012192,53.033009 0 1 1 -82.02439,0 41.012192,53.033009 0 1 1 82.02439,0 z"
         transform="matrix(0.15141839,0,0,0.11709688,473.46263,164.83764)" />
      <path
         transform="matrix(0.15141839,0,0,0.11709688,785.76261,164.83764)"
         d="m 265.87215,264.70587 a 41.012192,53.033009 0 1 1 -82.02439,0 41.012192,53.033009 0 1 1 82.02439,0 z"
         sodipodi:ry="53.033009"
         sodipodi:rx="41.012192"
         sodipodi:cy="264.70587"
         sodipodi:cx="224.85995"
         id="path3762"
         style="opacity:1;color:#000000;fill:none;stroke:#000000;stroke-width:9.3874587;marker:none;visibility:visible;display:inline;overflow:visible;enable-background:accumulate;stroke-miterlimit:4;stroke-dasharray:none"
         sodipodi:type="arc" />
    </g>
    <g
       transform="translate(-968.68459,-480.08322)"
       id="g3010"
       style="stroke:#000000">
      <rect
         style="fill:none;fill-opacity:0.32026146000000000;fill-rule:evenodd;stroke:#0000ff;stroke-width:0.62499994000000003;stroke-linecap:butt;stroke-linejoin:miter;stroke-miterlimit:4;stroke-opacity:1;stroke-dasharray:none"
         id="rect2615"
         width="328.77502"
         height="194.765"
         x="-692.72968"
         y="457.01749"
         transform="matrix(0,-1,1,0,0,0)" />
      <path
         sodipodi:type="arc"
         style="fill:#ffffff;fill-opacity:1;fill-rule:evenodd;stroke:#000000;stroke-width:2.24536370999999990;stroke-linecap:butt;stroke-linejoin:miter;stroke-miterlimit:4;stroke-opacity:1;stroke-dasharray:none"
         id="path2621"
         sodipodi:cx="129.375"
         sodipodi:cy="-39.375"
         sodipodi:rx="22.5"
         sodipodi:ry="16.875"
         d="m 151.875,-39.375 c 0,9.319805 -10.07359,16.875 -22.5,16.875 -12.42641,0 -22.5,-7.555195 -22.5,-16.875 0,-9.319805 10.07359,-16.875 22.5,-16.875 12.42641,0 22.5,7.555195 22.5,16.875 z"
         transform="matrix(0,-0.2461111,0.3148148,0,649.28078,709.71776)" />
      <path
         transform="matrix(0,-0.2361111,0.3281482,0,485.06081,708.64901)"
         d="m 151.875,-39.375 c 0,9.319805 -10.07359,16.875 -22.5,16.875 -12.42641,0 -22.5,-7.555195 -22.5,-16.875 0,-9.319805 10.07359,-16.875 22.5,-16.875 12.42641,0 22.5,7.555195 22.5,16.875 z"
         sodipodi:ry="16.875"
         sodipodi:rx="22.5"
         sodipodi:cy="-39.375"
         sodipodi:cx="129.375"
         id="path2395"
         style="fill:#ffffff;fill-opacity:1;fill-rule:evenodd;stroke:#000000;stroke-width:2.24536370999999990;stroke-linecap:butt;stroke-linejoin:miter;stroke-miterlimit:4;stroke-opacity:1;stroke-dasharray:none"
         sodipodi:type="arc" />
      <path
         transform="matrix(0,-0.2461111,0.3281482,0,650.03078,410.19776)"
         d="m 151.875,-39.375 c 0,9.319805 -10.07359,16.875 -22.5,16.875 -12.42641,0 -22.5,-7.555195 -22.5,-16.875 0,-9.319805 10.07359,-16.875 22.5,-16.875 12.42641,0 22.5,7.555195 22.5,16.875 z"
         sodipodi:ry="16.875"
         sodipodi:rx="22.5"
         sodipodi:cy="-39.375"
         sodipodi:cx="129.375"
         id="path2397"
         style="fill:#ffffff;fill-opacity:1;fill-rule:evenodd;stroke:#000000;stroke-width:2.19927382000000016;stroke-linecap:butt;stroke-linejoin:miter;stroke-miterlimit:4;stroke-opacity:1;stroke-dasharray:none"
         sodipodi:type="arc" />
      <path
         sodipodi:type="arc"
         style="fill:#ffffff;fill-opacity:1;fill-rule:evenodd;stroke:#000000;stroke-width:2.24536370999999990;stroke-linecap:butt;stroke-linejoin:miter;stroke-miterlimit:4;stroke-opacity:1;stroke-dasharray:none"
         id="path2399"
         sodipodi:cx="129.375"
         sodipodi:cy="-39.375"
         sodipodi:rx="22.5"
         sodipodi:ry="16.875"
         d="m 151.875,-39.375 c 0,9.319805 -10.07359,16.875 -22.5,16.875 -12.42641,0 -22.5,-7.555195 -22.5,-16.875 0,-9.319805 10.07359,-16.875 22.5,-16.875 12.42641,0 22.5,7.555195 22.5,16.875 z"
         transform="matrix(0,-0.2361111,0.3281482,0,485.06081,409.12901)" />
    </g>
    <g
       id="g3880"
       transform="translate(147.08692,167.67908)">
      <rect
         y="-116.12856"
         x="-306.14142"
         height="328.32498"
         width="392.22498"
         id="rect3484-7"
         style="fill:none;fill-opacity:0.32026146000000000;fill-rule:evenodd;stroke:#0000ff;stroke-width:0.62499994000000003;stroke-linecap:butt;stroke-linejoin:miter;stroke-miterlimit:4;stroke-opacity:1;stroke-dasharray:none" />
      <path
         transform="matrix(0.25113679,0,0,0.33484905,-324.31227,210.74609)"
         d="m 151.875,-39.375 c 0,9.319805 -10.07359,16.875 -22.5,16.875 -12.42641,0 -22.5,-7.555195 -22.5,-16.875 0,-9.319805 10.07359,-16.875 22.5,-16.875 12.42641,0 22.5,7.555195 22.5,16.875 z"
         sodipodi:ry="16.875"
         sodipodi:rx="22.5"
         sodipodi:cy="-39.375"
         sodipodi:cx="129.375"
         id="path3486"
         style="fill:#ffffff;fill-opacity:1;fill-rule:evenodd;stroke:#000000;stroke-width:2.30645776;stroke-linecap:butt;stroke-linejoin:miter;stroke-miterlimit:4;stroke-opacity:1;stroke-dasharray:none"
         sodipodi:type="arc" />
      <path
         sodipodi:type="arc"
         style="fill:#ffffff;fill-opacity:1;fill-rule:evenodd;stroke:#000000;stroke-width:2.30645776;stroke-linecap:butt;stroke-linejoin:miter;stroke-miterlimit:4;stroke-opacity:1;stroke-dasharray:none"
         id="path3488"
         sodipodi:cx="129.375"
         sodipodi:cy="-39.375"
         sodipodi:rx="22.5"
         sodipodi:ry="16.875"
         d="m 151.875,-39.375 c 0,9.319805 -10.07359,16.875 -22.5,16.875 -12.42641,0 -22.5,-7.555195 -22.5,-16.875 0,-9.319805 10.07359,-16.875 22.5,-16.875 12.42641,0 22.5,7.555195 22.5,16.875 z"
         transform="matrix(0.24109646,0,0,0.33523797,40.804218,210.7614)" />
      <path
         sodipodi:type="arc"
         style="fill:#ffffff;fill-opacity:1;fill-rule:evenodd;stroke:#000000;stroke-width:2.30645776;stroke-linecap:butt;stroke-linejoin:miter;stroke-miterlimit:4;stroke-opacity:1;stroke-dasharray:none"
         id="path3490"
         sodipodi:cx="129.375"
         sodipodi:cy="-39.375"
         sodipodi:rx="22.5"
         sodipodi:ry="16.875"
         d="m 151.875,-39.375 c 0,9.319805 -10.07359,16.875 -22.5,16.875 -12.42641,0 -22.5,-7.555195 -22.5,-16.875 0,-9.319805 10.07359,-16.875 22.5,-16.875 12.42641,0 22.5,7.555195 22.5,16.875 z"
         transform="matrix(0.25113679,0,0,0.33484905,-324.31227,-89.403881)" />
      <path
         transform="matrix(0.25113679,0,0,0.33484905,39.737718,-89.403881)"
         d="m 151.875,-39.375 c 0,9.319805 -10.07359,16.875 -22.5,16.875 -12.42641,0 -22.5,-7.555195 -22.5,-16.875 0,-9.319805 10.07359,-16.875 22.5,-16.875 12.42641,0 22.5,7.555195 22.5,16.875 z"
         sodipodi:ry="16.875"
         sodipodi:rx="22.5"
         sodipodi:cy="-39.375"
         sodipodi:cx="129.375"
         id="path3492-4"
         style="fill:#ffffff;fill-opacity:1;fill-rule:evenodd;stroke:#000000;stroke-width:2.30645776;stroke-linecap:butt;stroke-linejoin:miter;stroke-miterlimit:4;stroke-opacity:1;stroke-dasharray:none"
         sodipodi:type="arc" />
      <rect
         y="-53.128563"
         x="-172.94142"
         height="113.4"
         width="113.4"
         id="rect3878"
         style="opacity:0.46774196000000001;color:#000000;fill:none;fill-opacity:1;fill-rule:nonzero;stroke:#0000ff;stroke-width:1.25000000000000000;stroke-linecap:butt;stroke-linejoin:miter;stroke-miterlimit:4;stroke-opacity:1;stroke-dasharray:none;stroke-dashoffset:0;marker:none;visibility:visible;display:inline;overflow:visible;enable-background:accumulate" />
    </g>
  </g>
</svg>
