<?xml version="1.0" encoding="UTF-8" standalone="no"?>
<!-- Created with Inkscape (http://www.inkscape.org/) -->
<svg
   xmlns:dc="http://purl.org/dc/elements/1.1/"
   xmlns:cc="http://creativecommons.org/ns#"
   xmlns:rdf="http://www.w3.org/1999/02/22-rdf-syntax-ns#"
   xmlns:svg="http://www.w3.org/2000/svg"
   xmlns="http://www.w3.org/2000/svg"
   xmlns:sodipodi="http://sodipodi.sourceforge.net/DTD/sodipodi-0.dtd"
   xmlns:inkscape="http://www.inkscape.org/namespaces/inkscape"
   width="2160"
   height="1080"
   id="svg2"
   sodipodi:version="0.32"
   inkscape:version="0.46"
   version="1.0"
   sodipodi:docname="lunar-dist.svg"
   inkscape:output_extension="org.inkscape.output.svg.inkscape">
  <defs
     id="defs4">
    <inkscape:perspective
       sodipodi:type="inkscape:persp3d"
       inkscape:vp_x="0 : 382.5 : 1"
       inkscape:vp_y="0 : 1000 : 0"
       inkscape:vp_z="990 : 382.5 : 1"
       inkscape:persp3d-origin="495 : 255 : 1"
       id="perspective56" />
    <inkscape:perspective
       id="perspective2603"
       inkscape:persp3d-origin="495 : 255 : 1"
       inkscape:vp_z="990 : 382.5 : 1"
       inkscape:vp_y="0 : 1000 : 0"
       inkscape:vp_x="0 : 382.5 : 1"
       sodipodi:type="inkscape:persp3d" />
  </defs>
  <sodipodi:namedview
     id="base"
     pagecolor="#ffffff"
     bordercolor="#666666"
     borderopacity="1.0"
     gridtolerance="10000"
     guidetolerance="10"
     objecttolerance="10"
     inkscape:pageopacity="0.0"
     inkscape:pageshadow="2"
     inkscape:zoom="1.0208754"
     inkscape:cx="245.01013"
     inkscape:cy="662.92353"
     inkscape:document-units="in"
     inkscape:current-layer="g2466"
     showgrid="true"
     units="in"
     inkscape:window-width="1539"
     inkscape:window-height="988"
     inkscape:window-x="317"
     inkscape:window-y="122"
     inkscape:snap-intersection-grid-guide="false"
     inkscape:snap-bbox="false"
     inkscape:snap-nodes="true"
     inkscape:snap-global="true"
     showguides="true"
     inkscape:guide-bbox="true"
     inkscape:object-nodes="true"
     inkscape:object-paths="false">
    <inkscape:grid
       type="xygrid"
       id="grid2509"
       visible="true"
       enabled="false"
       units="in"
       spacingx="0.0625in"
       spacingy="0.0625in"
       empspacing="16" />
  </sodipodi:namedview>
  <metadata
     id="metadata7">
    <rdf:RDF>
      <cc:Work
         rdf:about="">
        <dc:format>image/svg+xml</dc:format>
        <dc:type
           rdf:resource="http://purl.org/dc/dcmitype/StillImage" />
      </cc:Work>
    </rdf:RDF>
  </metadata>
  <g
     inkscape:label="Layer 1"
     inkscape:groupmode="layer"
     id="layer1">
    <flowRoot
       xml:space="preserve"
       id="flowRoot3394"
       style="font-size:12px;font-style:normal;font-weight:normal;text-align:center;text-anchor:middle;fill:#000000;fill-opacity:1;stroke:none;stroke-width:1px;stroke-linecap:butt;stroke-linejoin:miter;stroke-opacity:1;font-family:Bitstream Vera Sans"
       transform="matrix(4.1250743,0,0,4.1250743,-470.62806,-3859.4051)"><flowRegion
         id="flowRegion3396"><rect
           id="rect3398"
           width="385.25931"
           height="122.26792"
           x="136.10957"
           y="1248.4067" /></flowRegion><flowPara
         id="flowPara3400" /></flowRoot>    <rect
       style="fill:none;fill-rule:evenodd;stroke:#0000ff;stroke-width:0.625;stroke-linecap:butt;stroke-linejoin:miter;stroke-miterlimit:4;stroke-dasharray:none;stroke-opacity:1"
       id="rect2566"
       width="696.875"
       height="741.875"
       x="22.8125"
       y="22.8125"
       ry="11.25"
       rx="11.250002" />
    <flowRoot
       xml:space="preserve"
       id="flowRoot2607"
       style="font-size:12px;font-style:normal;font-weight:normal;text-align:center;text-anchor:middle;fill:#000000;fill-opacity:1;stroke:none;stroke-width:1px;stroke-linecap:butt;stroke-linejoin:miter;stroke-opacity:1;font-family:Bitstream Vera Sans"
       transform="matrix(4.1250743,0,0,4.1250743,520.61323,-3861.9346)"><flowRegion
         id="flowRegion2609"><rect
           id="rect2611"
           width="385.25931"
           height="122.26792"
           x="136.10957"
           y="1248.4067" /></flowRegion><flowPara
         id="flowPara2613" /></flowRoot>    <rect
       y="94.770317"
       x="89.998451"
       height="255.9375"
       width="562.50311"
       id="rect3424"
       style="fill:#1cbf00;fill-opacity:0.36274509999999999;fill-rule:evenodd;stroke:#ff00ff;stroke-width:0.62499994000000003;stroke-linecap:butt;stroke-linejoin:miter;stroke-miterlimit:4;stroke-dasharray:none;stroke-opacity:1" />
    <path
       transform="matrix(0.2461111,0,0,0.3281482,71.171881,350.52612)"
       d="M 151.875,-39.375 A 22.5,16.875 0 1 1 106.875,-39.375 A 22.5,16.875 0 1 1 151.875,-39.375 z"
       sodipodi:ry="16.875"
       sodipodi:rx="22.5"
       sodipodi:cy="-39.375"
       sodipodi:cx="129.375"
       id="path3426"
       style="fill:#ffffff;fill-opacity:1;fill-rule:evenodd;stroke:#000000;stroke-width:2.19927406;stroke-linecap:butt;stroke-linejoin:miter;stroke-miterlimit:4;stroke-dasharray:none;stroke-opacity:1"
       sodipodi:type="arc" />
    <path
       sodipodi:type="arc"
       style="fill:#ffffff;fill-opacity:1;fill-rule:evenodd;stroke:#000000;stroke-width:2.19927406;stroke-linecap:butt;stroke-linejoin:miter;stroke-miterlimit:4;stroke-dasharray:none;stroke-opacity:1"
       id="path3428"
       sodipodi:cx="129.375"
       sodipodi:cy="-39.375"
       sodipodi:rx="22.5"
       sodipodi:ry="16.875"
       d="M 151.875,-39.375 A 22.5,16.875 0 1 1 106.875,-39.375 A 22.5,16.875 0 1 1 151.875,-39.375 z"
       transform="matrix(0.2461111,0,0,0.3281482,607.75332,350.52612)" />
    <path
       sodipodi:type="arc"
       style="fill:#ffffff;fill-opacity:1;fill-rule:evenodd;stroke:#000000;stroke-width:2.19927406;stroke-linecap:butt;stroke-linejoin:miter;stroke-miterlimit:4;stroke-dasharray:none;stroke-opacity:1"
       id="path3430"
       sodipodi:cx="129.375"
       sodipodi:cy="-39.375"
       sodipodi:rx="22.5"
       sodipodi:ry="16.875"
       d="M 151.875,-39.375 A 22.5,16.875 0 1 1 106.875,-39.375 A 22.5,16.875 0 1 1 151.875,-39.375 z"
       transform="matrix(0.2461111,0,0,0.3281482,70.262795,120.84472)" />
    <path
       transform="matrix(0.2461111,0,0,0.3281482,609.71242,118.9891)"
       d="M 151.875,-39.375 A 22.5,16.875 0 1 1 106.875,-39.375 A 22.5,16.875 0 1 1 151.875,-39.375 z"
       sodipodi:ry="16.875"
       sodipodi:rx="22.5"
       sodipodi:cy="-39.375"
       sodipodi:cx="129.375"
       id="path3432"
       style="fill:#ffffff;fill-opacity:1;fill-rule:evenodd;stroke:#000000;stroke-width:2.19927406;stroke-linecap:butt;stroke-linejoin:miter;stroke-miterlimit:4;stroke-dasharray:none;stroke-opacity:1"
       sodipodi:type="arc" />
    <rect
       style="fill:#1cbf00;fill-opacity:0.32026146;fill-rule:evenodd;stroke:#ff00ff;stroke-width:0.62499988;stroke-linecap:butt;stroke-linejoin:miter;stroke-miterlimit:4;stroke-dasharray:none;stroke-opacity:1"
       id="rect3484"
       width="354.42499"
       height="283.32498"
       x="90.717499"
       y="363.95465" />
    <path
       sodipodi:type="arc"
       style="fill:#ffffff;fill-opacity:1;fill-rule:evenodd;stroke:#000000;stroke-width:2.19927382;stroke-linecap:butt;stroke-linejoin:miter;stroke-miterlimit:4;stroke-dasharray:none;stroke-opacity:1"
       id="path3492"
       sodipodi:cx="129.375"
       sodipodi:cy="-39.375"
       sodipodi:rx="22.5"
       sodipodi:ry="16.875"
       d="M 151.875,-39.375 A 22.5,16.875 0 1 1 106.875,-39.375 A 22.5,16.875 0 1 1 151.875,-39.375 z"
       transform="matrix(0.2461111,0,0,0.3281482,87.814364,635.31299)" />
    <path
       transform="matrix(0.2461111,0,0,0.3281482,87.814362,401.31302)"
       d="M 151.875,-39.375 A 22.5,16.875 0 1 1 106.875,-39.375 A 22.5,16.875 0 1 1 151.875,-39.375 z"
       sodipodi:ry="16.875"
       sodipodi:rx="22.5"
       sodipodi:cy="-39.375"
       sodipodi:cx="129.375"
       id="path2618"
       style="fill:#ffffff;fill-opacity:1;fill-rule:evenodd;stroke:#000000;stroke-width:2.19927382;stroke-linecap:butt;stroke-linejoin:miter;stroke-miterlimit:4;stroke-dasharray:none;stroke-opacity:1"
       sodipodi:type="arc" />
    <path
       transform="matrix(0.2461111,0,0,0.3281482,384.81437,635.31299)"
       d="M 151.875,-39.375 A 22.5,16.875 0 1 1 106.875,-39.375 A 22.5,16.875 0 1 1 151.875,-39.375 z"
       sodipodi:ry="16.875"
       sodipodi:rx="22.5"
       sodipodi:cy="-39.375"
       sodipodi:cx="129.375"
       id="path2620"
       style="fill:#ffffff;fill-opacity:1;fill-rule:evenodd;stroke:#000000;stroke-width:2.19927382;stroke-linecap:butt;stroke-linejoin:miter;stroke-miterlimit:4;stroke-dasharray:none;stroke-opacity:1"
       sodipodi:type="arc" />
    <path
       sodipodi:type="arc"
       style="fill:#ffffff;fill-opacity:1;fill-rule:evenodd;stroke:#000000;stroke-width:2.19927382;stroke-linecap:butt;stroke-linejoin:miter;stroke-miterlimit:4;stroke-dasharray:none;stroke-opacity:1"
       id="path2622"
       sodipodi:cx="129.375"
       sodipodi:cy="-39.375"
       sodipodi:rx="22.5"
       sodipodi:ry="16.875"
       d="M 151.875,-39.375 A 22.5,16.875 0 1 1 106.875,-39.375 A 22.5,16.875 0 1 1 151.875,-39.375 z"
       transform="matrix(0.2461111,0,0,0.3281482,384.81437,401.31302)" />
    <text
       transform="scale(1.0000027,0.9999973)"
       xml:space="preserve"
       style="font-size:12.00003338px;font-style:normal;font-weight:normal;text-align:center;text-anchor:middle;fill:#ff0000;fill-opacity:1;stroke:none;stroke-width:1px;stroke-linecap:butt;stroke-linejoin:miter;stroke-opacity:1;font-family:Bitstream Vera Sans"
       x="342.65601"
       y="488.05096"
       id="text3552"><tspan
         id="tspan3556"
         sodipodi:role="line"
         x="342.65601"
         y="488.05096"
         style="fill:#ff00ff;fill-opacity:1">HPAM 0 (custom)</tspan></text>
    <text
       id="text3094"
       y="512.83905"
       x="539.35101"
       style="font-size:12.00003337999999964px;font-style:normal;font-weight:normal;text-align:center;text-anchor:middle;fill:#ff00ff;fill-opacity:1;stroke:none;stroke-width:1px;stroke-linecap:butt;stroke-linejoin:miter;stroke-opacity:1;font-family:Bitstream Vera Sans"
       xml:space="preserve"
       transform="scale(1.0000027,0.9999973)"><tspan
         y="512.83905"
         x="539.35101"
         sodipodi:role="line"
         id="tspan3096">HPAM 1 (T1SP)</tspan></text>
    <rect
       style="fill:#1cbf00;fill-opacity:0.32026146000000000;fill-rule:evenodd;stroke:#ff00ff;stroke-width:0.62499994000000003;stroke-linecap:butt;stroke-linejoin:miter;stroke-miterlimit:4;stroke-dasharray:none;stroke-opacity:1"
       id="rect2615"
       width="328.77502"
       height="194.765"
       x="-692.72968"
       y="457.01749"
       transform="matrix(0,-1,1,0,0,0)" />
    <path
       sodipodi:type="arc"
       style="fill:#ffffff;fill-opacity:1;fill-rule:evenodd;stroke:#000000;stroke-width:2.24536371;stroke-linecap:butt;stroke-linejoin:miter;stroke-miterlimit:4;stroke-dasharray:none;stroke-opacity:1"
       id="path2621"
       sodipodi:cx="129.375"
       sodipodi:cy="-39.375"
       sodipodi:rx="22.5"
       sodipodi:ry="16.875"
       d="M 151.875,-39.375 A 22.5,16.875 0 1 1 106.875,-39.375 A 22.5,16.875 0 1 1 151.875,-39.375 z"
       transform="matrix(0,-0.2461111,0.3148148,0,649.28078,709.71776)" />
    <path
       transform="matrix(0,-0.2361111,0.3281482,0,485.06081,708.64901)"
       d="M 151.875,-39.375 A 22.5,16.875 0 1 1 106.875,-39.375 A 22.5,16.875 0 1 1 151.875,-39.375 z"
       sodipodi:ry="16.875"
       sodipodi:rx="22.5"
       sodipodi:cy="-39.375"
       sodipodi:cx="129.375"
       id="path2395"
       style="fill:#ffffff;fill-opacity:1;fill-rule:evenodd;stroke:#000000;stroke-width:2.24536371;stroke-linecap:butt;stroke-linejoin:miter;stroke-miterlimit:4;stroke-dasharray:none;stroke-opacity:1"
       sodipodi:type="arc" />
    <path
       transform="matrix(0,-0.2461111,0.3281482,0,650.03078,410.19776)"
       d="M 151.875,-39.375 A 22.5,16.875 0 1 1 106.875,-39.375 A 22.5,16.875 0 1 1 151.875,-39.375 z"
       sodipodi:ry="16.875"
       sodipodi:rx="22.5"
       sodipodi:cy="-39.375"
       sodipodi:cx="129.375"
       id="path2397"
       style="fill:#ffffff;fill-opacity:1;fill-rule:evenodd;stroke:#000000;stroke-width:2.19927382;stroke-linecap:butt;stroke-linejoin:miter;stroke-miterlimit:4;stroke-dasharray:none;stroke-opacity:1"
       sodipodi:type="arc" />
    <path
       sodipodi:type="arc"
       style="fill:#ffffff;fill-opacity:1;fill-rule:evenodd;stroke:#000000;stroke-width:2.24536371;stroke-linecap:butt;stroke-linejoin:miter;stroke-miterlimit:4;stroke-dasharray:none;stroke-opacity:1"
       id="path2399"
       sodipodi:cx="129.375"
       sodipodi:cy="-39.375"
       sodipodi:rx="22.5"
       sodipodi:ry="16.875"
       d="M 151.875,-39.375 A 22.5,16.875 0 1 1 106.875,-39.375 A 22.5,16.875 0 1 1 151.875,-39.375 z"
       transform="matrix(0,-0.2361111,0.3281482,0,485.06081,409.12901)" />
    <g
       id="g2466"
       transform="translate(14.320698,0)">
      <rect
         y="185.9825"
         x="239.2934"
         height="66.875"
         width="404.37503"
         id="rect2500"
         style="fill:#1cbf00;fill-opacity:0.3627451;fill-rule:evenodd;stroke:#ff00ff;stroke-width:0.62499994;stroke-linecap:butt;stroke-linejoin:miter;marker:none;marker-start:none;marker-mid:none;marker-end:none;stroke-miterlimit:4;stroke-dasharray:none;stroke-dashoffset:0;stroke-opacity:1;visibility:visible;display:inline;overflow:visible;enable-background:accumulate" />
      <path
         transform="matrix(0.840294,0,0,0.7282245,-365.05556,160.63174)"
         d="M 752.29549,80.367744 A 6.3670845,7.3466358 0 1 1 739.56132,80.367744 A 6.3670845,7.3466358 0 1 1 752.29549,80.367744 z"
         sodipodi:ry="7.3466358"
         sodipodi:rx="6.3670845"
         sodipodi:cy="80.367744"
         sodipodi:cx="745.92841"
         id="path2514"
         style="fill:#ffffff;fill-opacity:1;fill-rule:evenodd;stroke:#000000;stroke-width:0.79897213;stroke-linecap:butt;stroke-linejoin:miter;marker:none;marker-start:none;marker-mid:none;marker-end:none;stroke-miterlimit:4;stroke-dasharray:none;stroke-dashoffset:0;stroke-opacity:1;visibility:visible;display:inline;overflow:visible;enable-background:accumulate"
         sodipodi:type="arc" />
      <path
         transform="matrix(0.840294,0,0,0.7282245,-5.0555649,160.58675)"
         style="fill:#ffffff;fill-opacity:1;fill-rule:evenodd;stroke:#000000;stroke-width:0.79897213;stroke-linecap:butt;stroke-linejoin:miter;stroke-miterlimit:4;stroke-dashoffset:0;stroke-opacity:1;marker:none;marker-start:none;marker-mid:none;marker-end:none;visibility:visible;display:inline;overflow:visible;enable-background:accumulate"
         d="M 752.29549,80.367744 C 752.29549,84.423087 749.44304,87.71438 745.92841,87.71438 C 742.41378,87.71438 739.56132,84.423087 739.56132,80.367744 C 739.56132,76.312401 742.41378,73.021109 745.92841,73.021109 C 749.44304,73.021109 752.29549,76.312401 752.29549,80.367744 z"
         id="path2516" />
    </g>
    <g
       id="g3344"
       transform="translate(-606.3512,343.34491)">
      <rect
         y="309.84259"
         x="728.53119"
         height="66.5"
         width="291.5"
         id="rect2534"
         style="opacity:1;fill:#1cbf00;fill-opacity:0.3627451;fill-rule:evenodd;stroke:#ff00ff;stroke-width:0.62499994;stroke-linecap:butt;stroke-linejoin:miter;marker:none;marker-start:none;marker-mid:none;marker-end:none;stroke-miterlimit:4;stroke-dasharray:none;stroke-dashoffset:0;stroke-opacity:1;visibility:visible;display:inline;overflow:visible;enable-background:accumulate" />
      <path
         id="text2536"
         d="M 816.30267,334.56134 L 816.30267,317.40509 L 819.09174,317.40509 L 819.09174,323.73322 L 827.52924,323.73322 L 827.52924,317.40509 L 830.3183,317.40509 L 830.3183,334.56134 L 827.52924,334.56134 L 827.52924,326.22931 L 819.09174,326.22931 L 819.09174,334.56134 L 816.30267,334.56134 M 833.8222,318.64728 C 833.8222,318.21761 833.97845,317.84651 834.29095,317.534 C 834.61126,317.22151 834.99017,317.06526 835.42767,317.06525 C 835.88079,317.06526 836.25579,317.21761 836.55267,317.52228 C 836.85736,317.81917 837.0097,318.19417 837.0097,318.64728 C 837.0097,319.10042 836.85736,319.48323 836.55267,319.79572 C 836.24798,320.10042 835.87298,320.25276 835.42767,320.25275 C 834.99017,320.25276 834.61126,320.09651 834.29095,319.784 C 833.97845,319.4637 833.8222,319.08479 833.8222,318.64728 M 834.16205,334.56134 L 834.16205,323.45197 L 836.70502,323.45197 L 836.70502,334.56134 L 834.16205,334.56134 M 848.30658,328.9715 C 848.30657,327.82307 848.03704,326.92854 847.49799,326.2879 C 846.96673,325.64729 846.22063,325.32697 845.2597,325.32697 C 844.29876,325.32697 843.54095,325.65901 842.98627,326.32306 C 842.43939,326.97932 842.16595,327.89338 842.16595,329.06525 C 842.16595,330.24494 842.43158,331.15509 842.96283,331.79572 C 843.49407,332.43634 844.24407,332.75665 845.21283,332.75665 C 846.12688,332.75665 846.86907,332.409 847.43939,331.71368 C 848.01751,331.01838 848.30657,330.10431 848.30658,328.9715 M 850.77924,333.86993 C 850.77922,336.04181 850.34563,337.56915 849.47845,338.45197 C 848.61126,339.34259 847.15032,339.7879 845.09564,339.7879 C 843.56439,339.7879 842.34173,339.46368 841.42767,338.81525 C 840.51361,338.17462 840.04877,337.31915 840.03314,336.24884 L 842.76361,336.23712 C 842.80267,336.71368 843.02533,337.07696 843.43158,337.32697 C 843.83782,337.57696 844.40814,337.70196 845.14252,337.70197 C 846.22845,337.70196 847.0097,337.46368 847.48627,336.98712 C 847.96282,336.51056 848.20501,335.71368 848.21283,334.5965 L 848.23627,333.11993 C 847.78313,333.76056 847.25188,334.23712 846.64252,334.54962 C 846.04095,334.86212 845.34954,335.01837 844.5683,335.01837 C 842.99798,335.01837 841.7597,334.48322 840.85345,333.4129 C 839.95502,332.33478 839.5058,330.86213 839.5058,328.99493 C 839.5058,327.2215 839.96673,325.79182 840.88861,324.70587 C 841.81048,323.61213 843.01361,323.06526 844.49799,323.06525 C 845.40423,323.06526 846.17767,323.25666 846.8183,323.63947 C 847.46673,324.01448 847.93938,324.55744 848.23627,325.26837 L 848.23627,323.45197 L 850.77924,323.45197 L 850.77924,333.86993 M 854.29486,334.56134 L 854.29486,316.39728 L 856.68549,316.39728 L 856.68549,325.26837 C 857.19329,324.50276 857.79095,323.94416 858.47845,323.59259 C 859.16595,323.24104 860.00188,323.06526 860.98627,323.06525 C 861.81438,323.06526 862.51751,323.19807 863.09564,323.46368 C 863.68157,323.72151 864.1386,324.10823 864.46674,324.62384 C 864.66204,324.92854 864.80266,325.28401 864.88861,325.69025 C 864.97454,326.09651 865.0175,326.80744 865.01752,327.82306 L 865.01752,334.56134 L 862.45111,334.56134 L 862.45111,328.85431 C 862.4511,327.39338 862.27141,326.42463 861.91205,325.94806 C 861.56048,325.46369 860.93157,325.22151 860.02533,325.2215 C 859.43157,325.22151 858.90032,325.33088 858.43158,325.54962 C 857.97064,325.76838 857.60736,326.07697 857.34174,326.4754 C 857.15423,326.74104 857.02142,327.08479 856.9433,327.50665 C 856.87298,327.92072 856.83783,328.58478 856.83783,329.49884 L 856.83783,334.56134 L 854.29486,334.56134 M 878.66986,324.57697 L 879.3847,324.57697 C 880.93157,324.57698 881.96282,324.40901 882.47845,324.07306 C 882.99407,323.73713 883.25188,323.14338 883.25189,322.29181 C 883.25188,321.37776 882.97454,320.73323 882.41986,320.35822 C 881.87298,319.98323 880.86126,319.79573 879.3847,319.79572 L 878.66986,319.79572 L 878.66986,324.57697 M 878.49408,326.86212 L 878.49408,334.56134 L 875.8808,334.56134 L 875.8808,317.40509 L 880.09955,317.40509 C 881.34954,317.40511 882.26751,317.47542 882.85345,317.61603 C 883.4472,317.74886 883.96282,317.97151 884.40033,318.284 C 884.93938,318.68245 885.36126,319.22151 885.66595,319.90118 C 885.97063,320.57307 886.12297,321.31526 886.12299,322.12775 C 886.12297,322.94026 885.97063,323.69026 885.66595,324.37775 C 885.36126,325.06526 884.93938,325.60432 884.40033,325.99493 C 883.96282,326.30744 883.4472,326.5301 882.85345,326.6629 C 882.26751,326.79572 881.34954,326.86213 880.09955,326.86212 L 879.54877,326.86212 L 878.49408,326.86212 M 896.35345,329.04181 C 896.35344,328.01057 896.02141,327.13947 895.35736,326.42853 C 894.69329,325.70979 893.88079,325.35041 892.91986,325.3504 C 891.96673,325.35041 891.15423,325.70979 890.48236,326.42853 C 889.81829,327.13947 889.48626,328.01057 889.48627,329.04181 C 889.48626,330.07306 889.81829,330.94806 890.48236,331.66681 C 891.15423,332.37775 891.96673,332.73322 892.91986,332.73322 C 893.87298,332.73322 894.68157,332.37775 895.34564,331.66681 C 896.01751,330.94806 896.35344,330.07306 896.35345,329.04181 M 886.80267,329.01837 C 886.80267,328.20588 886.95502,327.44025 887.2597,326.7215 C 887.5722,325.99494 888.01751,325.35041 888.59564,324.7879 C 889.16595,324.23323 889.8222,323.80744 890.56439,323.51056 C 891.30657,323.2137 892.08392,323.06526 892.89642,323.06525 C 893.73235,323.06526 894.51751,323.2137 895.25189,323.51056 C 895.99407,323.80744 896.65813,324.24494 897.24408,324.82306 C 897.83001,325.39338 898.27532,326.03791 898.58002,326.75665 C 898.88469,327.47541 899.03704,328.22932 899.03705,329.01837 C 899.03704,329.83869 898.88469,330.60822 898.58002,331.32697 C 898.28313,332.04572 897.84563,332.68244 897.26752,333.23712 C 896.65813,333.82306 895.98235,334.26447 895.24017,334.56134 C 894.49798,334.86603 893.71673,335.01837 892.89642,335.01837 C 892.09173,335.01837 891.31829,334.86603 890.57611,334.56134 C 889.83392,334.26447 889.17376,333.83087 888.59564,333.26056 C 888.0097,332.68244 887.56439,332.034 887.2597,331.31525 C 886.95502,330.5965 886.80267,329.83088 886.80267,329.01837 M 912.36127,335.22931 L 909.79486,329.45197 C 909.59954,329.00666 909.43938,328.61213 909.31439,328.26837 C 909.18938,327.91682 909.0761,327.57307 908.97455,327.23712 C 908.80266,327.74494 908.65032,328.18244 908.51752,328.54962 C 908.3847,328.909 908.27923,329.17853 908.20111,329.35822 L 905.56439,335.22931 L 899.81049,323.45197 L 902.51752,323.45197 L 905.01361,328.80743 C 905.11517,329.034 905.21282,329.3465 905.30658,329.74493 C 905.40814,330.13556 905.49407,330.56916 905.56439,331.04572 C 905.5722,330.76447 905.61907,330.4715 905.70502,330.16681 C 905.79095,329.86213 905.93548,329.48713 906.13861,329.04181 L 908.85736,323.04181 L 909.0683,323.04181 L 911.83392,329.04181 C 912.00579,329.41681 912.13079,329.76447 912.20892,330.08478 C 912.29485,330.40509 912.34563,330.72541 912.36127,331.04572 C 912.43157,330.62384 912.52141,330.22541 912.6308,329.8504 C 912.74016,329.47541 912.86516,329.13556 913.0058,328.83087 L 915.45502,323.45197 L 918.13861,323.45197 L 912.36127,335.22931 M 930.43158,329.38165 L 921.54877,329.38165 C 921.61126,330.42072 921.91986,331.23322 922.47455,331.81915 C 923.02923,332.39728 923.76751,332.68634 924.68939,332.68634 C 925.5097,332.68634 926.19329,332.51447 926.74017,332.17072 C 927.28704,331.82697 927.7636,331.27228 928.16986,330.50665 L 930.31439,331.70197 C 929.68938,332.81915 928.91594,333.65118 927.99408,334.19806 C 927.0722,334.74493 925.99017,335.01837 924.74799,335.01837 C 922.96673,335.01837 921.54876,334.4754 920.49408,333.38947 C 919.43939,332.30353 918.91205,330.85431 918.91205,329.04181 C 918.91205,327.29963 919.45502,325.86994 920.54095,324.75275 C 921.6347,323.62776 923.03704,323.06526 924.74799,323.06525 C 926.53704,323.06526 927.93157,323.57698 928.93158,324.6004 C 929.93157,325.62385 930.43157,327.05744 930.43158,328.90118 L 930.43158,329.38165 M 927.79486,327.67072 C 927.69329,326.87385 927.3886,326.26838 926.8808,325.85431 C 926.37298,325.43244 925.67767,325.22151 924.79486,325.2215 C 923.95892,325.22151 923.28704,325.42463 922.77924,325.83087 C 922.27142,326.23713 921.91595,326.85041 921.71283,327.67072 L 927.79486,327.67072 M 935.6347,325.2215 C 935.90814,324.48713 936.26751,323.94416 936.71283,323.59259 C 937.16595,323.24104 937.72454,323.06526 938.38861,323.06525 C 938.74798,323.06526 939.09954,323.10823 939.4433,323.19415 C 939.79485,323.2801 940.1386,323.4051 940.47455,323.56915 L 939.56049,325.7254 C 939.34173,325.56916 939.10345,325.45588 938.84564,325.38556 C 938.59563,325.30744 938.31439,325.26838 938.00189,325.26837 C 937.15814,325.26838 936.55267,325.60822 936.18549,326.2879 C 935.81829,326.95979 935.6347,328.0926 935.6347,329.68634 L 935.6347,334.56134 L 933.09174,334.56134 L 933.09174,323.42853 L 935.6347,323.42853 L 935.6347,325.2215 M 782.77533,357.82306 L 787.55658,357.82306 L 785.79877,353.909 C 785.6972,353.65901 785.59173,353.37385 785.48236,353.05353 C 785.37298,352.72541 785.2636,352.36213 785.15424,351.96368 C 785.06048,352.3387 784.95892,352.69026 784.84955,353.01837 C 784.74798,353.3387 784.64251,353.63557 784.53314,353.909 L 782.77533,357.82306 M 790.48627,364.56134 L 788.54095,360.14337 L 781.74408,360.14337 L 779.75189,364.56134 L 776.8222,364.56134 L 785.1308,346.7254 L 793.42767,364.56134 L 790.48627,364.56134 M 797.29486,353.45197 L 797.29486,359.70978 C 797.29486,360.78791 797.51751,361.56134 797.96283,362.03009 C 798.40814,362.49884 799.13079,362.73322 800.1308,362.73322 C 801.13079,362.73322 801.85345,362.49884 802.29877,362.03009 C 802.74407,361.56134 802.96673,360.78791 802.96674,359.70978 L 802.96674,353.45197 L 805.5097,353.45197 L 805.5097,358.94806 C 805.50969,361.07306 805.08391,362.61603 804.23236,363.57697 C 803.38079,364.5379 802.02141,365.01837 800.15424,365.01837 C 798.25579,365.01837 796.88079,364.54181 796.02924,363.58868 C 795.17767,362.63556 794.75189,361.08869 794.75189,358.94806 L 794.75189,353.45197 L 797.29486,353.45197 M 809.70502,364.56134 L 806.89252,364.56134 L 811.09955,358.58478 L 807.50189,353.45197 L 810.30267,353.45197 L 811.86127,355.74884 C 812.02532,355.98322 812.16986,356.20979 812.29486,356.42853 C 812.41986,356.64729 812.53314,356.86994 812.6347,357.0965 C 812.72845,356.909 812.83392,356.71369 812.95111,356.51056 C 813.0761,356.29963 813.23235,356.03791 813.41986,355.7254 L 814.96674,353.45197 L 817.74408,353.45197 L 814.14642,358.60822 L 818.3183,364.56134 L 815.54095,364.56134 L 813.47845,361.64337 L 813.3847,361.50275 C 812.98626,360.90119 812.72845,360.44025 812.61127,360.11993 C 812.45501,360.41681 812.30267,360.69416 812.15424,360.95197 C 812.01361,361.20197 811.86907,361.43634 811.72064,361.65509 L 809.70502,364.56134 M 819.59564,348.64728 C 819.59564,348.21761 819.75189,347.84651 820.06439,347.534 C 820.3847,347.22151 820.76361,347.06526 821.20111,347.06525 C 821.65423,347.06526 822.02923,347.21761 822.32611,347.52228 C 822.63079,347.81917 822.78314,348.19417 822.78314,348.64728 C 822.78314,349.10042 822.63079,349.48323 822.32611,349.79572 C 822.02142,350.10042 821.64642,350.25276 821.20111,350.25275 C 820.76361,350.25276 820.3847,350.09651 820.06439,349.784 C 819.75189,349.4637 819.59564,349.08479 819.59564,348.64728 M 819.93549,364.56134 L 819.93549,353.45197 L 822.47845,353.45197 L 822.47845,364.56134 L 819.93549,364.56134 M 826.21674,364.56134 L 826.21674,346.39728 L 828.7597,346.39728 L 828.7597,364.56134 L 826.21674,364.56134 M 832.49799,364.56134 L 832.49799,346.39728 L 835.04095,346.39728 L 835.04095,364.56134 L 832.49799,364.56134 M 838.43939,348.64728 C 838.43939,348.21761 838.59564,347.84651 838.90814,347.534 C 839.22845,347.22151 839.60736,347.06526 840.04486,347.06525 C 840.49798,347.06526 840.87298,347.21761 841.16986,347.52228 C 841.47454,347.81917 841.62689,348.19417 841.62689,348.64728 C 841.62689,349.10042 841.47454,349.48323 841.16986,349.79572 C 840.86517,350.10042 840.49017,350.25276 840.04486,350.25275 C 839.60736,350.25276 839.22845,350.09651 838.90814,349.784 C 838.59564,349.4637 838.43939,349.08479 838.43939,348.64728 M 838.77924,364.56134 L 838.77924,353.45197 L 841.3222,353.45197 L 841.3222,364.56134 L 838.77924,364.56134 M 855.39642,364.56134 L 852.85345,364.56134 L 852.85345,363.11993 C 852.40032,363.76056 851.86907,364.23712 851.2597,364.54962 C 850.65813,364.86212 849.96673,365.01837 849.18549,365.01837 C 847.61517,365.01837 846.37689,364.48322 845.47064,363.4129 C 844.5722,362.33478 844.12298,360.86213 844.12299,358.99493 C 844.12298,357.2215 844.58392,355.79182 845.5058,354.70587 C 846.42767,353.61213 847.63079,353.06526 849.11517,353.06525 C 850.02142,353.06526 850.79485,353.25666 851.43549,353.63947 C 852.08391,354.01448 852.55657,354.55744 852.85345,355.26837 L 852.85345,353.45197 L 855.39642,353.45197 L 855.39642,364.56134 M 852.92377,358.9715 C 852.92376,357.82307 852.65423,356.92854 852.11517,356.2879 C 851.58391,355.64729 850.83782,355.32697 849.87689,355.32697 C 848.91595,355.32697 848.15814,355.65901 847.60345,356.32306 C 847.05658,356.97932 846.78314,357.89338 846.78314,359.06525 C 846.78314,360.24494 847.04876,361.15509 847.58002,361.79572 C 848.11126,362.43634 848.86126,362.75665 849.83002,362.75665 C 850.74407,362.75665 851.48626,362.409 852.05658,361.71368 C 852.6347,361.01838 852.92376,360.10431 852.92377,358.9715 M 861.45502,355.2215 C 861.72845,354.48713 862.08782,353.94416 862.53314,353.59259 C 862.98626,353.24104 863.54485,353.06526 864.20892,353.06525 C 864.56829,353.06526 864.91985,353.10823 865.26361,353.19415 C 865.61516,353.2801 865.95891,353.4051 866.29486,353.56915 L 865.3808,355.7254 C 865.16204,355.56916 864.92376,355.45588 864.66595,355.38556 C 864.41595,355.30744 864.1347,355.26838 863.8222,355.26837 C 862.97845,355.26838 862.37298,355.60822 862.0058,356.2879 C 861.63861,356.95979 861.45501,358.0926 861.45502,359.68634 L 861.45502,364.56134 L 858.91205,364.56134 L 858.91205,353.42853 L 861.45502,353.42853 L 861.45502,355.2215 M 869.68158,369.7879 L 867.0683,369.7879 L 870.11517,363.6004 L 866.03705,353.45197 L 868.84955,353.45197 L 870.88861,359.20587 C 871.00579,359.55744 871.10736,359.91681 871.1933,360.284 C 871.28704,360.64338 871.36126,361.01056 871.41595,361.38556 C 871.51751,360.99494 871.7597,360.37384 872.14252,359.52228 L 872.20111,359.38165 L 874.9433,353.45197 L 877.6972,353.45197 L 869.68158,369.7879 M 900.53705,356.08868 C 900.50578,355.95588 900.455,355.58869 900.3847,354.98712 C 900.32219,354.48713 900.2675,354.07307 900.22064,353.74493 C 900.15031,354.13557 900.04875,354.52619 899.91595,354.91681 C 899.79094,355.30744 899.63078,355.70588 899.43549,356.11212 L 894.9472,365.25275 L 890.45892,355.92462 C 890.27142,355.54182 890.10736,355.17072 889.96674,354.81134 C 889.83392,354.45198 889.71673,354.09651 889.61517,353.74493 C 889.60736,354.10432 889.57611,354.48323 889.52142,354.88165 C 889.47454,355.27229 889.40032,355.68244 889.29877,356.11212 L 887.45892,364.56134 L 884.89252,364.56134 L 888.9472,346.67853 L 894.0097,357.50665 C 894.08782,357.67853 894.20501,357.96369 894.36127,358.36212 C 894.52532,358.76056 894.72063,359.25275 894.9472,359.83868 C 895.11126,359.3465 895.36907,358.7215 895.72064,357.96368 C 895.81438,357.76057 895.88469,357.60432 895.93158,357.49493 L 900.87689,346.67853 L 905.02533,364.56134 L 902.43549,364.56134 L 900.53705,356.08868 M 915.78314,359.04181 C 915.78313,358.01057 915.4511,357.13947 914.78705,356.42853 C 914.12298,355.70979 913.31048,355.35041 912.34955,355.3504 C 911.39642,355.35041 910.58392,355.70979 909.91205,356.42853 C 909.24798,357.13947 908.91595,358.01057 908.91595,359.04181 C 908.91595,360.07306 909.24798,360.94806 909.91205,361.66681 C 910.58392,362.37775 911.39642,362.73322 912.34955,362.73322 C 913.30267,362.73322 914.11126,362.37775 914.77533,361.66681 C 915.44719,360.94806 915.78313,360.07306 915.78314,359.04181 M 906.23236,359.01837 C 906.23236,358.20588 906.3847,357.44025 906.68939,356.7215 C 907.00189,355.99494 907.4472,355.35041 908.02533,354.7879 C 908.59564,354.23323 909.25189,353.80744 909.99408,353.51056 C 910.73626,353.2137 911.5136,353.06526 912.32611,353.06525 C 913.16204,353.06526 913.9472,353.2137 914.68158,353.51056 C 915.42376,353.80744 916.08782,354.24494 916.67377,354.82306 C 917.25969,355.39338 917.705,356.03791 918.0097,356.75665 C 918.31438,357.47541 918.46672,358.22932 918.46674,359.01837 C 918.46672,359.83869 918.31438,360.60822 918.0097,361.32697 C 917.71282,362.04572 917.27532,362.68244 916.6972,363.23712 C 916.08782,363.82306 915.41204,364.26447 914.66986,364.56134 C 913.92766,364.86603 913.14642,365.01837 912.32611,365.01837 C 911.52142,365.01837 910.74798,364.86603 910.0058,364.56134 C 909.26361,364.26447 908.60345,363.83087 908.02533,363.26056 C 907.43939,362.68244 906.99408,362.034 906.68939,361.31525 C 906.3847,360.5965 906.23236,359.83088 906.23236,359.01837 M 929.14252,358.9715 C 929.14251,357.82307 928.87298,356.92854 928.33392,356.2879 C 927.80266,355.64729 927.05657,355.32697 926.09564,355.32697 C 925.1347,355.32697 924.37689,355.65901 923.8222,356.32306 C 923.27533,356.97932 923.00189,357.89338 923.00189,359.06525 C 923.00189,360.24494 923.26751,361.15509 923.79877,361.79572 C 924.33001,362.43634 925.08001,362.75665 926.04877,362.75665 C 926.97063,362.75665 927.71673,362.4129 928.28705,361.7254 C 928.85735,361.03009 929.14251,360.11213 929.14252,358.9715 M 929.0722,346.39728 L 931.61517,346.39728 L 931.61517,364.56134 L 929.0722,364.56134 L 929.0722,363.11993 C 928.61907,363.76056 928.08782,364.23712 927.47845,364.54962 C 926.87688,364.86212 926.18548,365.01837 925.40424,365.01837 C 923.83392,365.01837 922.59564,364.48322 921.68939,363.4129 C 920.79095,362.33478 920.34173,360.86213 920.34174,358.99493 C 920.34173,357.2215 920.80267,355.79182 921.72455,354.70587 C 922.64642,353.61213 923.84954,353.06526 925.33392,353.06525 C 926.24017,353.06526 927.0136,353.25666 927.65424,353.63947 C 928.30266,354.01448 928.77532,354.55744 929.0722,355.26837 L 929.0722,346.39728 M 937.59174,353.45197 L 937.59174,359.70978 C 937.59173,360.78791 937.81439,361.56134 938.2597,362.03009 C 938.70501,362.49884 939.42767,362.73322 940.42767,362.73322 C 941.42767,362.73322 942.15032,362.49884 942.59564,362.03009 C 943.04094,361.56134 943.2636,360.78791 943.26361,359.70978 L 943.26361,353.45197 L 945.80658,353.45197 L 945.80658,358.94806 C 945.80657,361.07306 945.38079,362.61603 944.52924,363.57697 C 943.67766,364.5379 942.31829,365.01837 940.45111,365.01837 C 938.55267,365.01837 937.17767,364.54181 936.32611,363.58868 C 935.47455,362.63556 935.04877,361.08869 935.04877,358.94806 L 935.04877,353.45197 L 937.59174,353.45197 M 949.35736,364.56134 L 949.35736,346.39728 L 951.90033,346.39728 L 951.90033,364.56134 L 949.35736,364.56134 M 966.22064,359.38165 L 957.33783,359.38165 C 957.40033,360.42072 957.70892,361.23322 958.26361,361.81915 C 958.81829,362.39728 959.55657,362.68634 960.47845,362.68634 C 961.29876,362.68634 961.98235,362.51447 962.52924,362.17072 C 963.0761,361.82697 963.55266,361.27228 963.95892,360.50665 L 966.10345,361.70197 C 965.47844,362.81915 964.70501,363.65118 963.78314,364.19806 C 962.86126,364.74493 961.77923,365.01837 960.53705,365.01837 C 958.75579,365.01837 957.33783,364.4754 956.28314,363.38947 C 955.22845,362.30353 954.70111,360.85431 954.70111,359.04181 C 954.70111,357.29963 955.24408,355.86994 956.33002,354.75275 C 957.42376,353.62776 958.82611,353.06526 960.53705,353.06525 C 962.3261,353.06526 963.72063,353.57698 964.72064,354.6004 C 965.72063,355.62385 966.22063,357.05744 966.22064,358.90118 L 966.22064,359.38165 M 963.58392,357.67072 C 963.48235,356.87385 963.17766,356.26838 962.66986,355.85431 C 962.16204,355.43244 961.46673,355.22151 960.58392,355.2215 C 959.74798,355.22151 959.07611,355.42463 958.5683,355.83087 C 958.06048,356.23713 957.70501,356.85041 957.50189,357.67072 L 963.58392,357.67072 M 967.60345,362.54572 L 969.71283,361.39728 C 969.86908,361.95197 970.15814,362.37384 970.58002,362.6629 C 971.00189,362.95197 971.54486,363.0965 972.20892,363.0965 C 972.77923,363.0965 973.22454,362.96759 973.54486,362.70978 C 973.87298,362.44415 974.03704,362.08478 974.03705,361.63165 C 974.03704,361.03009 973.45892,360.51447 972.30267,360.08478 C 971.91204,359.94416 971.61126,359.82697 971.40033,359.73322 C 970.21283,359.24103 969.3808,358.74103 968.90424,358.23322 C 968.43548,357.72541 968.20111,357.10822 968.20111,356.38165 C 968.20111,355.38947 968.58783,354.58479 969.36127,353.96759 C 970.14251,353.35041 971.17376,353.04182 972.45502,353.04181 C 973.31439,353.04182 974.04876,353.20198 974.65814,353.52228 C 975.27532,353.83479 975.72454,354.28401 976.0058,354.86993 L 974.20111,356.11212 C 974.06829,355.76057 973.83392,355.48322 973.49799,355.28009 C 973.16985,355.06916 972.78704,354.96369 972.34955,354.96368 C 971.86517,354.96369 971.47454,355.08088 971.17767,355.31525 C 970.88861,355.54182 970.74408,355.84651 970.74408,356.22931 C 970.74408,356.80744 971.40033,357.33479 972.71283,357.81134 C 973.12689,357.95978 973.4472,358.08088 973.67377,358.17462 C 974.6972,358.58088 975.42767,359.04181 975.86517,359.55743 C 976.31048,360.06525 976.53313,360.70197 976.53314,361.46759 C 976.53313,362.57697 976.13079,363.44806 975.32611,364.08087 C 974.52142,364.70587 973.41204,365.01837 971.99799,365.01837 C 970.91204,365.01837 970.0097,364.81525 969.29095,364.409 C 968.5722,364.00275 968.0097,363.38165 967.60345,362.54572"
         style="font-size:24px;font-style:normal;font-variant:normal;font-weight:normal;font-stretch:normal;text-align:center;line-height:125%;writing-mode:lr-tb;text-anchor:middle;fill:none;fill-opacity:1;stroke:#ff0000;stroke-width:1px;stroke-linecap:butt;stroke-linejoin:miter;stroke-opacity:1;font-family:Futura Md BT;-inkscape-font-specification:Futura Md BT" />
      <g
         id="g2542"
         transform="translate(744.86869,93.787438)">
        <path
           sodipodi:type="arc"
           style="fill:#ffffff;fill-opacity:1;fill-rule:evenodd;stroke:#000000;stroke-width:0.79898882;stroke-linecap:butt;stroke-linejoin:miter;marker:none;marker-start:none;marker-mid:none;marker-end:none;stroke-miterlimit:4;stroke-dasharray:none;stroke-dashoffset:0;stroke-opacity:1;visibility:visible;display:inline;overflow:visible;enable-background:accumulate"
           id="path2544"
           sodipodi:cx="745.92841"
           sodipodi:cy="80.367744"
           sodipodi:rx="6.3670845"
           sodipodi:ry="7.3466358"
           d="M 752.29549,80.367744 A 6.3670845,7.3466358 0 1 1 739.56132,80.367744 A 6.3670845,7.3466358 0 1 1 752.29549,80.367744 z"
           transform="matrix(0.840259,0,0,0.7282245,-621.11056,190.77705)" />
        <path
           transform="matrix(0.840259,0,0,0.7282245,-373.61056,190.78174)"
           d="M 752.29549,80.367744 A 6.3670845,7.3466358 0 1 1 739.56132,80.367744 A 6.3670845,7.3466358 0 1 1 752.29549,80.367744 z"
           sodipodi:ry="7.3466358"
           sodipodi:rx="6.3670845"
           sodipodi:cy="80.367744"
           sodipodi:cx="745.92841"
           id="path2546"
           style="fill:#ffffff;fill-opacity:1;fill-rule:evenodd;stroke:#000000;stroke-width:0.79898882;stroke-linecap:butt;stroke-linejoin:miter;marker:none;marker-start:none;marker-mid:none;marker-end:none;stroke-miterlimit:4;stroke-dasharray:none;stroke-dashoffset:0;stroke-opacity:1;visibility:visible;display:inline;overflow:visible;enable-background:accumulate"
           sodipodi:type="arc" />
      </g>
    </g>
    <path
       transform="matrix(0.2461111,0,0,0.3281482,81.109376,58.370835)"
       d="M 151.875,-39.375 A 22.5,16.875 0 1 1 106.875,-39.375 A 22.5,16.875 0 1 1 151.875,-39.375 z"
       sodipodi:ry="16.875"
       sodipodi:rx="22.5"
       sodipodi:cy="-39.375"
       sodipodi:cx="129.375"
       id="path3372"
       style="fill:#ffffff;fill-opacity:1;fill-rule:evenodd;stroke:#000000;stroke-width:2.19927406;stroke-linecap:butt;stroke-linejoin:miter;stroke-miterlimit:4;stroke-dasharray:none;stroke-opacity:1"
       sodipodi:type="arc" />
    <path
       sodipodi:type="arc"
       style="fill:#ffffff;fill-opacity:1;fill-rule:evenodd;stroke:#000000;stroke-width:2.19927406;stroke-linecap:butt;stroke-linejoin:miter;stroke-miterlimit:4;stroke-dasharray:none;stroke-opacity:1"
       id="path3374"
       sodipodi:cx="129.375"
       sodipodi:cy="-39.375"
       sodipodi:rx="22.5"
       sodipodi:ry="16.875"
       d="M 151.875,-39.375 A 22.5,16.875 0 1 1 106.875,-39.375 A 22.5,16.875 0 1 1 151.875,-39.375 z"
       transform="matrix(0.2461111,0,0,0.3281482,598.60938,58.370835)" />
    <path
       sodipodi:type="arc"
       style="fill:#ffffff;fill-opacity:1;fill-rule:evenodd;stroke:#000000;stroke-width:2.19927406;stroke-linecap:butt;stroke-linejoin:miter;stroke-miterlimit:4;stroke-dasharray:none;stroke-opacity:1"
       id="path3380"
       sodipodi:cx="129.375"
       sodipodi:cy="-39.375"
       sodipodi:rx="22.5"
       sodipodi:ry="16.875"
       d="M 151.875,-39.375 A 22.5,16.875 0 1 1 106.875,-39.375 A 22.5,16.875 0 1 1 151.875,-39.375 z"
       transform="matrix(0.2461111,0,0,0.3281482,13.609375,124.97083)" />
    <path
       transform="matrix(0.2461111,0,0,0.3281482,666.10938,124.97083)"
       d="M 151.875,-39.375 A 22.5,16.875 0 1 1 106.875,-39.375 A 22.5,16.875 0 1 1 151.875,-39.375 z"
       sodipodi:ry="16.875"
       sodipodi:rx="22.5"
       sodipodi:cy="-39.375"
       sodipodi:cx="129.375"
       id="path3382"
       style="fill:#ffffff;fill-opacity:1;fill-rule:evenodd;stroke:#000000;stroke-width:2.19927406;stroke-linecap:butt;stroke-linejoin:miter;stroke-miterlimit:4;stroke-dasharray:none;stroke-opacity:1"
       sodipodi:type="arc" />
    <path
       transform="matrix(0.2461111,0,0,0.3281482,13.609375,687.47083)"
       d="M 151.875,-39.375 A 22.5,16.875 0 1 1 106.875,-39.375 A 22.5,16.875 0 1 1 151.875,-39.375 z"
       sodipodi:ry="16.875"
       sodipodi:rx="22.5"
       sodipodi:cy="-39.375"
       sodipodi:cx="129.375"
       id="path3384"
       style="fill:#ffffff;fill-opacity:1;fill-rule:evenodd;stroke:#000000;stroke-width:2.19927406;stroke-linecap:butt;stroke-linejoin:miter;stroke-miterlimit:4;stroke-dasharray:none;stroke-opacity:1"
       sodipodi:type="arc" />
    <path
       sodipodi:type="arc"
       style="fill:#ffffff;fill-opacity:1;fill-rule:evenodd;stroke:#000000;stroke-width:2.19927406;stroke-linecap:butt;stroke-linejoin:miter;stroke-miterlimit:4;stroke-dasharray:none;stroke-opacity:1"
       id="path3386"
       sodipodi:cx="129.375"
       sodipodi:cy="-39.375"
       sodipodi:rx="22.5"
       sodipodi:ry="16.875"
       d="M 151.875,-39.375 A 22.5,16.875 0 1 1 106.875,-39.375 A 22.5,16.875 0 1 1 151.875,-39.375 z"
       transform="matrix(0.2461111,0,0,0.3281482,666.10938,687.47083)" />
    <path
       style="font-size:24px;font-style:normal;font-variant:normal;font-weight:normal;font-stretch:normal;text-align:center;line-height:125%;writing-mode:lr-tb;text-anchor:middle;fill:none;fill-opacity:1;stroke:#ff0000;stroke-width:1px;stroke-linecap:butt;stroke-linejoin:miter;stroke-opacity:1;font-family:Futura Md BT;-inkscape-font-specification:Futura Md BT;opacity:1;color:#000000;fill-rule:nonzero;marker:none;marker-start:none;marker-mid:none;marker-end:none;stroke-miterlimit:4;stroke-dasharray:none;stroke-dashoffset:0;visibility:visible;display:inline;overflow:visible;enable-background:accumulate"
       d="M 329.20743,229.65353 L 329.20743,244.4426 L 326.41837,244.4426 L 326.41837,229.65353 L 321.85977,229.65353 L 321.85977,227.28635 L 333.74258,227.28635 L 333.74258,229.65353 L 329.20743,229.65353 M 335.6879,244.4426 L 335.6879,226.27853 L 338.07852,226.27853 L 338.07852,235.14963 C 338.58633,234.38401 339.18399,233.82542 339.87149,233.47385 C 340.55898,233.1223 341.39492,232.94651 342.3793,232.9465 C 343.20742,232.94651 343.91054,233.07933 344.48868,233.34494 C 345.0746,233.60276 345.53164,233.98948 345.85977,234.5051 C 346.05507,234.80979 346.1957,235.16526 346.28165,235.5715 C 346.36757,235.97776 346.41054,236.6887 346.41055,237.70432 L 346.41055,244.4426 L 343.84415,244.4426 L 343.84415,238.73557 C 343.84414,237.27463 343.66445,236.30589 343.30508,235.82932 C 342.95351,235.34495 342.32461,235.10276 341.41837,235.10275 C 340.82461,235.10276 340.29336,235.21214 339.82462,235.43088 C 339.36367,235.64964 339.00039,235.95823 338.73477,236.35666 C 338.54727,236.62229 338.41445,236.96604 338.33633,237.38791 C 338.26602,237.80198 338.23086,238.46604 338.23087,239.3801 L 338.23087,244.4426 L 335.6879,244.4426 M 352.34024,235.10275 C 352.61367,234.36839 352.97305,233.82542 353.41837,233.47385 C 353.87148,233.1223 354.43008,232.94651 355.09415,232.9465 C 355.45351,232.94651 355.80508,232.98948 356.14883,233.07541 C 356.50039,233.16136 356.84414,233.28636 357.18008,233.45041 L 356.26602,235.60666 C 356.04726,235.45042 355.80898,235.33714 355.55118,235.26682 C 355.30117,235.1887 355.01992,235.14964 354.70743,235.14963 C 353.86367,235.14964 353.2582,235.48948 352.89102,236.16916 C 352.52383,236.84104 352.34024,237.97385 352.34024,239.5676 L 352.34024,244.4426 L 349.79727,244.4426 L 349.79727,233.30978 L 352.34024,233.30978 L 352.34024,235.10275 M 361.11758,233.33322 L 361.11758,239.59103 C 361.11758,240.66916 361.34024,241.4426 361.78555,241.91135 C 362.23086,242.3801 362.95352,242.61447 363.95352,242.61447 C 364.95351,242.61447 365.67617,242.3801 366.12149,241.91135 C 366.56679,241.4426 366.78945,240.66916 366.78946,239.59103 L 366.78946,233.33322 L 369.33243,233.33322 L 369.33243,238.82932 C 369.33242,240.95432 368.90663,242.49729 368.05508,243.45822 C 367.20351,244.41916 365.84414,244.89963 363.97696,244.89963 C 362.07852,244.89963 360.70352,244.42307 359.85196,243.46994 C 359.00039,242.51682 358.57461,240.96994 358.57462,238.82932 L 358.57462,233.33322 L 361.11758,233.33322 M 371.48868,242.42697 L 373.59805,241.27853 C 373.7543,241.83322 374.04336,242.2551 374.46524,242.54416 C 374.88711,242.83322 375.43008,242.97775 376.09415,242.97775 C 376.66445,242.97775 377.10977,242.84885 377.43008,242.59103 C 377.7582,242.32541 377.92226,241.96604 377.92227,241.51291 C 377.92226,240.91135 377.34414,240.39573 376.1879,239.96603 C 375.79727,239.82541 375.49649,239.70823 375.28555,239.61447 C 374.09805,239.12229 373.26602,238.62229 372.78946,238.11447 C 372.32071,237.60667 372.08633,236.98948 372.08633,236.26291 C 372.08633,235.27073 372.47305,234.46604 373.24649,233.84885 C 374.02774,233.23167 375.05899,232.92308 376.34024,232.92307 C 377.19961,232.92308 377.93398,233.08323 378.54337,233.40353 C 379.16054,233.71604 379.60976,234.16526 379.89102,234.75119 L 378.08633,235.99338 C 377.95351,235.64182 377.71914,235.36448 377.38321,235.16135 C 377.05508,234.95042 376.67227,234.84495 376.23477,234.84494 C 375.75039,234.84495 375.35977,234.96214 375.0629,235.1965 C 374.77383,235.42307 374.6293,235.72776 374.6293,236.11057 C 374.6293,236.6887 375.28555,237.21604 376.59805,237.6926 C 377.01211,237.84104 377.33242,237.96213 377.55899,238.05588 C 378.58242,238.46213 379.31289,238.92307 379.7504,239.43869 C 380.1957,239.94651 380.41836,240.58323 380.41837,241.34885 C 380.41836,242.45822 380.01601,243.32932 379.21133,243.96213 C 378.40664,244.58713 377.29727,244.89963 375.88321,244.89963 C 374.79727,244.89963 373.89493,244.6965 373.17618,244.29025 C 372.45743,243.884 371.89493,243.26291 371.48868,242.42697 M 383.58243,244.4426 L 383.58243,235.55978 L 381.63712,235.55978 L 381.63712,233.33322 L 383.58243,233.33322 L 383.58243,229.12619 L 386.1254,229.12619 L 386.1254,233.33322 L 388.07071,233.33322 L 388.07071,235.55978 L 386.1254,235.55978 L 386.1254,244.4426 L 383.58243,244.4426 M 400.94962,239.26291 L 392.0668,239.26291 C 392.1293,240.30198 392.43789,241.11447 392.99258,241.70041 C 393.54727,242.27854 394.28555,242.5676 395.20743,242.5676 C 396.02773,242.5676 396.71133,242.39572 397.25821,242.05197 C 397.80507,241.70822 398.28164,241.15354 398.6879,240.38791 L 400.83243,241.58322 C 400.20742,242.70041 399.43398,243.53244 398.51212,244.07932 C 397.59023,244.62619 396.5082,244.89963 395.26602,244.89963 C 393.48477,244.89963 392.0668,244.35666 391.01212,243.27072 C 389.95743,242.18479 389.43008,240.73557 389.43008,238.92307 C 389.43008,237.18088 389.97305,235.7512 391.05899,234.634 C 392.15274,233.50901 393.55508,232.94651 395.26602,232.9465 C 397.05508,232.94651 398.44961,233.45823 399.44962,234.48166 C 400.4496,235.50511 400.9496,236.9387 400.94962,238.78244 L 400.94962,239.26291 M 398.3129,237.55197 C 398.21132,236.7551 397.90664,236.14964 397.39883,235.73557 C 396.89101,235.3137 396.1957,235.10276 395.3129,235.10275 C 394.47695,235.10276 393.80508,235.30589 393.29727,235.71213 C 392.78945,236.11839 392.43399,236.73167 392.23087,237.55197 L 398.3129,237.55197 M 406.15274,235.10275 C 406.42617,234.36839 406.78555,233.82542 407.23087,233.47385 C 407.68398,233.1223 408.24258,232.94651 408.90665,232.9465 C 409.26601,232.94651 409.61758,232.98948 409.96133,233.07541 C 410.31289,233.16136 410.65664,233.28636 410.99258,233.45041 L 410.07852,235.60666 C 409.85976,235.45042 409.62148,235.33714 409.36368,235.26682 C 409.11367,235.1887 408.83242,235.14964 408.51993,235.14963 C 407.67617,235.14964 407.0707,235.48948 406.70352,236.16916 C 406.33633,236.84104 406.15274,237.97385 406.15274,239.5676 L 406.15274,244.4426 L 403.60977,244.4426 L 403.60977,233.30978 L 406.15274,233.30978 L 406.15274,235.10275 M 423.5668,237.70432 L 428.34805,237.70432 L 426.59024,233.79025 C 426.48867,233.54026 426.3832,233.25511 426.27383,232.93478 C 426.16445,232.60667 426.05508,232.24339 425.94571,231.84494 C 425.85195,232.21995 425.75039,232.57151 425.64102,232.89963 C 425.53945,233.21995 425.43398,233.51683 425.32462,233.79025 L 423.5668,237.70432 M 431.27774,244.4426 L 429.33243,240.02463 L 422.53555,240.02463 L 420.54337,244.4426 L 417.61368,244.4426 L 425.92227,226.60666 L 434.21915,244.4426 L 431.27774,244.4426 M 443.92227,236.49728 C 443.53164,236.0676 443.07461,235.73948 442.55118,235.51291 C 442.03554,235.28636 441.47695,235.17307 440.8754,235.17307 C 439.83633,235.17307 439.0043,235.50901 438.3793,236.18088 C 437.7543,236.85276 437.4418,237.74338 437.4418,238.85275 C 437.4418,240.00901 437.7543,240.91916 438.3793,241.58322 C 439.01211,242.23947 439.8832,242.5676 440.99258,242.5676 C 441.60976,242.5676 442.16054,242.45432 442.64493,242.22775 C 443.12929,241.99338 443.55507,241.64182 443.92227,241.17307 L 443.92227,244.10275 C 443.45351,244.36838 442.94961,244.5676 442.41055,244.70041 C 441.87929,244.83322 441.31289,244.89963 440.71133,244.89963 C 438.96914,244.89963 437.54727,244.34494 436.44571,243.23557 C 435.35196,242.12619 434.80508,240.68869 434.80508,238.92307 C 434.80508,237.13401 435.37149,235.69261 436.5043,234.59885 C 437.64492,233.49729 439.1332,232.94651 440.96915,232.9465 C 441.54726,232.94651 442.07851,233.00511 442.5629,233.12228 C 443.04726,233.23167 443.50039,233.40354 443.92227,233.63791 L 443.92227,236.49728 M 447.14493,244.4426 L 447.14493,235.55978 L 445.19962,235.55978 L 445.19962,233.33322 L 447.14493,233.33322 L 447.14493,229.12619 L 449.6879,229.12619 L 449.6879,233.33322 L 451.63321,233.33322 L 451.63321,235.55978 L 449.6879,235.55978 L 449.6879,244.4426 L 447.14493,244.4426 M 456.27383,233.33322 L 456.27383,239.59103 C 456.27383,240.66916 456.49649,241.4426 456.9418,241.91135 C 457.38711,242.3801 458.10977,242.61447 459.10977,242.61447 C 460.10976,242.61447 460.83242,242.3801 461.27774,241.91135 C 461.72304,241.4426 461.9457,240.66916 461.94571,239.59103 L 461.94571,233.33322 L 464.48868,233.33322 L 464.48868,238.82932 C 464.48867,240.95432 464.06288,242.49729 463.21133,243.45822 C 462.35976,244.41916 461.00039,244.89963 459.13321,244.89963 C 457.23477,244.89963 455.85977,244.42307 455.00821,243.46994 C 454.15664,242.51682 453.73086,240.96994 453.73087,238.82932 L 453.73087,233.33322 L 456.27383,233.33322 M 478.3754,244.4426 L 475.83243,244.4426 L 475.83243,243.00119 C 475.37929,243.64182 474.84804,244.11838 474.23868,244.43088 C 473.63711,244.74338 472.9457,244.89963 472.16446,244.89963 C 470.59414,244.89963 469.35586,244.36447 468.44962,243.29416 C 467.55118,242.21604 467.10196,240.74338 467.10196,238.87619 C 467.10196,237.10276 467.5629,235.67307 468.48477,234.58713 C 469.40664,233.49339 470.60977,232.94651 472.09415,232.9465 C 473.00039,232.94651 473.77383,233.13792 474.41446,233.52072 C 475.06289,233.89573 475.53554,234.4387 475.83243,235.14963 L 475.83243,233.33322 L 478.3754,233.33322 L 478.3754,244.4426 M 475.90274,238.85275 C 475.90273,237.70432 475.6332,236.80979 475.09415,236.16916 C 474.56289,235.52854 473.8168,235.20823 472.85587,235.20822 C 471.89492,235.20823 471.13711,235.54026 470.58243,236.20432 C 470.03555,236.86057 469.76211,237.77463 469.76212,238.9465 C 469.76211,240.12619 470.02774,241.03635 470.55899,241.67697 C 471.09024,242.3176 471.84023,242.63791 472.80899,242.63791 C 473.72305,242.63791 474.46523,242.29025 475.03555,241.59494 C 475.61367,240.89963 475.90273,239.98557 475.90274,238.85275 M 482.48868,244.4426 L 482.48868,235.55978 L 480.54337,235.55978 L 480.54337,233.33322 L 482.48868,233.33322 L 482.48868,229.12619 L 485.03165,229.12619 L 485.03165,233.33322 L 486.97696,233.33322 L 486.97696,235.55978 L 485.03165,235.55978 L 485.03165,244.4426 L 482.48868,244.4426 M 488.93399,228.52853 C 488.93399,228.09886 489.09024,227.72777 489.40274,227.41525 C 489.72305,227.10277 490.10196,226.94652 490.53946,226.9465 C 490.99258,226.94652 491.36758,227.09886 491.66446,227.40353 C 491.96914,227.70043 492.12149,228.07543 492.12149,228.52853 C 492.12149,228.98167 491.96914,229.36449 491.66446,229.67697 C 491.35977,229.98167 490.98477,230.13402 490.53946,230.134 C 490.10196,230.13402 489.72305,229.97777 489.40274,229.66525 C 489.09024,229.34496 488.93399,228.96605 488.93399,228.52853 M 489.27383,244.4426 L 489.27383,233.33322 L 491.8168,233.33322 L 491.8168,244.4426 L 489.27383,244.4426 M 504.16837,238.92307 C 504.16835,237.89182 503.83632,237.02073 503.17227,236.30978 C 502.5082,235.59104 501.6957,235.23167 500.73477,235.23166 C 499.78164,235.23167 498.96914,235.59104 498.29727,236.30978 C 497.63321,237.02073 497.30117,237.89182 497.30118,238.92307 C 497.30117,239.95432 497.63321,240.82932 498.29727,241.54807 C 498.96914,242.259 499.78164,242.61447 500.73477,242.61447 C 501.68789,242.61447 502.49648,242.259 503.16055,241.54807 C 503.83242,240.82932 504.16835,239.95432 504.16837,238.92307 M 494.61758,238.89963 C 494.61758,238.08713 494.76993,237.32151 495.07462,236.60275 C 495.38711,235.8762 495.83243,235.23167 496.41055,234.66916 C 496.98086,234.11448 497.63711,233.6887 498.3793,233.39182 C 499.12149,233.09495 499.89883,232.94651 500.71133,232.9465 C 501.54726,232.94651 502.33242,233.09495 503.0668,233.39182 C 503.80898,233.6887 504.47304,234.1262 505.05899,234.70432 C 505.64492,235.27464 506.09023,235.91917 506.39493,236.63791 C 506.6996,237.35667 506.85195,238.11057 506.85196,238.89963 C 506.85195,239.71994 506.6996,240.48948 506.39493,241.20822 C 506.09804,241.92697 505.66054,242.56369 505.08243,243.11838 C 504.47304,243.70432 503.79726,244.14572 503.05508,244.4426 C 502.31289,244.74728 501.53164,244.89963 500.71133,244.89963 C 499.90664,244.89963 499.1332,244.74728 498.39102,244.4426 C 497.64883,244.14572 496.98867,243.71213 496.41055,243.14182 C 495.82461,242.56369 495.3793,241.91526 495.07462,241.1965 C 494.76993,240.47776 494.61758,239.71213 494.61758,238.89963 M 509.54727,244.4426 L 509.54727,233.33322 L 511.9379,233.33322 L 511.9379,235.14963 C 512.4457,234.38401 513.04336,233.82542 513.73087,233.47385 C 514.41836,233.1223 515.2543,232.94651 516.23868,232.9465 C 517.06679,232.94651 517.76992,233.07933 518.34805,233.34494 C 518.93398,233.60276 519.39101,233.98948 519.71915,234.5051 C 519.91445,234.80979 520.05507,235.16526 520.14102,235.5715 C 520.22695,235.97776 520.26992,236.6887 520.26993,237.70432 L 520.26993,244.4426 L 517.70352,244.4426 L 517.70352,238.73557 C 517.70351,237.27463 517.52382,236.30589 517.16446,235.82932 C 516.81289,235.34495 516.18398,235.10276 515.27774,235.10275 C 514.68398,235.10276 514.15273,235.21214 513.68399,235.43088 C 513.22305,235.64964 512.85977,235.95823 512.59415,236.35666 C 512.40664,236.62229 512.27383,236.96604 512.19571,237.38791 C 512.12539,237.80198 512.09024,238.46604 512.09024,239.3801 L 512.09024,244.4426 L 509.54727,244.4426 M 530.14883,241.009 L 532.3754,239.97775 C 532.58633,240.74338 532.97305,241.32932 533.53555,241.73557 C 534.09805,242.134 534.8168,242.33322 535.6918,242.33322 C 536.51992,242.33322 537.17617,242.10276 537.66055,241.64182 C 538.15273,241.18088 538.39882,240.56369 538.39883,239.79025 C 538.39882,238.78245 537.56289,237.88401 535.89102,237.09494 C 535.65664,236.97776 535.47695,236.89182 535.35196,236.83713 C 533.46133,235.91526 532.19961,235.08323 531.5668,234.34103 C 530.9418,233.59104 530.6293,232.67698 530.6293,231.59885 C 530.6293,230.20042 531.10196,229.06761 532.04727,228.20041 C 533.00039,227.33324 534.24649,226.89965 535.78555,226.89963 C 537.05117,226.89965 538.10976,227.14574 538.96133,227.63791 C 539.81289,228.1223 540.40273,228.82152 540.73087,229.73557 L 538.55118,230.86057 C 538.20742,230.32152 537.82851,229.92699 537.41446,229.67697 C 537.0082,229.42699 536.53945,229.30199 536.00821,229.30197 C 535.2582,229.30199 534.66055,229.4973 534.21524,229.88791 C 533.77774,230.27855 533.55899,230.80199 533.55899,231.45822 C 533.55899,232.48948 534.52774,233.45042 536.46524,234.34103 C 536.61367,234.41136 536.73086,234.46604 536.8168,234.5051 C 538.51211,235.28636 539.67617,236.05198 540.30899,236.80197 C 540.94179,237.54417 541.2582,238.47385 541.25821,239.59103 C 541.2582,241.21604 540.74648,242.509 539.72305,243.46994 C 538.69961,244.42307 537.31679,244.89963 535.57462,244.89963 C 534.11367,244.89963 532.91446,244.56369 531.97696,243.89182 C 531.04727,243.21994 530.4379,242.259 530.14883,241.009 M 544.6918,244.4426 L 544.6918,235.55978 L 542.74649,235.55978 L 542.74649,233.33322 L 544.6918,233.33322 L 544.6918,229.12619 L 547.23477,229.12619 L 547.23477,233.33322 L 549.18008,233.33322 L 549.18008,235.55978 L 547.23477,235.55978 L 547.23477,244.4426 L 544.6918,244.4426 M 561.8129,244.4426 L 559.26993,244.4426 L 559.26993,243.00119 C 558.81679,243.64182 558.28554,244.11838 557.67618,244.43088 C 557.07461,244.74338 556.3832,244.89963 555.60196,244.89963 C 554.03164,244.89963 552.79336,244.36447 551.88712,243.29416 C 550.98868,242.21604 550.53946,240.74338 550.53946,238.87619 C 550.53946,237.10276 551.0004,235.67307 551.92227,234.58713 C 552.84414,233.49339 554.04727,232.94651 555.53165,232.9465 C 556.43789,232.94651 557.21133,233.13792 557.85196,233.52072 C 558.50039,233.89573 558.97304,234.4387 559.26993,235.14963 L 559.26993,233.33322 L 561.8129,233.33322 L 561.8129,244.4426 M 559.34024,238.85275 C 559.34023,237.70432 559.0707,236.80979 558.53165,236.16916 C 558.00039,235.52854 557.2543,235.20823 556.29337,235.20822 C 555.33242,235.20823 554.57461,235.54026 554.01993,236.20432 C 553.47305,236.86057 553.19961,237.77463 553.19962,238.9465 C 553.19961,240.12619 553.46524,241.03635 553.99649,241.67697 C 554.52774,242.3176 555.27773,242.63791 556.24649,242.63791 C 557.16055,242.63791 557.90273,242.29025 558.47305,241.59494 C 559.05117,240.89963 559.34023,239.98557 559.34024,238.85275 M 565.92618,244.4426 L 565.92618,235.55978 L 563.98087,235.55978 L 563.98087,233.33322 L 565.92618,233.33322 L 565.92618,229.12619 L 568.46915,229.12619 L 568.46915,233.33322 L 570.41446,233.33322 L 570.41446,235.55978 L 568.46915,235.55978 L 568.46915,244.4426 L 565.92618,244.4426 M 575.05508,233.33322 L 575.05508,239.59103 C 575.05508,240.66916 575.27774,241.4426 575.72305,241.91135 C 576.16836,242.3801 576.89102,242.61447 577.89102,242.61447 C 578.89101,242.61447 579.61367,242.3801 580.05899,241.91135 C 580.50429,241.4426 580.72695,240.66916 580.72696,239.59103 L 580.72696,233.33322 L 583.26993,233.33322 L 583.26993,238.82932 C 583.26992,240.95432 582.84413,242.49729 581.99258,243.45822 C 581.14101,244.41916 579.78164,244.89963 577.91446,244.89963 C 576.01602,244.89963 574.64102,244.42307 573.78946,243.46994 C 572.93789,242.51682 572.51211,240.96994 572.51212,238.82932 L 572.51212,233.33322 L 575.05508,233.33322 M 585.42618,242.42697 L 587.53555,241.27853 C 587.6918,241.83322 587.98086,242.2551 588.40274,242.54416 C 588.82461,242.83322 589.36758,242.97775 590.03165,242.97775 C 590.60195,242.97775 591.04727,242.84885 591.36758,242.59103 C 591.6957,242.32541 591.85976,241.96604 591.85977,241.51291 C 591.85976,240.91135 591.28164,240.39573 590.1254,239.96603 C 589.73477,239.82541 589.43399,239.70823 589.22305,239.61447 C 588.03555,239.12229 587.20352,238.62229 586.72696,238.11447 C 586.25821,237.60667 586.02383,236.98948 586.02383,236.26291 C 586.02383,235.27073 586.41055,234.46604 587.18399,233.84885 C 587.96524,233.23167 588.99649,232.92308 590.27774,232.92307 C 591.13711,232.92308 591.87148,233.08323 592.48087,233.40353 C 593.09804,233.71604 593.54726,234.16526 593.82852,234.75119 L 592.02383,235.99338 C 591.89101,235.64182 591.65664,235.36448 591.32071,235.16135 C 590.99258,234.95042 590.60977,234.84495 590.17227,234.84494 C 589.68789,234.84495 589.29727,234.96214 589.0004,235.1965 C 588.71133,235.42307 588.5668,235.72776 588.5668,236.11057 C 588.5668,236.6887 589.22305,237.21604 590.53555,237.6926 C 590.94961,237.84104 591.26992,237.96213 591.49649,238.05588 C 592.51992,238.46213 593.25039,238.92307 593.6879,239.43869 C 594.1332,239.94651 594.35586,240.58323 594.35587,241.34885 C 594.35586,242.45822 593.95351,243.32932 593.14883,243.96213 C 592.34414,244.58713 591.23477,244.89963 589.82071,244.89963 C 588.73477,244.89963 587.83243,244.6965 587.11368,244.29025 C 586.39493,243.884 585.83243,243.26291 585.42618,242.42697"
       id="text2432" />
    <g
       id="g2500"
       transform="translate(-7.3750076,0.3750105)">
      <rect
         y="103.84531"
         x="583.0047"
         height="62.375"
         width="44.921883"
         id="rect2438"
         style="fill:#1cbf00;fill-opacity:0.3627451;fill-rule:evenodd;stroke:#ff00ff;stroke-width:0.62499994;stroke-linecap:butt;stroke-linejoin:miter;marker:none;marker-start:none;marker-mid:none;marker-end:none;stroke-miterlimit:4;stroke-dasharray:none;stroke-dashoffset:0;stroke-opacity:1;visibility:visible;display:inline;overflow:visible;enable-background:accumulate" />
      <rect
         style="fill:#1cbf00;fill-opacity:0.3627451;fill-rule:evenodd;stroke:#ff00ff;stroke-width:0.62499994;stroke-linecap:butt;stroke-linejoin:miter;marker:none;marker-start:none;marker-mid:none;marker-end:none;stroke-miterlimit:4;stroke-dasharray:none;stroke-dashoffset:0;stroke-opacity:1;visibility:visible;display:inline;overflow:visible;enable-background:accumulate"
         id="rect2440"
         width="44.921883"
         height="62.375"
         x="538.08282"
         y="103.84531" />
      <rect
         style="fill:#1cbf00;fill-opacity:0.3627451;fill-rule:evenodd;stroke:#ff00ff;stroke-width:0.62499994;stroke-linecap:butt;stroke-linejoin:miter;marker:none;marker-start:none;marker-mid:none;marker-end:none;stroke-miterlimit:4;stroke-dasharray:none;stroke-dashoffset:0;stroke-opacity:1;visibility:visible;display:inline;overflow:visible;enable-background:accumulate"
         id="rect2442"
         width="44.921883"
         height="62.375"
         x="493.16095"
         y="103.84531" />
      <rect
         y="103.84531"
         x="448.23907"
         height="62.375"
         width="44.921883"
         id="rect2444"
         style="fill:#1cbf00;fill-opacity:0.3627451;fill-rule:evenodd;stroke:#ff00ff;stroke-width:0.62499994;stroke-linecap:butt;stroke-linejoin:miter;marker:none;marker-start:none;marker-mid:none;marker-end:none;stroke-miterlimit:4;stroke-dasharray:none;stroke-dashoffset:0;stroke-opacity:1;visibility:visible;display:inline;overflow:visible;enable-background:accumulate" />
      <rect
         style="fill:#1cbf00;fill-opacity:0.3627451;fill-rule:evenodd;stroke:#ff00ff;stroke-width:0.62499994;stroke-linecap:butt;stroke-linejoin:miter;marker:none;marker-start:none;marker-mid:none;marker-end:none;stroke-miterlimit:4;stroke-dasharray:none;stroke-dashoffset:0;stroke-opacity:1;visibility:visible;display:inline;overflow:visible;enable-background:accumulate"
         id="rect2446"
         width="44.921883"
         height="62.375"
         x="403.3172"
         y="103.84531" />
      <rect
         y="103.84531"
         x="358.39532"
         height="62.375"
         width="44.921883"
         id="rect2448"
         style="fill:#1cbf00;fill-opacity:0.3627451;fill-rule:evenodd;stroke:#ff00ff;stroke-width:0.62499994;stroke-linecap:butt;stroke-linejoin:miter;marker:none;marker-start:none;marker-mid:none;marker-end:none;stroke-miterlimit:4;stroke-dasharray:none;stroke-dashoffset:0;stroke-opacity:1;visibility:visible;display:inline;overflow:visible;enable-background:accumulate" />
      <rect
         y="103.84531"
         x="313.47345"
         height="62.375"
         width="44.921883"
         id="rect2450"
         style="fill:#1cbf00;fill-opacity:0.3627451;fill-rule:evenodd;stroke:#ff00ff;stroke-width:0.62499994;stroke-linecap:butt;stroke-linejoin:miter;marker:none;marker-start:none;marker-mid:none;marker-end:none;stroke-miterlimit:4;stroke-dasharray:none;stroke-dashoffset:0;stroke-opacity:1;visibility:visible;display:inline;overflow:visible;enable-background:accumulate" />
      <rect
         style="fill:#1cbf00;fill-opacity:0.3627451;fill-rule:evenodd;stroke:#ff00ff;stroke-width:0.62499994;stroke-linecap:butt;stroke-linejoin:miter;marker:none;marker-start:none;marker-mid:none;marker-end:none;stroke-miterlimit:4;stroke-dasharray:none;stroke-dashoffset:0;stroke-opacity:1;visibility:visible;display:inline;overflow:visible;enable-background:accumulate"
         id="rect2452"
         width="44.921883"
         height="62.375"
         x="268.55157"
         y="103.84531" />
    </g>
    <path
       style="font-size:24px;font-style:normal;font-variant:normal;font-weight:normal;font-stretch:normal;text-indent:0;text-align:center;text-decoration:none;line-height:125%;letter-spacing:normal;word-spacing:normal;text-transform:none;direction:ltr;block-progression:tb;writing-mode:lr-tb;text-anchor:middle;fill:none;fill-opacity:1;fill-rule:nonzero;stroke:#ff0000;stroke-width:1px;stroke-linecap:butt;stroke-linejoin:miter;marker:none;marker-start:none;marker-mid:none;marker-end:none;stroke-miterlimit:4;stroke-dashoffset:0;stroke-opacity:1;visibility:visible;display:inline;overflow:visible;enable-background:accumulate;font-family:Futura Md BT;-inkscape-font-specification:Futura Md BT;opacity:1;color:#000000;stroke-dasharray:none"
       d="M 307.57916,190.94194 L 309.67681,190.94194 C 309.67683,191.00445 309.67292,191.0982 309.6651,191.22319 C 309.6573,191.3482 309.65339,191.43804 309.65338,191.49272 C 309.65339,192.34429 309.81745,192.92242 310.14556,193.2271 C 310.46589,193.52398 311.14167,193.67242 312.17291,193.67241 L 369.52943,193.67241 C 370.74037,193.67242 371.60365,193.84429 372.11927,194.18803 C 372.62709,194.53179 372.99037,195.15288 373.20911,196.05132 C 373.42006,195.1607 373.78334,194.54351 374.29896,194.19975 C 374.80678,193.8482 375.66615,193.67242 376.87708,193.67241 L 434.63234,193.67241 C 435.66359,193.67242 436.34328,193.52007 436.67141,193.21538 C 437.00734,192.90289 437.17531,192.32086 437.17531,191.46928 C 437.17531,191.41461 437.1714,191.32867 437.16359,191.21147 C 437.15578,191.09429 437.15187,191.00445 437.15187,190.94194 L 439.21437,190.94194 L 439.21437,191.68022 C 439.21437,192.47711 439.16749,193.12554 439.07375,193.62553 C 438.97999,194.11773 438.83546,194.53179 438.64016,194.86772 C 438.37453,195.31304 437.99953,195.62554 437.51516,195.80522 C 437.03078,195.98491 436.23781,196.07476 435.13625,196.07475 L 377.28724,196.07475 C 376.16224,196.07476 375.36927,196.28179 374.90833,196.69585 C 374.4474,197.1021 374.21693,197.79741 374.21693,198.78178 C 374.21693,198.83647 374.22084,198.92241 374.22865,199.0396 C 374.23646,199.14897 374.24037,199.231 374.24036,199.28569 L 372.14271,199.28569 C 372.14272,199.231 372.15053,199.14897 372.16615,199.0396 C 372.17397,198.92241 372.17787,198.83647 372.17786,198.78178 C 372.17787,197.79741 371.9474,197.1021 371.48646,196.69585 C 371.02553,196.28179 370.23647,196.07476 369.11927,196.07475 L 311.69244,196.07475 C 310.55964,196.07476 309.75495,195.98491 309.27838,195.80522 C 308.79402,195.62554 308.42292,195.31304 308.1651,194.86772 C 307.95417,194.52398 307.80574,194.0982 307.71978,193.59038 C 307.62605,193.08257 307.57918,192.37554 307.57916,191.46928 L 307.57916,190.94194"
       id="text2471"
       sodipodi:nodetypes="ccsssccscsccssscccsssccsssccsssccssscc" />
    <path
       sodipodi:nodetypes="ccsssccscsccssscccsssccsssccsssccssscc"
       id="path2480"
       d="M 487.57916,190.94194 L 489.67681,190.94194 C 489.67683,191.00445 489.67292,191.0982 489.6651,191.22319 C 489.6573,191.3482 489.65339,191.43804 489.65338,191.49272 C 489.65339,192.34429 489.81745,192.92242 490.14556,193.2271 C 490.46589,193.52398 491.14167,193.67242 492.17291,193.67241 L 549.52943,193.67241 C 550.74037,193.67242 551.60365,193.84429 552.11927,194.18803 C 552.62709,194.53179 552.99037,195.15288 553.20911,196.05132 C 553.42006,195.1607 553.78334,194.54351 554.29896,194.19975 C 554.80678,193.8482 555.66615,193.67242 556.87708,193.67241 L 614.63234,193.67241 C 615.66359,193.67242 616.34328,193.52007 616.67141,193.21538 C 617.00734,192.90289 617.17531,192.32086 617.17531,191.46928 C 617.17531,191.41461 617.1714,191.32867 617.16359,191.21147 C 617.15578,191.09429 617.15187,191.00445 617.15187,190.94194 L 619.21437,190.94194 L 619.21437,191.68022 C 619.21437,192.47711 619.16749,193.12554 619.07375,193.62553 C 618.97999,194.11773 618.83546,194.53179 618.64016,194.86772 C 618.37453,195.31304 617.99953,195.62554 617.51516,195.80522 C 617.03078,195.98491 616.23781,196.07476 615.13625,196.07475 L 557.28724,196.07475 C 556.16224,196.07476 555.36927,196.28179 554.90833,196.69585 C 554.4474,197.1021 554.21693,197.79741 554.21693,198.78178 C 554.21693,198.83647 554.22084,198.92241 554.22865,199.0396 C 554.23646,199.14897 554.24037,199.231 554.24036,199.28569 L 552.14271,199.28569 C 552.14272,199.231 552.15053,199.14897 552.16615,199.0396 C 552.17397,198.92241 552.17787,198.83647 552.17786,198.78178 C 552.17787,197.79741 551.9474,197.1021 551.48646,196.69585 C 551.02553,196.28179 550.23647,196.07476 549.11927,196.07475 L 491.69244,196.07475 C 490.55964,196.07476 489.75495,195.98491 489.27838,195.80522 C 488.79402,195.62554 488.42292,195.31304 488.1651,194.86772 C 487.95417,194.52398 487.80574,194.0982 487.71978,193.59038 C 487.62605,193.08257 487.57918,192.37554 487.57916,191.46928 L 487.57916,190.94194"
       style="font-size:24px;font-style:normal;font-variant:normal;font-weight:normal;font-stretch:normal;text-indent:0;text-align:center;text-decoration:none;line-height:125%;letter-spacing:normal;word-spacing:normal;text-transform:none;direction:ltr;block-progression:tb;writing-mode:lr-tb;text-anchor:middle;fill:none;fill-opacity:1;fill-rule:nonzero;stroke:#ff0000;stroke-width:1px;stroke-linecap:butt;stroke-linejoin:miter;marker:none;marker-start:none;marker-mid:none;marker-end:none;stroke-miterlimit:4;stroke-dashoffset:0;stroke-opacity:1;visibility:visible;display:inline;overflow:visible;enable-background:accumulate;font-family:Futura Md BT;-inkscape-font-specification:Futura Md BT;opacity:1;color:#000000;stroke-dasharray:none" />
    <path
       style="font-size:24px;font-style:normal;font-variant:normal;font-weight:normal;font-stretch:normal;text-align:center;line-height:125%;writing-mode:lr-tb;text-anchor:middle;fill:none;fill-opacity:1;stroke:#ff0000;stroke-width:1px;stroke-linecap:butt;stroke-linejoin:miter;stroke-opacity:1;font-family:Futura Md BT;-inkscape-font-specification:Futura Md BT;opacity:1;color:#000000;fill-rule:nonzero;marker:none;marker-start:none;marker-mid:none;marker-end:none;stroke-miterlimit:4;stroke-dasharray:none;stroke-dashoffset:0;visibility:visible;display:inline;overflow:visible;enable-background:accumulate"
       d="M 370.29114,213.58672 L 367.47864,213.58672 L 371.68567,207.61015 L 368.08801,202.47734 L 370.88879,202.47734 L 372.44739,204.77422 C 372.61145,205.0086 372.75598,205.23516 372.88098,205.4539 C 373.00598,205.67266 373.11926,205.89532 373.22083,206.12187 C 373.31457,205.93438 373.42004,205.73907 373.53723,205.53593 C 373.66223,205.32501 373.81848,205.06329 374.00598,204.75078 L 375.55286,202.47734 L 378.3302,202.47734 L 374.73254,207.63359 L 378.90442,213.58672 L 376.12708,213.58672 L 374.06458,210.66875 L 373.97083,210.52812 C 373.57238,209.92656 373.31457,209.46563 373.19739,209.14531 C 373.04113,209.44219 372.88879,209.71953 372.74036,209.97734 C 372.59973,210.22734 372.4552,210.46172 372.30676,210.68047 L 370.29114,213.58672"
       id="text2510" />
    <path
       style="font-size:24px;font-style:normal;font-variant:normal;font-weight:normal;font-stretch:normal;text-align:center;line-height:125%;writing-mode:lr-tb;text-anchor:middle;fill:none;fill-opacity:1;stroke:#ff0000;stroke-width:1px;stroke-linecap:butt;stroke-linejoin:miter;stroke-opacity:1;font-family:Futura Md BT;-inkscape-font-specification:Futura Md BT;opacity:1;color:#000000;fill-rule:nonzero;marker:none;marker-start:none;marker-mid:none;marker-end:none;stroke-miterlimit:4;stroke-dasharray:none;stroke-dashoffset:0;visibility:visible;display:inline;overflow:visible;enable-background:accumulate"
       d="M 550.97632,218.81328 L 548.36304,218.81328 L 551.40991,212.62578 L 547.33179,202.47734 L 550.14429,202.47734 L 552.18335,208.23125 C 552.30053,208.58281 552.40209,208.94219 552.48804,209.30937 C 552.58178,209.66875 552.656,210.03594 552.71069,210.41093 C 552.81225,210.02031 553.05444,209.39922 553.43726,208.54765 L 553.49585,208.40703 L 556.23804,202.47734 L 558.99194,202.47734 L 550.97632,218.81328"
       id="text2514" />
  </g>
</svg>
