<?xml version="1.0" encoding="UTF-8" standalone="no"?>
<!-- Created with Inkscape (http://www.inkscape.org/) -->
<svg
   xmlns:dc="http://purl.org/dc/elements/1.1/"
   xmlns:cc="http://creativecommons.org/ns#"
   xmlns:rdf="http://www.w3.org/1999/02/22-rdf-syntax-ns#"
   xmlns:svg="http://www.w3.org/2000/svg"
   xmlns="http://www.w3.org/2000/svg"
   xmlns:sodipodi="http://sodipodi.sourceforge.net/DTD/sodipodi-0.dtd"
   xmlns:inkscape="http://www.inkscape.org/namespaces/inkscape"
   width="2160"
   height="1080"
   id="svg2"
   sodipodi:version="0.32"
   inkscape:version="0.46"
   version="1.0"
   sodipodi:docname="lunar-dist.svg"
   inkscape:output_extension="org.inkscape.output.svg.inkscape">
  <defs
     id="defs4">
    <inkscape:perspective
       sodipodi:type="inkscape:persp3d"
       inkscape:vp_x="0 : 382.5 : 1"
       inkscape:vp_y="0 : 1000 : 0"
       inkscape:vp_z="990 : 382.5 : 1"
       inkscape:persp3d-origin="495 : 255 : 1"
       id="perspective56" />
    <inkscape:perspective
       id="perspective2603"
       inkscape:persp3d-origin="495 : 255 : 1"
       inkscape:vp_z="990 : 382.5 : 1"
       inkscape:vp_y="0 : 1000 : 0"
       inkscape:vp_x="0 : 382.5 : 1"
       sodipodi:type="inkscape:persp3d" />
    <inkscape:perspective
       sodipodi:type="inkscape:persp3d"
       inkscape:vp_x="0 : 382.5 : 1"
       inkscape:vp_y="0 : 1000 : 0"
       inkscape:vp_z="990 : 382.5 : 1"
       inkscape:persp3d-origin="495 : 255 : 1"
       id="perspective3306" />
    <inkscape:perspective
       id="perspective3304"
       inkscape:persp3d-origin="495 : 255 : 1"
       inkscape:vp_z="990 : 382.5 : 1"
       inkscape:vp_y="0 : 1000 : 0"
       inkscape:vp_x="0 : 382.5 : 1"
       sodipodi:type="inkscape:persp3d" />
  </defs>
  <sodipodi:namedview
     id="base"
     pagecolor="#ffffff"
     bordercolor="#666666"
     borderopacity="1.0"
     gridtolerance="10000"
     guidetolerance="10"
     objecttolerance="10"
     inkscape:pageopacity="0.0"
     inkscape:pageshadow="2"
     inkscape:zoom="0.72186793"
     inkscape:cx="238.37498"
     inkscape:cy="675.75922"
     inkscape:document-units="in"
     inkscape:current-layer="g3308"
     showgrid="true"
     units="in"
     inkscape:window-width="1539"
     inkscape:window-height="988"
     inkscape:window-x="144"
     inkscape:window-y="82"
     inkscape:snap-intersection-grid-guide="false"
     inkscape:snap-bbox="false"
     inkscape:snap-nodes="true"
     inkscape:snap-global="true"
     showguides="true"
     inkscape:guide-bbox="true"
     inkscape:object-nodes="true"
     inkscape:object-paths="false">
    <inkscape:grid
       type="xygrid"
       id="grid2509"
       visible="true"
       enabled="false"
       units="in"
       spacingx="0.0625in"
       spacingy="0.0625in"
       empspacing="16" />
  </sodipodi:namedview>
  <metadata
     id="metadata7">
    <rdf:RDF>
      <cc:Work
         rdf:about="">
        <dc:format>image/svg+xml</dc:format>
        <dc:type
           rdf:resource="http://purl.org/dc/dcmitype/StillImage" />
      </cc:Work>
    </rdf:RDF>
  </metadata>
  <g
     inkscape:label="Layer 1"
     inkscape:groupmode="layer"
     id="layer1">
    <flowRoot
       xml:space="preserve"
       id="flowRoot3394"
       style="font-size:12px;font-style:normal;font-weight:normal;text-align:center;text-anchor:middle;fill:#000000;fill-opacity:1;stroke:none;stroke-width:1px;stroke-linecap:butt;stroke-linejoin:miter;stroke-opacity:1;font-family:Bitstream Vera Sans"
       transform="matrix(4.1250743,0,0,4.1250743,-470.62806,-3859.4051)"><flowRegion
         id="flowRegion3396"><rect
           id="rect3398"
           width="385.25931"
           height="122.26792"
           x="136.10957"
           y="1248.4067" /></flowRegion><flowPara
         id="flowPara3400" /></flowRoot>    <rect
       style="fill:none;fill-rule:evenodd;stroke:#0000ff;stroke-width:0.625;stroke-linecap:butt;stroke-linejoin:miter;stroke-miterlimit:4;stroke-dasharray:none;stroke-opacity:1"
       id="rect2566"
       width="696.875"
       height="674.375"
       x="22.8125"
       y="22.8125"
       ry="11.249999"
       rx="11.250002" />
    <flowRoot
       xml:space="preserve"
       id="flowRoot2607"
       style="font-size:12px;font-style:normal;font-weight:normal;text-align:center;text-anchor:middle;fill:#000000;fill-opacity:1;stroke:none;stroke-width:1px;stroke-linecap:butt;stroke-linejoin:miter;stroke-opacity:1;font-family:Bitstream Vera Sans"
       transform="matrix(4.1250743,0,0,4.1250743,520.61323,-3861.9346)"><flowRegion
         id="flowRegion2609"><rect
           id="rect2611"
           width="385.25931"
           height="122.26792"
           x="136.10957"
           y="1248.4067" /></flowRegion><flowPara
         id="flowPara2613" /></flowRoot>    <rect
       y="94.770317"
       x="89.998451"
       height="255.9375"
       width="562.50311"
       id="rect3424"
       style="fill:#1cbf00;fill-opacity:0.36274509999999999;fill-rule:evenodd;stroke:#ff00ff;stroke-width:0.62499994000000003;stroke-linecap:butt;stroke-linejoin:miter;stroke-miterlimit:4;stroke-dasharray:none;stroke-opacity:1" />
    <path
       transform="matrix(0.2461111,0,0,0.3281482,71.171881,350.52612)"
       d="M 151.875,-39.375 A 22.5,16.875 0 1 1 106.875,-39.375 A 22.5,16.875 0 1 1 151.875,-39.375 z"
       sodipodi:ry="16.875"
       sodipodi:rx="22.5"
       sodipodi:cy="-39.375"
       sodipodi:cx="129.375"
       id="path3426"
       style="fill:#ffffff;fill-opacity:1;fill-rule:evenodd;stroke:#000000;stroke-width:2.19927406;stroke-linecap:butt;stroke-linejoin:miter;stroke-miterlimit:4;stroke-dasharray:none;stroke-opacity:1"
       sodipodi:type="arc" />
    <path
       sodipodi:type="arc"
       style="fill:#ffffff;fill-opacity:1;fill-rule:evenodd;stroke:#000000;stroke-width:2.19927406;stroke-linecap:butt;stroke-linejoin:miter;stroke-miterlimit:4;stroke-dasharray:none;stroke-opacity:1"
       id="path3428"
       sodipodi:cx="129.375"
       sodipodi:cy="-39.375"
       sodipodi:rx="22.5"
       sodipodi:ry="16.875"
       d="M 151.875,-39.375 A 22.5,16.875 0 1 1 106.875,-39.375 A 22.5,16.875 0 1 1 151.875,-39.375 z"
       transform="matrix(0.2461111,0,0,0.3281482,607.75332,350.52612)" />
    <path
       sodipodi:type="arc"
       style="fill:#ffffff;fill-opacity:1;fill-rule:evenodd;stroke:#000000;stroke-width:2.19927406;stroke-linecap:butt;stroke-linejoin:miter;stroke-miterlimit:4;stroke-dasharray:none;stroke-opacity:1"
       id="path3430"
       sodipodi:cx="129.375"
       sodipodi:cy="-39.375"
       sodipodi:rx="22.5"
       sodipodi:ry="16.875"
       d="M 151.875,-39.375 A 22.5,16.875 0 1 1 106.875,-39.375 A 22.5,16.875 0 1 1 151.875,-39.375 z"
       transform="matrix(0.2461111,0,0,0.3281482,70.262795,120.84472)" />
    <path
       transform="matrix(0.2461111,0,0,0.3281482,609.71242,118.9891)"
       d="M 151.875,-39.375 A 22.5,16.875 0 1 1 106.875,-39.375 A 22.5,16.875 0 1 1 151.875,-39.375 z"
       sodipodi:ry="16.875"
       sodipodi:rx="22.5"
       sodipodi:cy="-39.375"
       sodipodi:cx="129.375"
       id="path3432"
       style="fill:#ffffff;fill-opacity:1;fill-rule:evenodd;stroke:#000000;stroke-width:2.19927406;stroke-linecap:butt;stroke-linejoin:miter;stroke-miterlimit:4;stroke-dasharray:none;stroke-opacity:1"
       sodipodi:type="arc" />
    <path
       transform="matrix(0.2461111,0,0,0.3281482,81.109376,58.370835)"
       d="M 151.875,-39.375 A 22.5,16.875 0 1 1 106.875,-39.375 A 22.5,16.875 0 1 1 151.875,-39.375 z"
       sodipodi:ry="16.875"
       sodipodi:rx="22.5"
       sodipodi:cy="-39.375"
       sodipodi:cx="129.375"
       id="path3372"
       style="fill:#ffffff;fill-opacity:1;fill-rule:evenodd;stroke:#000000;stroke-width:2.19927406;stroke-linecap:butt;stroke-linejoin:miter;stroke-miterlimit:4;stroke-dasharray:none;stroke-opacity:1"
       sodipodi:type="arc" />
    <path
       sodipodi:type="arc"
       style="fill:#ffffff;fill-opacity:1;fill-rule:evenodd;stroke:#000000;stroke-width:2.19927406;stroke-linecap:butt;stroke-linejoin:miter;stroke-miterlimit:4;stroke-dasharray:none;stroke-opacity:1"
       id="path3374"
       sodipodi:cx="129.375"
       sodipodi:cy="-39.375"
       sodipodi:rx="22.5"
       sodipodi:ry="16.875"
       d="M 151.875,-39.375 A 22.5,16.875 0 1 1 106.875,-39.375 A 22.5,16.875 0 1 1 151.875,-39.375 z"
       transform="matrix(0.2461111,0,0,0.3281482,598.60938,58.370835)" />
    <path
       sodipodi:type="arc"
       style="fill:#ffffff;fill-opacity:1;fill-rule:evenodd;stroke:#000000;stroke-width:2.19927406;stroke-linecap:butt;stroke-linejoin:miter;stroke-miterlimit:4;stroke-dasharray:none;stroke-opacity:1"
       id="path3380"
       sodipodi:cx="129.375"
       sodipodi:cy="-39.375"
       sodipodi:rx="22.5"
       sodipodi:ry="16.875"
       d="M 151.875,-39.375 A 22.5,16.875 0 1 1 106.875,-39.375 A 22.5,16.875 0 1 1 151.875,-39.375 z"
       transform="matrix(0.2461111,0,0,0.3281482,13.609375,124.97083)" />
    <path
       transform="matrix(0.2461111,0,0,0.3281482,666.10938,124.97083)"
       d="M 151.875,-39.375 A 22.5,16.875 0 1 1 106.875,-39.375 A 22.5,16.875 0 1 1 151.875,-39.375 z"
       sodipodi:ry="16.875"
       sodipodi:rx="22.5"
       sodipodi:cy="-39.375"
       sodipodi:cx="129.375"
       id="path3382"
       style="fill:#ffffff;fill-opacity:1;fill-rule:evenodd;stroke:#000000;stroke-width:2.19927406;stroke-linecap:butt;stroke-linejoin:miter;stroke-miterlimit:4;stroke-dasharray:none;stroke-opacity:1"
       sodipodi:type="arc" />
    <g
       id="g2500"
       transform="translate(-7.3750076,0.3750105)">
      <rect
         y="103.84531"
         x="583.0047"
         height="62.375"
         width="44.921883"
         id="rect2438"
         style="fill:#1cbf00;fill-opacity:0.3627451;fill-rule:evenodd;stroke:#ff00ff;stroke-width:0.62499994;stroke-linecap:butt;stroke-linejoin:miter;marker:none;marker-start:none;marker-mid:none;marker-end:none;stroke-miterlimit:4;stroke-dasharray:none;stroke-dashoffset:0;stroke-opacity:1;visibility:visible;display:inline;overflow:visible;enable-background:accumulate" />
      <rect
         style="fill:#1cbf00;fill-opacity:0.3627451;fill-rule:evenodd;stroke:#ff00ff;stroke-width:0.62499994;stroke-linecap:butt;stroke-linejoin:miter;marker:none;marker-start:none;marker-mid:none;marker-end:none;stroke-miterlimit:4;stroke-dasharray:none;stroke-dashoffset:0;stroke-opacity:1;visibility:visible;display:inline;overflow:visible;enable-background:accumulate"
         id="rect2440"
         width="44.921883"
         height="62.375"
         x="538.08282"
         y="103.84531" />
      <rect
         style="fill:#1cbf00;fill-opacity:0.3627451;fill-rule:evenodd;stroke:#ff00ff;stroke-width:0.62499994;stroke-linecap:butt;stroke-linejoin:miter;marker:none;marker-start:none;marker-mid:none;marker-end:none;stroke-miterlimit:4;stroke-dasharray:none;stroke-dashoffset:0;stroke-opacity:1;visibility:visible;display:inline;overflow:visible;enable-background:accumulate"
         id="rect2442"
         width="44.921883"
         height="62.375"
         x="493.16095"
         y="103.84531" />
      <rect
         y="103.84531"
         x="448.23907"
         height="62.375"
         width="44.921883"
         id="rect2444"
         style="fill:#1cbf00;fill-opacity:0.3627451;fill-rule:evenodd;stroke:#ff00ff;stroke-width:0.62499994;stroke-linecap:butt;stroke-linejoin:miter;marker:none;marker-start:none;marker-mid:none;marker-end:none;stroke-miterlimit:4;stroke-dasharray:none;stroke-dashoffset:0;stroke-opacity:1;visibility:visible;display:inline;overflow:visible;enable-background:accumulate" />
      <rect
         style="fill:#1cbf00;fill-opacity:0.3627451;fill-rule:evenodd;stroke:#ff00ff;stroke-width:0.62499994;stroke-linecap:butt;stroke-linejoin:miter;marker:none;marker-start:none;marker-mid:none;marker-end:none;stroke-miterlimit:4;stroke-dasharray:none;stroke-dashoffset:0;stroke-opacity:1;visibility:visible;display:inline;overflow:visible;enable-background:accumulate"
         id="rect2446"
         width="44.921883"
         height="62.375"
         x="403.3172"
         y="103.84531" />
      <rect
         y="103.84531"
         x="358.39532"
         height="62.375"
         width="44.921883"
         id="rect2448"
         style="fill:#1cbf00;fill-opacity:0.3627451;fill-rule:evenodd;stroke:#ff00ff;stroke-width:0.62499994;stroke-linecap:butt;stroke-linejoin:miter;marker:none;marker-start:none;marker-mid:none;marker-end:none;stroke-miterlimit:4;stroke-dasharray:none;stroke-dashoffset:0;stroke-opacity:1;visibility:visible;display:inline;overflow:visible;enable-background:accumulate" />
      <rect
         y="103.84531"
         x="313.47345"
         height="62.375"
         width="44.921883"
         id="rect2450"
         style="fill:#1cbf00;fill-opacity:0.3627451;fill-rule:evenodd;stroke:#ff00ff;stroke-width:0.62499994;stroke-linecap:butt;stroke-linejoin:miter;marker:none;marker-start:none;marker-mid:none;marker-end:none;stroke-miterlimit:4;stroke-dasharray:none;stroke-dashoffset:0;stroke-opacity:1;visibility:visible;display:inline;overflow:visible;enable-background:accumulate" />
      <rect
         style="fill:#1cbf00;fill-opacity:0.3627451;fill-rule:evenodd;stroke:#ff00ff;stroke-width:0.62499994;stroke-linecap:butt;stroke-linejoin:miter;marker:none;marker-start:none;marker-mid:none;marker-end:none;stroke-miterlimit:4;stroke-dasharray:none;stroke-dashoffset:0;stroke-opacity:1;visibility:visible;display:inline;overflow:visible;enable-background:accumulate"
         id="rect2452"
         width="44.921883"
         height="62.375"
         x="268.55157"
         y="103.84531" />
    </g>
    <rect
       style="fill:#1cbf00;fill-opacity:0.3627451;fill-rule:evenodd;stroke:#ff00ff;stroke-width:0.62499994;stroke-linecap:butt;stroke-linejoin:miter;stroke-miterlimit:4;stroke-dasharray:none;stroke-opacity:1"
       id="rect2447"
       width="562.50311"
       height="255.9375"
       x="89.998451"
       y="364.77032" />
    <path
       sodipodi:type="arc"
       style="fill:#ffffff;fill-opacity:1;fill-rule:evenodd;stroke:#000000;stroke-width:2.19927406;stroke-linecap:butt;stroke-linejoin:miter;stroke-miterlimit:4;stroke-dasharray:none;stroke-opacity:1"
       id="path2449"
       sodipodi:cx="129.375"
       sodipodi:cy="-39.375"
       sodipodi:rx="22.5"
       sodipodi:ry="16.875"
       d="M 151.875,-39.375 A 22.5,16.875 0 1 1 106.875,-39.375 A 22.5,16.875 0 1 1 151.875,-39.375 z"
       transform="matrix(0.2461111,0,0,0.3281482,71.171881,620.52612)" />
    <path
       transform="matrix(0.2461111,0,0,0.3281482,607.75332,620.52612)"
       d="M 151.875,-39.375 A 22.5,16.875 0 1 1 106.875,-39.375 A 22.5,16.875 0 1 1 151.875,-39.375 z"
       sodipodi:ry="16.875"
       sodipodi:rx="22.5"
       sodipodi:cy="-39.375"
       sodipodi:cx="129.375"
       id="path2451"
       style="fill:#ffffff;fill-opacity:1;fill-rule:evenodd;stroke:#000000;stroke-width:2.19927406;stroke-linecap:butt;stroke-linejoin:miter;stroke-miterlimit:4;stroke-dasharray:none;stroke-opacity:1"
       sodipodi:type="arc" />
    <path
       transform="matrix(0.2461111,0,0,0.3281482,70.262795,390.84472)"
       d="M 151.875,-39.375 A 22.5,16.875 0 1 1 106.875,-39.375 A 22.5,16.875 0 1 1 151.875,-39.375 z"
       sodipodi:ry="16.875"
       sodipodi:rx="22.5"
       sodipodi:cy="-39.375"
       sodipodi:cx="129.375"
       id="path2453"
       style="fill:#ffffff;fill-opacity:1;fill-rule:evenodd;stroke:#000000;stroke-width:2.19927406;stroke-linecap:butt;stroke-linejoin:miter;stroke-miterlimit:4;stroke-dasharray:none;stroke-opacity:1"
       sodipodi:type="arc" />
    <path
       sodipodi:type="arc"
       style="fill:#ffffff;fill-opacity:1;fill-rule:evenodd;stroke:#000000;stroke-width:2.19927406;stroke-linecap:butt;stroke-linejoin:miter;stroke-miterlimit:4;stroke-dasharray:none;stroke-opacity:1"
       id="path2455"
       sodipodi:cx="129.375"
       sodipodi:cy="-39.375"
       sodipodi:rx="22.5"
       sodipodi:ry="16.875"
       d="M 151.875,-39.375 A 22.5,16.875 0 1 1 106.875,-39.375 A 22.5,16.875 0 1 1 151.875,-39.375 z"
       transform="matrix(0.2461111,0,0,0.3281482,609.71242,388.9891)" />
    <g
       transform="translate(-7.3750076,270.37501)"
       id="g2467">
      <rect
         style="fill:#1cbf00;fill-opacity:0.3627451;fill-rule:evenodd;stroke:#ff00ff;stroke-width:0.62499994;stroke-linecap:butt;stroke-linejoin:miter;marker:none;marker-start:none;marker-mid:none;marker-end:none;stroke-miterlimit:4;stroke-dasharray:none;stroke-dashoffset:0;stroke-opacity:1;visibility:visible;display:inline;overflow:visible;enable-background:accumulate"
         id="rect2469"
         width="44.921883"
         height="62.375"
         x="583.0047"
         y="103.84531" />
      <rect
         y="103.84531"
         x="538.08282"
         height="62.375"
         width="44.921883"
         id="rect2471"
         style="fill:#1cbf00;fill-opacity:0.3627451;fill-rule:evenodd;stroke:#ff00ff;stroke-width:0.62499994;stroke-linecap:butt;stroke-linejoin:miter;marker:none;marker-start:none;marker-mid:none;marker-end:none;stroke-miterlimit:4;stroke-dasharray:none;stroke-dashoffset:0;stroke-opacity:1;visibility:visible;display:inline;overflow:visible;enable-background:accumulate" />
      <rect
         y="103.84531"
         x="493.16095"
         height="62.375"
         width="44.921883"
         id="rect2473"
         style="fill:#1cbf00;fill-opacity:0.3627451;fill-rule:evenodd;stroke:#ff00ff;stroke-width:0.62499994;stroke-linecap:butt;stroke-linejoin:miter;marker:none;marker-start:none;marker-mid:none;marker-end:none;stroke-miterlimit:4;stroke-dasharray:none;stroke-dashoffset:0;stroke-opacity:1;visibility:visible;display:inline;overflow:visible;enable-background:accumulate" />
      <rect
         style="fill:#1cbf00;fill-opacity:0.3627451;fill-rule:evenodd;stroke:#ff00ff;stroke-width:0.62499994;stroke-linecap:butt;stroke-linejoin:miter;marker:none;marker-start:none;marker-mid:none;marker-end:none;stroke-miterlimit:4;stroke-dasharray:none;stroke-dashoffset:0;stroke-opacity:1;visibility:visible;display:inline;overflow:visible;enable-background:accumulate"
         id="rect2475"
         width="44.921883"
         height="62.375"
         x="448.23907"
         y="103.84531" />
      <rect
         y="103.84531"
         x="403.3172"
         height="62.375"
         width="44.921883"
         id="rect2477"
         style="fill:#1cbf00;fill-opacity:0.3627451;fill-rule:evenodd;stroke:#ff00ff;stroke-width:0.62499994;stroke-linecap:butt;stroke-linejoin:miter;marker:none;marker-start:none;marker-mid:none;marker-end:none;stroke-miterlimit:4;stroke-dasharray:none;stroke-dashoffset:0;stroke-opacity:1;visibility:visible;display:inline;overflow:visible;enable-background:accumulate" />
      <rect
         style="fill:#1cbf00;fill-opacity:0.3627451;fill-rule:evenodd;stroke:#ff00ff;stroke-width:0.62499994;stroke-linecap:butt;stroke-linejoin:miter;marker:none;marker-start:none;marker-mid:none;marker-end:none;stroke-miterlimit:4;stroke-dasharray:none;stroke-dashoffset:0;stroke-opacity:1;visibility:visible;display:inline;overflow:visible;enable-background:accumulate"
         id="rect2479"
         width="44.921883"
         height="62.375"
         x="358.39532"
         y="103.84531" />
      <rect
         style="fill:#1cbf00;fill-opacity:0.3627451;fill-rule:evenodd;stroke:#ff00ff;stroke-width:0.62499994;stroke-linecap:butt;stroke-linejoin:miter;marker:none;marker-start:none;marker-mid:none;marker-end:none;stroke-miterlimit:4;stroke-dasharray:none;stroke-dashoffset:0;stroke-opacity:1;visibility:visible;display:inline;overflow:visible;enable-background:accumulate"
         id="rect2481"
         width="44.921883"
         height="62.375"
         x="313.47345"
         y="103.84531" />
      <rect
         y="103.84531"
         x="268.55157"
         height="62.375"
         width="44.921883"
         id="rect2483"
         style="fill:#1cbf00;fill-opacity:0.3627451;fill-rule:evenodd;stroke:#ff00ff;stroke-width:0.62499994;stroke-linecap:butt;stroke-linejoin:miter;marker:none;marker-start:none;marker-mid:none;marker-end:none;stroke-miterlimit:4;stroke-dasharray:none;stroke-dashoffset:0;stroke-opacity:1;visibility:visible;display:inline;overflow:visible;enable-background:accumulate" />
    </g>
    <rect
       style="fill:#1cbf00;fill-opacity:0.3627451;fill-rule:evenodd;stroke:#ff00ff;stroke-width:0.62499994;stroke-linecap:butt;stroke-linejoin:miter;marker:none;marker-start:none;marker-mid:none;marker-end:none;stroke-miterlimit:4;stroke-dasharray:none;stroke-dashoffset:0;stroke-opacity:1;visibility:visible;display:inline;overflow:visible;enable-background:accumulate"
       id="rect2500"
       width="426.87497"
       height="44.375"
       x="231.11407"
       y="185.9825" />
    <path
       sodipodi:type="arc"
       style="fill:#ffffff;fill-opacity:1;fill-rule:evenodd;stroke:#000000;stroke-width:0.79897213;stroke-linecap:butt;stroke-linejoin:miter;marker:none;marker-start:none;marker-mid:none;marker-end:none;stroke-miterlimit:4;stroke-dasharray:none;stroke-dashoffset:0;stroke-opacity:1;visibility:visible;display:inline;overflow:visible;enable-background:accumulate"
       id="path2514"
       sodipodi:cx="745.92841"
       sodipodi:cy="80.367744"
       sodipodi:rx="6.3670845"
       sodipodi:ry="7.3466358"
       d="M 752.29549,80.367744 A 6.3670845,7.3466358 0 1 1 739.56132,80.367744 A 6.3670845,7.3466358 0 1 1 752.29549,80.367744 z"
       transform="matrix(0.840294,0,0,0.7282245,-373.23486,149.38174)" />
    <path
       id="path2516"
       d="M 641.41452,207.86251 C 641.41452,210.81571 639.01762,213.21251 636.0643,213.21251 C 633.11098,213.21251 630.71407,210.81571 630.71407,207.86251 C 630.71407,204.90931 633.11098,202.51251 636.0643,202.51251 C 639.01762,202.51251 641.41452,204.90931 641.41452,207.86251 z"
       style="fill:#ffffff;fill-opacity:1;fill-rule:evenodd;stroke:#000000;stroke-width:0.62499982;stroke-linecap:butt;stroke-linejoin:miter;marker:none;marker-start:none;marker-mid:none;marker-end:none;stroke-miterlimit:4;stroke-dashoffset:0;stroke-opacity:1;visibility:visible;display:inline;overflow:visible;enable-background:accumulate" />
    <path
       style="font-size:24px;font-style:normal;font-variant:normal;font-weight:normal;font-stretch:normal;text-align:center;line-height:125%;writing-mode:lr-tb;text-anchor:middle;fill:none;fill-opacity:1;fill-rule:nonzero;stroke:#ff0000;stroke-width:1px;stroke-linecap:butt;stroke-linejoin:miter;stroke-miterlimit:4;stroke-dashoffset:0;stroke-opacity:1;marker:none;marker-start:none;marker-mid:none;marker-end:none;visibility:visible;display:inline;overflow:visible;enable-background:accumulate;font-family:Futura Md BT;-inkscape-font-specification:Futura Md BT"
       d="M 364.23712,216.68953 L 364.23712,199.53328 L 367.02618,199.53328 L 367.02618,214.19344 L 373.26056,214.19344 L 373.26056,216.68953 L 364.23712,216.68953 M 377.784,205.58015 L 377.784,211.83797 C 377.78399,212.9161 378.00665,213.68953 378.45197,214.15828 C 378.89727,214.62703 379.61993,214.86141 380.61993,214.8614 C 381.61993,214.86141 382.34258,214.62703 382.7879,214.15828 C 383.23321,213.68953 383.45586,212.9161 383.45587,211.83797 L 383.45587,205.58015 L 385.99884,205.58015 L 385.99884,211.07625 C 385.99883,213.20125 385.57305,214.74422 384.7215,215.70515 C 383.86992,216.66609 382.51055,217.14656 380.64337,217.14656 C 378.74493,217.14656 377.36993,216.67 376.51837,215.71687 C 375.66681,214.76375 375.24103,213.21688 375.24103,211.07625 L 375.24103,205.58015 L 377.784,205.58015 M 389.43243,216.68953 L 389.43243,205.58015 L 391.82306,205.58015 L 391.82306,207.39656 C 392.33087,206.63095 392.92852,206.07235 393.61603,205.72078 C 394.30352,205.36923 395.13946,205.19345 396.12384,205.19344 C 396.95196,205.19345 397.65508,205.32626 398.23322,205.59187 C 398.81914,205.8497 399.27617,206.23641 399.60431,206.75203 C 399.79961,207.05673 399.94023,207.41219 400.02618,207.81844 C 400.11211,208.22469 400.15508,208.93563 400.15509,209.95125 L 400.15509,216.68953 L 397.58868,216.68953 L 397.58868,210.9825 C 397.58867,209.52157 397.40899,208.55282 397.04962,208.07625 C 396.69805,207.59188 396.06914,207.3497 395.1629,207.34969 C 394.56915,207.3497 394.0379,207.45907 393.56915,207.67781 C 393.10821,207.89657 392.74493,208.20516 392.47931,208.60359 C 392.2918,208.86922 392.15899,209.21297 392.08087,209.63484 C 392.01055,210.04891 391.9754,210.71297 391.9754,211.62703 L 391.9754,216.68953 L 389.43243,216.68953 M 413.99493,216.68953 L 411.45197,216.68953 L 411.45197,215.24812 C 410.99883,215.88875 410.46758,216.36531 409.85822,216.67781 C 409.25665,216.99031 408.56524,217.14656 407.784,217.14656 C 406.21368,217.14656 404.9754,216.6114 404.06915,215.54109 C 403.17071,214.46297 402.7215,212.99031 402.7215,211.12312 C 402.7215,209.34969 403.18243,207.92001 404.10431,206.83406 C 405.02618,205.74032 406.2293,205.19345 407.71368,205.19344 C 408.61993,205.19345 409.39336,205.38485 410.034,205.76765 C 410.68243,206.14266 411.15508,206.68563 411.45197,207.39656 L 411.45197,205.58015 L 413.99493,205.58015 L 413.99493,216.68953 M 411.52228,211.09969 C 411.52227,209.95125 411.25274,209.05672 410.71368,208.41609 C 410.18243,207.77548 409.43633,207.45516 408.4754,207.45515 C 407.51446,207.45516 406.75665,207.78719 406.20197,208.45125 C 405.65509,209.10751 405.38165,210.02157 405.38165,211.19344 C 405.38165,212.37313 405.64727,213.28328 406.17853,213.9239 C 406.70977,214.56453 407.45977,214.88484 408.42853,214.88484 C 409.34258,214.88484 410.08477,214.53719 410.65509,213.84187 C 411.23321,213.14656 411.52227,212.2325 411.52228,211.09969 M 420.05353,207.34969 C 420.32696,206.61532 420.68634,206.07235 421.13165,205.72078 C 421.58477,205.36923 422.14337,205.19345 422.80743,205.19344 C 423.1668,205.19345 423.51836,205.23642 423.86212,205.32234 C 424.21368,205.40829 424.55743,205.53329 424.89337,205.69734 L 423.97931,207.85359 C 423.76055,207.69735 423.52227,207.58407 423.26447,207.51375 C 423.01446,207.43563 422.73321,207.39657 422.42072,207.39656 C 421.57696,207.39657 420.97149,207.73641 420.60431,208.41609 C 420.23712,209.08797 420.05352,210.22079 420.05353,211.81453 L 420.05353,216.68953 L 417.51056,216.68953 L 417.51056,205.55672 L 420.05353,205.55672 L 420.05353,207.34969 M 436.63556,214.17 L 438.97931,214.17 C 440.26836,214.17 441.23321,214.08406 441.87384,213.91219 C 442.52227,213.74031 443.08477,213.45125 443.56134,213.045 C 444.20977,212.49031 444.69414,211.80282 445.01447,210.9825 C 445.34258,210.15438 445.50664,209.19344 445.50665,208.09969 C 445.50664,207.00595 445.34258,206.04892 445.01447,205.22859 C 444.69414,204.40048 444.20977,203.70907 443.56134,203.15437 C 443.07695,202.74814 442.49492,202.45907 441.81525,202.28719 C 441.14336,202.11533 440.08868,202.02939 438.65118,202.02937 L 437.64337,202.02937 L 436.63556,202.02937 L 436.63556,214.17 M 433.8465,216.68953 L 433.8465,199.53328 L 437.60822,199.53328 C 440.05352,199.5333 441.77227,199.6583 442.76447,199.90828 C 443.76445,200.15048 444.63945,200.56064 445.38947,201.13875 C 446.38164,201.89658 447.13164,202.86923 447.63947,204.05672 C 448.15507,205.24423 448.41289,206.5997 448.4129,208.12312 C 448.41289,209.64657 448.15507,210.99813 447.63947,212.17781 C 447.13164,213.34969 446.38164,214.31844 445.38947,215.08406 C 444.63945,215.66219 443.78398,216.07625 442.82306,216.32625 C 441.86992,216.56844 440.38164,216.68953 438.35822,216.68953 L 437.60822,216.68953 L 433.8465,216.68953 M 451.17853,200.77547 C 451.17853,200.3458 451.33478,199.9747 451.64728,199.66219 C 451.96759,199.3497 452.34649,199.19345 452.784,199.19344 C 453.23712,199.19345 453.61212,199.3458 453.909,199.65047 C 454.21368,199.94736 454.36602,200.32236 454.36603,200.77547 C 454.36602,201.22861 454.21368,201.61142 453.909,201.9239 C 453.60431,202.22861 453.22931,202.38095 452.784,202.38094 C 452.34649,202.38095 451.96759,202.2247 451.64728,201.91219 C 451.33478,201.59189 451.17853,201.21298 451.17853,200.77547 M 451.51837,216.68953 L 451.51837,205.58015 L 454.06134,205.58015 L 454.06134,216.68953 L 451.51837,216.68953 M 456.40509,214.6739 L 458.51447,213.52547 C 458.67071,214.08016 458.95977,214.50203 459.38165,214.79109 C 459.80352,215.08016 460.34649,215.22469 461.01056,215.22469 C 461.58087,215.22469 462.02618,215.09578 462.3465,214.83797 C 462.67461,214.57234 462.83868,214.21297 462.83868,213.75984 C 462.83868,213.15828 462.26055,212.64266 461.10431,212.21297 C 460.71368,212.07235 460.4129,211.95516 460.20197,211.8614 C 459.01446,211.36922 458.18243,210.86922 457.70587,210.3614 C 457.23712,209.8536 457.00275,209.23641 457.00275,208.50984 C 457.00275,207.51766 457.38946,206.71298 458.1629,206.09578 C 458.94415,205.4786 459.9754,205.17001 461.25665,205.17 C 462.11602,205.17001 462.8504,205.33017 463.45978,205.65047 C 464.07696,205.96298 464.52618,206.4122 464.80743,206.99812 L 463.00275,208.24031 C 462.86993,207.88876 462.63555,207.61141 462.29962,207.40828 C 461.97149,207.19735 461.58868,207.09188 461.15118,207.09187 C 460.6668,207.09188 460.27618,207.20907 459.97931,207.44344 C 459.69024,207.67001 459.54571,207.97469 459.54572,208.3575 C 459.54571,208.93563 460.20196,209.46297 461.51447,209.93953 C 461.92852,210.08797 462.24883,210.20907 462.4754,210.30281 C 463.49883,210.70907 464.2293,211.17 464.66681,211.68562 C 465.11211,212.19344 465.33477,212.83016 465.33478,213.59578 C 465.33477,214.70516 464.93243,215.57625 464.12775,216.20906 C 463.32305,216.83406 462.21368,217.14656 460.79962,217.14656 C 459.71368,217.14656 458.81134,216.94344 458.09259,216.53719 C 457.37384,216.13094 456.81134,215.50984 456.40509,214.6739 M 468.49884,216.68953 L 468.49884,207.80672 L 466.55353,207.80672 L 466.55353,205.58015 L 468.49884,205.58015 L 468.49884,201.37312 L 471.04181,201.37312 L 471.04181,205.58015 L 472.98712,205.58015 L 472.98712,207.80672 L 471.04181,207.80672 L 471.04181,216.68953 L 468.49884,216.68953 M 485.61993,216.68953 L 483.07697,216.68953 L 483.07697,215.24812 C 482.62383,215.88875 482.09258,216.36531 481.48322,216.67781 C 480.88165,216.99031 480.19024,217.14656 479.409,217.14656 C 477.83868,217.14656 476.6004,216.6114 475.69415,215.54109 C 474.79571,214.46297 474.3465,212.99031 474.3465,211.12312 C 474.3465,209.34969 474.80743,207.92001 475.72931,206.83406 C 476.65118,205.74032 477.8543,205.19345 479.33868,205.19344 C 480.24493,205.19345 481.01836,205.38485 481.659,205.76765 C 482.30743,206.14266 482.78008,206.68563 483.07697,207.39656 L 483.07697,205.58015 L 485.61993,205.58015 L 485.61993,216.68953 M 483.14728,211.09969 C 483.14727,209.95125 482.87774,209.05672 482.33868,208.41609 C 481.80743,207.77548 481.06133,207.45516 480.1004,207.45515 C 479.13946,207.45516 478.38165,207.78719 477.82697,208.45125 C 477.28009,209.10751 477.00665,210.02157 477.00665,211.19344 C 477.00665,212.37313 477.27227,213.28328 477.80353,213.9239 C 478.33477,214.56453 479.08477,214.88484 480.05353,214.88484 C 480.96758,214.88484 481.70977,214.53719 482.28009,213.84187 C 482.85821,213.14656 483.14727,212.2325 483.14728,211.09969 M 489.13556,216.68953 L 489.13556,205.58015 L 491.52618,205.58015 L 491.52618,207.39656 C 492.03399,206.63095 492.63165,206.07235 493.31915,205.72078 C 494.00665,205.36923 494.84258,205.19345 495.82697,205.19344 C 496.65508,205.19345 497.35821,205.32626 497.93634,205.59187 C 498.52227,205.8497 498.9793,206.23641 499.30743,206.75203 C 499.50273,207.05673 499.64336,207.41219 499.72931,207.81844 C 499.81523,208.22469 499.8582,208.93563 499.85822,209.95125 L 499.85822,216.68953 L 497.29181,216.68953 L 497.29181,210.9825 C 497.2918,209.52157 497.11211,208.55282 496.75275,208.07625 C 496.40118,207.59188 495.77227,207.3497 494.86603,207.34969 C 494.27227,207.3497 493.74102,207.45907 493.27228,207.67781 C 492.81133,207.89657 492.44805,208.20516 492.18243,208.60359 C 491.99493,208.86922 491.86212,209.21297 491.784,209.63484 C 491.71368,210.04891 491.67852,210.71297 491.67853,211.62703 L 491.67853,216.68953 L 489.13556,216.68953 M 511.54181,208.74422 C 511.15117,208.31454 510.69414,207.98641 510.17072,207.75984 C 509.65508,207.53329 509.09649,207.42001 508.49493,207.42 C 507.45587,207.42001 506.62384,207.75594 505.99884,208.42781 C 505.37384,209.09969 505.06134,209.99032 505.06134,211.09969 C 505.06134,212.25594 505.37384,213.1661 505.99884,213.83015 C 506.63165,214.48641 507.50274,214.81453 508.61212,214.81453 C 509.2293,214.81453 509.78008,214.70125 510.26447,214.47469 C 510.74883,214.24031 511.17461,213.88875 511.54181,213.42 L 511.54181,216.34969 C 511.07305,216.61531 510.56914,216.81453 510.03009,216.94734 C 509.49883,217.08015 508.93243,217.14656 508.33087,217.14656 C 506.58868,217.14656 505.16681,216.59187 504.06525,215.4825 C 502.9715,214.37313 502.42462,212.93563 502.42462,211.17 C 502.42462,209.38094 502.99103,207.93954 504.12384,206.84578 C 505.26446,205.74423 506.75274,205.19345 508.58868,205.19344 C 509.1668,205.19345 509.69805,205.25204 510.18243,205.36922 C 510.6668,205.4786 511.11992,205.65048 511.54181,205.88484 L 511.54181,208.74422 M 524.86603,211.50984 L 515.98322,211.50984 C 516.04571,212.54891 516.35431,213.36141 516.909,213.94734 C 517.46368,214.52547 518.20196,214.81453 519.12384,214.81453 C 519.94415,214.81453 520.62774,214.64266 521.17462,214.2989 C 521.72149,213.95516 522.19805,213.40047 522.60431,212.63484 L 524.74884,213.83015 C 524.12383,214.94734 523.35039,215.77937 522.42853,216.32625 C 521.50664,216.87312 520.42461,217.14656 519.18243,217.14656 C 517.40118,217.14656 515.98321,216.60359 514.92853,215.51765 C 513.87384,214.43172 513.3465,212.9825 513.3465,211.17 C 513.3465,209.42782 513.88946,207.99813 514.9754,206.88094 C 516.06915,205.75595 517.47149,205.19345 519.18243,205.19344 C 520.97149,205.19345 522.36602,205.70517 523.36603,206.72859 C 524.36602,207.75204 524.86602,209.18563 524.86603,211.02937 L 524.86603,211.50984 M 522.22931,209.7989 C 522.12774,209.00204 521.82305,208.39657 521.31525,207.9825 C 520.80743,207.56063 520.11211,207.3497 519.22931,207.34969 C 518.39337,207.3497 517.72149,207.55282 517.21368,207.95906 C 516.70587,208.36532 516.3504,208.9786 516.14728,209.7989 L 522.22931,209.7989"
       id="text2439" />
    <rect
       y="455.98248"
       x="231.11407"
       height="44.375"
       width="426.87497"
       id="rect2457"
       style="fill:#1cbf00;fill-opacity:0.3627451;fill-rule:evenodd;stroke:#ff00ff;stroke-width:0.62499994;stroke-linecap:butt;stroke-linejoin:miter;marker:none;marker-start:none;marker-mid:none;marker-end:none;stroke-miterlimit:4;stroke-dasharray:none;stroke-dashoffset:0;stroke-opacity:1;visibility:visible;display:inline;overflow:visible;enable-background:accumulate" />
    <path
       transform="matrix(0.840294,0,0,0.7282245,-373.23486,419.38174)"
       d="M 752.29549,80.367744 A 6.3670845,7.3466358 0 1 1 739.56132,80.367744 A 6.3670845,7.3466358 0 1 1 752.29549,80.367744 z"
       sodipodi:ry="7.3466358"
       sodipodi:rx="6.3670845"
       sodipodi:cy="80.367744"
       sodipodi:cx="745.92841"
       id="path2459"
       style="fill:#ffffff;fill-opacity:1;fill-rule:evenodd;stroke:#000000;stroke-width:0.79897213;stroke-linecap:butt;stroke-linejoin:miter;marker:none;marker-start:none;marker-mid:none;marker-end:none;stroke-miterlimit:4;stroke-dasharray:none;stroke-dashoffset:0;stroke-opacity:1;visibility:visible;display:inline;overflow:visible;enable-background:accumulate"
       sodipodi:type="arc" />
    <path
       style="fill:#ffffff;fill-opacity:1;fill-rule:evenodd;stroke:#000000;stroke-width:0.62499982;stroke-linecap:butt;stroke-linejoin:miter;marker:none;marker-start:none;marker-mid:none;marker-end:none;stroke-miterlimit:4;stroke-dashoffset:0;stroke-opacity:1;visibility:visible;display:inline;overflow:visible;enable-background:accumulate"
       d="M 641.41452,477.86251 C 641.41452,480.81571 639.01762,483.21251 636.0643,483.21251 C 633.11098,483.21251 630.71407,480.81571 630.71407,477.86251 C 630.71407,474.90931 633.11098,472.51251 636.0643,472.51251 C 639.01762,472.51251 641.41452,474.90931 641.41452,477.86251 z"
       id="path2461" />
    <path
       style="font-size:24px;font-style:normal;font-variant:normal;font-weight:normal;font-stretch:normal;text-align:center;line-height:125%;writing-mode:lr-tb;text-anchor:middle;fill:none;fill-opacity:1;fill-rule:nonzero;stroke:#ff0000;stroke-width:1px;stroke-linecap:butt;stroke-linejoin:miter;stroke-miterlimit:4;stroke-dashoffset:0;stroke-opacity:1;marker:none;marker-start:none;marker-mid:none;marker-end:none;visibility:visible;display:inline;overflow:visible;enable-background:accumulate;font-family:Futura Md BT;-inkscape-font-specification:Futura Md BT"
       d="M 411.08868,483.25592 L 413.31525,482.22467 C 413.52618,482.9903 413.9129,483.57624 414.4754,483.98248 C 415.0379,484.38092 415.75665,484.58014 416.63165,484.58014 C 417.45977,484.58014 418.11602,484.34967 418.6004,483.88873 C 419.09258,483.4278 419.33867,482.81061 419.33868,482.03717 C 419.33867,481.02936 418.50274,480.13093 416.83087,479.34186 C 416.59649,479.22468 416.4168,479.13874 416.29181,479.08405 C 414.40118,478.16218 413.13946,477.33015 412.50665,476.58795 C 411.88165,475.83796 411.56915,474.9239 411.56915,473.84576 C 411.56915,472.44734 412.04181,471.31453 412.98712,470.44733 C 413.94024,469.58016 415.18634,469.14656 416.7254,469.14655 C 417.99102,469.14656 419.04961,469.39266 419.90118,469.88483 C 420.75274,470.36922 421.34258,471.06844 421.67072,471.98248 L 419.49103,473.10748 C 419.14727,472.56843 418.76836,472.1739 418.35431,471.92389 C 417.94805,471.6739 417.4793,471.5489 416.94806,471.54889 C 416.19805,471.5489 415.6004,471.74422 415.15509,472.13483 C 414.71759,472.52547 414.49884,473.0489 414.49884,473.70514 C 414.49884,474.7364 415.46758,475.69734 417.40509,476.58795 C 417.55352,476.65827 417.67071,476.71296 417.75665,476.75201 C 419.45196,477.53327 420.61602,478.2989 421.24884,479.04889 C 421.88164,479.79108 422.19805,480.72077 422.19806,481.83795 C 422.19805,483.46295 421.68633,484.75592 420.6629,485.71686 C 419.63946,486.66998 418.25664,487.14654 416.51447,487.14655 C 415.05352,487.14654 413.85431,486.81061 412.91681,486.13873 C 411.98712,485.46686 411.37775,484.50592 411.08868,483.25592 M 427.49493,481.09967 C 427.49493,482.24811 427.78009,483.16608 428.3504,483.85358 C 428.92852,484.54108 429.68633,484.88483 430.62384,484.88483 C 431.58477,484.88483 432.32696,484.56452 432.8504,483.92389 C 433.38164,483.28327 433.64727,482.37311 433.64728,481.19342 C 433.64727,480.02155 433.36992,479.10749 432.81525,478.45123 C 432.26836,477.78718 431.51446,477.45515 430.55353,477.45514 C 429.59258,477.45515 428.84258,477.77546 428.30353,478.41608 C 427.76446,479.05671 427.49493,479.95124 427.49493,481.09967 M 425.034,491.91608 L 425.034,475.58014 L 427.57697,475.58014 L 427.57697,477.39655 C 427.87384,476.69343 428.34649,476.15046 428.99493,475.76764 C 429.65118,475.38484 430.43243,475.19343 431.33868,475.19342 C 432.81524,475.19343 434.01055,475.74031 434.92462,476.83405 C 435.84648,477.91999 436.30742,479.34968 436.30743,481.12311 C 436.30742,482.9903 435.8543,484.46295 434.94806,485.54108 C 434.04961,486.61139 432.81524,487.14654 431.24493,487.14655 C 430.46368,487.14654 429.76837,486.9903 429.159,486.6778 C 428.55743,486.3653 428.03009,485.88873 427.57697,485.24811 L 427.57697,491.91608 L 425.034,491.91608 M 449.70197,481.50983 L 440.81915,481.50983 C 440.88165,482.54889 441.19024,483.36139 441.74493,483.94733 C 442.29962,484.52545 443.0379,484.81452 443.95978,484.81451 C 444.78008,484.81452 445.46368,484.64264 446.01056,484.29889 C 446.55742,483.95514 447.03399,483.40045 447.44025,482.63483 L 449.58478,483.83014 C 448.95977,484.94733 448.18633,485.77936 447.26447,486.32623 C 446.34258,486.87311 445.26055,487.14654 444.01837,487.14655 C 442.23712,487.14654 440.81915,486.60358 439.76447,485.51764 C 438.70978,484.4317 438.18243,482.98249 438.18243,481.16998 C 438.18243,479.4278 438.7254,477.99812 439.81134,476.88092 C 440.90509,475.75593 442.30743,475.19343 444.01837,475.19342 C 445.80743,475.19343 447.20196,475.70515 448.20197,476.72858 C 449.20195,477.75202 449.70195,479.18562 449.70197,481.02936 L 449.70197,481.50983 M 447.06525,479.79889 C 446.96367,479.00202 446.65899,478.39655 446.15118,477.98248 C 445.64336,477.56062 444.94805,477.34968 444.06525,477.34967 C 443.2293,477.34968 442.55743,477.5528 442.04962,477.95905 C 441.5418,478.3653 441.18634,478.97858 440.98322,479.79889 L 447.06525,479.79889 M 463.06134,481.50983 L 454.17853,481.50983 C 454.24102,482.54889 454.54962,483.36139 455.10431,483.94733 C 455.65899,484.52545 456.39727,484.81452 457.31915,484.81451 C 458.13946,484.81452 458.82305,484.64264 459.36993,484.29889 C 459.9168,483.95514 460.39336,483.40045 460.79962,482.63483 L 462.94415,483.83014 C 462.31914,484.94733 461.5457,485.77936 460.62384,486.32623 C 459.70196,486.87311 458.61993,487.14654 457.37775,487.14655 C 455.59649,487.14654 454.17852,486.60358 453.12384,485.51764 C 452.06915,484.4317 451.54181,482.98249 451.54181,481.16998 C 451.54181,479.4278 452.08478,477.99812 453.17072,476.88092 C 454.26446,475.75593 455.6668,475.19343 457.37775,475.19342 C 459.1668,475.19343 460.56133,475.70515 461.56134,476.72858 C 462.56133,477.75202 463.06133,479.18562 463.06134,481.02936 L 463.06134,481.50983 M 460.42462,479.79889 C 460.32305,479.00202 460.01836,478.39655 459.51056,477.98248 C 459.00274,477.56062 458.30743,477.34968 457.42462,477.34967 C 456.58868,477.34968 455.9168,477.5528 455.409,477.95905 C 454.90118,478.3653 454.54571,478.97858 454.34259,479.79889 L 460.42462,479.79889 M 473.70197,481.09967 C 473.70196,479.95124 473.43242,479.05671 472.89337,478.41608 C 472.36211,477.77546 471.61602,477.45515 470.65509,477.45514 C 469.69415,477.45515 468.93634,477.78718 468.38165,478.45123 C 467.83477,479.10749 467.56134,480.02155 467.56134,481.19342 C 467.56134,482.37311 467.82696,483.28327 468.35822,483.92389 C 468.88946,484.56452 469.63946,484.88483 470.60822,484.88483 C 471.53008,484.88483 472.27618,484.54108 472.8465,483.85358 C 473.4168,483.15827 473.70196,482.2403 473.70197,481.09967 M 473.63165,468.52545 L 476.17462,468.52545 L 476.17462,486.68951 L 473.63165,486.68951 L 473.63165,485.24811 C 473.17852,485.88873 472.64727,486.3653 472.0379,486.6778 C 471.43633,486.9903 470.74493,487.14654 469.96368,487.14655 C 468.39337,487.14654 467.15509,486.61139 466.24884,485.54108 C 465.3504,484.46295 464.90118,482.9903 464.90118,481.12311 C 464.90118,479.34968 465.36212,477.91999 466.284,476.83405 C 467.20587,475.74031 468.40899,475.19343 469.89337,475.19342 C 470.79961,475.19343 471.57305,475.38484 472.21368,475.76764 C 472.86211,476.14265 473.33477,476.68562 473.63165,477.39655 L 473.63165,468.52545"
       id="text2463" />
    <path
       transform="matrix(0.2461111,0,0,0.3281482,13.609375,619.97083)"
       d="M 151.875,-39.375 A 22.5,16.875 0 1 1 106.875,-39.375 A 22.5,16.875 0 1 1 151.875,-39.375 z"
       sodipodi:ry="16.875"
       sodipodi:rx="22.5"
       sodipodi:cy="-39.375"
       sodipodi:cx="129.375"
       id="path2501"
       style="fill:#ffffff;fill-opacity:1;fill-rule:evenodd;stroke:#000000;stroke-width:2.19927406;stroke-linecap:butt;stroke-linejoin:miter;stroke-miterlimit:4;stroke-dasharray:none;stroke-opacity:1"
       sodipodi:type="arc" />
    <path
       sodipodi:type="arc"
       style="fill:#ffffff;fill-opacity:1;fill-rule:evenodd;stroke:#000000;stroke-width:2.19927406;stroke-linecap:butt;stroke-linejoin:miter;stroke-miterlimit:4;stroke-dasharray:none;stroke-opacity:1"
       id="path2503"
       sodipodi:cx="129.375"
       sodipodi:cy="-39.375"
       sodipodi:rx="22.5"
       sodipodi:ry="16.875"
       d="M 151.875,-39.375 A 22.5,16.875 0 1 1 106.875,-39.375 A 22.5,16.875 0 1 1 151.875,-39.375 z"
       transform="matrix(0.2461111,0,0,0.3281482,666.10938,619.97083)" />
    <g
       id="g3308"
       inkscape:label="Layer 1"
       transform="translate(31.860713,-91.507317)" />
  </g>
</svg>
