<?xml version="1.0" encoding="UTF-8" standalone="no"?>
<!-- Created with Inkscape (http://www.inkscape.org/) -->

<svg
   xmlns:dc="http://purl.org/dc/elements/1.1/"
   xmlns:cc="http://creativecommons.org/ns#"
   xmlns:rdf="http://www.w3.org/1999/02/22-rdf-syntax-ns#"
   xmlns:svg="http://www.w3.org/2000/svg"
   xmlns="http://www.w3.org/2000/svg"
   xmlns:sodipodi="http://sodipodi.sourceforge.net/DTD/sodipodi-0.dtd"
   xmlns:inkscape="http://www.inkscape.org/namespaces/inkscape"
   width="990"
   height="765"
   id="svg2"
   sodipodi:version="0.32"
   inkscape:version="0.47 r22583"
   version="1.0"
   sodipodi:docname="mounting-boxes-4.svg"
   inkscape:output_extension="org.inkscape.output.svg.inkscape">
  <defs
     id="defs4">
    <inkscape:path-effect
       border_marks="both"
       mark_dir="left"
       offset="0"
       shift="0"
       major_mark_steps="4"
       minor_mark_length="0.12"
       mark_length="0.25"
       mark_distance="0.25"
       unit="in"
       is_visible="true"
       id="path-effect4321"
       effect="ruler" />
    <inkscape:path-effect
       effect="ruler"
       id="path-effect4231"
       is_visible="true"
       unit="in"
       mark_distance="0.25"
       mark_length="0.25"
       minor_mark_length="0.12"
       major_mark_steps="4"
       shift="0"
       offset="0"
       mark_dir="left"
       border_marks="both" />
    <inkscape:perspective
       sodipodi:type="inkscape:persp3d"
       inkscape:vp_x="0 : 382.5 : 1"
       inkscape:vp_y="0 : 1000 : 0"
       inkscape:vp_z="990 : 382.5 : 1"
       inkscape:persp3d-origin="495 : 255 : 1"
       id="perspective56" />
    <inkscape:perspective
       id="perspective2970"
       inkscape:persp3d-origin="0.5 : 0.33333333 : 1"
       inkscape:vp_z="1 : 0.5 : 1"
       inkscape:vp_y="0 : 1000 : 0"
       inkscape:vp_x="0 : 0.5 : 1"
       sodipodi:type="inkscape:persp3d" />
    <inkscape:perspective
       id="perspective4787"
       inkscape:persp3d-origin="0.5 : 0.33333333 : 1"
       inkscape:vp_z="1 : 0.5 : 1"
       inkscape:vp_y="0 : 1000 : 0"
       inkscape:vp_x="0 : 0.5 : 1"
       sodipodi:type="inkscape:persp3d" />
    <inkscape:perspective
       id="perspective2880"
       inkscape:persp3d-origin="0.5 : 0.33333333 : 1"
       inkscape:vp_z="1 : 0.5 : 1"
       inkscape:vp_y="0 : 1000 : 0"
       inkscape:vp_x="0 : 0.5 : 1"
       sodipodi:type="inkscape:persp3d" />
    <inkscape:perspective
       id="perspective3884"
       inkscape:persp3d-origin="0.5 : 0.33333333 : 1"
       inkscape:vp_z="1 : 0.5 : 1"
       inkscape:vp_y="0 : 1000 : 0"
       inkscape:vp_x="0 : 0.5 : 1"
       sodipodi:type="inkscape:persp3d" />
    <inkscape:perspective
       id="perspective3929"
       inkscape:persp3d-origin="0.5 : 0.33333333 : 1"
       inkscape:vp_z="1 : 0.5 : 1"
       inkscape:vp_y="0 : 1000 : 0"
       inkscape:vp_x="0 : 0.5 : 1"
       sodipodi:type="inkscape:persp3d" />
    <inkscape:perspective
       id="perspective3956"
       inkscape:persp3d-origin="0.5 : 0.33333333 : 1"
       inkscape:vp_z="1 : 0.5 : 1"
       inkscape:vp_y="0 : 1000 : 0"
       inkscape:vp_x="0 : 0.5 : 1"
       sodipodi:type="inkscape:persp3d" />
    <inkscape:perspective
       id="perspective4042"
       inkscape:persp3d-origin="0.5 : 0.33333333 : 1"
       inkscape:vp_z="1 : 0.5 : 1"
       inkscape:vp_y="0 : 1000 : 0"
       inkscape:vp_x="0 : 0.5 : 1"
       sodipodi:type="inkscape:persp3d" />
    <inkscape:perspective
       id="perspective4106"
       inkscape:persp3d-origin="0.5 : 0.33333333 : 1"
       inkscape:vp_z="1 : 0.5 : 1"
       inkscape:vp_y="0 : 1000 : 0"
       inkscape:vp_x="0 : 0.5 : 1"
       sodipodi:type="inkscape:persp3d" />
    <inkscape:perspective
       id="perspective4106-3"
       inkscape:persp3d-origin="0.5 : 0.33333333 : 1"
       inkscape:vp_z="1 : 0.5 : 1"
       inkscape:vp_y="0 : 1000 : 0"
       inkscape:vp_x="0 : 0.5 : 1"
       sodipodi:type="inkscape:persp3d" />
    <inkscape:perspective
       id="perspective4106-4"
       inkscape:persp3d-origin="0.5 : 0.33333333 : 1"
       inkscape:vp_z="1 : 0.5 : 1"
       inkscape:vp_y="0 : 1000 : 0"
       inkscape:vp_x="0 : 0.5 : 1"
       sodipodi:type="inkscape:persp3d" />
    <inkscape:perspective
       id="perspective4106-0"
       inkscape:persp3d-origin="0.5 : 0.33333333 : 1"
       inkscape:vp_z="1 : 0.5 : 1"
       inkscape:vp_y="0 : 1000 : 0"
       inkscape:vp_x="0 : 0.5 : 1"
       sodipodi:type="inkscape:persp3d" />
    <inkscape:perspective
       id="perspective4106-6"
       inkscape:persp3d-origin="0.5 : 0.33333333 : 1"
       inkscape:vp_z="1 : 0.5 : 1"
       inkscape:vp_y="0 : 1000 : 0"
       inkscape:vp_x="0 : 0.5 : 1"
       sodipodi:type="inkscape:persp3d" />
    <inkscape:perspective
       id="perspective4106-44"
       inkscape:persp3d-origin="0.5 : 0.33333333 : 1"
       inkscape:vp_z="1 : 0.5 : 1"
       inkscape:vp_y="0 : 1000 : 0"
       inkscape:vp_x="0 : 0.5 : 1"
       sodipodi:type="inkscape:persp3d" />
    <inkscape:perspective
       id="perspective3903"
       inkscape:persp3d-origin="0.5 : 0.33333333 : 1"
       inkscape:vp_z="1 : 0.5 : 1"
       inkscape:vp_y="0 : 1000 : 0"
       inkscape:vp_x="0 : 0.5 : 1"
       sodipodi:type="inkscape:persp3d" />
    <inkscape:perspective
       id="perspective3936"
       inkscape:persp3d-origin="0.5 : 0.33333333 : 1"
       inkscape:vp_z="1 : 0.5 : 1"
       inkscape:vp_y="0 : 1000 : 0"
       inkscape:vp_x="0 : 0.5 : 1"
       sodipodi:type="inkscape:persp3d" />
  </defs>
  <sodipodi:namedview
     id="base"
     pagecolor="#ffffff"
     bordercolor="#666666"
     borderopacity="1.0"
     gridtolerance="10000"
     guidetolerance="10"
     objecttolerance="20"
     inkscape:pageopacity="0.0"
     inkscape:pageshadow="2"
     inkscape:zoom="0.35462963"
     inkscape:cx="1147.1376"
     inkscape:cy="644.44753"
     inkscape:document-units="in"
     inkscape:current-layer="layer1"
     showgrid="true"
     units="in"
     inkscape:window-width="1776"
     inkscape:window-height="988"
     inkscape:window-x="78"
     inkscape:window-y="140"
     inkscape:snap-intersection-grid-guide="false"
     inkscape:snap-bbox="false"
     inkscape:snap-nodes="true"
     inkscape:snap-global="true"
     inkscape:window-maximized="0"
     inkscape:snap-grids="false"
     inkscape:bbox-nodes="true"
     inkscape:object-nodes="true"
     inkscape:object-paths="true"
     showguides="true"
     inkscape:guide-bbox="true">
    <inkscape:grid
       type="xygrid"
       id="grid2509"
       visible="true"
       enabled="true"
       units="in"
       spacingx="0.0625in"
       spacingy="0.0625in"
       empspacing="16"
       snapvisiblegridlinesonly="true" />
  </sodipodi:namedview>
  <metadata
     id="metadata7">
    <rdf:RDF>
      <cc:Work
         rdf:about="">
        <dc:format>image/svg+xml</dc:format>
        <dc:type
           rdf:resource="http://purl.org/dc/dcmitype/StillImage" />
        <dc:title />
      </cc:Work>
    </rdf:RDF>
  </metadata>
  <g
     inkscape:label="Layer 1"
     inkscape:groupmode="layer"
     id="layer1"
     transform="translate(0,-315)">
    <g
       transform="translate(960.83997,0)"
       id="g2903">
      <rect
         style="color:#000000;fill:#8383ff;fill-opacity:0.125;stroke:#000000;stroke-width:0.99000013;stroke-linecap:butt;stroke-linejoin:miter;stroke-miterlimit:4;stroke-opacity:1;stroke-dasharray:none;stroke-dashoffset:0;marker:none;visibility:visible;display:inline;overflow:visible;enable-background:accumulate"
         id="rect2905"
         width="960.83997"
         height="119.34"
         x="825.34503"
         y="581.44" />
      <path
         sodipodi:nodetypes="ccccc"
         id="path2907"
         d="m 866.56501,540.22005 -41.21997,41.21995 960.83996,0 -41.22,-41.21998 -878.39999,3e-5 z"
         style="fill:#8383ff;fill-opacity:0.125;stroke:#000000;stroke-width:1px;stroke-linecap:butt;stroke-linejoin:miter;stroke-opacity:1" />
      <path
         style="fill:#8383ff;fill-opacity:0.125;stroke:#000000;stroke-width:1px;stroke-linecap:butt;stroke-linejoin:miter;stroke-opacity:1"
         d="M 866.56502,741.99995 825.34505,700.78 l 960.83995,0 -41.22,41.21998 -878.39998,-3e-5 z"
         id="path2909"
         sodipodi:nodetypes="ccccc" />
    </g>
    <flowRoot
       xml:space="preserve"
       id="flowRoot3394"
       style="font-size:12px;font-style:normal;font-weight:normal;text-align:center;text-anchor:middle;fill:#000000;fill-opacity:1;stroke:none;font-family:Bitstream Vera Sans"
       transform="matrix(4.1250743,0,0,4.1250743,-448.12806,-3900.6302)"><flowRegion
         id="flowRegion3396"><rect
           id="rect3398"
           width="385.25931"
           height="122.26792"
           x="136.10957"
           y="1248.4067" /></flowRegion><flowPara
         id="flowPara3400" /></flowRoot>    <text
       xml:space="preserve"
       style="font-size:18px;font-style:normal;font-variant:normal;font-weight:normal;font-stretch:normal;text-align:center;line-height:125%;writing-mode:lr-tb;text-anchor:middle;fill:#ff0000;fill-opacity:1;stroke:none;font-family:Futura Md BT;-inkscape-font-specification:Futura Md BT"
       x="800.75275"
       y="722.69421"
       id="text3866"
       sodipodi:linespacing="125%"><tspan
         id="tspan3870"
         sodipodi:role="line"
         x="800.75275"
         y="722.69421" /></text>
    <flowRoot
       xml:space="preserve"
       id="flowRoot3068"
       style="font-size:40px;font-style:normal;font-weight:normal;fill:#000000;fill-opacity:1;stroke:none;font-family:Bitstream Vera Sans"
       transform="matrix(0,-0.47752963,0.47752963,0,2935.1039,894.80294)"><flowRegion
         id="flowRegion3070"><rect
           id="rect3072"
           width="546.7594"
           height="492.6843"
           x="207.2879"
           y="-588.81781" /></flowRegion><flowPara
         id="flowPara3958">subtract .031 from each end for bend radius</flowPara></flowRoot>    <path
       style="fill:none;stroke:#000000;stroke-width:1px;stroke-linecap:butt;stroke-linejoin:miter;stroke-opacity:1"
       d="m 23,495.08747 2880,0 m -2880,0 0,-22.5 m 22.5,22.5 0,-10.8 m 22.5,10.8 0,-10.8 m 22.5,10.8 0,-10.8 m 22.5,10.8 0,-22.5 m 22.5,22.5 0,-10.8 m 22.5,10.8 0,-10.8 m 22.5,10.8 0,-10.8 m 22.5,10.8 0,-22.5 m 22.5,22.5 0,-10.8 m 22.5,10.8 0,-10.8 m 22.5,10.8 0,-10.8 m 22.5,10.8 0,-22.5 m 22.5,22.5 0,-10.8 m 22.5,10.8 0,-10.8 m 22.5,10.8 0,-10.8 m 22.5,10.8 0,-22.5 m 22.5,22.5 0,-10.8 m 22.5,10.8 0,-10.8 m 22.5,10.8 0,-10.8 m 22.5,10.8 0,-22.5 m 22.5,22.5 0,-10.8 m 22.5,10.8 0,-10.8 m 22.5,10.8 0,-10.8 m 22.5,10.8 0,-22.5 m 22.5,22.5 0,-10.8 m 22.5,10.8 0,-10.8 m 22.5,10.8 0,-10.8 m 22.5,10.8 0,-22.5 m 22.5,22.5 0,-10.8 m 22.5,10.8 0,-10.8 m 22.5,10.8 0,-10.8 m 22.5,10.8 0,-22.5 m 22.5,22.5 0,-10.8 m 22.5,10.8 0,-10.8 m 22.5,10.8 0,-10.8 m 22.5,10.8 0,-22.5 m 22.5,22.5 0,-10.8 m 22.5,10.8 0,-10.8 m 22.5,10.8 0,-10.8 m 22.5,10.8 0,-22.5 m 22.5,22.5 0,-10.8 m 22.5,10.8 0,-10.8 m 22.5,10.8 0,-10.8 m 22.5,10.8 0,-22.5 m 22.5,22.5 0,-10.8 m 22.5,10.8 0,-10.8 m 22.5,10.8 0,-10.8 m 22.5,10.8 0,-22.5 m 22.5,22.5 0,-10.8 m 22.5,10.8 0,-10.8 m 22.5,10.8 0,-10.8 m 22.5,10.8 0,-22.5 m 22.5,22.5 0,-10.8 m 22.5,10.8 0,-10.8 m 22.5,10.8 0,-10.8 m 22.5,10.8 0,-22.5 m 22.5,22.5 0,-10.8 m 22.5,10.8 0,-10.8 m 22.5,10.8 0,-10.8 m 22.5,10.8 0,-22.5 m 22.5,22.5 0,-10.8 m 22.5,10.8 0,-10.8 m 22.5,10.8 0,-10.8 m 22.5,10.8 0,-22.5 m 22.5,22.5 0,-10.8 m 22.5,10.8 0,-10.8 m 22.5,10.8 0,-10.8 m 22.5,10.8 0,-22.5 m 22.5,22.5 0,-10.8 m 22.5,10.8 0,-10.8 m 22.5,10.8 0,-10.8 m 22.5,10.8 0,-22.5 m 22.5,22.5 0,-10.8 m 22.5,10.8 0,-10.8 m 22.5,10.8 0,-10.8 m 22.5,10.8 0,-22.5 m 22.5,22.5 0,-10.8 m 22.5,10.8 0,-10.8 m 22.5,10.8 0,-10.8 m 22.5,10.8 0,-22.5 m 22.5,22.5 0,-10.8 m 22.5,10.8 0,-10.8 m 22.5,10.8 0,-10.8 m 22.5,10.8 0,-22.5 m 22.5,22.5 0,-10.8 m 22.5,10.8 0,-10.8 m 22.5,10.8 0,-10.8 m 22.5,10.8 0,-22.5 m 22.5,22.5 0,-10.8 m 22.5,10.8 0,-10.8 m 22.5,10.8 0,-10.8 m 22.5,10.8 0,-22.5 m 22.5,22.5 0,-10.8 m 22.5,10.8 0,-10.8 m 22.5,10.8 0,-10.8 m 22.5,10.8 0,-22.5 m 22.5,22.5 0,-10.8 m 22.5,10.8 0,-10.8 m 22.5,10.8 0,-10.8 m 22.5,10.8 0,-22.5 m 22.5,22.5 0,-10.8 m 22.5,10.8 0,-10.8 m 22.5,10.8 0,-10.8 m 22.5,10.8 0,-22.5 m 22.5,22.5 0,-10.8 m 22.5,10.8 0,-10.8 m 22.5,10.8 0,-10.8 m 22.5,10.8 0,-22.5 m 22.5,22.5 0,-10.8 m 22.5,10.8 0,-10.8 m 22.5,10.8 0,-10.8 m 22.5,10.8 0,-22.5 m 22.5,22.5 0,-10.8 m 22.5,10.8 0,-10.8 m 22.5,10.8 0,-10.8 m 22.5,10.8 0,-22.5 m 22.5,22.5 0,-10.8 m 22.5,10.8 0,-10.8 m 22.5,10.8 0,-10.8 m 22.5,10.8 0,-22.5 m 22.5,22.5 0,-10.8 m 22.5,10.8 0,-10.8 m 22.5,10.8 0,-10.8 m 22.5,10.8 0,-22.5 m 22.5,22.5 0,-10.8 m 22.5,10.8 0,-10.8 m 22.5,10.8 0,-10.8 m 22.5,10.8 0,-22.5"
       id="path4229"
       inkscape:path-effect="#path-effect4231"
       inkscape:original-d="m 23,495.08747 2880,0" />
    <path
       inkscape:original-d="m 23,1034.5 2880,0"
       inkscape:path-effect="#path-effect4321"
       id="path4319"
       d="m 23,1034.5 2880,0 m -2880,0 0,-22.5 m 22.5,22.5 0,-10.8 m 22.5,10.8 0,-10.8 m 22.5,10.8 0,-10.8 m 22.5,10.8 0,-22.5 m 22.5,22.5 0,-10.8 m 22.5,10.8 0,-10.8 m 22.5,10.8 0,-10.8 m 22.5,10.8 0,-22.5 m 22.5,22.5 0,-10.8 m 22.5,10.8 0,-10.8 m 22.5,10.8 0,-10.8 m 22.5,10.8 0,-22.5 m 22.5,22.5 0,-10.8 m 22.5,10.8 0,-10.8 m 22.5,10.8 0,-10.8 m 22.5,10.8 0,-22.5 m 22.5,22.5 0,-10.8 m 22.5,10.8 0,-10.8 m 22.5,10.8 0,-10.8 m 22.5,10.8 0,-22.5 m 22.5,22.5 0,-10.8 m 22.5,10.8 0,-10.8 m 22.5,10.8 0,-10.8 m 22.5,10.8 0,-22.5 m 22.5,22.5 0,-10.8 m 22.5,10.8 0,-10.8 m 22.5,10.8 0,-10.8 m 22.5,10.8 0,-22.5 m 22.5,22.5 0,-10.8 m 22.5,10.8 0,-10.8 m 22.5,10.8 0,-10.8 m 22.5,10.8 0,-22.5 m 22.5,22.5 0,-10.8 m 22.5,10.8 0,-10.8 m 22.5,10.8 0,-10.8 m 22.5,10.8 0,-22.5 m 22.5,22.5 0,-10.8 m 22.5,10.8 0,-10.8 m 22.5,10.8 0,-10.8 m 22.5,10.8 0,-22.5 m 22.5,22.5 0,-10.8 m 22.5,10.8 0,-10.8 m 22.5,10.8 0,-10.8 m 22.5,10.8 0,-22.5 m 22.5,22.5 0,-10.8 m 22.5,10.8 0,-10.8 m 22.5,10.8 0,-10.8 m 22.5,10.8 0,-22.5 m 22.5,22.5 0,-10.8 m 22.5,10.8 0,-10.8 m 22.5,10.8 0,-10.8 m 22.5,10.8 0,-22.5 m 22.5,22.5 0,-10.8 m 22.5,10.8 0,-10.8 m 22.5,10.8 0,-10.8 m 22.5,10.8 0,-22.5 m 22.5,22.5 0,-10.8 m 22.5,10.8 0,-10.8 m 22.5,10.8 0,-10.8 m 22.5,10.8 0,-22.5 m 22.5,22.5 0,-10.8 m 22.5,10.8 0,-10.8 m 22.5,10.8 0,-10.8 m 22.5,10.8 0,-22.5 m 22.5,22.5 0,-10.8 m 22.5,10.8 0,-10.8 m 22.5,10.8 0,-10.8 m 22.5,10.8 0,-22.5 m 22.5,22.5 0,-10.8 m 22.5,10.8 0,-10.8 m 22.5,10.8 0,-10.8 m 22.5,10.8 0,-22.5 m 22.5,22.5 0,-10.8 m 22.5,10.8 0,-10.8 m 22.5,10.8 0,-10.8 m 22.5,10.8 0,-22.5 m 22.5,22.5 0,-10.8 m 22.5,10.8 0,-10.8 m 22.5,10.8 0,-10.8 m 22.5,10.8 0,-22.5 m 22.5,22.5 0,-10.8 m 22.5,10.8 0,-10.8 m 22.5,10.8 0,-10.8 m 22.5,10.8 0,-22.5 m 22.5,22.5 0,-10.8 m 22.5,10.8 0,-10.8 m 22.5,10.8 0,-10.8 m 22.5,10.8 0,-22.5 m 22.5,22.5 0,-10.8 m 22.5,10.8 0,-10.8 m 22.5,10.8 0,-10.8 m 22.5,10.8 0,-22.5 m 22.5,22.5 0,-10.8 m 22.5,10.8 0,-10.8 m 22.5,10.8 0,-10.8 m 22.5,10.8 0,-22.5 m 22.5,22.5 0,-10.8 m 22.5,10.8 0,-10.8 m 22.5,10.8 0,-10.8 m 22.5,10.8 0,-22.5 m 22.5,22.5 0,-10.8 m 22.5,10.8 0,-10.8 m 22.5,10.8 0,-10.8 m 22.5,10.8 0,-22.5 m 22.5,22.5 0,-10.8 m 22.5,10.8 0,-10.8 m 22.5,10.8 0,-10.8 m 22.5,10.8 0,-22.5 m 22.5,22.5 0,-10.8 m 22.5,10.8 0,-10.8 m 22.5,10.8 0,-10.8 m 22.5,10.8 0,-22.5 m 22.5,22.5 0,-10.8 m 22.5,10.8 0,-10.8 m 22.5,10.8 0,-10.8 m 22.5,10.8 0,-22.5 m 22.5,22.5 0,-10.8 m 22.5,10.8 0,-10.8 m 22.5,10.8 0,-10.8 m 22.5,10.8 0,-22.5 m 22.5,22.5 0,-10.8 m 22.5,10.8 0,-10.8 m 22.5,10.8 0,-10.8 m 22.5,10.8 0,-22.5 m 22.5,22.5 0,-10.8 m 22.5,10.8 0,-10.8 m 22.5,10.8 0,-10.8 m 22.5,10.8 0,-22.5"
       style="fill:none;stroke:#000000;stroke-width:1px;stroke-linecap:butt;stroke-linejoin:miter;stroke-opacity:1" />
    <rect
       style="color:#000000;fill:#8383ff;fill-opacity:0.125;stroke:#000000;stroke-width:0.99000025;stroke-linecap:butt;stroke-linejoin:miter;stroke-miterlimit:4;stroke-opacity:1;stroke-dasharray:none;stroke-dashoffset:0;marker:none;visibility:visible;display:inline;overflow:visible;enable-background:accumulate"
       id="rect2902"
       width="89.010002"
       height="119.34"
       x="45.495018"
       y="581.44" />
    <rect
       style="color:#000000;fill:#8383ff;fill-opacity:0.125;stroke:#000000;stroke-width:0.99000025;stroke-linecap:butt;stroke-linejoin:miter;stroke-miterlimit:4;stroke-opacity:1;stroke-dasharray:none;stroke-dashoffset:0;marker:none;visibility:visible;display:inline;overflow:visible;enable-background:accumulate"
       id="rect2904"
       width="89.010002"
       height="119.34"
       x="2747.0249"
       y="581.44" />
    <flowRoot
       xml:space="preserve"
       id="flowRoot2908"
       style="font-size:40px;font-style:normal;font-weight:normal;fill:#000000;fill-opacity:1;stroke:none;font-family:Bitstream Vera Sans"
       transform="translate(-18.744289,1174.7732)"><flowRegion
         id="flowRegion2910"><rect
           id="rect2912"
           width="733.95642"
           height="156.54471"
           x="207.2879"
           y="-588.81781" /></flowRegion><flowPara
         id="flowPara2914">aze</flowPara><flowPara
         id="flowPara2916">1.3-1.5&quot; deep  10.75 x 7.75</flowPara></flowRoot>    <g
       id="g2893"
       transform="translate(960.83997,1.2207031e-6)">
      <rect
         style="color:#000000;fill:#8383ff;fill-opacity:0.125;stroke:#000000;stroke-width:0.98999995;stroke-linecap:butt;stroke-linejoin:miter;stroke-miterlimit:4;stroke-opacity:1;stroke-dasharray:none;stroke-dashoffset:0;marker:none;visibility:visible;display:inline;overflow:visible;enable-background:accumulate"
         id="rect2900"
         width="690.84003"
         height="119.34"
         x="134.50502"
         y="581.44" />
      <path
         sodipodi:nodetypes="ccccc"
         id="path2906"
         d="m 175.72499,540.22 -41.21997,41.21995 690.84002,5e-5 -41.22,-41.21998 -608.40005,-2e-5 z"
         style="fill:#8383ff;fill-opacity:0.125;stroke:#000000;stroke-width:1px;stroke-linecap:butt;stroke-linejoin:miter;stroke-opacity:1" />
      <path
         style="fill:#8383ff;fill-opacity:0.125;stroke:#000000;stroke-width:1px;stroke-linecap:butt;stroke-linejoin:miter;stroke-opacity:1"
         d="m 175.725,742 -41.21997,-41.21995 690.84002,-5e-5 -41.22,41.21998 L 175.725,742 z"
         id="path2961"
         sodipodi:nodetypes="ccccc" />
    </g>
    <g
       id="g2898"
       transform="translate(-690.84001,0)">
      <rect
         y="581.44"
         x="825.34503"
         height="119.34"
         width="960.83997"
         id="rect2898"
         style="color:#000000;fill:#8383ff;fill-opacity:0.125;stroke:#000000;stroke-width:0.99000013;stroke-linecap:butt;stroke-linejoin:miter;stroke-miterlimit:4;stroke-opacity:1;stroke-dasharray:none;stroke-dashoffset:0;marker:none;visibility:visible;display:inline;overflow:visible;enable-background:accumulate" />
      <path
         style="fill:#8383ff;fill-opacity:0.125;stroke:#000000;stroke-width:1px;stroke-linecap:butt;stroke-linejoin:miter;stroke-opacity:1"
         d="m 866.56501,540.22005 -41.21997,41.21995 960.83996,0 -41.22,-41.21998 -878.39999,3e-5 z"
         id="path2918"
         sodipodi:nodetypes="ccccc" />
      <path
         sodipodi:nodetypes="ccccc"
         id="path2963"
         d="M 866.56502,741.99995 825.34505,700.78 l 960.83995,0 -41.22,41.21998 -878.39998,-3e-5 z"
         style="fill:#8383ff;fill-opacity:0.125;stroke:#000000;stroke-width:1px;stroke-linecap:butt;stroke-linejoin:miter;stroke-opacity:1" />
    </g>
  </g>
</svg>
