<?xml version="1.0" encoding="UTF-8" standalone="no"?>
<!-- Created with Inkscape (http://www.inkscape.org/) -->

<svg
   xmlns:dc="http://purl.org/dc/elements/1.1/"
   xmlns:cc="http://creativecommons.org/ns#"
   xmlns:rdf="http://www.w3.org/1999/02/22-rdf-syntax-ns#"
   xmlns:svg="http://www.w3.org/2000/svg"
   xmlns="http://www.w3.org/2000/svg"
   xmlns:sodipodi="http://sodipodi.sourceforge.net/DTD/sodipodi-0.dtd"
   xmlns:inkscape="http://www.inkscape.org/namespaces/inkscape"
   width="9.750001in"
   height="8.5in"
   viewBox="0 0 877.50009 765"
   id="svg2"
   version="1.1"
   inkscape:version="0.92.4 (unknown)"
   sodipodi:docname="raster-board-v1.svg">
  <defs
     id="defs4" />
  <sodipodi:namedview
     id="base"
     pagecolor="#ffffff"
     bordercolor="#666666"
     borderopacity="1.0"
     inkscape:pageopacity="0.0"
     inkscape:pageshadow="2"
     inkscape:zoom="0.7"
     inkscape:cx="255.45582"
     inkscape:cy="356.20685"
     inkscape:document-units="in"
     inkscape:current-layer="layer1"
     showgrid="true"
     units="in"
     inkscape:window-width="2048"
     inkscape:window-height="1088"
     inkscape:window-x="0"
     inkscape:window-y="27"
     inkscape:window-maximized="1"
     fit-margin-top="0"
     fit-margin-left="0"
     fit-margin-right="0"
     fit-margin-bottom="0"
     inkscape:snap-grids="false"
     inkscape:snap-center="true">
    <inkscape:grid
       type="xygrid"
       id="grid4136"
       units="in"
       spacingx="5.625"
       spacingy="5.625"
       empspacing="16"
       originx="877.49998"
       originy="-213.75" />
  </sodipodi:namedview>
  <metadata
     id="metadata7">
    <rdf:RDF>
      <cc:Work
         rdf:about="">
        <dc:format>image/svg+xml</dc:format>
        <dc:type
           rdf:resource="http://purl.org/dc/dcmitype/StillImage" />
        <dc:title></dc:title>
      </cc:Work>
    </rdf:RDF>
  </metadata>
  <g
     inkscape:label="Layer 1"
     inkscape:groupmode="layer"
     id="layer1"
     transform="translate(877.5,-73.612206)">
    <g
       id="g3482"
       transform="matrix(0.93750516,0,0,0.9375,281.14557,-422.7288)">
      <g
         id="g1088"
         transform="translate(-983.88315,-195.96959)">
        <rect
           style="fill:#1cbf00;fill-opacity:0.32026146;fill-rule:evenodd;stroke:#00ff00;stroke-width:0.66666478;stroke-linecap:butt;stroke-linejoin:miter;stroke-miterlimit:4;stroke-dasharray:none;stroke-opacity:1"
           id="rect3484"
           width="431.99762"
           height="508.79999"
           x="0"
           y="879" />
        <ellipse
           ry="6.2906675"
           rx="6.2906308"
           cy="888.59998"
           cx="9.599947"
           id="path3490"
           style="fill:#ffffff;fill-opacity:1;fill-rule:evenodd;stroke:#000000;stroke-width:0.66666472;stroke-linecap:butt;stroke-linejoin:miter;stroke-miterlimit:4;stroke-dasharray:none;stroke-opacity:1" />
        <ellipse
           ry="6.2906675"
           rx="6.2906308"
           cy="888.59998"
           cx="422.39767"
           id="path3490-3"
           style="fill:#ffffff;fill-opacity:1;fill-rule:evenodd;stroke:#000000;stroke-width:0.66666472;stroke-linecap:butt;stroke-linejoin:miter;stroke-miterlimit:4;stroke-dasharray:none;stroke-opacity:1" />
        <ellipse
           ry="6.2906675"
           rx="6.2906308"
           cy="1378.2001"
           cx="422.39767"
           id="path3490-3-5"
           style="fill:#ffffff;fill-opacity:1;fill-rule:evenodd;stroke:#000000;stroke-width:0.66666472;stroke-linecap:butt;stroke-linejoin:miter;stroke-miterlimit:4;stroke-dasharray:none;stroke-opacity:1" />
        <ellipse
           ry="6.2906675"
           rx="6.2906308"
           cy="1378.2001"
           cx="9.5999441"
           id="path3490-3-5-5"
           style="fill:#ffffff;fill-opacity:1;fill-rule:evenodd;stroke:#000000;stroke-width:0.66666472;stroke-linecap:butt;stroke-linejoin:miter;stroke-miterlimit:4;stroke-dasharray:none;stroke-opacity:1" />
      </g>
    </g>
    <rect
       style="fill:none;stroke:#0000ff;stroke-width:0.625;stroke-linecap:butt;stroke-linejoin:miter;stroke-miterlimit:4;stroke-dasharray:none;stroke-opacity:1"
       id="rect2566"
       width="876.87506"
       height="764.375"
       x="-877.1875"
       y="73.924706"
       ry="11.25"
       rx="11.250002" />
    <ellipse
       style="color:#000000;display:inline;overflow:visible;visibility:visible;fill:#ffffff;fill-opacity:1;fill-rule:evenodd;stroke:#000000;stroke-width:0.62528509;stroke-linecap:butt;stroke-linejoin:miter;stroke-miterlimit:4;stroke-dasharray:none;stroke-dashoffset:0;stroke-opacity:1;marker:none;enable-background:accumulate"
       id="path3673"
       cx="-855"
       cy="726.11218"
       rx="6.1223574"
       ry="6.1164885" />
    <ellipse
       id="path3696"
       style="color:#000000;display:inline;overflow:visible;visibility:visible;fill:#ffffff;fill-opacity:1;fill-rule:evenodd;stroke:#000000;stroke-width:0.62528509;stroke-linecap:butt;stroke-linejoin:miter;stroke-miterlimit:4;stroke-dasharray:none;stroke-dashoffset:0;stroke-opacity:1;marker:none;enable-background:accumulate"
       cx="-764.99994"
       cy="96.112206"
       rx="6.1223574"
       ry="6.1164885" />
    <ellipse
       id="path3698"
       style="color:#000000;display:inline;overflow:visible;visibility:visible;fill:#ffffff;fill-opacity:1;fill-rule:evenodd;stroke:#000000;stroke-width:0.62528509;stroke-linecap:butt;stroke-linejoin:miter;stroke-miterlimit:4;stroke-dasharray:none;stroke-dashoffset:0;stroke-opacity:1;marker:none;enable-background:accumulate"
       cx="-22.499937"
       cy="726.11218"
       rx="6.1223574"
       ry="6.1164885" />
    <ellipse
       style="color:#000000;display:inline;overflow:visible;visibility:visible;fill:#ffffff;fill-opacity:1;fill-rule:evenodd;stroke:#000000;stroke-width:0.62528509;stroke-linecap:butt;stroke-linejoin:miter;stroke-miterlimit:4;stroke-dasharray:none;stroke-dashoffset:0;stroke-opacity:1;marker:none;enable-background:accumulate"
       id="path3700"
       cx="-112.5"
       cy="96.112206"
       rx="6.1223574"
       ry="6.1164885" />
    <ellipse
       style="color:#000000;display:inline;overflow:visible;visibility:visible;fill:#ffffff;fill-opacity:1;fill-rule:evenodd;stroke:#000000;stroke-width:0.62528509;stroke-linecap:butt;stroke-linejoin:miter;stroke-miterlimit:4;stroke-dasharray:none;stroke-dashoffset:0;stroke-opacity:1;marker:none;enable-background:accumulate"
       id="path3712"
       cx="-855"
       cy="186.1122"
       rx="6.1223574"
       ry="6.1164885" />
    <ellipse
       id="path3714"
       style="color:#000000;display:inline;overflow:visible;visibility:visible;fill:#ffffff;fill-opacity:1;fill-rule:evenodd;stroke:#000000;stroke-width:0.62528509;stroke-linecap:butt;stroke-linejoin:miter;stroke-miterlimit:4;stroke-dasharray:none;stroke-dashoffset:0;stroke-opacity:1;marker:none;enable-background:accumulate"
       cx="-22.499937"
       cy="186.1122"
       rx="6.1223574"
       ry="6.1164885" />
    <g
       id="g1009"
       transform="translate(0.68459186,160.08162)">
      <g
         transform="matrix(0.9375,0,0,0.9375,-1020.0989,89.463128)"
         id="text2854"
         style="font-style:normal;font-weight:normal;font-size:40px;line-height:125%;font-family:'Bitstream Vera Sans';fill:none;stroke:#ff0000;stroke-width:0.625;stroke-miterlimit:4;stroke-dasharray:none;stroke-opacity:1">
        <path
           inkscape:connector-curvature="0"
           id="path2859"
           style="font-variant:normal;font-weight:bold;font-stretch:normal;font-size:24px;line-height:125%;font-family:'Futura Md BT';-inkscape-font-specification:'Futura Md BT Bold';text-align:start;writing-mode:lr-tb;text-anchor:start;fill:none;stroke:#ff0000;stroke-width:0.66666669;stroke-miterlimit:4;stroke-dasharray:none;stroke-opacity:1"
           d="m 497.68158,550.22689 h -4.66251 l -1.075,-7.9125 c -0.075,-0.55833 -0.14376,-1.17916 -0.20625,-1.8625 -0.0625,-0.68332 -0.11876,-1.42916 -0.16874,-2.2375 -0.11669,0.77501 -0.34586,1.74167 -0.6875,2.9 -0.075,0.24167 -0.12919,0.42084 -0.16251,0.5375 l -2.4875,8.575 h -3.325 l -2.4875,-8.575 c -0.0333,-0.11666 -0.0833,-0.29583 -0.14999,-0.5375 -0.35001,-1.15833 -0.57918,-2.12082 -0.6875,-2.8875 -0.05,0.69168 -0.10834,1.37709 -0.17501,2.05625 -0.0667,0.67917 -0.14583,1.35625 -0.23749,2.03125 l -1.075,7.9125 h -4.6375 l 2.825,-18.3 h 4.93749 l 2.76251,9.43749 c 0.0166,0.0667 0.05,0.17501 0.0999,0.32501 0.25831,0.84167 0.42082,1.5625 0.48749,2.1625 0.0333,-0.325 0.0958,-0.68542 0.1875,-1.08126 0.0916,-0.39581 0.21665,-0.8729 0.375,-1.43124 l 2.7875,-9.4125 h 4.95 z" />
        <path
           inkscape:connector-curvature="0"
           id="path2861"
           style="font-variant:normal;font-weight:bold;font-stretch:normal;font-size:24px;line-height:125%;font-family:'Futura Md BT';-inkscape-font-specification:'Futura Md BT Bold';text-align:start;writing-mode:lr-tb;text-anchor:start;fill:none;stroke:#ff0000;stroke-width:0.66666669;stroke-miterlimit:4;stroke-dasharray:none;stroke-opacity:1"
           d="m 513.03157,537.60189 v 6.45 c -10e-6,1.42501 -0.11459,2.48125 -0.34374,3.16875 -0.22918,0.6875 -0.6146,1.29792 -1.15626,1.83125 -0.55834,0.55833 -1.25417,0.975 -2.0875,1.25 -0.83334,0.275 -1.81251,0.4125 -2.9375,0.4125 -1.11667,0 -2.08959,-0.1375 -2.91874,-0.4125 -0.82917,-0.275 -1.53542,-0.69167 -2.11875,-1.25 -0.54168,-0.51667 -0.92501,-1.12292 -1.15001,-1.81875 -0.225,-0.69583 -0.33749,-1.75624 -0.33749,-3.18125 v -6.45 h 4.24999 v 6.7375 c 0,1.05834 0.175,1.82291 0.52501,2.29375 0.34999,0.47084 0.91666,0.70625 1.7,0.70625 0.79165,0 1.3604,-0.23125 1.70625,-0.69375 0.34582,-0.46249 0.51874,-1.23125 0.51875,-2.30625 v -6.7375 z" />
        <path
           inkscape:connector-curvature="0"
           id="path2863"
           style="font-variant:normal;font-weight:bold;font-stretch:normal;font-size:24px;line-height:125%;font-family:'Futura Md BT';-inkscape-font-specification:'Futura Md BT Bold';text-align:start;writing-mode:lr-tb;text-anchor:start;fill:none;stroke:#ff0000;stroke-width:0.66666669;stroke-miterlimit:4;stroke-dasharray:none;stroke-opacity:1"
           d="m 516.35658,550.22689 v -19.375 h 4.46249 v 19.375 z" />
        <path
           inkscape:connector-curvature="0"
           id="path2865"
           style="font-variant:normal;font-weight:bold;font-stretch:normal;font-size:24px;line-height:125%;font-family:'Futura Md BT';-inkscape-font-specification:'Futura Md BT Bold';text-align:start;writing-mode:lr-tb;text-anchor:start;fill:none;stroke:#ff0000;stroke-width:0.66666669;stroke-miterlimit:4;stroke-dasharray:none;stroke-opacity:1"
           d="m 524.91907,550.22689 v -9.475 h -1.8875 v -3.15 h 1.8875 v -3.7625 h 4.3875 v 3.7625 h 1.88751 v 3.15 h -1.88751 v 9.475 z" />
        <path
           inkscape:connector-curvature="0"
           id="path2867"
           style="font-variant:normal;font-weight:bold;font-stretch:normal;font-size:24px;line-height:125%;font-family:'Futura Md BT';-inkscape-font-specification:'Futura Md BT Bold';text-align:start;writing-mode:lr-tb;text-anchor:start;fill:none;stroke:#ff0000;stroke-width:0.66666669;stroke-miterlimit:4;stroke-dasharray:none;stroke-opacity:1"
           d="m 533.18158,533.66438 c 0,-0.67497 0.23957,-1.24997 0.71875,-1.72499 0.47916,-0.47498 1.05625,-0.71248 1.73124,-0.7125 0.7,2e-5 1.28542,0.23336 1.75626,0.7 0.47083,0.46668 0.70624,1.04585 0.70625,1.73749 -10e-6,0.69169 -0.23959,1.27919 -0.71875,1.76251 -0.47918,0.48335 -1.06043,0.72501 -1.74376,0.725 -0.66666,10e-6 -1.24166,-0.24582 -1.725,-0.7375 -0.48333,-0.49165 -0.72499,-1.07499 -0.72499,-1.75001 z m 0.22499,16.56251 v -12.625 h 4.46251 v 12.625 z" />
        <path
           inkscape:connector-curvature="0"
           id="path2869"
           style="font-variant:normal;font-weight:bold;font-stretch:normal;font-size:24px;line-height:125%;font-family:'Futura Md BT';-inkscape-font-specification:'Futura Md BT Bold';text-align:start;writing-mode:lr-tb;text-anchor:start;fill:none;stroke:#ff0000;stroke-width:0.66666669;stroke-miterlimit:4;stroke-dasharray:none;stroke-opacity:1"
           d="m 541.23157,545.97689 v -4.075 h 8.5 v 4.075 z" />
        <path
           inkscape:connector-curvature="0"
           id="path2871"
           style="font-variant:normal;font-weight:bold;font-stretch:normal;font-size:24px;line-height:125%;font-family:'Futura Md BT';-inkscape-font-specification:'Futura Md BT Bold';text-align:start;writing-mode:lr-tb;text-anchor:start;fill:none;stroke:#ff0000;stroke-width:0.66666669;stroke-miterlimit:4;stroke-dasharray:none;stroke-opacity:1"
           d="m 553.29408,550.22689 v -18.3 h 11.21249 v 4.0125 h -6.34999 v 3.175 h 5.98749 v 3.925 h -5.98749 v 7.1875 z" />
        <path
           inkscape:connector-curvature="0"
           id="path2873"
           style="font-variant:normal;font-weight:bold;font-stretch:normal;font-size:24px;line-height:125%;font-family:'Futura Md BT';-inkscape-font-specification:'Futura Md BT Bold';text-align:start;writing-mode:lr-tb;text-anchor:start;fill:none;stroke:#ff0000;stroke-width:0.66666669;stroke-miterlimit:4;stroke-dasharray:none;stroke-opacity:1"
           d="m 579.88158,537.60189 v 6.45 c -2e-5,1.42501 -0.1146,2.48125 -0.34376,3.16875 -0.22918,0.6875 -0.61459,1.29792 -1.15624,1.83125 -0.55835,0.55833 -1.25419,0.975 -2.0875,1.25 -0.83334,0.275 -1.81251,0.4125 -2.9375,0.4125 -1.11668,0 -2.08959,-0.1375 -2.91876,-0.4125 -0.82917,-0.275 -1.53542,-0.69167 -2.11875,-1.25 -0.54166,-0.51667 -0.925,-1.12292 -1.14999,-1.81875 -0.22501,-0.69583 -0.33751,-1.75624 -0.33751,-3.18125 v -6.45 h 4.25001 v 6.7375 c -10e-6,1.05834 0.17499,1.82291 0.52499,2.29375 0.35,0.47084 0.91666,0.70625 1.7,0.70625 0.79166,0 1.36042,-0.23125 1.70625,-0.69375 0.34583,-0.46249 0.51874,-1.23125 0.51875,-2.30625 v -6.7375 z" />
        <path
           inkscape:connector-curvature="0"
           id="path2875"
           style="font-variant:normal;font-weight:bold;font-stretch:normal;font-size:24px;line-height:125%;font-family:'Futura Md BT';-inkscape-font-specification:'Futura Md BT Bold';text-align:start;writing-mode:lr-tb;text-anchor:start;fill:none;stroke:#ff0000;stroke-width:0.66666669;stroke-miterlimit:4;stroke-dasharray:none;stroke-opacity:1"
           d="m 583.08158,550.22689 v -12.625 h 4.075 v 2.56249 c 0.59165,-1.02498 1.27499,-1.77498 2.04999,-2.24999 0.775,-0.47499 1.70416,-0.71249 2.78751,-0.7125 0.81665,10e-6 1.54373,0.13126 2.18125,0.39375 0.63748,0.26251 1.15623,0.63959 1.55624,1.13125 0.33333,0.42501 0.57082,0.94168 0.7125,1.55 0.14166,0.60834 0.2125,1.51668 0.21251,2.725 v 7.225 h -4.4625 v -6.76251 c -10e-6,-1.00832 -0.1646,-1.74165 -0.49375,-2.2 -0.32918,-0.45831 -0.85627,-0.68748 -1.58126,-0.68749 -0.925,10e-6 -1.6,0.34167 -2.02499,1.025 -0.42501,0.68334 -0.63751,1.79167 -0.6375,3.325 v 5.3 z" />
        <path
           inkscape:connector-curvature="0"
           id="path2877"
           style="font-variant:normal;font-weight:bold;font-stretch:normal;font-size:24px;line-height:125%;font-family:'Futura Md BT';-inkscape-font-specification:'Futura Md BT Bold';text-align:start;writing-mode:lr-tb;text-anchor:start;fill:none;stroke:#ff0000;stroke-width:0.66666669;stroke-miterlimit:4;stroke-dasharray:none;stroke-opacity:1"
           d="m 608.84407,541.75189 c -0.43334,-0.38332 -0.85,-0.66249 -1.24999,-0.8375 -0.40001,-0.17499 -0.82084,-0.2625 -1.26251,-0.2625 -0.88334,0 -1.58542,0.29167 -2.10625,0.875 -0.52083,0.58334 -0.78125,1.37501 -0.78125,2.375 0,0.96668 0.27083,1.7375 0.81251,2.3125 0.54166,0.575 1.27082,0.86251 2.18749,0.8625 0.45,10e-6 0.87291,-0.0896 1.26875,-0.26875 0.39583,-0.17917 0.77291,-0.45625 1.13125,-0.83125 v 3.8625 c -0.53334,0.3 -1.06667,0.52083 -1.6,0.6625 -0.53334,0.14166 -1.08333,0.2125 -1.64999,0.2125 -1.94167,0 -3.51459,-0.62292 -4.71875,-1.86875 -1.20417,-1.24583 -1.80625,-2.88542 -1.80625,-4.91875 0,-1.975 0.61458,-3.58958 1.84374,-4.84375 1.22916,-1.25416 2.80625,-1.88124 4.73125,-1.88125 0.64167,10e-6 1.22083,0.0625 1.73751,0.1875 0.51665,0.12501 1.00415,0.32501 1.46249,0.6 z" />
        <path
           inkscape:connector-curvature="0"
           id="path2879"
           style="font-variant:normal;font-weight:bold;font-stretch:normal;font-size:24px;line-height:125%;font-family:'Futura Md BT';-inkscape-font-specification:'Futura Md BT Bold';text-align:start;writing-mode:lr-tb;text-anchor:start;fill:none;stroke:#ff0000;stroke-width:0.66666669;stroke-miterlimit:4;stroke-dasharray:none;stroke-opacity:1"
           d="m 612.26908,550.22689 v -9.475 h -1.8875 v -3.15 h 1.8875 v -3.7625 h 4.3875 v 3.7625 h 1.88749 v 3.15 h -1.88749 v 9.475 z" />
        <path
           inkscape:connector-curvature="0"
           id="path2881"
           style="font-variant:normal;font-weight:bold;font-stretch:normal;font-size:24px;line-height:125%;font-family:'Futura Md BT';-inkscape-font-specification:'Futura Md BT Bold';text-align:start;writing-mode:lr-tb;text-anchor:start;fill:none;stroke:#ff0000;stroke-width:0.66666669;stroke-miterlimit:4;stroke-dasharray:none;stroke-opacity:1"
           d="m 620.53157,533.66438 c 0,-0.67497 0.23959,-1.24997 0.71876,-1.72499 0.47916,-0.47498 1.05624,-0.71248 1.73125,-0.7125 0.69999,2e-5 1.28541,0.23336 1.75624,0.7 0.47083,0.46668 0.70624,1.04585 0.70625,1.73749 -10e-6,0.69169 -0.23958,1.27919 -0.71875,1.76251 -0.47917,0.48335 -1.06041,0.72501 -1.74374,0.725 -0.66668,10e-6 -1.24168,-0.24582 -1.725,-0.7375 -0.48334,-0.49165 -0.72501,-1.07499 -0.72501,-1.75001 z m 0.22501,16.56251 v -12.625 h 4.46249 v 12.625 z" />
        <path
           inkscape:connector-curvature="0"
           id="path2883"
           style="font-variant:normal;font-weight:bold;font-stretch:normal;font-size:24px;line-height:125%;font-family:'Futura Md BT';-inkscape-font-specification:'Futura Md BT Bold';text-align:start;writing-mode:lr-tb;text-anchor:start;fill:none;stroke:#ff0000;stroke-width:0.66666669;stroke-miterlimit:4;stroke-dasharray:none;stroke-opacity:1"
           d="m 637.59408,543.95189 c -10e-6,-0.94166 -0.23751,-1.68332 -0.7125,-2.225 -0.47501,-0.54166 -1.11668,-0.81249 -1.925,-0.8125 -0.81668,10e-6 -1.46043,0.27084 -1.93126,0.8125 -0.47083,0.54168 -0.70625,1.28334 -0.70625,2.225 0,0.94167 0.23334,1.68125 0.7,2.21874 0.46667,0.53751 1.1125,0.80627 1.93751,0.80626 0.81666,10e-6 1.4604,-0.26875 1.93125,-0.80626 0.47082,-0.53749 0.70624,-1.27707 0.70625,-2.21874 z m 4.42499,0 c -1e-5,0.90833 -0.1771,1.77084 -0.53124,2.5875 -0.35419,0.81666 -0.86877,1.55 -1.54376,2.2 -0.68334,0.65 -1.44792,1.14167 -2.29374,1.475 -0.84585,0.33333 -1.74376,0.5 -2.69375,0.5 -0.96668,0 -1.87293,-0.16667 -2.71876,-0.5 -0.84583,-0.33333 -1.60209,-0.825 -2.26874,-1.475 -0.66667,-0.63333 -1.17501,-1.36041 -1.52501,-2.18126 -0.35,-0.82082 -0.525,-1.68956 -0.525,-2.60624 0,-0.925 0.17292,-1.79583 0.51875,-2.6125 0.34584,-0.81666 0.85625,-1.54999 1.53126,-2.2 0.65832,-0.64166 1.41041,-1.12499 2.25624,-1.45 0.84584,-0.32498 1.75625,-0.48749 2.73126,-0.4875 0.97498,10e-6 1.88332,0.16252 2.725,0.4875 0.84165,0.32501 1.59582,0.80834 2.26249,1.45 0.68332,0.65834 1.19999,1.39584 1.55001,2.2125 0.34998,0.81668 0.52498,1.68334 0.52499,2.6 z" />
        <path
           inkscape:connector-curvature="0"
           id="path2885"
           style="font-variant:normal;font-weight:bold;font-stretch:normal;font-size:24px;line-height:125%;font-family:'Futura Md BT';-inkscape-font-specification:'Futura Md BT Bold';text-align:start;writing-mode:lr-tb;text-anchor:start;fill:none;stroke:#ff0000;stroke-width:0.66666669;stroke-miterlimit:4;stroke-dasharray:none;stroke-opacity:1"
           d="m 644.58158,550.22689 v -12.625 h 4.075 v 2.56249 c 0.59165,-1.02498 1.27499,-1.77498 2.04999,-2.24999 0.775,-0.47499 1.70416,-0.71249 2.78751,-0.7125 0.81665,10e-6 1.54373,0.13126 2.18125,0.39375 0.63748,0.26251 1.15623,0.63959 1.55624,1.13125 0.33333,0.42501 0.57082,0.94168 0.7125,1.55 0.14166,0.60834 0.2125,1.51668 0.21251,2.725 v 7.225 h -4.4625 v -6.76251 c -10e-6,-1.00832 -0.1646,-1.74165 -0.49375,-2.2 -0.32918,-0.45831 -0.85627,-0.68748 -1.58126,-0.68749 -0.925,10e-6 -1.6,0.34167 -2.02499,1.025 -0.42501,0.68334 -0.63751,1.79167 -0.6375,3.325 v 5.3 z" />
        <path
           inkscape:connector-curvature="0"
           id="path2887"
           style="font-variant:normal;font-weight:bold;font-stretch:normal;font-size:24px;line-height:125%;font-family:'Futura Md BT';-inkscape-font-specification:'Futura Md BT Bold';text-align:start;writing-mode:lr-tb;text-anchor:start;fill:none;stroke:#ff0000;stroke-width:0.66666669;stroke-miterlimit:4;stroke-dasharray:none;stroke-opacity:1"
           d="m 669.59408,550.22689 v -18.3 h 3.81249 c 2.84166,1e-5 4.85208,0.13334 6.03125,0.4 1.17916,0.26668 2.21457,0.71251 3.10625,1.33749 1.15832,0.80836 2.03749,1.84377 2.63751,3.10625 0.59998,1.26252 0.89998,2.70211 0.9,4.31876 -2e-5,1.61667 -0.30002,3.05625 -0.9,4.31875 -0.60002,1.26251 -1.47919,2.29792 -2.63751,3.10625 -0.88334,0.61666 -1.89168,1.05624 -3.025,1.31875 -1.13334,0.2625 -2.89167,0.39375 -5.275,0.39375 h -0.8375 z m 4.93749,-4.1 h 0.83751 c 1.95832,0 3.38749,-0.40208 4.2875,-1.20625 0.89999,-0.80416 1.34998,-2.08125 1.34999,-3.83125 -10e-6,-1.74999 -0.45,-3.03333 -1.34999,-3.85 -0.90001,-0.81666 -2.32918,-1.22499 -4.2875,-1.225 h -0.83751 z" />
        <path
           inkscape:connector-curvature="0"
           id="path2889"
           style="font-variant:normal;font-weight:bold;font-stretch:normal;font-size:24px;line-height:125%;font-family:'Futura Md BT';-inkscape-font-specification:'Futura Md BT Bold';text-align:start;writing-mode:lr-tb;text-anchor:start;fill:none;stroke:#ff0000;stroke-width:0.66666669;stroke-miterlimit:4;stroke-dasharray:none;stroke-opacity:1"
           d="m 688.78158,533.66438 c 0,-0.67497 0.23957,-1.24997 0.71875,-1.72499 0.47916,-0.47498 1.05625,-0.71248 1.73124,-0.7125 0.7,2e-5 1.28542,0.23336 1.75626,0.7 0.47083,0.46668 0.70624,1.04585 0.70625,1.73749 -10e-6,0.69169 -0.23959,1.27919 -0.71875,1.76251 -0.47918,0.48335 -1.06043,0.72501 -1.74376,0.725 -0.66666,10e-6 -1.24166,-0.24582 -1.725,-0.7375 -0.48333,-0.49165 -0.72499,-1.07499 -0.72499,-1.75001 z m 0.22499,16.56251 v -12.625 h 4.46251 v 12.625 z" />
        <path
           inkscape:connector-curvature="0"
           id="path2891"
           style="font-variant:normal;font-weight:bold;font-stretch:normal;font-size:24px;line-height:125%;font-family:'Futura Md BT';-inkscape-font-specification:'Futura Md BT Bold';text-align:start;writing-mode:lr-tb;text-anchor:start;fill:none;stroke:#ff0000;stroke-width:0.66666669;stroke-miterlimit:4;stroke-dasharray:none;stroke-opacity:1"
           d="m 695.70657,549.17689 0.925,-3.4 c 0.65001,0.56667 1.36459,1.00209 2.14376,1.30625 0.77916,0.30417 1.56457,0.45625 2.35624,0.45625 0.55833,0 0.98333,-0.0896 1.275,-0.26876 0.29167,-0.17915 0.43749,-0.43957 0.4375,-0.78124 -10e-6,-0.55833 -0.5875,-0.975 -1.76249,-1.25 -0.38334,-0.0916 -0.69168,-0.17084 -0.925,-0.2375 -1.33334,-0.36666 -2.30209,-0.84792 -2.90625,-1.44376 -0.60418,-0.59582 -0.90626,-1.36873 -0.90626,-2.31874 0,-1.22499 0.46042,-2.20416 1.38125,-2.9375 0.92083,-0.73332 2.16875,-1.09999 3.74376,-1.1 0.80832,10e-6 1.63124,0.0938 2.46874,0.28125 0.8375,0.18751 1.69374,0.47709 2.56875,0.86875 l -0.92499,3.0625 c -0.59168,-0.39999 -1.19168,-0.70416 -1.8,-0.9125 -0.60834,-0.20832 -1.21667,-0.31249 -1.825,-0.3125 -0.50835,10e-6 -0.89167,0.0791 -1.15001,0.2375 -0.25834,0.15834 -0.3875,0.38751 -0.3875,0.6875 0,0.45 0.58333,0.82917 1.75001,1.1375 0.26665,0.075 0.46665,0.12918 0.6,0.1625 1.54165,0.44167 2.61457,0.96043 3.21875,1.55624 0.60415,0.59584 0.90623,1.4021 0.90625,2.41876 -2e-5,1.29167 -0.49585,2.33542 -1.48751,3.13125 -0.99167,0.79583 -2.30417,1.19375 -3.93749,1.19375 -1.10834,0 -2.13751,-0.12708 -3.0875,-0.38125 -0.95001,-0.25416 -1.84168,-0.63958 -2.67501,-1.15625 z" />
        <path
           inkscape:connector-curvature="0"
           id="path2893"
           style="font-variant:normal;font-weight:bold;font-stretch:normal;font-size:24px;line-height:125%;font-family:'Futura Md BT';-inkscape-font-specification:'Futura Md BT Bold';text-align:start;writing-mode:lr-tb;text-anchor:start;fill:none;stroke:#ff0000;stroke-width:0.66666669;stroke-miterlimit:4;stroke-dasharray:none;stroke-opacity:1"
           d="m 713.25658,543.95189 c -10e-6,0.98333 0.25624,1.75834 0.76874,2.325 0.51249,0.56667 1.21874,0.85 2.11875,0.85 0.89999,0 1.61042,-0.28333 2.13126,-0.85 0.52082,-0.56666 0.78124,-1.34167 0.78125,-2.325 -1e-5,-0.98332 -0.25835,-1.75832 -0.775,-2.325 -0.51668,-0.56666 -1.22919,-0.84999 -2.13751,-0.85 -0.90001,10e-6 -1.60626,0.28334 -2.11875,0.85 -0.5125,0.56668 -0.76875,1.34168 -0.76874,2.325 z m -3.95001,11.85 v -18.2 h 4.1 v 2.125 c 0.56667,-0.84999 1.20416,-1.48333 1.9125,-1.9 0.70833,-0.41666 1.49583,-0.62499 2.36251,-0.625 1.77499,10e-6 3.18749,0.60626 4.23749,1.81875 1.04999,1.21251 1.57499,2.85626 1.57501,4.93125 -2e-5,2.01666 -0.52293,3.64792 -1.56876,4.89375 -1.04584,1.24583 -2.41042,1.86875 -4.09375,1.86875 -1.06667,0 -1.93542,-0.19584 -2.60625,-0.5875 -0.67083,-0.39167 -1.26875,-1.0375 -1.79375,-1.9375 0.0417,0.25 0.073,0.55416 0.0938,0.9125 0.0208,0.35833 0.0313,0.8 0.0313,1.325 v 5.375 z" />
        <path
           inkscape:connector-curvature="0"
           id="path2895"
           style="font-variant:normal;font-weight:bold;font-stretch:normal;font-size:24px;line-height:125%;font-family:'Futura Md BT';-inkscape-font-specification:'Futura Md BT Bold';text-align:start;writing-mode:lr-tb;text-anchor:start;fill:none;stroke:#ff0000;stroke-width:0.66666669;stroke-miterlimit:4;stroke-dasharray:none;stroke-opacity:1"
           d="m 726.30657,550.22689 v -19.375 h 4.46251 v 19.375 z" />
        <path
           inkscape:connector-curvature="0"
           id="path2897"
           style="font-variant:normal;font-weight:bold;font-stretch:normal;font-size:24px;line-height:125%;font-family:'Futura Md BT';-inkscape-font-specification:'Futura Md BT Bold';text-align:start;writing-mode:lr-tb;text-anchor:start;fill:none;stroke:#ff0000;stroke-width:0.66666669;stroke-miterlimit:4;stroke-dasharray:none;stroke-opacity:1"
           d="m 743.80657,543.90189 c -10e-6,-0.98333 -0.26251,-1.7625 -0.7875,-2.33751 -0.525,-0.57498 -1.24167,-0.86248 -2.14999,-0.86249 -0.90834,10e-6 -1.62293,0.28543 -2.14376,0.85624 -0.52083,0.57085 -0.78125,1.3521 -0.78125,2.34376 0,0.98334 0.2625,1.75833 0.7875,2.325 0.525,0.56667 1.2375,0.85001 2.13751,0.85 0.90832,10e-6 1.62499,-0.28333 2.14999,-0.85 0.52499,-0.56667 0.78749,-1.34166 0.7875,-2.325 z m 3.9125,-6.3 v 12.625 h -4.0875 v -2.05 c -0.58334,0.875 -1.23959,1.51667 -1.96874,1.925 -0.72918,0.40833 -1.58543,0.6125 -2.56875,0.6125 -1.68334,0 -3.02917,-0.61458 -4.0375,-1.84376 -1.00833,-1.22916 -1.51251,-2.87707 -1.51251,-4.94374 0,-2.05832 0.52709,-3.69374 1.58125,-4.90625 1.05417,-1.21249 2.47292,-1.81874 4.25626,-1.81875 0.94998,10e-6 1.76873,0.2021 2.45624,0.60625 0.68749,0.40418 1.27708,1.02709 1.76875,1.86875 v -2.075 z" />
        <path
           inkscape:connector-curvature="0"
           id="path2899"
           style="font-variant:normal;font-weight:bold;font-stretch:normal;font-size:24px;line-height:125%;font-family:'Futura Md BT';-inkscape-font-specification:'Futura Md BT Bold';text-align:start;writing-mode:lr-tb;text-anchor:start;fill:none;stroke:#ff0000;stroke-width:0.66666669;stroke-miterlimit:4;stroke-dasharray:none;stroke-opacity:1"
           d="m 750.39408,555.80189 3.54999,-7.5 -5.08749,-10.7 h 4.9375 l 1.7625,4.56249 c 0.14999,0.38335 0.27499,0.7396 0.37499,1.06876 0.1,0.32917 0.175,0.63543 0.22501,0.91875 0.05,-0.3 0.12291,-0.61041 0.21875,-0.93125 0.0958,-0.32083 0.21874,-0.67291 0.36874,-1.05626 l 1.7875,-4.56249 h 4.76251 l -7.9375,18.2 z" />
      </g>
      <rect
         y="576.62225"
         x="-596.64441"
         height="44.419682"
         width="314.41971"
         id="rect2958"
         style="color:#000000;display:inline;overflow:visible;visibility:visible;fill:#1cbf00;fill-opacity:0.3627451;fill-rule:evenodd;stroke:#00ff00;stroke-width:0.58031666;stroke-linecap:butt;stroke-linejoin:miter;stroke-miterlimit:4;stroke-dasharray:none;stroke-dashoffset:0;stroke-opacity:1;marker:none;enable-background:accumulate" />
      <g
         transform="matrix(0.9375,0,0,0.9375,-901.8414,63.076021)"
         id="g3811">
        <ellipse
           ry="5.6724272"
           rx="5.6724277"
           cy="571.47314"
           cx="337.23398"
           style="color:#000000;display:inline;overflow:visible;visibility:visible;fill:#ffffff;fill-opacity:1;fill-rule:evenodd;stroke:#000000;stroke-width:0.66666657;stroke-linecap:butt;stroke-linejoin:miter;stroke-miterlimit:4;stroke-dasharray:none;stroke-dashoffset:0;stroke-opacity:1;marker:none;enable-background:accumulate"
           id="path3786" />
        <ellipse
           ry="5.6724272"
           rx="5.6724277"
           cy="571.47314"
           cx="649.23395"
           id="path3809"
           style="color:#000000;display:inline;overflow:visible;visibility:visible;fill:#ffffff;fill-opacity:1;fill-rule:evenodd;stroke:#000000;stroke-width:0.66666657;stroke-linecap:butt;stroke-linejoin:miter;stroke-miterlimit:4;stroke-dasharray:none;stroke-dashoffset:0;stroke-opacity:1;marker:none;enable-background:accumulate" />
      </g>
    </g>
  </g>
</svg>
