<?xml version="1.0" encoding="UTF-8" standalone="no"?>
<!-- Created with Inkscape (http://www.inkscape.org/) -->

<svg
   xmlns:dc="http://purl.org/dc/elements/1.1/"
   xmlns:cc="http://creativecommons.org/ns#"
   xmlns:rdf="http://www.w3.org/1999/02/22-rdf-syntax-ns#"
   xmlns:svg="http://www.w3.org/2000/svg"
   xmlns="http://www.w3.org/2000/svg"
   xmlns:sodipodi="http://sodipodi.sourceforge.net/DTD/sodipodi-0.dtd"
   xmlns:inkscape="http://www.inkscape.org/namespaces/inkscape"
   width="2160"
   height="1080"
   id="svg2"
   sodipodi:version="0.32"
   inkscape:version="0.47 r22583"
   version="1.0"
   sodipodi:docname="raster-board-v0.svg"
   inkscape:output_extension="org.inkscape.output.svg.inkscape">
  <defs
     id="defs4">
    <inkscape:perspective
       sodipodi:type="inkscape:persp3d"
       inkscape:vp_x="0 : 382.5 : 1"
       inkscape:vp_y="0 : 1000 : 0"
       inkscape:vp_z="990 : 382.5 : 1"
       inkscape:persp3d-origin="495 : 255 : 1"
       id="perspective56" />
    <inkscape:perspective
       id="perspective3683"
       inkscape:persp3d-origin="0.5 : 0.33333333 : 1"
       inkscape:vp_z="1 : 0.5 : 1"
       inkscape:vp_y="0 : 1000 : 0"
       inkscape:vp_x="0 : 0.5 : 1"
       sodipodi:type="inkscape:persp3d" />
  </defs>
  <sodipodi:namedview
     id="base"
     pagecolor="#ffffff"
     bordercolor="#666666"
     borderopacity="1.0"
     gridtolerance="10000"
     guidetolerance="10"
     objecttolerance="10"
     inkscape:pageopacity="0.0"
     inkscape:pageshadow="2"
     inkscape:zoom="0.49542484"
     inkscape:cx="532.12395"
     inkscape:cy="568.83454"
     inkscape:document-units="in"
     inkscape:current-layer="layer1"
     showgrid="true"
     units="in"
     inkscape:window-width="1542"
     inkscape:window-height="988"
     inkscape:window-x="16"
     inkscape:window-y="31"
     inkscape:snap-intersection-grid-guide="false"
     inkscape:snap-bbox="true"
     inkscape:snap-nodes="false"
     inkscape:snap-global="false"
     inkscape:window-maximized="0">
    <inkscape:grid
       type="xygrid"
       id="grid2509"
       visible="true"
       enabled="true"
       units="in"
       spacingx="0.0625in"
       spacingy="0.0625in"
       empspacing="16" />
  </sodipodi:namedview>
  <metadata
     id="metadata7">
    <rdf:RDF>
      <cc:Work
         rdf:about="">
        <dc:format>image/svg+xml</dc:format>
        <dc:type
           rdf:resource="http://purl.org/dc/dcmitype/StillImage" />
      </cc:Work>
    </rdf:RDF>
  </metadata>
  <g
     inkscape:label="Layer 1"
     inkscape:groupmode="layer"
     id="layer1">
    <flowRoot
       xml:space="preserve"
       id="flowRoot3394"
       style="font-size:12px;font-style:normal;font-weight:normal;text-align:center;text-anchor:middle;fill:#000000;fill-opacity:1;stroke:none;stroke-width:1px;stroke-linecap:butt;stroke-linejoin:miter;stroke-opacity:1;font-family:Bitstream Vera Sans"
       transform="matrix(4.1250743,0,0,4.1250743,-470.62806,-3859.4051)"><flowRegion
         id="flowRegion3396"><rect
           id="rect3398"
           width="385.25931"
           height="122.26792"
           x="136.10957"
           y="1248.4067" /></flowRegion><flowPara
         id="flowPara3400" /></flowRoot>    <g
       id="g2529"
       transform="matrix(1.0000055,0,0,1,69.975292,72.75125)">
      <g
         id="g2523">
        <rect
           y="84.760002"
           x="185.9825"
           height="255.9375"
           width="562.5"
           id="rect3348"
           style="fill:#1cbf00;fill-opacity:0.32026146;fill-rule:evenodd;stroke:#ff0000;stroke-width:0.62499821;stroke-linecap:butt;stroke-linejoin:miter;stroke-miterlimit:4;stroke-dasharray:none;stroke-opacity:1" />
        <path
           sodipodi:type="arc"
           style="fill:#ffffff;fill-opacity:1;fill-rule:evenodd;stroke:#000000;stroke-width:2.30645776;stroke-linecap:butt;stroke-linejoin:miter;stroke-miterlimit:4;stroke-dasharray:none;stroke-opacity:1"
           id="path3352"
           sodipodi:cx="129.375"
           sodipodi:cy="-39.375"
           sodipodi:rx="22.5"
           sodipodi:ry="16.875"
           d="m 151.875,-39.375 c 0,9.319805 -10.07359,16.875 -22.5,16.875 -12.42641,0 -22.5,-7.555195 -22.5,-16.875 0,-9.319805 10.07359,-16.875 22.5,-16.875 12.42641,0 22.5,7.555195 22.5,16.875 z"
           transform="matrix(0.2417778,0,0,0.3037037,704.1975,339.9658)" />
        <path
           sodipodi:type="arc"
           style="fill:#ffffff;fill-opacity:1;fill-rule:evenodd;stroke:#000000;stroke-width:2.30645776;stroke-linecap:butt;stroke-linejoin:miter;stroke-miterlimit:4;stroke-dasharray:none;stroke-opacity:1"
           id="path3354"
           sodipodi:cx="129.375"
           sodipodi:cy="-39.375"
           sodipodi:rx="22.5"
           sodipodi:ry="16.875"
           d="m 151.875,-39.375 c 0,9.319805 -10.07359,16.875 -22.5,16.875 -12.42641,0 -22.5,-7.555195 -22.5,-16.875 0,-9.319805 10.07359,-16.875 22.5,-16.875 12.42641,0 22.5,7.555195 22.5,16.875 z"
           transform="matrix(0.2417778,0,0,0.3037037,168.3375,109.40833)" />
        <path
           transform="matrix(0.2417778,0,0,0.3037037,704.1975,109.40833)"
           d="m 151.875,-39.375 c 0,9.319805 -10.07359,16.875 -22.5,16.875 -12.42641,0 -22.5,-7.555195 -22.5,-16.875 0,-9.319805 10.07359,-16.875 22.5,-16.875 12.42641,0 22.5,7.555195 22.5,16.875 z"
           sodipodi:ry="16.875"
           sodipodi:rx="22.5"
           sodipodi:cy="-39.375"
           sodipodi:cx="129.375"
           id="path3356"
           style="fill:#ffffff;fill-opacity:1;fill-rule:evenodd;stroke:#ff0000;stroke-width:2.30645776;stroke-linecap:butt;stroke-linejoin:miter;stroke-miterlimit:4;stroke-dasharray:none;stroke-opacity:1"
           sodipodi:type="arc" />
      </g>
      <g
         transform="translate(197.2325,-801.2225)"
         id="g3422">
        <rect
           style="fill:#1cbf00;fill-opacity:0.3627451;fill-rule:evenodd;stroke:#ff0000;stroke-width:0.62499821;stroke-linecap:butt;stroke-linejoin:miter;stroke-miterlimit:4;stroke-dasharray:none;stroke-opacity:1"
           id="rect3424"
           width="562.5"
           height="255.9375"
           x="0"
           y="824.0625" />
        <path
           sodipodi:type="arc"
           style="fill:#ffffff;fill-opacity:1;fill-rule:evenodd;stroke:#000000;stroke-width:2.30645776;stroke-linecap:butt;stroke-linejoin:miter;stroke-miterlimit:4;stroke-dasharray:none;stroke-opacity:1"
           id="path3426"
           sodipodi:cx="129.375"
           sodipodi:cy="-39.375"
           sodipodi:rx="22.5"
           sodipodi:ry="16.875"
           d="m 151.875,-39.375 c 0,9.319805 -10.07359,16.875 -22.5,16.875 -12.42641,0 -22.5,-7.555195 -22.5,-16.875 0,-9.319805 10.07359,-16.875 22.5,-16.875 12.42641,0 22.5,7.555195 22.5,16.875 z"
           transform="matrix(0.2417778,0,0,0.3037037,-17.645002,1079.2683)" />
        <path
           transform="matrix(0.2417778,0,0,0.3037037,518.215,1079.2683)"
           d="m 151.875,-39.375 c 0,9.319805 -10.07359,16.875 -22.5,16.875 -12.42641,0 -22.5,-7.555195 -22.5,-16.875 0,-9.319805 10.07359,-16.875 22.5,-16.875 12.42641,0 22.5,7.555195 22.5,16.875 z"
           sodipodi:ry="16.875"
           sodipodi:rx="22.5"
           sodipodi:cy="-39.375"
           sodipodi:cx="129.375"
           id="path3428"
           style="fill:#ffffff;fill-opacity:1;fill-rule:evenodd;stroke:#000000;stroke-width:2.30645776;stroke-linecap:butt;stroke-linejoin:miter;stroke-miterlimit:4;stroke-dasharray:none;stroke-opacity:1"
           sodipodi:type="arc" />
        <path
           transform="matrix(0.2417778,0,0,0.3037037,-17.645002,848.71083)"
           d="m 151.875,-39.375 c 0,9.319805 -10.07359,16.875 -22.5,16.875 -12.42641,0 -22.5,-7.555195 -22.5,-16.875 0,-9.319805 10.07359,-16.875 22.5,-16.875 12.42641,0 22.5,7.555195 22.5,16.875 z"
           sodipodi:ry="16.875"
           sodipodi:rx="22.5"
           sodipodi:cy="-39.375"
           sodipodi:cx="129.375"
           id="path3430"
           style="fill:#ffffff;fill-opacity:1;fill-rule:evenodd;stroke:#000000;stroke-width:2.30645776;stroke-linecap:butt;stroke-linejoin:miter;stroke-miterlimit:4;stroke-dasharray:none;stroke-opacity:1"
           sodipodi:type="arc" />
        <path
           sodipodi:type="arc"
           style="fill:#ffffff;fill-opacity:1;fill-rule:evenodd;stroke:#000000;stroke-width:2.30645776;stroke-linecap:butt;stroke-linejoin:miter;stroke-miterlimit:4;stroke-dasharray:none;stroke-opacity:1"
           id="path3432"
           sodipodi:cx="129.375"
           sodipodi:cy="-39.375"
           sodipodi:rx="22.5"
           sodipodi:ry="16.875"
           d="m 151.875,-39.375 c 0,9.319805 -10.07359,16.875 -22.5,16.875 -12.42641,0 -22.5,-7.555195 -22.5,-16.875 0,-9.319805 10.07359,-16.875 22.5,-16.875 12.42641,0 22.5,7.555195 22.5,16.875 z"
           transform="matrix(0.2417778,0,0,0.3037037,518.215,848.71083)" />
      </g>
      <g
         transform="translate(22.8125,-438.3425)"
         id="g3482">
        <rect
           style="fill:#1cbf00;fill-opacity:0.32026146;fill-rule:evenodd;stroke:#ff0000;stroke-width:0.62499821;stroke-linecap:butt;stroke-linejoin:miter;stroke-miterlimit:4;stroke-dasharray:none;stroke-opacity:1"
           id="rect3484"
           width="562.5"
           height="255.9375"
           x="0"
           y="824.0625" />
        <path
           sodipodi:type="arc"
           style="fill:#ffffff;fill-opacity:1;fill-rule:evenodd;stroke:#000000;stroke-width:2.30645776;stroke-linecap:butt;stroke-linejoin:miter;stroke-miterlimit:4;stroke-dasharray:none;stroke-opacity:1"
           id="path3486"
           sodipodi:cx="129.375"
           sodipodi:cy="-39.375"
           sodipodi:rx="22.5"
           sodipodi:ry="16.875"
           d="m 151.875,-39.375 c 0,9.319805 -10.07359,16.875 -22.5,16.875 -12.42641,0 -22.5,-7.555195 -22.5,-16.875 0,-9.319805 10.07359,-16.875 22.5,-16.875 12.42641,0 22.5,7.555195 22.5,16.875 z"
           transform="matrix(0.2417778,0,0,0.3037037,-17.645002,1079.2683)" />
        <path
           transform="matrix(0.2417778,0,0,0.3037037,518.215,1079.2683)"
           d="m 151.875,-39.375 c 0,9.319805 -10.07359,16.875 -22.5,16.875 -12.42641,0 -22.5,-7.555195 -22.5,-16.875 0,-9.319805 10.07359,-16.875 22.5,-16.875 12.42641,0 22.5,7.555195 22.5,16.875 z"
           sodipodi:ry="16.875"
           sodipodi:rx="22.5"
           sodipodi:cy="-39.375"
           sodipodi:cx="129.375"
           id="path3488"
           style="fill:#ffffff;fill-opacity:1;fill-rule:evenodd;stroke:#000000;stroke-width:2.30645776;stroke-linecap:butt;stroke-linejoin:miter;stroke-miterlimit:4;stroke-dasharray:none;stroke-opacity:1"
           sodipodi:type="arc" />
        <path
           transform="matrix(0.2417778,0,0,0.3037037,-17.645002,848.71083)"
           d="m 151.875,-39.375 c 0,9.319805 -10.07359,16.875 -22.5,16.875 -12.42641,0 -22.5,-7.555195 -22.5,-16.875 0,-9.319805 10.07359,-16.875 22.5,-16.875 12.42641,0 22.5,7.555195 22.5,16.875 z"
           sodipodi:ry="16.875"
           sodipodi:rx="22.5"
           sodipodi:cy="-39.375"
           sodipodi:cx="129.375"
           id="path3490"
           style="fill:#ffffff;fill-opacity:1;fill-rule:evenodd;stroke:#000000;stroke-width:2.30645776;stroke-linecap:butt;stroke-linejoin:miter;stroke-miterlimit:4;stroke-dasharray:none;stroke-opacity:1"
           sodipodi:type="arc" />
        <path
           sodipodi:type="arc"
           style="fill:#ffffff;fill-opacity:1;fill-rule:evenodd;stroke:#000000;stroke-width:2.30645776;stroke-linecap:butt;stroke-linejoin:miter;stroke-miterlimit:4;stroke-dasharray:none;stroke-opacity:1"
           id="path3492"
           sodipodi:cx="129.375"
           sodipodi:cy="-39.375"
           sodipodi:rx="22.5"
           sodipodi:ry="16.875"
           d="m 151.875,-39.375 c 0,9.319805 -10.07359,16.875 -22.5,16.875 -12.42641,0 -22.5,-7.555195 -22.5,-16.875 0,-9.319805 10.07359,-16.875 22.5,-16.875 12.42641,0 22.5,7.555195 22.5,16.875 z"
           transform="matrix(0.2417778,0,0,0.3037037,518.215,848.71083)" />
      </g>
      <g
         id="g2515">
        <path
           transform="matrix(0.2417778,0,0,0.3037037,168.3375,339.9658)"
           d="m 151.875,-39.375 c 0,9.319805 -10.07359,16.875 -22.5,16.875 -12.42641,0 -22.5,-7.555195 -22.5,-16.875 0,-9.319805 10.07359,-16.875 22.5,-16.875 12.42641,0 22.5,7.555195 22.5,16.875 z"
           sodipodi:ry="16.875"
           sodipodi:rx="22.5"
           sodipodi:cy="-39.375"
           sodipodi:cx="129.375"
           id="path3350"
           style="fill:#ffffff;fill-opacity:1;fill-rule:evenodd;stroke:#000000;stroke-width:2.30645776;stroke-linecap:butt;stroke-linejoin:miter;stroke-miterlimit:4;stroke-dasharray:none;stroke-opacity:1"
           sodipodi:type="arc" />
        <rect
           y="323.79999"
           x="34.0625"
           height="255.9375"
           width="562.5"
           id="rect3496"
           style="fill:#1cbf00;fill-opacity:0.3627451;fill-rule:evenodd;stroke:#ff0000;stroke-width:0.62499821;stroke-linecap:butt;stroke-linejoin:miter;stroke-miterlimit:4;stroke-dasharray:none;stroke-opacity:1" />
        <path
           transform="matrix(0.2417778,0,0,0.3037037,16.417498,579.0058)"
           d="m 151.875,-39.375 c 0,9.319805 -10.07359,16.875 -22.5,16.875 -12.42641,0 -22.5,-7.555195 -22.5,-16.875 0,-9.319805 10.07359,-16.875 22.5,-16.875 12.42641,0 22.5,7.555195 22.5,16.875 z"
           sodipodi:ry="16.875"
           sodipodi:rx="22.5"
           sodipodi:cy="-39.375"
           sodipodi:cx="129.375"
           id="path3498"
           style="fill:#ffffff;fill-opacity:1;fill-rule:evenodd;stroke:#ff0000;stroke-width:2.30645776;stroke-linecap:butt;stroke-linejoin:miter;stroke-miterlimit:4;stroke-dasharray:none;stroke-opacity:1"
           sodipodi:type="arc" />
        <path
           sodipodi:type="arc"
           style="fill:#ffffff;fill-opacity:1;fill-rule:evenodd;stroke:#000000;stroke-width:2.30645776;stroke-linecap:butt;stroke-linejoin:miter;stroke-miterlimit:4;stroke-dasharray:none;stroke-opacity:1"
           id="path3500"
           sodipodi:cx="129.375"
           sodipodi:cy="-39.375"
           sodipodi:rx="22.5"
           sodipodi:ry="16.875"
           d="m 151.875,-39.375 c 0,9.319805 -10.07359,16.875 -22.5,16.875 -12.42641,0 -22.5,-7.555195 -22.5,-16.875 0,-9.319805 10.07359,-16.875 22.5,-16.875 12.42641,0 22.5,7.555195 22.5,16.875 z"
           transform="matrix(0.2417778,0,0,0.3037037,552.2775,579.0058)" />
        <path
           sodipodi:type="arc"
           style="fill:#ffffff;fill-opacity:1;fill-rule:evenodd;stroke:#000000;stroke-width:2.30645776;stroke-linecap:butt;stroke-linejoin:miter;stroke-miterlimit:4;stroke-dasharray:none;stroke-opacity:1"
           id="path3502"
           sodipodi:cx="129.375"
           sodipodi:cy="-39.375"
           sodipodi:rx="22.5"
           sodipodi:ry="16.875"
           d="m 151.875,-39.375 c 0,9.319805 -10.07359,16.875 -22.5,16.875 -12.42641,0 -22.5,-7.555195 -22.5,-16.875 0,-9.319805 10.07359,-16.875 22.5,-16.875 12.42641,0 22.5,7.555195 22.5,16.875 z"
           transform="matrix(0.2417778,0,0,0.3037037,16.417498,348.44833)" />
        <path
           transform="matrix(0.2417778,0,0,0.3037037,552.2775,348.44833)"
           d="m 151.875,-39.375 c 0,9.319805 -10.07359,16.875 -22.5,16.875 -12.42641,0 -22.5,-7.555195 -22.5,-16.875 0,-9.319805 10.07359,-16.875 22.5,-16.875 12.42641,0 22.5,7.555195 22.5,16.875 z"
           sodipodi:ry="16.875"
           sodipodi:rx="22.5"
           sodipodi:cy="-39.375"
           sodipodi:cx="129.375"
           id="path3504"
           style="fill:#ffffff;fill-opacity:1;fill-rule:evenodd;stroke:#000000;stroke-width:2.30645776;stroke-linecap:butt;stroke-linejoin:miter;stroke-miterlimit:4;stroke-dasharray:none;stroke-opacity:1"
           sodipodi:type="arc" />
      </g>
      <text
         xml:space="preserve"
         style="font-size:12px;font-style:normal;font-weight:normal;text-align:center;text-anchor:middle;fill:#ff0000;fill-opacity:1;stroke:none;stroke-width:1px;stroke-linecap:butt;stroke-linejoin:miter;stroke-opacity:1;font-family:Bitstream Vera Sans"
         x="483.72626"
         y="606.80536"
         id="text3542"><tspan
           sodipodi:role="line"
           id="tspan3544"
           x="483.72626"
           y="606.80536">depth 9/16&quot;</tspan></text>
      <text
         id="text3546"
         y="365.72989"
         x="482.57275"
         style="font-size:12px;font-style:normal;font-weight:normal;text-align:center;text-anchor:middle;fill:#ff0000;fill-opacity:1;stroke:none;stroke-width:1px;stroke-linecap:butt;stroke-linejoin:miter;stroke-opacity:1;font-family:Bitstream Vera Sans"
         xml:space="preserve"><tspan
           y="365.72989"
           x="482.57275"
           id="tspan3548"
           sodipodi:role="line">depth 1&quot;</tspan><tspan
           y="380.72989"
           x="482.57275"
           sodipodi:role="line"
           id="tspan3550" /></text>
      <text
         xml:space="preserve"
         style="font-size:12px;font-style:normal;font-weight:normal;text-align:center;text-anchor:middle;fill:#ff0000;fill-opacity:1;stroke:none;stroke-width:1px;stroke-linecap:butt;stroke-linejoin:miter;stroke-opacity:1;font-family:Bitstream Vera Sans"
         x="616.37537"
         y="301.13553"
         id="text3552"><tspan
           sodipodi:role="line"
           id="tspan3554"
           x="616.37537"
           y="301.13553">depth 1 1/8&quot;</tspan><tspan
           id="tspan3556"
           sodipodi:role="line"
           x="616.37537"
           y="316.13553" /></text>
      <text
         id="text3558"
         y="47.371941"
         x="627.9101"
         style="font-size:12px;font-style:normal;font-weight:normal;text-align:center;text-anchor:middle;fill:#ff0000;fill-opacity:1;stroke:none;stroke-width:1px;stroke-linecap:butt;stroke-linejoin:miter;stroke-opacity:1;font-family:Bitstream Vera Sans"
         xml:space="preserve"><tspan
           y="47.371941"
           x="627.9101"
           sodipodi:role="line"
           id="tspan3564">depth 11/16&quot;</tspan><tspan
           y="62.371941"
           x="627.9101"
           sodipodi:role="line"
           id="tspan3562" /></text>
    </g>
    <rect
       style="fill:none;fill-rule:evenodd;stroke:#0000ff;stroke-width:0.625;stroke-linecap:butt;stroke-linejoin:miter;stroke-miterlimit:4;stroke-dasharray:none;stroke-opacity:1"
       id="rect2566"
       width="876.87506"
       height="764.375"
       x="22.812502"
       y="22.8125"
       ry="11.25"
       rx="11.250002" />
    <g
       style="font-size:40px;font-style:normal;font-weight:normal;line-height:125%;fill:none;fill-opacity:1;stroke:#0000ff;font-family:Bitstream Vera Sans;stroke-opacity:1;stroke-width:0.625;stroke-miterlimit:4;stroke-dasharray:none"
       id="text2854"
       transform="translate(-120.09894,38.350924)">
      <path
         d="m 466.57648,515.83771 -4.3711,0 -1.00781,-7.41797 c -0.0703,-0.52343 -0.13478,-1.10546 -0.19336,-1.74609 -0.0586,-0.64062 -0.11134,-1.33984 -0.1582,-2.09766 -0.10939,0.72657 -0.32424,1.63282 -0.64453,2.71875 -0.0703,0.22657 -0.12111,0.39454 -0.15235,0.50391 l -2.33203,8.03906 -3.11719,0 -2.33203,-8.03906 c -0.0312,-0.10937 -0.0781,-0.27734 -0.14062,-0.50391 -0.32813,-1.08593 -0.54298,-1.98827 -0.64453,-2.70703 -0.0469,0.64845 -0.10157,1.29102 -0.16407,1.92773 -0.0625,0.63673 -0.13672,1.27149 -0.22265,1.9043 l -1.00781,7.41797 -4.34766,0 2.64844,-17.15625 4.6289,0 2.58985,8.84765 c 0.0156,0.0625 0.0469,0.16407 0.0937,0.30469 0.24217,0.78907 0.39452,1.46485 0.45703,2.02735 0.0312,-0.30469 0.0898,-0.64258 0.17578,-1.01368 0.0859,-0.37108 0.20311,-0.81835 0.35156,-1.34179 l 2.61328,-8.82422 4.64063,0 z"
         style="font-size:24px;font-variant:normal;font-weight:bold;font-stretch:normal;text-align:start;line-height:125%;writing-mode:lr-tb;text-anchor:start;font-family:Futura Md BT;-inkscape-font-specification:Futura Md BT Bold;fill:none;stroke:#0000ff;stroke-opacity:1;stroke-width:0.625;stroke-miterlimit:4;stroke-dasharray:none"
         id="path2859" />
      <path
         d="m 480.9671,504.00177 0,6.04688 c -1e-5,1.33594 -0.10743,2.32617 -0.32226,2.9707 -0.21486,0.64453 -0.57619,1.2168 -1.08399,1.7168 -0.52345,0.52343 -1.17579,0.91406 -1.95703,1.17187 -0.78126,0.25781 -1.69923,0.38672 -2.75391,0.38672 -1.04688,0 -1.95899,-0.12891 -2.73632,-0.38672 -0.77735,-0.25781 -1.43946,-0.64844 -1.98633,-1.17187 -0.50782,-0.48438 -0.86719,-1.05274 -1.07813,-1.70508 -0.21094,-0.65234 -0.3164,-1.64648 -0.3164,-2.98242 l 0,-6.04688 3.98437,0 0,6.31641 c 0,0.99219 0.16406,1.70898 0.49219,2.15039 0.32812,0.44141 0.85937,0.66211 1.59375,0.66211 0.74218,0 1.27538,-0.2168 1.59961,-0.65039 0.32421,-0.43359 0.48632,-1.1543 0.48633,-2.16211 l 0,-6.31641 z"
         style="font-size:24px;font-variant:normal;font-weight:bold;font-stretch:normal;text-align:start;line-height:125%;writing-mode:lr-tb;text-anchor:start;font-family:Futura Md BT;-inkscape-font-specification:Futura Md BT Bold;fill:none;stroke:#0000ff;stroke-opacity:1;stroke-width:0.625;stroke-miterlimit:4;stroke-dasharray:none"
         id="path2861" />
      <path
         d="m 484.08429,515.83771 0,-18.16406 4.18359,0 0,18.16406 z"
         style="font-size:24px;font-variant:normal;font-weight:bold;font-stretch:normal;text-align:start;line-height:125%;writing-mode:lr-tb;text-anchor:start;font-family:Futura Md BT;-inkscape-font-specification:Futura Md BT Bold;fill:none;stroke:#0000ff;stroke-opacity:1;stroke-width:0.625;stroke-miterlimit:4;stroke-dasharray:none"
         id="path2863" />
      <path
         d="m 492.11163,515.83771 0,-8.88281 -1.76953,0 0,-2.95313 1.76953,0 0,-3.52734 4.11328,0 0,3.52734 1.76954,0 0,2.95313 -1.76954,0 0,8.88281 z"
         style="font-size:24px;font-variant:normal;font-weight:bold;font-stretch:normal;text-align:start;line-height:125%;writing-mode:lr-tb;text-anchor:start;font-family:Futura Md BT;-inkscape-font-specification:Futura Md BT Bold;fill:none;stroke:#0000ff;stroke-opacity:1;stroke-width:0.625;stroke-miterlimit:4;stroke-dasharray:none"
         id="path2865" />
      <path
         d="m 499.85773,500.31036 c 0,-0.63279 0.2246,-1.17185 0.67383,-1.61718 0.44921,-0.4453 0.99023,-0.66795 1.62304,-0.66797 0.65625,2e-5 1.20508,0.21877 1.64649,0.65625 0.4414,0.43751 0.6621,0.98048 0.66211,1.6289 -10e-6,0.64846 -0.22462,1.19924 -0.67383,1.65235 -0.44923,0.45314 -0.99415,0.6797 -1.63477,0.67969 -0.625,10e-6 -1.16406,-0.23046 -1.61719,-0.69141 -0.45312,-0.46092 -0.67968,-1.0078 -0.67968,-1.64063 z m 0.21093,15.52735 0,-11.83594 4.1836,0 0,11.83594 z"
         style="font-size:24px;font-variant:normal;font-weight:bold;font-stretch:normal;text-align:start;line-height:125%;writing-mode:lr-tb;text-anchor:start;font-family:Futura Md BT;-inkscape-font-specification:Futura Md BT Bold;fill:none;stroke:#0000ff;stroke-opacity:1;stroke-width:0.625;stroke-miterlimit:4;stroke-dasharray:none"
         id="path2867" />
      <path
         d="m 507.4046,511.85333 0,-3.82031 7.96875,0 0,3.82031 z"
         style="font-size:24px;font-variant:normal;font-weight:bold;font-stretch:normal;text-align:start;line-height:125%;writing-mode:lr-tb;text-anchor:start;font-family:Futura Md BT;-inkscape-font-specification:Futura Md BT Bold;fill:none;stroke:#0000ff;stroke-opacity:1;stroke-width:0.625;stroke-miterlimit:4;stroke-dasharray:none"
         id="path2869" />
      <path
         d="m 518.7132,515.83771 0,-17.15625 10.51171,0 0,3.76172 -5.95312,0 0,2.97656 5.61328,0 0,3.67969 -5.61328,0 0,6.73828 z"
         style="font-size:24px;font-variant:normal;font-weight:bold;font-stretch:normal;text-align:start;line-height:125%;writing-mode:lr-tb;text-anchor:start;font-family:Futura Md BT;-inkscape-font-specification:Futura Md BT Bold;fill:none;stroke:#0000ff;stroke-opacity:1;stroke-width:0.625;stroke-miterlimit:4;stroke-dasharray:none"
         id="path2871" />
      <path
         d="m 543.63898,504.00177 0,6.04688 c -2e-5,1.33594 -0.10744,2.32617 -0.32227,2.9707 -0.21486,0.64453 -0.57618,1.2168 -1.08398,1.7168 -0.52345,0.52343 -1.1758,0.91406 -1.95703,1.17187 -0.78126,0.25781 -1.69923,0.38672 -2.75391,0.38672 -1.04688,0 -1.95899,-0.12891 -2.73633,-0.38672 -0.77735,-0.25781 -1.43946,-0.64844 -1.98633,-1.17187 -0.50781,-0.48438 -0.86719,-1.05274 -1.07812,-1.70508 -0.21094,-0.65234 -0.31641,-1.64648 -0.31641,-2.98242 l 0,-6.04688 3.98438,0 0,6.31641 c -10e-6,0.99219 0.16405,1.70898 0.49218,2.15039 0.32812,0.44141 0.85937,0.66211 1.59375,0.66211 0.74218,0 1.27539,-0.2168 1.59961,-0.65039 0.32421,-0.43359 0.48632,-1.1543 0.48633,-2.16211 l 0,-6.31641 z"
         style="font-size:24px;font-variant:normal;font-weight:bold;font-stretch:normal;text-align:start;line-height:125%;writing-mode:lr-tb;text-anchor:start;font-family:Futura Md BT;-inkscape-font-specification:Futura Md BT Bold;fill:none;stroke:#0000ff;stroke-opacity:1;stroke-width:0.625;stroke-miterlimit:4;stroke-dasharray:none"
         id="path2873" />
      <path
         d="m 546.63898,515.83771 0,-11.83594 3.82031,0 0,2.40234 c 0.55468,-0.96092 1.19531,-1.66405 1.92187,-2.10937 0.72656,-0.4453 1.59765,-0.66796 2.61329,-0.66797 0.76561,10e-6 1.44725,0.12306 2.04492,0.36914 0.59764,0.24611 1.08397,0.59962 1.45898,1.06055 0.31249,0.39845 0.53514,0.88282 0.66797,1.45312 0.1328,0.57032 0.19921,1.42189 0.19922,2.55469 l 0,6.77344 -4.18359,0 0,-6.33985 c -10e-6,-0.9453 -0.15431,-1.6328 -0.46289,-2.0625 -0.30861,-0.42967 -0.80275,-0.64452 -1.48243,-0.64453 -0.86719,10e-6 -1.5,0.32032 -1.89843,0.96094 -0.39845,0.64063 -0.59767,1.67969 -0.59766,3.11719 l 0,4.96875 z"
         style="font-size:24px;font-variant:normal;font-weight:bold;font-stretch:normal;text-align:start;line-height:125%;writing-mode:lr-tb;text-anchor:start;font-family:Futura Md BT;-inkscape-font-specification:Futura Md BT Bold;fill:none;stroke:#0000ff;stroke-opacity:1;stroke-width:0.625;stroke-miterlimit:4;stroke-dasharray:none"
         id="path2875" />
      <path
         d="m 570.79132,507.8924 c -0.40626,-0.35937 -0.79688,-0.62109 -1.17187,-0.78516 -0.37501,-0.16405 -0.76954,-0.24609 -1.1836,-0.24609 -0.82813,0 -1.48633,0.27344 -1.97461,0.82031 -0.48828,0.54688 -0.73242,1.28907 -0.73242,2.22656 0,0.90626 0.2539,1.62891 0.76172,2.16797 0.50781,0.53906 1.1914,0.8086 2.05078,0.80859 0.42187,10e-6 0.81835,-0.084 1.18945,-0.25195 0.37109,-0.16797 0.7246,-0.42773 1.06055,-0.7793 l 0,3.6211 c -0.50001,0.28125 -1.00001,0.48828 -1.5,0.62109 -0.50001,0.13281 -1.01563,0.19922 -1.54687,0.19922 -1.82032,0 -3.29493,-0.58399 -4.42383,-1.75195 -1.12891,-1.16797 -1.69336,-2.70508 -1.69336,-4.61133 0,-1.85156 0.57617,-3.36523 1.72851,-4.54102 1.15234,-1.17577 2.63086,-1.76366 4.43555,-1.76367 0.60156,10e-6 1.14452,0.0586 1.62891,0.17578 0.48436,0.1172 0.94139,0.3047 1.37109,0.5625 z"
         style="font-size:24px;font-variant:normal;font-weight:bold;font-stretch:normal;text-align:start;line-height:125%;writing-mode:lr-tb;text-anchor:start;font-family:Futura Md BT;-inkscape-font-specification:Futura Md BT Bold;fill:none;stroke:#0000ff;stroke-opacity:1;stroke-width:0.625;stroke-miterlimit:4;stroke-dasharray:none"
         id="path2877" />
      <path
         d="m 574.00226,515.83771 0,-8.88281 -1.76953,0 0,-2.95313 1.76953,0 0,-3.52734 4.11328,0 0,3.52734 1.76953,0 0,2.95313 -1.76953,0 0,8.88281 z"
         style="font-size:24px;font-variant:normal;font-weight:bold;font-stretch:normal;text-align:start;line-height:125%;writing-mode:lr-tb;text-anchor:start;font-family:Futura Md BT;-inkscape-font-specification:Futura Md BT Bold;fill:none;stroke:#0000ff;stroke-opacity:1;stroke-width:0.625;stroke-miterlimit:4;stroke-dasharray:none"
         id="path2879" />
      <path
         d="m 581.74835,500.31036 c 0,-0.63279 0.22461,-1.17185 0.67383,-1.61718 0.44922,-0.4453 0.99023,-0.66795 1.62305,-0.66797 0.65624,2e-5 1.20507,0.21877 1.64648,0.65625 0.4414,0.43751 0.6621,0.98048 0.66211,1.6289 -1e-5,0.64846 -0.22461,1.19924 -0.67383,1.65235 -0.44922,0.45314 -0.99414,0.6797 -1.63476,0.67969 -0.62501,10e-6 -1.16407,-0.23046 -1.61719,-0.69141 -0.45313,-0.46092 -0.67969,-1.0078 -0.67969,-1.64063 z m 0.21094,15.52735 0,-11.83594 4.18359,0 0,11.83594 z"
         style="font-size:24px;font-variant:normal;font-weight:bold;font-stretch:normal;text-align:start;line-height:125%;writing-mode:lr-tb;text-anchor:start;font-family:Futura Md BT;-inkscape-font-specification:Futura Md BT Bold;fill:none;stroke:#0000ff;stroke-opacity:1;stroke-width:0.625;stroke-miterlimit:4;stroke-dasharray:none"
         id="path2881" />
      <path
         d="m 597.74445,509.9549 c -10e-6,-0.88281 -0.22267,-1.57812 -0.66797,-2.08594 -0.44532,-0.50781 -1.04689,-0.76171 -1.80469,-0.76172 -0.76563,1e-5 -1.36915,0.25391 -1.81055,0.76172 -0.44141,0.50782 -0.66211,1.20313 -0.66211,2.08594 0,0.88281 0.21875,1.57617 0.65625,2.08007 0.4375,0.50391 1.04297,0.75587 1.81641,0.75586 0.76562,10e-6 1.36913,-0.25195 1.81055,-0.75586 0.44139,-0.5039 0.6621,-1.19726 0.66211,-2.08007 z m 4.14843,0 c -10e-6,0.85156 -0.16603,1.66016 -0.49804,2.42578 -0.33205,0.76562 -0.81447,1.45312 -1.44727,2.0625 -0.64064,0.60937 -1.35743,1.07031 -2.15039,1.38281 -0.79298,0.3125 -1.63477,0.46875 -2.52539,0.46875 -0.90626,0 -1.75587,-0.15625 -2.54883,-0.46875 -0.79297,-0.3125 -1.50196,-0.77344 -2.12695,-1.38281 -0.625,-0.59375 -1.10157,-1.27539 -1.42969,-2.04493 -0.32813,-0.76952 -0.49219,-1.58397 -0.49219,-2.44335 0,-0.86719 0.16211,-1.68359 0.48633,-2.44922 0.32422,-0.76562 0.80273,-1.45312 1.43555,-2.0625 0.61718,-0.60156 1.32226,-1.05468 2.11523,-1.35938 0.79297,-0.30467 1.64648,-0.45702 2.56055,-0.45703 0.91405,10e-6 1.76562,0.15236 2.55469,0.45703 0.78905,0.3047 1.49608,0.75782 2.12109,1.35938 0.64061,0.61719 1.12499,1.3086 1.45313,2.07422 0.32811,0.76563 0.49217,1.57813 0.49218,2.4375 z"
         style="font-size:24px;font-variant:normal;font-weight:bold;font-stretch:normal;text-align:start;line-height:125%;writing-mode:lr-tb;text-anchor:start;font-family:Futura Md BT;-inkscape-font-specification:Futura Md BT Bold;fill:none;stroke:#0000ff;stroke-opacity:1;stroke-width:0.625;stroke-miterlimit:4;stroke-dasharray:none"
         id="path2883" />
      <path
         d="m 604.29523,515.83771 0,-11.83594 3.82031,0 0,2.40234 c 0.55468,-0.96092 1.19531,-1.66405 1.92187,-2.10937 0.72656,-0.4453 1.59765,-0.66796 2.61329,-0.66797 0.76561,10e-6 1.44725,0.12306 2.04492,0.36914 0.59764,0.24611 1.08397,0.59962 1.45898,1.06055 0.31249,0.39845 0.53514,0.88282 0.66797,1.45312 0.1328,0.57032 0.19921,1.42189 0.19922,2.55469 l 0,6.77344 -4.18359,0 0,-6.33985 c -10e-6,-0.9453 -0.15431,-1.6328 -0.46289,-2.0625 -0.30861,-0.42967 -0.80275,-0.64452 -1.48243,-0.64453 -0.86719,10e-6 -1.5,0.32032 -1.89843,0.96094 -0.39845,0.64063 -0.59767,1.67969 -0.59766,3.11719 l 0,4.96875 z"
         style="font-size:24px;font-variant:normal;font-weight:bold;font-stretch:normal;text-align:start;line-height:125%;writing-mode:lr-tb;text-anchor:start;font-family:Futura Md BT;-inkscape-font-specification:Futura Md BT Bold;fill:none;stroke:#0000ff;stroke-opacity:1;stroke-width:0.625;stroke-miterlimit:4;stroke-dasharray:none"
         id="path2885" />
      <path
         d="m 627.74445,515.83771 0,-17.15625 3.57421,0 c 2.66406,10e-6 4.54882,0.12501 5.6543,0.375 1.10546,0.25001 2.07616,0.66798 2.91211,1.2539 1.08592,0.75783 1.91014,1.72853 2.47266,2.91211 0.56248,1.18361 0.84373,2.53322 0.84375,4.04883 -2e-5,1.51563 -0.28127,2.86524 -0.84375,4.04883 -0.56252,1.1836 -1.38674,2.1543 -2.47266,2.91211 -0.82814,0.57812 -1.77345,0.99023 -2.83594,1.23633 -1.06251,0.24609 -2.71094,0.36914 -4.94531,0.36914 l -0.78516,0 z m 4.6289,-3.84375 0.78516,0 c 1.83593,0 3.17577,-0.37695 4.01953,-1.13086 0.84374,-0.7539 1.26561,-1.95117 1.26562,-3.5918 -10e-6,-1.64061 -0.42188,-2.84374 -1.26562,-3.60937 -0.84376,-0.76562 -2.1836,-1.14843 -4.01953,-1.14844 l -0.78516,0 z"
         style="font-size:24px;font-variant:normal;font-weight:bold;font-stretch:normal;text-align:start;line-height:125%;writing-mode:lr-tb;text-anchor:start;font-family:Futura Md BT;-inkscape-font-specification:Futura Md BT Bold;fill:none;stroke:#0000ff;stroke-opacity:1;stroke-width:0.625;stroke-miterlimit:4;stroke-dasharray:none"
         id="path2887" />
      <path
         d="m 645.73273,500.31036 c 0,-0.63279 0.2246,-1.17185 0.67383,-1.61718 0.44921,-0.4453 0.99023,-0.66795 1.62304,-0.66797 0.65625,2e-5 1.20508,0.21877 1.64649,0.65625 0.4414,0.43751 0.6621,0.98048 0.66211,1.6289 -10e-6,0.64846 -0.22462,1.19924 -0.67383,1.65235 -0.44923,0.45314 -0.99415,0.6797 -1.63477,0.67969 -0.625,10e-6 -1.16406,-0.23046 -1.61719,-0.69141 -0.45312,-0.46092 -0.67968,-1.0078 -0.67968,-1.64063 z m 0.21093,15.52735 0,-11.83594 4.1836,0 0,11.83594 z"
         style="font-size:24px;font-variant:normal;font-weight:bold;font-stretch:normal;text-align:start;line-height:125%;writing-mode:lr-tb;text-anchor:start;font-family:Futura Md BT;-inkscape-font-specification:Futura Md BT Bold;fill:none;stroke:#0000ff;stroke-opacity:1;stroke-width:0.625;stroke-miterlimit:4;stroke-dasharray:none"
         id="path2889" />
      <path
         d="m 652.22491,514.85333 0.86719,-3.1875 c 0.60938,0.53126 1.2793,0.93946 2.00977,1.22461 0.73046,0.28516 1.46679,0.42774 2.20898,0.42774 0.52343,0 0.92187,-0.084 1.19531,-0.25196 0.27344,-0.16796 0.41015,-0.4121 0.41016,-0.73242 -1e-5,-0.52343 -0.55079,-0.91406 -1.65234,-1.17187 -0.35938,-0.0859 -0.64845,-0.16016 -0.86719,-0.22266 -1.25,-0.34374 -2.15821,-0.79492 -2.72461,-1.35352 -0.56641,-0.55858 -0.84961,-1.28319 -0.84961,-2.17382 0,-1.14843 0.43164,-2.0664 1.29492,-2.75391 0.86328,-0.68749 2.0332,-1.03124 3.50977,-1.03125 0.7578,10e-6 1.52929,0.0879 2.31445,0.26367 0.78515,0.17579 1.58788,0.44728 2.4082,0.81446 l -0.86718,2.87109 c -0.5547,-0.37499 -1.1172,-0.66015 -1.6875,-0.85547 -0.57032,-0.1953 -1.14063,-0.29296 -1.71094,-0.29297 -0.47657,1e-5 -0.83594,0.0742 -1.07813,0.22266 -0.24219,0.14844 -0.36328,0.36329 -0.36328,0.64453 0,0.42188 0.54687,0.77735 1.64063,1.06641 0.24999,0.0703 0.43749,0.1211 0.5625,0.15234 1.4453,0.41407 2.45116,0.9004 3.01758,1.45898 0.56639,0.5586 0.84959,1.31446 0.84961,2.26758 -2e-5,1.21094 -0.46486,2.18946 -1.39454,2.93555 -0.92969,0.74609 -2.16016,1.11914 -3.6914,1.11914 -1.03907,0 -2.00391,-0.11914 -2.89453,-0.35742 -0.89063,-0.23828 -1.72657,-0.59961 -2.50782,-1.08399 z"
         style="font-size:24px;font-variant:normal;font-weight:bold;font-stretch:normal;text-align:start;line-height:125%;writing-mode:lr-tb;text-anchor:start;font-family:Futura Md BT;-inkscape-font-specification:Futura Md BT Bold;fill:none;stroke:#0000ff;stroke-opacity:1;stroke-width:0.625;stroke-miterlimit:4;stroke-dasharray:none"
         id="path2891" />
      <path
         d="m 668.67804,509.9549 c -10e-6,0.92187 0.24023,1.64844 0.7207,2.17968 0.48046,0.53126 1.14257,0.79688 1.98633,0.79688 0.84374,0 1.50976,-0.26562 1.99805,-0.79688 0.48827,-0.53124 0.73241,-1.25781 0.73242,-2.17968 -10e-6,-0.92187 -0.2422,-1.64843 -0.72656,-2.17969 -0.48439,-0.53124 -1.15236,-0.79687 -2.00391,-0.79688 -0.84376,10e-6 -1.50587,0.26564 -1.98633,0.79688 -0.48047,0.53126 -0.72071,1.25782 -0.7207,2.17969 z m -3.70313,11.10937 0,-17.0625 3.84375,0 0,1.99219 c 0.53125,-0.79687 1.1289,-1.39062 1.79297,-1.78125 0.66406,-0.39062 1.40234,-0.58593 2.21485,-0.58594 1.66405,10e-6 2.98827,0.56837 3.97265,1.70508 0.98436,1.13673 1.47655,2.67774 1.47657,4.62305 -2e-5,1.89062 -0.49025,3.41992 -1.47071,4.58789 -0.98048,1.16796 -2.25977,1.75195 -3.83789,1.75195 -1.00001,0 -1.81446,-0.1836 -2.44336,-0.55078 -0.62891,-0.36719 -1.18946,-0.97266 -1.68164,-1.81641 0.0391,0.23438 0.0684,0.51953 0.0879,0.85547 0.0195,0.33594 0.0293,0.75 0.0293,1.24219 l 0,5.03906 z"
         style="font-size:24px;font-variant:normal;font-weight:bold;font-stretch:normal;text-align:start;line-height:125%;writing-mode:lr-tb;text-anchor:start;font-family:Futura Md BT;-inkscape-font-specification:Futura Md BT Bold;fill:none;stroke:#0000ff;stroke-opacity:1;stroke-width:0.625;stroke-miterlimit:4;stroke-dasharray:none"
         id="path2893" />
      <path
         d="m 680.91241,515.83771 0,-18.16406 4.1836,0 0,18.16406 z"
         style="font-size:24px;font-variant:normal;font-weight:bold;font-stretch:normal;text-align:start;line-height:125%;writing-mode:lr-tb;text-anchor:start;font-family:Futura Md BT;-inkscape-font-specification:Futura Md BT Bold;fill:none;stroke:#0000ff;stroke-opacity:1;stroke-width:0.625;stroke-miterlimit:4;stroke-dasharray:none"
         id="path2895" />
      <path
         d="m 697.31866,509.90802 c -10e-6,-0.92187 -0.2461,-1.65234 -0.73828,-2.19141 -0.49219,-0.53905 -1.16407,-0.80858 -2.01562,-0.80859 -0.85157,10e-6 -1.52149,0.26759 -2.00977,0.80273 -0.48828,0.53517 -0.73242,1.26759 -0.73242,2.19727 0,0.92188 0.24609,1.64844 0.73828,2.17969 0.49218,0.53125 1.16015,0.79688 2.00391,0.79687 0.85155,10e-6 1.52343,-0.26562 2.01562,-0.79687 0.49218,-0.53125 0.73827,-1.25781 0.73828,-2.17969 z m 3.66797,-5.90625 0,11.83594 -3.83203,0 0,-1.92188 c -0.54688,0.82032 -1.16212,1.42188 -1.8457,1.80469 -0.6836,0.38281 -1.48634,0.57422 -2.4082,0.57422 -1.57813,0 -2.83985,-0.57617 -3.78516,-1.72852 -0.94531,-1.15234 -1.41797,-2.69726 -1.41797,-4.63476 0,-1.92968 0.49414,-3.46288 1.48242,-4.59961 0.98828,-1.13671 2.31836,-1.70507 3.99024,-1.70508 0.89061,10e-6 1.65819,0.18947 2.30273,0.56836 0.64452,0.37892 1.19726,0.9629 1.6582,1.75195 l 0,-1.94531 z"
         style="font-size:24px;font-variant:normal;font-weight:bold;font-stretch:normal;text-align:start;line-height:125%;writing-mode:lr-tb;text-anchor:start;font-family:Futura Md BT;-inkscape-font-specification:Futura Md BT Bold;fill:none;stroke:#0000ff;stroke-opacity:1;stroke-width:0.625;stroke-miterlimit:4;stroke-dasharray:none"
         id="path2897" />
      <path
         d="m 703.49445,521.06427 3.32812,-7.03125 -4.76953,-10.03125 4.62891,0 1.65234,4.27734 c 0.14062,0.35939 0.25781,0.69337 0.35156,1.00196 0.0937,0.3086 0.16406,0.59571 0.21094,0.86133 0.0469,-0.28125 0.11523,-0.57226 0.20508,-0.87305 0.0898,-0.30078 0.20507,-0.63085 0.3457,-0.99024 l 1.67578,-4.27734 4.46485,0 -7.44141,17.0625 z"
         style="font-size:24px;font-variant:normal;font-weight:bold;font-stretch:normal;text-align:start;line-height:125%;writing-mode:lr-tb;text-anchor:start;font-family:Futura Md BT;-inkscape-font-specification:Futura Md BT Bold;fill:none;stroke:#0000ff;stroke-opacity:1;stroke-width:0.625;stroke-miterlimit:4;stroke-dasharray:none"
         id="path2899" />
    </g>
    <path
       sodipodi:type="arc"
       style="color:#000000;fill:#ffffff;fill-opacity:1;fill-rule:evenodd;stroke:#000000;stroke-width:0.71446425;stroke-linecap:butt;stroke-linejoin:miter;stroke-miterlimit:4;stroke-opacity:1;stroke-dasharray:none;stroke-dashoffset:0;marker:none;visibility:visible;display:inline;overflow:visible;enable-background:accumulate"
       id="path3673"
       sodipodi:cx="-122.11742"
       sodipodi:cy="233.25198"
       sodipodi:rx="6.055409"
       sodipodi:ry="8.0738783"
       d="m -116.06201,233.25198 a 6.055409,8.0738783 0 1 1 -12.11082,0 6.055409,8.0738783 0 1 1 12.11082,0 z"
       transform="matrix(1.011056,0,0,0.75756509,168.46757,498.29644)" />
    <path
       transform="matrix(1.011056,0,0,0.75756509,258.46757,-131.70356)"
       d="m -116.06201,233.25198 a 6.055409,8.0738783 0 1 1 -12.11082,0 6.055409,8.0738783 0 1 1 12.11082,0 z"
       sodipodi:ry="8.0738783"
       sodipodi:rx="6.055409"
       sodipodi:cy="233.25198"
       sodipodi:cx="-122.11742"
       id="path3696"
       style="color:#000000;fill:#ffffff;fill-opacity:1;fill-rule:evenodd;stroke:#000000;stroke-width:0.71446425;stroke-linecap:butt;stroke-linejoin:miter;stroke-miterlimit:4;stroke-opacity:1;stroke-dasharray:none;stroke-dashoffset:0;marker:none;visibility:visible;display:inline;overflow:visible;enable-background:accumulate"
       sodipodi:type="arc" />
    <path
       transform="matrix(1.011056,0,0,0.75756509,1000.9676,498.29644)"
       d="m -116.06201,233.25198 a 6.055409,8.0738783 0 1 1 -12.11082,0 6.055409,8.0738783 0 1 1 12.11082,0 z"
       sodipodi:ry="8.0738783"
       sodipodi:rx="6.055409"
       sodipodi:cy="233.25198"
       sodipodi:cx="-122.11742"
       id="path3698"
       style="color:#000000;fill:#ffffff;fill-opacity:1;fill-rule:evenodd;stroke:#000000;stroke-width:0.71446425;stroke-linecap:butt;stroke-linejoin:miter;stroke-miterlimit:4;stroke-opacity:1;stroke-dasharray:none;stroke-dashoffset:0;marker:none;visibility:visible;display:inline;overflow:visible;enable-background:accumulate"
       sodipodi:type="arc" />
    <path
       sodipodi:type="arc"
       style="color:#000000;fill:#ffffff;fill-opacity:1;fill-rule:evenodd;stroke:#000000;stroke-width:0.71446425;stroke-linecap:butt;stroke-linejoin:miter;stroke-miterlimit:4;stroke-opacity:1;stroke-dasharray:none;stroke-dashoffset:0;marker:none;visibility:visible;display:inline;overflow:visible;enable-background:accumulate"
       id="path3700"
       sodipodi:cx="-122.11742"
       sodipodi:cy="233.25198"
       sodipodi:rx="6.055409"
       sodipodi:ry="8.0738783"
       d="m -116.06201,233.25198 a 6.055409,8.0738783 0 1 1 -12.11082,0 6.055409,8.0738783 0 1 1 12.11082,0 z"
       transform="matrix(1.011056,0,0,0.75756509,1000.9676,-131.70356)" />
    <path
       sodipodi:type="arc"
       style="color:#000000;fill:#ffffff;fill-opacity:1;fill-rule:evenodd;stroke:#000000;stroke-width:0.71446425;stroke-linecap:butt;stroke-linejoin:miter;stroke-miterlimit:4;stroke-opacity:1;stroke-dasharray:none;stroke-dashoffset:0;marker:none;visibility:visible;display:inline;overflow:visible;enable-background:accumulate"
       id="path3712"
       sodipodi:cx="-122.11742"
       sodipodi:cy="233.25198"
       sodipodi:rx="6.055409"
       sodipodi:ry="8.0738783"
       d="m -116.06201,233.25198 a 6.055409,8.0738783 0 1 1 -12.11082,0 6.055409,8.0738783 0 1 1 12.11082,0 z"
       transform="matrix(1.011056,0,0,0.75756509,168.46757,-41.70356)" />
    <path
       transform="matrix(1.011056,0,0,0.75756509,1000.9676,-41.70356)"
       d="m -116.06201,233.25198 a 6.055409,8.0738783 0 1 1 -12.11082,0 6.055409,8.0738783 0 1 1 12.11082,0 z"
       sodipodi:ry="8.0738783"
       sodipodi:rx="6.055409"
       sodipodi:cy="233.25198"
       sodipodi:cx="-122.11742"
       id="path3714"
       style="color:#000000;fill:#ffffff;fill-opacity:1;fill-rule:evenodd;stroke:#000000;stroke-width:0.71446425;stroke-linecap:butt;stroke-linejoin:miter;stroke-miterlimit:4;stroke-opacity:1;stroke-dasharray:none;stroke-dashoffset:0;marker:none;visibility:visible;display:inline;overflow:visible;enable-background:accumulate"
       sodipodi:type="arc" />
  </g>
</svg>
