<?xml version="1.0" encoding="UTF-8" standalone="no"?>
<!-- Created with Inkscape (http://www.inkscape.org/) -->

<svg
   xmlns:dc="http://purl.org/dc/elements/1.1/"
   xmlns:cc="http://creativecommons.org/ns#"
   xmlns:rdf="http://www.w3.org/1999/02/22-rdf-syntax-ns#"
   xmlns:svg="http://www.w3.org/2000/svg"
   xmlns="http://www.w3.org/2000/svg"
   xmlns:sodipodi="http://sodipodi.sourceforge.net/DTD/sodipodi-0.dtd"
   xmlns:inkscape="http://www.inkscape.org/namespaces/inkscape"
   width="2160"
   height="1080"
   id="svg2"
   sodipodi:version="0.32"
   inkscape:version="0.47 r22583"
   version="1.0"
   sodipodi:docname="rubber-gaskets.svg"
   inkscape:output_extension="org.inkscape.output.svg.inkscape">
  <defs
     id="defs4">
    <inkscape:perspective
       sodipodi:type="inkscape:persp3d"
       inkscape:vp_x="0 : 382.5 : 1"
       inkscape:vp_y="0 : 1000 : 0"
       inkscape:vp_z="990 : 382.5 : 1"
       inkscape:persp3d-origin="495 : 255 : 1"
       id="perspective56" />
    <inkscape:perspective
       id="perspective3683"
       inkscape:persp3d-origin="0.5 : 0.33333333 : 1"
       inkscape:vp_z="1 : 0.5 : 1"
       inkscape:vp_y="0 : 1000 : 0"
       inkscape:vp_x="0 : 0.5 : 1"
       sodipodi:type="inkscape:persp3d" />
    <inkscape:perspective
       id="perspective3740"
       inkscape:persp3d-origin="0.5 : 0.33333333 : 1"
       inkscape:vp_z="1 : 0.5 : 1"
       inkscape:vp_y="0 : 1000 : 0"
       inkscape:vp_x="0 : 0.5 : 1"
       sodipodi:type="inkscape:persp3d" />
    <inkscape:perspective
       id="perspective3773"
       inkscape:persp3d-origin="0.5 : 0.33333333 : 1"
       inkscape:vp_z="1 : 0.5 : 1"
       inkscape:vp_y="0 : 1000 : 0"
       inkscape:vp_x="0 : 0.5 : 1"
       sodipodi:type="inkscape:persp3d" />
    <inkscape:perspective
       id="perspective3796"
       inkscape:persp3d-origin="0.5 : 0.33333333 : 1"
       inkscape:vp_z="1 : 0.5 : 1"
       inkscape:vp_y="0 : 1000 : 0"
       inkscape:vp_x="0 : 0.5 : 1"
       sodipodi:type="inkscape:persp3d" />
    <inkscape:perspective
       id="perspective2876"
       inkscape:persp3d-origin="0.5 : 0.33333333 : 1"
       inkscape:vp_z="1 : 0.5 : 1"
       inkscape:vp_y="0 : 1000 : 0"
       inkscape:vp_x="0 : 0.5 : 1"
       sodipodi:type="inkscape:persp3d" />
    <inkscape:perspective
       id="perspective2898"
       inkscape:persp3d-origin="0.5 : 0.33333333 : 1"
       inkscape:vp_z="1 : 0.5 : 1"
       inkscape:vp_y="0 : 1000 : 0"
       inkscape:vp_x="0 : 0.5 : 1"
       sodipodi:type="inkscape:persp3d" />
    <inkscape:perspective
       id="perspective3137"
       inkscape:persp3d-origin="0.5 : 0.33333333 : 1"
       inkscape:vp_z="1 : 0.5 : 1"
       inkscape:vp_y="0 : 1000 : 0"
       inkscape:vp_x="0 : 0.5 : 1"
       sodipodi:type="inkscape:persp3d" />
    <inkscape:perspective
       id="perspective3191"
       inkscape:persp3d-origin="0.5 : 0.33333333 : 1"
       inkscape:vp_z="1 : 0.5 : 1"
       inkscape:vp_y="0 : 1000 : 0"
       inkscape:vp_x="0 : 0.5 : 1"
       sodipodi:type="inkscape:persp3d" />
    <inkscape:perspective
       id="perspective3269"
       inkscape:persp3d-origin="0.5 : 0.33333333 : 1"
       inkscape:vp_z="1 : 0.5 : 1"
       inkscape:vp_y="0 : 1000 : 0"
       inkscape:vp_x="0 : 0.5 : 1"
       sodipodi:type="inkscape:persp3d" />
    <inkscape:perspective
       id="perspective3297"
       inkscape:persp3d-origin="0.5 : 0.33333333 : 1"
       inkscape:vp_z="1 : 0.5 : 1"
       inkscape:vp_y="0 : 1000 : 0"
       inkscape:vp_x="0 : 0.5 : 1"
       sodipodi:type="inkscape:persp3d" />
    <inkscape:perspective
       id="perspective3297-2"
       inkscape:persp3d-origin="0.5 : 0.33333333 : 1"
       inkscape:vp_z="1 : 0.5 : 1"
       inkscape:vp_y="0 : 1000 : 0"
       inkscape:vp_x="0 : 0.5 : 1"
       sodipodi:type="inkscape:persp3d" />
    <inkscape:perspective
       id="perspective3331"
       inkscape:persp3d-origin="0.5 : 0.33333333 : 1"
       inkscape:vp_z="1 : 0.5 : 1"
       inkscape:vp_y="0 : 1000 : 0"
       inkscape:vp_x="0 : 0.5 : 1"
       sodipodi:type="inkscape:persp3d" />
    <inkscape:perspective
       id="perspective3331-6"
       inkscape:persp3d-origin="0.5 : 0.33333333 : 1"
       inkscape:vp_z="1 : 0.5 : 1"
       inkscape:vp_y="0 : 1000 : 0"
       inkscape:vp_x="0 : 0.5 : 1"
       sodipodi:type="inkscape:persp3d" />
    <inkscape:perspective
       id="perspective3497"
       inkscape:persp3d-origin="0.5 : 0.33333333 : 1"
       inkscape:vp_z="1 : 0.5 : 1"
       inkscape:vp_y="0 : 1000 : 0"
       inkscape:vp_x="0 : 0.5 : 1"
       sodipodi:type="inkscape:persp3d" />
    <inkscape:perspective
       id="perspective3937"
       inkscape:persp3d-origin="0.5 : 0.33333333 : 1"
       inkscape:vp_z="1 : 0.5 : 1"
       inkscape:vp_y="0 : 1000 : 0"
       inkscape:vp_x="0 : 0.5 : 1"
       sodipodi:type="inkscape:persp3d" />
    <inkscape:perspective
       id="perspective4736"
       inkscape:persp3d-origin="0.5 : 0.33333333 : 1"
       inkscape:vp_z="1 : 0.5 : 1"
       inkscape:vp_y="0 : 1000 : 0"
       inkscape:vp_x="0 : 0.5 : 1"
       sodipodi:type="inkscape:persp3d" />
    <inkscape:perspective
       id="perspective4736-6"
       inkscape:persp3d-origin="0.5 : 0.33333333 : 1"
       inkscape:vp_z="1 : 0.5 : 1"
       inkscape:vp_y="0 : 1000 : 0"
       inkscape:vp_x="0 : 0.5 : 1"
       sodipodi:type="inkscape:persp3d" />
    <inkscape:perspective
       id="perspective4736-7"
       inkscape:persp3d-origin="0.5 : 0.33333333 : 1"
       inkscape:vp_z="1 : 0.5 : 1"
       inkscape:vp_y="0 : 1000 : 0"
       inkscape:vp_x="0 : 0.5 : 1"
       sodipodi:type="inkscape:persp3d" />
    <inkscape:perspective
       id="perspective4736-1"
       inkscape:persp3d-origin="0.5 : 0.33333333 : 1"
       inkscape:vp_z="1 : 0.5 : 1"
       inkscape:vp_y="0 : 1000 : 0"
       inkscape:vp_x="0 : 0.5 : 1"
       sodipodi:type="inkscape:persp3d" />
    <inkscape:perspective
       id="perspective4736-2"
       inkscape:persp3d-origin="0.5 : 0.33333333 : 1"
       inkscape:vp_z="1 : 0.5 : 1"
       inkscape:vp_y="0 : 1000 : 0"
       inkscape:vp_x="0 : 0.5 : 1"
       sodipodi:type="inkscape:persp3d" />
    <inkscape:perspective
       id="perspective4807"
       inkscape:persp3d-origin="0.5 : 0.33333333 : 1"
       inkscape:vp_z="1 : 0.5 : 1"
       inkscape:vp_y="0 : 1000 : 0"
       inkscape:vp_x="0 : 0.5 : 1"
       sodipodi:type="inkscape:persp3d" />
    <inkscape:perspective
       id="perspective3076"
       inkscape:persp3d-origin="0.5 : 0.33333333 : 1"
       inkscape:vp_z="1 : 0.5 : 1"
       inkscape:vp_y="0 : 1000 : 0"
       inkscape:vp_x="0 : 0.5 : 1"
       sodipodi:type="inkscape:persp3d" />
    <inkscape:perspective
       id="perspective3090"
       inkscape:persp3d-origin="0.5 : 0.33333333 : 1"
       inkscape:vp_z="1 : 0.5 : 1"
       inkscape:vp_y="0 : 1000 : 0"
       inkscape:vp_x="0 : 0.5 : 1"
       sodipodi:type="inkscape:persp3d" />
    <inkscape:perspective
       id="perspective2923"
       inkscape:persp3d-origin="0.5 : 0.33333333 : 1"
       inkscape:vp_z="1 : 0.5 : 1"
       inkscape:vp_y="0 : 1000 : 0"
       inkscape:vp_x="0 : 0.5 : 1"
       sodipodi:type="inkscape:persp3d" />
    <inkscape:perspective
       id="perspective3802"
       inkscape:persp3d-origin="0.5 : 0.33333333 : 1"
       inkscape:vp_z="1 : 0.5 : 1"
       inkscape:vp_y="0 : 1000 : 0"
       inkscape:vp_x="0 : 0.5 : 1"
       sodipodi:type="inkscape:persp3d" />
    <inkscape:perspective
       id="perspective2939"
       inkscape:persp3d-origin="0.5 : 0.33333333 : 1"
       inkscape:vp_z="1 : 0.5 : 1"
       inkscape:vp_y="0 : 1000 : 0"
       inkscape:vp_x="0 : 0.5 : 1"
       sodipodi:type="inkscape:persp3d" />
    <inkscape:perspective
       id="perspective3928"
       inkscape:persp3d-origin="0.5 : 0.33333333 : 1"
       inkscape:vp_z="1 : 0.5 : 1"
       inkscape:vp_y="0 : 1000 : 0"
       inkscape:vp_x="0 : 0.5 : 1"
       sodipodi:type="inkscape:persp3d" />
    <inkscape:perspective
       id="perspective2880"
       inkscape:persp3d-origin="0.5 : 0.33333333 : 1"
       inkscape:vp_z="1 : 0.5 : 1"
       inkscape:vp_y="0 : 1000 : 0"
       inkscape:vp_x="0 : 0.5 : 1"
       sodipodi:type="inkscape:persp3d" />
    <inkscape:perspective
       id="perspective2880-0"
       inkscape:persp3d-origin="0.5 : 0.33333333 : 1"
       inkscape:vp_z="1 : 0.5 : 1"
       inkscape:vp_y="0 : 1000 : 0"
       inkscape:vp_x="0 : 0.5 : 1"
       sodipodi:type="inkscape:persp3d" />
    <inkscape:perspective
       id="perspective4081"
       inkscape:persp3d-origin="0.5 : 0.33333333 : 1"
       inkscape:vp_z="1 : 0.5 : 1"
       inkscape:vp_y="0 : 1000 : 0"
       inkscape:vp_x="0 : 0.5 : 1"
       sodipodi:type="inkscape:persp3d" />
    <inkscape:perspective
       id="perspective2895"
       inkscape:persp3d-origin="0.5 : 0.33333333 : 1"
       inkscape:vp_z="1 : 0.5 : 1"
       inkscape:vp_y="0 : 1000 : 0"
       inkscape:vp_x="0 : 0.5 : 1"
       sodipodi:type="inkscape:persp3d" />
    <inkscape:perspective
       id="perspective4158"
       inkscape:persp3d-origin="0.5 : 0.33333333 : 1"
       inkscape:vp_z="1 : 0.5 : 1"
       inkscape:vp_y="0 : 1000 : 0"
       inkscape:vp_x="0 : 0.5 : 1"
       sodipodi:type="inkscape:persp3d" />
  </defs>
  <sodipodi:namedview
     id="base"
     pagecolor="#ffffff"
     bordercolor="#666666"
     borderopacity="1.0"
     gridtolerance="10000"
     guidetolerance="10"
     objecttolerance="10"
     inkscape:pageopacity="0.0"
     inkscape:pageshadow="2"
     inkscape:zoom="0.34569665"
     inkscape:cx="776.32541"
     inkscape:cy="438.49461"
     inkscape:document-units="in"
     inkscape:current-layer="layer1"
     showgrid="true"
     units="in"
     inkscape:window-width="1542"
     inkscape:window-height="988"
     inkscape:window-x="24"
     inkscape:window-y="46"
     inkscape:snap-intersection-grid-guide="false"
     inkscape:snap-bbox="true"
     inkscape:snap-nodes="true"
     inkscape:snap-global="true"
     inkscape:window-maximized="0"
     inkscape:snap-grids="false"
     inkscape:object-paths="false"
     inkscape:object-nodes="true"
     showguides="true"
     inkscape:guide-bbox="true"
     inkscape:snap-object-midpoints="true">
    <inkscape:grid
       type="xygrid"
       id="grid2509"
       visible="true"
       enabled="true"
       units="in"
       spacingx="0.0625in"
       spacingy="0.0625in"
       empspacing="16" />
  </sodipodi:namedview>
  <metadata
     id="metadata7">
    <rdf:RDF>
      <cc:Work
         rdf:about="">
        <dc:format>image/svg+xml</dc:format>
        <dc:type
           rdf:resource="http://purl.org/dc/dcmitype/StillImage" />
        <dc:title />
      </cc:Work>
    </rdf:RDF>
  </metadata>
  <g
     inkscape:label="Layer 1"
     inkscape:groupmode="layer"
     id="layer1">
    <g
       id="g4060"
       transform="matrix(1,0,0,1.2249885,103.41437,23.455041)">
      <rect
         y="236.95935"
         x="-219.20311"
         height="44.010002"
         width="44.009998"
         id="rect3709"
         style="color:#000000;fill:#8383ff;fill-opacity:0.125;fill-rule:nonzero;stroke:#000000;stroke-width:0.89447707;stroke-linecap:butt;stroke-linejoin:miter;stroke-miterlimit:4;stroke-opacity:1;stroke-dasharray:none;stroke-dashoffset:0;marker:none;visibility:visible;display:inline;overflow:visible;enable-background:accumulate" />
    </g>
    <g
       id="g3760"
       transform="matrix(1.0000106,0,0,1,22.494995,-197.87)">
      <path
         id="rect2887"
         d="m 0.5,222.8125 0,44 44,0 0,44.03125 -12,0 0,44.03125 820.8125,0 0,-44.03125 12,0 0,-44.03125 79.1875,0 0,-44 -944,0 z"
         style="color:#000000;fill:#8383ff;fill-opacity:0.125;fill-rule:nonzero;stroke:#000000;stroke-width:0.98999476;stroke-linecap:butt;stroke-linejoin:miter;stroke-miterlimit:4;stroke-opacity:1;stroke-dasharray:none;stroke-dashoffset:0;marker:none;visibility:visible;display:inline;overflow:visible;enable-background:accumulate" />
      <g
         transform="translate(106.36743,-225.70196)"
         id="g2889">
        <path
           sodipodi:type="arc"
           style="fill:#ffffff;fill-opacity:1;fill-rule:evenodd;stroke:#000000;stroke-width:1.8187393;stroke-linecap:butt;stroke-linejoin:miter;stroke-miterlimit:4;stroke-opacity:1;stroke-dasharray:none"
           id="path3380"
           sodipodi:cx="129.375"
           sodipodi:cy="-39.375"
           sodipodi:rx="22.5"
           sodipodi:ry="16.875"
           d="m 151.875,-39.375 a 22.5,16.875 0 1 1 -45,0 22.5,16.875 0 1 1 45,0 z"
           transform="matrix(0.29760186,0,0,0.39680646,-32.369674,486.14841)" />
        <path
           transform="matrix(0.29760186,0,0,0.39680646,687.63033,486.14841)"
           d="m 151.875,-39.375 a 22.5,16.875 0 1 1 -45,0 22.5,16.875 0 1 1 45,0 z"
           sodipodi:ry="16.875"
           sodipodi:rx="22.5"
           sodipodi:cy="-39.375"
           sodipodi:cx="129.375"
           id="path3732"
           style="fill:#ffffff;fill-opacity:1;fill-rule:evenodd;stroke:#000000;stroke-width:1.81873953;stroke-linecap:butt;stroke-linejoin:miter;stroke-miterlimit:4;stroke-opacity:1;stroke-dasharray:none"
           sodipodi:type="arc" />
      </g>
      <path
         transform="matrix(0,0.2972265,-0.39629802,0,732.29577,250.37853)"
         d="m 151.875,-39.375 a 22.5,16.875 0 1 1 -45,0 22.5,16.875 0 1 1 45,0 z"
         sodipodi:ry="16.875"
         sodipodi:rx="22.5"
         sodipodi:cy="-39.375"
         sodipodi:cx="129.375"
         id="path3734"
         style="fill:#ffffff;fill-opacity:1;fill-rule:evenodd;stroke:#000000;stroke-width:1.82105458;stroke-linecap:butt;stroke-linejoin:miter;stroke-miterlimit:4;stroke-opacity:1;stroke-dasharray:none"
         sodipodi:type="arc" />
      <path
         sodipodi:type="arc"
         style="fill:#ffffff;fill-opacity:1;fill-rule:evenodd;stroke:#000000;stroke-width:1.82105458;stroke-linecap:butt;stroke-linejoin:miter;stroke-miterlimit:4;stroke-opacity:1;stroke-dasharray:none"
         id="path3736"
         sodipodi:cx="129.375"
         sodipodi:cy="-39.375"
         sodipodi:rx="22.5"
         sodipodi:ry="16.875"
         d="m 151.875,-39.375 a 22.5,16.875 0 1 1 -45,0 22.5,16.875 0 1 1 45,0 z"
         transform="matrix(0,0.2972265,-0.39629802,0,102.29577,250.37853)" />
      <path
         sodipodi:type="arc"
         style="fill:#ffffff;fill-opacity:1;fill-rule:evenodd;stroke:#000000;stroke-width:1.82105458;stroke-linecap:butt;stroke-linejoin:miter;stroke-miterlimit:4;stroke-opacity:1;stroke-dasharray:none"
         id="path3727"
         sodipodi:cx="129.375"
         sodipodi:cy="-39.375"
         sodipodi:rx="22.5"
         sodipodi:ry="16.875"
         d="m 151.875,-39.375 a 22.5,16.875 0 1 1 -45,0 22.5,16.875 0 1 1 45,0 z"
         transform="matrix(0,0.2972265,-0.39629802,0,720.29577,294.40978)" />
      <path
         transform="matrix(0,0.2972265,-0.39629802,0,90.295771,294.40978)"
         d="m 151.875,-39.375 a 22.5,16.875 0 1 1 -45,0 22.5,16.875 0 1 1 45,0 z"
         sodipodi:ry="16.875"
         sodipodi:rx="22.5"
         sodipodi:cy="-39.375"
         sodipodi:cx="129.375"
         id="path3729"
         style="fill:#ffffff;fill-opacity:1;fill-rule:evenodd;stroke:#000000;stroke-width:1.82105458;stroke-linecap:butt;stroke-linejoin:miter;stroke-miterlimit:4;stroke-opacity:1;stroke-dasharray:none"
         sodipodi:type="arc" />
      <path
         sodipodi:nodetypes="cc"
         id="path3756"
         d="m 44.5,266.8125 820.8125,0"
         style="fill:none;stroke:#000000;stroke-width:0.9999947px;stroke-linecap:butt;stroke-linejoin:miter;stroke-opacity:1" />
      <path
         sodipodi:nodetypes="cc"
         id="path3758"
         d="m 44.5,310.84375 808.8125,0"
         style="fill:none;stroke:#000000;stroke-width:0.9999947px;stroke-linecap:butt;stroke-linejoin:miter;stroke-opacity:1" />
    </g>
    <path
       style="color:#000000;fill:#8383ff;fill-opacity:0.125;fill-rule:nonzero;stroke:#000000;stroke-width:0.98999995;stroke-linecap:butt;stroke-linejoin:miter;stroke-miterlimit:4;stroke-opacity:1;stroke-dasharray:none;stroke-dashoffset:0;marker:none;visibility:visible;display:inline;overflow:visible;enable-background:accumulate"
       d="m 23,163.26977 0,44.34375 22.5,0 0,44.34375 371.59375,0 c 6.2325,0 11.25,-5.0175 11.25,-11.25 l 0,-21.84375 c 0,-6.2325 -5.0175,-11.25 -11.25,-11.25 l 32.46875,0 0,44.34375 371.59375,0 c 6.2325,0 11.25,-5.0175 11.25,-11.25 l 0,-21.84375 c 0,-6.2325 -5.0175,-11.25 -11.25,-11.25 l 528.68755,0 0,-44.34375 -1326.8438,0 z"
       id="rect2566" />
    <path
       transform="matrix(0.2972265,0,0,0.396302,74.214026,201.03591)"
       d="m 151.875,-39.375 a 22.5,16.875 0 1 1 -45,0 22.5,16.875 0 1 1 45,0 z"
       sodipodi:ry="16.875"
       sodipodi:rx="22.5"
       sodipodi:cy="-39.375"
       sodipodi:cx="129.375"
       id="path3372"
       style="fill:#ffffff;fill-opacity:1;fill-rule:evenodd;stroke:#000000;stroke-width:1.82105505;stroke-linecap:butt;stroke-linejoin:miter;stroke-miterlimit:4;stroke-opacity:1;stroke-dasharray:none"
       sodipodi:type="arc" />
    <path
       sodipodi:type="arc"
       style="fill:#ffffff;fill-opacity:1;fill-rule:evenodd;stroke:#000000;stroke-width:1.82105505;stroke-linecap:butt;stroke-linejoin:miter;stroke-miterlimit:4;stroke-opacity:1;stroke-dasharray:none"
       id="path3374"
       sodipodi:cx="129.375"
       sodipodi:cy="-39.375"
       sodipodi:rx="22.5"
       sodipodi:ry="16.875"
       d="m 151.875,-39.375 a 22.5,16.875 0 1 1 -45,0 22.5,16.875 0 1 1 45,0 z"
       transform="matrix(0.2972265,0,0,0.396302,1221.714,201.03591)" />
    <path
       sodipodi:type="arc"
       style="fill:#ffffff;fill-opacity:1;fill-rule:evenodd;stroke:#000000;stroke-width:1.82105505;stroke-linecap:butt;stroke-linejoin:miter;stroke-miterlimit:4;stroke-opacity:1;stroke-dasharray:none"
       id="path4477"
       sodipodi:cx="129.375"
       sodipodi:cy="-39.375"
       sodipodi:rx="22.5"
       sodipodi:ry="16.875"
       d="m 151.875,-39.375 a 22.5,16.875 0 1 1 -45,0 22.5,16.875 0 1 1 45,0 z"
       transform="matrix(0.2972265,0,0,0.396302,647.96402,201.03591)" />
    <path
       transform="matrix(0,-0.2972265,0.396302,0,106.27211,268.22265)"
       d="m 151.875,-39.375 a 22.5,16.875 0 1 1 -45,0 22.5,16.875 0 1 1 45,0 z"
       sodipodi:ry="16.875"
       sodipodi:rx="22.5"
       sodipodi:cy="-39.375"
       sodipodi:cx="129.375"
       id="path4473"
       style="fill:#ffffff;fill-opacity:1;fill-rule:evenodd;stroke:#000000;stroke-width:1.82105505;stroke-linecap:butt;stroke-linejoin:miter;stroke-miterlimit:4;stroke-opacity:1;stroke-dasharray:none"
       sodipodi:type="arc" />
    <path
       sodipodi:type="arc"
       style="fill:#ffffff;fill-opacity:1;fill-rule:evenodd;stroke:#000000;stroke-width:1.82105505;stroke-linecap:butt;stroke-linejoin:miter;stroke-miterlimit:4;stroke-opacity:1;stroke-dasharray:none"
       id="path4475"
       sodipodi:cx="129.375"
       sodipodi:cy="-39.375"
       sodipodi:rx="22.5"
       sodipodi:ry="16.875"
       d="m 151.875,-39.375 a 22.5,16.875 0 1 1 -45,0 22.5,16.875 0 1 1 45,0 z"
       transform="matrix(0,-0.2972265,0.396302,0,354.76211,268.22265)" />
    <path
       sodipodi:type="arc"
       style="fill:#ffffff;fill-opacity:1;fill-rule:evenodd;stroke:#000000;stroke-width:1.82105505;stroke-linecap:butt;stroke-linejoin:miter;stroke-miterlimit:4;stroke-opacity:1;stroke-dasharray:none"
       id="path3966"
       sodipodi:cx="129.375"
       sodipodi:cy="-39.375"
       sodipodi:rx="22.5"
       sodipodi:ry="16.875"
       d="m 151.875,-39.375 a 22.5,16.875 0 1 1 -45,0 22.5,16.875 0 1 1 45,0 z"
       transform="matrix(0,-0.2972265,0.396302,0,510.34325,268.22265)" />
    <path
       transform="matrix(0,-0.2972265,0.396302,0,758.83325,268.22265)"
       d="m 151.875,-39.375 a 22.5,16.875 0 1 1 -45,0 22.5,16.875 0 1 1 45,0 z"
       sodipodi:ry="16.875"
       sodipodi:rx="22.5"
       sodipodi:cy="-39.375"
       sodipodi:cx="129.375"
       id="path3968"
       style="fill:#ffffff;fill-opacity:1;fill-rule:evenodd;stroke:#000000;stroke-width:1.82105505;stroke-linecap:butt;stroke-linejoin:miter;stroke-miterlimit:4;stroke-opacity:1;stroke-dasharray:none"
       sodipodi:type="arc" />
    <path
       style="fill:none;stroke:#000000;stroke-width:1px;stroke-linecap:butt;stroke-linejoin:miter;stroke-opacity:1"
       d="m 45.5,207.61352 371.59375,0"
       id="path3998"
       sodipodi:nodetypes="cc" />
    <path
       style="fill:none;stroke:#000000;stroke-width:1px;stroke-linecap:butt;stroke-linejoin:miter;stroke-opacity:1"
       d="m 449.5625,207.61352 371.59375,0"
       id="path4002"
       sodipodi:nodetypes="cc" />
    <path
       style="fill:#8383ff;stroke:#000000;stroke-width:0.99000007000000001;stroke-linecap:butt;stroke-linejoin:miter;stroke-miterlimit:4;stroke-opacity:1;stroke-dasharray:none;color:#000000;stroke-dashoffset:0;marker:none;visibility:visible;display:inline;overflow:visible;enable-background:accumulate;fill-opacity:0.12500000000000000;fill-rule:nonzero"
       d="M 34.0625 266.71875 C 27.829999 266.71875 22.8125 271.73625 22.8125 277.96875 L 22.8125 299.84375 C 22.8125 306.07625 27.829999 311.09375 34.0625 311.09375 L 45.3125 311.09375 L 45.3125 355.46875 L 22.8125 355.46875 L 22.8125 399.84375 L 709.4375 399.84375 C 715.67 399.84375 720.6875 394.82625 720.6875 388.59375 L 720.6875 366.71875 C 720.6875 360.48625 715.67 355.46875 709.4375 355.46875 L 731.9375 355.46875 C 738.17 355.46875 743.1875 350.45125 743.1875 344.21875 L 743.1875 322.34375 C 743.1875 316.11125 738.17 311.09375 731.9375 311.09375 L 708.4375 311.09375 C 714.67 311.09375 719.6875 306.07625 719.6875 299.84375 L 719.6875 277.96875 C 719.6875 271.73625 714.67 266.71875 708.4375 266.71875 L 34.0625 266.71875 z "
       id="rect2566-9" />
    <g
       id="g4056"
       transform="translate(-103.04876,407.1362)">
      <path
         sodipodi:type="arc"
         style="fill:#ffffff;fill-opacity:1;fill-rule:evenodd;stroke:#000000;stroke-width:1.82105505;stroke-linecap:butt;stroke-linejoin:miter;stroke-miterlimit:4;stroke-opacity:1;stroke-dasharray:none"
         id="path3372-7"
         sodipodi:cx="129.375"
         sodipodi:cy="-39.375"
         sodipodi:rx="22.5"
         sodipodi:ry="16.875"
         d="m 151.875,-39.375 c 0,9.319805 -10.07359,16.875 -22.5,16.875 -12.42641,0 -22.5,-7.555195 -22.5,-16.875 0,-9.319805 10.07359,-16.875 22.5,-16.875 12.42641,0 22.5,7.555195 22.5,16.875 z"
         transform="matrix(0.2972265,0,0,0.396302,177.09508,-102.6315)" />
      <path
         transform="matrix(0.2972265,0,0,0.396302,694.59509,-102.6315)"
         d="m 151.875,-39.375 c 0,9.319805 -10.07359,16.875 -22.5,16.875 -12.42641,0 -22.5,-7.555195 -22.5,-16.875 0,-9.319805 10.07359,-16.875 22.5,-16.875 12.42641,0 22.5,7.555195 22.5,16.875 z"
         sodipodi:ry="16.875"
         sodipodi:rx="22.5"
         sodipodi:cy="-39.375"
         sodipodi:cx="129.375"
         id="path3374-5"
         style="fill:#ffffff;fill-opacity:1;fill-rule:evenodd;stroke:#000000;stroke-width:1.82105505;stroke-linecap:butt;stroke-linejoin:miter;stroke-miterlimit:4;stroke-opacity:1;stroke-dasharray:none"
         sodipodi:type="arc" />
    </g>
    <g
       id="g4109"
       transform="matrix(0,-1,1,0,-227.05131,856.95568)">
      <path
         transform="matrix(0.2972265,0,0,0.396302,485.68868,355.6992)"
         d="m 151.875,-39.375 c 0,9.319805 -10.07359,16.875 -22.5,16.875 -12.42641,0 -22.5,-7.555195 -22.5,-16.875 0,-9.319805 10.07359,-16.875 22.5,-16.875 12.42641,0 22.5,7.555195 22.5,16.875 z"
         sodipodi:ry="16.875"
         sodipodi:rx="22.5"
         sodipodi:cy="-39.375"
         sodipodi:cx="129.375"
         id="path3380-4"
         style="fill:#ffffff;fill-opacity:1;fill-rule:evenodd;stroke:#000000;stroke-width:1.82105505;stroke-linecap:butt;stroke-linejoin:miter;stroke-miterlimit:4;stroke-opacity:1;stroke-dasharray:none"
         sodipodi:type="arc" />
      <path
         sodipodi:type="arc"
         style="fill:#ffffff;fill-opacity:1;fill-rule:evenodd;stroke:#000000;stroke-width:1.82105505;stroke-linecap:butt;stroke-linejoin:miter;stroke-miterlimit:4;stroke-opacity:1;stroke-dasharray:none"
         id="path3384"
         sodipodi:cx="129.375"
         sodipodi:cy="-39.375"
         sodipodi:rx="22.5"
         sodipodi:ry="16.875"
         d="m 151.875,-39.375 c 0,9.319805 -10.07359,16.875 -22.5,16.875 -12.42641,0 -22.5,-7.555195 -22.5,-16.875 0,-9.319805 10.07359,-16.875 22.5,-16.875 12.42641,0 22.5,7.555195 22.5,16.875 z"
         transform="matrix(0.2972265,0,0,0.396302,485.68868,918.1992)" />
    </g>
    <g
       transform="matrix(0,-1,1,0,-249.55131,901.33068)"
       id="g4183">
      <path
         sodipodi:type="arc"
         style="fill:#ffffff;fill-opacity:1;fill-rule:evenodd;stroke:#000000;stroke-width:1.82105505;stroke-linecap:butt;stroke-linejoin:miter;stroke-miterlimit:4;stroke-opacity:1;stroke-dasharray:none"
         id="path4185"
         sodipodi:cx="129.375"
         sodipodi:cy="-39.375"
         sodipodi:rx="22.5"
         sodipodi:ry="16.875"
         d="m 151.875,-39.375 c 0,9.319805 -10.07359,16.875 -22.5,16.875 -12.42641,0 -22.5,-7.555195 -22.5,-16.875 0,-9.319805 10.07359,-16.875 22.5,-16.875 12.42641,0 22.5,7.555195 22.5,16.875 z"
         transform="matrix(0.2972265,0,0,0.396302,485.68868,355.6992)" />
      <path
         transform="matrix(0.2972265,0,0,0.396302,485.68868,918.1992)"
         d="m 151.875,-39.375 c 0,9.319805 -10.07359,16.875 -22.5,16.875 -12.42641,0 -22.5,-7.555195 -22.5,-16.875 0,-9.319805 10.07359,-16.875 22.5,-16.875 12.42641,0 22.5,7.555195 22.5,16.875 z"
         sodipodi:ry="16.875"
         sodipodi:rx="22.5"
         sodipodi:cy="-39.375"
         sodipodi:cx="129.375"
         id="path4187"
         style="fill:#ffffff;fill-opacity:1;fill-rule:evenodd;stroke:#000000;stroke-width:1.82105505;stroke-linecap:butt;stroke-linejoin:miter;stroke-miterlimit:4;stroke-opacity:1;stroke-dasharray:none"
         sodipodi:type="arc" />
    </g>
    <path
       style="fill:none;stroke:#000000;stroke-width:1px;stroke-linecap:butt;stroke-linejoin:miter;stroke-opacity:1"
       d="m 45.3125,311.09375 663.125,0"
       id="path4190"
       sodipodi:nodetypes="cc" />
    <path
       style="fill:none;stroke:#000000;stroke-width:1px;stroke-linecap:butt;stroke-linejoin:miter;stroke-opacity:1"
       d="m 45.3125,355.46875 664.125,0"
       id="path4192"
       sodipodi:nodetypes="cc" />
  </g>
</svg>
