<?xml version="1.0" encoding="UTF-8" standalone="no"?>
<!-- Created with Inkscape (http://www.inkscape.org/) -->

<svg
   xmlns:dc="http://purl.org/dc/elements/1.1/"
   xmlns:cc="http://creativecommons.org/ns#"
   xmlns:rdf="http://www.w3.org/1999/02/22-rdf-syntax-ns#"
   xmlns:svg="http://www.w3.org/2000/svg"
   xmlns="http://www.w3.org/2000/svg"
   xmlns:sodipodi="http://sodipodi.sourceforge.net/DTD/sodipodi-0.dtd"
   xmlns:inkscape="http://www.inkscape.org/namespaces/inkscape"
   width="2160"
   height="1080"
   id="svg2"
   sodipodi:version="0.32"
   inkscape:version="0.47 r22583"
   version="1.0"
   sodipodi:docname="speakers-laser-25.emf"
   inkscape:output_extension="org.inkscape.output.svg.inkscape">
  <defs
     id="defs4">
    <inkscape:path-effect
       border_marks="both"
       mark_dir="left"
       offset="0"
       shift="0"
       major_mark_steps="4"
       minor_mark_length="0.12"
       mark_length="0.25"
       mark_distance="0.25"
       unit="in"
       is_visible="true"
       id="path-effect4321"
       effect="ruler" />
    <inkscape:path-effect
       effect="ruler"
       id="path-effect4231"
       is_visible="true"
       unit="in"
       mark_distance="0.25"
       mark_length="0.25"
       minor_mark_length="0.12"
       major_mark_steps="4"
       shift="0"
       offset="0"
       mark_dir="left"
       border_marks="both" />
    <inkscape:perspective
       sodipodi:type="inkscape:persp3d"
       inkscape:vp_x="0 : 382.5 : 1"
       inkscape:vp_y="0 : 1000 : 0"
       inkscape:vp_z="990 : 382.5 : 1"
       inkscape:persp3d-origin="495 : 255 : 1"
       id="perspective56" />
    <inkscape:perspective
       id="perspective2970"
       inkscape:persp3d-origin="0.5 : 0.33333333 : 1"
       inkscape:vp_z="1 : 0.5 : 1"
       inkscape:vp_y="0 : 1000 : 0"
       inkscape:vp_x="0 : 0.5 : 1"
       sodipodi:type="inkscape:persp3d" />
    <inkscape:perspective
       id="perspective4787"
       inkscape:persp3d-origin="0.5 : 0.33333333 : 1"
       inkscape:vp_z="1 : 0.5 : 1"
       inkscape:vp_y="0 : 1000 : 0"
       inkscape:vp_x="0 : 0.5 : 1"
       sodipodi:type="inkscape:persp3d" />
    <inkscape:perspective
       id="perspective2880"
       inkscape:persp3d-origin="0.5 : 0.33333333 : 1"
       inkscape:vp_z="1 : 0.5 : 1"
       inkscape:vp_y="0 : 1000 : 0"
       inkscape:vp_x="0 : 0.5 : 1"
       sodipodi:type="inkscape:persp3d" />
    <inkscape:perspective
       id="perspective3884"
       inkscape:persp3d-origin="0.5 : 0.33333333 : 1"
       inkscape:vp_z="1 : 0.5 : 1"
       inkscape:vp_y="0 : 1000 : 0"
       inkscape:vp_x="0 : 0.5 : 1"
       sodipodi:type="inkscape:persp3d" />
    <inkscape:perspective
       id="perspective3929"
       inkscape:persp3d-origin="0.5 : 0.33333333 : 1"
       inkscape:vp_z="1 : 0.5 : 1"
       inkscape:vp_y="0 : 1000 : 0"
       inkscape:vp_x="0 : 0.5 : 1"
       sodipodi:type="inkscape:persp3d" />
    <inkscape:perspective
       id="perspective3956"
       inkscape:persp3d-origin="0.5 : 0.33333333 : 1"
       inkscape:vp_z="1 : 0.5 : 1"
       inkscape:vp_y="0 : 1000 : 0"
       inkscape:vp_x="0 : 0.5 : 1"
       sodipodi:type="inkscape:persp3d" />
    <inkscape:perspective
       id="perspective4042"
       inkscape:persp3d-origin="0.5 : 0.33333333 : 1"
       inkscape:vp_z="1 : 0.5 : 1"
       inkscape:vp_y="0 : 1000 : 0"
       inkscape:vp_x="0 : 0.5 : 1"
       sodipodi:type="inkscape:persp3d" />
    <inkscape:perspective
       id="perspective4106"
       inkscape:persp3d-origin="0.5 : 0.33333333 : 1"
       inkscape:vp_z="1 : 0.5 : 1"
       inkscape:vp_y="0 : 1000 : 0"
       inkscape:vp_x="0 : 0.5 : 1"
       sodipodi:type="inkscape:persp3d" />
    <inkscape:perspective
       id="perspective4106-3"
       inkscape:persp3d-origin="0.5 : 0.33333333 : 1"
       inkscape:vp_z="1 : 0.5 : 1"
       inkscape:vp_y="0 : 1000 : 0"
       inkscape:vp_x="0 : 0.5 : 1"
       sodipodi:type="inkscape:persp3d" />
    <inkscape:perspective
       id="perspective4106-4"
       inkscape:persp3d-origin="0.5 : 0.33333333 : 1"
       inkscape:vp_z="1 : 0.5 : 1"
       inkscape:vp_y="0 : 1000 : 0"
       inkscape:vp_x="0 : 0.5 : 1"
       sodipodi:type="inkscape:persp3d" />
    <inkscape:perspective
       id="perspective4106-0"
       inkscape:persp3d-origin="0.5 : 0.33333333 : 1"
       inkscape:vp_z="1 : 0.5 : 1"
       inkscape:vp_y="0 : 1000 : 0"
       inkscape:vp_x="0 : 0.5 : 1"
       sodipodi:type="inkscape:persp3d" />
    <inkscape:perspective
       id="perspective4106-6"
       inkscape:persp3d-origin="0.5 : 0.33333333 : 1"
       inkscape:vp_z="1 : 0.5 : 1"
       inkscape:vp_y="0 : 1000 : 0"
       inkscape:vp_x="0 : 0.5 : 1"
       sodipodi:type="inkscape:persp3d" />
    <inkscape:perspective
       id="perspective4106-44"
       inkscape:persp3d-origin="0.5 : 0.33333333 : 1"
       inkscape:vp_z="1 : 0.5 : 1"
       inkscape:vp_y="0 : 1000 : 0"
       inkscape:vp_x="0 : 0.5 : 1"
       sodipodi:type="inkscape:persp3d" />
    <inkscape:perspective
       id="perspective3903"
       inkscape:persp3d-origin="0.5 : 0.33333333 : 1"
       inkscape:vp_z="1 : 0.5 : 1"
       inkscape:vp_y="0 : 1000 : 0"
       inkscape:vp_x="0 : 0.5 : 1"
       sodipodi:type="inkscape:persp3d" />
    <inkscape:perspective
       id="perspective3936"
       inkscape:persp3d-origin="0.5 : 0.33333333 : 1"
       inkscape:vp_z="1 : 0.5 : 1"
       inkscape:vp_y="0 : 1000 : 0"
       inkscape:vp_x="0 : 0.5 : 1"
       sodipodi:type="inkscape:persp3d" />
    <inkscape:perspective
       id="perspective3060"
       inkscape:persp3d-origin="0.5 : 0.33333333 : 1"
       inkscape:vp_z="1 : 0.5 : 1"
       inkscape:vp_y="0 : 1000 : 0"
       inkscape:vp_x="0 : 0.5 : 1"
       sodipodi:type="inkscape:persp3d" />
    <inkscape:perspective
       id="perspective4295"
       inkscape:persp3d-origin="0.5 : 0.33333333 : 1"
       inkscape:vp_z="1 : 0.5 : 1"
       inkscape:vp_y="0 : 1000 : 0"
       inkscape:vp_x="0 : 0.5 : 1"
       sodipodi:type="inkscape:persp3d" />
    <inkscape:perspective
       id="perspective4324"
       inkscape:persp3d-origin="0.5 : 0.33333333 : 1"
       inkscape:vp_z="1 : 0.5 : 1"
       inkscape:vp_y="0 : 1000 : 0"
       inkscape:vp_x="0 : 0.5 : 1"
       sodipodi:type="inkscape:persp3d" />
    <inkscape:perspective
       id="perspective4347"
       inkscape:persp3d-origin="0.5 : 0.33333333 : 1"
       inkscape:vp_z="1 : 0.5 : 1"
       inkscape:vp_y="0 : 1000 : 0"
       inkscape:vp_x="0 : 0.5 : 1"
       sodipodi:type="inkscape:persp3d" />
    <inkscape:perspective
       id="perspective3751"
       inkscape:persp3d-origin="0.5 : 0.33333333 : 1"
       inkscape:vp_z="1 : 0.5 : 1"
       inkscape:vp_y="0 : 1000 : 0"
       inkscape:vp_x="0 : 0.5 : 1"
       sodipodi:type="inkscape:persp3d" />
    <inkscape:perspective
       id="perspective3784"
       inkscape:persp3d-origin="0.5 : 0.33333333 : 1"
       inkscape:vp_z="1 : 0.5 : 1"
       inkscape:vp_y="0 : 1000 : 0"
       inkscape:vp_x="0 : 0.5 : 1"
       sodipodi:type="inkscape:persp3d" />
    <inkscape:perspective
       id="perspective3805"
       inkscape:persp3d-origin="0.5 : 0.33333333 : 1"
       inkscape:vp_z="1 : 0.5 : 1"
       inkscape:vp_y="0 : 1000 : 0"
       inkscape:vp_x="0 : 0.5 : 1"
       sodipodi:type="inkscape:persp3d" />
    <inkscape:perspective
       id="perspective3877"
       inkscape:persp3d-origin="0.5 : 0.33333333 : 1"
       inkscape:vp_z="1 : 0.5 : 1"
       inkscape:vp_y="0 : 1000 : 0"
       inkscape:vp_x="0 : 0.5 : 1"
       sodipodi:type="inkscape:persp3d" />
    <inkscape:perspective
       id="perspective3912"
       inkscape:persp3d-origin="0.5 : 0.33333333 : 1"
       inkscape:vp_z="1 : 0.5 : 1"
       inkscape:vp_y="0 : 1000 : 0"
       inkscape:vp_x="0 : 0.5 : 1"
       sodipodi:type="inkscape:persp3d" />
    <inkscape:perspective
       id="perspective3937"
       inkscape:persp3d-origin="0.5 : 0.33333333 : 1"
       inkscape:vp_z="1 : 0.5 : 1"
       inkscape:vp_y="0 : 1000 : 0"
       inkscape:vp_x="0 : 0.5 : 1"
       sodipodi:type="inkscape:persp3d" />
    <inkscape:perspective
       id="perspective4149"
       inkscape:persp3d-origin="0.5 : 0.33333333 : 1"
       inkscape:vp_z="1 : 0.5 : 1"
       inkscape:vp_y="0 : 1000 : 0"
       inkscape:vp_x="0 : 0.5 : 1"
       sodipodi:type="inkscape:persp3d" />
    <inkscape:perspective
       id="perspective4174"
       inkscape:persp3d-origin="0.5 : 0.33333333 : 1"
       inkscape:vp_z="1 : 0.5 : 1"
       inkscape:vp_y="0 : 1000 : 0"
       inkscape:vp_x="0 : 0.5 : 1"
       sodipodi:type="inkscape:persp3d" />
  </defs>
  <sodipodi:namedview
     id="base"
     pagecolor="#ffffff"
     bordercolor="#666666"
     borderopacity="1.0"
     gridtolerance="10000"
     guidetolerance="10"
     objecttolerance="20"
     inkscape:pageopacity="0.0"
     inkscape:pageshadow="2"
     inkscape:zoom="0.84945386"
     inkscape:cx="460.49236"
     inkscape:cy="593.00958"
     inkscape:document-units="in"
     inkscape:current-layer="layer1"
     showgrid="true"
     units="in"
     inkscape:window-width="1596"
     inkscape:window-height="1049"
     inkscape:window-x="10"
     inkscape:window-y="30"
     inkscape:snap-intersection-grid-guide="false"
     inkscape:snap-bbox="false"
     inkscape:snap-nodes="true"
     inkscape:snap-global="true"
     inkscape:window-maximized="0"
     inkscape:snap-grids="false"
     inkscape:bbox-nodes="true"
     inkscape:object-nodes="true"
     inkscape:object-paths="true"
     inkscape:snap-intersection-paths="true"
     showguides="true"
     inkscape:guide-bbox="true"
     inkscape:snap-to-guides="false"
     inkscape:snap-object-midpoints="true">
    <inkscape:grid
       type="xygrid"
       id="grid2509"
       visible="true"
       enabled="true"
       units="in"
       spacingx="0.0625in"
       spacingy="0.0625in"
       empspacing="16"
       snapvisiblegridlinesonly="true" />
  </sodipodi:namedview>
  <metadata
     id="metadata7">
    <rdf:RDF>
      <cc:Work
         rdf:about="">
        <dc:format>image/svg+xml</dc:format>
        <dc:type
           rdf:resource="http://purl.org/dc/dcmitype/StillImage" />
        <dc:title></dc:title>
      </cc:Work>
    </rdf:RDF>
  </metadata>
  <g
     inkscape:label="Layer 1"
     inkscape:groupmode="layer"
     id="layer1">
    <g
       id="g4192"
       transform="matrix(0,-1,-1,0,192.41242,1074.8468)">
      <path
         id="path4194"
         d="m 693.93783,-155.76374 c 4.60357,2.65787 6.18086,8.54443 3.52299,13.148 -1.69822,2.94141 -4.73228,4.63549 -7.88986,4.79064 28.07141,19.27299 37.0432,57.2143 19.72879,87.203729 -17.32248,30.003415 -54.67735,41.2056536 -85.4121,26.500605 1.46154,2.818094 1.52819,6.290595 -0.17683,9.243768 -2.65787,4.603566 -8.54442,6.1808644 -13.14799,3.522994 -4.60357,-2.65787 -6.18086,-8.544428 -3.52299,-13.147994 1.70501,-2.953173 4.71855,-4.647329 7.88986,-4.790643 -28.08227,-19.270028 -37.04604,-57.209382 -19.72879,-87.203729 17.3144,-29.98943 54.63137,-41.20591 85.35797,-26.53186 -1.44442,-2.81211 -1.46727,-6.2711 0.23096,-9.21251 2.65787,-4.60357 8.54442,-6.18087 13.14799,-3.523 z"
         style="color:#000000;fill:none;stroke:#000000;stroke-width:1px;stroke-linecap:butt;stroke-linejoin:miter;stroke-miterlimit:4;stroke-opacity:1;stroke-dasharray:none;stroke-dashoffset:0;marker:none;visibility:visible;display:inline;overflow:visible;enable-background:accumulate" />
      <path
         transform="matrix(-0.18033645,-0.1041173,-0.2404163,0.41641325,849.98419,-381.82753)"
         d="m 128.69343,589.46075 c 0,5.36971 -10.05149,9.72272 -22.45064,9.72272 -12.399146,0 -22.45064,-4.35301 -22.45064,-9.72272 0,-5.3697 10.051494,-9.72271 22.45064,-9.72271 12.39915,0 22.45064,4.35301 22.45064,9.72271 z"
         sodipodi:ry="9.7227182"
         sodipodi:rx="22.45064"
         sodipodi:cy="589.46075"
         sodipodi:cx="106.24279"
         id="path4196"
         style="color:#000000;fill:none;stroke:#ff0000;stroke-width:3.16028738px;stroke-linecap:butt;stroke-linejoin:miter;stroke-miterlimit:4;stroke-opacity:1;stroke-dasharray:none;stroke-dashoffset:0;marker:none;visibility:visible;display:inline;overflow:visible;enable-background:accumulate"
         sodipodi:type="arc" />
      <path
         sodipodi:type="arc"
         style="color:#000000;fill:none;stroke:#ff0000;stroke-width:3.16028738px;stroke-linecap:butt;stroke-linejoin:miter;stroke-miterlimit:4;stroke-opacity:1;stroke-dasharray:none;stroke-dashoffset:0;marker:none;visibility:visible;display:inline;overflow:visible;enable-background:accumulate"
         id="path4198"
         sodipodi:cx="106.24279"
         sodipodi:cy="589.46075"
         sodipodi:rx="22.45064"
         sodipodi:ry="9.7227182"
         d="m 128.69343,589.46075 c 0,5.36971 -10.05149,9.72272 -22.45064,9.72272 -12.399146,0 -22.45064,-4.35301 -22.45064,-9.72272 0,-5.3697 10.051494,-9.72271 22.45064,-9.72271 12.39915,0 22.45064,4.35301 22.45064,9.72271 z"
         transform="matrix(-0.18033645,-0.1041173,-0.2404163,0.41641325,776.23419,-254.08879)" />
      <path
         style="color:#000000;fill:none;stroke:#0000ff;stroke-width:1px;stroke-linecap:butt;stroke-linejoin:miter;stroke-miterlimit:4;stroke-opacity:1;stroke-dasharray:none;stroke-dashoffset:0;marker:none;visibility:visible;display:inline;overflow:visible;enable-background:accumulate"
         d="m 651.15789,-133.89802 c -0.7579,0.017 -1.5264,0.074 -2.2813,0.125 l -3.125,5.375 6.5,11.21875 6.5,-11.21875 -3.125,-5.40625 c -1.4889,-0.0991 -2.9846,-0.127 -4.4687,-0.0937 z m 21.3124,4.21875 -0.7187,1.25 6.4687,11.28125 3.9688,-6.875 c -1.5167,-1.11977 -3.1099,-2.16005 -4.7812,-3.125 -1.6172,-0.93364 -3.2671,-1.7955 -4.9376,-2.53125 z m -40.4374,0.0312 c -3.4213,1.49522 -6.6786,3.38095 -9.7188,5.625 l 3.9688,6.875 6.4687,-11.25 -0.7187,-1.25 z m 7.2187,12.5 -6.4687,11.21875 6.4687,11.281252 6.5,-11.250002 -6.5,-11.25 z m 26,0 -6.5,11.25 6.5,11.250002 6.4687,-11.250002 -6.4687,-11.25 z m -51.375,1 c -1.9308,2.27725 -3.7043,4.729 -5.25,7.40625 -0.6045,1.04705 -1.135,2.11701 -1.6563,3.1875 l 6.3126,10.875002 6.5,-11.218752 -5.9063,-10.25 z m 76.75,0 -5.9063,10.25 6.5,11.218752 6.3126,-10.906252 c -1.8278,-3.76759 -4.1506,-7.31563 -6.9063,-10.5625 z m -64.3437,21.500002 -6.5,11.25 6.5,11.25 6.4687,-11.25 -6.4687,-11.25 z m 25.9687,0 -6.5,11.25 6.5,11.21875 6.5,-11.21875 -6.5,-11.25 z m 25.9687,0 -6.4687,11.21875 6.4687,11.28125 6.5,-11.25 -6.5,-11.25 z m -75.7812,3.71875 c -0.7415,5.01609 -0.7279,10.06779 0.031,15 l 4.3126,-7.46875 -4.3438,-7.53125 z m 99.5938,0.03125 -4.3126,7.5 4.2813,7.4375 c 0.7606,-4.99311 0.7599,-10.02191 0.031,-14.9375 z m -88.75,18.75 -6.25,10.8125 c 1.8354,3.74405 4.1516,7.27497 6.9062,10.5 l 5.8438,-10.09375 -6.5,-11.21875 z m 25.9687,0 -6.4687,11.21875 6.4687,11.25 6.5,-11.21875 -6.5,-11.25 z m 26,0 -6.5,11.25 6.5,11.25 6.4687,-11.25 -6.4687,-11.25 z m 25.9687,0 -6.5,11.25 5.8126,10.03125 c 1.9594,-2.30064 3.7473,-4.78913 5.3124,-7.5 0.5762,-0.99794 1.0933,-2.01194 1.5938,-3.03125 l -6.2188,-10.75 z m -64.9374,22.5 -3.875,6.6875 c 1.4739,1.08022 3.0372,2.06528 4.6562,3 1.6748,0.96694 3.3932,1.80774 5.125,2.5625 l 0.5625,-1 -6.4687,-11.25 z m 25.9687,0 -6.5,11.25 2.9375,5.0625 c 2.3745,0.16551 4.7686,0.16946 7.125,0 l 2.9375,-5.09375 -6.5,-11.21875 z m 25.9687,0 -6.4687,11.21875 0.5937,1.03125 c 3.4193,-1.48533 6.6779,-3.3614 9.7188,-5.59375 l -3.8438,-6.65625 z"
         id="path4200" />
    </g>
    <path
       style="color:#000000;fill:none;stroke:#0000ff;stroke-width:1px;stroke-linecap:butt;stroke-linejoin:miter;stroke-miterlimit:4;stroke-opacity:1;stroke-dasharray:none;stroke-dashoffset:0;marker:none;visibility:visible;display:inline;overflow:visible;enable-background:accumulate"
       d="m 1099.3438,558.62368 -5.5938,-9.71875 -13,22.5 12.9688,22.53125 0.625,-1.0625 c 2.4043,-11.1684 4.0741,-22.6007 5,-34.25 z m -2.1563,-60.71875 c -1.6976,-11.11 -4.1043,-21.99105 -7.1563,-32.59375 l -9.3124,16.125 13,22.5 3.4687,-6.03125 z m -16.4375,28.5 -13,-22.5 -13,22.53125 13,22.46875 13,-22.5 z m 0,90 -13,-22.5 -13,22.53125 13,22.46875 13,-22.5 z m -0.5312,-179.0625 c -1.0597,-2.5431 -2.1758,-5.0609 -3.3126,-7.5625 l -9.1562,-15.875 -13,22.53125 13,22.46875 12.4688,-21.5625 z m -25.4688,-45.9375 -3.1562,-5.46875 c -3.5752,-4.9973 -7.3085,-9.86785 -11.2188,-14.59375 l -11.5938,20.0625 12.9688,22.53125 13,-22.53125 z m 0,90 -12.9688,-22.5 -13,22.5 12.9688,22.53125 13,-22.53125 z m 0,90 -12.9688,-22.5 -13,22.5 12.9688,22.5 13,-22.5 z m 0,90.03125 -12.9688,-22.53125 -13,22.5 13,22.5 12.9688,-22.46875 z m -25.9688,-225.03125 -13,-22.5 -13,22.53125 13,22.5 13,-22.53125 z m 0,90 -13,-22.5 -13,22.5 13,22.53125 13,-22.53125 z m 0,180.03125 -13,-22.5 -12.9687,22.46875 7.625,13.21875 c 3.7854,-6.78788 10.4361,-11.74571 18.3437,-13.1875 z m -0.031,-90 -12.9688,-22.5 -13,22.46875 13,22.53125 12.9688,-22.5 z m -10.6562,-251.5 c -6.6765,-4.81176 -11.0313,-12.67328 -11.0313,-21.53125 0,-1.7747 0.1673,-3.5105 0.5,-5.1875 -0.011,-0.009 -0.02,-0.0218 -0.031,-0.0312 l -4.75,8.25 13,22.5 2.3126,-4 z m -15.2813,26.46875 -12.99999,-22.5 -13,22.53125 13,22.46875 12.99999,-22.5 z m 0,90 -12.99999,-22.5 -13,22.53125 13,22.46875 12.99999,-22.5 z m -0.031,90 -12.99999,-22.46875 -12.9687,22.5 13,22.46875 12.96869,-22.5 z m 0,90 -12.99999,-22.46875 -12.9687,22.5 13,22.46875 12.96869,-22.5 z m -4.09369,82.90625 -8.875,-15.375 -13,22.46875 3.4375,5.9375 c 6.34,-4.0816 12.4897,-8.43165 18.4375,-13.03125 z m -21.875,-397.90625 -12.9687,-22.5 -13,22.5 12.9687,22.53125 13,-22.53125 z m 0,90 -12.9687,-22.5 -13,22.5 12.9687,22.53125 13,-22.53125 z m 0,90.03125 -13,-22.53125 -12.9687,22.5 12.9687,22.5 13,-22.46875 z m 0,90 -13,-22.53125 -12.9687,22.5 12.9687,22.5 13,-22.46875 z m 0,89.96875 -12.9687,-22.5 -13,22.5 13,22.5 12.9687,-22.5 z m -25.9687,-315 -13,-22.5 -13,22.53125 13,22.5 13,-22.53125 z m 0,360.03125 -13,-22.53125 -12.9688,22.5 12.9688,22.5 13,-22.46875 z m -0.031,-270 -12.9687,-22.5 -13,22.46875 13,22.53125 12.9687,-22.5 z m 0,90 -12.9687,-22.5 -13,22.46875 13,22.53125 12.9687,-22.5 z m 0,90 -12.9687,-22.5 -13,22.46875 13,22.5 12.9687,-22.46875 z m -0.094,-359.84375 c -6.7972,-3.2186 -13.7715,-6.14785 -20.875,-8.78125 l -5,8.625 13,22.5 12.875,-22.34375 z m -25.8438,44.8125 -13,-22.5 -13,22.53125 13,22.46875 13,-22.5 z m -0.031,90.03125 -13,-22.5 -12.9688,22.5 13,22.46875 12.9688,-22.46875 z m 0,89.96875 -13,-22.46875 -12.9688,22.5 13,22.46875 12.9688,-22.5 z m 0,90 -13,-22.46875 -12.9688,22.5 13,22.46875 12.9688,-22.5 z m 0,90 -13,-22.46875 -12.9688,22.46875 13,22.5 12.9688,-22.5 z m -5.8438,79.875 -7.125,-12.34375 -9.9375,17.1875 c 5.7691,-1.4252 11.4517,-3.04205 17.0625,-4.84375 z m -20.125,-484.875 -11.75,-20.40625 c -0.7316,-0.136 -1.4538,-0.27645 -2.1875,-0.40625 l -12.03125,20.8125 12.96875,22.53125 13,-22.53125 z m 0,90.03125 -13,-22.5 -12.96875,22.46875 12.96875,22.53125 13,-22.5 z m 0,90 -13,-22.53125 -12.96875,22.5 12.96875,22.5 13,-22.46875 z m 0,90 -13,-22.53125 -12.96875,22.5 12.96875,22.5 13,-22.46875 z m 0,89.96875 -13,-22.5 -12.96875,22.5 12.96875,22.5 13,-22.5 z m 0,90 -13,-22.5 -12.96875,22.5 12.96875,22.5 13,-22.5 z m -26,-404.96875 -12.96875,-22.5 -13,22.5 13,22.5 12.96875,-22.5 z m 0,90 -12.96875,-22.5 -13,22.46875 13,22.53125 12.96875,-22.5 z m 0,90 -12.96875,-22.5 -13,22.46875 13,22.53125 12.96875,-22.5 z m 0,90 -12.96875,-22.5 -13,22.46875 13,22.5 12.96875,-22.46875 z m 0,90 -12.96875,-22.53125 -13,22.5 13,22.5 12.96875,-22.46875 z m 0,89.96875 -12.96875,-22.5 -13,22.5 1.25,2.15625 c 8.29815,-0.2826 16.50963,-0.92915 24.59375,-1.96875 l 0.125,-0.1875 z m -12.15625,-518.9375 c -0.59255,-0.0486 -1.18759,-0.0804 -1.78125,-0.125 l 0.9375,1.59375 0.84375,-1.46875 z m -13.8125,23.96875 -13,-22.5 -13,22.5 13,22.46875 13,-22.46875 z m 0,90 -13,-22.5 -13,22.5 13.03125,22.46875 12.96875,-22.46875 z m 0,89.96875 -13,-22.46875 -12.96875,22.5 13,22.46875 12.96875,-22.5 z m 0,90 -13,-22.46875 -12.96875,22.5 13,22.46875 12.96875,-22.5 z m 0,90 -13,-22.46875 -12.96875,22.46875 13,22.5 12.96875,-22.5 z m 0,90 -13,-22.46875 -12.96875,22.46875 13,22.5 12.96875,-22.5 z m -25.96875,-314.96875 -13,-22.53125 -12.96875,22.5 12.96875,22.5 13,-22.46875 z m 0,90 -13,-22.53125 -12.96875,22.5 12.96875,22.5 13,-22.46875 z m 0,89.96875 -13,-22.5 -12.96875,22.5 12.96875,22.5 13,-22.5 z m 0,90 -13,-22.5 -12.96875,22.5 12.96875,22.5 13,-22.5 z m 0,90 -13,-22.5 -12.28125,21.25 c 7.99611,1.3399 16.11882,2.31085 24.34375,2.90625 l 0.9375,-1.65625 z m -0.0312,-449.96875 -12.96875,-22.5 -13,22.46875 13,22.53125 12.96875,-22.5 z m -12.657,-68.03125 c -0.18801,0.0222 -0.37462,0.0399 -0.5625,0.0625 l 0.25,0.46875 0.3125,-0.53125 z m -13.3125,23.03125 -10.96875,-19 c -1.55753,0.335 -3.10918,0.6999 -4.65625,1.0625 l -10.34375,17.9375 12.96875,22.5 13,-22.5 z m 0,90 -13,-22.5 -12.96875,22.46875 12.96875,22.53125 13,-22.5 z m 0,90 -12.96875,-22.5 -13,22.46875 13,22.53125 12.96875,-22.5 z m 0,90 -12.96875,-22.5 -13,22.46875 13,22.5 12.96875,-22.46875 z m 0,90 -12.96875,-22.53125 -13,22.5 13,22.5 12.96875,-22.46875 z m 0,89.96875 -12.96875,-22.5 -13,22.53125 12.96875,22.5 13,-22.53125 z m -25.96875,-404.96875 -13,-22.5 -13,22.5 13,22.46875 13,-22.46875 z m 0,89.96875 -13,-22.46875 -13,22.5 13,22.46875 13,-22.5 z m 0,90 -13,-22.46875 -13,22.5 13.03125,22.46875 12.96875,-22.5 z m 0,90 -13,-22.46875 -12.96875,22.46875 13,22.5 12.96875,-22.5 z m 0,90 -13,-22.46875 -13,22.5 13,22.46875 13,-22.5 z m -5,81.375 -8,-13.875 -5.4375,9.40625 c 4.42948,1.5976 8.90048,3.10765 13.4375,4.46875 z m -20.96875,-216.375 -13,-22.5 -12.96875,22.5 12.96875,22.5 13,-22.5 z m 0,90 -13,-22.5 -13,22.53125 13,22.5 13,-22.53125 z m 0,90 -13,-22.5 -13,22.5 13,22.53125 13,-22.53125 z m -0.0312,-449.96875 -3.0625,-5.3125 c -6.98309,2.8715 -13.83616,6.02465 -20.5,9.46875 l 10.59375,18.34375 12.96875,-22.5 z m 0,90 -12.96875,-22.53125 -13,22.5 13,22.5 12.96875,-22.46875 z m 0,90 -12.96875,-22.53125 -13,22.5 13,22.5 12.96875,-22.46875 z m -25.96875,-135 -13,-22.5 -12.96875,22.46875 12.96875,22.53125 13,-22.5 z m 0,90 -13,-22.5 -12.96875,22.46875 12.96875,22.53125 13,-22.5 z m 0,90 -13,-22.5 -12.96875,22.46875 12.96875,22.5 13,-22.46875 z m 0,90 -12.96875,-22.53125 -13,22.53125 12.96875,22.5 13,-22.5 z m 0,89.96875 -12.96875,-22.5 -13,22.53125 12.96875,22.5 13,-22.53125 z m -25.96875,-315 -13,-22.46875 -13,22.5 13,22.46875 13,-22.5 z m 0,90 -13,-22.46875 -13,22.5 13,22.46875 13,-22.5 z m 0,90 -13,-22.46875 -13,22.5 13,22.5 13,-22.53125 z m 0,90 -13,-22.46875 -13,22.5 13,22.46875 13,-22.5 z m 0,90 -13,-22.5 -5.59375,9.71875 c 5.81234,4.8258 11.84084,9.40375 18.0625,13.71875 l 0.53125,-0.9375 z m -25.96875,-45 -13,-22.5 -12.65625,21.90625 c 0.16707,0.19823 0.33237,0.39603 0.5,0.59375 1.48773,-0.2592 3.0006,-0.40625 4.5625,-0.40625 6.54778,0 12.56332,2.37729 17.1875,6.3125 l 3.40625,-5.90625 z m -0.0312,-269.96875 -12.96875,-22.53125 -13,22.5 13,22.5 12.96875,-22.46875 z m 0,89.96875 -12.96875,-22.5 -13,22.53125 12.96875,22.5 13,-22.53125 z m 0,90 -12.96875,-22.5 -13,22.53125 12.96875,22.5 13,-22.53125 z m -25.96875,-224.96875 -7.21875,-12.5 c -5.03614,6.5664 -9.78247,13.36855 -14.1875,20.40625 l 8.40625,14.59375 13,-22.5 z m 0,90 -13,-22.5 -13,22.5 13,22.5 13,-22.5 z m 0,90 -13,-22.53125 -13,22.53125 13,22.5 13,-22.5 z m 0,89.96875 -13,-22.5 -13,22.53125 13,22.5 13,-22.53125 z m -25.96875,-225 -8.1875,-14.1875 c -4.13434,8.37151 -7.86018,16.99465 -11.09375,25.84375 l 6.28125,10.875 13,-22.53125 z m 0,90 -13,-22.46875 -13,22.5 13,22.5 13,-22.53125 z m 0,90 -13,-22.46875 -11,19.0625 c 1.67978,5.5835 3.5258,11.0809 5.5625,16.5 l 5.4375,9.40625 13,-22.5 z m -26,-135 -2.125,-3.6875 c -0.90668,3.8578 -1.73532,7.73455 -2.46875,11.65625 l 4.59375,-7.96875 z m 0,90 -8.375,-14.5 c 0.59074,8.1076 1.56062,16.1148 2.875,24 l 5.5,-9.5 z"
       id="path4089"
       sodipodi:nodetypes="cccccccccccccccccccccccccccccccccccccccccccccccccccccccccccccccccccccsccccccccccccccccccccccccccccccccccccccccccccccccccccccccccccccccccccccccccccccccccccccccccccccccccccccccccccccccccccccccccccccccccccccccccccccccccccccccccccccccccccccccccccccccccccccccccccccccccccccccccccccccccccccccccccccccccccccccccccccccccccccccccccccccccccccccccccccccccccccccccccccccccccccccccccccccccccccccccccccccccccccccccccccccccccccccccccccccccccccccccccccccccccccccccccccccccccsccccccccccccccccccccccccccccccccccccccccccccccccccccccccccccc" />
    <path
       sodipodi:type="arc"
       style="color:#000000;fill:none;stroke:#000000;stroke-width:0.7981708px;stroke-linecap:butt;stroke-linejoin:miter;stroke-miterlimit:4;stroke-opacity:1;stroke-dasharray:none;stroke-dashoffset:0;marker:none;visibility:visible;display:inline;overflow:visible;enable-background:accumulate"
       id="path4064"
       sodipodi:cx="324.71396"
       sodipodi:cy="515.8009"
       sodipodi:rx="244.6682"
       sodipodi:ry="222.01373"
       d="m 569.38216,515.8009 a 244.6682,222.01373 0 1 1 -489.336399,0 244.6682,222.01373 0 1 1 489.336399,0 z"
       transform="matrix(0,1.193453,1.315234,0,160.62599,150.42902)" />
    <path
       sodipodi:type="arc"
       style="color:#000000;fill:none;stroke:#000000;stroke-width:0.8471272px;stroke-linecap:butt;stroke-linejoin:miter;stroke-miterlimit:4;stroke-opacity:1;stroke-dasharray:none;stroke-dashoffset:0;marker:none;visibility:visible;display:inline;overflow:visible;enable-background:accumulate"
       id="path4068"
       sodipodi:cx="324.71396"
       sodipodi:cy="515.8009"
       sodipodi:rx="244.6682"
       sodipodi:ry="222.01373"
       d="m 569.38216,515.8009 a 244.6682,222.01373 0 1 1 -489.336399,0 244.6682,222.01373 0 1 1 489.336399,0 z"
       transform="matrix(0,1.1244821,1.2392251,0,199.83145,172.82483)" />
    <path
       sodipodi:type="arc"
       style="color:#000000;fill:none;stroke:#ff0000;stroke-width:2.09753561px;stroke-linecap:butt;stroke-linejoin:miter;stroke-miterlimit:4;stroke-opacity:1;stroke-dasharray:none;stroke-dashoffset:0;marker:none;visibility:visible;display:inline;overflow:visible;enable-background:accumulate"
       id="path4070"
       sodipodi:cx="650.42017"
       sodipodi:cy="490.08405"
       sodipodi:rx="26.470589"
       sodipodi:ry="13.991596"
       d="m 676.89075,490.08405 a 26.470589,13.991596 0 1 1 -52.94117,0 26.470589,13.991596 0 1 1 52.94117,0 z"
       transform="matrix(-0.24509107,0.24509107,0.46368582,0.46368582,576.64927,345.84543)" />
    <path
       transform="matrix(-0.24509107,0.24509107,0.46368582,0.46368582,576.64929,-43.240076)"
       d="m 676.89075,490.08405 a 26.470589,13.991596 0 1 1 -52.94117,0 26.470589,13.991596 0 1 1 52.94117,0 z"
       sodipodi:ry="13.991596"
       sodipodi:rx="26.470589"
       sodipodi:cy="490.08405"
       sodipodi:cx="650.42017"
       id="path4072"
       style="color:#000000;fill:none;stroke:#ff0000;stroke-width:2.09753561px;stroke-linecap:butt;stroke-linejoin:miter;stroke-miterlimit:4;stroke-opacity:1;stroke-dasharray:none;stroke-dashoffset:0;marker:none;visibility:visible;display:inline;overflow:visible;enable-background:accumulate"
       sodipodi:type="arc" />
    <path
       sodipodi:type="arc"
       style="color:#000000;fill:none;stroke:#ff0000;stroke-width:2.09753561px;stroke-linecap:butt;stroke-linejoin:miter;stroke-miterlimit:4;stroke-opacity:1;stroke-dasharray:none;stroke-dashoffset:0;marker:none;visibility:visible;display:inline;overflow:visible;enable-background:accumulate"
       id="path4074"
       sodipodi:cx="650.42017"
       sodipodi:cy="490.08405"
       sodipodi:rx="26.470589"
       sodipodi:ry="13.991596"
       d="m 676.89075,490.08405 a 26.470589,13.991596 0 1 1 -52.94117,0 26.470589,13.991596 0 1 1 52.94117,0 z"
       transform="matrix(-0.24509107,0.24509107,0.46368582,0.46368582,965.73479,-43.24009)" />
    <path
       transform="matrix(-0.24509107,0.24509107,0.46368582,0.46368582,965.73478,345.84542)"
       d="m 676.89075,490.08405 a 26.470589,13.991596 0 1 1 -52.94117,0 26.470589,13.991596 0 1 1 52.94117,0 z"
       sodipodi:ry="13.991596"
       sodipodi:rx="26.470589"
       sodipodi:cy="490.08405"
       sodipodi:cx="650.42017"
       id="path4076"
       style="color:#000000;fill:none;stroke:#ff0000;stroke-width:2.09753561px;stroke-linecap:butt;stroke-linejoin:miter;stroke-miterlimit:4;stroke-opacity:1;stroke-dasharray:none;stroke-dashoffset:0;marker:none;visibility:visible;display:inline;overflow:visible;enable-background:accumulate"
       sodipodi:type="arc" />
    <path
       sodipodi:type="star"
       style="color:#000000;fill:none;stroke:#0000ff;stroke-width:1.03952277px;stroke-linecap:butt;stroke-linejoin:miter;stroke-miterlimit:4;stroke-opacity:1;stroke-dasharray:none;stroke-dashoffset:0;marker:none;visibility:visible;display:inline;overflow:visible;enable-background:accumulate"
       id="path4215"
       sodipodi:sides="6"
       sodipodi:cx="747.39832"
       sodipodi:cy="-100.52164"
       sodipodi:r1="634.07983"
       sodipodi:r2="549.12927"
       sodipodi:arg1="0.52359878"
       sodipodi:arg2="1.0471976"
       inkscape:flatsided="true"
       inkscape:rounded="0"
       inkscape:randomized="0"
       d="M 1296.5276,216.51828 747.39831,533.5582 198.26907,216.51828 l 0,-634.07984 549.12925,-317.03991 549.12928,317.03992 0,634.07983 z"
       transform="matrix(0,0.96197754,0.96198217,0,718.42352,-178.98171)" />
    <path
       transform="matrix(0,0.88002962,0.88004424,0,710.18699,-117.73401)"
       d="M 1296.5276,216.51828 747.39831,533.5582 198.26907,216.51828 l 0,-634.07984 549.12925,-317.03991 549.12928,317.03992 0,634.07983 z"
       inkscape:randomized="0"
       inkscape:rounded="0"
       inkscape:flatsided="true"
       sodipodi:arg2="1.0471976"
       sodipodi:arg1="0.52359878"
       sodipodi:r2="549.12927"
       sodipodi:r1="634.07983"
       sodipodi:cy="-100.52164"
       sodipodi:cx="747.39832"
       sodipodi:sides="6"
       id="path4235"
       style="color:#000000;fill:none;stroke:#000000;stroke-width:1.13631594px;stroke-linecap:butt;stroke-linejoin:miter;stroke-miterlimit:4;stroke-opacity:1;stroke-dasharray:none;stroke-dashoffset:0;marker:none;visibility:visible;display:inline;overflow:visible;enable-background:accumulate"
       sodipodi:type="star" />
    <g
       id="g4185"
       transform="matrix(0,1,-1,0,191.25001,11.24868)">
      <path
         style="color:#000000;fill:none;stroke:#000000;stroke-width:1px;stroke-linecap:butt;stroke-linejoin:miter;stroke-miterlimit:4;stroke-opacity:1;stroke-dasharray:none;stroke-dashoffset:0;marker:none;visibility:visible;display:inline;overflow:visible;enable-background:accumulate"
         d="m 693.93783,-155.76374 c 4.60357,2.65787 6.18086,8.54443 3.52299,13.148 -1.69822,2.94141 -4.73228,4.63549 -7.88986,4.79064 28.07141,19.27299 37.0432,57.2143 19.72879,87.203729 -17.32248,30.003415 -54.67735,41.2056536 -85.4121,26.500605 1.46154,2.818094 1.52819,6.290595 -0.17683,9.243768 -2.65787,4.603566 -8.54442,6.1808644 -13.14799,3.522994 -4.60357,-2.65787 -6.18086,-8.544428 -3.52299,-13.147994 1.70501,-2.953173 4.71855,-4.647329 7.88986,-4.790643 -28.08227,-19.270028 -37.04604,-57.209382 -19.72879,-87.203729 17.3144,-29.98943 54.63137,-41.20591 85.35797,-26.53186 -1.44442,-2.81211 -1.46727,-6.2711 0.23096,-9.21251 2.65787,-4.60357 8.54442,-6.18087 13.14799,-3.523 z"
         id="path4221" />
      <path
         sodipodi:type="arc"
         style="color:#000000;fill:none;stroke:#ff0000;stroke-width:3.16028738px;stroke-linecap:butt;stroke-linejoin:miter;stroke-miterlimit:4;stroke-opacity:1;stroke-dasharray:none;stroke-dashoffset:0;marker:none;visibility:visible;display:inline;overflow:visible;enable-background:accumulate"
         id="path4223"
         sodipodi:cx="106.24279"
         sodipodi:cy="589.46075"
         sodipodi:rx="22.45064"
         sodipodi:ry="9.7227182"
         d="m 128.69343,589.46075 c 0,5.36971 -10.05149,9.72272 -22.45064,9.72272 -12.399146,0 -22.45064,-4.35301 -22.45064,-9.72272 0,-5.3697 10.051494,-9.72271 22.45064,-9.72271 12.39915,0 22.45064,4.35301 22.45064,9.72271 z"
         transform="matrix(-0.18033645,-0.1041173,-0.2404163,0.41641325,849.98419,-381.82753)" />
      <path
         transform="matrix(-0.18033645,-0.1041173,-0.2404163,0.41641325,776.23419,-254.08879)"
         d="m 128.69343,589.46075 c 0,5.36971 -10.05149,9.72272 -22.45064,9.72272 -12.399146,0 -22.45064,-4.35301 -22.45064,-9.72272 0,-5.3697 10.051494,-9.72271 22.45064,-9.72271 12.39915,0 22.45064,4.35301 22.45064,9.72271 z"
         sodipodi:ry="9.7227182"
         sodipodi:rx="22.45064"
         sodipodi:cy="589.46075"
         sodipodi:cx="106.24279"
         id="path4225"
         style="color:#000000;fill:none;stroke:#ff0000;stroke-width:3.16028738px;stroke-linecap:butt;stroke-linejoin:miter;stroke-miterlimit:4;stroke-opacity:1;stroke-dasharray:none;stroke-dashoffset:0;marker:none;visibility:visible;display:inline;overflow:visible;enable-background:accumulate"
         sodipodi:type="arc" />
      <path
         id="rect4043"
         d="m 651.15789,-133.89802 c -0.7579,0.017 -1.5264,0.074 -2.2813,0.125 l -3.125,5.375 6.5,11.21875 6.5,-11.21875 -3.125,-5.40625 c -1.4889,-0.0991 -2.9846,-0.127 -4.4687,-0.0937 z m 21.3124,4.21875 -0.7187,1.25 6.4687,11.28125 3.9688,-6.875 c -1.5167,-1.11977 -3.1099,-2.16005 -4.7812,-3.125 -1.6172,-0.93364 -3.2671,-1.7955 -4.9376,-2.53125 z m -40.4374,0.0312 c -3.4213,1.49522 -6.6786,3.38095 -9.7188,5.625 l 3.9688,6.875 6.4687,-11.25 -0.7187,-1.25 z m 7.2187,12.5 -6.4687,11.21875 6.4687,11.281252 6.5,-11.250002 -6.5,-11.25 z m 26,0 -6.5,11.25 6.5,11.250002 6.4687,-11.250002 -6.4687,-11.25 z m -51.375,1 c -1.9308,2.27725 -3.7043,4.729 -5.25,7.40625 -0.6045,1.04705 -1.135,2.11701 -1.6563,3.1875 l 6.3126,10.875002 6.5,-11.218752 -5.9063,-10.25 z m 76.75,0 -5.9063,10.25 6.5,11.218752 6.3126,-10.906252 c -1.8278,-3.76759 -4.1506,-7.31563 -6.9063,-10.5625 z m -64.3437,21.500002 -6.5,11.25 6.5,11.25 6.4687,-11.25 -6.4687,-11.25 z m 25.9687,0 -6.5,11.25 6.5,11.21875 6.5,-11.21875 -6.5,-11.25 z m 25.9687,0 -6.4687,11.21875 6.4687,11.28125 6.5,-11.25 -6.5,-11.25 z m -75.7812,3.71875 c -0.7415,5.01609 -0.7279,10.06779 0.031,15 l 4.3126,-7.46875 -4.3438,-7.53125 z m 99.5938,0.03125 -4.3126,7.5 4.2813,7.4375 c 0.7606,-4.99311 0.7599,-10.02191 0.031,-14.9375 z m -88.75,18.75 -6.25,10.8125 c 1.8354,3.74405 4.1516,7.27497 6.9062,10.5 l 5.8438,-10.09375 -6.5,-11.21875 z m 25.9687,0 -6.4687,11.21875 6.4687,11.25 6.5,-11.21875 -6.5,-11.25 z m 26,0 -6.5,11.25 6.5,11.25 6.4687,-11.25 -6.4687,-11.25 z m 25.9687,0 -6.5,11.25 5.8126,10.03125 c 1.9594,-2.30064 3.7473,-4.78913 5.3124,-7.5 0.5762,-0.99794 1.0933,-2.01194 1.5938,-3.03125 l -6.2188,-10.75 z m -64.9374,22.5 -3.875,6.6875 c 1.4739,1.08022 3.0372,2.06528 4.6562,3 1.6748,0.96694 3.3932,1.80774 5.125,2.5625 l 0.5625,-1 -6.4687,-11.25 z m 25.9687,0 -6.5,11.25 2.9375,5.0625 c 2.3745,0.16551 4.7686,0.16946 7.125,0 l 2.9375,-5.09375 -6.5,-11.21875 z m 25.9687,0 -6.4687,11.21875 0.5937,1.03125 c 3.4193,-1.48533 6.6779,-3.3614 9.7188,-5.59375 l -3.8438,-6.65625 z"
         style="color:#000000;fill:none;stroke:#0000ff;stroke-width:1px;stroke-linecap:butt;stroke-linejoin:miter;stroke-miterlimit:4;stroke-opacity:1;stroke-dasharray:none;stroke-dashoffset:0;marker:none;visibility:visible;display:inline;overflow:visible;enable-background:accumulate" />
    </g>
    <g
       id="g4136"
       transform="matrix(0,1,-1,0,191.25001,11.24868)">
      <rect
         transform="matrix(0.25881905,0.96592582,-0.96592582,0.25881905,0,0)"
         style="color:#000000;fill:none;stroke:#000000;stroke-width:0.99999994px;stroke-linecap:butt;stroke-linejoin:miter;stroke-miterlimit:4;stroke-opacity:1;stroke-dasharray:none;stroke-dashoffset:0;marker:none;visibility:visible;display:inline;overflow:visible;enable-background:accumulate"
         id="rect2934"
         width="277.45999"
         height="277.45999"
         x="-161.83844"
         y="-1016.7188" />
      <path
         transform="matrix(0.39628191,1.4789442,-1.2075782,0.32356962,1477.6335,-689.42454)"
         d="m 265.25417,582.10297 c 0,64.38728 -42.61892,116.58348 -95.19202,116.58348 -52.5731,0 -95.192025,-52.1962 -95.192025,-116.58348 0,-64.38729 42.618925,-116.58349 95.192025,-116.58349 52.5731,0 95.19202,52.1962 95.19202,116.58349 z"
         sodipodi:ry="116.58349"
         sodipodi:rx="95.192024"
         sodipodi:cy="582.10297"
         sodipodi:cx="170.06215"
         id="path2936"
         style="color:#000000;fill:none;stroke:#000000;stroke-width:0.72278684px;stroke-linecap:butt;stroke-linejoin:miter;stroke-miterlimit:4;stroke-opacity:1;stroke-dasharray:none;stroke-dashoffset:0;marker:none;visibility:visible;display:inline;overflow:visible;enable-background:accumulate"
         sodipodi:type="arc" />
      <path
         sodipodi:type="arc"
         style="color:#000000;fill:none;stroke:#ff0000;stroke-width:3.0155406px;stroke-linecap:butt;stroke-linejoin:miter;stroke-miterlimit:4;stroke-opacity:1;stroke-dasharray:none;stroke-dashoffset:0;marker:none;visibility:visible;display:inline;overflow:visible;enable-background:accumulate"
         id="path2938"
         sodipodi:cx="364.8671"
         sodipodi:cy="524.93726"
         sodipodi:rx="17.67767"
         sodipodi:ry="21.566757"
         d="m 382.54477,524.93726 c 0,11.91099 -7.91457,21.56675 -17.67767,21.56675 -9.76311,0 -17.67767,-9.65576 -17.67767,-21.56675 0,-11.911 7.91456,-21.56676 17.67767,-21.56676 9.7631,0 17.67767,9.65576 17.67767,21.56676 z"
         transform="matrix(0.31720892,0.18314065,-0.15011529,0.26000731,931.37637,-379.9958)" />
      <path
         transform="matrix(0.31720892,0.18314065,-0.15011529,0.26000731,878.02817,-579.094)"
         d="m 382.54477,524.93726 c 0,11.91099 -7.91457,21.56675 -17.67767,21.56675 -9.76311,0 -17.67767,-9.65576 -17.67767,-21.56675 0,-11.911 7.91456,-21.56676 17.67767,-21.56676 9.7631,0 17.67767,9.65576 17.67767,21.56676 z"
         sodipodi:ry="21.566757"
         sodipodi:rx="17.67767"
         sodipodi:cy="524.93726"
         sodipodi:cx="364.8671"
         id="path2940"
         style="color:#000000;fill:none;stroke:#ff0000;stroke-width:3.0155406px;stroke-linecap:butt;stroke-linejoin:miter;stroke-miterlimit:4;stroke-opacity:1;stroke-dasharray:none;stroke-dashoffset:0;marker:none;visibility:visible;display:inline;overflow:visible;enable-background:accumulate"
         sodipodi:type="arc" />
      <path
         sodipodi:type="arc"
         style="color:#000000;fill:none;stroke:#ff0000;stroke-width:3.0155406px;stroke-linecap:butt;stroke-linejoin:miter;stroke-miterlimit:4;stroke-opacity:1;stroke-dasharray:none;stroke-dashoffset:0;marker:none;visibility:visible;display:inline;overflow:visible;enable-background:accumulate"
         id="path2942"
         sodipodi:cx="364.8671"
         sodipodi:cy="524.93726"
         sodipodi:rx="17.67767"
         sodipodi:ry="21.566757"
         d="m 382.54477,524.93726 c 0,11.91099 -7.91457,21.56675 -17.67767,21.56675 -9.76311,0 -17.67767,-9.65576 -17.67767,-21.56675 0,-11.911 7.91456,-21.56676 17.67767,-21.56676 9.7631,0 17.67767,9.65576 17.67767,21.56676 z"
         transform="matrix(0.31720892,0.18314065,-0.15011529,0.26000731,678.92994,-525.74579)" />
      <path
         transform="matrix(0.31720892,0.18314065,-0.15011529,0.26000731,732.27815,-326.64759)"
         d="m 382.54477,524.93726 c 0,11.91099 -7.91457,21.56675 -17.67767,21.56675 -9.76311,0 -17.67767,-9.65576 -17.67767,-21.56675 0,-11.911 7.91456,-21.56676 17.67767,-21.56676 9.7631,0 17.67767,9.65576 17.67767,21.56676 z"
         sodipodi:ry="21.566757"
         sodipodi:rx="17.67767"
         sodipodi:cy="524.93726"
         sodipodi:cx="364.8671"
         id="path2944"
         style="color:#000000;fill:none;stroke:#ff0000;stroke-width:3.0155406px;stroke-linecap:butt;stroke-linejoin:miter;stroke-miterlimit:4;stroke-opacity:1;stroke-dasharray:none;stroke-dashoffset:0;marker:none;visibility:visible;display:inline;overflow:visible;enable-background:accumulate"
         sodipodi:type="arc" />
      <path
         style="color:#000000;fill:none;stroke:#0000ff;stroke-width:1px;stroke-linecap:butt;stroke-linejoin:miter;stroke-miterlimit:4;stroke-opacity:1;stroke-dasharray:none;stroke-dashoffset:0;marker:none;visibility:visible;display:inline;overflow:visible;enable-background:accumulate"
         d="m 830.57307,-372.3269 0,0.34375 -22.5,12.96875 0,-9.0625 c 7.3049,-2.09999 14.8297,-3.53437 22.5,-4.25 z m 40.4687,2.96875 c 0.9547,0.2319 1.9209,0.46309 2.875,0.71875 0.5552,0.14877 1.1049,0.31289 1.6563,0.46875 l 0,22.15625 -22.5,13 0,-25.96875 17.9687,-10.375 z m 27.0313,10 c 0.1044,0.0532 0.2082,0.10275 0.3124,0.15625 l -0.3124,0.1875 0,-0.34375 z m -112.5,0.21875 0,13.125 -22.5,13 0,-11.21875 c 6.9443,-5.781 14.4887,-10.77712 22.5,-14.90625 z m 45,13.125 0,25.96875 -22.5,13 0,-25.96875 22.5,-13 z m 88.9687,0.59375 c 0.3453,0.27955 0.6893,0.56071 1.0313,0.84375 l 0,24.53125 -22.5,13 0,-25.96875 21.4687,-12.40625 z m -43.9687,25.40625 0,25.96875 -22.5,12.96875 0,-25.96875 22.5,-12.96875 z m -90,0 0,25.96875 -22.5,12.96875 0,-25.96875 22.5,-12.96875 z m 163.5624,9.46875 c 3.7281,6.54877 6.8596,13.42112 9.3438,20.5625 l -15.4062,8.90625 0,-25.96875 6.0624,-3.5 z m -28.5624,16.5 0,25.96875 -22.5,13 0,-25.96875 22.5,-13 z m -90,0 0,25.96875 -22.5,13 0,-25.96875 22.5,-13 z m -90,0 0,25.96875 -21.6876,12.53125 c 0.4256,-8.59419 1.7764,-17.28884 4.0938,-25.9375 0.2556,-0.95377 0.5048,-1.90133 0.7812,-2.84375 l 16.8126,-9.71875 z m 135,25.96875 0,25.96875 -22.5,13 0,-25.96875 22.5,-13 z m -90,0 0,25.96875 -22.5,13 0,-25.96875 22.5,-13 z m 178.4687,0.90625 c 1.2027,8.3088 1.5525,16.79447 1,25.375 l -21.9687,12.6875 0,-25.96875 20.9687,-12.09375 z m -43.4687,25.09375 0,25.96875 -22.5,12.96875 0,-25.96875 22.5,-12.96875 z m -90,0 0,25.96875 -22.5,12.96875 0,-25.96875 22.5,-12.96875 z m -90,0 0,25.96875 -14.5,8.34375 c -2.6346,-7.28703 -4.5869,-14.85946 -5.8126,-22.59375 l 20.3126,-11.71875 z m 135,25.96875 0,25.96875 -22.5,13 0,-25.96875 22.5,-13 z m -90,0 0,25.96875 -22.5,13 0,-25.96875 22.5,-13 z m 174,3.46875 c -3.8547,12.29675 -9.4553,23.60853 -16.5,33.6875 l 0,-24.15625 16.5,-9.53125 z m -39,22.5 0,25.96875 -22.5,13 0,-25.96875 22.5,-13 z m -90,0 0,25.96875 -22.5,13 0,-25.96875 22.5,-13 z m -90,0 0,10.5625 c -1.7321,-2.51262 -3.3652,-5.0868 -4.9063,-7.71875 l 4.9063,-2.84375 z m 135,26 0,25.96875 -19.1563,11.03125 c -1.1117,0.13116 -2.2259,0.24293 -3.3437,0.34375 l 0,-24.375 22.5,-12.96875 z m -90,0 0,24.15625 c -7.0852,-3.63972 -13.691,-7.92446 -19.8126,-12.75 l 19.8126,-11.40625 z m 45,25.96875 0,11.3125 c -5.1127,-0.48295 -10.2439,-1.28948 -15.375,-2.4375 l 15.375,-8.875 z"
         id="path4127" />
    </g>
    <g
       id="g4145"
       transform="matrix(0,-1,-1,0,191.24999,1068.7487)">
      <rect
         y="-1016.7188"
         x="-161.83844"
         height="277.45999"
         width="277.45999"
         id="rect4147"
         style="color:#000000;fill:none;stroke:#000000;stroke-width:0.99999994px;stroke-linecap:butt;stroke-linejoin:miter;stroke-miterlimit:4;stroke-opacity:1;stroke-dasharray:none;stroke-dashoffset:0;marker:none;visibility:visible;display:inline;overflow:visible;enable-background:accumulate"
         transform="matrix(0.25881905,0.96592582,-0.96592582,0.25881905,0,0)" />
      <path
         sodipodi:type="arc"
         style="color:#000000;fill:none;stroke:#000000;stroke-width:0.72278684px;stroke-linecap:butt;stroke-linejoin:miter;stroke-miterlimit:4;stroke-opacity:1;stroke-dasharray:none;stroke-dashoffset:0;marker:none;visibility:visible;display:inline;overflow:visible;enable-background:accumulate"
         id="path4149"
         sodipodi:cx="170.06215"
         sodipodi:cy="582.10297"
         sodipodi:rx="95.192024"
         sodipodi:ry="116.58349"
         d="m 265.25417,582.10297 c 0,64.38728 -42.61892,116.58348 -95.19202,116.58348 -52.5731,0 -95.192025,-52.1962 -95.192025,-116.58348 0,-64.38729 42.618925,-116.58349 95.192025,-116.58349 52.5731,0 95.19202,52.1962 95.19202,116.58349 z"
         transform="matrix(0.39628191,1.4789442,-1.2075782,0.32356962,1477.6335,-689.42454)" />
      <path
         transform="matrix(0.31720892,0.18314065,-0.15011529,0.26000731,931.37637,-379.9958)"
         d="m 382.54477,524.93726 c 0,11.91099 -7.91457,21.56675 -17.67767,21.56675 -9.76311,0 -17.67767,-9.65576 -17.67767,-21.56675 0,-11.911 7.91456,-21.56676 17.67767,-21.56676 9.7631,0 17.67767,9.65576 17.67767,21.56676 z"
         sodipodi:ry="21.566757"
         sodipodi:rx="17.67767"
         sodipodi:cy="524.93726"
         sodipodi:cx="364.8671"
         id="path4151"
         style="color:#000000;fill:none;stroke:#ff0000;stroke-width:3.0155406px;stroke-linecap:butt;stroke-linejoin:miter;stroke-miterlimit:4;stroke-opacity:1;stroke-dasharray:none;stroke-dashoffset:0;marker:none;visibility:visible;display:inline;overflow:visible;enable-background:accumulate"
         sodipodi:type="arc" />
      <path
         sodipodi:type="arc"
         style="color:#000000;fill:none;stroke:#ff0000;stroke-width:3.0155406px;stroke-linecap:butt;stroke-linejoin:miter;stroke-miterlimit:4;stroke-opacity:1;stroke-dasharray:none;stroke-dashoffset:0;marker:none;visibility:visible;display:inline;overflow:visible;enable-background:accumulate"
         id="path4153"
         sodipodi:cx="364.8671"
         sodipodi:cy="524.93726"
         sodipodi:rx="17.67767"
         sodipodi:ry="21.566757"
         d="m 382.54477,524.93726 c 0,11.91099 -7.91457,21.56675 -17.67767,21.56675 -9.76311,0 -17.67767,-9.65576 -17.67767,-21.56675 0,-11.911 7.91456,-21.56676 17.67767,-21.56676 9.7631,0 17.67767,9.65576 17.67767,21.56676 z"
         transform="matrix(0.31720892,0.18314065,-0.15011529,0.26000731,878.02817,-579.094)" />
      <path
         transform="matrix(0.31720892,0.18314065,-0.15011529,0.26000731,678.92994,-525.74579)"
         d="m 382.54477,524.93726 c 0,11.91099 -7.91457,21.56675 -17.67767,21.56675 -9.76311,0 -17.67767,-9.65576 -17.67767,-21.56675 0,-11.911 7.91456,-21.56676 17.67767,-21.56676 9.7631,0 17.67767,9.65576 17.67767,21.56676 z"
         sodipodi:ry="21.566757"
         sodipodi:rx="17.67767"
         sodipodi:cy="524.93726"
         sodipodi:cx="364.8671"
         id="path4155"
         style="color:#000000;fill:none;stroke:#ff0000;stroke-width:3.0155406px;stroke-linecap:butt;stroke-linejoin:miter;stroke-miterlimit:4;stroke-opacity:1;stroke-dasharray:none;stroke-dashoffset:0;marker:none;visibility:visible;display:inline;overflow:visible;enable-background:accumulate"
         sodipodi:type="arc" />
      <path
         sodipodi:type="arc"
         style="color:#000000;fill:none;stroke:#ff0000;stroke-width:3.0155406px;stroke-linecap:butt;stroke-linejoin:miter;stroke-miterlimit:4;stroke-opacity:1;stroke-dasharray:none;stroke-dashoffset:0;marker:none;visibility:visible;display:inline;overflow:visible;enable-background:accumulate"
         id="path4157"
         sodipodi:cx="364.8671"
         sodipodi:cy="524.93726"
         sodipodi:rx="17.67767"
         sodipodi:ry="21.566757"
         d="m 382.54477,524.93726 c 0,11.91099 -7.91457,21.56675 -17.67767,21.56675 -9.76311,0 -17.67767,-9.65576 -17.67767,-21.56675 0,-11.911 7.91456,-21.56676 17.67767,-21.56676 9.7631,0 17.67767,9.65576 17.67767,21.56676 z"
         transform="matrix(0.31720892,0.18314065,-0.15011529,0.26000731,732.27815,-326.64759)" />
      <path
         id="path4159"
         d="m 830.57307,-372.3269 0,0.34375 -22.5,12.96875 0,-9.0625 c 7.3049,-2.09999 14.8297,-3.53437 22.5,-4.25 z m 40.4687,2.96875 c 0.9547,0.2319 1.9209,0.46309 2.875,0.71875 0.5552,0.14877 1.1049,0.31289 1.6563,0.46875 l 0,22.15625 -22.5,13 0,-25.96875 17.9687,-10.375 z m 27.0313,10 c 0.1044,0.0532 0.2082,0.10275 0.3124,0.15625 l -0.3124,0.1875 0,-0.34375 z m -112.5,0.21875 0,13.125 -22.5,13 0,-11.21875 c 6.9443,-5.781 14.4887,-10.77712 22.5,-14.90625 z m 45,13.125 0,25.96875 -22.5,13 0,-25.96875 22.5,-13 z m 88.9687,0.59375 c 0.3453,0.27955 0.6893,0.56071 1.0313,0.84375 l 0,24.53125 -22.5,13 0,-25.96875 21.4687,-12.40625 z m -43.9687,25.40625 0,25.96875 -22.5,12.96875 0,-25.96875 22.5,-12.96875 z m -90,0 0,25.96875 -22.5,12.96875 0,-25.96875 22.5,-12.96875 z m 163.5624,9.46875 c 3.7281,6.54877 6.8596,13.42112 9.3438,20.5625 l -15.4062,8.90625 0,-25.96875 6.0624,-3.5 z m -28.5624,16.5 0,25.96875 -22.5,13 0,-25.96875 22.5,-13 z m -90,0 0,25.96875 -22.5,13 0,-25.96875 22.5,-13 z m -90,0 0,25.96875 -21.6876,12.53125 c 0.4256,-8.59419 1.7764,-17.28884 4.0938,-25.9375 0.2556,-0.95377 0.5048,-1.90133 0.7812,-2.84375 l 16.8126,-9.71875 z m 135,25.96875 0,25.96875 -22.5,13 0,-25.96875 22.5,-13 z m -90,0 0,25.96875 -22.5,13 0,-25.96875 22.5,-13 z m 178.4687,0.90625 c 1.2027,8.3088 1.5525,16.79447 1,25.375 l -21.9687,12.6875 0,-25.96875 20.9687,-12.09375 z m -43.4687,25.09375 0,25.96875 -22.5,12.96875 0,-25.96875 22.5,-12.96875 z m -90,0 0,25.96875 -22.5,12.96875 0,-25.96875 22.5,-12.96875 z m -90,0 0,25.96875 -14.5,8.34375 c -2.6346,-7.28703 -4.5869,-14.85946 -5.8126,-22.59375 l 20.3126,-11.71875 z m 135,25.96875 0,25.96875 -22.5,13 0,-25.96875 22.5,-13 z m -90,0 0,25.96875 -22.5,13 0,-25.96875 22.5,-13 z m 174,3.46875 c -3.8547,12.29675 -9.4553,23.60853 -16.5,33.6875 l 0,-24.15625 16.5,-9.53125 z m -39,22.5 0,25.96875 -22.5,13 0,-25.96875 22.5,-13 z m -90,0 0,25.96875 -22.5,13 0,-25.96875 22.5,-13 z m -90,0 0,10.5625 c -1.7321,-2.51262 -3.3652,-5.0868 -4.9063,-7.71875 l 4.9063,-2.84375 z m 135,26 0,25.96875 -19.1563,11.03125 c -1.1117,0.13116 -2.2259,0.24293 -3.3437,0.34375 l 0,-24.375 22.5,-12.96875 z m -90,0 0,24.15625 c -7.0852,-3.63972 -13.691,-7.92446 -19.8126,-12.75 l 19.8126,-11.40625 z m 45,25.96875 0,11.3125 c -5.1127,-0.48295 -10.2439,-1.28948 -15.375,-2.4375 l 15.375,-8.875 z"
         style="color:#000000;fill:none;stroke:#0000ff;stroke-width:1px;stroke-linecap:butt;stroke-linejoin:miter;stroke-miterlimit:4;stroke-opacity:1;stroke-dasharray:none;stroke-dashoffset:0;marker:none;visibility:visible;display:inline;overflow:visible;enable-background:accumulate" />
    </g>
    <g
       id="g4380"
       transform="matrix(0,1,-1,0,191.25001,11.24868)">
      <g
         id="g4322">
        <path
           sodipodi:type="arc"
           style="color:#000000;fill:none;stroke:#ff0000;stroke-width:3.76444697px;stroke-linecap:butt;stroke-linejoin:miter;stroke-miterlimit:4;stroke-opacity:1;stroke-dasharray:none;stroke-dashoffset:0;marker:none;visibility:visible;display:inline;overflow:visible;enable-background:accumulate"
           id="path4291"
           sodipodi:cx="-137.14694"
           sodipodi:cy="423.01556"
           sodipodi:rx="24.133154"
           sodipodi:ry="30.019289"
           d="m -113.01379,423.01556 c 0,16.5792 -10.80478,30.01929 -24.13315,30.01929 -13.32838,0 -24.13316,-13.44009 -24.13316,-30.01929 0,-16.57919 10.80478,-30.01929 24.13316,-30.01929 13.32837,0 24.13315,13.4401 24.13315,30.01929 z"
           transform="matrix(0.29627292,0,0,-0.23818019,63.63293,-114.73281)" />
        <path
           transform="matrix(0.29627292,0,0,-0.23818019,63.632927,-544.70631)"
           d="m -113.01379,423.01556 c 0,16.5792 -10.80478,30.01929 -24.13315,30.01929 -13.32838,0 -24.13316,-13.44009 -24.13316,-30.01929 0,-16.57919 10.80478,-30.01929 24.13316,-30.01929 13.32837,0 24.13315,13.4401 24.13315,30.01929 z"
           sodipodi:ry="30.019289"
           sodipodi:rx="24.133154"
           sodipodi:cy="423.01556"
           sodipodi:cx="-137.14694"
           id="path4318"
           style="color:#000000;fill:none;stroke:#ff0000;stroke-width:3.76444697px;stroke-linecap:butt;stroke-linejoin:miter;stroke-miterlimit:4;stroke-opacity:1;stroke-dasharray:none;stroke-dashoffset:0;marker:none;visibility:visible;display:inline;overflow:visible;enable-background:accumulate"
           sodipodi:type="arc" />
      </g>
      <path
         sodipodi:type="arc"
         style="color:#000000;fill:none;stroke:#ff0000;stroke-width:3.76444697px;stroke-linecap:butt;stroke-linejoin:miter;stroke-miterlimit:4;stroke-opacity:1;stroke-dasharray:none;stroke-dashoffset:0;marker:none;visibility:visible;display:inline;overflow:visible;enable-background:accumulate"
         id="path4378"
         sodipodi:cx="-137.14694"
         sodipodi:cy="423.01556"
         sodipodi:rx="24.133154"
         sodipodi:ry="30.019289"
         d="m -113.01379,423.01556 c 0,16.5792 -10.80478,30.01929 -24.13315,30.01929 -13.32838,0 -24.13316,-13.44009 -24.13316,-30.01929 0,-16.57919 10.80478,-30.01929 24.13316,-30.01929 13.32837,0 24.13315,13.4401 24.13315,30.01929 z"
         transform="matrix(0.29627292,0,0,-0.23818019,63.632927,-329.71955)" />
    </g>
    <g
       id="g4390"
       transform="matrix(0,1,-1,0,191.24998,1022.7487)">
      <g
         id="g4392">
        <path
           transform="matrix(0.29627292,0,0,-0.23818019,63.63293,-114.73281)"
           d="m -113.01379,423.01556 c 0,16.5792 -10.80478,30.01929 -24.13315,30.01929 -13.32838,0 -24.13316,-13.44009 -24.13316,-30.01929 0,-16.57919 10.80478,-30.01929 24.13316,-30.01929 13.32837,0 24.13315,13.4401 24.13315,30.01929 z"
           sodipodi:ry="30.019289"
           sodipodi:rx="24.133154"
           sodipodi:cy="423.01556"
           sodipodi:cx="-137.14694"
           id="path4394"
           style="color:#000000;fill:none;stroke:#ff0000;stroke-width:3.76444697px;stroke-linecap:butt;stroke-linejoin:miter;stroke-miterlimit:4;stroke-opacity:1;stroke-dasharray:none;stroke-dashoffset:0;marker:none;visibility:visible;display:inline;overflow:visible;enable-background:accumulate"
           sodipodi:type="arc" />
        <path
           sodipodi:type="arc"
           style="color:#000000;fill:none;stroke:#ff0000;stroke-width:3.76444697px;stroke-linecap:butt;stroke-linejoin:miter;stroke-miterlimit:4;stroke-opacity:1;stroke-dasharray:none;stroke-dashoffset:0;marker:none;visibility:visible;display:inline;overflow:visible;enable-background:accumulate"
           id="path4396"
           sodipodi:cx="-137.14694"
           sodipodi:cy="423.01556"
           sodipodi:rx="24.133154"
           sodipodi:ry="30.019289"
           d="m -113.01379,423.01556 c 0,16.5792 -10.80478,30.01929 -24.13315,30.01929 -13.32838,0 -24.13316,-13.44009 -24.13316,-30.01929 0,-16.57919 10.80478,-30.01929 24.13316,-30.01929 13.32837,0 24.13315,13.4401 24.13315,30.01929 z"
           transform="matrix(0.29627292,0,0,-0.23818019,63.632927,-544.70631)" />
      </g>
      <path
         transform="matrix(0.29627292,0,0,-0.23818019,63.632927,-329.71955)"
         d="m -113.01379,423.01556 c 0,16.5792 -10.80478,30.01929 -24.13315,30.01929 -13.32838,0 -24.13316,-13.44009 -24.13316,-30.01929 0,-16.57919 10.80478,-30.01929 24.13316,-30.01929 13.32837,0 24.13315,13.4401 24.13315,30.01929 z"
         sodipodi:ry="30.019289"
         sodipodi:rx="24.133154"
         sodipodi:cy="423.01556"
         sodipodi:cx="-137.14694"
         id="path4406"
         style="color:#000000;fill:none;stroke:#ff0000;stroke-width:3.76444697px;stroke-linecap:butt;stroke-linejoin:miter;stroke-miterlimit:4;stroke-opacity:1;stroke-dasharray:none;stroke-dashoffset:0;marker:none;visibility:visible;display:inline;overflow:visible;enable-background:accumulate"
         sodipodi:type="arc" />
    </g>
    <g
       id="g4408"
       transform="matrix(-0.8660254,0.5,-0.5,-0.8660254,864.39769,-97.17727)">
      <g
         id="g4410">
        <path
           transform="matrix(0.29627292,0,0,-0.23818019,63.63293,-114.73281)"
           d="m -113.01379,423.01556 c 0,16.5792 -10.80478,30.01929 -24.13315,30.01929 -13.32838,0 -24.13316,-13.44009 -24.13316,-30.01929 0,-16.57919 10.80478,-30.01929 24.13316,-30.01929 13.32837,0 24.13315,13.4401 24.13315,30.01929 z"
           sodipodi:ry="30.019289"
           sodipodi:rx="24.133154"
           sodipodi:cy="423.01556"
           sodipodi:cx="-137.14694"
           id="path4412"
           style="color:#000000;fill:none;stroke:#ff0000;stroke-width:3.76444697px;stroke-linecap:butt;stroke-linejoin:miter;stroke-miterlimit:4;stroke-opacity:1;stroke-dasharray:none;stroke-dashoffset:0;marker:none;visibility:visible;display:inline;overflow:visible;enable-background:accumulate"
           sodipodi:type="arc" />
        <path
           sodipodi:type="arc"
           style="color:#000000;fill:none;stroke:#ff0000;stroke-width:3.76444697px;stroke-linecap:butt;stroke-linejoin:miter;stroke-miterlimit:4;stroke-opacity:1;stroke-dasharray:none;stroke-dashoffset:0;marker:none;visibility:visible;display:inline;overflow:visible;enable-background:accumulate"
           id="path4414"
           sodipodi:cx="-137.14694"
           sodipodi:cy="423.01556"
           sodipodi:rx="24.133154"
           sodipodi:ry="30.019289"
           d="m -113.01379,423.01556 c 0,16.5792 -10.80478,30.01929 -24.13315,30.01929 -13.32838,0 -24.13316,-13.44009 -24.13316,-30.01929 0,-16.57919 10.80478,-30.01929 24.13316,-30.01929 13.32837,0 24.13315,13.4401 24.13315,30.01929 z"
           transform="matrix(0.29627292,0,0,-0.23818019,63.632927,-544.70631)" />
      </g>
      <path
         transform="matrix(0.29627292,0,0,-0.23818019,63.632927,-329.71955)"
         d="m -113.01379,423.01556 c 0,16.5792 -10.80478,30.01929 -24.13315,30.01929 -13.32838,0 -24.13316,-13.44009 -24.13316,-30.01929 0,-16.57919 10.80478,-30.01929 24.13316,-30.01929 13.32837,0 24.13315,13.4401 24.13315,30.01929 z"
         sodipodi:ry="30.019289"
         sodipodi:rx="24.133154"
         sodipodi:cy="423.01556"
         sodipodi:cx="-137.14694"
         id="path4424"
         style="color:#000000;fill:none;stroke:#ff0000;stroke-width:3.76444697px;stroke-linecap:butt;stroke-linejoin:miter;stroke-miterlimit:4;stroke-opacity:1;stroke-dasharray:none;stroke-dashoffset:0;marker:none;visibility:visible;display:inline;overflow:visible;enable-background:accumulate"
         sodipodi:type="arc" />
    </g>
    <g
       transform="matrix(-0.8660254,0.5,-0.5,-0.8660254,-11.58702,408.57271)"
       id="g4426">
      <g
         id="g4428">
        <path
           sodipodi:type="arc"
           style="color:#000000;fill:none;stroke:#ff0000;stroke-width:3.76444697px;stroke-linecap:butt;stroke-linejoin:miter;stroke-miterlimit:4;stroke-opacity:1;stroke-dasharray:none;stroke-dashoffset:0;marker:none;visibility:visible;display:inline;overflow:visible;enable-background:accumulate"
           id="path4430"
           sodipodi:cx="-137.14694"
           sodipodi:cy="423.01556"
           sodipodi:rx="24.133154"
           sodipodi:ry="30.019289"
           d="m -113.01379,423.01556 c 0,16.5792 -10.80478,30.01929 -24.13315,30.01929 -13.32838,0 -24.13316,-13.44009 -24.13316,-30.01929 0,-16.57919 10.80478,-30.01929 24.13316,-30.01929 13.32837,0 24.13315,13.4401 24.13315,30.01929 z"
           transform="matrix(0.29627292,0,0,-0.23818019,63.63293,-114.73281)" />
        <path
           transform="matrix(0.29627292,0,0,-0.23818019,63.632927,-544.70631)"
           d="m -113.01379,423.01556 c 0,16.5792 -10.80478,30.01929 -24.13315,30.01929 -13.32838,0 -24.13316,-13.44009 -24.13316,-30.01929 0,-16.57919 10.80478,-30.01929 24.13316,-30.01929 13.32837,0 24.13315,13.4401 24.13315,30.01929 z"
           sodipodi:ry="30.019289"
           sodipodi:rx="24.133154"
           sodipodi:cy="423.01556"
           sodipodi:cx="-137.14694"
           id="path4432"
           style="color:#000000;fill:none;stroke:#ff0000;stroke-width:3.76444697px;stroke-linecap:butt;stroke-linejoin:miter;stroke-miterlimit:4;stroke-opacity:1;stroke-dasharray:none;stroke-dashoffset:0;marker:none;visibility:visible;display:inline;overflow:visible;enable-background:accumulate"
           sodipodi:type="arc" />
      </g>
      <path
         sodipodi:type="arc"
         style="color:#000000;fill:none;stroke:#ff0000;stroke-width:3.76444697px;stroke-linecap:butt;stroke-linejoin:miter;stroke-miterlimit:4;stroke-opacity:1;stroke-dasharray:none;stroke-dashoffset:0;marker:none;visibility:visible;display:inline;overflow:visible;enable-background:accumulate"
         id="path4442"
         sodipodi:cx="-137.14694"
         sodipodi:cy="423.01556"
         sodipodi:rx="24.133154"
         sodipodi:ry="30.019289"
         d="m -113.01379,423.01556 c 0,16.5792 -10.80478,30.01929 -24.13315,30.01929 -13.32838,0 -24.13316,-13.44009 -24.13316,-30.01929 0,-16.57919 10.80478,-30.01929 24.13316,-30.01929 13.32837,0 24.13315,13.4401 24.13315,30.01929 z"
         transform="matrix(0.29627292,0,0,-0.23818019,63.632927,-329.71955)" />
    </g>
    <g
       id="g4446"
       transform="matrix(0.8660254,0.5,-0.5,0.8660254,-51.4242,648.42464)">
      <path
         sodipodi:type="arc"
         style="color:#000000;fill:none;stroke:#ff0000;stroke-width:3.76444697px;stroke-linecap:butt;stroke-linejoin:miter;stroke-miterlimit:4;stroke-opacity:1;stroke-dasharray:none;stroke-dashoffset:0;marker:none;visibility:visible;display:inline;overflow:visible;enable-background:accumulate"
         id="path4448"
         sodipodi:cx="-137.14694"
         sodipodi:cy="423.01556"
         sodipodi:rx="24.133154"
         sodipodi:ry="30.019289"
         d="m -113.01379,423.01556 c 0,16.5792 -10.80478,30.01929 -24.13315,30.01929 -13.32838,0 -24.13316,-13.44009 -24.13316,-30.01929 0,-16.57919 10.80478,-30.01929 24.13316,-30.01929 13.32837,0 24.13315,13.4401 24.13315,30.01929 z"
         transform="matrix(0.29627292,0,0,-0.23818019,63.63293,-114.73281)" />
      <path
         transform="matrix(0.29627292,0,0,-0.23818019,63.632927,-544.70631)"
         d="m -113.01379,423.01556 c 0,16.5792 -10.80478,30.01929 -24.13315,30.01929 -13.32838,0 -24.13316,-13.44009 -24.13316,-30.01929 0,-16.57919 10.80478,-30.01929 24.13316,-30.01929 13.32837,0 24.13315,13.4401 24.13315,30.01929 z"
         sodipodi:ry="30.019289"
         sodipodi:rx="24.133154"
         sodipodi:cy="423.01556"
         sodipodi:cx="-137.14694"
         id="path4450"
         style="color:#000000;fill:none;stroke:#ff0000;stroke-width:3.76444697px;stroke-linecap:butt;stroke-linejoin:miter;stroke-miterlimit:4;stroke-opacity:1;stroke-dasharray:none;stroke-dashoffset:0;marker:none;visibility:visible;display:inline;overflow:visible;enable-background:accumulate"
         sodipodi:type="arc" />
    </g>
    <path
       sodipodi:type="arc"
       style="color:#000000;fill:none;stroke:#ff0000;stroke-width:3.76444697px;stroke-linecap:butt;stroke-linejoin:miter;stroke-miterlimit:4;stroke-opacity:1;stroke-dasharray:none;stroke-dashoffset:0;marker:none;visibility:visible;display:inline;overflow:visible;enable-background:accumulate"
       id="path4460"
       sodipodi:cx="-137.14694"
       sodipodi:cy="423.01556"
       sodipodi:rx="24.133154"
       sodipodi:ry="30.019289"
       d="m -113.01379,423.01556 a 24.133154,30.019289 0 1 1 -48.26631,0 24.133154,30.019289 0 1 1 48.26631,0 z"
       transform="matrix(0.25657987,0.14813646,0.11909009,-0.20627009,168.54331,394.6956)" />
    <g
       transform="matrix(0.8660254,0.5,-0.5,0.8660254,824.56048,1154.1747)"
       id="g4462">
      <g
         id="g4464">
        <path
           sodipodi:type="arc"
           style="color:#000000;fill:none;stroke:#ff0000;stroke-width:3.76444697px;stroke-linecap:butt;stroke-linejoin:miter;stroke-miterlimit:4;stroke-opacity:1;stroke-dasharray:none;stroke-dashoffset:0;marker:none;visibility:visible;display:inline;overflow:visible;enable-background:accumulate"
           id="path4466"
           sodipodi:cx="-137.14694"
           sodipodi:cy="423.01556"
           sodipodi:rx="24.133154"
           sodipodi:ry="30.019289"
           d="m -113.01379,423.01556 c 0,16.5792 -10.80478,30.01929 -24.13315,30.01929 -13.32838,0 -24.13316,-13.44009 -24.13316,-30.01929 0,-16.57919 10.80478,-30.01929 24.13316,-30.01929 13.32837,0 24.13315,13.4401 24.13315,30.01929 z"
           transform="matrix(0.29627292,0,0,-0.23818019,63.63293,-114.73281)" />
        <path
           transform="matrix(0.29627292,0,0,-0.23818019,63.632927,-544.70631)"
           d="m -113.01379,423.01556 c 0,16.5792 -10.80478,30.01929 -24.13315,30.01929 -13.32838,0 -24.13316,-13.44009 -24.13316,-30.01929 0,-16.57919 10.80478,-30.01929 24.13316,-30.01929 13.32837,0 24.13315,13.4401 24.13315,30.01929 z"
           sodipodi:ry="30.019289"
           sodipodi:rx="24.133154"
           sodipodi:cy="423.01556"
           sodipodi:cx="-137.14694"
           id="path4468"
           style="color:#000000;fill:none;stroke:#ff0000;stroke-width:3.76444697px;stroke-linecap:butt;stroke-linejoin:miter;stroke-miterlimit:4;stroke-opacity:1;stroke-dasharray:none;stroke-dashoffset:0;marker:none;visibility:visible;display:inline;overflow:visible;enable-background:accumulate"
           sodipodi:type="arc" />
      </g>
      <path
         sodipodi:type="arc"
         style="color:#000000;fill:none;stroke:#ff0000;stroke-width:3.76444697px;stroke-linecap:butt;stroke-linejoin:miter;stroke-miterlimit:4;stroke-opacity:1;stroke-dasharray:none;stroke-dashoffset:0;marker:none;visibility:visible;display:inline;overflow:visible;enable-background:accumulate"
         id="path4478"
         sodipodi:cx="-137.14694"
         sodipodi:cy="423.01556"
         sodipodi:rx="24.133154"
         sodipodi:ry="30.019289"
         d="m -113.01379,423.01556 c 0,16.5792 -10.80478,30.01929 -24.13315,30.01929 -13.32838,0 -24.13316,-13.44009 -24.13316,-30.01929 0,-16.57919 10.80478,-30.01929 24.13316,-30.01929 13.32837,0 24.13315,13.4401 24.13315,30.01929 z"
         transform="matrix(0.29627292,0,0,-0.23818019,63.632927,-329.71955)" />
    </g>
  </g>
</svg>
