G75*
G70*
%OFA0B0*%
%FSLAX24Y24*%
%IPPOS*%
%LPD*%
%AMOC8*
5,1,8,0,0,1.08239X$1,22.5*
%
%ADD10C,0.0000*%
%ADD11C,0.0080*%
%ADD12C,0.0060*%
%ADD13R,0.0200X0.0200*%
%ADD14C,0.0050*%
D10*
X000363Y000101D02*
X000363Y008501D01*
X010363Y008501D01*
X010363Y000101D01*
X000363Y000101D01*
D11*
X000709Y006641D02*
X001323Y006641D01*
X001016Y006641D02*
X001016Y007562D01*
X001323Y007255D01*
D12*
X001863Y007351D02*
X001863Y005851D01*
X002113Y005601D01*
X002613Y005601D01*
X002863Y005851D01*
X002863Y007351D01*
X003113Y007601D01*
X003613Y007601D01*
X003863Y007351D01*
X003863Y005851D01*
X004113Y005601D01*
X004613Y005601D01*
X004863Y005851D01*
X004863Y007351D01*
X005113Y007601D01*
X005613Y007601D01*
X005863Y007351D01*
X005863Y005851D01*
X006113Y005601D01*
X006613Y005601D01*
X006863Y005851D01*
X006863Y007351D01*
X007113Y007601D01*
X007613Y007601D01*
X007863Y007351D01*
X007863Y005851D01*
X008113Y005601D01*
X008613Y005601D01*
X008863Y005851D01*
X009113Y005601D01*
X009613Y005601D01*
X009863Y005851D01*
X009863Y007351D01*
X009613Y007601D01*
X009113Y007601D01*
X008863Y007351D01*
X008863Y005851D01*
X007863Y005851D02*
X007613Y005601D01*
X007113Y005601D01*
X006863Y005851D01*
X005863Y005851D02*
X005613Y005601D01*
X005113Y005601D01*
X004863Y005851D01*
X003863Y005851D02*
X003613Y005601D01*
X003113Y005601D01*
X002863Y005851D01*
X002863Y007351D02*
X002613Y007601D01*
X002113Y007601D01*
X001863Y007351D01*
X003863Y007351D02*
X004113Y007601D01*
X004613Y007601D01*
X004863Y007351D01*
X005863Y007351D02*
X006113Y007601D01*
X006613Y007601D01*
X006863Y007351D01*
X007863Y007351D02*
X008113Y007601D01*
X008613Y007601D01*
X008863Y007351D01*
D13*
X009363Y007101D03*
X008363Y007101D03*
X007363Y007101D03*
X006363Y007101D03*
X005363Y007101D03*
X004363Y007101D03*
X003363Y007101D03*
X002363Y007101D03*
X002363Y006101D03*
X003363Y006101D03*
X004363Y006101D03*
X005363Y006101D03*
X006363Y006101D03*
X007363Y006101D03*
X008363Y006101D03*
X009363Y006101D03*
D14*
X003219Y005326D02*
X003219Y004876D01*
X002919Y004876D01*
X002759Y004876D02*
X002759Y005326D01*
X002533Y005326D01*
X002458Y005251D01*
X002458Y005101D01*
X002533Y005026D01*
X002759Y005026D01*
X003069Y005101D02*
X003219Y005101D01*
X003219Y005326D02*
X002919Y005326D01*
X002298Y005326D02*
X002298Y004876D01*
X002073Y004876D01*
X001998Y004951D01*
X001998Y005026D01*
X002073Y005101D01*
X002298Y005101D01*
X002073Y005101D02*
X001998Y005176D01*
X001998Y005251D01*
X002073Y005326D01*
X002298Y005326D01*
M02*
