G75*
G70*
%OFA0B0*%
%FSLAX24Y24*%
%IPPOS*%
%LPD*%
%AMOC8*
5,1,8,0,0,1.08239X$1,22.5*
%
%ADD10OC8,0.0600*%
%ADD11C,0.0600*%
%ADD12C,0.0200*%
D10*
X002363Y006101D03*
X003363Y006101D03*
X004363Y006101D03*
X005363Y006101D03*
X006363Y006101D03*
X007363Y006101D03*
X008363Y006101D03*
X009363Y006101D03*
X009363Y007101D03*
X008363Y007101D03*
X007363Y007101D03*
X006363Y007101D03*
X005363Y007101D03*
X004363Y007101D03*
X003363Y007101D03*
X002363Y007101D03*
D11*
X002363Y002901D02*
X002363Y002301D01*
X003363Y002301D02*
X003363Y002901D01*
X004363Y002901D02*
X004363Y002301D01*
X005363Y002301D02*
X005363Y002901D01*
X006363Y002901D02*
X006363Y002301D01*
X007363Y002301D02*
X007363Y002901D01*
X008363Y002901D02*
X008363Y002301D01*
X009363Y002301D02*
X009363Y002901D01*
D12*
X008883Y003121D02*
X008883Y006621D01*
X009363Y007101D01*
X008363Y007101D02*
X007883Y006621D01*
X007883Y003121D01*
X007363Y002601D01*
X006883Y003121D02*
X006883Y006621D01*
X007363Y007101D01*
X006363Y007101D02*
X005883Y006621D01*
X005883Y001821D01*
X005143Y001821D01*
X004363Y002601D01*
X004883Y003081D02*
X004883Y006621D01*
X005363Y007101D01*
X004363Y007101D02*
X003883Y006621D01*
X003883Y003121D01*
X003363Y002601D01*
X002883Y003121D02*
X002883Y006621D01*
X003363Y007101D01*
X002883Y003121D02*
X002363Y002601D01*
X004883Y003081D02*
X005363Y002601D01*
X006363Y002601D02*
X006883Y003121D01*
X008363Y002601D02*
X008883Y003121D01*
M02*
