%
M48
M72
T01C0.0400
%
T01
X2363Y2601
X3363Y2601
X4363Y2601
X5363Y2601
X6363Y2601
X7363Y2601
X8363Y2601
X9363Y2601
X9363Y6101
X8363Y6101
X7363Y6101
X6363Y6101
X5363Y6101
X4363Y6101
X3363Y6101
X2363Y6101
X2363Y7101
X3363Y7101
X4363Y7101
X5363Y7101
X6363Y7101
X7363Y7101
X8363Y7101
X9363Y7101
M30
