<?xml version="1.0" encoding="UTF-8" standalone="no"?>
<!-- Created with Inkscape (http://www.inkscape.org/) -->

<svg
   xmlns:dc="http://purl.org/dc/elements/1.1/"
   xmlns:cc="http://creativecommons.org/ns#"
   xmlns:rdf="http://www.w3.org/1999/02/22-rdf-syntax-ns#"
   xmlns:svg="http://www.w3.org/2000/svg"
   xmlns="http://www.w3.org/2000/svg"
   xmlns:sodipodi="http://sodipodi.sourceforge.net/DTD/sodipodi-0.dtd"
   xmlns:inkscape="http://www.inkscape.org/namespaces/inkscape"
   width="990"
   height="765"
   id="svg2"
   version="1.1"
   inkscape:version="0.48.4 r9939"
   sodipodi:docname="panel.svg">
  <defs
     id="defs4" />
  <sodipodi:namedview
     id="base"
     pagecolor="#ffffff"
     bordercolor="#666666"
     borderopacity="1.0"
     inkscape:pageopacity="0.0"
     inkscape:pageshadow="2"
     inkscape:zoom="1.5239979"
     inkscape:cx="131.47438"
     inkscape:cy="407.64787"
     inkscape:document-units="in"
     inkscape:current-layer="layer1"
     showgrid="true"
     units="in"
     inkscape:window-width="1600"
     inkscape:window-height="845"
     inkscape:window-x="0"
     inkscape:window-y="27"
     inkscape:window-maximized="1"
     inkscape:snap-global="false"
     inkscape:snap-bbox="true"
     inkscape:snap-grids="false"
     inkscape:object-paths="false"
     inkscape:object-nodes="true"
     inkscape:snap-object-midpoints="true">
    <inkscape:grid
       type="xygrid"
       id="grid2985"
       empspacing="4"
       visible="true"
       enabled="true"
       snapvisiblegridlinesonly="true"
       spacingx="0.25in"
       spacingy="0.25in"
       dotted="false"
       units="in" />
  </sodipodi:namedview>
  <metadata
     id="metadata7">
    <rdf:RDF>
      <cc:Work
         rdf:about="">
        <dc:format>image/svg+xml</dc:format>
        <dc:type
           rdf:resource="http://purl.org/dc/dcmitype/StillImage" />
        <dc:title></dc:title>
      </cc:Work>
    </rdf:RDF>
  </metadata>
  <g
     inkscape:label="Layer 1"
     inkscape:groupmode="layer"
     id="layer1"
     transform="translate(0,-287.362)">
    <g
       id="g3918">
      <path
         id="rect2983"
         d="m 103.5,469.16199 94.05,0 c 7.479,0 13.5,6.021 13.5,13.5 l 0,286.20001 c 0,7.479 -6.021,13.5 -13.5,13.5 l -94.05,0 c -7.479,0 -13.5,-6.021 -13.5,-13.5 l 0,-286.20001 c 0,-7.479 6.021,-13.5 13.5,-13.5 z"
         style="color:#000000;fill:#666666;stroke:none;stroke-width:4.5;marker:none;visibility:visible;display:inline;overflow:visible;enable-background:accumulate" />
      <rect
         rx="11.7"
         y="469.16199"
         x="180.45"
         height="30.6"
         width="30.6"
         id="rect3861"
         style="color:#000000;fill:#ff9955;fill-opacity:1;fill-rule:nonzero;stroke:none;stroke-width:5.94000006;marker:none;visibility:visible;display:inline;overflow:visible;enable-background:accumulate" />
      <rect
         style="color:#000000;fill:#ff9955;fill-opacity:1;fill-rule:nonzero;stroke:none;stroke-width:5.94000006;marker:none;visibility:visible;display:inline;overflow:visible;enable-background:accumulate"
         id="rect3863"
         width="30.6"
         height="30.6"
         x="90"
         y="469.16199"
         rx="11.7" />
      <path
         id="rect3861-9"
         d="m 192.15,751.76202 7.2,0 c 6.4818,0 11.7,5.2182 11.7,11.7 l 0,7.2 c 0,6.4818 -5.2182,11.7 -11.7,11.7 l -7.2,0 c -6.4818,0 -11.7,-5.2182 -11.7,-11.7 l 0,-7.2 c 0,-6.4818 5.2182,-11.7 11.7,-11.7 z"
         style="color:#000000;fill:#ff9955;fill-opacity:1;fill-rule:nonzero;stroke:none;stroke-width:5.94000006;marker:none;visibility:visible;display:inline;overflow:visible;enable-background:accumulate" />
      <path
         id="rect3863-7"
         d="m 101.7,751.76202 7.2,0 c 6.4818,0 11.7,5.2182 11.7,11.7 l 0,7.2 c 0,6.4818 -5.2182,11.7 -11.7,11.7 l -7.2,0 c -6.4818,0 -11.7,-5.2182 -11.7,-11.7 l 0,-7.2 c 0,-6.4818 5.2182,-11.7 11.7,-11.7 z"
         style="color:#000000;fill:#ff9955;fill-opacity:1;fill-rule:nonzero;stroke:none;stroke-width:5.94000006;marker:none;visibility:visible;display:inline;overflow:visible;enable-background:accumulate" />
      <rect
         y="469.16199"
         x="90"
         height="313.20001"
         width="5.04"
         id="rect3892"
         style="color:#000000;fill:#ff9955;fill-opacity:1;fill-rule:nonzero;stroke:none;stroke-width:5.94000006;marker:none;visibility:visible;display:inline;overflow:visible;enable-background:accumulate" />
      <rect
         style="color:#000000;fill:#ff9955;fill-opacity:1;fill-rule:nonzero;stroke:none;stroke-width:5.94000006;marker:none;visibility:visible;display:inline;overflow:visible;enable-background:accumulate"
         id="rect3912"
         width="5.04"
         height="313.20001"
         x="206.01001"
         y="469.16199" />
      <rect
         transform="matrix(0,1,-1,0,0,0)"
         y="-211.05"
         x="469.16199"
         height="120.28635"
         width="5.04"
         id="rect3914"
         style="color:#000000;fill:#ff9955;fill-opacity:1;fill-rule:nonzero;stroke:none;stroke-width:5.94000006;marker:none;visibility:visible;display:inline;overflow:visible;enable-background:accumulate" />
      <rect
         style="color:#000000;fill:#ff9955;fill-opacity:1;fill-rule:nonzero;stroke:none;stroke-width:5.94000006;marker:none;visibility:visible;display:inline;overflow:visible;enable-background:accumulate"
         id="rect3916"
         width="5.04"
         height="120.28635"
         x="777.32202"
         y="-211.05"
         transform="matrix(0,1,-1,0,0,0)" />
    </g>
    <g
       id="g3854"
       transform="translate(-571.12533,226.31234)">
      <path
         transform="matrix(0.386,0,0,0.386,442.08,425.512)"
         d="M 763.57106,250.15576 720,275.31153 l -43.57106,-25.15577 0,-50.31152 L 720,174.68847 l 43.57106,25.15577 z"
         inkscape:randomized="0"
         inkscape:rounded="0"
         inkscape:flatsided="true"
         sodipodi:arg2="1.0471976"
         sodipodi:arg1="0.52359878"
         sodipodi:r2="43.571064"
         sodipodi:r1="50.311527"
         sodipodi:cy="225"
         sodipodi:cx="720"
         sodipodi:sides="6"
         id="path3802"
         style="color:#000000;fill:#ff9955;fill-opacity:1;fill-rule:nonzero;stroke:none;stroke-width:5.94000006;marker:none;visibility:visible;display:inline;overflow:visible;enable-background:accumulate"
         sodipodi:type="star" />
      <path
         sodipodi:type="arc"
         style="color:#000000;fill:#de8787;stroke:none;stroke-width:4.5;marker:none;visibility:visible;display:inline;overflow:visible;enable-background:accumulate"
         id="path2987-3"
         sodipodi:cx="360"
         sodipodi:cy="180"
         sodipodi:rx="22.5"
         sodipodi:ry="22.5"
         d="m 382.5,180 c 0,12.42641 -10.07359,22.5 -22.5,22.5 -12.42641,0 -22.5,-10.07359 -22.5,-22.5 0,-12.42641 10.07359,-22.5 22.5,-22.5 12.42641,0 22.5,10.07359 22.5,22.5 z"
         transform="matrix(0.534,0,0,0.534,527.76,416.242)" />
      <g
         transform="matrix(0.5,0,0,0.5,393.75,222.431)"
         id="g3826">
        <path
           style="fill:none;stroke:#000000;stroke-width:1px;stroke-linecap:butt;stroke-linejoin:miter;stroke-opacity:1"
           d="m 630,292.5 45,0"
           id="path3822"
           inkscape:connector-curvature="0"
           transform="translate(0,287.362)" />
        <path
           style="fill:none;stroke:#000000;stroke-width:1px;stroke-linecap:butt;stroke-linejoin:miter;stroke-opacity:1"
           d="m 652.5,270 0,45"
           id="path3824"
           inkscape:connector-curvature="0"
           transform="translate(0,287.362)" />
      </g>
    </g>
    <g
       transform="matrix(-1,0,0,1,600.78798,71.828682)"
       id="g3929">
      <path
         transform="matrix(1.32,0,0,1.32,-47.7,297.262)"
         d="m 382.5,180 c 0,12.42641 -10.07359,22.5 -22.5,22.5 -12.42641,0 -22.5,-10.07359 -22.5,-22.5 0,-12.42641 10.07359,-22.5 22.5,-22.5 12.42641,0 22.5,10.07359 22.5,22.5 z"
         sodipodi:ry="22.5"
         sodipodi:rx="22.5"
         sodipodi:cy="180"
         sodipodi:cx="360"
         id="path3931"
         style="color:#000000;fill:#ff9955;stroke:none;stroke-width:4.5;marker:none;visibility:visible;display:inline;overflow:visible;enable-background:accumulate"
         sodipodi:type="arc" />
      <path
         sodipodi:type="arc"
         style="color:#000000;fill:#de8787;stroke:none;stroke-width:4.5;marker:none;visibility:visible;display:inline;overflow:visible;enable-background:accumulate"
         id="path3933"
         sodipodi:cx="360"
         sodipodi:cy="180"
         sodipodi:rx="22.5"
         sodipodi:ry="22.5"
         d="m 382.5,180 c 0,12.42641 -10.07359,22.5 -22.5,22.5 -12.42641,0 -22.5,-10.07359 -22.5,-22.5 0,-12.42641 10.07359,-22.5 22.5,-22.5 12.42641,0 22.5,10.07359 22.5,22.5 z"
         transform="matrix(0.534,0,0,0.534,235.26,438.742)" />
      <path
         sodipodi:type="arc"
         style="color:#000000;fill:none;stroke:#aa4400;stroke-width:0.21226415;stroke-miterlimit:4;stroke-dasharray:none;marker:none;visibility:visible;display:inline;overflow:visible;enable-background:accumulate"
         id="path3935"
         sodipodi:cx="360"
         sodipodi:cy="180"
         sodipodi:rx="22.5"
         sodipodi:ry="22.5"
         d="m 382.5,180 c 0,12.42641 -10.07359,22.5 -22.5,22.5 -12.42641,0 -22.5,-10.07359 -22.5,-22.5 0,-12.42641 10.07359,-22.5 22.5,-22.5 12.42641,0 22.5,10.07359 22.5,22.5 z"
         transform="matrix(2.12,0,0,2.12,-335.7,153.262)" />
      <path
         inkscape:transform-center-x="-37.687545"
         style="color:#000000;fill:#ff9955;fill-opacity:1;fill-rule:nonzero;stroke:none;stroke-width:5.94000006;marker:none;visibility:visible;display:inline;overflow:visible;enable-background:accumulate"
         d="m 475.25498,535.13434 -4.10711,-4.9085 -8.01388,-0.10017 -8.01388,3.30573 0.20035,3.60624 7.81353,2.50434 8.41457,-0.10018 3.70642,-4.30746"
         id="path3937"
         inkscape:connector-curvature="0"
         sodipodi:nodetypes="cccccccc" />
      <path
         inkscape:transform-center-y="-18.90812"
         sodipodi:nodetypes="cccccccc"
         inkscape:connector-curvature="0"
         id="path3939"
         d="m 469.00728,511.21659 -6.01111,-2.19733 -6.99031,3.92019 -5.28736,6.86978 1.97663,3.02292 8.01889,-1.73794 7.23714,-4.29404 1.05612,-5.58358"
         style="color:#000000;fill:#ff9955;fill-opacity:1;fill-rule:nonzero;stroke:none;stroke-width:5.94000006;marker:none;visibility:visible;display:inline;overflow:visible;enable-background:accumulate"
         inkscape:transform-center-x="-32.36289" />
      <path
         inkscape:transform-center-y="19.30521"
         sodipodi:nodetypes="cccccccc"
         inkscape:connector-curvature="0"
         id="path3941"
         d="m 468.70677,558.97157 -1.10261,-6.30444 -6.89014,-4.09369 -8.59309,-1.1441 -1.62961,3.22327 5.51454,6.07559 7.33732,4.12053 5.36359,-1.87716"
         style="color:#000000;fill:#ff9955;fill-opacity:1;fill-rule:nonzero;stroke:none;stroke-width:5.94000006;marker:none;visibility:visible;display:inline;overflow:visible;enable-background:accumulate"
         inkscape:transform-center-x="-32.099045" />
      <path
         inkscape:connector-curvature="0"
         id="path3943"
         d="m 416.25,534.862 22.5,0"
         style="fill:none;stroke:#000000;stroke-width:0.5px;stroke-linecap:butt;stroke-linejoin:miter;stroke-opacity:1" />
      <path
         inkscape:connector-curvature="0"
         id="path3945"
         d="m 427.5,523.612 0,22.5"
         style="fill:none;stroke:#000000;stroke-width:0.5px;stroke-linecap:butt;stroke-linejoin:miter;stroke-opacity:1" />
    </g>
    <g
       id="g3984">
      <g
         transform="translate(-298.83151,-4.9430761)"
         id="g3844">
        <path
           transform="matrix(1.32,0,0,1.32,-47.7,297.262)"
           d="m 382.5,180 c 0,12.42641 -10.07359,22.5 -22.5,22.5 -12.42641,0 -22.5,-10.07359 -22.5,-22.5 0,-12.42641 10.07359,-22.5 22.5,-22.5 12.42641,0 22.5,10.07359 22.5,22.5 z"
           sodipodi:ry="22.5"
           sodipodi:rx="22.5"
           sodipodi:cy="180"
           sodipodi:cx="360"
           id="path2989"
           style="color:#000000;fill:#ff9955;stroke:none;stroke-width:4.5;marker:none;visibility:visible;display:inline;overflow:visible;enable-background:accumulate"
           sodipodi:type="arc" />
        <path
           sodipodi:type="arc"
           style="color:#000000;fill:#de8787;stroke:none;stroke-width:4.5;marker:none;visibility:visible;display:inline;overflow:visible;enable-background:accumulate"
           id="path2987"
           sodipodi:cx="360"
           sodipodi:cy="180"
           sodipodi:rx="22.5"
           sodipodi:ry="22.5"
           d="m 382.5,180 c 0,12.42641 -10.07359,22.5 -22.5,22.5 -12.42641,0 -22.5,-10.07359 -22.5,-22.5 0,-12.42641 10.07359,-22.5 22.5,-22.5 12.42641,0 22.5,10.07359 22.5,22.5 z"
           transform="matrix(0.534,0,0,0.534,235.26,438.742)" />
        <path
           sodipodi:type="arc"
           style="color:#000000;fill:none;stroke:#aa4400;stroke-width:0.21226415;stroke-miterlimit:4;stroke-dasharray:none;marker:none;visibility:visible;display:inline;overflow:visible;enable-background:accumulate"
           id="path2991"
           sodipodi:cx="360"
           sodipodi:cy="180"
           sodipodi:rx="22.5"
           sodipodi:ry="22.5"
           d="m 382.5,180 c 0,12.42641 -10.07359,22.5 -22.5,22.5 -12.42641,0 -22.5,-10.07359 -22.5,-22.5 0,-12.42641 10.07359,-22.5 22.5,-22.5 12.42641,0 22.5,10.07359 22.5,22.5 z"
           transform="matrix(2.12,0,0,2.12,-335.7,153.262)" />
        <path
           inkscape:transform-center-x="-37.687545"
           style="color:#000000;fill:#ff9955;fill-opacity:1;fill-rule:nonzero;stroke:none;stroke-width:5.94000006;marker:none;visibility:visible;display:inline;overflow:visible;enable-background:accumulate"
           d="m 475.25498,535.13434 -4.10711,-4.9085 -8.01388,-0.10017 -8.01388,3.30573 0.20035,3.60624 7.81353,2.50434 8.41457,-0.10018 3.70642,-4.30746"
           id="path3761"
           inkscape:connector-curvature="0"
           sodipodi:nodetypes="cccccccc" />
        <path
           inkscape:transform-center-y="-18.90812"
           sodipodi:nodetypes="cccccccc"
           inkscape:connector-curvature="0"
           id="path3796"
           d="m 469.00728,511.21659 -6.01111,-2.19733 -6.99031,3.92019 -5.28736,6.86978 1.97663,3.02292 8.01889,-1.73794 7.23714,-4.29404 1.05612,-5.58358"
           style="color:#000000;fill:#ff9955;fill-opacity:1;fill-rule:nonzero;stroke:none;stroke-width:5.94000006;marker:none;visibility:visible;display:inline;overflow:visible;enable-background:accumulate"
           inkscape:transform-center-x="-32.36289" />
        <path
           inkscape:transform-center-y="19.30521"
           sodipodi:nodetypes="cccccccc"
           inkscape:connector-curvature="0"
           id="path3798"
           d="m 468.70677,558.97157 -1.10261,-6.30444 -6.89014,-4.09369 -8.59309,-1.1441 -1.62961,3.22327 5.51454,6.07559 7.33732,4.12053 5.36359,-1.87716"
           style="color:#000000;fill:#ff9955;fill-opacity:1;fill-rule:nonzero;stroke:none;stroke-width:5.94000006;marker:none;visibility:visible;display:inline;overflow:visible;enable-background:accumulate"
           inkscape:transform-center-x="-32.099045" />
        <path
           inkscape:connector-curvature="0"
           id="path3832"
           d="m 416.25,534.862 22.5,0"
           style="fill:none;stroke:#000000;stroke-width:0.5px;stroke-linecap:butt;stroke-linejoin:miter;stroke-opacity:1" />
        <path
           inkscape:connector-curvature="0"
           id="path3834"
           d="m 427.5,523.612 0,22.5"
           style="fill:none;stroke:#000000;stroke-width:0.5px;stroke-linecap:butt;stroke-linejoin:miter;stroke-opacity:1" />
      </g>
      <g
         transform="translate(-298.83151,148.60044)"
         id="g3947">
        <path
           transform="matrix(1.32,0,0,1.32,-47.7,297.262)"
           d="m 382.5,180 c 0,12.42641 -10.07359,22.5 -22.5,22.5 -12.42641,0 -22.5,-10.07359 -22.5,-22.5 0,-12.42641 10.07359,-22.5 22.5,-22.5 12.42641,0 22.5,10.07359 22.5,22.5 z"
           sodipodi:ry="22.5"
           sodipodi:rx="22.5"
           sodipodi:cy="180"
           sodipodi:cx="360"
           id="path3949"
           style="color:#000000;fill:#ff9955;stroke:none;stroke-width:4.5;marker:none;visibility:visible;display:inline;overflow:visible;enable-background:accumulate"
           sodipodi:type="arc" />
        <path
           sodipodi:type="arc"
           style="color:#000000;fill:#de8787;stroke:none;stroke-width:4.5;marker:none;visibility:visible;display:inline;overflow:visible;enable-background:accumulate"
           id="path3951"
           sodipodi:cx="360"
           sodipodi:cy="180"
           sodipodi:rx="22.5"
           sodipodi:ry="22.5"
           d="m 382.5,180 c 0,12.42641 -10.07359,22.5 -22.5,22.5 -12.42641,0 -22.5,-10.07359 -22.5,-22.5 0,-12.42641 10.07359,-22.5 22.5,-22.5 12.42641,0 22.5,10.07359 22.5,22.5 z"
           transform="matrix(0.534,0,0,0.534,235.26,438.742)" />
        <path
           sodipodi:type="arc"
           style="color:#000000;fill:none;stroke:#aa4400;stroke-width:0.21226415;stroke-miterlimit:4;stroke-dasharray:none;marker:none;visibility:visible;display:inline;overflow:visible;enable-background:accumulate"
           id="path3953"
           sodipodi:cx="360"
           sodipodi:cy="180"
           sodipodi:rx="22.5"
           sodipodi:ry="22.5"
           d="m 382.5,180 c 0,12.42641 -10.07359,22.5 -22.5,22.5 -12.42641,0 -22.5,-10.07359 -22.5,-22.5 0,-12.42641 10.07359,-22.5 22.5,-22.5 12.42641,0 22.5,10.07359 22.5,22.5 z"
           transform="matrix(2.12,0,0,2.12,-335.7,153.262)" />
        <path
           inkscape:transform-center-x="-37.687545"
           style="color:#000000;fill:#ff9955;fill-opacity:1;fill-rule:nonzero;stroke:none;stroke-width:5.94000006;marker:none;visibility:visible;display:inline;overflow:visible;enable-background:accumulate"
           d="m 475.25498,535.13434 -4.10711,-4.9085 -8.01388,-0.10017 -8.01388,3.30573 0.20035,3.60624 7.81353,2.50434 8.41457,-0.10018 3.70642,-4.30746"
           id="path3955"
           inkscape:connector-curvature="0"
           sodipodi:nodetypes="cccccccc" />
        <path
           inkscape:transform-center-y="-18.90812"
           sodipodi:nodetypes="cccccccc"
           inkscape:connector-curvature="0"
           id="path3957"
           d="m 469.00728,511.21659 -6.01111,-2.19733 -6.99031,3.92019 -5.28736,6.86978 1.97663,3.02292 8.01889,-1.73794 7.23714,-4.29404 1.05612,-5.58358"
           style="color:#000000;fill:#ff9955;fill-opacity:1;fill-rule:nonzero;stroke:none;stroke-width:5.94000006;marker:none;visibility:visible;display:inline;overflow:visible;enable-background:accumulate"
           inkscape:transform-center-x="-32.36289" />
        <path
           inkscape:transform-center-y="19.30521"
           sodipodi:nodetypes="cccccccc"
           inkscape:connector-curvature="0"
           id="path3959"
           d="m 468.70677,558.97157 -1.10261,-6.30444 -6.89014,-4.09369 -8.59309,-1.1441 -1.62961,3.22327 5.51454,6.07559 7.33732,4.12053 5.36359,-1.87716"
           style="color:#000000;fill:#ff9955;fill-opacity:1;fill-rule:nonzero;stroke:none;stroke-width:5.94000006;marker:none;visibility:visible;display:inline;overflow:visible;enable-background:accumulate"
           inkscape:transform-center-x="-32.099045" />
        <path
           inkscape:connector-curvature="0"
           id="path3961"
           d="m 416.25,534.862 22.5,0"
           style="fill:none;stroke:#000000;stroke-width:0.5px;stroke-linecap:butt;stroke-linejoin:miter;stroke-opacity:1" />
        <path
           inkscape:connector-curvature="0"
           id="path3963"
           d="m 427.5,523.612 0,22.5"
           style="fill:none;stroke:#000000;stroke-width:0.5px;stroke-linecap:butt;stroke-linejoin:miter;stroke-opacity:1" />
      </g>
    </g>
  </g>
</svg>
