G75*
G70*
%OFA0B0*%
%FSLAX24Y24*%
%IPPOS*%
%LPD*%
%AMOC8*
5,1,8,0,0,1.08239X$1,22.5*
%
%ADD10C,0.0520*%
%ADD11OC8,0.0520*%
%ADD12OC8,0.0600*%
%ADD13C,0.0594*%
%ADD14C,0.0591*%
%ADD15OC8,0.0630*%
%ADD16C,0.0515*%
%ADD17C,0.0120*%
%ADD18C,0.0160*%
%ADD19C,0.0080*%
%ADD20C,0.0400*%
%ADD21C,0.0060*%
D10*
X009841Y003601D02*
X010361Y003601D01*
X010361Y004601D02*
X009841Y004601D01*
X009841Y005601D02*
X010361Y005601D01*
X010361Y006601D02*
X009841Y006601D01*
X009841Y007601D02*
X010361Y007601D01*
X010361Y008601D02*
X009841Y008601D01*
X009841Y009601D02*
X010361Y009601D01*
X012841Y009601D02*
X013361Y009601D01*
X014841Y010101D02*
X015361Y010101D01*
X015361Y009101D02*
X014841Y009101D01*
X013361Y008601D02*
X012841Y008601D01*
X012841Y007601D02*
X013361Y007601D01*
X014841Y008101D02*
X015361Y008101D01*
X015361Y007101D02*
X014841Y007101D01*
X013361Y006601D02*
X012841Y006601D01*
X012841Y005601D02*
X013361Y005601D01*
X014841Y006101D02*
X015361Y006101D01*
X015361Y005101D02*
X014841Y005101D01*
X013361Y004601D02*
X012841Y004601D01*
X014841Y004101D02*
X015361Y004101D01*
X013361Y003601D02*
X012841Y003601D01*
X014841Y003101D02*
X015361Y003101D01*
X017841Y003101D02*
X018361Y003101D01*
X019841Y003101D02*
X020361Y003101D01*
X020361Y004101D02*
X019841Y004101D01*
X018361Y004101D02*
X017841Y004101D01*
X017841Y005101D02*
X018361Y005101D01*
X019841Y005101D02*
X020361Y005101D01*
X020361Y006101D02*
X019841Y006101D01*
X018361Y006101D02*
X017841Y006101D01*
X017841Y007101D02*
X018361Y007101D01*
X019841Y007101D02*
X020361Y007101D01*
X020361Y008101D02*
X019841Y008101D01*
X018361Y008101D02*
X017841Y008101D01*
X017841Y009101D02*
X018361Y009101D01*
X019841Y009101D02*
X020361Y009101D01*
X020361Y010101D02*
X019841Y010101D01*
X018361Y010101D02*
X017841Y010101D01*
X017841Y012101D02*
X018361Y012101D01*
X019841Y012101D02*
X020361Y012101D01*
X020361Y013101D02*
X019841Y013101D01*
X018361Y013101D02*
X017841Y013101D01*
X017841Y014101D02*
X018361Y014101D01*
X019841Y014101D02*
X020361Y014101D01*
X020361Y015101D02*
X019841Y015101D01*
X018361Y015101D02*
X017841Y015101D01*
X017841Y016101D02*
X018361Y016101D01*
X019841Y016101D02*
X020361Y016101D01*
X020361Y017101D02*
X019841Y017101D01*
X018361Y017101D02*
X017841Y017101D01*
X017841Y018101D02*
X018361Y018101D01*
X019841Y018101D02*
X020361Y018101D01*
X020361Y019101D02*
X019841Y019101D01*
X018361Y019101D02*
X017841Y019101D01*
X017841Y020101D02*
X018361Y020101D01*
X019601Y020841D02*
X019601Y021361D01*
X020601Y021361D02*
X020601Y020841D01*
X021601Y020841D02*
X021601Y021361D01*
X022601Y021361D02*
X022601Y020841D01*
X023601Y020841D02*
X023601Y021361D01*
X024601Y021361D02*
X024601Y020841D01*
X025601Y020841D02*
X025601Y021361D01*
X026601Y021361D02*
X026601Y020841D01*
X027601Y020841D02*
X027601Y021361D01*
X028601Y021361D02*
X028601Y020841D01*
X029601Y020841D02*
X029601Y021361D01*
X030601Y021361D02*
X030601Y020841D01*
X031601Y020841D02*
X031601Y021361D01*
X032601Y021361D02*
X032601Y020841D01*
X033601Y020841D02*
X033601Y021361D01*
X034601Y021361D02*
X034601Y020841D01*
X035601Y020841D02*
X035601Y021361D01*
X036601Y021361D02*
X036601Y020841D01*
X037601Y020841D02*
X037601Y021361D01*
X038601Y021361D02*
X038601Y020841D01*
X039601Y020841D02*
X039601Y021361D01*
X040601Y021361D02*
X040601Y020841D01*
X041601Y020841D02*
X041601Y021361D01*
X042601Y021361D02*
X042601Y020841D01*
X043601Y020841D02*
X043601Y021361D01*
X044601Y021361D02*
X044601Y020841D01*
X045601Y020841D02*
X045601Y021361D01*
X046601Y021361D02*
X046601Y020841D01*
X047601Y020841D02*
X047601Y021361D01*
X048601Y021361D02*
X048601Y020841D01*
X049601Y020841D02*
X049601Y021361D01*
X050601Y021361D02*
X050601Y020841D01*
X051601Y020841D02*
X051601Y021361D01*
X052601Y021361D02*
X052601Y020841D01*
X053601Y020841D02*
X053601Y021361D01*
X054601Y021361D02*
X054601Y020841D01*
X055601Y020841D02*
X055601Y021361D01*
X056601Y021361D02*
X056601Y020841D01*
X057601Y020841D02*
X057601Y021361D01*
X058601Y021361D02*
X058601Y020841D01*
X058361Y019101D02*
X057841Y019101D01*
X057841Y018101D02*
X058361Y018101D01*
X058361Y017101D02*
X057841Y017101D01*
X057841Y016101D02*
X058361Y016101D01*
X058361Y015101D02*
X057841Y015101D01*
X057841Y014101D02*
X058361Y014101D01*
X058361Y013101D02*
X057841Y013101D01*
X057841Y012101D02*
X058361Y012101D01*
X055361Y012101D02*
X054841Y012101D01*
X053361Y012101D02*
X052841Y012101D01*
X052841Y013101D02*
X053361Y013101D01*
X054841Y013101D02*
X055361Y013101D01*
X055361Y014101D02*
X054841Y014101D01*
X053361Y014101D02*
X052841Y014101D01*
X052841Y015101D02*
X053361Y015101D01*
X054841Y015101D02*
X055361Y015101D01*
X055361Y016101D02*
X054841Y016101D01*
X053361Y016101D02*
X052841Y016101D01*
X052841Y017101D02*
X053361Y017101D01*
X054841Y017101D02*
X055361Y017101D01*
X055361Y018101D02*
X054841Y018101D01*
X053361Y018101D02*
X052841Y018101D01*
X052841Y019101D02*
X053361Y019101D01*
X054841Y019101D02*
X055361Y019101D01*
X050361Y019101D02*
X049841Y019101D01*
X048361Y019101D02*
X047841Y019101D01*
X047841Y018101D02*
X048361Y018101D01*
X049841Y018101D02*
X050361Y018101D01*
X050361Y017101D02*
X049841Y017101D01*
X048361Y017101D02*
X047841Y017101D01*
X047841Y016101D02*
X048361Y016101D01*
X049841Y016101D02*
X050361Y016101D01*
X050361Y015101D02*
X049841Y015101D01*
X048361Y015101D02*
X047841Y015101D01*
X047841Y014101D02*
X048361Y014101D01*
X049841Y014101D02*
X050361Y014101D01*
X050361Y013101D02*
X049841Y013101D01*
X048361Y013101D02*
X047841Y013101D01*
X047841Y012101D02*
X048361Y012101D01*
X049841Y012101D02*
X050361Y012101D01*
X050361Y010101D02*
X049841Y010101D01*
X048361Y010101D02*
X047841Y010101D01*
X047841Y009101D02*
X048361Y009101D01*
X049841Y009101D02*
X050361Y009101D01*
X050361Y008101D02*
X049841Y008101D01*
X048361Y008101D02*
X047841Y008101D01*
X047841Y007101D02*
X048361Y007101D01*
X049841Y007101D02*
X050361Y007101D01*
X050361Y006101D02*
X049841Y006101D01*
X048361Y006101D02*
X047841Y006101D01*
X047841Y005101D02*
X048361Y005101D01*
X049841Y005101D02*
X050361Y005101D01*
X050361Y004101D02*
X049841Y004101D01*
X048361Y004101D02*
X047841Y004101D01*
X047841Y003101D02*
X048361Y003101D01*
X049841Y003101D02*
X050361Y003101D01*
X052841Y003101D02*
X053361Y003101D01*
X054841Y003101D02*
X055361Y003101D01*
X055361Y004101D02*
X054841Y004101D01*
X053361Y004101D02*
X052841Y004101D01*
X052841Y005101D02*
X053361Y005101D01*
X054841Y005101D02*
X055361Y005101D01*
X055361Y006101D02*
X054841Y006101D01*
X053361Y006101D02*
X052841Y006101D01*
X052841Y007101D02*
X053361Y007101D01*
X054841Y007101D02*
X055361Y007101D01*
X055361Y008101D02*
X054841Y008101D01*
X053361Y008101D02*
X052841Y008101D01*
X052841Y009101D02*
X053361Y009101D01*
X054841Y009101D02*
X055361Y009101D01*
X055361Y010101D02*
X054841Y010101D01*
X053361Y010101D02*
X052841Y010101D01*
X057841Y010101D02*
X058361Y010101D01*
X058361Y009101D02*
X057841Y009101D01*
X057841Y008101D02*
X058361Y008101D01*
X058361Y007101D02*
X057841Y007101D01*
X057841Y006101D02*
X058361Y006101D01*
X058361Y005101D02*
X057841Y005101D01*
X057841Y004101D02*
X058361Y004101D01*
X058361Y003101D02*
X057841Y003101D01*
X045361Y003101D02*
X044841Y003101D01*
X043361Y003101D02*
X042841Y003101D01*
X042841Y004101D02*
X043361Y004101D01*
X044841Y004101D02*
X045361Y004101D01*
X045361Y005101D02*
X044841Y005101D01*
X043361Y005101D02*
X042841Y005101D01*
X042841Y006101D02*
X043361Y006101D01*
X044841Y006101D02*
X045361Y006101D01*
X045361Y007101D02*
X044841Y007101D01*
X043361Y007101D02*
X042841Y007101D01*
X042841Y008101D02*
X043361Y008101D01*
X044841Y008101D02*
X045361Y008101D01*
X045361Y009101D02*
X044841Y009101D01*
X043361Y009101D02*
X042841Y009101D01*
X042841Y010101D02*
X043361Y010101D01*
X044841Y010101D02*
X045361Y010101D01*
X045361Y012101D02*
X044841Y012101D01*
X043361Y012101D02*
X042841Y012101D01*
X042841Y013101D02*
X043361Y013101D01*
X044841Y013101D02*
X045361Y013101D01*
X045361Y014101D02*
X044841Y014101D01*
X043361Y014101D02*
X042841Y014101D01*
X042841Y015101D02*
X043361Y015101D01*
X044841Y015101D02*
X045361Y015101D01*
X045361Y016101D02*
X044841Y016101D01*
X043361Y016101D02*
X042841Y016101D01*
X042841Y017101D02*
X043361Y017101D01*
X044841Y017101D02*
X045361Y017101D01*
X045361Y018101D02*
X044841Y018101D01*
X043361Y018101D02*
X042841Y018101D01*
X042841Y019101D02*
X043361Y019101D01*
X044841Y019101D02*
X045361Y019101D01*
X040361Y019101D02*
X039841Y019101D01*
X038361Y019101D02*
X037841Y019101D01*
X037841Y018101D02*
X038361Y018101D01*
X039841Y018101D02*
X040361Y018101D01*
X040361Y017101D02*
X039841Y017101D01*
X038361Y017101D02*
X037841Y017101D01*
X037841Y016101D02*
X038361Y016101D01*
X039841Y016101D02*
X040361Y016101D01*
X040361Y015101D02*
X039841Y015101D01*
X038361Y015101D02*
X037841Y015101D01*
X037841Y014101D02*
X038361Y014101D01*
X039841Y014101D02*
X040361Y014101D01*
X040361Y013101D02*
X039841Y013101D01*
X038361Y013101D02*
X037841Y013101D01*
X037841Y012101D02*
X038361Y012101D01*
X039841Y012101D02*
X040361Y012101D01*
X040361Y010101D02*
X039841Y010101D01*
X038361Y010101D02*
X037841Y010101D01*
X037841Y009101D02*
X038361Y009101D01*
X039841Y009101D02*
X040361Y009101D01*
X040361Y008101D02*
X039841Y008101D01*
X038361Y008101D02*
X037841Y008101D01*
X037841Y007101D02*
X038361Y007101D01*
X039841Y007101D02*
X040361Y007101D01*
X040361Y006101D02*
X039841Y006101D01*
X038361Y006101D02*
X037841Y006101D01*
X037841Y005101D02*
X038361Y005101D01*
X039841Y005101D02*
X040361Y005101D01*
X040361Y004101D02*
X039841Y004101D01*
X038361Y004101D02*
X037841Y004101D01*
X037841Y003101D02*
X038361Y003101D01*
X039841Y003101D02*
X040361Y003101D01*
X035361Y003101D02*
X034841Y003101D01*
X033361Y003101D02*
X032841Y003101D01*
X032841Y004101D02*
X033361Y004101D01*
X034841Y004101D02*
X035361Y004101D01*
X035361Y005101D02*
X034841Y005101D01*
X033361Y005101D02*
X032841Y005101D01*
X032841Y006101D02*
X033361Y006101D01*
X034841Y006101D02*
X035361Y006101D01*
X035361Y007101D02*
X034841Y007101D01*
X033361Y007101D02*
X032841Y007101D01*
X032841Y008101D02*
X033361Y008101D01*
X034841Y008101D02*
X035361Y008101D01*
X035361Y009101D02*
X034841Y009101D01*
X033361Y009101D02*
X032841Y009101D01*
X032841Y010101D02*
X033361Y010101D01*
X034841Y010101D02*
X035361Y010101D01*
X035361Y012101D02*
X034841Y012101D01*
X033361Y012101D02*
X032841Y012101D01*
X032841Y013101D02*
X033361Y013101D01*
X034841Y013101D02*
X035361Y013101D01*
X035361Y014101D02*
X034841Y014101D01*
X033361Y014101D02*
X032841Y014101D01*
X032841Y015101D02*
X033361Y015101D01*
X034841Y015101D02*
X035361Y015101D01*
X035361Y016101D02*
X034841Y016101D01*
X033361Y016101D02*
X032841Y016101D01*
X032841Y017101D02*
X033361Y017101D01*
X034841Y017101D02*
X035361Y017101D01*
X035361Y018101D02*
X034841Y018101D01*
X033361Y018101D02*
X032841Y018101D01*
X032841Y019101D02*
X033361Y019101D01*
X034841Y019101D02*
X035361Y019101D01*
X030361Y019101D02*
X029841Y019101D01*
X028361Y019101D02*
X027841Y019101D01*
X027841Y018101D02*
X028361Y018101D01*
X029841Y018101D02*
X030361Y018101D01*
X030361Y017101D02*
X029841Y017101D01*
X028361Y017101D02*
X027841Y017101D01*
X027841Y016101D02*
X028361Y016101D01*
X029841Y016101D02*
X030361Y016101D01*
X030361Y015101D02*
X029841Y015101D01*
X028361Y015101D02*
X027841Y015101D01*
X027841Y014101D02*
X028361Y014101D01*
X029841Y014101D02*
X030361Y014101D01*
X030361Y013101D02*
X029841Y013101D01*
X028361Y013101D02*
X027841Y013101D01*
X027841Y012101D02*
X028361Y012101D01*
X029841Y012101D02*
X030361Y012101D01*
X030361Y010101D02*
X029841Y010101D01*
X028361Y010101D02*
X027841Y010101D01*
X027841Y009101D02*
X028361Y009101D01*
X029841Y009101D02*
X030361Y009101D01*
X030361Y008101D02*
X029841Y008101D01*
X028361Y008101D02*
X027841Y008101D01*
X027841Y007101D02*
X028361Y007101D01*
X029841Y007101D02*
X030361Y007101D01*
X030361Y006101D02*
X029841Y006101D01*
X028361Y006101D02*
X027841Y006101D01*
X027841Y005101D02*
X028361Y005101D01*
X029841Y005101D02*
X030361Y005101D01*
X030361Y004101D02*
X029841Y004101D01*
X028361Y004101D02*
X027841Y004101D01*
X027841Y003101D02*
X028361Y003101D01*
X029841Y003101D02*
X030361Y003101D01*
X025361Y003101D02*
X024841Y003101D01*
X023361Y003101D02*
X022841Y003101D01*
X022841Y004101D02*
X023361Y004101D01*
X024841Y004101D02*
X025361Y004101D01*
X025361Y005101D02*
X024841Y005101D01*
X023361Y005101D02*
X022841Y005101D01*
X022841Y006101D02*
X023361Y006101D01*
X024841Y006101D02*
X025361Y006101D01*
X025361Y007101D02*
X024841Y007101D01*
X023361Y007101D02*
X022841Y007101D01*
X022841Y008101D02*
X023361Y008101D01*
X024841Y008101D02*
X025361Y008101D01*
X025361Y009101D02*
X024841Y009101D01*
X023361Y009101D02*
X022841Y009101D01*
X022841Y010101D02*
X023361Y010101D01*
X024841Y010101D02*
X025361Y010101D01*
X025361Y012101D02*
X024841Y012101D01*
X023361Y012101D02*
X022841Y012101D01*
X022841Y013101D02*
X023361Y013101D01*
X024841Y013101D02*
X025361Y013101D01*
X025361Y014101D02*
X024841Y014101D01*
X023361Y014101D02*
X022841Y014101D01*
X022841Y015101D02*
X023361Y015101D01*
X024841Y015101D02*
X025361Y015101D01*
X025361Y016101D02*
X024841Y016101D01*
X023361Y016101D02*
X022841Y016101D01*
X022841Y017101D02*
X023361Y017101D01*
X024841Y017101D02*
X025361Y017101D01*
X025361Y018101D02*
X024841Y018101D01*
X023361Y018101D02*
X022841Y018101D01*
X022841Y019101D02*
X023361Y019101D01*
X024841Y019101D02*
X025361Y019101D01*
X018361Y021101D02*
X017841Y021101D01*
X017841Y022101D02*
X018361Y022101D01*
X018361Y023101D02*
X017841Y023101D01*
X017841Y024101D02*
X018361Y024101D01*
X018361Y025101D02*
X017841Y025101D01*
X015361Y025101D02*
X014841Y025101D01*
X014841Y024101D02*
X015361Y024101D01*
X015361Y023101D02*
X014841Y023101D01*
X014841Y022101D02*
X015361Y022101D01*
X015361Y021101D02*
X014841Y021101D01*
X014841Y020101D02*
X015361Y020101D01*
X015361Y019101D02*
X014841Y019101D01*
X013361Y019101D02*
X012841Y019101D01*
X012841Y018101D02*
X013361Y018101D01*
X014841Y018101D02*
X015361Y018101D01*
X015361Y017101D02*
X014841Y017101D01*
X013361Y017101D02*
X012841Y017101D01*
X012841Y016101D02*
X013361Y016101D01*
X014841Y016101D02*
X015361Y016101D01*
X015361Y015101D02*
X014841Y015101D01*
X013361Y015101D02*
X012841Y015101D01*
X012841Y014101D02*
X013361Y014101D01*
X014841Y014101D02*
X015361Y014101D01*
X015361Y013101D02*
X014841Y013101D01*
X013361Y013101D02*
X012841Y013101D01*
X012841Y012101D02*
X013361Y012101D01*
X014841Y012101D02*
X015361Y012101D01*
X010361Y012101D02*
X009841Y012101D01*
X009841Y013101D02*
X010361Y013101D01*
X008861Y013101D02*
X008341Y013101D01*
X008341Y014101D02*
X008861Y014101D01*
X009841Y014101D02*
X010361Y014101D01*
X010361Y015101D02*
X009841Y015101D01*
X008861Y015101D02*
X008341Y015101D01*
X008341Y016101D02*
X008861Y016101D01*
X009841Y016101D02*
X010361Y016101D01*
X010361Y017101D02*
X009841Y017101D01*
X008861Y017101D02*
X008341Y017101D01*
X008341Y018101D02*
X008861Y018101D01*
X009841Y018101D02*
X010361Y018101D01*
X010361Y019101D02*
X009841Y019101D01*
X008861Y019101D02*
X008341Y019101D01*
X008341Y020101D02*
X008861Y020101D01*
X005861Y020101D02*
X005341Y020101D01*
X005341Y019101D02*
X005861Y019101D01*
X005861Y018101D02*
X005341Y018101D01*
X005341Y017101D02*
X005861Y017101D01*
X005861Y016101D02*
X005341Y016101D01*
X005341Y015101D02*
X005861Y015101D01*
X005861Y014101D02*
X005341Y014101D01*
X005341Y013101D02*
X005861Y013101D01*
X019601Y026841D02*
X019601Y027361D01*
X020601Y027361D02*
X020601Y026841D01*
X021601Y026841D02*
X021601Y027361D01*
X022601Y027361D02*
X022601Y026841D01*
X023601Y026841D02*
X023601Y027361D01*
X024601Y027361D02*
X024601Y026841D01*
X025601Y026841D02*
X025601Y027361D01*
X026601Y027361D02*
X026601Y026841D01*
X027601Y026841D02*
X027601Y027361D01*
X028601Y027361D02*
X028601Y026841D01*
X029601Y026841D02*
X029601Y027361D01*
X030601Y027361D02*
X030601Y026841D01*
X031601Y026841D02*
X031601Y027361D01*
X032601Y027361D02*
X032601Y026841D01*
X033601Y026841D02*
X033601Y027361D01*
X034601Y027361D02*
X034601Y026841D01*
X035601Y026841D02*
X035601Y027361D01*
X036601Y027361D02*
X036601Y026841D01*
X037601Y026841D02*
X037601Y027361D01*
X038601Y027361D02*
X038601Y026841D01*
X039601Y026841D02*
X039601Y027361D01*
X040601Y027361D02*
X040601Y026841D01*
X041601Y026841D02*
X041601Y027361D01*
X042601Y027361D02*
X042601Y026841D01*
X043601Y026841D02*
X043601Y027361D01*
X044601Y027361D02*
X044601Y026841D01*
X045601Y026841D02*
X045601Y027361D01*
X046601Y027361D02*
X046601Y026841D01*
X047601Y026841D02*
X047601Y027361D01*
X048601Y027361D02*
X048601Y026841D01*
X049601Y026841D02*
X049601Y027361D01*
X050601Y027361D02*
X050601Y026841D01*
X051601Y026841D02*
X051601Y027361D01*
X052601Y027361D02*
X052601Y026841D01*
X053601Y026841D02*
X053601Y027361D01*
X054601Y027361D02*
X054601Y026841D01*
X055601Y026841D02*
X055601Y027361D01*
X056601Y027361D02*
X056601Y026841D01*
X057601Y026841D02*
X057601Y027361D01*
X058601Y027361D02*
X058601Y026841D01*
D11*
X006601Y003601D03*
X008601Y003601D03*
X008601Y004601D03*
X008601Y005601D03*
X008601Y006601D03*
X006601Y006601D03*
X006601Y005601D03*
X006601Y004601D03*
X011101Y021101D03*
X013101Y021101D03*
D12*
X013101Y023601D03*
X012101Y023601D03*
X011101Y023601D03*
X011101Y024601D03*
X012101Y024601D03*
X013101Y024601D03*
X008601Y024601D03*
X007601Y024601D03*
X006601Y024601D03*
X005601Y024601D03*
X004601Y024601D03*
X003601Y024601D03*
X002601Y024601D03*
X001601Y024601D03*
X001601Y023601D03*
X002601Y023601D03*
X003601Y023601D03*
X004601Y023601D03*
X005601Y023601D03*
X006601Y023601D03*
X007601Y023601D03*
X008601Y023601D03*
D13*
X002601Y019398D02*
X002601Y018804D01*
X001601Y018804D02*
X001601Y019398D01*
X001601Y015898D02*
X001601Y015304D01*
X002601Y015304D02*
X002601Y015898D01*
X003601Y015898D02*
X003601Y015304D01*
X003601Y012398D02*
X003601Y011804D01*
X002601Y011804D02*
X002601Y012398D01*
X001601Y012398D02*
X001601Y011804D01*
X001601Y008898D02*
X001601Y008304D01*
X002601Y008304D02*
X002601Y008898D01*
X003601Y008898D02*
X003601Y008304D01*
X004601Y008304D02*
X004601Y008898D01*
X005601Y008898D02*
X005601Y008304D01*
X004601Y005398D02*
X004601Y004804D01*
X003601Y004804D02*
X003601Y005398D01*
X002601Y005398D02*
X002601Y004804D01*
X001601Y004804D02*
X001601Y005398D01*
D14*
X020101Y022101D03*
X020101Y023101D03*
X020101Y024101D03*
X020101Y025101D03*
X020101Y026101D03*
X023101Y026101D03*
X023101Y025101D03*
X023101Y024101D03*
X023101Y023101D03*
X023101Y022101D03*
X025101Y022101D03*
X025101Y023101D03*
X025101Y024101D03*
X025101Y025101D03*
X025101Y026101D03*
X028101Y026101D03*
X028101Y025101D03*
X028101Y024101D03*
X028101Y023101D03*
X028101Y022101D03*
X030101Y022101D03*
X030101Y023101D03*
X030101Y024101D03*
X030101Y025101D03*
X030101Y026101D03*
X033101Y026101D03*
X033101Y025101D03*
X035101Y025101D03*
X035101Y026101D03*
X038101Y026101D03*
X038101Y025101D03*
X040101Y025101D03*
X040101Y026101D03*
X043101Y026101D03*
X043101Y025101D03*
X045101Y025101D03*
X045101Y026101D03*
X048101Y026101D03*
X048101Y025101D03*
X050101Y025101D03*
X050101Y026101D03*
X053101Y026101D03*
X053101Y025101D03*
X055101Y025101D03*
X055101Y026101D03*
X058101Y026101D03*
X058101Y025101D03*
X058101Y024101D03*
X058101Y023101D03*
X058101Y022101D03*
X055101Y022101D03*
X055101Y023101D03*
X055101Y024101D03*
X053101Y024101D03*
X053101Y023101D03*
X053101Y022101D03*
X050101Y022101D03*
X050101Y023101D03*
X050101Y024101D03*
X048101Y024101D03*
X048101Y023101D03*
X048101Y022101D03*
X045101Y022101D03*
X045101Y023101D03*
X045101Y024101D03*
X043101Y024101D03*
X043101Y023101D03*
X043101Y022101D03*
X040101Y022101D03*
X040101Y023101D03*
X040101Y024101D03*
X038101Y024101D03*
X038101Y023101D03*
X038101Y022101D03*
X035101Y022101D03*
X035101Y023101D03*
X035101Y024101D03*
X033101Y024101D03*
X033101Y023101D03*
X033101Y022101D03*
D15*
X003601Y021601D03*
X001601Y021601D03*
X010101Y001601D03*
X012101Y001601D03*
X015101Y001601D03*
X017101Y001601D03*
X020101Y001601D03*
X022101Y001601D03*
X025101Y001601D03*
X027101Y001601D03*
X030101Y001601D03*
X032101Y001601D03*
X035101Y001601D03*
X037101Y001601D03*
X040101Y001601D03*
X042101Y001601D03*
X045101Y001601D03*
X047101Y001601D03*
X050101Y001601D03*
X052101Y001601D03*
X055101Y001601D03*
X057101Y001601D03*
D16*
X013601Y025851D03*
X010601Y025851D03*
X010601Y027851D03*
X013601Y027851D03*
D17*
X010661Y025781D02*
X010601Y025841D01*
X010601Y025851D01*
X010661Y025781D02*
X010661Y025181D01*
X003161Y025181D01*
X003161Y022061D01*
X003581Y021641D01*
X003601Y021601D01*
X003581Y021581D01*
X003581Y020081D01*
X002621Y019121D01*
X002601Y019101D01*
X002621Y019061D01*
X003581Y018101D01*
X003581Y015641D01*
X003601Y015601D01*
X003641Y015581D01*
X003641Y012101D01*
X003601Y012101D01*
X001601Y012101D02*
X001601Y008621D01*
X001601Y008601D01*
X001601Y008561D01*
X001601Y005141D01*
X001601Y005101D01*
X001601Y005081D01*
X001601Y004181D01*
X006641Y004181D01*
X006641Y004601D01*
X006601Y004601D01*
X006641Y004601D01*
X006641Y005561D01*
X006601Y005601D01*
X006641Y005621D01*
X006641Y006581D01*
X006601Y006601D01*
X006641Y004181D02*
X006641Y004121D01*
X012101Y004121D01*
X012101Y008621D01*
X013061Y009581D01*
X013101Y009601D01*
X015101Y006101D02*
X016721Y007721D01*
X016721Y017681D01*
X018101Y019061D01*
X018101Y019101D01*
X015101Y019101D02*
X015101Y019121D01*
X014441Y019781D01*
X014441Y022241D01*
X013121Y023561D01*
X013101Y023601D01*
X011101Y023601D02*
X011081Y023621D01*
X010661Y024041D01*
X010661Y025181D01*
X020101Y024101D02*
X020141Y024101D01*
X020531Y023711D01*
X020561Y023741D01*
X020561Y026081D01*
X021581Y027101D01*
X021601Y027101D01*
X020531Y023711D02*
X020561Y023681D01*
X020561Y022121D01*
X021581Y021101D01*
X021601Y021101D01*
X018101Y017101D02*
X018101Y017081D01*
X017441Y016421D01*
X017441Y010001D01*
X017471Y009971D01*
X022101Y009101D02*
X022121Y009101D01*
X023081Y009101D01*
X023101Y009101D01*
X027101Y009101D02*
X027161Y009101D01*
X028061Y009101D01*
X028101Y009101D01*
X032101Y009101D02*
X032141Y009101D01*
X033101Y009101D01*
X037101Y009101D02*
X037121Y009101D01*
X038081Y009101D01*
X038101Y009101D01*
X042101Y009101D02*
X042161Y009101D01*
X043061Y009101D01*
X043101Y009101D01*
X047101Y009101D02*
X047141Y009101D01*
X048101Y009101D01*
X052101Y009101D02*
X052121Y009101D01*
X053081Y009101D01*
X053101Y009101D01*
X057101Y009101D02*
X057161Y009101D01*
X058061Y009101D01*
X058101Y009101D01*
X055121Y003101D02*
X055101Y003101D01*
X055121Y003101D02*
X055121Y001601D01*
X055101Y001601D01*
X050101Y001601D02*
X050081Y001601D01*
X050081Y003101D01*
X050101Y003101D01*
X045101Y003101D02*
X045101Y001601D01*
X040121Y001601D02*
X040101Y001601D01*
X040121Y001601D02*
X040121Y003101D01*
X040101Y003101D01*
X035101Y003101D02*
X035081Y003101D01*
X035081Y001601D01*
X035101Y001601D01*
X030101Y001601D02*
X030101Y003101D01*
X025121Y003101D02*
X025121Y001601D01*
X025101Y001601D01*
X025101Y003101D02*
X025121Y003101D01*
X022101Y003701D02*
X022061Y003701D01*
X017141Y003701D01*
X017101Y003701D01*
X015101Y003101D02*
X014441Y003761D01*
X014441Y005441D01*
X015101Y006101D01*
X015101Y005101D02*
X015101Y005081D01*
X017081Y005081D01*
X017101Y005081D01*
X015101Y003101D02*
X015101Y001601D01*
X012101Y001601D02*
X012101Y004121D01*
X010121Y003581D02*
X010101Y003601D01*
X010121Y003581D02*
X010121Y001601D01*
X010101Y001601D01*
X006641Y003641D02*
X006601Y003601D01*
X006641Y003641D02*
X006641Y004121D01*
X020081Y003101D02*
X020081Y001601D01*
X020101Y001601D01*
X020101Y003101D02*
X020081Y003101D01*
X001601Y015601D02*
X001601Y015641D01*
X001601Y019061D01*
X001601Y019101D01*
X001601Y019121D01*
X001601Y021581D01*
X001601Y021601D01*
X038101Y024101D02*
X038141Y024101D01*
X040061Y024101D01*
X040101Y024101D01*
X055101Y024101D02*
X055121Y024101D01*
X058061Y024101D01*
X058101Y024101D01*
D18*
X058101Y010101D02*
X057601Y010101D01*
X057101Y009601D01*
X057101Y009101D01*
X057101Y001601D01*
X052101Y001601D02*
X052101Y009101D01*
X052101Y009601D01*
X052601Y010101D01*
X053101Y010101D01*
X048101Y010101D02*
X047601Y010101D01*
X047101Y009601D01*
X047101Y009101D01*
X047101Y001601D01*
X042101Y001601D02*
X042101Y009101D01*
X042101Y009601D01*
X042601Y010101D01*
X043101Y010101D01*
X038101Y010101D02*
X037601Y010101D01*
X037101Y009601D01*
X037101Y009101D01*
X037101Y001601D01*
X032101Y001601D02*
X032101Y009101D01*
X032101Y009601D01*
X032601Y010101D01*
X033101Y010101D01*
X028101Y010101D02*
X027601Y010101D01*
X027101Y009601D01*
X027101Y009101D01*
X027101Y001601D01*
X022101Y001601D02*
X022101Y003701D01*
X022101Y009101D01*
X022101Y009601D01*
X022601Y010101D01*
X023101Y010101D01*
X018101Y010101D02*
X017601Y010101D01*
X017471Y009971D01*
X017101Y009601D01*
X017101Y005081D01*
X017101Y003701D01*
X017101Y001601D01*
D19*
X020101Y004101D02*
X020141Y004121D01*
X021321Y004901D01*
X021321Y018281D01*
X020141Y019061D01*
X020101Y019101D01*
X020141Y018101D02*
X020101Y018101D01*
X020141Y018101D02*
X021141Y017501D01*
X021141Y005741D01*
X020141Y005141D01*
X020101Y005101D01*
X020101Y006101D02*
X020141Y006101D01*
X020941Y006701D01*
X020941Y016481D01*
X020141Y017081D01*
X020101Y017101D01*
X020101Y016101D02*
X020141Y016061D01*
X020741Y015461D01*
X020741Y007721D01*
X020141Y007121D01*
X020101Y007101D01*
X021761Y006221D02*
X021881Y006341D01*
X021881Y010901D01*
X023081Y012101D01*
X023101Y012101D01*
X023741Y012461D02*
X023141Y013061D01*
X023101Y013101D01*
X023921Y013301D02*
X023141Y014081D01*
X023101Y014101D01*
X024101Y014141D02*
X023141Y015101D01*
X023101Y015101D01*
X024101Y014141D02*
X024101Y004061D01*
X023141Y003101D01*
X023101Y003101D01*
X023101Y004101D02*
X023141Y004121D01*
X023921Y004901D01*
X023921Y013301D01*
X023741Y012461D02*
X023741Y005741D01*
X023141Y005141D01*
X023101Y005101D01*
X024281Y004901D02*
X024281Y018281D01*
X025061Y019061D01*
X025101Y019101D01*
X025061Y018101D02*
X025101Y018101D01*
X025061Y018101D02*
X024461Y017501D01*
X024461Y005741D01*
X025061Y005141D01*
X025101Y005101D01*
X024281Y004901D02*
X025061Y004121D01*
X025101Y004101D01*
X028101Y004101D02*
X028121Y004121D01*
X028901Y004901D01*
X028901Y013301D01*
X028121Y014081D01*
X028101Y014101D01*
X029081Y014141D02*
X028121Y015101D01*
X028101Y015101D01*
X029441Y015761D02*
X029441Y020981D01*
X029561Y021101D01*
X029601Y021101D01*
X029621Y021101D01*
X029621Y022601D01*
X030101Y023081D01*
X030101Y023101D01*
X030101Y022101D02*
X030101Y022061D01*
X030101Y021581D01*
X030581Y021101D01*
X030601Y021101D01*
X032441Y020981D02*
X032561Y021101D01*
X032601Y021101D01*
X032441Y020981D02*
X032441Y018761D01*
X033101Y018101D01*
X032201Y018041D02*
X032201Y024161D01*
X033101Y025061D01*
X033101Y025101D01*
X034001Y025181D02*
X033101Y026081D01*
X033101Y026101D01*
X033101Y026141D01*
X033101Y026621D01*
X032621Y027101D01*
X032601Y027101D01*
X030101Y026621D02*
X030101Y026141D01*
X030101Y026101D01*
X030101Y026621D02*
X029621Y027101D01*
X029601Y027101D01*
X028061Y026681D02*
X028061Y026141D01*
X028101Y026101D01*
X028061Y026081D01*
X027221Y025241D01*
X027221Y016961D01*
X028061Y016121D01*
X028101Y016101D01*
X029141Y016121D02*
X029261Y016001D01*
X029261Y006941D01*
X030101Y006101D01*
X030761Y005801D02*
X030761Y017441D01*
X030101Y018101D01*
X030941Y018221D02*
X030101Y019061D01*
X030101Y019101D01*
X030941Y018221D02*
X030941Y004961D01*
X030101Y004121D01*
X030101Y004101D01*
X029081Y004061D02*
X029081Y014141D01*
X030101Y015101D02*
X029441Y015761D01*
X028101Y017101D02*
X028121Y017141D01*
X028961Y017981D01*
X028961Y024221D01*
X028121Y025061D01*
X028101Y025101D01*
X025961Y024221D02*
X025121Y025061D01*
X025101Y025101D01*
X024701Y025721D02*
X025061Y026081D01*
X025101Y026101D01*
X025061Y026141D01*
X025061Y026681D01*
X024641Y027101D01*
X024601Y027101D01*
X023981Y027521D02*
X023741Y027761D01*
X022601Y027761D01*
X022601Y027101D01*
X023081Y026621D01*
X023081Y026141D01*
X023101Y026101D01*
X023501Y025481D02*
X023141Y025121D01*
X023101Y025101D01*
X023081Y025061D01*
X022241Y024221D01*
X022241Y017981D01*
X023081Y017141D01*
X023101Y017101D01*
X023981Y016961D02*
X023981Y027521D01*
X023601Y027101D02*
X023561Y027101D01*
X023501Y027041D01*
X023501Y025481D01*
X024701Y025721D02*
X024701Y024161D01*
X024281Y023741D01*
X025061Y023081D02*
X025101Y023101D01*
X025061Y023081D02*
X024641Y022661D01*
X024641Y021101D01*
X024601Y021101D01*
X023601Y021101D02*
X023561Y021101D01*
X023561Y021641D01*
X023141Y022061D01*
X023101Y022101D01*
X022661Y022661D02*
X023081Y023081D01*
X023101Y023101D01*
X022661Y022661D02*
X022661Y021161D01*
X022601Y021101D01*
X022481Y020981D01*
X022481Y018701D01*
X023081Y018101D01*
X023101Y018101D01*
X023981Y016961D02*
X023141Y016121D01*
X023101Y016101D01*
X025101Y017101D02*
X025121Y017081D01*
X025721Y016481D01*
X025721Y006701D01*
X025121Y006101D01*
X025101Y006101D01*
X026741Y006221D02*
X026921Y006401D01*
X026921Y010961D01*
X028061Y012101D01*
X028101Y012101D01*
X028721Y012461D02*
X028121Y013061D01*
X028101Y013101D01*
X028721Y012461D02*
X028721Y005741D01*
X028121Y005141D01*
X028101Y005101D01*
X029081Y004061D02*
X028121Y003101D01*
X028101Y003101D01*
X030101Y005101D02*
X030101Y005141D01*
X030761Y005801D01*
X031721Y006221D02*
X031901Y006401D01*
X031901Y010901D01*
X033101Y012101D01*
X033761Y012401D02*
X033101Y013061D01*
X033101Y013101D01*
X033941Y013241D02*
X033101Y014081D01*
X033101Y014101D01*
X033101Y015101D02*
X034121Y014081D01*
X034121Y004121D01*
X033101Y003101D01*
X033101Y004101D02*
X033101Y004121D01*
X033941Y004961D01*
X033941Y013241D01*
X034301Y013901D02*
X035081Y013121D01*
X035101Y013101D01*
X033761Y012401D02*
X033761Y005801D01*
X033101Y005141D01*
X033101Y005101D01*
X035101Y005101D02*
X035141Y005141D01*
X036141Y005741D01*
X036141Y017251D01*
X035141Y018101D01*
X035101Y018101D01*
X035141Y019061D02*
X036321Y018281D01*
X036321Y004901D01*
X035141Y004121D01*
X035101Y004101D01*
X038101Y004101D02*
X038141Y004121D01*
X038921Y004901D01*
X038921Y013301D01*
X038141Y014081D01*
X038101Y014101D01*
X039101Y014141D02*
X038141Y015101D01*
X038101Y015101D01*
X039101Y014141D02*
X039101Y004061D01*
X038141Y003101D01*
X038101Y003101D01*
X039281Y004901D02*
X040061Y004121D01*
X040101Y004101D01*
X040101Y005101D02*
X040061Y005141D01*
X039461Y005741D01*
X039461Y017501D01*
X040061Y018101D01*
X040101Y018101D01*
X039281Y018281D02*
X040061Y019061D01*
X040101Y019101D01*
X039281Y018281D02*
X039281Y004901D01*
X038741Y005741D02*
X038141Y005141D01*
X038101Y005101D01*
X038741Y005741D02*
X038741Y012461D01*
X038141Y013061D01*
X038101Y013101D01*
X038081Y012101D02*
X038101Y012101D01*
X038081Y012101D02*
X036881Y010901D01*
X036881Y006341D01*
X036761Y006221D01*
X035921Y006881D02*
X035921Y016301D01*
X035141Y017081D01*
X035101Y017101D01*
X034001Y017021D02*
X034001Y025181D01*
X034241Y025241D02*
X035081Y026081D01*
X035101Y026101D01*
X035081Y026141D01*
X035081Y026621D01*
X034601Y027101D01*
X037601Y027101D02*
X038081Y026621D01*
X038081Y026141D01*
X038101Y026101D01*
X038081Y026081D01*
X037061Y025061D01*
X037061Y017141D01*
X038081Y016121D01*
X038101Y016101D01*
X038101Y017101D02*
X038081Y017141D01*
X037241Y017981D01*
X037241Y024221D01*
X038081Y025061D01*
X038101Y025101D01*
X040101Y025101D02*
X040121Y025061D01*
X040961Y024221D01*
X040961Y020681D01*
X040901Y020621D01*
X040901Y014921D01*
X040121Y014141D01*
X040101Y014101D01*
X041021Y014561D02*
X041021Y007001D01*
X040121Y006101D01*
X040101Y006101D01*
X041741Y006221D02*
X041921Y006401D01*
X041921Y010961D01*
X043061Y012101D01*
X043101Y012101D01*
X043721Y012461D02*
X043121Y013061D01*
X043101Y013101D01*
X043901Y013301D02*
X043121Y014081D01*
X043101Y014101D01*
X044081Y014141D02*
X043121Y015101D01*
X043101Y015101D01*
X044441Y015761D02*
X044441Y020981D01*
X044561Y021101D01*
X044601Y021101D01*
X044621Y021101D01*
X044621Y022601D01*
X045101Y023081D01*
X045101Y023101D01*
X045101Y022101D02*
X045101Y022061D01*
X045101Y021581D01*
X045581Y021101D01*
X045601Y021101D01*
X047441Y020981D02*
X047561Y021101D01*
X047601Y021101D01*
X047441Y020981D02*
X047441Y018761D01*
X048101Y018101D01*
X047201Y018041D02*
X047201Y024161D01*
X048101Y025061D01*
X048101Y025101D01*
X049001Y025181D02*
X048101Y026081D01*
X048101Y026101D01*
X048101Y026141D01*
X048101Y026621D01*
X047621Y027101D01*
X047601Y027101D01*
X049601Y027101D02*
X050081Y026621D01*
X050081Y026141D01*
X050101Y026101D01*
X050081Y026081D01*
X049241Y025241D01*
X049241Y020681D01*
X049301Y020621D01*
X049301Y013901D01*
X050081Y013121D01*
X050101Y013101D01*
X048941Y013241D02*
X048101Y014081D01*
X048101Y014101D01*
X048101Y015101D02*
X049121Y014081D01*
X049121Y004121D01*
X048101Y003101D01*
X048101Y004101D02*
X048101Y004121D01*
X048941Y004961D01*
X048941Y013241D01*
X048101Y013101D02*
X048101Y013061D01*
X048761Y012401D01*
X048761Y005801D01*
X048101Y005141D01*
X048101Y005101D01*
X045941Y004961D02*
X045941Y018221D01*
X045101Y019061D01*
X045101Y019101D01*
X045101Y018101D02*
X045761Y017441D01*
X045761Y005801D01*
X045101Y005141D01*
X045101Y005101D01*
X043901Y004901D02*
X043901Y013301D01*
X044081Y014141D02*
X044081Y004061D01*
X043121Y003101D01*
X043101Y003101D01*
X043101Y004101D02*
X043121Y004121D01*
X043901Y004901D01*
X043121Y005141D02*
X043101Y005101D01*
X043121Y005141D02*
X043721Y005741D01*
X043721Y012461D01*
X046901Y010901D02*
X048101Y012101D01*
X046901Y010901D02*
X046901Y006401D01*
X046721Y006221D01*
X045101Y006101D02*
X044261Y006941D01*
X044261Y016001D01*
X044141Y016121D01*
X044441Y015761D02*
X045101Y015101D01*
X043101Y016101D02*
X043061Y016121D01*
X042221Y016961D01*
X042221Y025241D01*
X043061Y026081D01*
X043101Y026101D01*
X043061Y026141D01*
X043061Y026681D01*
X042641Y027101D01*
X042601Y027101D01*
X044601Y027101D02*
X044621Y027101D01*
X045101Y026621D01*
X045101Y026141D01*
X045101Y026101D01*
X043961Y024221D02*
X043121Y025061D01*
X043101Y025101D01*
X043961Y024221D02*
X043961Y017981D01*
X043121Y017141D01*
X043101Y017101D01*
X043061Y018101D02*
X043101Y018101D01*
X043061Y018101D02*
X042461Y018701D01*
X042461Y020981D01*
X042581Y021101D01*
X042601Y021101D01*
X042641Y021101D01*
X042701Y021161D01*
X042701Y022721D01*
X043061Y023081D01*
X043101Y023101D01*
X043101Y022101D02*
X043121Y022061D01*
X043601Y021581D01*
X043601Y021101D01*
X039641Y021101D02*
X039601Y021101D01*
X039641Y021101D02*
X039641Y022661D01*
X040061Y023081D01*
X040101Y023101D01*
X038141Y022061D02*
X038101Y022101D01*
X038141Y022061D02*
X038561Y021641D01*
X038561Y021101D01*
X038601Y021101D01*
X037601Y021101D02*
X037481Y020981D01*
X037481Y018701D01*
X038081Y018101D01*
X038101Y018101D01*
X035141Y019061D02*
X035101Y019101D01*
X034481Y020201D02*
X034961Y020681D01*
X034961Y021641D01*
X034661Y021941D01*
X034661Y024641D01*
X035081Y025061D01*
X035101Y025101D01*
X034241Y025241D02*
X034241Y020681D01*
X034301Y020621D01*
X034301Y013901D01*
X035081Y014141D02*
X035101Y014101D01*
X035081Y014141D02*
X034481Y014741D01*
X034481Y020201D01*
X033601Y021101D02*
X033581Y021101D01*
X033581Y021581D01*
X033101Y022061D01*
X033101Y022101D01*
X035101Y022101D02*
X035141Y022061D01*
X035141Y021521D01*
X035561Y021101D01*
X035601Y021101D01*
X032201Y018041D02*
X033101Y017141D01*
X033101Y017101D01*
X034001Y017021D02*
X033101Y016121D01*
X033101Y016101D01*
X035101Y016101D02*
X035141Y016061D01*
X035741Y015461D01*
X035741Y007721D01*
X035141Y007121D01*
X035101Y007101D01*
X035921Y006881D02*
X035141Y006101D01*
X035101Y006101D01*
X026021Y007181D02*
X026021Y015341D01*
X026321Y014981D02*
X026321Y020561D01*
X025961Y020921D01*
X025961Y024221D01*
X027701Y022721D02*
X028061Y023081D01*
X028101Y023101D01*
X027701Y022721D02*
X027701Y021161D01*
X027641Y021101D01*
X027601Y021101D01*
X027581Y021101D01*
X027461Y020981D01*
X027461Y018701D01*
X028061Y018101D01*
X028101Y018101D01*
X028601Y021101D02*
X028601Y021581D01*
X028121Y022061D01*
X028101Y022101D01*
X020601Y021101D02*
X020561Y021101D01*
X020141Y021521D01*
X020141Y022061D01*
X020101Y022101D01*
X019601Y022601D02*
X019601Y021101D01*
X019481Y020981D01*
X019481Y015701D01*
X020081Y015101D01*
X020101Y015101D01*
X019421Y015521D02*
X019241Y015701D01*
X019241Y025241D01*
X020081Y026081D01*
X020101Y026101D01*
X020081Y026141D01*
X020081Y026621D01*
X019601Y027101D01*
X012101Y023601D02*
X012101Y023561D01*
X011741Y023201D01*
X007601Y024581D02*
X007601Y024601D01*
X007601Y024581D02*
X007181Y024161D01*
X007181Y021701D01*
X007001Y021521D01*
X007001Y013661D01*
X006881Y013541D01*
X006701Y014201D02*
X006221Y014681D01*
X006221Y017501D01*
X006221Y020261D01*
X006161Y020321D01*
X006161Y024041D01*
X005621Y024581D01*
X005601Y024601D01*
X004601Y023601D02*
X004601Y023561D01*
X004661Y023501D01*
X004661Y017201D01*
X005621Y018101D02*
X006221Y017501D01*
X005621Y018101D02*
X005601Y018101D01*
X008601Y018101D02*
X008621Y018101D01*
X010061Y018101D01*
X010101Y018101D01*
X010101Y019101D02*
X010061Y019121D01*
X008621Y019121D01*
X008601Y019101D01*
X008601Y017101D02*
X008621Y017081D01*
X010061Y017081D01*
X010101Y017101D01*
X010061Y016121D02*
X008621Y016121D01*
X008601Y016101D01*
X010061Y016121D02*
X010101Y016101D01*
X010061Y015101D02*
X010101Y015101D01*
X010061Y015101D02*
X008621Y015101D01*
X008601Y015101D01*
X008601Y014101D02*
X008621Y014081D01*
X010061Y014081D01*
X010101Y014101D01*
X011741Y013721D02*
X011741Y009221D01*
X010121Y007601D01*
X010101Y007601D01*
X013721Y007721D02*
X013721Y011501D01*
X013121Y012101D01*
X013101Y012101D01*
X013121Y012101D01*
X013121Y013061D01*
X013101Y013101D01*
X013121Y013121D01*
X013121Y014081D01*
X013101Y014101D01*
X013121Y014141D01*
X013121Y015101D01*
X013101Y015101D01*
X013121Y015101D01*
X013121Y016061D01*
X013101Y016101D01*
X013121Y016121D01*
X013121Y017081D01*
X013101Y017101D01*
X013121Y017141D01*
X013121Y018101D01*
X013101Y018101D01*
X013121Y018101D01*
X013121Y019061D01*
X013101Y019101D01*
X016361Y019361D02*
X016361Y014801D01*
X019421Y015521D02*
X019421Y013781D01*
X020081Y013121D01*
X020101Y013101D01*
X010101Y013101D02*
X010061Y013121D01*
X008621Y013121D01*
X008601Y013101D01*
X013721Y007721D02*
X014141Y007301D01*
X010101Y004601D02*
X010061Y004601D01*
X008621Y004601D01*
X008601Y004601D01*
X016361Y019361D02*
X018101Y021101D01*
X019601Y022601D02*
X020081Y023081D01*
X020101Y023101D01*
X027641Y027101D02*
X028061Y026681D01*
X027641Y027101D02*
X027601Y027101D01*
X039601Y027101D02*
X039641Y027101D01*
X040061Y026681D01*
X040061Y026141D01*
X040101Y026101D01*
X048101Y022101D02*
X048101Y022061D01*
X048581Y021581D01*
X048581Y021101D01*
X048601Y021101D01*
X049481Y020201D02*
X049961Y020681D01*
X049961Y021641D01*
X049661Y021941D01*
X049661Y024641D01*
X050081Y025061D01*
X050101Y025101D01*
X049001Y025181D02*
X049001Y017021D01*
X048101Y016121D01*
X048101Y016101D01*
X048101Y017101D02*
X048101Y017141D01*
X047201Y018041D01*
X049481Y020201D02*
X049481Y014741D01*
X050081Y014141D01*
X050101Y014101D01*
X053101Y014101D02*
X053141Y014081D01*
X053921Y013301D01*
X053921Y004901D01*
X053141Y004121D01*
X053101Y004101D01*
X054101Y004061D02*
X054101Y014141D01*
X053141Y015101D01*
X053101Y015101D01*
X053101Y016101D02*
X053141Y016121D01*
X053981Y016961D01*
X053981Y025241D01*
X053141Y026081D01*
X053101Y026101D01*
X053081Y026141D01*
X053081Y026621D01*
X052601Y027101D01*
X054601Y027101D02*
X054641Y027101D01*
X055061Y026681D01*
X055061Y026141D01*
X055101Y026101D01*
X055061Y026081D01*
X054221Y025241D01*
X054221Y020441D01*
X054581Y020441D01*
X055721Y019301D01*
X055721Y013721D01*
X055121Y013121D01*
X055101Y013101D01*
X053741Y012461D02*
X053141Y013061D01*
X053101Y013101D01*
X053741Y012461D02*
X053741Y005741D01*
X053141Y005141D01*
X053101Y005101D01*
X054281Y004901D02*
X054281Y018281D01*
X055061Y019061D01*
X055101Y019101D01*
X055061Y018101D02*
X055101Y018101D01*
X055061Y018101D02*
X054461Y017501D01*
X054461Y005741D01*
X055061Y005141D01*
X055101Y005101D01*
X054281Y004901D02*
X055061Y004121D01*
X055101Y004101D01*
X054101Y004061D02*
X053141Y003101D01*
X053101Y003101D01*
X051761Y005321D02*
X051881Y005441D01*
X051881Y010901D01*
X053081Y012101D01*
X053101Y012101D01*
X058101Y013101D02*
X058121Y013061D01*
X058721Y012461D01*
X058721Y005741D01*
X058121Y005141D01*
X058101Y005101D01*
X058901Y004901D02*
X058901Y013301D01*
X058121Y014081D01*
X058101Y014101D01*
X059081Y014141D02*
X058121Y015101D01*
X058101Y015101D01*
X059081Y014141D02*
X059081Y004061D01*
X058121Y003101D01*
X058101Y003101D01*
X058101Y004101D02*
X058121Y004121D01*
X058901Y004901D01*
X056021Y007001D02*
X055121Y006101D01*
X055101Y006101D01*
X056021Y007001D02*
X056021Y016181D01*
X058101Y017101D02*
X058121Y017141D01*
X058961Y017981D01*
X058961Y024221D01*
X058541Y024641D01*
X058541Y027041D01*
X058601Y027101D01*
X058061Y026681D02*
X058061Y026141D01*
X058101Y026101D01*
X058061Y026681D02*
X057641Y027101D01*
X057601Y027101D01*
X058101Y025101D02*
X058121Y025061D01*
X058541Y024641D01*
X055101Y023101D02*
X055061Y023081D01*
X054641Y022661D01*
X054641Y021101D01*
X054601Y021101D01*
X055121Y021581D02*
X055601Y021101D01*
X055121Y021581D02*
X055121Y022061D01*
X055101Y022101D01*
X053561Y021641D02*
X053561Y021101D01*
X053601Y021101D01*
X053561Y021641D02*
X053141Y022061D01*
X053101Y022101D01*
X052601Y021101D02*
X052481Y020981D01*
X052481Y018701D01*
X053081Y018101D01*
X053101Y018101D01*
X052241Y017981D02*
X052241Y024221D01*
X053081Y025061D01*
X053101Y025101D01*
X050101Y022101D02*
X050141Y022061D01*
X050141Y021521D01*
X050561Y021101D01*
X050601Y021101D01*
X052241Y017981D02*
X053081Y017141D01*
X053101Y017101D01*
X057461Y018701D02*
X057461Y020981D01*
X057581Y021101D01*
X057601Y021101D01*
X058601Y021101D02*
X058601Y021581D01*
X058121Y022061D01*
X058101Y022101D01*
X057461Y018701D02*
X058061Y018101D01*
X058101Y018101D01*
X045941Y004961D02*
X045101Y004121D01*
X045101Y004101D01*
D20*
X040961Y005741D03*
X041741Y006221D03*
X041441Y008021D03*
X046241Y006701D03*
X046721Y006221D03*
X046601Y008021D03*
X051761Y005321D03*
X055721Y010721D03*
X046241Y014261D03*
X044141Y016121D03*
X041021Y014561D03*
X044561Y011441D03*
X040721Y010781D03*
X031241Y014261D03*
X029141Y016121D03*
X026321Y014981D03*
X026021Y015341D03*
X029561Y011441D03*
X026021Y007181D03*
X026741Y006221D03*
X031721Y006221D03*
X036281Y004481D03*
X036761Y006221D03*
X030821Y003581D03*
X029021Y003221D03*
X021761Y006221D03*
X018941Y005741D03*
X018821Y006581D03*
X014141Y007301D03*
X009221Y008921D03*
X009161Y011741D03*
X006881Y013541D03*
X006701Y014201D03*
X009341Y016601D03*
X011141Y016781D03*
X012161Y016181D03*
X014141Y015761D03*
X016361Y014801D03*
X011741Y013721D03*
X004661Y017201D03*
X004361Y018581D03*
X004361Y019481D03*
X004181Y020201D03*
X007181Y021701D03*
X012761Y022721D03*
X014021Y025301D03*
X024281Y023741D03*
X030761Y020141D03*
X045761Y020141D03*
X056021Y016181D03*
X007301Y018881D03*
D21*
X007541Y018641D01*
X007541Y010601D01*
X009221Y008921D01*
X010101Y009601D02*
X010121Y009641D01*
X010721Y010241D01*
X010721Y016781D01*
X011141Y016781D01*
X010721Y016781D02*
X010721Y022481D01*
X008621Y024581D01*
X008601Y024601D01*
X008021Y024761D02*
X007781Y025001D01*
X006581Y025001D01*
X006581Y024641D01*
X006601Y024601D01*
X006581Y025001D02*
X005441Y025001D01*
X005201Y024761D01*
X005201Y023621D01*
X004961Y023381D01*
X004961Y019721D01*
X005561Y019121D01*
X005601Y019101D01*
X004481Y019601D02*
X004361Y019481D01*
X004481Y019601D02*
X004481Y022721D01*
X003641Y023561D01*
X003601Y023601D01*
X007661Y023081D02*
X008021Y023441D01*
X008021Y024761D01*
X008601Y023601D02*
X008561Y023561D01*
X007961Y022961D01*
X007961Y016961D01*
X008321Y016601D01*
X009341Y016601D01*
X012161Y016181D02*
X012161Y023081D01*
X012521Y023441D01*
X012521Y024161D01*
X012101Y024581D01*
X012101Y024601D01*
X012701Y024221D02*
X012881Y024401D01*
X013101Y024601D01*
X013061Y024581D01*
X012881Y024401D01*
X013541Y023741D01*
X015521Y023741D01*
X015761Y023981D01*
X015761Y024461D01*
X018521Y024461D01*
X018761Y024221D01*
X018761Y015761D01*
X018101Y015101D01*
X015761Y013421D02*
X015101Y014081D01*
X015101Y014101D01*
X015761Y013421D02*
X015761Y009761D01*
X015101Y009101D01*
X014441Y008801D02*
X014441Y012401D01*
X014441Y015881D01*
X014261Y016061D01*
X014261Y021221D01*
X012761Y022721D01*
X012461Y023201D02*
X012701Y023441D01*
X012701Y024221D01*
X011501Y024221D02*
X011141Y024581D01*
X011101Y024601D01*
X011081Y024641D01*
X011081Y027341D01*
X010601Y027821D01*
X010601Y027851D01*
X011621Y026621D02*
X011621Y023321D01*
X011561Y023261D01*
X011561Y013961D01*
X010901Y013301D01*
X010901Y008621D01*
X010241Y007961D01*
X005861Y007961D01*
X005861Y007361D01*
X003641Y005141D01*
X003601Y005101D01*
X010101Y005601D02*
X010121Y005621D01*
X011921Y007421D01*
X011921Y013481D01*
X012461Y014021D01*
X012461Y023201D01*
X011741Y023201D02*
X011741Y013721D01*
X014441Y012401D02*
X015101Y013061D01*
X015101Y013101D01*
X014141Y015761D02*
X014141Y008921D01*
X014441Y008621D01*
X014441Y005921D01*
X013121Y004601D01*
X013101Y004601D01*
X015101Y004101D02*
X015101Y004061D01*
X016661Y002501D01*
X016661Y001421D01*
X016901Y001181D01*
X022541Y001181D01*
X022541Y002861D01*
X022481Y002921D01*
X022481Y007481D01*
X023081Y008081D01*
X023101Y008101D01*
X020101Y008101D02*
X020081Y008081D01*
X019481Y007481D01*
X019481Y006281D01*
X018941Y005741D01*
X018821Y006581D02*
X019361Y007121D01*
X019361Y008381D01*
X020081Y009101D01*
X020101Y009101D01*
X015101Y008141D02*
X015101Y008101D01*
X015101Y008141D02*
X014441Y008801D01*
X009161Y011741D02*
X007661Y013241D01*
X007661Y023081D01*
X011441Y023381D02*
X011441Y021401D01*
X011141Y021101D01*
X011101Y021101D01*
X011441Y023381D02*
X011501Y023441D01*
X011501Y024221D01*
X014021Y025181D02*
X014021Y025301D01*
X014021Y025181D02*
X015101Y024101D01*
X016601Y026621D02*
X018101Y025121D01*
X018101Y025101D01*
X016601Y026621D02*
X011621Y026621D01*
X004181Y020201D02*
X004001Y020021D01*
X004001Y008981D01*
X003641Y008621D01*
X003601Y008601D01*
X004361Y008861D02*
X004361Y018581D01*
X004361Y008861D02*
X004601Y008621D01*
X004601Y008601D01*
X027461Y007481D02*
X027461Y002741D01*
X028541Y002741D01*
X029021Y003221D01*
X030821Y003581D02*
X031661Y002741D01*
X031661Y001421D01*
X031901Y001181D01*
X032561Y001181D01*
X032561Y002861D01*
X032441Y002981D01*
X032441Y007421D01*
X033101Y008081D01*
X033101Y008101D01*
X030101Y007121D02*
X030101Y007101D01*
X030101Y007121D02*
X029441Y007781D01*
X029441Y011321D01*
X029561Y011441D01*
X031241Y014261D02*
X031121Y014381D01*
X031121Y025061D01*
X030101Y026081D01*
X030101Y026101D01*
X030101Y025101D02*
X030101Y025061D01*
X031001Y024161D01*
X031001Y020381D01*
X030761Y020141D01*
X045101Y025061D02*
X045101Y025101D01*
X045101Y025061D02*
X046001Y024161D01*
X046001Y020381D01*
X045761Y020141D01*
X050101Y019101D02*
X050101Y018901D01*
X050901Y018101D01*
X050901Y017301D01*
X051101Y017101D01*
X051101Y016501D01*
X051501Y016101D01*
X051501Y005501D01*
X050101Y004101D01*
X050101Y005101D02*
X051301Y006301D01*
X051301Y016101D01*
X050901Y016501D01*
X050901Y017101D01*
X050101Y017901D01*
X050101Y018101D01*
X050101Y017101D02*
X050101Y016901D01*
X051101Y015901D01*
X051101Y007101D01*
X050101Y006101D01*
X050101Y007101D02*
X050901Y007901D01*
X050901Y015101D01*
X050101Y015901D01*
X050101Y016101D01*
X046241Y014261D02*
X046121Y014381D01*
X046121Y025061D01*
X045101Y026081D01*
X045101Y026101D01*
X044561Y011441D02*
X044441Y011321D01*
X044441Y007781D01*
X045101Y007121D01*
X045101Y007101D01*
X046241Y006701D02*
X046601Y007061D01*
X046601Y008021D01*
X041441Y008021D02*
X041441Y006221D01*
X040961Y005741D01*
X040101Y007101D02*
X040121Y007121D01*
X040721Y007721D01*
X040721Y010781D01*
X038101Y008101D02*
X038081Y008081D01*
X037481Y007481D01*
X037481Y002921D01*
X037541Y002861D01*
X037541Y001181D01*
X036941Y001181D01*
X036641Y001481D01*
X036641Y004121D01*
X036281Y004481D01*
X028101Y008101D02*
X028061Y008081D01*
X027461Y007481D01*
X055101Y007101D02*
X055121Y007121D01*
X055721Y007721D01*
X055721Y010721D01*
M02*
