G75*
G70*
%OFA0B0*%
%FSLAX24Y24*%
%IPPOS*%
%LPD*%
%AMOC8*
5,1,8,0,0,1.08239X$1,22.5*
%
%ADD10C,0.0520*%
%ADD11OC8,0.0520*%
%ADD12OC8,0.0600*%
%ADD13C,0.0594*%
%ADD14C,0.0591*%
%ADD15OC8,0.0630*%
%ADD16C,0.0515*%
%ADD17C,0.0120*%
%ADD18C,0.0080*%
%ADD19C,0.0400*%
%ADD20C,0.0060*%
D10*
X004349Y003101D02*
X004869Y003101D01*
X004869Y004101D02*
X004349Y004101D01*
X004349Y005101D02*
X004869Y005101D01*
X004869Y006101D02*
X004349Y006101D01*
X004349Y007101D02*
X004869Y007101D01*
X004869Y008101D02*
X004349Y008101D01*
X004349Y009101D02*
X004869Y009101D01*
X004869Y010101D02*
X004349Y010101D01*
X007349Y010101D02*
X007869Y010101D01*
X009349Y010101D02*
X009869Y010101D01*
X009869Y009101D02*
X009349Y009101D01*
X007869Y009101D02*
X007349Y009101D01*
X007349Y008101D02*
X007869Y008101D01*
X009349Y008101D02*
X009869Y008101D01*
X009869Y007101D02*
X009349Y007101D01*
X007869Y007101D02*
X007349Y007101D01*
X007349Y006101D02*
X007869Y006101D01*
X009349Y006101D02*
X009869Y006101D01*
X009869Y005101D02*
X009349Y005101D01*
X007869Y005101D02*
X007349Y005101D01*
X007349Y004101D02*
X007869Y004101D01*
X009349Y004101D02*
X009869Y004101D01*
X009869Y003101D02*
X009349Y003101D01*
X007869Y003101D02*
X007349Y003101D01*
X012349Y003101D02*
X012869Y003101D01*
X014349Y003101D02*
X014869Y003101D01*
X014869Y004101D02*
X014349Y004101D01*
X012869Y004101D02*
X012349Y004101D01*
X012349Y005101D02*
X012869Y005101D01*
X014349Y005101D02*
X014869Y005101D01*
X014869Y006101D02*
X014349Y006101D01*
X012869Y006101D02*
X012349Y006101D01*
X012349Y007101D02*
X012869Y007101D01*
X014349Y007101D02*
X014869Y007101D01*
X014869Y008101D02*
X014349Y008101D01*
X012869Y008101D02*
X012349Y008101D01*
X012349Y009101D02*
X012869Y009101D01*
X014349Y009101D02*
X014869Y009101D01*
X014869Y010101D02*
X014349Y010101D01*
X012869Y010101D02*
X012349Y010101D01*
X012349Y012101D02*
X012869Y012101D01*
X014349Y012101D02*
X014869Y012101D01*
X014869Y013101D02*
X014349Y013101D01*
X012869Y013101D02*
X012349Y013101D01*
X012349Y014101D02*
X012869Y014101D01*
X014349Y014101D02*
X014869Y014101D01*
X014869Y015101D02*
X014349Y015101D01*
X012869Y015101D02*
X012349Y015101D01*
X012349Y016101D02*
X012869Y016101D01*
X014349Y016101D02*
X014869Y016101D01*
X014869Y017101D02*
X014349Y017101D01*
X012869Y017101D02*
X012349Y017101D01*
X012349Y018101D02*
X012869Y018101D01*
X014349Y018101D02*
X014869Y018101D01*
X014869Y019101D02*
X014349Y019101D01*
X012869Y019101D02*
X012349Y019101D01*
X009869Y019101D02*
X009349Y019101D01*
X007869Y019101D02*
X007349Y019101D01*
X007349Y018101D02*
X007869Y018101D01*
X009349Y018101D02*
X009869Y018101D01*
X009869Y017101D02*
X009349Y017101D01*
X007869Y017101D02*
X007349Y017101D01*
X007349Y016101D02*
X007869Y016101D01*
X009349Y016101D02*
X009869Y016101D01*
X009869Y015101D02*
X009349Y015101D01*
X007869Y015101D02*
X007349Y015101D01*
X007349Y014101D02*
X007869Y014101D01*
X009349Y014101D02*
X009869Y014101D01*
X009869Y013101D02*
X009349Y013101D01*
X007869Y013101D02*
X007349Y013101D01*
X007349Y012101D02*
X007869Y012101D01*
X009349Y012101D02*
X009869Y012101D01*
X004869Y012101D02*
X004349Y012101D01*
X004349Y013101D02*
X004869Y013101D01*
X004869Y014101D02*
X004349Y014101D01*
X004349Y015101D02*
X004869Y015101D01*
X004869Y016101D02*
X004349Y016101D01*
X004349Y017101D02*
X004869Y017101D01*
X004869Y018101D02*
X004349Y018101D01*
X004349Y019101D02*
X004869Y019101D01*
X005109Y020841D02*
X005109Y021361D01*
X006109Y021361D02*
X006109Y020841D01*
X007109Y020841D02*
X007109Y021361D01*
X008109Y021361D02*
X008109Y020841D01*
X009109Y020841D02*
X009109Y021361D01*
X010109Y021361D02*
X010109Y020841D01*
X011109Y020841D02*
X011109Y021361D01*
X012109Y021361D02*
X012109Y020841D01*
X013109Y020841D02*
X013109Y021361D01*
X014109Y021361D02*
X014109Y020841D01*
X015109Y020841D02*
X015109Y021361D01*
X016109Y021361D02*
X016109Y020841D01*
X017109Y020841D02*
X017109Y021361D01*
X018109Y021361D02*
X018109Y020841D01*
X019109Y020841D02*
X019109Y021361D01*
X020109Y021361D02*
X020109Y020841D01*
X021109Y020841D02*
X021109Y021361D01*
X022109Y021361D02*
X022109Y020841D01*
X023109Y020841D02*
X023109Y021361D01*
X024109Y021361D02*
X024109Y020841D01*
X025109Y020841D02*
X025109Y021361D01*
X026109Y021361D02*
X026109Y020841D01*
X027109Y020841D02*
X027109Y021361D01*
X028109Y021361D02*
X028109Y020841D01*
X029109Y020841D02*
X029109Y021361D01*
X030109Y021361D02*
X030109Y020841D01*
X031109Y020841D02*
X031109Y021361D01*
X032109Y021361D02*
X032109Y020841D01*
X033109Y020841D02*
X033109Y021361D01*
X034109Y021361D02*
X034109Y020841D01*
X035109Y020841D02*
X035109Y021361D01*
X036109Y021361D02*
X036109Y020841D01*
X037109Y020841D02*
X037109Y021361D01*
X038109Y021361D02*
X038109Y020841D01*
X039109Y020841D02*
X039109Y021361D01*
X040109Y021361D02*
X040109Y020841D01*
X041109Y020841D02*
X041109Y021361D01*
X042109Y021361D02*
X042109Y020841D01*
X043109Y020841D02*
X043109Y021361D01*
X044349Y021101D02*
X044869Y021101D01*
X044869Y020101D02*
X044349Y020101D01*
X044349Y019101D02*
X044869Y019101D01*
X044869Y018101D02*
X044349Y018101D01*
X042869Y018101D02*
X042349Y018101D01*
X042349Y019101D02*
X042869Y019101D01*
X039869Y019101D02*
X039349Y019101D01*
X037869Y019101D02*
X037349Y019101D01*
X037349Y018101D02*
X037869Y018101D01*
X039349Y018101D02*
X039869Y018101D01*
X039869Y017101D02*
X039349Y017101D01*
X037869Y017101D02*
X037349Y017101D01*
X037349Y016101D02*
X037869Y016101D01*
X039349Y016101D02*
X039869Y016101D01*
X039869Y015101D02*
X039349Y015101D01*
X037869Y015101D02*
X037349Y015101D01*
X037349Y014101D02*
X037869Y014101D01*
X039349Y014101D02*
X039869Y014101D01*
X039869Y013101D02*
X039349Y013101D01*
X037869Y013101D02*
X037349Y013101D01*
X037349Y012101D02*
X037869Y012101D01*
X039349Y012101D02*
X039869Y012101D01*
X042349Y012101D02*
X042869Y012101D01*
X044349Y012101D02*
X044869Y012101D01*
X044869Y013101D02*
X044349Y013101D01*
X042869Y013101D02*
X042349Y013101D01*
X042349Y014101D02*
X042869Y014101D01*
X044349Y014101D02*
X044869Y014101D01*
X044869Y015101D02*
X044349Y015101D01*
X042869Y015101D02*
X042349Y015101D01*
X042349Y016101D02*
X042869Y016101D01*
X044349Y016101D02*
X044869Y016101D01*
X044869Y017101D02*
X044349Y017101D01*
X042869Y017101D02*
X042349Y017101D01*
X047349Y017101D02*
X047869Y017101D01*
X049349Y017101D02*
X049869Y017101D01*
X049869Y016101D02*
X049349Y016101D01*
X047869Y016101D02*
X047349Y016101D01*
X047349Y015101D02*
X047869Y015101D01*
X049349Y015101D02*
X049869Y015101D01*
X049869Y014101D02*
X049349Y014101D01*
X047869Y014101D02*
X047349Y014101D01*
X047349Y013101D02*
X047869Y013101D01*
X049349Y013101D02*
X049869Y013101D01*
X049869Y012101D02*
X049349Y012101D01*
X047869Y012101D02*
X047349Y012101D01*
X047349Y010101D02*
X047869Y010101D01*
X049349Y009601D02*
X049869Y009601D01*
X047869Y009101D02*
X047349Y009101D01*
X047349Y008101D02*
X047869Y008101D01*
X049349Y008601D02*
X049869Y008601D01*
X049869Y007601D02*
X049349Y007601D01*
X047869Y007101D02*
X047349Y007101D01*
X047349Y006101D02*
X047869Y006101D01*
X049349Y006601D02*
X049869Y006601D01*
X049869Y005601D02*
X049349Y005601D01*
X047869Y005101D02*
X047349Y005101D01*
X047349Y004101D02*
X047869Y004101D01*
X049349Y004601D02*
X049869Y004601D01*
X049869Y003601D02*
X049349Y003601D01*
X047869Y003101D02*
X047349Y003101D01*
X044869Y003101D02*
X044349Y003101D01*
X042869Y003101D02*
X042349Y003101D01*
X042349Y004101D02*
X042869Y004101D01*
X044349Y004101D02*
X044869Y004101D01*
X044869Y005101D02*
X044349Y005101D01*
X042869Y005101D02*
X042349Y005101D01*
X042349Y006101D02*
X042869Y006101D01*
X044349Y006101D02*
X044869Y006101D01*
X044869Y007101D02*
X044349Y007101D01*
X042869Y007101D02*
X042349Y007101D01*
X042349Y008101D02*
X042869Y008101D01*
X044349Y008101D02*
X044869Y008101D01*
X044869Y009101D02*
X044349Y009101D01*
X042869Y009101D02*
X042349Y009101D01*
X042349Y010101D02*
X042869Y010101D01*
X044349Y010101D02*
X044869Y010101D01*
X039869Y010101D02*
X039349Y010101D01*
X037869Y010101D02*
X037349Y010101D01*
X037349Y009101D02*
X037869Y009101D01*
X039349Y009101D02*
X039869Y009101D01*
X039869Y008101D02*
X039349Y008101D01*
X037869Y008101D02*
X037349Y008101D01*
X037349Y007101D02*
X037869Y007101D01*
X039349Y007101D02*
X039869Y007101D01*
X039869Y006101D02*
X039349Y006101D01*
X037869Y006101D02*
X037349Y006101D01*
X037349Y005101D02*
X037869Y005101D01*
X039349Y005101D02*
X039869Y005101D01*
X039869Y004101D02*
X039349Y004101D01*
X037869Y004101D02*
X037349Y004101D01*
X037349Y003101D02*
X037869Y003101D01*
X039349Y003101D02*
X039869Y003101D01*
X034869Y003101D02*
X034349Y003101D01*
X032869Y003101D02*
X032349Y003101D01*
X032349Y004101D02*
X032869Y004101D01*
X034349Y004101D02*
X034869Y004101D01*
X034869Y005101D02*
X034349Y005101D01*
X032869Y005101D02*
X032349Y005101D01*
X032349Y006101D02*
X032869Y006101D01*
X034349Y006101D02*
X034869Y006101D01*
X034869Y007101D02*
X034349Y007101D01*
X032869Y007101D02*
X032349Y007101D01*
X032349Y008101D02*
X032869Y008101D01*
X034349Y008101D02*
X034869Y008101D01*
X034869Y009101D02*
X034349Y009101D01*
X032869Y009101D02*
X032349Y009101D01*
X032349Y010101D02*
X032869Y010101D01*
X034349Y010101D02*
X034869Y010101D01*
X034869Y012101D02*
X034349Y012101D01*
X032869Y012101D02*
X032349Y012101D01*
X032349Y013101D02*
X032869Y013101D01*
X034349Y013101D02*
X034869Y013101D01*
X034869Y014101D02*
X034349Y014101D01*
X032869Y014101D02*
X032349Y014101D01*
X032349Y015101D02*
X032869Y015101D01*
X034349Y015101D02*
X034869Y015101D01*
X034869Y016101D02*
X034349Y016101D01*
X032869Y016101D02*
X032349Y016101D01*
X032349Y017101D02*
X032869Y017101D01*
X034349Y017101D02*
X034869Y017101D01*
X034869Y018101D02*
X034349Y018101D01*
X032869Y018101D02*
X032349Y018101D01*
X032349Y019101D02*
X032869Y019101D01*
X034349Y019101D02*
X034869Y019101D01*
X029869Y019101D02*
X029349Y019101D01*
X027869Y019101D02*
X027349Y019101D01*
X027349Y018101D02*
X027869Y018101D01*
X029349Y018101D02*
X029869Y018101D01*
X029869Y017101D02*
X029349Y017101D01*
X027869Y017101D02*
X027349Y017101D01*
X027349Y016101D02*
X027869Y016101D01*
X029349Y016101D02*
X029869Y016101D01*
X029869Y015101D02*
X029349Y015101D01*
X027869Y015101D02*
X027349Y015101D01*
X027349Y014101D02*
X027869Y014101D01*
X029349Y014101D02*
X029869Y014101D01*
X029869Y013101D02*
X029349Y013101D01*
X027869Y013101D02*
X027349Y013101D01*
X027349Y012101D02*
X027869Y012101D01*
X029349Y012101D02*
X029869Y012101D01*
X029869Y010101D02*
X029349Y010101D01*
X027869Y010101D02*
X027349Y010101D01*
X027349Y009101D02*
X027869Y009101D01*
X029349Y009101D02*
X029869Y009101D01*
X029869Y008101D02*
X029349Y008101D01*
X027869Y008101D02*
X027349Y008101D01*
X027349Y007101D02*
X027869Y007101D01*
X029349Y007101D02*
X029869Y007101D01*
X029869Y006101D02*
X029349Y006101D01*
X027869Y006101D02*
X027349Y006101D01*
X027349Y005101D02*
X027869Y005101D01*
X029349Y005101D02*
X029869Y005101D01*
X029869Y004101D02*
X029349Y004101D01*
X027869Y004101D02*
X027349Y004101D01*
X027349Y003101D02*
X027869Y003101D01*
X029349Y003101D02*
X029869Y003101D01*
X024869Y003101D02*
X024349Y003101D01*
X022869Y003101D02*
X022349Y003101D01*
X022349Y004101D02*
X022869Y004101D01*
X024349Y004101D02*
X024869Y004101D01*
X024869Y005101D02*
X024349Y005101D01*
X022869Y005101D02*
X022349Y005101D01*
X022349Y006101D02*
X022869Y006101D01*
X024349Y006101D02*
X024869Y006101D01*
X024869Y007101D02*
X024349Y007101D01*
X022869Y007101D02*
X022349Y007101D01*
X022349Y008101D02*
X022869Y008101D01*
X024349Y008101D02*
X024869Y008101D01*
X024869Y009101D02*
X024349Y009101D01*
X022869Y009101D02*
X022349Y009101D01*
X022349Y010101D02*
X022869Y010101D01*
X024349Y010101D02*
X024869Y010101D01*
X024869Y012101D02*
X024349Y012101D01*
X022869Y012101D02*
X022349Y012101D01*
X022349Y013101D02*
X022869Y013101D01*
X024349Y013101D02*
X024869Y013101D01*
X024869Y014101D02*
X024349Y014101D01*
X022869Y014101D02*
X022349Y014101D01*
X022349Y015101D02*
X022869Y015101D01*
X024349Y015101D02*
X024869Y015101D01*
X024869Y016101D02*
X024349Y016101D01*
X022869Y016101D02*
X022349Y016101D01*
X022349Y017101D02*
X022869Y017101D01*
X024349Y017101D02*
X024869Y017101D01*
X024869Y018101D02*
X024349Y018101D01*
X022869Y018101D02*
X022349Y018101D01*
X022349Y019101D02*
X022869Y019101D01*
X024349Y019101D02*
X024869Y019101D01*
X019869Y019101D02*
X019349Y019101D01*
X017869Y019101D02*
X017349Y019101D01*
X017349Y018101D02*
X017869Y018101D01*
X019349Y018101D02*
X019869Y018101D01*
X019869Y017101D02*
X019349Y017101D01*
X017869Y017101D02*
X017349Y017101D01*
X017349Y016101D02*
X017869Y016101D01*
X019349Y016101D02*
X019869Y016101D01*
X019869Y015101D02*
X019349Y015101D01*
X017869Y015101D02*
X017349Y015101D01*
X017349Y014101D02*
X017869Y014101D01*
X019349Y014101D02*
X019869Y014101D01*
X019869Y013101D02*
X019349Y013101D01*
X017869Y013101D02*
X017349Y013101D01*
X017349Y012101D02*
X017869Y012101D01*
X019349Y012101D02*
X019869Y012101D01*
X019869Y010101D02*
X019349Y010101D01*
X017869Y010101D02*
X017349Y010101D01*
X017349Y009101D02*
X017869Y009101D01*
X019349Y009101D02*
X019869Y009101D01*
X019869Y008101D02*
X019349Y008101D01*
X017869Y008101D02*
X017349Y008101D01*
X017349Y007101D02*
X017869Y007101D01*
X019349Y007101D02*
X019869Y007101D01*
X019869Y006101D02*
X019349Y006101D01*
X017869Y006101D02*
X017349Y006101D01*
X017349Y005101D02*
X017869Y005101D01*
X019349Y005101D02*
X019869Y005101D01*
X019869Y004101D02*
X019349Y004101D01*
X017869Y004101D02*
X017349Y004101D01*
X017349Y003101D02*
X017869Y003101D01*
X019349Y003101D02*
X019869Y003101D01*
X052349Y003601D02*
X052869Y003601D01*
X052869Y004601D02*
X052349Y004601D01*
X052349Y005601D02*
X052869Y005601D01*
X052869Y006601D02*
X052349Y006601D01*
X052349Y007601D02*
X052869Y007601D01*
X052869Y008601D02*
X052349Y008601D01*
X052349Y009601D02*
X052869Y009601D01*
X052869Y012101D02*
X052349Y012101D01*
X052349Y013101D02*
X052869Y013101D01*
X053849Y013101D02*
X054369Y013101D01*
X054369Y014101D02*
X053849Y014101D01*
X052869Y014101D02*
X052349Y014101D01*
X052349Y015101D02*
X052869Y015101D01*
X053849Y015101D02*
X054369Y015101D01*
X054369Y016101D02*
X053849Y016101D01*
X052869Y016101D02*
X052349Y016101D01*
X052349Y017101D02*
X052869Y017101D01*
X053849Y017101D02*
X054369Y017101D01*
X054369Y018101D02*
X053849Y018101D01*
X052869Y018101D02*
X052349Y018101D01*
X052349Y019101D02*
X052869Y019101D01*
X053849Y019101D02*
X054369Y019101D01*
X054369Y020101D02*
X053849Y020101D01*
X056849Y020101D02*
X057369Y020101D01*
X057369Y019101D02*
X056849Y019101D01*
X056849Y018101D02*
X057369Y018101D01*
X057369Y017101D02*
X056849Y017101D01*
X056849Y016101D02*
X057369Y016101D01*
X057369Y015101D02*
X056849Y015101D01*
X056849Y014101D02*
X057369Y014101D01*
X057369Y013101D02*
X056849Y013101D01*
X049869Y018101D02*
X049349Y018101D01*
X047869Y018101D02*
X047349Y018101D01*
X047349Y019101D02*
X047869Y019101D01*
X049349Y019101D02*
X049869Y019101D01*
X047869Y020101D02*
X047349Y020101D01*
X047349Y021101D02*
X047869Y021101D01*
X047869Y022101D02*
X047349Y022101D01*
X047349Y023101D02*
X047869Y023101D01*
X047869Y024101D02*
X047349Y024101D01*
X047349Y025101D02*
X047869Y025101D01*
X044869Y025101D02*
X044349Y025101D01*
X044349Y024101D02*
X044869Y024101D01*
X044869Y023101D02*
X044349Y023101D01*
X044349Y022101D02*
X044869Y022101D01*
X043109Y026841D02*
X043109Y027361D01*
X042109Y027361D02*
X042109Y026841D01*
X041109Y026841D02*
X041109Y027361D01*
X040109Y027361D02*
X040109Y026841D01*
X039109Y026841D02*
X039109Y027361D01*
X038109Y027361D02*
X038109Y026841D01*
X037109Y026841D02*
X037109Y027361D01*
X036109Y027361D02*
X036109Y026841D01*
X035109Y026841D02*
X035109Y027361D01*
X034109Y027361D02*
X034109Y026841D01*
X033109Y026841D02*
X033109Y027361D01*
X032109Y027361D02*
X032109Y026841D01*
X031109Y026841D02*
X031109Y027361D01*
X030109Y027361D02*
X030109Y026841D01*
X029109Y026841D02*
X029109Y027361D01*
X028109Y027361D02*
X028109Y026841D01*
X027109Y026841D02*
X027109Y027361D01*
X026109Y027361D02*
X026109Y026841D01*
X025109Y026841D02*
X025109Y027361D01*
X024109Y027361D02*
X024109Y026841D01*
X023109Y026841D02*
X023109Y027361D01*
X022109Y027361D02*
X022109Y026841D01*
X021109Y026841D02*
X021109Y027361D01*
X020109Y027361D02*
X020109Y026841D01*
X019109Y026841D02*
X019109Y027361D01*
X018109Y027361D02*
X018109Y026841D01*
X017109Y026841D02*
X017109Y027361D01*
X016109Y027361D02*
X016109Y026841D01*
X015109Y026841D02*
X015109Y027361D01*
X014109Y027361D02*
X014109Y026841D01*
X013109Y026841D02*
X013109Y027361D01*
X012109Y027361D02*
X012109Y026841D01*
X011109Y026841D02*
X011109Y027361D01*
X010109Y027361D02*
X010109Y026841D01*
X009109Y026841D02*
X009109Y027361D01*
X008109Y027361D02*
X008109Y026841D01*
X007109Y026841D02*
X007109Y027361D01*
X006109Y027361D02*
X006109Y026841D01*
X005109Y026841D02*
X005109Y027361D01*
X004109Y027361D02*
X004109Y026841D01*
X004109Y021361D02*
X004109Y020841D01*
D11*
X049609Y021101D03*
X051609Y021101D03*
X054109Y006601D03*
X054109Y005601D03*
X054109Y004601D03*
X056109Y004601D03*
X056109Y005601D03*
X056109Y006601D03*
X056109Y003601D03*
X054109Y003601D03*
D12*
X054109Y023601D03*
X055109Y023601D03*
X056109Y023601D03*
X057109Y023601D03*
X058109Y023601D03*
X059109Y023601D03*
X060109Y023601D03*
X061109Y023601D03*
X061109Y024601D03*
X060109Y024601D03*
X059109Y024601D03*
X058109Y024601D03*
X057109Y024601D03*
X056109Y024601D03*
X055109Y024601D03*
X054109Y024601D03*
X051609Y024601D03*
X050609Y024601D03*
X049609Y024601D03*
X049609Y023601D03*
X050609Y023601D03*
X051609Y023601D03*
D13*
X060109Y019398D02*
X060109Y018804D01*
X061109Y018804D02*
X061109Y019398D01*
X061109Y015898D02*
X061109Y015304D01*
X060109Y015304D02*
X060109Y015898D01*
X059109Y015898D02*
X059109Y015304D01*
X059109Y012398D02*
X059109Y011804D01*
X060109Y011804D02*
X060109Y012398D01*
X061109Y012398D02*
X061109Y011804D01*
X061109Y008898D02*
X061109Y008304D01*
X060109Y008304D02*
X060109Y008898D01*
X059109Y008898D02*
X059109Y008304D01*
X058109Y008304D02*
X058109Y008898D01*
X057109Y008898D02*
X057109Y008304D01*
X058109Y005398D02*
X058109Y004804D01*
X059109Y004804D02*
X059109Y005398D01*
X060109Y005398D02*
X060109Y004804D01*
X061109Y004804D02*
X061109Y005398D01*
D14*
X042609Y022101D03*
X042609Y023101D03*
X042609Y024101D03*
X042609Y025101D03*
X042609Y026101D03*
X039609Y026101D03*
X039609Y025101D03*
X039609Y024101D03*
X039609Y023101D03*
X039609Y022101D03*
X037609Y022101D03*
X037609Y023101D03*
X037609Y024101D03*
X037609Y025101D03*
X037609Y026101D03*
X034609Y026101D03*
X034609Y025101D03*
X034609Y024101D03*
X034609Y023101D03*
X034609Y022101D03*
X032609Y022101D03*
X032609Y023101D03*
X032609Y024101D03*
X032609Y025101D03*
X032609Y026101D03*
X029609Y026101D03*
X029609Y025101D03*
X027609Y025101D03*
X027609Y026101D03*
X024609Y026101D03*
X024609Y025101D03*
X022609Y025101D03*
X022609Y026101D03*
X019609Y026101D03*
X019609Y025101D03*
X017609Y025101D03*
X017609Y026101D03*
X014609Y026101D03*
X014609Y025101D03*
X012609Y025101D03*
X012609Y026101D03*
X009609Y026101D03*
X009609Y025101D03*
X007609Y025101D03*
X007609Y026101D03*
X004609Y026101D03*
X004609Y025101D03*
X004609Y024101D03*
X004609Y023101D03*
X004609Y022101D03*
X007609Y022101D03*
X007609Y023101D03*
X007609Y024101D03*
X009609Y024101D03*
X009609Y023101D03*
X009609Y022101D03*
X012609Y022101D03*
X012609Y023101D03*
X012609Y024101D03*
X014609Y024101D03*
X014609Y023101D03*
X014609Y022101D03*
X017609Y022101D03*
X017609Y023101D03*
X017609Y024101D03*
X019609Y024101D03*
X019609Y023101D03*
X019609Y022101D03*
X022609Y022101D03*
X022609Y023101D03*
X022609Y024101D03*
X024609Y024101D03*
X024609Y023101D03*
X024609Y022101D03*
X027609Y022101D03*
X027609Y023101D03*
X027609Y024101D03*
X029609Y024101D03*
X029609Y023101D03*
X029609Y022101D03*
D15*
X005609Y001601D03*
X007609Y001601D03*
X010609Y001601D03*
X012609Y001601D03*
X015609Y001601D03*
X017609Y001601D03*
X020609Y001601D03*
X022609Y001601D03*
X025609Y001601D03*
X027609Y001601D03*
X030609Y001601D03*
X032609Y001601D03*
X035609Y001601D03*
X037609Y001601D03*
X040609Y001601D03*
X042609Y001601D03*
X045609Y001601D03*
X047609Y001601D03*
X050609Y001601D03*
X052609Y001601D03*
X059109Y021601D03*
X061109Y021601D03*
D16*
X052109Y025851D03*
X049109Y025851D03*
X049109Y027851D03*
X052109Y027851D03*
D17*
X042609Y024101D02*
X042569Y024101D01*
X039629Y024101D01*
X039609Y024101D01*
X039569Y024101D01*
X037649Y024101D01*
X037609Y024101D01*
X037589Y024101D01*
X036089Y024101D01*
X036089Y027101D01*
X036109Y027101D01*
X031109Y027101D02*
X031109Y024101D01*
X029609Y024101D01*
X027629Y024101D01*
X027609Y024101D01*
X027569Y024101D01*
X026069Y024101D01*
X026069Y027101D01*
X026109Y027101D01*
X021109Y027101D02*
X021089Y027101D01*
X021089Y024101D01*
X022589Y024101D01*
X022609Y024101D01*
X021089Y024101D02*
X019649Y024101D01*
X019609Y024101D01*
X019589Y024101D01*
X017609Y024101D01*
X016109Y024101D01*
X014609Y024101D01*
X012629Y024101D01*
X012609Y024101D01*
X012569Y024101D01*
X011069Y024101D01*
X011069Y027101D01*
X011109Y027101D01*
X006109Y027101D02*
X006089Y027101D01*
X006089Y024101D01*
X004649Y024101D01*
X004609Y024101D01*
X006089Y024101D02*
X006089Y021101D01*
X006109Y021101D01*
X011069Y021101D02*
X011109Y021101D01*
X011069Y021101D02*
X011069Y024101D01*
X009629Y024101D01*
X009609Y024101D01*
X009569Y024101D01*
X007649Y024101D01*
X007609Y024101D01*
X016109Y024101D02*
X016109Y021101D01*
X021089Y021101D02*
X021109Y021101D01*
X021089Y021101D02*
X021089Y024101D01*
X024609Y024101D02*
X024629Y024101D01*
X026069Y024101D01*
X026069Y021101D01*
X026109Y021101D01*
X031109Y021101D02*
X031109Y024101D01*
X032609Y024101D01*
X034589Y024101D01*
X034609Y024101D01*
X034649Y024101D01*
X036089Y024101D01*
X036089Y021101D01*
X036109Y021101D01*
X041109Y021101D02*
X041129Y021101D01*
X041129Y017501D01*
X044009Y017501D01*
X044609Y018101D01*
X045029Y018641D02*
X046409Y018641D01*
X046949Y018101D01*
X047609Y018101D01*
X047609Y019101D02*
X047609Y019121D01*
X047969Y019481D01*
X049589Y019481D01*
X049589Y021101D01*
X049609Y021101D01*
X049589Y021101D01*
X049589Y019481D02*
X053489Y019481D01*
X053759Y019751D01*
X053789Y019721D01*
X057569Y019721D01*
X057689Y019841D01*
X060389Y019841D01*
X061109Y019121D01*
X061109Y019101D01*
X057149Y016061D02*
X057109Y016101D01*
X057149Y016061D02*
X057569Y015641D01*
X059069Y015641D01*
X059109Y015601D01*
X058889Y014921D02*
X058949Y014861D01*
X060389Y014861D01*
X061109Y015581D01*
X061109Y015601D01*
X061109Y015521D01*
X061109Y012101D01*
X059109Y012101D02*
X059069Y012101D01*
X058529Y012101D01*
X058529Y009341D01*
X057869Y009341D01*
X057149Y008621D01*
X057109Y008601D01*
X058529Y009341D02*
X058529Y005141D01*
X058109Y005141D01*
X058109Y005101D01*
X058109Y005081D01*
X057029Y004001D01*
X053009Y004001D01*
X052649Y003641D01*
X052609Y003601D01*
X052109Y002081D02*
X048089Y002081D01*
X047609Y001601D01*
X046109Y001121D02*
X045629Y001601D01*
X045609Y001601D01*
X046109Y001121D02*
X050129Y001121D01*
X050609Y001601D01*
X052109Y002081D02*
X052589Y001601D01*
X052609Y001601D01*
X047609Y003101D02*
X047189Y002681D01*
X042209Y002681D01*
X042179Y002711D01*
X042569Y003101D01*
X042609Y003101D01*
X042179Y002711D02*
X042149Y002681D01*
X038069Y002681D01*
X038039Y002711D01*
X038009Y002681D01*
X033029Y002681D01*
X032999Y002711D01*
X032969Y002681D01*
X028049Y002681D01*
X028019Y002711D01*
X027989Y002681D01*
X023069Y002681D01*
X023039Y002711D01*
X023009Y002681D01*
X018029Y002681D01*
X017999Y002711D01*
X017969Y002681D01*
X013049Y002681D01*
X013019Y002711D01*
X012989Y002681D01*
X008069Y002681D01*
X007649Y003101D01*
X007609Y003101D01*
X012609Y003101D02*
X012629Y003101D01*
X013019Y002711D01*
X017609Y003101D02*
X017999Y002711D01*
X022609Y003101D02*
X022649Y003101D01*
X023039Y002711D01*
X027609Y003101D02*
X027629Y003101D01*
X028019Y002711D01*
X032609Y003101D02*
X032999Y002711D01*
X037609Y003101D02*
X037649Y003101D01*
X038039Y002711D01*
X039209Y009701D02*
X039569Y010061D01*
X039609Y010101D01*
X039209Y009701D02*
X035009Y009701D01*
X034979Y009731D01*
X034949Y009701D01*
X029969Y009701D01*
X029939Y009731D01*
X029909Y009701D01*
X024989Y009701D01*
X024959Y009731D01*
X024929Y009701D01*
X020009Y009701D01*
X019979Y009731D01*
X019949Y009701D01*
X014969Y009701D01*
X014939Y009731D01*
X014909Y009701D01*
X009989Y009701D01*
X009959Y009731D01*
X009929Y009701D01*
X005009Y009701D01*
X004649Y010061D01*
X004609Y010101D01*
X009609Y010101D02*
X009629Y010061D01*
X009959Y009731D01*
X014609Y010061D02*
X014939Y009731D01*
X014609Y010061D02*
X014609Y010101D01*
X019609Y010101D02*
X019649Y010061D01*
X019979Y009731D01*
X024609Y010101D02*
X024629Y010061D01*
X024959Y009731D01*
X029609Y010061D02*
X029939Y009731D01*
X029609Y010061D02*
X029609Y010101D01*
X034609Y010101D02*
X034649Y010061D01*
X034979Y009731D01*
X044249Y017501D02*
X044609Y017141D01*
X044609Y017101D01*
X044249Y017501D02*
X044009Y017501D01*
X045029Y018641D02*
X044609Y019061D01*
X044609Y019101D01*
X053759Y019751D02*
X054089Y020081D01*
X054109Y020101D01*
X057109Y015101D02*
X057149Y015101D01*
X057329Y014921D01*
X058889Y014921D01*
X057109Y013101D02*
X057149Y013061D01*
X058109Y012101D01*
X058529Y012101D01*
X016109Y024101D02*
X016109Y027101D01*
D18*
X014129Y027101D02*
X014109Y027101D01*
X014129Y027101D02*
X014129Y025121D01*
X014609Y025121D01*
X014609Y025101D01*
X012609Y025101D02*
X012569Y025121D01*
X012149Y025121D01*
X012149Y027101D01*
X012109Y027101D01*
X009149Y027101D02*
X009109Y027101D01*
X009149Y027101D02*
X009149Y025121D01*
X009569Y025121D01*
X009609Y025101D01*
X007609Y025101D02*
X007589Y025061D01*
X007169Y025061D01*
X007109Y025061D01*
X007109Y027101D01*
X004609Y026101D02*
X004589Y026081D01*
X003749Y026081D01*
X003749Y016961D01*
X004589Y016121D01*
X004609Y016101D01*
X006689Y016181D02*
X007589Y017081D01*
X007609Y017101D01*
X008249Y015701D02*
X008249Y021101D01*
X008129Y021101D01*
X008109Y021101D01*
X007109Y021101D02*
X006449Y020441D01*
X005969Y020441D01*
X004649Y019121D01*
X004609Y019101D01*
X004229Y018701D02*
X005249Y018701D01*
X005249Y014441D01*
X005249Y013961D01*
X006809Y012401D01*
X007289Y012401D01*
X007589Y012101D01*
X007609Y012101D01*
X007589Y012101D01*
X004609Y012101D02*
X004589Y012101D01*
X003989Y012101D01*
X003989Y006701D01*
X004589Y006101D01*
X004609Y006101D01*
X005009Y006701D02*
X009209Y006701D01*
X009569Y007061D01*
X009609Y007101D01*
X009629Y007121D01*
X009989Y007481D01*
X014969Y007481D01*
X020009Y007481D01*
X024989Y007481D01*
X029969Y007481D01*
X035009Y007481D01*
X034649Y007121D01*
X034609Y007101D01*
X035009Y007481D02*
X039209Y007481D01*
X047789Y007481D01*
X048269Y007961D01*
X051989Y007961D01*
X052589Y008561D01*
X052609Y008601D01*
X052649Y008561D01*
X054089Y008561D01*
X054089Y006641D01*
X054109Y006601D01*
X054509Y006401D02*
X054509Y009221D01*
X048269Y009221D01*
X047789Y009701D01*
X042989Y009701D01*
X042629Y010061D01*
X042609Y010101D01*
X042569Y010121D01*
X042209Y010481D01*
X038009Y010481D01*
X032969Y010481D01*
X027989Y010481D01*
X023009Y010481D01*
X017969Y010481D01*
X012989Y010481D01*
X008009Y010481D01*
X007649Y010121D01*
X007609Y010101D01*
X008009Y009461D02*
X012989Y009461D01*
X017969Y009461D01*
X023009Y009461D01*
X027989Y009461D01*
X032969Y009461D01*
X038009Y009461D01*
X037649Y009101D01*
X037609Y009101D01*
X038009Y009461D02*
X042209Y009461D01*
X042569Y009101D01*
X042609Y009101D01*
X042609Y008101D02*
X042569Y008081D01*
X042209Y007721D01*
X038009Y007721D01*
X032969Y007721D01*
X027989Y007721D01*
X023009Y007721D01*
X017969Y007721D01*
X012989Y007721D01*
X008009Y007721D01*
X007649Y008081D01*
X007609Y008101D01*
X007649Y009101D02*
X007609Y009101D01*
X007649Y009101D02*
X008009Y009461D01*
X009629Y008141D02*
X009989Y008501D01*
X044249Y008501D01*
X044609Y008141D01*
X044609Y008101D01*
X044189Y008681D02*
X005189Y008681D01*
X004649Y008141D01*
X004609Y008101D01*
X004609Y007101D02*
X004649Y007061D01*
X005009Y006701D01*
X009609Y006101D02*
X009629Y006101D01*
X010409Y005321D01*
X010949Y005321D01*
X014609Y006101D02*
X014729Y006221D01*
X015989Y006221D01*
X014969Y007481D02*
X014609Y007121D01*
X014609Y007101D01*
X012989Y007721D02*
X012629Y008081D01*
X012609Y008101D01*
X012629Y009101D02*
X012609Y009101D01*
X012629Y009101D02*
X012989Y009461D01*
X012609Y010101D02*
X012629Y010121D01*
X012989Y010481D01*
X012609Y012101D02*
X012569Y012101D01*
X010229Y014441D01*
X010229Y018701D01*
X009209Y018701D01*
X008969Y018941D01*
X008969Y021101D01*
X009089Y021101D01*
X009109Y021101D01*
X010109Y021101D02*
X010109Y023081D01*
X009629Y023081D01*
X009609Y023101D01*
X008489Y023681D02*
X007469Y023681D01*
X007169Y023981D01*
X007169Y025061D01*
X008489Y023681D02*
X008489Y014981D01*
X007649Y014141D01*
X007609Y014101D01*
X007649Y015101D02*
X007609Y015101D01*
X007649Y015101D02*
X008249Y015701D01*
X012609Y015101D02*
X012629Y015101D01*
X013229Y015701D01*
X013229Y021101D01*
X013169Y021101D01*
X013109Y021101D01*
X013169Y021101D01*
X013169Y022541D01*
X012629Y023081D01*
X012609Y023101D01*
X014609Y023081D02*
X014609Y023101D01*
X014609Y023081D02*
X015089Y023081D01*
X015089Y021101D01*
X015109Y021101D01*
X014109Y021101D02*
X014069Y021101D01*
X013949Y021101D01*
X013949Y018941D01*
X014189Y018701D01*
X015269Y018701D01*
X015269Y014441D01*
X017609Y012101D01*
X017969Y010481D02*
X017609Y010121D01*
X017609Y010101D01*
X017969Y009461D02*
X017609Y009101D01*
X017609Y008101D02*
X017609Y008081D01*
X017969Y007721D01*
X019609Y007101D02*
X019649Y007121D01*
X020009Y007481D01*
X019769Y006221D02*
X020969Y006221D01*
X019769Y006221D02*
X019649Y006101D01*
X019609Y006101D01*
X022649Y008081D02*
X023009Y007721D01*
X022649Y008081D02*
X022609Y008101D01*
X022649Y009101D02*
X022609Y009101D01*
X022649Y009101D02*
X023009Y009461D01*
X022649Y010121D02*
X022609Y010101D01*
X022649Y010121D02*
X023009Y010481D01*
X022609Y012101D02*
X022589Y012101D01*
X020249Y014441D01*
X020249Y018701D01*
X019229Y018701D01*
X018989Y018941D01*
X018989Y021101D01*
X019109Y021101D01*
X020969Y020441D02*
X021449Y020441D01*
X022109Y021101D01*
X022109Y022061D01*
X022589Y022061D01*
X022609Y022101D01*
X024609Y023101D02*
X024629Y023081D01*
X025109Y023081D01*
X025109Y021101D01*
X024109Y021101D02*
X024089Y021101D01*
X023969Y021101D01*
X023969Y018941D01*
X024209Y018701D01*
X025229Y018701D01*
X025229Y014441D01*
X027569Y012101D01*
X027609Y012101D01*
X027989Y010481D02*
X027629Y010121D01*
X027609Y010101D01*
X027989Y009461D02*
X027629Y009101D01*
X027609Y009101D01*
X027609Y008101D02*
X027629Y008081D01*
X027989Y007721D01*
X029609Y007121D02*
X029609Y007101D01*
X029609Y007121D02*
X029969Y007481D01*
X032609Y008081D02*
X032609Y008101D01*
X032609Y008081D02*
X032969Y007721D01*
X032609Y009101D02*
X032969Y009461D01*
X032609Y010101D02*
X032609Y010121D01*
X032969Y010481D01*
X032609Y012101D02*
X030269Y014441D01*
X030269Y018701D01*
X029189Y018701D01*
X028949Y018941D01*
X028949Y021101D01*
X029069Y021101D01*
X029109Y021101D01*
X028229Y021101D02*
X028169Y021101D01*
X028109Y021101D01*
X028169Y021101D01*
X028169Y022541D01*
X027629Y023081D01*
X027609Y023101D01*
X029609Y023081D02*
X029609Y023101D01*
X029609Y023081D02*
X030089Y023081D01*
X030089Y021101D01*
X030109Y021101D01*
X030929Y020441D02*
X031409Y020441D01*
X032069Y021101D01*
X032109Y021101D01*
X030929Y020441D02*
X029609Y019121D01*
X029609Y019101D01*
X027089Y021101D02*
X026429Y020441D01*
X025949Y020441D01*
X024629Y019121D01*
X024609Y019101D01*
X020969Y020441D02*
X019649Y019121D01*
X019609Y019101D01*
X017069Y021101D02*
X016409Y020441D01*
X015929Y020441D01*
X014609Y019121D01*
X014609Y019101D01*
X012089Y021101D02*
X011429Y020441D01*
X010949Y020441D01*
X009629Y019121D01*
X009609Y019101D01*
X012089Y021101D02*
X012109Y021101D01*
X017069Y021101D02*
X017109Y021101D01*
X023109Y021101D02*
X023129Y021101D01*
X023249Y021101D01*
X023249Y015701D01*
X022649Y015101D01*
X022609Y015101D01*
X021689Y014561D02*
X021689Y017081D01*
X022589Y017081D01*
X022609Y017101D01*
X018569Y016121D02*
X017609Y017081D01*
X017609Y017101D01*
X022649Y013121D02*
X023489Y013961D01*
X023489Y026081D01*
X022649Y026081D01*
X022609Y026101D01*
X022589Y025121D02*
X022609Y025101D01*
X022589Y025121D02*
X022109Y025121D01*
X022109Y027101D01*
X024109Y027101D02*
X024149Y027101D01*
X024149Y025121D01*
X024569Y025121D01*
X024609Y025101D01*
X027149Y025121D02*
X027569Y025121D01*
X027609Y025101D01*
X027149Y025121D02*
X027149Y027101D01*
X027109Y027101D01*
X029109Y027101D02*
X029129Y027101D01*
X029129Y025121D01*
X029609Y025121D01*
X029609Y025101D01*
X034109Y025121D02*
X034109Y027101D01*
X037109Y027101D02*
X037109Y025121D01*
X037589Y025121D01*
X037609Y025101D01*
X034609Y025101D02*
X034589Y025121D01*
X034109Y025121D01*
X038429Y023741D02*
X038489Y023741D01*
X038489Y013961D01*
X037649Y013121D01*
X037609Y013101D01*
X037609Y012101D02*
X037589Y012101D01*
X035249Y014441D01*
X035249Y018701D01*
X034229Y018701D01*
X033989Y018941D01*
X033989Y021101D01*
X034109Y021101D01*
X035969Y020441D02*
X036449Y020441D01*
X037109Y021101D01*
X037109Y022061D01*
X037589Y022061D01*
X037609Y022101D01*
X038109Y021101D02*
X038129Y021101D01*
X038249Y021101D01*
X038249Y015701D01*
X037649Y015101D01*
X037609Y015101D01*
X036749Y014981D02*
X036389Y014981D01*
X036749Y014981D02*
X037589Y014141D01*
X037609Y014101D01*
X036689Y015341D02*
X037409Y016061D01*
X037589Y016061D01*
X037609Y016101D01*
X040709Y016001D02*
X040709Y021761D01*
X042389Y021761D01*
X042449Y021701D01*
X042809Y021701D01*
X043049Y021941D01*
X043049Y025061D01*
X042629Y025061D01*
X042609Y025101D01*
X042569Y025121D01*
X042149Y025121D01*
X042149Y027101D01*
X042109Y027101D01*
X050609Y023621D02*
X050609Y023601D01*
X050609Y023621D02*
X051029Y024041D01*
X054689Y024041D01*
X055109Y023621D01*
X055109Y023601D01*
X055529Y021701D02*
X057089Y020141D01*
X057109Y020101D01*
X059549Y022421D02*
X060689Y023561D01*
X060689Y024581D01*
X061109Y024581D01*
X061109Y024601D01*
X059549Y022421D02*
X048929Y022421D01*
X047609Y021101D01*
X044609Y020101D02*
X044609Y020081D01*
X043949Y019421D01*
X043949Y018461D01*
X046349Y018461D01*
X047309Y017501D01*
X058229Y017501D01*
X060089Y015641D01*
X060109Y015601D01*
X058049Y017201D02*
X057329Y016481D01*
X055289Y016481D01*
X054269Y015461D01*
X048689Y015461D01*
X048329Y015101D01*
X047609Y015101D01*
X045989Y015101D01*
X045629Y014741D01*
X043949Y014741D01*
X043949Y011981D01*
X044369Y011561D01*
X046169Y011561D01*
X047609Y010121D01*
X047609Y010101D01*
X044609Y009101D02*
X044189Y008681D01*
X047609Y007121D02*
X047609Y007101D01*
X047609Y007121D02*
X047789Y007301D01*
X048569Y007301D01*
X052609Y006601D02*
X052649Y006581D01*
X053129Y006581D01*
X053909Y005801D01*
X054509Y006401D01*
X053909Y005801D02*
X054089Y005621D01*
X054109Y005601D01*
X054109Y003601D02*
X054089Y003581D01*
X053729Y003221D01*
X050009Y003221D01*
X049649Y003581D01*
X049609Y003601D01*
X040949Y006221D02*
X039749Y006221D01*
X039629Y006101D01*
X039609Y006101D01*
X039609Y007101D02*
X039569Y007121D01*
X039209Y007481D01*
X038009Y007721D02*
X037649Y008081D01*
X037609Y008101D01*
X037529Y007181D02*
X036689Y007181D01*
X037529Y007181D02*
X037589Y007121D01*
X037609Y007101D01*
X035969Y006221D02*
X034769Y006221D01*
X034649Y006101D01*
X034609Y006101D01*
X030989Y006221D02*
X029729Y006221D01*
X029609Y006101D01*
X025949Y006221D02*
X024749Y006221D01*
X024629Y006101D01*
X024609Y006101D01*
X024609Y007101D02*
X024629Y007121D01*
X024989Y007481D01*
X022609Y013101D02*
X022649Y013121D01*
X027609Y015101D02*
X027629Y015101D01*
X028229Y015701D01*
X028229Y021101D01*
X027109Y021101D02*
X027089Y021101D01*
X034609Y019101D02*
X034649Y019121D01*
X035969Y020441D01*
X038969Y021101D02*
X039089Y021101D01*
X039109Y021101D01*
X038969Y021101D02*
X038969Y018941D01*
X039209Y018701D01*
X040229Y018701D01*
X040229Y014441D01*
X042569Y012101D01*
X042609Y012101D01*
X044609Y013061D02*
X044969Y012701D01*
X054509Y012701D01*
X056009Y014201D01*
X055829Y013541D02*
X054809Y012521D01*
X048029Y012521D01*
X047609Y012101D01*
X044609Y013061D02*
X044609Y013101D01*
X044969Y013721D02*
X050969Y013721D01*
X052609Y012101D02*
X052649Y012101D01*
X055109Y012101D01*
X057089Y014081D01*
X057109Y014101D01*
X057689Y014501D02*
X060089Y012101D01*
X060109Y012101D01*
X057689Y014501D02*
X046649Y014501D01*
X046349Y014801D01*
X044969Y013721D02*
X044609Y014081D01*
X044609Y014101D01*
X042609Y014101D02*
X042569Y014141D01*
X040709Y016001D01*
X039609Y019101D02*
X039629Y019121D01*
X039629Y021701D01*
X039929Y021701D01*
X040289Y022061D01*
X042569Y022061D01*
X042609Y022101D01*
X033569Y016121D02*
X032609Y017081D01*
X032609Y017101D01*
X038009Y010481D02*
X037649Y010121D01*
X037609Y010101D01*
X009629Y008141D02*
X009609Y008101D01*
X004229Y018701D02*
X003989Y018941D01*
X003989Y021101D01*
X004109Y021101D01*
X005069Y021101D02*
X005109Y021101D01*
X005069Y021101D02*
X005069Y023081D01*
X004649Y023081D01*
X004609Y023101D01*
X019109Y025121D02*
X019589Y025121D01*
X019609Y025101D01*
X019109Y025121D02*
X019109Y027101D01*
D19*
X016949Y020141D03*
X018569Y016121D03*
X021689Y014561D03*
X016469Y014261D03*
X018149Y011441D03*
X021989Y010781D03*
X021269Y008021D03*
X020969Y006221D03*
X021749Y005741D03*
X025949Y006221D03*
X026429Y004481D03*
X030989Y006221D03*
X035969Y006221D03*
X036689Y007181D03*
X040949Y006221D03*
X043769Y005741D03*
X043889Y006581D03*
X048569Y007301D03*
X053489Y008921D03*
X053549Y011741D03*
X055829Y013541D03*
X056009Y014201D03*
X053369Y016601D03*
X051569Y016781D03*
X050549Y016181D03*
X048569Y015761D03*
X046349Y014801D03*
X050969Y013721D03*
X058049Y017201D03*
X058349Y018581D03*
X058349Y019481D03*
X058529Y020201D03*
X055529Y021701D03*
X049949Y022721D03*
X048689Y025301D03*
X038429Y023741D03*
X031949Y020141D03*
X033569Y016121D03*
X036389Y014981D03*
X036689Y015341D03*
X031469Y014261D03*
X033149Y011441D03*
X016469Y006701D03*
X015989Y006221D03*
X016109Y008021D03*
X010949Y005321D03*
X006989Y010721D03*
X006689Y016181D03*
X031889Y003581D03*
X033689Y003221D03*
X055409Y018881D03*
D20*
X056009Y019481D01*
X058349Y019481D01*
X058529Y020201D02*
X056729Y022001D01*
X050009Y022001D01*
X048749Y020741D01*
X046949Y020741D01*
X044609Y023081D01*
X044609Y023101D01*
X044609Y024101D02*
X046829Y026321D01*
X059969Y026321D01*
X061649Y024641D01*
X061649Y005801D01*
X060809Y005801D01*
X060149Y005141D01*
X060109Y005101D01*
X060109Y008601D02*
X060149Y008621D01*
X060869Y009341D01*
X061529Y009341D01*
X061529Y016061D01*
X059909Y017681D01*
X056729Y017681D01*
X055949Y018461D01*
X046829Y018461D01*
X046829Y019841D01*
X044609Y022061D01*
X044609Y022101D01*
X046949Y022781D02*
X046949Y026201D01*
X058529Y026201D01*
X060089Y024641D01*
X060109Y024601D01*
X059109Y024601D02*
X059069Y024581D01*
X058709Y024581D01*
X058709Y023621D01*
X058049Y022961D01*
X050309Y022961D01*
X050249Y023021D01*
X047669Y023021D01*
X047609Y023081D01*
X047609Y023101D01*
X046949Y022781D02*
X047609Y022121D01*
X047609Y022101D01*
X049949Y022721D02*
X059249Y022721D01*
X060089Y023561D01*
X060109Y023601D01*
X061109Y023561D02*
X061109Y023601D01*
X061109Y023561D02*
X061529Y023561D01*
X061529Y018641D01*
X061289Y018401D01*
X059909Y018401D01*
X059729Y018581D01*
X058349Y018581D01*
X046949Y018581D01*
X046949Y019421D01*
X047609Y020081D01*
X047609Y020101D01*
X050369Y023081D02*
X050009Y023441D01*
X050009Y024581D01*
X049649Y024581D01*
X049609Y024601D01*
X050189Y024581D02*
X050609Y024581D01*
X050609Y024601D01*
X050189Y024581D02*
X050189Y023441D01*
X050429Y023201D01*
X056729Y023201D01*
X057089Y023561D01*
X057109Y023601D01*
X057509Y023801D02*
X057509Y023081D01*
X050369Y023081D01*
X051609Y024601D02*
X051569Y024641D01*
X051209Y025001D01*
X047669Y025001D01*
X047609Y025061D01*
X047609Y025101D01*
X048689Y025301D02*
X048869Y025121D01*
X057629Y025121D01*
X058109Y024641D01*
X058109Y024601D01*
X057509Y023801D02*
X057269Y024041D01*
X056549Y024041D01*
X056129Y023621D01*
X056109Y023601D01*
X057109Y017101D02*
X057089Y017081D01*
X056669Y016661D01*
X053369Y016661D01*
X053369Y016601D01*
X053369Y016661D02*
X051869Y016661D01*
X051689Y016481D01*
X047969Y016481D01*
X047609Y016121D01*
X047609Y016101D01*
X047969Y016721D02*
X051509Y016721D01*
X051569Y016781D01*
X050549Y016181D02*
X050069Y015701D01*
X048509Y015701D01*
X048569Y015761D01*
X048509Y015701D01*
X044969Y015701D01*
X044609Y016061D01*
X044609Y016101D01*
X047609Y017081D02*
X047609Y017101D01*
X047609Y017081D02*
X047969Y016721D01*
X044609Y012101D02*
X044969Y011741D01*
X053549Y011741D01*
X053369Y009041D02*
X047669Y009041D01*
X047609Y009101D01*
X044609Y007101D02*
X044609Y007061D01*
X044429Y006881D01*
X043169Y006881D01*
X042989Y006701D01*
X016469Y006701D01*
X016109Y008021D02*
X016049Y008081D01*
X014609Y008081D01*
X014609Y008101D01*
X019609Y008101D02*
X019649Y008081D01*
X021209Y008081D01*
X021269Y008021D01*
X021749Y005741D02*
X043049Y005741D01*
X043349Y006041D01*
X044549Y006041D01*
X044609Y006101D01*
X044729Y005741D02*
X043769Y005741D01*
X043889Y006581D02*
X047909Y006581D01*
X048269Y006221D01*
X050969Y006221D01*
X052589Y004601D01*
X052609Y004601D01*
X049609Y003601D02*
X049589Y003641D01*
X048509Y004721D01*
X045749Y004721D01*
X044729Y005741D01*
X044609Y005101D02*
X044609Y005081D01*
X044009Y004481D01*
X026429Y004481D01*
X031889Y003581D02*
X044129Y003581D01*
X044609Y004061D01*
X044609Y004101D01*
X044249Y003461D02*
X033929Y003461D01*
X033689Y003221D01*
X044249Y003461D02*
X044609Y003101D01*
X053369Y009041D02*
X053489Y008921D01*
X033269Y011981D02*
X033269Y016061D01*
X032609Y016061D01*
X032609Y016101D01*
X031949Y014801D02*
X031949Y020141D01*
X022609Y016101D02*
X022589Y016061D01*
X021989Y016061D01*
X021989Y012941D01*
X022229Y012701D01*
X023249Y012701D01*
X023249Y011981D01*
X023009Y011741D01*
X022949Y011741D01*
X021989Y010781D01*
X018269Y011981D02*
X018269Y016061D01*
X017609Y016061D01*
X017609Y016101D01*
X016949Y014801D02*
X016949Y020141D01*
X007609Y016101D02*
X007589Y016061D01*
X006989Y016061D01*
X006989Y013961D01*
X007229Y013721D01*
X008249Y013721D01*
X008249Y011981D01*
X006989Y010721D01*
X016469Y014261D02*
X017609Y013121D01*
X017609Y013101D01*
X017609Y014101D02*
X017609Y014141D01*
X016949Y014801D01*
X018269Y011981D02*
X018149Y011861D01*
X018149Y011441D01*
X031469Y014261D02*
X032609Y013121D01*
X032609Y013101D01*
X032609Y014101D02*
X032609Y014141D01*
X031949Y014801D01*
X033269Y011981D02*
X033149Y011861D01*
X033149Y011441D01*
X032609Y025101D02*
X032609Y025121D01*
X032129Y025121D01*
X032129Y027101D01*
X032109Y027101D01*
X017609Y025121D02*
X017609Y025101D01*
X017609Y025121D02*
X017129Y025121D01*
X017129Y027101D01*
X017109Y027101D01*
M02*
