%
M48
M72
T01C0.0240
T02C0.0315
T03C0.0320
T04C0.0354
T05C0.0394
T06C0.0400
T07C0.1300
%
T01
X14141Y7301
X18821Y6581
X18941Y5741
X21761Y6221
X26021Y7181
X26741Y6221
X31721Y6221
X36281Y4481
X36761Y6221
X40961Y5741
X41741Y6221
X41441Y8021
X46241Y6701
X46721Y6221
X46601Y8021
X51761Y5321
X55721Y10721
X46241Y14261
X44141Y16121
X41021Y14561
X44561Y11441
X40721Y10781
X31241Y14261
X29141Y16121
X26321Y14981
X26021Y15341
X29561Y11441
X16361Y14801
X14141Y15761
X12161Y16181
X11141Y16781
X9341Y16601
X4661Y17201
X4361Y18581
X4361Y19481
X4181Y20201
X7181Y21701
X12761Y22721
X14021Y25301
X24281Y23741
X30761Y20141
X45761Y20141
X56021Y16181
X30821Y3581
X29021Y3221
X9221Y8921
X9161Y11741
X6881Y13541
X6701Y14201
X11741Y13721
X7301Y18881
T02
X10601Y25851
X13601Y25851
X13601Y27851
X10601Y27851
T03
X15101Y25101
X15101Y24101
X15101Y23101
X15101Y22101
X15101Y21101
X15101Y20101
X15101Y19101
X15101Y18101
X15101Y17101
X15101Y16101
X15101Y15101
X15101Y14101
X15101Y13101
X15101Y12101
X13101Y12101
X13101Y13101
X13101Y14101
X13101Y15101
X13101Y16101
X13101Y17101
X13101Y18101
X13101Y19101
X10101Y19101
X10101Y18101
X8601Y18101
X8601Y19101
X8601Y20101
X11101Y21101
X13101Y21101
X18101Y21101
X18101Y20101
X19601Y21101
X20601Y21101
X21601Y21101
X22601Y21101
X23601Y21101
X24601Y21101
X25601Y21101
X26601Y21101
X27601Y21101
X28601Y21101
X29601Y21101
X30601Y21101
X31601Y21101
X32601Y21101
X33601Y21101
X34601Y21101
X35601Y21101
X36601Y21101
X37601Y21101
X38601Y21101
X39601Y21101
X40601Y21101
X41601Y21101
X42601Y21101
X43601Y21101
X44601Y21101
X45601Y21101
X46601Y21101
X47601Y21101
X48601Y21101
X49601Y21101
X50601Y21101
X51601Y21101
X52601Y21101
X53601Y21101
X54601Y21101
X55601Y21101
X56601Y21101
X57601Y21101
X58601Y21101
X58101Y19101
X58101Y18101
X58101Y17101
X58101Y16101
X58101Y15101
X58101Y14101
X58101Y13101
X58101Y12101
X55101Y12101
X55101Y13101
X53101Y13101
X53101Y12101
X50101Y12101
X50101Y13101
X48101Y13101
X48101Y12101
X45101Y12101
X45101Y13101
X43101Y13101
X43101Y12101
X40101Y12101
X40101Y13101
X38101Y13101
X38101Y12101
X35101Y12101
X35101Y13101
X33101Y13101
X33101Y12101
X30101Y12101
X30101Y13101
X30101Y14101
X30101Y15101
X30101Y16101
X30101Y17101
X30101Y18101
X30101Y19101
X28101Y19101
X28101Y18101
X28101Y17101
X28101Y16101
X28101Y15101
X28101Y14101
X28101Y13101
X28101Y12101
X25101Y12101
X25101Y13101
X25101Y14101
X25101Y15101
X25101Y16101
X25101Y17101
X25101Y18101
X25101Y19101
X23101Y19101
X23101Y18101
X23101Y17101
X23101Y16101
X23101Y15101
X23101Y14101
X23101Y13101
X23101Y12101
X20101Y12101
X20101Y13101
X20101Y14101
X20101Y15101
X20101Y16101
X20101Y17101
X20101Y18101
X20101Y19101
X18101Y19101
X18101Y18101
X18101Y17101
X18101Y16101
X18101Y15101
X18101Y14101
X18101Y13101
X18101Y12101
X18101Y10101
X18101Y9101
X18101Y8101
X18101Y7101
X18101Y6101
X18101Y5101
X18101Y4101
X18101Y3101
X20101Y3101
X20101Y4101
X20101Y5101
X20101Y6101
X20101Y7101
X20101Y8101
X20101Y9101
X20101Y10101
X23101Y10101
X23101Y9101
X23101Y8101
X23101Y7101
X23101Y6101
X23101Y5101
X23101Y4101
X23101Y3101
X25101Y3101
X25101Y4101
X25101Y5101
X25101Y6101
X25101Y7101
X25101Y8101
X25101Y9101
X25101Y10101
X28101Y10101
X28101Y9101
X28101Y8101
X28101Y7101
X28101Y6101
X28101Y5101
X28101Y4101
X28101Y3101
X30101Y3101
X30101Y4101
X30101Y5101
X30101Y6101
X30101Y7101
X30101Y8101
X30101Y9101
X30101Y10101
X33101Y10101
X35101Y10101
X35101Y9101
X35101Y8101
X33101Y8101
X33101Y9101
X33101Y7101
X33101Y6101
X35101Y6101
X35101Y7101
X38101Y7101
X38101Y6101
X40101Y6101
X40101Y7101
X40101Y8101
X40101Y9101
X38101Y9101
X38101Y8101
X38101Y10101
X40101Y10101
X43101Y10101
X45101Y10101
X45101Y9101
X45101Y8101
X43101Y8101
X43101Y9101
X43101Y7101
X43101Y6101
X45101Y6101
X45101Y7101
X48101Y7101
X48101Y6101
X50101Y6101
X50101Y7101
X50101Y8101
X50101Y9101
X48101Y9101
X48101Y8101
X48101Y10101
X50101Y10101
X53101Y10101
X55101Y10101
X55101Y9101
X55101Y8101
X53101Y8101
X53101Y9101
X53101Y7101
X53101Y6101
X55101Y6101
X55101Y7101
X58101Y7101
X58101Y6101
X58101Y5101
X58101Y4101
X58101Y3101
X57101Y1601
X55101Y1601
X52101Y1601
X50101Y1601
X47101Y1601
X45101Y1601
X42101Y1601
X40101Y1601
X37101Y1601
X35101Y1601
X32101Y1601
X30101Y1601
X27101Y1601
X25101Y1601
X22101Y1601
X20101Y1601
X17101Y1601
X15101Y1601
X15101Y3101
X15101Y4101
X15101Y5101
X15101Y6101
X15101Y7101
X15101Y8101
X15101Y9101
X15101Y10101
X13101Y9601
X13101Y8601
X13101Y7601
X13101Y6601
X13101Y5601
X13101Y4601
X13101Y3601
X10101Y3601
X8601Y3601
X6601Y3601
X6601Y4601
X6601Y5601
X6601Y6601
X8601Y6601
X8601Y5601
X8601Y4601
X10101Y4601
X10101Y5601
X10101Y6601
X10101Y7601
X10101Y8601
X10101Y9601
X10101Y12101
X10101Y13101
X8601Y13101
X8601Y14101
X8601Y15101
X10101Y15101
X10101Y14101
X10101Y16101
X10101Y17101
X8601Y17101
X8601Y16101
X5601Y16101
X5601Y17101
X5601Y18101
X5601Y19101
X5601Y20101
X3601Y21601
X1601Y21601
X5601Y15101
X5601Y14101
X5601Y13101
X18101Y22101
X18101Y23101
X18101Y24101
X18101Y25101
X19601Y27101
X20601Y27101
X21601Y27101
X22601Y27101
X23601Y27101
X24601Y27101
X25601Y27101
X26601Y27101
X27601Y27101
X28601Y27101
X29601Y27101
X30601Y27101
X31601Y27101
X32601Y27101
X33601Y27101
X34601Y27101
X35601Y27101
X36601Y27101
X37601Y27101
X38601Y27101
X39601Y27101
X40601Y27101
X41601Y27101
X42601Y27101
X43601Y27101
X44601Y27101
X45601Y27101
X46601Y27101
X47601Y27101
X48601Y27101
X49601Y27101
X50601Y27101
X51601Y27101
X52601Y27101
X53601Y27101
X54601Y27101
X55601Y27101
X56601Y27101
X57601Y27101
X58601Y27101
X55101Y19101
X55101Y18101
X53101Y18101
X53101Y19101
X50101Y19101
X50101Y18101
X48101Y18101
X48101Y19101
X45101Y19101
X45101Y18101
X43101Y18101
X43101Y19101
X40101Y19101
X40101Y18101
X38101Y18101
X38101Y19101
X35101Y19101
X35101Y18101
X33101Y18101
X33101Y19101
X33101Y17101
X33101Y16101
X35101Y16101
X35101Y17101
X38101Y17101
X38101Y16101
X40101Y16101
X40101Y17101
X43101Y17101
X43101Y16101
X45101Y16101
X45101Y17101
X48101Y17101
X48101Y16101
X50101Y16101
X50101Y17101
X53101Y17101
X53101Y16101
X55101Y16101
X55101Y17101
X55101Y15101
X55101Y14101
X53101Y14101
X53101Y15101
X50101Y15101
X50101Y14101
X48101Y14101
X48101Y15101
X45101Y15101
X45101Y14101
X43101Y14101
X43101Y15101
X40101Y15101
X40101Y14101
X38101Y14101
X38101Y15101
X35101Y15101
X35101Y14101
X33101Y14101
X33101Y15101
X33101Y5101
X33101Y4101
X35101Y4101
X35101Y5101
X38101Y5101
X38101Y4101
X40101Y4101
X40101Y5101
X43101Y5101
X43101Y4101
X45101Y4101
X45101Y5101
X48101Y5101
X48101Y4101
X50101Y4101
X50101Y5101
X53101Y5101
X53101Y4101
X55101Y4101
X55101Y5101
X55101Y3101
X53101Y3101
X50101Y3101
X48101Y3101
X45101Y3101
X43101Y3101
X40101Y3101
X38101Y3101
X35101Y3101
X33101Y3101
X12101Y1601
X10101Y1601
X58101Y8101
X58101Y9101
X58101Y10101
T04
X58101Y22101
X58101Y23101
X58101Y24101
X58101Y25101
X58101Y26101
X55101Y26101
X55101Y25101
X53101Y25101
X53101Y26101
X50101Y26101
X50101Y25101
X48101Y25101
X48101Y26101
X45101Y26101
X45101Y25101
X43101Y25101
X43101Y26101
X40101Y26101
X40101Y25101
X38101Y25101
X38101Y26101
X35101Y26101
X35101Y25101
X33101Y25101
X33101Y26101
X30101Y26101
X30101Y25101
X30101Y24101
X30101Y23101
X30101Y22101
X28101Y22101
X28101Y23101
X28101Y24101
X28101Y25101
X28101Y26101
X25101Y26101
X25101Y25101
X25101Y24101
X25101Y23101
X25101Y22101
X23101Y22101
X23101Y23101
X23101Y24101
X23101Y25101
X23101Y26101
X20101Y26101
X20101Y25101
X20101Y24101
X20101Y23101
X20101Y22101
X33101Y22101
X33101Y23101
X33101Y24101
X35101Y24101
X35101Y23101
X35101Y22101
X38101Y22101
X38101Y23101
X38101Y24101
X40101Y24101
X40101Y23101
X40101Y22101
X43101Y22101
X43101Y23101
X43101Y24101
X45101Y24101
X45101Y23101
X45101Y22101
X48101Y22101
X48101Y23101
X48101Y24101
X50101Y24101
X50101Y23101
X50101Y22101
X53101Y22101
X53101Y23101
X53101Y24101
X55101Y24101
X55101Y23101
X55101Y22101
T05
X5601Y8601
X4601Y8601
X3601Y8601
X2601Y8601
X1601Y8601
X1601Y5101
X2601Y5101
X3601Y5101
X4601Y5101
X3601Y12101
X2601Y12101
X1601Y12101
X1601Y15601
X2601Y15601
X3601Y15601
X2601Y19101
X1601Y19101
T06
X1601Y23601
X2601Y23601
X3601Y23601
X4601Y23601
X5601Y23601
X6601Y23601
X7601Y23601
X8601Y23601
X8601Y24601
X7601Y24601
X6601Y24601
X5601Y24601
X4601Y24601
X3601Y24601
X2601Y24601
X1601Y24601
X11101Y24601
X12101Y24601
X13101Y24601
X13101Y23601
X12101Y23601
X11101Y23601
T07
X1601Y1601
X1601Y27101
X61101Y27101
X61101Y1601
M30
