<?xml version="1.0" encoding="UTF-8" standalone="no"?>
<!-- Created with Inkscape (http://www.inkscape.org/) -->

<svg
   xmlns:dc="http://purl.org/dc/elements/1.1/"
   xmlns:cc="http://creativecommons.org/ns#"
   xmlns:rdf="http://www.w3.org/1999/02/22-rdf-syntax-ns#"
   xmlns:svg="http://www.w3.org/2000/svg"
   xmlns="http://www.w3.org/2000/svg"
   xmlns:sodipodi="http://sodipodi.sourceforge.net/DTD/sodipodi-0.dtd"
   xmlns:inkscape="http://www.inkscape.org/namespaces/inkscape"
   width="744.09448819"
   height="1052.3622047"
   id="svg2"
   version="1.1"
   inkscape:version="0.47 r22583"
   sodipodi:docname="hijer.svg">
  <defs
     id="defs4">
    <inkscape:perspective
       sodipodi:type="inkscape:persp3d"
       inkscape:vp_x="0 : 526.18109 : 1"
       inkscape:vp_y="0 : 1000 : 0"
       inkscape:vp_z="744.09448 : 526.18109 : 1"
       inkscape:persp3d-origin="372.04724 : 350.78739 : 1"
       id="perspective10" />
  </defs>
  <sodipodi:namedview
     id="base"
     pagecolor="#ffffff"
     bordercolor="#666666"
     borderopacity="1.0"
     inkscape:pageopacity="0.0"
     inkscape:pageshadow="2"
     inkscape:zoom="8.7583032"
     inkscape:cx="178.37124"
     inkscape:cy="837.20192"
     inkscape:document-units="px"
     inkscape:current-layer="text2816"
     showgrid="false"
     inkscape:window-width="896"
     inkscape:window-height="990"
     inkscape:window-x="155"
     inkscape:window-y="87"
     inkscape:window-maximized="0" />
  <metadata
     id="metadata7">
    <rdf:RDF>
      <cc:Work
         rdf:about="">
        <dc:format>image/svg+xml</dc:format>
        <dc:type
           rdf:resource="http://purl.org/dc/dcmitype/StillImage" />
        <dc:title></dc:title>
      </cc:Work>
    </rdf:RDF>
  </metadata>
  <g
     inkscape:label="Layer 1"
     inkscape:groupmode="layer"
     id="layer1">
    <g
       style="font-size:40px;font-style:normal;font-weight:normal;fill:none;fill-opacity:1;stroke:#000080;font-family:Bitstream Vera Sans"
       id="text2816">
      <path
         d="m 151.85268,220.93361 0,-28.59375 4.64843,0 0,10.54687 14.0625,0 0,-10.54687 4.64844,0 0,28.59375 -4.64844,0 0,-13.88672 -14.0625,0 0,13.88672 -4.64843,0"
         style="font-variant:normal;font-stretch:normal;font-family:Futura Md BT;-inkscape-font-specification:Futura Md BT;stroke:#000080;fill:none"
         id="path2823" />
      <path
         d="m 181.0519,194.41017 c -1e-5,-0.71612 0.26041,-1.33461 0.78125,-1.85547 0.53385,-0.5208 1.16536,-0.78122 1.89453,-0.78125 0.7552,3e-5 1.3802,0.25394 1.875,0.76172 0.5078,0.49482 0.76171,1.11982 0.76172,1.875 -1e-5,0.75524 -0.25392,1.39326 -0.76172,1.91406 -0.50782,0.50784 -1.13282,0.76175 -1.875,0.76172 -0.72917,3e-5 -1.36068,-0.26039 -1.89453,-0.78125 -0.52084,-0.53383 -0.78126,-1.16534 -0.78125,-1.89453 m 0.5664,26.52344 0,-18.51563 4.23828,0 0,18.51563 -4.23828,0"
         style="font-variant:normal;font-stretch:normal;font-family:Futura Md BT;-inkscape-font-specification:Futura Md BT;stroke:#000080;fill:none"
         id="path2825"
         sodipodi:nodetypes="csscsssccccccc" />
      <path
         d="m 151.6183,265.7383 c 0.48177,0.57292 0.94401,0.98958 1.38672,1.25 0.4427,0.26042 0.91145,0.39063 1.40625,0.39062 0.91145,1e-5 1.54947,-0.29947 1.91406,-0.89844 0.3776,-0.59895 0.5664,-1.71223 0.56641,-3.33984 l 0,-20.80078 4.60937,0 0,22.30469 c -1e-5,2.42188 -0.53386,4.20573 -1.60156,5.35156 -1.06772,1.13281 -2.73438,1.69922 -5,1.69922 -1.25,0 -2.38282,-0.24089 -3.39844,-0.72266 -1.0026,-0.48177 -1.95312,-1.23047 -2.85156,-2.24609 l 2.96875,-2.98828"
         style="font-variant:normal;font-stretch:normal;font-family:Futura Md BT;-inkscape-font-specification:Futura Md BT;stroke:#000080;fill:none"
         id="path2827" />
      <path
         d="m 185.1144,262.3008 -14.80469,0 c 0.10416,1.73177 0.61848,3.08594 1.54297,4.0625 0.92447,0.96354 2.15493,1.44531 3.6914,1.44531 1.36718,0 2.5065,-0.28646 3.41797,-0.85938 0.91144,-0.57291 1.70571,-1.49739 2.38281,-2.77343 l 3.57422,1.99218 c -1.04168,1.86199 -2.33074,3.2487 -3.86718,4.16016 -1.53648,0.91146 -3.33986,1.36719 -5.41016,1.36719 -2.96876,0 -5.33204,-0.90495 -7.08984,-2.71485 -1.75782,-1.80989 -2.63673,-4.22525 -2.63672,-7.24609 -1e-5,-2.90363 0.90494,-5.28644 2.71484,-7.14844 1.82291,-1.87498 4.16015,-2.81248 7.01172,-2.8125 2.98176,2e-5 5.30597,0.85289 6.97266,2.5586 1.66664,1.70574 2.49997,4.09506 2.5,7.16797 l 0,0.80078 m -4.39454,-2.85157 c -0.16928,-1.32811 -0.6771,-2.33722 -1.52343,-3.02734 -0.84637,-0.70311 -2.00522,-1.05467 -3.47657,-1.05469 -1.39324,2e-5 -2.51303,0.33856 -3.35937,1.01563 -0.84636,0.67709 -1.43881,1.69923 -1.77734,3.0664 l 10.13671,0"
         style="font-variant:normal;font-stretch:normal;font-family:Futura Md BT;-inkscape-font-specification:Futura Md BT;stroke:#000080;fill:none"
         id="path2829" />
      <path
         d="m 193.78627,255.3672 c 0.45572,-1.22394 1.05468,-2.12889 1.79688,-2.71484 0.75519,-0.58592 1.68618,-0.87889 2.79296,-0.87891 0.59895,2e-5 1.18489,0.0716 1.75782,0.21485 0.58592,0.14324 1.15884,0.35158 1.71875,0.625 l -1.52344,3.59375 c -0.3646,-0.26041 -0.76173,-0.44921 -1.19141,-0.56641 -0.41668,-0.13019 -0.88543,-0.1953 -1.40625,-0.19531 -1.40626,10e-6 -2.41537,0.56642 -3.02734,1.69922 -0.61199,1.1198 -0.91798,3.00782 -0.91797,5.66406 l 0,8.125 -4.23828,0 0,-18.55469 4.23828,0 0,2.98828"
         style="font-variant:normal;font-stretch:normal;font-family:Futura Md BT;-inkscape-font-specification:Futura Md BT;stroke:#000080;fill:none"
         id="path2831" />
      <path
         d="m 205.7394,241.69533 4.45312,0 0,22.67578 -4.45312,0 0,-22.67578 m -0.35157,27.4414 c 0,-0.70312 0.24739,-1.30208 0.74219,-1.79687 0.50781,-0.50781 1.11328,-0.76172 1.81641,-0.76172 0.71613,0 1.3216,0.2474 1.8164,0.74219 0.49479,0.49479 0.74218,1.10026 0.74219,1.8164 -1e-5,0.70313 -0.2474,1.30209 -0.74219,1.79688 -0.4948,0.50781 -1.10027,0.76172 -1.8164,0.76172 -0.71616,0 -1.32162,-0.25391 -1.81641,-0.76172 -0.4948,-0.49479 -0.74219,-1.09375 -0.74219,-1.79688"
         style="font-variant:normal;font-stretch:normal;font-family:Futura Md BT;-inkscape-font-specification:Futura Md BT;stroke:#000080;fill:none"
         id="path2833" />
    </g>
  </g>
</svg>
