G75*
G70*
%OFA0B0*%
%FSLAX24Y24*%
%IPPOS*%
%LPD*%
%AMOC8*
5,1,8,0,0,1.08239X$1,22.5*
%
%ADD10C,0.0600*%
%ADD11OC8,0.0600*%
%ADD12OC8,0.0680*%
%ADD13C,0.0674*%
%ADD14C,0.0671*%
%ADD15OC8,0.0710*%
%ADD16C,0.1380*%
%ADD17C,0.0595*%
%ADD18C,0.0480*%
D10*
X009841Y003601D02*
X010361Y003601D01*
X010361Y004601D02*
X009841Y004601D01*
X009841Y005601D02*
X010361Y005601D01*
X010361Y006601D02*
X009841Y006601D01*
X009841Y007601D02*
X010361Y007601D01*
X010361Y008601D02*
X009841Y008601D01*
X009841Y009601D02*
X010361Y009601D01*
X012841Y009601D02*
X013361Y009601D01*
X014841Y010101D02*
X015361Y010101D01*
X015361Y009101D02*
X014841Y009101D01*
X013361Y008601D02*
X012841Y008601D01*
X012841Y007601D02*
X013361Y007601D01*
X014841Y008101D02*
X015361Y008101D01*
X015361Y007101D02*
X014841Y007101D01*
X013361Y006601D02*
X012841Y006601D01*
X012841Y005601D02*
X013361Y005601D01*
X014841Y006101D02*
X015361Y006101D01*
X015361Y005101D02*
X014841Y005101D01*
X013361Y004601D02*
X012841Y004601D01*
X014841Y004101D02*
X015361Y004101D01*
X013361Y003601D02*
X012841Y003601D01*
X014841Y003101D02*
X015361Y003101D01*
X017841Y003101D02*
X018361Y003101D01*
X019841Y003101D02*
X020361Y003101D01*
X020361Y004101D02*
X019841Y004101D01*
X018361Y004101D02*
X017841Y004101D01*
X017841Y005101D02*
X018361Y005101D01*
X019841Y005101D02*
X020361Y005101D01*
X020361Y006101D02*
X019841Y006101D01*
X018361Y006101D02*
X017841Y006101D01*
X017841Y007101D02*
X018361Y007101D01*
X019841Y007101D02*
X020361Y007101D01*
X020361Y008101D02*
X019841Y008101D01*
X018361Y008101D02*
X017841Y008101D01*
X017841Y009101D02*
X018361Y009101D01*
X019841Y009101D02*
X020361Y009101D01*
X020361Y010101D02*
X019841Y010101D01*
X018361Y010101D02*
X017841Y010101D01*
X017841Y012101D02*
X018361Y012101D01*
X019841Y012101D02*
X020361Y012101D01*
X020361Y013101D02*
X019841Y013101D01*
X018361Y013101D02*
X017841Y013101D01*
X017841Y014101D02*
X018361Y014101D01*
X019841Y014101D02*
X020361Y014101D01*
X020361Y015101D02*
X019841Y015101D01*
X018361Y015101D02*
X017841Y015101D01*
X017841Y016101D02*
X018361Y016101D01*
X019841Y016101D02*
X020361Y016101D01*
X020361Y017101D02*
X019841Y017101D01*
X018361Y017101D02*
X017841Y017101D01*
X017841Y018101D02*
X018361Y018101D01*
X019841Y018101D02*
X020361Y018101D01*
X020361Y019101D02*
X019841Y019101D01*
X018361Y019101D02*
X017841Y019101D01*
X017841Y020101D02*
X018361Y020101D01*
X019601Y020841D02*
X019601Y021361D01*
X020601Y021361D02*
X020601Y020841D01*
X021601Y020841D02*
X021601Y021361D01*
X022601Y021361D02*
X022601Y020841D01*
X023601Y020841D02*
X023601Y021361D01*
X024601Y021361D02*
X024601Y020841D01*
X025601Y020841D02*
X025601Y021361D01*
X026601Y021361D02*
X026601Y020841D01*
X027601Y020841D02*
X027601Y021361D01*
X028601Y021361D02*
X028601Y020841D01*
X029601Y020841D02*
X029601Y021361D01*
X030601Y021361D02*
X030601Y020841D01*
X031601Y020841D02*
X031601Y021361D01*
X032601Y021361D02*
X032601Y020841D01*
X033601Y020841D02*
X033601Y021361D01*
X034601Y021361D02*
X034601Y020841D01*
X035601Y020841D02*
X035601Y021361D01*
X036601Y021361D02*
X036601Y020841D01*
X037601Y020841D02*
X037601Y021361D01*
X038601Y021361D02*
X038601Y020841D01*
X039601Y020841D02*
X039601Y021361D01*
X040601Y021361D02*
X040601Y020841D01*
X041601Y020841D02*
X041601Y021361D01*
X042601Y021361D02*
X042601Y020841D01*
X043601Y020841D02*
X043601Y021361D01*
X044601Y021361D02*
X044601Y020841D01*
X045601Y020841D02*
X045601Y021361D01*
X046601Y021361D02*
X046601Y020841D01*
X047601Y020841D02*
X047601Y021361D01*
X048601Y021361D02*
X048601Y020841D01*
X049601Y020841D02*
X049601Y021361D01*
X050601Y021361D02*
X050601Y020841D01*
X051601Y020841D02*
X051601Y021361D01*
X052601Y021361D02*
X052601Y020841D01*
X053601Y020841D02*
X053601Y021361D01*
X054601Y021361D02*
X054601Y020841D01*
X055601Y020841D02*
X055601Y021361D01*
X056601Y021361D02*
X056601Y020841D01*
X057601Y020841D02*
X057601Y021361D01*
X058601Y021361D02*
X058601Y020841D01*
X058361Y019101D02*
X057841Y019101D01*
X057841Y018101D02*
X058361Y018101D01*
X058361Y017101D02*
X057841Y017101D01*
X057841Y016101D02*
X058361Y016101D01*
X058361Y015101D02*
X057841Y015101D01*
X057841Y014101D02*
X058361Y014101D01*
X058361Y013101D02*
X057841Y013101D01*
X057841Y012101D02*
X058361Y012101D01*
X055361Y012101D02*
X054841Y012101D01*
X053361Y012101D02*
X052841Y012101D01*
X052841Y013101D02*
X053361Y013101D01*
X054841Y013101D02*
X055361Y013101D01*
X055361Y014101D02*
X054841Y014101D01*
X053361Y014101D02*
X052841Y014101D01*
X052841Y015101D02*
X053361Y015101D01*
X054841Y015101D02*
X055361Y015101D01*
X055361Y016101D02*
X054841Y016101D01*
X053361Y016101D02*
X052841Y016101D01*
X052841Y017101D02*
X053361Y017101D01*
X054841Y017101D02*
X055361Y017101D01*
X055361Y018101D02*
X054841Y018101D01*
X053361Y018101D02*
X052841Y018101D01*
X052841Y019101D02*
X053361Y019101D01*
X054841Y019101D02*
X055361Y019101D01*
X050361Y019101D02*
X049841Y019101D01*
X048361Y019101D02*
X047841Y019101D01*
X047841Y018101D02*
X048361Y018101D01*
X049841Y018101D02*
X050361Y018101D01*
X050361Y017101D02*
X049841Y017101D01*
X048361Y017101D02*
X047841Y017101D01*
X047841Y016101D02*
X048361Y016101D01*
X049841Y016101D02*
X050361Y016101D01*
X050361Y015101D02*
X049841Y015101D01*
X048361Y015101D02*
X047841Y015101D01*
X047841Y014101D02*
X048361Y014101D01*
X049841Y014101D02*
X050361Y014101D01*
X050361Y013101D02*
X049841Y013101D01*
X048361Y013101D02*
X047841Y013101D01*
X047841Y012101D02*
X048361Y012101D01*
X049841Y012101D02*
X050361Y012101D01*
X050361Y010101D02*
X049841Y010101D01*
X048361Y010101D02*
X047841Y010101D01*
X047841Y009101D02*
X048361Y009101D01*
X049841Y009101D02*
X050361Y009101D01*
X050361Y008101D02*
X049841Y008101D01*
X048361Y008101D02*
X047841Y008101D01*
X047841Y007101D02*
X048361Y007101D01*
X049841Y007101D02*
X050361Y007101D01*
X050361Y006101D02*
X049841Y006101D01*
X048361Y006101D02*
X047841Y006101D01*
X047841Y005101D02*
X048361Y005101D01*
X049841Y005101D02*
X050361Y005101D01*
X050361Y004101D02*
X049841Y004101D01*
X048361Y004101D02*
X047841Y004101D01*
X047841Y003101D02*
X048361Y003101D01*
X049841Y003101D02*
X050361Y003101D01*
X052841Y003101D02*
X053361Y003101D01*
X054841Y003101D02*
X055361Y003101D01*
X055361Y004101D02*
X054841Y004101D01*
X053361Y004101D02*
X052841Y004101D01*
X052841Y005101D02*
X053361Y005101D01*
X054841Y005101D02*
X055361Y005101D01*
X055361Y006101D02*
X054841Y006101D01*
X053361Y006101D02*
X052841Y006101D01*
X052841Y007101D02*
X053361Y007101D01*
X054841Y007101D02*
X055361Y007101D01*
X055361Y008101D02*
X054841Y008101D01*
X053361Y008101D02*
X052841Y008101D01*
X052841Y009101D02*
X053361Y009101D01*
X054841Y009101D02*
X055361Y009101D01*
X055361Y010101D02*
X054841Y010101D01*
X053361Y010101D02*
X052841Y010101D01*
X057841Y010101D02*
X058361Y010101D01*
X058361Y009101D02*
X057841Y009101D01*
X057841Y008101D02*
X058361Y008101D01*
X058361Y007101D02*
X057841Y007101D01*
X057841Y006101D02*
X058361Y006101D01*
X058361Y005101D02*
X057841Y005101D01*
X057841Y004101D02*
X058361Y004101D01*
X058361Y003101D02*
X057841Y003101D01*
X045361Y003101D02*
X044841Y003101D01*
X043361Y003101D02*
X042841Y003101D01*
X042841Y004101D02*
X043361Y004101D01*
X044841Y004101D02*
X045361Y004101D01*
X045361Y005101D02*
X044841Y005101D01*
X043361Y005101D02*
X042841Y005101D01*
X042841Y006101D02*
X043361Y006101D01*
X044841Y006101D02*
X045361Y006101D01*
X045361Y007101D02*
X044841Y007101D01*
X043361Y007101D02*
X042841Y007101D01*
X042841Y008101D02*
X043361Y008101D01*
X044841Y008101D02*
X045361Y008101D01*
X045361Y009101D02*
X044841Y009101D01*
X043361Y009101D02*
X042841Y009101D01*
X042841Y010101D02*
X043361Y010101D01*
X044841Y010101D02*
X045361Y010101D01*
X045361Y012101D02*
X044841Y012101D01*
X043361Y012101D02*
X042841Y012101D01*
X042841Y013101D02*
X043361Y013101D01*
X044841Y013101D02*
X045361Y013101D01*
X045361Y014101D02*
X044841Y014101D01*
X043361Y014101D02*
X042841Y014101D01*
X042841Y015101D02*
X043361Y015101D01*
X044841Y015101D02*
X045361Y015101D01*
X045361Y016101D02*
X044841Y016101D01*
X043361Y016101D02*
X042841Y016101D01*
X042841Y017101D02*
X043361Y017101D01*
X044841Y017101D02*
X045361Y017101D01*
X045361Y018101D02*
X044841Y018101D01*
X043361Y018101D02*
X042841Y018101D01*
X042841Y019101D02*
X043361Y019101D01*
X044841Y019101D02*
X045361Y019101D01*
X040361Y019101D02*
X039841Y019101D01*
X038361Y019101D02*
X037841Y019101D01*
X037841Y018101D02*
X038361Y018101D01*
X039841Y018101D02*
X040361Y018101D01*
X040361Y017101D02*
X039841Y017101D01*
X038361Y017101D02*
X037841Y017101D01*
X037841Y016101D02*
X038361Y016101D01*
X039841Y016101D02*
X040361Y016101D01*
X040361Y015101D02*
X039841Y015101D01*
X038361Y015101D02*
X037841Y015101D01*
X037841Y014101D02*
X038361Y014101D01*
X039841Y014101D02*
X040361Y014101D01*
X040361Y013101D02*
X039841Y013101D01*
X038361Y013101D02*
X037841Y013101D01*
X037841Y012101D02*
X038361Y012101D01*
X039841Y012101D02*
X040361Y012101D01*
X040361Y010101D02*
X039841Y010101D01*
X038361Y010101D02*
X037841Y010101D01*
X037841Y009101D02*
X038361Y009101D01*
X039841Y009101D02*
X040361Y009101D01*
X040361Y008101D02*
X039841Y008101D01*
X038361Y008101D02*
X037841Y008101D01*
X037841Y007101D02*
X038361Y007101D01*
X039841Y007101D02*
X040361Y007101D01*
X040361Y006101D02*
X039841Y006101D01*
X038361Y006101D02*
X037841Y006101D01*
X037841Y005101D02*
X038361Y005101D01*
X039841Y005101D02*
X040361Y005101D01*
X040361Y004101D02*
X039841Y004101D01*
X038361Y004101D02*
X037841Y004101D01*
X037841Y003101D02*
X038361Y003101D01*
X039841Y003101D02*
X040361Y003101D01*
X035361Y003101D02*
X034841Y003101D01*
X033361Y003101D02*
X032841Y003101D01*
X032841Y004101D02*
X033361Y004101D01*
X034841Y004101D02*
X035361Y004101D01*
X035361Y005101D02*
X034841Y005101D01*
X033361Y005101D02*
X032841Y005101D01*
X032841Y006101D02*
X033361Y006101D01*
X034841Y006101D02*
X035361Y006101D01*
X035361Y007101D02*
X034841Y007101D01*
X033361Y007101D02*
X032841Y007101D01*
X032841Y008101D02*
X033361Y008101D01*
X034841Y008101D02*
X035361Y008101D01*
X035361Y009101D02*
X034841Y009101D01*
X033361Y009101D02*
X032841Y009101D01*
X032841Y010101D02*
X033361Y010101D01*
X034841Y010101D02*
X035361Y010101D01*
X035361Y012101D02*
X034841Y012101D01*
X033361Y012101D02*
X032841Y012101D01*
X032841Y013101D02*
X033361Y013101D01*
X034841Y013101D02*
X035361Y013101D01*
X035361Y014101D02*
X034841Y014101D01*
X033361Y014101D02*
X032841Y014101D01*
X032841Y015101D02*
X033361Y015101D01*
X034841Y015101D02*
X035361Y015101D01*
X035361Y016101D02*
X034841Y016101D01*
X033361Y016101D02*
X032841Y016101D01*
X032841Y017101D02*
X033361Y017101D01*
X034841Y017101D02*
X035361Y017101D01*
X035361Y018101D02*
X034841Y018101D01*
X033361Y018101D02*
X032841Y018101D01*
X032841Y019101D02*
X033361Y019101D01*
X034841Y019101D02*
X035361Y019101D01*
X030361Y019101D02*
X029841Y019101D01*
X028361Y019101D02*
X027841Y019101D01*
X027841Y018101D02*
X028361Y018101D01*
X029841Y018101D02*
X030361Y018101D01*
X030361Y017101D02*
X029841Y017101D01*
X028361Y017101D02*
X027841Y017101D01*
X027841Y016101D02*
X028361Y016101D01*
X029841Y016101D02*
X030361Y016101D01*
X030361Y015101D02*
X029841Y015101D01*
X028361Y015101D02*
X027841Y015101D01*
X027841Y014101D02*
X028361Y014101D01*
X029841Y014101D02*
X030361Y014101D01*
X030361Y013101D02*
X029841Y013101D01*
X028361Y013101D02*
X027841Y013101D01*
X027841Y012101D02*
X028361Y012101D01*
X029841Y012101D02*
X030361Y012101D01*
X030361Y010101D02*
X029841Y010101D01*
X028361Y010101D02*
X027841Y010101D01*
X027841Y009101D02*
X028361Y009101D01*
X029841Y009101D02*
X030361Y009101D01*
X030361Y008101D02*
X029841Y008101D01*
X028361Y008101D02*
X027841Y008101D01*
X027841Y007101D02*
X028361Y007101D01*
X029841Y007101D02*
X030361Y007101D01*
X030361Y006101D02*
X029841Y006101D01*
X028361Y006101D02*
X027841Y006101D01*
X027841Y005101D02*
X028361Y005101D01*
X029841Y005101D02*
X030361Y005101D01*
X030361Y004101D02*
X029841Y004101D01*
X028361Y004101D02*
X027841Y004101D01*
X027841Y003101D02*
X028361Y003101D01*
X029841Y003101D02*
X030361Y003101D01*
X025361Y003101D02*
X024841Y003101D01*
X023361Y003101D02*
X022841Y003101D01*
X022841Y004101D02*
X023361Y004101D01*
X024841Y004101D02*
X025361Y004101D01*
X025361Y005101D02*
X024841Y005101D01*
X023361Y005101D02*
X022841Y005101D01*
X022841Y006101D02*
X023361Y006101D01*
X024841Y006101D02*
X025361Y006101D01*
X025361Y007101D02*
X024841Y007101D01*
X023361Y007101D02*
X022841Y007101D01*
X022841Y008101D02*
X023361Y008101D01*
X024841Y008101D02*
X025361Y008101D01*
X025361Y009101D02*
X024841Y009101D01*
X023361Y009101D02*
X022841Y009101D01*
X022841Y010101D02*
X023361Y010101D01*
X024841Y010101D02*
X025361Y010101D01*
X025361Y012101D02*
X024841Y012101D01*
X023361Y012101D02*
X022841Y012101D01*
X022841Y013101D02*
X023361Y013101D01*
X024841Y013101D02*
X025361Y013101D01*
X025361Y014101D02*
X024841Y014101D01*
X023361Y014101D02*
X022841Y014101D01*
X022841Y015101D02*
X023361Y015101D01*
X024841Y015101D02*
X025361Y015101D01*
X025361Y016101D02*
X024841Y016101D01*
X023361Y016101D02*
X022841Y016101D01*
X022841Y017101D02*
X023361Y017101D01*
X024841Y017101D02*
X025361Y017101D01*
X025361Y018101D02*
X024841Y018101D01*
X023361Y018101D02*
X022841Y018101D01*
X022841Y019101D02*
X023361Y019101D01*
X024841Y019101D02*
X025361Y019101D01*
X018361Y021101D02*
X017841Y021101D01*
X017841Y022101D02*
X018361Y022101D01*
X018361Y023101D02*
X017841Y023101D01*
X017841Y024101D02*
X018361Y024101D01*
X018361Y025101D02*
X017841Y025101D01*
X015361Y025101D02*
X014841Y025101D01*
X014841Y024101D02*
X015361Y024101D01*
X015361Y023101D02*
X014841Y023101D01*
X014841Y022101D02*
X015361Y022101D01*
X015361Y021101D02*
X014841Y021101D01*
X014841Y020101D02*
X015361Y020101D01*
X015361Y019101D02*
X014841Y019101D01*
X013361Y019101D02*
X012841Y019101D01*
X012841Y018101D02*
X013361Y018101D01*
X014841Y018101D02*
X015361Y018101D01*
X015361Y017101D02*
X014841Y017101D01*
X013361Y017101D02*
X012841Y017101D01*
X012841Y016101D02*
X013361Y016101D01*
X014841Y016101D02*
X015361Y016101D01*
X015361Y015101D02*
X014841Y015101D01*
X013361Y015101D02*
X012841Y015101D01*
X012841Y014101D02*
X013361Y014101D01*
X014841Y014101D02*
X015361Y014101D01*
X015361Y013101D02*
X014841Y013101D01*
X013361Y013101D02*
X012841Y013101D01*
X012841Y012101D02*
X013361Y012101D01*
X014841Y012101D02*
X015361Y012101D01*
X010361Y012101D02*
X009841Y012101D01*
X009841Y013101D02*
X010361Y013101D01*
X008861Y013101D02*
X008341Y013101D01*
X008341Y014101D02*
X008861Y014101D01*
X009841Y014101D02*
X010361Y014101D01*
X010361Y015101D02*
X009841Y015101D01*
X008861Y015101D02*
X008341Y015101D01*
X008341Y016101D02*
X008861Y016101D01*
X009841Y016101D02*
X010361Y016101D01*
X010361Y017101D02*
X009841Y017101D01*
X008861Y017101D02*
X008341Y017101D01*
X008341Y018101D02*
X008861Y018101D01*
X009841Y018101D02*
X010361Y018101D01*
X010361Y019101D02*
X009841Y019101D01*
X008861Y019101D02*
X008341Y019101D01*
X008341Y020101D02*
X008861Y020101D01*
X005861Y020101D02*
X005341Y020101D01*
X005341Y019101D02*
X005861Y019101D01*
X005861Y018101D02*
X005341Y018101D01*
X005341Y017101D02*
X005861Y017101D01*
X005861Y016101D02*
X005341Y016101D01*
X005341Y015101D02*
X005861Y015101D01*
X005861Y014101D02*
X005341Y014101D01*
X005341Y013101D02*
X005861Y013101D01*
X019601Y026841D02*
X019601Y027361D01*
X020601Y027361D02*
X020601Y026841D01*
X021601Y026841D02*
X021601Y027361D01*
X022601Y027361D02*
X022601Y026841D01*
X023601Y026841D02*
X023601Y027361D01*
X024601Y027361D02*
X024601Y026841D01*
X025601Y026841D02*
X025601Y027361D01*
X026601Y027361D02*
X026601Y026841D01*
X027601Y026841D02*
X027601Y027361D01*
X028601Y027361D02*
X028601Y026841D01*
X029601Y026841D02*
X029601Y027361D01*
X030601Y027361D02*
X030601Y026841D01*
X031601Y026841D02*
X031601Y027361D01*
X032601Y027361D02*
X032601Y026841D01*
X033601Y026841D02*
X033601Y027361D01*
X034601Y027361D02*
X034601Y026841D01*
X035601Y026841D02*
X035601Y027361D01*
X036601Y027361D02*
X036601Y026841D01*
X037601Y026841D02*
X037601Y027361D01*
X038601Y027361D02*
X038601Y026841D01*
X039601Y026841D02*
X039601Y027361D01*
X040601Y027361D02*
X040601Y026841D01*
X041601Y026841D02*
X041601Y027361D01*
X042601Y027361D02*
X042601Y026841D01*
X043601Y026841D02*
X043601Y027361D01*
X044601Y027361D02*
X044601Y026841D01*
X045601Y026841D02*
X045601Y027361D01*
X046601Y027361D02*
X046601Y026841D01*
X047601Y026841D02*
X047601Y027361D01*
X048601Y027361D02*
X048601Y026841D01*
X049601Y026841D02*
X049601Y027361D01*
X050601Y027361D02*
X050601Y026841D01*
X051601Y026841D02*
X051601Y027361D01*
X052601Y027361D02*
X052601Y026841D01*
X053601Y026841D02*
X053601Y027361D01*
X054601Y027361D02*
X054601Y026841D01*
X055601Y026841D02*
X055601Y027361D01*
X056601Y027361D02*
X056601Y026841D01*
X057601Y026841D02*
X057601Y027361D01*
X058601Y027361D02*
X058601Y026841D01*
D11*
X013101Y021101D03*
X011101Y021101D03*
X008601Y006601D03*
X008601Y005601D03*
X008601Y004601D03*
X006601Y004601D03*
X006601Y005601D03*
X006601Y006601D03*
X006601Y003601D03*
X008601Y003601D03*
D12*
X008601Y023601D03*
X007601Y023601D03*
X006601Y023601D03*
X005601Y023601D03*
X004601Y023601D03*
X003601Y023601D03*
X002601Y023601D03*
X001601Y023601D03*
X001601Y024601D03*
X002601Y024601D03*
X003601Y024601D03*
X004601Y024601D03*
X005601Y024601D03*
X006601Y024601D03*
X007601Y024601D03*
X008601Y024601D03*
X011101Y024601D03*
X012101Y024601D03*
X013101Y024601D03*
X013101Y023601D03*
X012101Y023601D03*
X011101Y023601D03*
D13*
X002601Y019398D02*
X002601Y018804D01*
X001601Y018804D02*
X001601Y019398D01*
X001601Y015898D02*
X001601Y015304D01*
X002601Y015304D02*
X002601Y015898D01*
X003601Y015898D02*
X003601Y015304D01*
X003601Y012398D02*
X003601Y011804D01*
X002601Y011804D02*
X002601Y012398D01*
X001601Y012398D02*
X001601Y011804D01*
X001601Y008898D02*
X001601Y008304D01*
X002601Y008304D02*
X002601Y008898D01*
X003601Y008898D02*
X003601Y008304D01*
X004601Y008304D02*
X004601Y008898D01*
X005601Y008898D02*
X005601Y008304D01*
X004601Y005398D02*
X004601Y004804D01*
X003601Y004804D02*
X003601Y005398D01*
X002601Y005398D02*
X002601Y004804D01*
X001601Y004804D02*
X001601Y005398D01*
D14*
X020101Y022101D03*
X020101Y023101D03*
X020101Y024101D03*
X020101Y025101D03*
X020101Y026101D03*
X023101Y026101D03*
X023101Y025101D03*
X023101Y024101D03*
X023101Y023101D03*
X023101Y022101D03*
X025101Y022101D03*
X025101Y023101D03*
X025101Y024101D03*
X025101Y025101D03*
X025101Y026101D03*
X028101Y026101D03*
X028101Y025101D03*
X028101Y024101D03*
X028101Y023101D03*
X028101Y022101D03*
X030101Y022101D03*
X030101Y023101D03*
X030101Y024101D03*
X030101Y025101D03*
X030101Y026101D03*
X033101Y026101D03*
X033101Y025101D03*
X035101Y025101D03*
X035101Y026101D03*
X038101Y026101D03*
X038101Y025101D03*
X040101Y025101D03*
X040101Y026101D03*
X043101Y026101D03*
X043101Y025101D03*
X045101Y025101D03*
X045101Y026101D03*
X048101Y026101D03*
X048101Y025101D03*
X050101Y025101D03*
X050101Y026101D03*
X053101Y026101D03*
X053101Y025101D03*
X055101Y025101D03*
X055101Y026101D03*
X058101Y026101D03*
X058101Y025101D03*
X058101Y024101D03*
X058101Y023101D03*
X058101Y022101D03*
X055101Y022101D03*
X055101Y023101D03*
X055101Y024101D03*
X053101Y024101D03*
X053101Y023101D03*
X053101Y022101D03*
X050101Y022101D03*
X050101Y023101D03*
X050101Y024101D03*
X048101Y024101D03*
X048101Y023101D03*
X048101Y022101D03*
X045101Y022101D03*
X045101Y023101D03*
X045101Y024101D03*
X043101Y024101D03*
X043101Y023101D03*
X043101Y022101D03*
X040101Y022101D03*
X040101Y023101D03*
X040101Y024101D03*
X038101Y024101D03*
X038101Y023101D03*
X038101Y022101D03*
X035101Y022101D03*
X035101Y023101D03*
X035101Y024101D03*
X033101Y024101D03*
X033101Y023101D03*
X033101Y022101D03*
D15*
X003601Y021601D03*
X001601Y021601D03*
X010101Y001601D03*
X012101Y001601D03*
X015101Y001601D03*
X017101Y001601D03*
X020101Y001601D03*
X022101Y001601D03*
X025101Y001601D03*
X027101Y001601D03*
X030101Y001601D03*
X032101Y001601D03*
X035101Y001601D03*
X037101Y001601D03*
X040101Y001601D03*
X042101Y001601D03*
X045101Y001601D03*
X047101Y001601D03*
X050101Y001601D03*
X052101Y001601D03*
X055101Y001601D03*
X057101Y001601D03*
D16*
X001601Y001601D03*
X001601Y027101D03*
X061101Y027101D03*
X061101Y001601D03*
D17*
X013601Y025851D03*
X010601Y025851D03*
X010601Y027851D03*
X013601Y027851D03*
D18*
X014021Y025301D03*
X012761Y022721D03*
X007181Y021701D03*
X004181Y020201D03*
X004361Y019481D03*
X004361Y018581D03*
X004661Y017201D03*
X007301Y018881D03*
X011141Y016781D03*
X012161Y016181D03*
X014141Y015761D03*
X016361Y014801D03*
X011741Y013721D03*
X009161Y011741D03*
X006881Y013541D03*
X006701Y014201D03*
X009341Y016601D03*
X024281Y023741D03*
X030761Y020141D03*
X029141Y016121D03*
X026321Y014981D03*
X026021Y015341D03*
X031241Y014261D03*
X029561Y011441D03*
X026021Y007181D03*
X026741Y006221D03*
X031721Y006221D03*
X036281Y004481D03*
X036761Y006221D03*
X040961Y005741D03*
X041741Y006221D03*
X041441Y008021D03*
X046241Y006701D03*
X046721Y006221D03*
X046601Y008021D03*
X051761Y005321D03*
X055721Y010721D03*
X046241Y014261D03*
X044141Y016121D03*
X041021Y014561D03*
X044561Y011441D03*
X040721Y010781D03*
X030821Y003581D03*
X029021Y003221D03*
X021761Y006221D03*
X018941Y005741D03*
X018821Y006581D03*
X014141Y007301D03*
X009221Y008921D03*
X045761Y020141D03*
X056021Y016181D03*
M02*
