G75*
G70*
%OFA0B0*%
%FSLAX24Y24*%
%IPPOS*%
%LPD*%
%AMOC8*
5,1,8,0,0,1.08239X$1,22.5*
%
%ADD10C,0.0600*%
%ADD11OC8,0.0600*%
%ADD12OC8,0.0680*%
%ADD13C,0.0674*%
%ADD14C,0.0671*%
%ADD15OC8,0.0710*%
%ADD16C,0.1380*%
%ADD17C,0.0595*%
%ADD18C,0.0480*%
D10*
X004349Y003101D02*
X004869Y003101D01*
X004869Y004101D02*
X004349Y004101D01*
X004349Y005101D02*
X004869Y005101D01*
X004869Y006101D02*
X004349Y006101D01*
X004349Y007101D02*
X004869Y007101D01*
X004869Y008101D02*
X004349Y008101D01*
X004349Y009101D02*
X004869Y009101D01*
X004869Y010101D02*
X004349Y010101D01*
X007349Y010101D02*
X007869Y010101D01*
X009349Y010101D02*
X009869Y010101D01*
X009869Y009101D02*
X009349Y009101D01*
X007869Y009101D02*
X007349Y009101D01*
X007349Y008101D02*
X007869Y008101D01*
X009349Y008101D02*
X009869Y008101D01*
X009869Y007101D02*
X009349Y007101D01*
X007869Y007101D02*
X007349Y007101D01*
X007349Y006101D02*
X007869Y006101D01*
X009349Y006101D02*
X009869Y006101D01*
X009869Y005101D02*
X009349Y005101D01*
X007869Y005101D02*
X007349Y005101D01*
X007349Y004101D02*
X007869Y004101D01*
X009349Y004101D02*
X009869Y004101D01*
X009869Y003101D02*
X009349Y003101D01*
X007869Y003101D02*
X007349Y003101D01*
X012349Y003101D02*
X012869Y003101D01*
X014349Y003101D02*
X014869Y003101D01*
X014869Y004101D02*
X014349Y004101D01*
X012869Y004101D02*
X012349Y004101D01*
X012349Y005101D02*
X012869Y005101D01*
X014349Y005101D02*
X014869Y005101D01*
X014869Y006101D02*
X014349Y006101D01*
X012869Y006101D02*
X012349Y006101D01*
X012349Y007101D02*
X012869Y007101D01*
X014349Y007101D02*
X014869Y007101D01*
X014869Y008101D02*
X014349Y008101D01*
X012869Y008101D02*
X012349Y008101D01*
X012349Y009101D02*
X012869Y009101D01*
X014349Y009101D02*
X014869Y009101D01*
X014869Y010101D02*
X014349Y010101D01*
X012869Y010101D02*
X012349Y010101D01*
X012349Y012101D02*
X012869Y012101D01*
X014349Y012101D02*
X014869Y012101D01*
X014869Y013101D02*
X014349Y013101D01*
X012869Y013101D02*
X012349Y013101D01*
X012349Y014101D02*
X012869Y014101D01*
X014349Y014101D02*
X014869Y014101D01*
X014869Y015101D02*
X014349Y015101D01*
X012869Y015101D02*
X012349Y015101D01*
X012349Y016101D02*
X012869Y016101D01*
X014349Y016101D02*
X014869Y016101D01*
X014869Y017101D02*
X014349Y017101D01*
X012869Y017101D02*
X012349Y017101D01*
X012349Y018101D02*
X012869Y018101D01*
X014349Y018101D02*
X014869Y018101D01*
X014869Y019101D02*
X014349Y019101D01*
X012869Y019101D02*
X012349Y019101D01*
X009869Y019101D02*
X009349Y019101D01*
X007869Y019101D02*
X007349Y019101D01*
X007349Y018101D02*
X007869Y018101D01*
X009349Y018101D02*
X009869Y018101D01*
X009869Y017101D02*
X009349Y017101D01*
X007869Y017101D02*
X007349Y017101D01*
X007349Y016101D02*
X007869Y016101D01*
X009349Y016101D02*
X009869Y016101D01*
X009869Y015101D02*
X009349Y015101D01*
X007869Y015101D02*
X007349Y015101D01*
X007349Y014101D02*
X007869Y014101D01*
X009349Y014101D02*
X009869Y014101D01*
X009869Y013101D02*
X009349Y013101D01*
X007869Y013101D02*
X007349Y013101D01*
X007349Y012101D02*
X007869Y012101D01*
X009349Y012101D02*
X009869Y012101D01*
X004869Y012101D02*
X004349Y012101D01*
X004349Y013101D02*
X004869Y013101D01*
X004869Y014101D02*
X004349Y014101D01*
X004349Y015101D02*
X004869Y015101D01*
X004869Y016101D02*
X004349Y016101D01*
X004349Y017101D02*
X004869Y017101D01*
X004869Y018101D02*
X004349Y018101D01*
X004349Y019101D02*
X004869Y019101D01*
X005109Y020841D02*
X005109Y021361D01*
X006109Y021361D02*
X006109Y020841D01*
X007109Y020841D02*
X007109Y021361D01*
X008109Y021361D02*
X008109Y020841D01*
X009109Y020841D02*
X009109Y021361D01*
X010109Y021361D02*
X010109Y020841D01*
X011109Y020841D02*
X011109Y021361D01*
X012109Y021361D02*
X012109Y020841D01*
X013109Y020841D02*
X013109Y021361D01*
X014109Y021361D02*
X014109Y020841D01*
X015109Y020841D02*
X015109Y021361D01*
X016109Y021361D02*
X016109Y020841D01*
X017109Y020841D02*
X017109Y021361D01*
X018109Y021361D02*
X018109Y020841D01*
X019109Y020841D02*
X019109Y021361D01*
X020109Y021361D02*
X020109Y020841D01*
X021109Y020841D02*
X021109Y021361D01*
X022109Y021361D02*
X022109Y020841D01*
X023109Y020841D02*
X023109Y021361D01*
X024109Y021361D02*
X024109Y020841D01*
X025109Y020841D02*
X025109Y021361D01*
X026109Y021361D02*
X026109Y020841D01*
X027109Y020841D02*
X027109Y021361D01*
X028109Y021361D02*
X028109Y020841D01*
X029109Y020841D02*
X029109Y021361D01*
X030109Y021361D02*
X030109Y020841D01*
X031109Y020841D02*
X031109Y021361D01*
X032109Y021361D02*
X032109Y020841D01*
X033109Y020841D02*
X033109Y021361D01*
X034109Y021361D02*
X034109Y020841D01*
X035109Y020841D02*
X035109Y021361D01*
X036109Y021361D02*
X036109Y020841D01*
X037109Y020841D02*
X037109Y021361D01*
X038109Y021361D02*
X038109Y020841D01*
X039109Y020841D02*
X039109Y021361D01*
X040109Y021361D02*
X040109Y020841D01*
X041109Y020841D02*
X041109Y021361D01*
X042109Y021361D02*
X042109Y020841D01*
X043109Y020841D02*
X043109Y021361D01*
X044349Y021101D02*
X044869Y021101D01*
X044869Y020101D02*
X044349Y020101D01*
X044349Y019101D02*
X044869Y019101D01*
X044869Y018101D02*
X044349Y018101D01*
X042869Y018101D02*
X042349Y018101D01*
X042349Y019101D02*
X042869Y019101D01*
X039869Y019101D02*
X039349Y019101D01*
X037869Y019101D02*
X037349Y019101D01*
X037349Y018101D02*
X037869Y018101D01*
X039349Y018101D02*
X039869Y018101D01*
X039869Y017101D02*
X039349Y017101D01*
X037869Y017101D02*
X037349Y017101D01*
X037349Y016101D02*
X037869Y016101D01*
X039349Y016101D02*
X039869Y016101D01*
X039869Y015101D02*
X039349Y015101D01*
X037869Y015101D02*
X037349Y015101D01*
X037349Y014101D02*
X037869Y014101D01*
X039349Y014101D02*
X039869Y014101D01*
X039869Y013101D02*
X039349Y013101D01*
X037869Y013101D02*
X037349Y013101D01*
X037349Y012101D02*
X037869Y012101D01*
X039349Y012101D02*
X039869Y012101D01*
X042349Y012101D02*
X042869Y012101D01*
X044349Y012101D02*
X044869Y012101D01*
X044869Y013101D02*
X044349Y013101D01*
X042869Y013101D02*
X042349Y013101D01*
X042349Y014101D02*
X042869Y014101D01*
X044349Y014101D02*
X044869Y014101D01*
X044869Y015101D02*
X044349Y015101D01*
X042869Y015101D02*
X042349Y015101D01*
X042349Y016101D02*
X042869Y016101D01*
X044349Y016101D02*
X044869Y016101D01*
X044869Y017101D02*
X044349Y017101D01*
X042869Y017101D02*
X042349Y017101D01*
X047349Y017101D02*
X047869Y017101D01*
X049349Y017101D02*
X049869Y017101D01*
X049869Y016101D02*
X049349Y016101D01*
X047869Y016101D02*
X047349Y016101D01*
X047349Y015101D02*
X047869Y015101D01*
X049349Y015101D02*
X049869Y015101D01*
X049869Y014101D02*
X049349Y014101D01*
X047869Y014101D02*
X047349Y014101D01*
X047349Y013101D02*
X047869Y013101D01*
X049349Y013101D02*
X049869Y013101D01*
X049869Y012101D02*
X049349Y012101D01*
X047869Y012101D02*
X047349Y012101D01*
X047349Y010101D02*
X047869Y010101D01*
X049349Y009601D02*
X049869Y009601D01*
X047869Y009101D02*
X047349Y009101D01*
X047349Y008101D02*
X047869Y008101D01*
X049349Y008601D02*
X049869Y008601D01*
X049869Y007601D02*
X049349Y007601D01*
X047869Y007101D02*
X047349Y007101D01*
X047349Y006101D02*
X047869Y006101D01*
X049349Y006601D02*
X049869Y006601D01*
X049869Y005601D02*
X049349Y005601D01*
X047869Y005101D02*
X047349Y005101D01*
X047349Y004101D02*
X047869Y004101D01*
X049349Y004601D02*
X049869Y004601D01*
X049869Y003601D02*
X049349Y003601D01*
X047869Y003101D02*
X047349Y003101D01*
X044869Y003101D02*
X044349Y003101D01*
X042869Y003101D02*
X042349Y003101D01*
X042349Y004101D02*
X042869Y004101D01*
X044349Y004101D02*
X044869Y004101D01*
X044869Y005101D02*
X044349Y005101D01*
X042869Y005101D02*
X042349Y005101D01*
X042349Y006101D02*
X042869Y006101D01*
X044349Y006101D02*
X044869Y006101D01*
X044869Y007101D02*
X044349Y007101D01*
X042869Y007101D02*
X042349Y007101D01*
X042349Y008101D02*
X042869Y008101D01*
X044349Y008101D02*
X044869Y008101D01*
X044869Y009101D02*
X044349Y009101D01*
X042869Y009101D02*
X042349Y009101D01*
X042349Y010101D02*
X042869Y010101D01*
X044349Y010101D02*
X044869Y010101D01*
X039869Y010101D02*
X039349Y010101D01*
X037869Y010101D02*
X037349Y010101D01*
X037349Y009101D02*
X037869Y009101D01*
X039349Y009101D02*
X039869Y009101D01*
X039869Y008101D02*
X039349Y008101D01*
X037869Y008101D02*
X037349Y008101D01*
X037349Y007101D02*
X037869Y007101D01*
X039349Y007101D02*
X039869Y007101D01*
X039869Y006101D02*
X039349Y006101D01*
X037869Y006101D02*
X037349Y006101D01*
X037349Y005101D02*
X037869Y005101D01*
X039349Y005101D02*
X039869Y005101D01*
X039869Y004101D02*
X039349Y004101D01*
X037869Y004101D02*
X037349Y004101D01*
X037349Y003101D02*
X037869Y003101D01*
X039349Y003101D02*
X039869Y003101D01*
X034869Y003101D02*
X034349Y003101D01*
X032869Y003101D02*
X032349Y003101D01*
X032349Y004101D02*
X032869Y004101D01*
X034349Y004101D02*
X034869Y004101D01*
X034869Y005101D02*
X034349Y005101D01*
X032869Y005101D02*
X032349Y005101D01*
X032349Y006101D02*
X032869Y006101D01*
X034349Y006101D02*
X034869Y006101D01*
X034869Y007101D02*
X034349Y007101D01*
X032869Y007101D02*
X032349Y007101D01*
X032349Y008101D02*
X032869Y008101D01*
X034349Y008101D02*
X034869Y008101D01*
X034869Y009101D02*
X034349Y009101D01*
X032869Y009101D02*
X032349Y009101D01*
X032349Y010101D02*
X032869Y010101D01*
X034349Y010101D02*
X034869Y010101D01*
X034869Y012101D02*
X034349Y012101D01*
X032869Y012101D02*
X032349Y012101D01*
X032349Y013101D02*
X032869Y013101D01*
X034349Y013101D02*
X034869Y013101D01*
X034869Y014101D02*
X034349Y014101D01*
X032869Y014101D02*
X032349Y014101D01*
X032349Y015101D02*
X032869Y015101D01*
X034349Y015101D02*
X034869Y015101D01*
X034869Y016101D02*
X034349Y016101D01*
X032869Y016101D02*
X032349Y016101D01*
X032349Y017101D02*
X032869Y017101D01*
X034349Y017101D02*
X034869Y017101D01*
X034869Y018101D02*
X034349Y018101D01*
X032869Y018101D02*
X032349Y018101D01*
X032349Y019101D02*
X032869Y019101D01*
X034349Y019101D02*
X034869Y019101D01*
X029869Y019101D02*
X029349Y019101D01*
X027869Y019101D02*
X027349Y019101D01*
X027349Y018101D02*
X027869Y018101D01*
X029349Y018101D02*
X029869Y018101D01*
X029869Y017101D02*
X029349Y017101D01*
X027869Y017101D02*
X027349Y017101D01*
X027349Y016101D02*
X027869Y016101D01*
X029349Y016101D02*
X029869Y016101D01*
X029869Y015101D02*
X029349Y015101D01*
X027869Y015101D02*
X027349Y015101D01*
X027349Y014101D02*
X027869Y014101D01*
X029349Y014101D02*
X029869Y014101D01*
X029869Y013101D02*
X029349Y013101D01*
X027869Y013101D02*
X027349Y013101D01*
X027349Y012101D02*
X027869Y012101D01*
X029349Y012101D02*
X029869Y012101D01*
X029869Y010101D02*
X029349Y010101D01*
X027869Y010101D02*
X027349Y010101D01*
X027349Y009101D02*
X027869Y009101D01*
X029349Y009101D02*
X029869Y009101D01*
X029869Y008101D02*
X029349Y008101D01*
X027869Y008101D02*
X027349Y008101D01*
X027349Y007101D02*
X027869Y007101D01*
X029349Y007101D02*
X029869Y007101D01*
X029869Y006101D02*
X029349Y006101D01*
X027869Y006101D02*
X027349Y006101D01*
X027349Y005101D02*
X027869Y005101D01*
X029349Y005101D02*
X029869Y005101D01*
X029869Y004101D02*
X029349Y004101D01*
X027869Y004101D02*
X027349Y004101D01*
X027349Y003101D02*
X027869Y003101D01*
X029349Y003101D02*
X029869Y003101D01*
X024869Y003101D02*
X024349Y003101D01*
X022869Y003101D02*
X022349Y003101D01*
X022349Y004101D02*
X022869Y004101D01*
X024349Y004101D02*
X024869Y004101D01*
X024869Y005101D02*
X024349Y005101D01*
X022869Y005101D02*
X022349Y005101D01*
X022349Y006101D02*
X022869Y006101D01*
X024349Y006101D02*
X024869Y006101D01*
X024869Y007101D02*
X024349Y007101D01*
X022869Y007101D02*
X022349Y007101D01*
X022349Y008101D02*
X022869Y008101D01*
X024349Y008101D02*
X024869Y008101D01*
X024869Y009101D02*
X024349Y009101D01*
X022869Y009101D02*
X022349Y009101D01*
X022349Y010101D02*
X022869Y010101D01*
X024349Y010101D02*
X024869Y010101D01*
X024869Y012101D02*
X024349Y012101D01*
X022869Y012101D02*
X022349Y012101D01*
X022349Y013101D02*
X022869Y013101D01*
X024349Y013101D02*
X024869Y013101D01*
X024869Y014101D02*
X024349Y014101D01*
X022869Y014101D02*
X022349Y014101D01*
X022349Y015101D02*
X022869Y015101D01*
X024349Y015101D02*
X024869Y015101D01*
X024869Y016101D02*
X024349Y016101D01*
X022869Y016101D02*
X022349Y016101D01*
X022349Y017101D02*
X022869Y017101D01*
X024349Y017101D02*
X024869Y017101D01*
X024869Y018101D02*
X024349Y018101D01*
X022869Y018101D02*
X022349Y018101D01*
X022349Y019101D02*
X022869Y019101D01*
X024349Y019101D02*
X024869Y019101D01*
X019869Y019101D02*
X019349Y019101D01*
X017869Y019101D02*
X017349Y019101D01*
X017349Y018101D02*
X017869Y018101D01*
X019349Y018101D02*
X019869Y018101D01*
X019869Y017101D02*
X019349Y017101D01*
X017869Y017101D02*
X017349Y017101D01*
X017349Y016101D02*
X017869Y016101D01*
X019349Y016101D02*
X019869Y016101D01*
X019869Y015101D02*
X019349Y015101D01*
X017869Y015101D02*
X017349Y015101D01*
X017349Y014101D02*
X017869Y014101D01*
X019349Y014101D02*
X019869Y014101D01*
X019869Y013101D02*
X019349Y013101D01*
X017869Y013101D02*
X017349Y013101D01*
X017349Y012101D02*
X017869Y012101D01*
X019349Y012101D02*
X019869Y012101D01*
X019869Y010101D02*
X019349Y010101D01*
X017869Y010101D02*
X017349Y010101D01*
X017349Y009101D02*
X017869Y009101D01*
X019349Y009101D02*
X019869Y009101D01*
X019869Y008101D02*
X019349Y008101D01*
X017869Y008101D02*
X017349Y008101D01*
X017349Y007101D02*
X017869Y007101D01*
X019349Y007101D02*
X019869Y007101D01*
X019869Y006101D02*
X019349Y006101D01*
X017869Y006101D02*
X017349Y006101D01*
X017349Y005101D02*
X017869Y005101D01*
X019349Y005101D02*
X019869Y005101D01*
X019869Y004101D02*
X019349Y004101D01*
X017869Y004101D02*
X017349Y004101D01*
X017349Y003101D02*
X017869Y003101D01*
X019349Y003101D02*
X019869Y003101D01*
X052349Y003601D02*
X052869Y003601D01*
X052869Y004601D02*
X052349Y004601D01*
X052349Y005601D02*
X052869Y005601D01*
X052869Y006601D02*
X052349Y006601D01*
X052349Y007601D02*
X052869Y007601D01*
X052869Y008601D02*
X052349Y008601D01*
X052349Y009601D02*
X052869Y009601D01*
X052869Y012101D02*
X052349Y012101D01*
X052349Y013101D02*
X052869Y013101D01*
X053849Y013101D02*
X054369Y013101D01*
X054369Y014101D02*
X053849Y014101D01*
X052869Y014101D02*
X052349Y014101D01*
X052349Y015101D02*
X052869Y015101D01*
X053849Y015101D02*
X054369Y015101D01*
X054369Y016101D02*
X053849Y016101D01*
X052869Y016101D02*
X052349Y016101D01*
X052349Y017101D02*
X052869Y017101D01*
X053849Y017101D02*
X054369Y017101D01*
X054369Y018101D02*
X053849Y018101D01*
X052869Y018101D02*
X052349Y018101D01*
X052349Y019101D02*
X052869Y019101D01*
X053849Y019101D02*
X054369Y019101D01*
X054369Y020101D02*
X053849Y020101D01*
X056849Y020101D02*
X057369Y020101D01*
X057369Y019101D02*
X056849Y019101D01*
X056849Y018101D02*
X057369Y018101D01*
X057369Y017101D02*
X056849Y017101D01*
X056849Y016101D02*
X057369Y016101D01*
X057369Y015101D02*
X056849Y015101D01*
X056849Y014101D02*
X057369Y014101D01*
X057369Y013101D02*
X056849Y013101D01*
X049869Y018101D02*
X049349Y018101D01*
X047869Y018101D02*
X047349Y018101D01*
X047349Y019101D02*
X047869Y019101D01*
X049349Y019101D02*
X049869Y019101D01*
X047869Y020101D02*
X047349Y020101D01*
X047349Y021101D02*
X047869Y021101D01*
X047869Y022101D02*
X047349Y022101D01*
X047349Y023101D02*
X047869Y023101D01*
X047869Y024101D02*
X047349Y024101D01*
X047349Y025101D02*
X047869Y025101D01*
X044869Y025101D02*
X044349Y025101D01*
X044349Y024101D02*
X044869Y024101D01*
X044869Y023101D02*
X044349Y023101D01*
X044349Y022101D02*
X044869Y022101D01*
X043109Y026841D02*
X043109Y027361D01*
X042109Y027361D02*
X042109Y026841D01*
X041109Y026841D02*
X041109Y027361D01*
X040109Y027361D02*
X040109Y026841D01*
X039109Y026841D02*
X039109Y027361D01*
X038109Y027361D02*
X038109Y026841D01*
X037109Y026841D02*
X037109Y027361D01*
X036109Y027361D02*
X036109Y026841D01*
X035109Y026841D02*
X035109Y027361D01*
X034109Y027361D02*
X034109Y026841D01*
X033109Y026841D02*
X033109Y027361D01*
X032109Y027361D02*
X032109Y026841D01*
X031109Y026841D02*
X031109Y027361D01*
X030109Y027361D02*
X030109Y026841D01*
X029109Y026841D02*
X029109Y027361D01*
X028109Y027361D02*
X028109Y026841D01*
X027109Y026841D02*
X027109Y027361D01*
X026109Y027361D02*
X026109Y026841D01*
X025109Y026841D02*
X025109Y027361D01*
X024109Y027361D02*
X024109Y026841D01*
X023109Y026841D02*
X023109Y027361D01*
X022109Y027361D02*
X022109Y026841D01*
X021109Y026841D02*
X021109Y027361D01*
X020109Y027361D02*
X020109Y026841D01*
X019109Y026841D02*
X019109Y027361D01*
X018109Y027361D02*
X018109Y026841D01*
X017109Y026841D02*
X017109Y027361D01*
X016109Y027361D02*
X016109Y026841D01*
X015109Y026841D02*
X015109Y027361D01*
X014109Y027361D02*
X014109Y026841D01*
X013109Y026841D02*
X013109Y027361D01*
X012109Y027361D02*
X012109Y026841D01*
X011109Y026841D02*
X011109Y027361D01*
X010109Y027361D02*
X010109Y026841D01*
X009109Y026841D02*
X009109Y027361D01*
X008109Y027361D02*
X008109Y026841D01*
X007109Y026841D02*
X007109Y027361D01*
X006109Y027361D02*
X006109Y026841D01*
X005109Y026841D02*
X005109Y027361D01*
X004109Y027361D02*
X004109Y026841D01*
X004109Y021361D02*
X004109Y020841D01*
D11*
X049609Y021101D03*
X051609Y021101D03*
X054109Y006601D03*
X054109Y005601D03*
X054109Y004601D03*
X056109Y004601D03*
X056109Y005601D03*
X056109Y006601D03*
X056109Y003601D03*
X054109Y003601D03*
D12*
X054109Y023601D03*
X055109Y023601D03*
X056109Y023601D03*
X057109Y023601D03*
X058109Y023601D03*
X059109Y023601D03*
X060109Y023601D03*
X061109Y023601D03*
X061109Y024601D03*
X060109Y024601D03*
X059109Y024601D03*
X058109Y024601D03*
X057109Y024601D03*
X056109Y024601D03*
X055109Y024601D03*
X054109Y024601D03*
X051609Y024601D03*
X050609Y024601D03*
X049609Y024601D03*
X049609Y023601D03*
X050609Y023601D03*
X051609Y023601D03*
D13*
X060109Y019398D02*
X060109Y018804D01*
X061109Y018804D02*
X061109Y019398D01*
X061109Y015898D02*
X061109Y015304D01*
X060109Y015304D02*
X060109Y015898D01*
X059109Y015898D02*
X059109Y015304D01*
X059109Y012398D02*
X059109Y011804D01*
X060109Y011804D02*
X060109Y012398D01*
X061109Y012398D02*
X061109Y011804D01*
X061109Y008898D02*
X061109Y008304D01*
X060109Y008304D02*
X060109Y008898D01*
X059109Y008898D02*
X059109Y008304D01*
X058109Y008304D02*
X058109Y008898D01*
X057109Y008898D02*
X057109Y008304D01*
X058109Y005398D02*
X058109Y004804D01*
X059109Y004804D02*
X059109Y005398D01*
X060109Y005398D02*
X060109Y004804D01*
X061109Y004804D02*
X061109Y005398D01*
D14*
X042609Y022101D03*
X042609Y023101D03*
X042609Y024101D03*
X042609Y025101D03*
X042609Y026101D03*
X039609Y026101D03*
X039609Y025101D03*
X039609Y024101D03*
X039609Y023101D03*
X039609Y022101D03*
X037609Y022101D03*
X037609Y023101D03*
X037609Y024101D03*
X037609Y025101D03*
X037609Y026101D03*
X034609Y026101D03*
X034609Y025101D03*
X034609Y024101D03*
X034609Y023101D03*
X034609Y022101D03*
X032609Y022101D03*
X032609Y023101D03*
X032609Y024101D03*
X032609Y025101D03*
X032609Y026101D03*
X029609Y026101D03*
X029609Y025101D03*
X027609Y025101D03*
X027609Y026101D03*
X024609Y026101D03*
X024609Y025101D03*
X022609Y025101D03*
X022609Y026101D03*
X019609Y026101D03*
X019609Y025101D03*
X017609Y025101D03*
X017609Y026101D03*
X014609Y026101D03*
X014609Y025101D03*
X012609Y025101D03*
X012609Y026101D03*
X009609Y026101D03*
X009609Y025101D03*
X007609Y025101D03*
X007609Y026101D03*
X004609Y026101D03*
X004609Y025101D03*
X004609Y024101D03*
X004609Y023101D03*
X004609Y022101D03*
X007609Y022101D03*
X007609Y023101D03*
X007609Y024101D03*
X009609Y024101D03*
X009609Y023101D03*
X009609Y022101D03*
X012609Y022101D03*
X012609Y023101D03*
X012609Y024101D03*
X014609Y024101D03*
X014609Y023101D03*
X014609Y022101D03*
X017609Y022101D03*
X017609Y023101D03*
X017609Y024101D03*
X019609Y024101D03*
X019609Y023101D03*
X019609Y022101D03*
X022609Y022101D03*
X022609Y023101D03*
X022609Y024101D03*
X024609Y024101D03*
X024609Y023101D03*
X024609Y022101D03*
X027609Y022101D03*
X027609Y023101D03*
X027609Y024101D03*
X029609Y024101D03*
X029609Y023101D03*
X029609Y022101D03*
D15*
X059109Y021601D03*
X061109Y021601D03*
X052609Y001601D03*
X050609Y001601D03*
X047609Y001601D03*
X045609Y001601D03*
X042609Y001601D03*
X040609Y001601D03*
X037609Y001601D03*
X035609Y001601D03*
X032609Y001601D03*
X030609Y001601D03*
X027609Y001601D03*
X025609Y001601D03*
X022609Y001601D03*
X020609Y001601D03*
X017609Y001601D03*
X015609Y001601D03*
X012609Y001601D03*
X010609Y001601D03*
X007609Y001601D03*
X005609Y001601D03*
D16*
X001609Y001601D03*
X001609Y027101D03*
X061109Y027101D03*
X061109Y001601D03*
D17*
X052109Y025851D03*
X049109Y025851D03*
X049109Y027851D03*
X052109Y027851D03*
D18*
X048689Y025301D03*
X049949Y022721D03*
X055529Y021701D03*
X058529Y020201D03*
X058349Y019481D03*
X058349Y018581D03*
X058049Y017201D03*
X055409Y018881D03*
X051569Y016781D03*
X050549Y016181D03*
X048569Y015761D03*
X046349Y014801D03*
X050969Y013721D03*
X053549Y011741D03*
X055829Y013541D03*
X056009Y014201D03*
X053369Y016601D03*
X038429Y023741D03*
X031949Y020141D03*
X033569Y016121D03*
X036389Y014981D03*
X036689Y015341D03*
X031469Y014261D03*
X033149Y011441D03*
X036689Y007181D03*
X035969Y006221D03*
X030989Y006221D03*
X026429Y004481D03*
X025949Y006221D03*
X021749Y005741D03*
X020969Y006221D03*
X021269Y008021D03*
X016469Y006701D03*
X015989Y006221D03*
X016109Y008021D03*
X010949Y005321D03*
X006989Y010721D03*
X016469Y014261D03*
X018569Y016121D03*
X021689Y014561D03*
X018149Y011441D03*
X021989Y010781D03*
X031889Y003581D03*
X033689Y003221D03*
X040949Y006221D03*
X043769Y005741D03*
X043889Y006581D03*
X048569Y007301D03*
X053489Y008921D03*
X016949Y020141D03*
X006689Y016181D03*
M02*
