G75*
G70*
%OFA0B0*%
%FSLAX24Y24*%
%IPPOS*%
%LPD*%
%AMOC8*
5,1,8,0,0,1.08239X$1,22.5*
%
%ADD10C,0.0000*%
D10*
X000100Y000100D02*
X000100Y003100D01*
X006900Y003100D01*
X006900Y021200D01*
X000100Y021200D01*
X000100Y028600D01*
X018300Y028600D01*
X018300Y019700D01*
X022600Y019700D01*
X022600Y000100D01*
X000100Y000100D01*
X000950Y001600D02*
X000952Y001650D01*
X000958Y001700D01*
X000968Y001750D01*
X000981Y001798D01*
X000998Y001846D01*
X001019Y001892D01*
X001043Y001936D01*
X001071Y001978D01*
X001102Y002018D01*
X001136Y002055D01*
X001173Y002090D01*
X001212Y002121D01*
X001253Y002150D01*
X001297Y002175D01*
X001343Y002197D01*
X001390Y002215D01*
X001438Y002229D01*
X001487Y002240D01*
X001537Y002247D01*
X001587Y002250D01*
X001638Y002249D01*
X001688Y002244D01*
X001738Y002235D01*
X001786Y002223D01*
X001834Y002206D01*
X001880Y002186D01*
X001925Y002163D01*
X001968Y002136D01*
X002008Y002106D01*
X002046Y002073D01*
X002081Y002037D01*
X002114Y001998D01*
X002143Y001957D01*
X002169Y001914D01*
X002192Y001869D01*
X002211Y001822D01*
X002226Y001774D01*
X002238Y001725D01*
X002246Y001675D01*
X002250Y001625D01*
X002250Y001575D01*
X002246Y001525D01*
X002238Y001475D01*
X002226Y001426D01*
X002211Y001378D01*
X002192Y001331D01*
X002169Y001286D01*
X002143Y001243D01*
X002114Y001202D01*
X002081Y001163D01*
X002046Y001127D01*
X002008Y001094D01*
X001968Y001064D01*
X001925Y001037D01*
X001880Y001014D01*
X001834Y000994D01*
X001786Y000977D01*
X001738Y000965D01*
X001688Y000956D01*
X001638Y000951D01*
X001587Y000950D01*
X001537Y000953D01*
X001487Y000960D01*
X001438Y000971D01*
X001390Y000985D01*
X001343Y001003D01*
X001297Y001025D01*
X001253Y001050D01*
X001212Y001079D01*
X001173Y001110D01*
X001136Y001145D01*
X001102Y001182D01*
X001071Y001222D01*
X001043Y001264D01*
X001019Y001308D01*
X000998Y001354D01*
X000981Y001402D01*
X000968Y001450D01*
X000958Y001500D01*
X000952Y001550D01*
X000950Y001600D01*
X007420Y006000D02*
X007422Y006050D01*
X007428Y006100D01*
X007438Y006149D01*
X007452Y006197D01*
X007469Y006244D01*
X007490Y006289D01*
X007515Y006333D01*
X007543Y006374D01*
X007575Y006413D01*
X007609Y006450D01*
X007646Y006484D01*
X007686Y006514D01*
X007728Y006541D01*
X007772Y006565D01*
X007818Y006586D01*
X007865Y006602D01*
X007913Y006615D01*
X007963Y006624D01*
X008012Y006629D01*
X008063Y006630D01*
X008113Y006627D01*
X008162Y006620D01*
X008211Y006609D01*
X008259Y006594D01*
X008305Y006576D01*
X008350Y006554D01*
X008393Y006528D01*
X008434Y006499D01*
X008473Y006467D01*
X008509Y006432D01*
X008541Y006394D01*
X008571Y006354D01*
X008598Y006311D01*
X008621Y006267D01*
X008640Y006221D01*
X008656Y006173D01*
X008668Y006124D01*
X008676Y006075D01*
X008680Y006025D01*
X008680Y005975D01*
X008676Y005925D01*
X008668Y005876D01*
X008656Y005827D01*
X008640Y005779D01*
X008621Y005733D01*
X008598Y005689D01*
X008571Y005646D01*
X008541Y005606D01*
X008509Y005568D01*
X008473Y005533D01*
X008434Y005501D01*
X008393Y005472D01*
X008350Y005446D01*
X008305Y005424D01*
X008259Y005406D01*
X008211Y005391D01*
X008162Y005380D01*
X008113Y005373D01*
X008063Y005370D01*
X008012Y005371D01*
X007963Y005376D01*
X007913Y005385D01*
X007865Y005398D01*
X007818Y005414D01*
X007772Y005435D01*
X007728Y005459D01*
X007686Y005486D01*
X007646Y005516D01*
X007609Y005550D01*
X007575Y005587D01*
X007543Y005626D01*
X007515Y005667D01*
X007490Y005711D01*
X007469Y005756D01*
X007452Y005803D01*
X007438Y005851D01*
X007428Y005900D01*
X007422Y005950D01*
X007420Y006000D01*
X011920Y006000D02*
X011922Y006050D01*
X011928Y006100D01*
X011938Y006149D01*
X011952Y006197D01*
X011969Y006244D01*
X011990Y006289D01*
X012015Y006333D01*
X012043Y006374D01*
X012075Y006413D01*
X012109Y006450D01*
X012146Y006484D01*
X012186Y006514D01*
X012228Y006541D01*
X012272Y006565D01*
X012318Y006586D01*
X012365Y006602D01*
X012413Y006615D01*
X012463Y006624D01*
X012512Y006629D01*
X012563Y006630D01*
X012613Y006627D01*
X012662Y006620D01*
X012711Y006609D01*
X012759Y006594D01*
X012805Y006576D01*
X012850Y006554D01*
X012893Y006528D01*
X012934Y006499D01*
X012973Y006467D01*
X013009Y006432D01*
X013041Y006394D01*
X013071Y006354D01*
X013098Y006311D01*
X013121Y006267D01*
X013140Y006221D01*
X013156Y006173D01*
X013168Y006124D01*
X013176Y006075D01*
X013180Y006025D01*
X013180Y005975D01*
X013176Y005925D01*
X013168Y005876D01*
X013156Y005827D01*
X013140Y005779D01*
X013121Y005733D01*
X013098Y005689D01*
X013071Y005646D01*
X013041Y005606D01*
X013009Y005568D01*
X012973Y005533D01*
X012934Y005501D01*
X012893Y005472D01*
X012850Y005446D01*
X012805Y005424D01*
X012759Y005406D01*
X012711Y005391D01*
X012662Y005380D01*
X012613Y005373D01*
X012563Y005370D01*
X012512Y005371D01*
X012463Y005376D01*
X012413Y005385D01*
X012365Y005398D01*
X012318Y005414D01*
X012272Y005435D01*
X012228Y005459D01*
X012186Y005486D01*
X012146Y005516D01*
X012109Y005550D01*
X012075Y005587D01*
X012043Y005626D01*
X012015Y005667D01*
X011990Y005711D01*
X011969Y005756D01*
X011952Y005803D01*
X011938Y005851D01*
X011928Y005900D01*
X011922Y005950D01*
X011920Y006000D01*
X013920Y006000D02*
X013922Y006050D01*
X013928Y006100D01*
X013938Y006149D01*
X013952Y006197D01*
X013969Y006244D01*
X013990Y006289D01*
X014015Y006333D01*
X014043Y006374D01*
X014075Y006413D01*
X014109Y006450D01*
X014146Y006484D01*
X014186Y006514D01*
X014228Y006541D01*
X014272Y006565D01*
X014318Y006586D01*
X014365Y006602D01*
X014413Y006615D01*
X014463Y006624D01*
X014512Y006629D01*
X014563Y006630D01*
X014613Y006627D01*
X014662Y006620D01*
X014711Y006609D01*
X014759Y006594D01*
X014805Y006576D01*
X014850Y006554D01*
X014893Y006528D01*
X014934Y006499D01*
X014973Y006467D01*
X015009Y006432D01*
X015041Y006394D01*
X015071Y006354D01*
X015098Y006311D01*
X015121Y006267D01*
X015140Y006221D01*
X015156Y006173D01*
X015168Y006124D01*
X015176Y006075D01*
X015180Y006025D01*
X015180Y005975D01*
X015176Y005925D01*
X015168Y005876D01*
X015156Y005827D01*
X015140Y005779D01*
X015121Y005733D01*
X015098Y005689D01*
X015071Y005646D01*
X015041Y005606D01*
X015009Y005568D01*
X014973Y005533D01*
X014934Y005501D01*
X014893Y005472D01*
X014850Y005446D01*
X014805Y005424D01*
X014759Y005406D01*
X014711Y005391D01*
X014662Y005380D01*
X014613Y005373D01*
X014563Y005370D01*
X014512Y005371D01*
X014463Y005376D01*
X014413Y005385D01*
X014365Y005398D01*
X014318Y005414D01*
X014272Y005435D01*
X014228Y005459D01*
X014186Y005486D01*
X014146Y005516D01*
X014109Y005550D01*
X014075Y005587D01*
X014043Y005626D01*
X014015Y005667D01*
X013990Y005711D01*
X013969Y005756D01*
X013952Y005803D01*
X013938Y005851D01*
X013928Y005900D01*
X013922Y005950D01*
X013920Y006000D01*
X018420Y006000D02*
X018422Y006050D01*
X018428Y006100D01*
X018438Y006149D01*
X018452Y006197D01*
X018469Y006244D01*
X018490Y006289D01*
X018515Y006333D01*
X018543Y006374D01*
X018575Y006413D01*
X018609Y006450D01*
X018646Y006484D01*
X018686Y006514D01*
X018728Y006541D01*
X018772Y006565D01*
X018818Y006586D01*
X018865Y006602D01*
X018913Y006615D01*
X018963Y006624D01*
X019012Y006629D01*
X019063Y006630D01*
X019113Y006627D01*
X019162Y006620D01*
X019211Y006609D01*
X019259Y006594D01*
X019305Y006576D01*
X019350Y006554D01*
X019393Y006528D01*
X019434Y006499D01*
X019473Y006467D01*
X019509Y006432D01*
X019541Y006394D01*
X019571Y006354D01*
X019598Y006311D01*
X019621Y006267D01*
X019640Y006221D01*
X019656Y006173D01*
X019668Y006124D01*
X019676Y006075D01*
X019680Y006025D01*
X019680Y005975D01*
X019676Y005925D01*
X019668Y005876D01*
X019656Y005827D01*
X019640Y005779D01*
X019621Y005733D01*
X019598Y005689D01*
X019571Y005646D01*
X019541Y005606D01*
X019509Y005568D01*
X019473Y005533D01*
X019434Y005501D01*
X019393Y005472D01*
X019350Y005446D01*
X019305Y005424D01*
X019259Y005406D01*
X019211Y005391D01*
X019162Y005380D01*
X019113Y005373D01*
X019063Y005370D01*
X019012Y005371D01*
X018963Y005376D01*
X018913Y005385D01*
X018865Y005398D01*
X018818Y005414D01*
X018772Y005435D01*
X018728Y005459D01*
X018686Y005486D01*
X018646Y005516D01*
X018609Y005550D01*
X018575Y005587D01*
X018543Y005626D01*
X018515Y005667D01*
X018490Y005711D01*
X018469Y005756D01*
X018452Y005803D01*
X018438Y005851D01*
X018428Y005900D01*
X018422Y005950D01*
X018420Y006000D01*
X020450Y001600D02*
X020452Y001650D01*
X020458Y001700D01*
X020468Y001750D01*
X020481Y001798D01*
X020498Y001846D01*
X020519Y001892D01*
X020543Y001936D01*
X020571Y001978D01*
X020602Y002018D01*
X020636Y002055D01*
X020673Y002090D01*
X020712Y002121D01*
X020753Y002150D01*
X020797Y002175D01*
X020843Y002197D01*
X020890Y002215D01*
X020938Y002229D01*
X020987Y002240D01*
X021037Y002247D01*
X021087Y002250D01*
X021138Y002249D01*
X021188Y002244D01*
X021238Y002235D01*
X021286Y002223D01*
X021334Y002206D01*
X021380Y002186D01*
X021425Y002163D01*
X021468Y002136D01*
X021508Y002106D01*
X021546Y002073D01*
X021581Y002037D01*
X021614Y001998D01*
X021643Y001957D01*
X021669Y001914D01*
X021692Y001869D01*
X021711Y001822D01*
X021726Y001774D01*
X021738Y001725D01*
X021746Y001675D01*
X021750Y001625D01*
X021750Y001575D01*
X021746Y001525D01*
X021738Y001475D01*
X021726Y001426D01*
X021711Y001378D01*
X021692Y001331D01*
X021669Y001286D01*
X021643Y001243D01*
X021614Y001202D01*
X021581Y001163D01*
X021546Y001127D01*
X021508Y001094D01*
X021468Y001064D01*
X021425Y001037D01*
X021380Y001014D01*
X021334Y000994D01*
X021286Y000977D01*
X021238Y000965D01*
X021188Y000956D01*
X021138Y000951D01*
X021087Y000950D01*
X021037Y000953D01*
X020987Y000960D01*
X020938Y000971D01*
X020890Y000985D01*
X020843Y001003D01*
X020797Y001025D01*
X020753Y001050D01*
X020712Y001079D01*
X020673Y001110D01*
X020636Y001145D01*
X020602Y001182D01*
X020571Y001222D01*
X020543Y001264D01*
X020519Y001308D01*
X020498Y001354D01*
X020481Y001402D01*
X020468Y001450D01*
X020458Y001500D01*
X020452Y001550D01*
X020450Y001600D01*
X016520Y024200D02*
X016522Y024250D01*
X016528Y024300D01*
X016538Y024349D01*
X016552Y024397D01*
X016569Y024444D01*
X016590Y024489D01*
X016615Y024533D01*
X016643Y024574D01*
X016675Y024613D01*
X016709Y024650D01*
X016746Y024684D01*
X016786Y024714D01*
X016828Y024741D01*
X016872Y024765D01*
X016918Y024786D01*
X016965Y024802D01*
X017013Y024815D01*
X017063Y024824D01*
X017112Y024829D01*
X017163Y024830D01*
X017213Y024827D01*
X017262Y024820D01*
X017311Y024809D01*
X017359Y024794D01*
X017405Y024776D01*
X017450Y024754D01*
X017493Y024728D01*
X017534Y024699D01*
X017573Y024667D01*
X017609Y024632D01*
X017641Y024594D01*
X017671Y024554D01*
X017698Y024511D01*
X017721Y024467D01*
X017740Y024421D01*
X017756Y024373D01*
X017768Y024324D01*
X017776Y024275D01*
X017780Y024225D01*
X017780Y024175D01*
X017776Y024125D01*
X017768Y024076D01*
X017756Y024027D01*
X017740Y023979D01*
X017721Y023933D01*
X017698Y023889D01*
X017671Y023846D01*
X017641Y023806D01*
X017609Y023768D01*
X017573Y023733D01*
X017534Y023701D01*
X017493Y023672D01*
X017450Y023646D01*
X017405Y023624D01*
X017359Y023606D01*
X017311Y023591D01*
X017262Y023580D01*
X017213Y023573D01*
X017163Y023570D01*
X017112Y023571D01*
X017063Y023576D01*
X017013Y023585D01*
X016965Y023598D01*
X016918Y023614D01*
X016872Y023635D01*
X016828Y023659D01*
X016786Y023686D01*
X016746Y023716D01*
X016709Y023750D01*
X016675Y023787D01*
X016643Y023826D01*
X016615Y023867D01*
X016590Y023911D01*
X016569Y023956D01*
X016552Y024003D01*
X016538Y024051D01*
X016528Y024100D01*
X016522Y024150D01*
X016520Y024200D01*
X012020Y024200D02*
X012022Y024250D01*
X012028Y024300D01*
X012038Y024349D01*
X012052Y024397D01*
X012069Y024444D01*
X012090Y024489D01*
X012115Y024533D01*
X012143Y024574D01*
X012175Y024613D01*
X012209Y024650D01*
X012246Y024684D01*
X012286Y024714D01*
X012328Y024741D01*
X012372Y024765D01*
X012418Y024786D01*
X012465Y024802D01*
X012513Y024815D01*
X012563Y024824D01*
X012612Y024829D01*
X012663Y024830D01*
X012713Y024827D01*
X012762Y024820D01*
X012811Y024809D01*
X012859Y024794D01*
X012905Y024776D01*
X012950Y024754D01*
X012993Y024728D01*
X013034Y024699D01*
X013073Y024667D01*
X013109Y024632D01*
X013141Y024594D01*
X013171Y024554D01*
X013198Y024511D01*
X013221Y024467D01*
X013240Y024421D01*
X013256Y024373D01*
X013268Y024324D01*
X013276Y024275D01*
X013280Y024225D01*
X013280Y024175D01*
X013276Y024125D01*
X013268Y024076D01*
X013256Y024027D01*
X013240Y023979D01*
X013221Y023933D01*
X013198Y023889D01*
X013171Y023846D01*
X013141Y023806D01*
X013109Y023768D01*
X013073Y023733D01*
X013034Y023701D01*
X012993Y023672D01*
X012950Y023646D01*
X012905Y023624D01*
X012859Y023606D01*
X012811Y023591D01*
X012762Y023580D01*
X012713Y023573D01*
X012663Y023570D01*
X012612Y023571D01*
X012563Y023576D01*
X012513Y023585D01*
X012465Y023598D01*
X012418Y023614D01*
X012372Y023635D01*
X012328Y023659D01*
X012286Y023686D01*
X012246Y023716D01*
X012209Y023750D01*
X012175Y023787D01*
X012143Y023826D01*
X012115Y023867D01*
X012090Y023911D01*
X012069Y023956D01*
X012052Y024003D01*
X012038Y024051D01*
X012028Y024100D01*
X012022Y024150D01*
X012020Y024200D01*
X000950Y027100D02*
X000952Y027150D01*
X000958Y027200D01*
X000968Y027250D01*
X000981Y027298D01*
X000998Y027346D01*
X001019Y027392D01*
X001043Y027436D01*
X001071Y027478D01*
X001102Y027518D01*
X001136Y027555D01*
X001173Y027590D01*
X001212Y027621D01*
X001253Y027650D01*
X001297Y027675D01*
X001343Y027697D01*
X001390Y027715D01*
X001438Y027729D01*
X001487Y027740D01*
X001537Y027747D01*
X001587Y027750D01*
X001638Y027749D01*
X001688Y027744D01*
X001738Y027735D01*
X001786Y027723D01*
X001834Y027706D01*
X001880Y027686D01*
X001925Y027663D01*
X001968Y027636D01*
X002008Y027606D01*
X002046Y027573D01*
X002081Y027537D01*
X002114Y027498D01*
X002143Y027457D01*
X002169Y027414D01*
X002192Y027369D01*
X002211Y027322D01*
X002226Y027274D01*
X002238Y027225D01*
X002246Y027175D01*
X002250Y027125D01*
X002250Y027075D01*
X002246Y027025D01*
X002238Y026975D01*
X002226Y026926D01*
X002211Y026878D01*
X002192Y026831D01*
X002169Y026786D01*
X002143Y026743D01*
X002114Y026702D01*
X002081Y026663D01*
X002046Y026627D01*
X002008Y026594D01*
X001968Y026564D01*
X001925Y026537D01*
X001880Y026514D01*
X001834Y026494D01*
X001786Y026477D01*
X001738Y026465D01*
X001688Y026456D01*
X001638Y026451D01*
X001587Y026450D01*
X001537Y026453D01*
X001487Y026460D01*
X001438Y026471D01*
X001390Y026485D01*
X001343Y026503D01*
X001297Y026525D01*
X001253Y026550D01*
X001212Y026579D01*
X001173Y026610D01*
X001136Y026645D01*
X001102Y026682D01*
X001071Y026722D01*
X001043Y026764D01*
X001019Y026808D01*
X000998Y026854D01*
X000981Y026902D01*
X000968Y026950D01*
X000958Y027000D01*
X000952Y027050D01*
X000950Y027100D01*
M02*
