%
M48
M72
T01C0.0120
T02C0.0320
T03C0.0394
T04C0.0400
T05C0.1260
T06C0.1300
%
T01
X10980Y15920
X11300Y16480
X10460Y17360
X10720Y17620
X11420Y17620
X11900Y17620
X11620Y18900
X12560Y19660
X12240Y21060
X12500Y21800
X11920Y21840
X10660Y22280
X9540Y23040
X9540Y23860
X7040Y25540
X5360Y22400
X4340Y22660
X7500Y19960
X8140Y20440
X16080Y16960
X17200Y16700
T02
X17600Y17900
X17600Y18900
X15600Y18900
X15600Y17900
X15600Y14400
X16200Y12500
X15450Y12000
X16200Y11500
X17900Y11500
X17900Y12500
X17600Y14400
X19600Y12600
X20100Y14100
X21100Y14100
X21600Y12600
X21100Y16200
X20100Y16200
X19600Y17700
X21600Y17700
X14200Y12500
X14200Y11500
X8600Y15900
X8600Y16900
T03
X13150Y20700
X13650Y21700
X14150Y20700
X14650Y21700
X15150Y20700
X15650Y21700
X16150Y20700
X16650Y21700
X16550Y9500
X15550Y9500
X15050Y8500
X16050Y8500
X17050Y8500
X18050Y8500
X17550Y9500
X18550Y9500
X12050Y9500
X11550Y8500
X10550Y8500
X9550Y8500
X9050Y9500
X8550Y8500
X10050Y9500
X11050Y9500
T04
X10900Y11500
X10900Y12500
X11900Y12500
X11900Y11500
X9900Y11500
X9900Y12500
X14100Y16200
X14100Y17200
X8600Y23600
X8600Y24600
X7600Y24600
X7600Y23600
X6600Y23600
X6600Y24600
X5600Y24600
X5600Y23600
X4600Y23600
X4600Y24600
X3600Y24600
X3600Y23600
X2600Y23600
X2600Y24600
X1600Y24600
X1600Y23600
T05
X12650Y24200
X17150Y24200
X19050Y6000
X14550Y6000
X12550Y6000
X8050Y6000
T06
X1600Y1600
X21100Y1600
X1600Y27100
M30
