%
M48
M72
T01C0.0240
T02C0.0320
T03C0.0354
T04C0.0400
T05C0.0669
%
T01
X11621Y5622
X15721Y4122
X16521Y5222
X18621Y4822
X19021Y5422
X21121Y5822
X21521Y4622
X21121Y4222
X23921Y4622
X26321Y4622
X26321Y5622
X26121Y6222
X28921Y4822
X31321Y4222
X31521Y4822
X33921Y4822
X36121Y6022
X36521Y4822
X38921Y4822
X41121Y4822
X43921Y4822
X46121Y4822
X48921Y4822
X51121Y4722
X51121Y5222
X51321Y6022
X53921Y5622
X56121Y5622
X58921Y7222
X54321Y9522
X53921Y10422
X51121Y9622
X49121Y9122
X48921Y10422
X46321Y9722
X46121Y9222
X44121Y9022
X41321Y9322
X39121Y10122
X38921Y10622
X36321Y12122
X33921Y10622
X34121Y10122
X31321Y9722
X28921Y10422
X26121Y10622
X26121Y9722
X23921Y10122
X21321Y10622
X24021Y11722
X26721Y13722
X31121Y14622
X31721Y14222
X36721Y14222
X41721Y13922
X46121Y14622
X46721Y14222
X51121Y14622
X51721Y14222
X56121Y13322
X43921Y10422
X46321Y6622
X41321Y6622
X31121Y6222
X29121Y8022
X31121Y8222
X21321Y9022
X18521Y10222
X16521Y9022
X16521Y8222
X12121Y8022
X12021Y9022
X11221Y9422
X9021Y10222
X7521Y9822
X7121Y10822
X11421Y10822
X12021Y11622
X13921Y10822
X16121Y10622
X21721Y14022
X21121Y14622
X21321Y15222
X16521Y17322
X15721Y17522
X13721Y17022
X11421Y17222
X11821Y18122
X12421Y18522
X9621Y18622
X9221Y19522
X7121Y19122
X6721Y17622
X6121Y17222
X7321Y16822
X6621Y14222
X6921Y13822
X7121Y13022
X2821Y13222
X15621Y18522
X12621Y20422
X11821Y21222
X13721Y21022
X8321Y20522
X4421Y20422
X3621Y20722
X3221Y21222
X2721Y21222
X4321Y21622
X11521Y24922
X12521Y24922
X25221Y21922
X30221Y21922
X35221Y21922
X39521Y19822
X36321Y19622
X45221Y21922
X50221Y21922
X54521Y19822
X26321Y19622
X21721Y19222
X30921Y3222
X35521Y2222
T02
X34821Y2622
X34821Y1622
X32821Y1622
X32821Y2622
X32821Y3622
X34821Y3622
X34821Y4622
X32821Y4622
X32821Y5622
X34821Y5622
X34821Y6622
X32821Y6622
X32821Y7622
X32821Y8622
X34821Y8622
X34821Y7622
X37821Y7622
X37821Y8622
X39821Y8622
X39821Y7622
X39821Y6622
X37821Y6622
X37821Y5622
X39821Y5622
X39821Y4622
X37821Y4622
X37821Y3622
X39821Y3622
X39821Y2622
X39821Y1622
X37821Y1622
X37821Y2622
X42821Y2622
X42821Y1622
X44821Y1622
X44821Y2622
X44821Y3622
X42821Y3622
X42821Y4622
X44821Y4622
X44821Y5622
X42821Y5622
X42821Y6622
X44821Y6622
X44821Y7622
X44821Y8622
X42821Y8622
X42821Y7622
X47821Y7622
X47821Y8622
X49821Y8622
X49821Y7622
X49821Y6622
X47821Y6622
X47821Y5622
X49821Y5622
X49821Y4622
X47821Y4622
X47821Y3622
X49821Y3622
X49821Y2622
X49821Y1622
X47821Y1622
X47821Y2622
X52821Y2622
X52821Y1622
X54821Y1622
X54821Y2622
X54821Y3622
X54821Y4622
X54821Y5622
X54821Y6622
X54821Y7622
X54821Y8622
X52821Y8622
X52821Y7622
X52821Y6622
X52821Y5622
X52821Y4622
X52821Y3622
X57821Y3622
X57821Y4622
X57821Y5622
X57821Y6622
X57821Y7622
X57821Y8622
X57821Y10622
X57821Y11622
X57821Y12622
X57821Y13622
X57821Y14622
X57821Y15622
X57821Y16622
X57821Y17622
X54821Y17622
X54821Y16622
X54821Y15622
X54821Y14622
X54821Y13622
X54821Y12622
X54821Y11622
X54821Y10622
X52821Y10622
X52821Y11622
X52821Y12622
X52821Y13622
X52821Y14622
X52821Y15622
X52821Y16622
X52821Y17622
X49821Y17622
X47821Y17622
X47821Y16622
X49821Y16622
X49821Y15622
X47821Y15622
X47821Y14622
X49821Y14622
X49821Y13622
X49821Y12622
X47821Y12622
X47821Y13622
X44821Y13622
X44821Y12622
X42821Y12622
X42821Y13622
X42821Y14622
X44821Y14622
X44821Y15622
X42821Y15622
X42821Y16622
X44821Y16622
X44821Y17622
X42821Y17622
X39821Y17622
X37821Y17622
X37821Y16622
X39821Y16622
X39821Y15622
X37821Y15622
X37821Y14622
X39821Y14622
X39821Y13622
X39821Y12622
X37821Y12622
X37821Y13622
X34821Y13622
X34821Y12622
X32821Y12622
X32821Y13622
X32821Y14622
X34821Y14622
X34821Y15622
X32821Y15622
X32821Y16622
X34821Y16622
X34821Y17622
X32821Y17622
X29821Y17622
X27821Y17622
X27821Y16622
X29821Y16622
X29821Y15622
X27821Y15622
X27821Y14622
X29821Y14622
X29821Y13622
X29821Y12622
X27821Y12622
X27821Y13622
X24821Y13622
X24821Y12622
X22821Y12622
X22821Y13622
X22821Y14622
X24821Y14622
X24821Y15622
X22821Y15622
X22821Y16622
X24821Y16622
X24821Y17622
X22821Y17622
X19821Y17622
X17821Y17622
X17821Y18622
X17821Y19622
X17821Y20622
X17821Y21622
X17821Y22622
X17821Y23622
X14821Y23622
X14821Y22622
X14821Y21622
X14821Y20622
X14821Y19622
X14821Y18622
X14821Y17622
X13071Y17622
X13071Y16622
X14821Y16622
X14821Y15622
X13071Y15622
X13071Y14622
X14821Y14622
X14821Y13622
X13071Y13622
X13071Y12622
X14821Y12622
X14821Y11622
X13071Y11622
X13071Y10622
X14821Y10622
X17821Y10622
X19821Y10622
X19821Y11622
X17821Y11622
X17821Y12622
X17821Y13622
X19821Y13622
X19821Y12622
X22821Y11622
X24821Y11622
X24821Y10622
X22821Y10622
X22821Y8622
X22821Y7622
X24821Y7622
X24821Y8622
X27821Y8622
X27821Y7622
X29821Y7622
X29821Y8622
X29821Y6622
X27821Y6622
X27821Y5622
X29821Y5622
X29821Y4622
X27821Y4622
X27821Y3622
X29821Y3622
X29821Y2622
X29821Y1622
X27821Y1622
X27821Y2622
X24821Y2622
X24821Y1622
X22821Y1622
X22821Y2622
X22821Y3622
X24821Y3622
X24821Y4622
X22821Y4622
X22821Y5622
X24821Y5622
X24821Y6622
X22821Y6622
X19821Y6622
X17821Y6622
X17821Y7622
X17821Y8622
X19821Y8622
X19821Y7622
X19821Y5622
X17821Y5622
X17821Y4622
X19821Y4622
X19821Y3622
X17821Y3622
X17821Y2622
X17821Y1622
X19821Y1622
X19821Y2622
X14821Y2622
X13071Y3122
X14821Y3622
X13071Y4122
X14821Y4622
X13071Y5122
X14821Y5622
X13071Y6122
X14821Y6622
X13071Y7122
X14821Y7622
X13071Y8122
X14821Y8622
X10071Y8122
X10071Y7122
X8571Y6972
X10071Y6122
X8571Y5972
X10071Y5122
X8571Y4972
X8571Y3972
X10071Y4122
X10071Y3122
X10071Y2122
X13071Y2122
X14821Y1622
X6571Y3972
X6571Y4972
X6571Y5972
X6571Y6972
X10071Y10622
X10071Y11622
X8321Y11622
X8321Y12622
X8321Y13622
X10071Y13622
X10071Y12622
X10071Y14622
X8321Y14622
X8321Y15622
X10071Y15622
X10071Y16622
X8321Y16622
X8321Y17622
X10071Y17622
X8321Y18622
X5321Y18622
X5321Y17622
X5321Y16622
X3321Y16122
X1321Y16122
X5321Y15622
X5321Y14622
X5321Y13622
X5321Y12622
X5321Y11622
X17821Y14622
X19821Y14622
X19821Y15622
X17821Y15622
X17821Y16622
X19821Y16622
X27821Y11622
X29821Y11622
X29821Y10622
X27821Y10622
X32821Y10622
X34821Y10622
X34821Y11622
X32821Y11622
X37821Y11622
X39821Y11622
X39821Y10622
X37821Y10622
X42821Y10622
X44821Y10622
X44821Y11622
X42821Y11622
X47821Y11622
X49821Y11622
X49821Y10622
X47821Y10622
X60071Y6122
X60071Y4122
X57821Y2622
X57821Y1622
X60321Y20622
X60321Y22622
X7071Y22122
X7071Y20122
T03
X19821Y20372
X19821Y21372
X19821Y22372
X19821Y23372
X19821Y24372
X22821Y24372
X22821Y23372
X24821Y23372
X24821Y24372
X27821Y24372
X27821Y23372
X29821Y23372
X29821Y24372
X32821Y24372
X32821Y23372
X34821Y23372
X34821Y24372
X37821Y24372
X37821Y23372
X39821Y23372
X39821Y24372
X42821Y24372
X42821Y23372
X44821Y23372
X44821Y24372
X47821Y24372
X47821Y23372
X49821Y23372
X49821Y24372
X52821Y24372
X52821Y23372
X52821Y22372
X52821Y21372
X52821Y20372
X54821Y20372
X54821Y21372
X54821Y22372
X54821Y23372
X54821Y24372
X57821Y24372
X57821Y23372
X57821Y22372
X57821Y21372
X57821Y20372
X49821Y20372
X47821Y20372
X47821Y21372
X49821Y21372
X49821Y22372
X47821Y22372
X44821Y22372
X42821Y22372
X42821Y21372
X44821Y21372
X44821Y20372
X42821Y20372
X39821Y20372
X37821Y20372
X37821Y21372
X39821Y21372
X39821Y22372
X37821Y22372
X34821Y22372
X32821Y22372
X32821Y21372
X34821Y21372
X34821Y20372
X32821Y20372
X29821Y20372
X27821Y20372
X27821Y21372
X29821Y21372
X29821Y22372
X27821Y22372
X24821Y22372
X22821Y22372
X22821Y21372
X24821Y21372
X24821Y20372
X22821Y20372
T04
X8321Y23622
X7321Y23622
X6321Y23622
X5321Y23622
X4321Y23622
X3321Y23622
X2321Y23622
X1321Y23622
X1321Y24622
X2321Y24622
X3321Y24622
X4321Y24622
X5321Y24622
X6321Y24622
X7321Y24622
X8321Y24622
X3321Y19372
X2321Y19372
X1321Y19372
X1321Y18372
X2321Y18372
X3321Y18372
T05
X1772Y4042
X3331Y4042
X4890Y4042
X4890Y8602
X3331Y8602
X1772Y8602
X11042Y22122
X12601Y22122
M30
