G75*
G70*
%OFA0B0*%
%FSLAX24Y24*%
%IPPOS*%
%LPD*%
%AMOC8*
5,1,8,0,0,1.08239X$1,22.5*
%
%ADD10C,0.0000*%
D10*
X000600Y000430D02*
X000600Y041030D01*
X023100Y041030D01*
X023100Y000430D01*
X000600Y000430D01*
X001700Y006180D02*
X001702Y006230D01*
X001708Y006280D01*
X001718Y006330D01*
X001731Y006378D01*
X001748Y006426D01*
X001769Y006472D01*
X001793Y006516D01*
X001821Y006558D01*
X001852Y006598D01*
X001886Y006635D01*
X001923Y006670D01*
X001962Y006701D01*
X002003Y006730D01*
X002047Y006755D01*
X002093Y006777D01*
X002140Y006795D01*
X002188Y006809D01*
X002237Y006820D01*
X002287Y006827D01*
X002337Y006830D01*
X002388Y006829D01*
X002438Y006824D01*
X002488Y006815D01*
X002536Y006803D01*
X002584Y006786D01*
X002630Y006766D01*
X002675Y006743D01*
X002718Y006716D01*
X002758Y006686D01*
X002796Y006653D01*
X002831Y006617D01*
X002864Y006578D01*
X002893Y006537D01*
X002919Y006494D01*
X002942Y006449D01*
X002961Y006402D01*
X002976Y006354D01*
X002988Y006305D01*
X002996Y006255D01*
X003000Y006205D01*
X003000Y006155D01*
X002996Y006105D01*
X002988Y006055D01*
X002976Y006006D01*
X002961Y005958D01*
X002942Y005911D01*
X002919Y005866D01*
X002893Y005823D01*
X002864Y005782D01*
X002831Y005743D01*
X002796Y005707D01*
X002758Y005674D01*
X002718Y005644D01*
X002675Y005617D01*
X002630Y005594D01*
X002584Y005574D01*
X002536Y005557D01*
X002488Y005545D01*
X002438Y005536D01*
X002388Y005531D01*
X002337Y005530D01*
X002287Y005533D01*
X002237Y005540D01*
X002188Y005551D01*
X002140Y005565D01*
X002093Y005583D01*
X002047Y005605D01*
X002003Y005630D01*
X001962Y005659D01*
X001923Y005690D01*
X001886Y005725D01*
X001852Y005762D01*
X001821Y005802D01*
X001793Y005844D01*
X001769Y005888D01*
X001748Y005934D01*
X001731Y005982D01*
X001718Y006030D01*
X001708Y006080D01*
X001702Y006130D01*
X001700Y006180D01*
X004470Y016180D02*
X004472Y016230D01*
X004478Y016280D01*
X004488Y016329D01*
X004502Y016377D01*
X004519Y016424D01*
X004540Y016469D01*
X004565Y016513D01*
X004593Y016554D01*
X004625Y016593D01*
X004659Y016630D01*
X004696Y016664D01*
X004736Y016694D01*
X004778Y016721D01*
X004822Y016745D01*
X004868Y016766D01*
X004915Y016782D01*
X004963Y016795D01*
X005013Y016804D01*
X005062Y016809D01*
X005113Y016810D01*
X005163Y016807D01*
X005212Y016800D01*
X005261Y016789D01*
X005309Y016774D01*
X005355Y016756D01*
X005400Y016734D01*
X005443Y016708D01*
X005484Y016679D01*
X005523Y016647D01*
X005559Y016612D01*
X005591Y016574D01*
X005621Y016534D01*
X005648Y016491D01*
X005671Y016447D01*
X005690Y016401D01*
X005706Y016353D01*
X005718Y016304D01*
X005726Y016255D01*
X005730Y016205D01*
X005730Y016155D01*
X005726Y016105D01*
X005718Y016056D01*
X005706Y016007D01*
X005690Y015959D01*
X005671Y015913D01*
X005648Y015869D01*
X005621Y015826D01*
X005591Y015786D01*
X005559Y015748D01*
X005523Y015713D01*
X005484Y015681D01*
X005443Y015652D01*
X005400Y015626D01*
X005355Y015604D01*
X005309Y015586D01*
X005261Y015571D01*
X005212Y015560D01*
X005163Y015553D01*
X005113Y015550D01*
X005062Y015551D01*
X005013Y015556D01*
X004963Y015565D01*
X004915Y015578D01*
X004868Y015594D01*
X004822Y015615D01*
X004778Y015639D01*
X004736Y015666D01*
X004696Y015696D01*
X004659Y015730D01*
X004625Y015767D01*
X004593Y015806D01*
X004565Y015847D01*
X004540Y015891D01*
X004519Y015936D01*
X004502Y015983D01*
X004488Y016031D01*
X004478Y016080D01*
X004472Y016130D01*
X004470Y016180D01*
X004470Y020680D02*
X004472Y020730D01*
X004478Y020780D01*
X004488Y020829D01*
X004502Y020877D01*
X004519Y020924D01*
X004540Y020969D01*
X004565Y021013D01*
X004593Y021054D01*
X004625Y021093D01*
X004659Y021130D01*
X004696Y021164D01*
X004736Y021194D01*
X004778Y021221D01*
X004822Y021245D01*
X004868Y021266D01*
X004915Y021282D01*
X004963Y021295D01*
X005013Y021304D01*
X005062Y021309D01*
X005113Y021310D01*
X005163Y021307D01*
X005212Y021300D01*
X005261Y021289D01*
X005309Y021274D01*
X005355Y021256D01*
X005400Y021234D01*
X005443Y021208D01*
X005484Y021179D01*
X005523Y021147D01*
X005559Y021112D01*
X005591Y021074D01*
X005621Y021034D01*
X005648Y020991D01*
X005671Y020947D01*
X005690Y020901D01*
X005706Y020853D01*
X005718Y020804D01*
X005726Y020755D01*
X005730Y020705D01*
X005730Y020655D01*
X005726Y020605D01*
X005718Y020556D01*
X005706Y020507D01*
X005690Y020459D01*
X005671Y020413D01*
X005648Y020369D01*
X005621Y020326D01*
X005591Y020286D01*
X005559Y020248D01*
X005523Y020213D01*
X005484Y020181D01*
X005443Y020152D01*
X005400Y020126D01*
X005355Y020104D01*
X005309Y020086D01*
X005261Y020071D01*
X005212Y020060D01*
X005163Y020053D01*
X005113Y020050D01*
X005062Y020051D01*
X005013Y020056D01*
X004963Y020065D01*
X004915Y020078D01*
X004868Y020094D01*
X004822Y020115D01*
X004778Y020139D01*
X004736Y020166D01*
X004696Y020196D01*
X004659Y020230D01*
X004625Y020267D01*
X004593Y020306D01*
X004565Y020347D01*
X004540Y020391D01*
X004519Y020436D01*
X004502Y020483D01*
X004488Y020531D01*
X004478Y020580D01*
X004472Y020630D01*
X004470Y020680D01*
X001700Y039430D02*
X001702Y039480D01*
X001708Y039530D01*
X001718Y039580D01*
X001731Y039628D01*
X001748Y039676D01*
X001769Y039722D01*
X001793Y039766D01*
X001821Y039808D01*
X001852Y039848D01*
X001886Y039885D01*
X001923Y039920D01*
X001962Y039951D01*
X002003Y039980D01*
X002047Y040005D01*
X002093Y040027D01*
X002140Y040045D01*
X002188Y040059D01*
X002237Y040070D01*
X002287Y040077D01*
X002337Y040080D01*
X002388Y040079D01*
X002438Y040074D01*
X002488Y040065D01*
X002536Y040053D01*
X002584Y040036D01*
X002630Y040016D01*
X002675Y039993D01*
X002718Y039966D01*
X002758Y039936D01*
X002796Y039903D01*
X002831Y039867D01*
X002864Y039828D01*
X002893Y039787D01*
X002919Y039744D01*
X002942Y039699D01*
X002961Y039652D01*
X002976Y039604D01*
X002988Y039555D01*
X002996Y039505D01*
X003000Y039455D01*
X003000Y039405D01*
X002996Y039355D01*
X002988Y039305D01*
X002976Y039256D01*
X002961Y039208D01*
X002942Y039161D01*
X002919Y039116D01*
X002893Y039073D01*
X002864Y039032D01*
X002831Y038993D01*
X002796Y038957D01*
X002758Y038924D01*
X002718Y038894D01*
X002675Y038867D01*
X002630Y038844D01*
X002584Y038824D01*
X002536Y038807D01*
X002488Y038795D01*
X002438Y038786D01*
X002388Y038781D01*
X002337Y038780D01*
X002287Y038783D01*
X002237Y038790D01*
X002188Y038801D01*
X002140Y038815D01*
X002093Y038833D01*
X002047Y038855D01*
X002003Y038880D01*
X001962Y038909D01*
X001923Y038940D01*
X001886Y038975D01*
X001852Y039012D01*
X001821Y039052D01*
X001793Y039094D01*
X001769Y039138D01*
X001748Y039184D01*
X001731Y039232D01*
X001718Y039280D01*
X001708Y039330D01*
X001702Y039380D01*
X001700Y039430D01*
X017470Y028680D02*
X017472Y028730D01*
X017478Y028780D01*
X017488Y028829D01*
X017502Y028877D01*
X017519Y028924D01*
X017540Y028969D01*
X017565Y029013D01*
X017593Y029054D01*
X017625Y029093D01*
X017659Y029130D01*
X017696Y029164D01*
X017736Y029194D01*
X017778Y029221D01*
X017822Y029245D01*
X017868Y029266D01*
X017915Y029282D01*
X017963Y029295D01*
X018013Y029304D01*
X018062Y029309D01*
X018113Y029310D01*
X018163Y029307D01*
X018212Y029300D01*
X018261Y029289D01*
X018309Y029274D01*
X018355Y029256D01*
X018400Y029234D01*
X018443Y029208D01*
X018484Y029179D01*
X018523Y029147D01*
X018559Y029112D01*
X018591Y029074D01*
X018621Y029034D01*
X018648Y028991D01*
X018671Y028947D01*
X018690Y028901D01*
X018706Y028853D01*
X018718Y028804D01*
X018726Y028755D01*
X018730Y028705D01*
X018730Y028655D01*
X018726Y028605D01*
X018718Y028556D01*
X018706Y028507D01*
X018690Y028459D01*
X018671Y028413D01*
X018648Y028369D01*
X018621Y028326D01*
X018591Y028286D01*
X018559Y028248D01*
X018523Y028213D01*
X018484Y028181D01*
X018443Y028152D01*
X018400Y028126D01*
X018355Y028104D01*
X018309Y028086D01*
X018261Y028071D01*
X018212Y028060D01*
X018163Y028053D01*
X018113Y028050D01*
X018062Y028051D01*
X018013Y028056D01*
X017963Y028065D01*
X017915Y028078D01*
X017868Y028094D01*
X017822Y028115D01*
X017778Y028139D01*
X017736Y028166D01*
X017696Y028196D01*
X017659Y028230D01*
X017625Y028267D01*
X017593Y028306D01*
X017565Y028347D01*
X017540Y028391D01*
X017519Y028436D01*
X017502Y028483D01*
X017488Y028531D01*
X017478Y028580D01*
X017472Y028630D01*
X017470Y028680D01*
X017470Y024180D02*
X017472Y024230D01*
X017478Y024280D01*
X017488Y024329D01*
X017502Y024377D01*
X017519Y024424D01*
X017540Y024469D01*
X017565Y024513D01*
X017593Y024554D01*
X017625Y024593D01*
X017659Y024630D01*
X017696Y024664D01*
X017736Y024694D01*
X017778Y024721D01*
X017822Y024745D01*
X017868Y024766D01*
X017915Y024782D01*
X017963Y024795D01*
X018013Y024804D01*
X018062Y024809D01*
X018113Y024810D01*
X018163Y024807D01*
X018212Y024800D01*
X018261Y024789D01*
X018309Y024774D01*
X018355Y024756D01*
X018400Y024734D01*
X018443Y024708D01*
X018484Y024679D01*
X018523Y024647D01*
X018559Y024612D01*
X018591Y024574D01*
X018621Y024534D01*
X018648Y024491D01*
X018671Y024447D01*
X018690Y024401D01*
X018706Y024353D01*
X018718Y024304D01*
X018726Y024255D01*
X018730Y024205D01*
X018730Y024155D01*
X018726Y024105D01*
X018718Y024056D01*
X018706Y024007D01*
X018690Y023959D01*
X018671Y023913D01*
X018648Y023869D01*
X018621Y023826D01*
X018591Y023786D01*
X018559Y023748D01*
X018523Y023713D01*
X018484Y023681D01*
X018443Y023652D01*
X018400Y023626D01*
X018355Y023604D01*
X018309Y023586D01*
X018261Y023571D01*
X018212Y023560D01*
X018163Y023553D01*
X018113Y023550D01*
X018062Y023551D01*
X018013Y023556D01*
X017963Y023565D01*
X017915Y023578D01*
X017868Y023594D01*
X017822Y023615D01*
X017778Y023639D01*
X017736Y023666D01*
X017696Y023696D01*
X017659Y023730D01*
X017625Y023767D01*
X017593Y023806D01*
X017565Y023847D01*
X017540Y023891D01*
X017519Y023936D01*
X017502Y023983D01*
X017488Y024031D01*
X017478Y024080D01*
X017472Y024130D01*
X017470Y024180D01*
X017470Y021680D02*
X017472Y021730D01*
X017478Y021780D01*
X017488Y021829D01*
X017502Y021877D01*
X017519Y021924D01*
X017540Y021969D01*
X017565Y022013D01*
X017593Y022054D01*
X017625Y022093D01*
X017659Y022130D01*
X017696Y022164D01*
X017736Y022194D01*
X017778Y022221D01*
X017822Y022245D01*
X017868Y022266D01*
X017915Y022282D01*
X017963Y022295D01*
X018013Y022304D01*
X018062Y022309D01*
X018113Y022310D01*
X018163Y022307D01*
X018212Y022300D01*
X018261Y022289D01*
X018309Y022274D01*
X018355Y022256D01*
X018400Y022234D01*
X018443Y022208D01*
X018484Y022179D01*
X018523Y022147D01*
X018559Y022112D01*
X018591Y022074D01*
X018621Y022034D01*
X018648Y021991D01*
X018671Y021947D01*
X018690Y021901D01*
X018706Y021853D01*
X018718Y021804D01*
X018726Y021755D01*
X018730Y021705D01*
X018730Y021655D01*
X018726Y021605D01*
X018718Y021556D01*
X018706Y021507D01*
X018690Y021459D01*
X018671Y021413D01*
X018648Y021369D01*
X018621Y021326D01*
X018591Y021286D01*
X018559Y021248D01*
X018523Y021213D01*
X018484Y021181D01*
X018443Y021152D01*
X018400Y021126D01*
X018355Y021104D01*
X018309Y021086D01*
X018261Y021071D01*
X018212Y021060D01*
X018163Y021053D01*
X018113Y021050D01*
X018062Y021051D01*
X018013Y021056D01*
X017963Y021065D01*
X017915Y021078D01*
X017868Y021094D01*
X017822Y021115D01*
X017778Y021139D01*
X017736Y021166D01*
X017696Y021196D01*
X017659Y021230D01*
X017625Y021267D01*
X017593Y021306D01*
X017565Y021347D01*
X017540Y021391D01*
X017519Y021436D01*
X017502Y021483D01*
X017488Y021531D01*
X017478Y021580D01*
X017472Y021630D01*
X017470Y021680D01*
X017470Y017180D02*
X017472Y017230D01*
X017478Y017280D01*
X017488Y017329D01*
X017502Y017377D01*
X017519Y017424D01*
X017540Y017469D01*
X017565Y017513D01*
X017593Y017554D01*
X017625Y017593D01*
X017659Y017630D01*
X017696Y017664D01*
X017736Y017694D01*
X017778Y017721D01*
X017822Y017745D01*
X017868Y017766D01*
X017915Y017782D01*
X017963Y017795D01*
X018013Y017804D01*
X018062Y017809D01*
X018113Y017810D01*
X018163Y017807D01*
X018212Y017800D01*
X018261Y017789D01*
X018309Y017774D01*
X018355Y017756D01*
X018400Y017734D01*
X018443Y017708D01*
X018484Y017679D01*
X018523Y017647D01*
X018559Y017612D01*
X018591Y017574D01*
X018621Y017534D01*
X018648Y017491D01*
X018671Y017447D01*
X018690Y017401D01*
X018706Y017353D01*
X018718Y017304D01*
X018726Y017255D01*
X018730Y017205D01*
X018730Y017155D01*
X018726Y017105D01*
X018718Y017056D01*
X018706Y017007D01*
X018690Y016959D01*
X018671Y016913D01*
X018648Y016869D01*
X018621Y016826D01*
X018591Y016786D01*
X018559Y016748D01*
X018523Y016713D01*
X018484Y016681D01*
X018443Y016652D01*
X018400Y016626D01*
X018355Y016604D01*
X018309Y016586D01*
X018261Y016571D01*
X018212Y016560D01*
X018163Y016553D01*
X018113Y016550D01*
X018062Y016551D01*
X018013Y016556D01*
X017963Y016565D01*
X017915Y016578D01*
X017868Y016594D01*
X017822Y016615D01*
X017778Y016639D01*
X017736Y016666D01*
X017696Y016696D01*
X017659Y016730D01*
X017625Y016767D01*
X017593Y016806D01*
X017565Y016847D01*
X017540Y016891D01*
X017519Y016936D01*
X017502Y016983D01*
X017488Y017031D01*
X017478Y017080D01*
X017472Y017130D01*
X017470Y017180D01*
X020050Y006180D02*
X020052Y006230D01*
X020058Y006280D01*
X020068Y006330D01*
X020081Y006378D01*
X020098Y006426D01*
X020119Y006472D01*
X020143Y006516D01*
X020171Y006558D01*
X020202Y006598D01*
X020236Y006635D01*
X020273Y006670D01*
X020312Y006701D01*
X020353Y006730D01*
X020397Y006755D01*
X020443Y006777D01*
X020490Y006795D01*
X020538Y006809D01*
X020587Y006820D01*
X020637Y006827D01*
X020687Y006830D01*
X020738Y006829D01*
X020788Y006824D01*
X020838Y006815D01*
X020886Y006803D01*
X020934Y006786D01*
X020980Y006766D01*
X021025Y006743D01*
X021068Y006716D01*
X021108Y006686D01*
X021146Y006653D01*
X021181Y006617D01*
X021214Y006578D01*
X021243Y006537D01*
X021269Y006494D01*
X021292Y006449D01*
X021311Y006402D01*
X021326Y006354D01*
X021338Y006305D01*
X021346Y006255D01*
X021350Y006205D01*
X021350Y006155D01*
X021346Y006105D01*
X021338Y006055D01*
X021326Y006006D01*
X021311Y005958D01*
X021292Y005911D01*
X021269Y005866D01*
X021243Y005823D01*
X021214Y005782D01*
X021181Y005743D01*
X021146Y005707D01*
X021108Y005674D01*
X021068Y005644D01*
X021025Y005617D01*
X020980Y005594D01*
X020934Y005574D01*
X020886Y005557D01*
X020838Y005545D01*
X020788Y005536D01*
X020738Y005531D01*
X020687Y005530D01*
X020637Y005533D01*
X020587Y005540D01*
X020538Y005551D01*
X020490Y005565D01*
X020443Y005583D01*
X020397Y005605D01*
X020353Y005630D01*
X020312Y005659D01*
X020273Y005690D01*
X020236Y005725D01*
X020202Y005762D01*
X020171Y005802D01*
X020143Y005844D01*
X020119Y005888D01*
X020098Y005934D01*
X020081Y005982D01*
X020068Y006030D01*
X020058Y006080D01*
X020052Y006130D01*
X020050Y006180D01*
X020050Y039430D02*
X020052Y039480D01*
X020058Y039530D01*
X020068Y039580D01*
X020081Y039628D01*
X020098Y039676D01*
X020119Y039722D01*
X020143Y039766D01*
X020171Y039808D01*
X020202Y039848D01*
X020236Y039885D01*
X020273Y039920D01*
X020312Y039951D01*
X020353Y039980D01*
X020397Y040005D01*
X020443Y040027D01*
X020490Y040045D01*
X020538Y040059D01*
X020587Y040070D01*
X020637Y040077D01*
X020687Y040080D01*
X020738Y040079D01*
X020788Y040074D01*
X020838Y040065D01*
X020886Y040053D01*
X020934Y040036D01*
X020980Y040016D01*
X021025Y039993D01*
X021068Y039966D01*
X021108Y039936D01*
X021146Y039903D01*
X021181Y039867D01*
X021214Y039828D01*
X021243Y039787D01*
X021269Y039744D01*
X021292Y039699D01*
X021311Y039652D01*
X021326Y039604D01*
X021338Y039555D01*
X021346Y039505D01*
X021350Y039455D01*
X021350Y039405D01*
X021346Y039355D01*
X021338Y039305D01*
X021326Y039256D01*
X021311Y039208D01*
X021292Y039161D01*
X021269Y039116D01*
X021243Y039073D01*
X021214Y039032D01*
X021181Y038993D01*
X021146Y038957D01*
X021108Y038924D01*
X021068Y038894D01*
X021025Y038867D01*
X020980Y038844D01*
X020934Y038824D01*
X020886Y038807D01*
X020838Y038795D01*
X020788Y038786D01*
X020738Y038781D01*
X020687Y038780D01*
X020637Y038783D01*
X020587Y038790D01*
X020538Y038801D01*
X020490Y038815D01*
X020443Y038833D01*
X020397Y038855D01*
X020353Y038880D01*
X020312Y038909D01*
X020273Y038940D01*
X020236Y038975D01*
X020202Y039012D01*
X020171Y039052D01*
X020143Y039094D01*
X020119Y039138D01*
X020098Y039184D01*
X020081Y039232D01*
X020068Y039280D01*
X020058Y039330D01*
X020052Y039380D01*
X020050Y039430D01*
M02*
