G75*
G70*
%OFA0B0*%
%FSLAX24Y24*%
%IPPOS*%
%LPD*%
%AMOC8*
5,1,8,0,0,1.08239X$1,22.5*
%
%ADD10C,0.0000*%
%ADD11C,0.0040*%
%ADD12C,0.0060*%
%ADD13C,0.0030*%
%ADD14C,0.0200*%
%ADD15R,0.0100X0.0200*%
%ADD16C,0.0050*%
%ADD17C,0.0080*%
%ADD18C,0.0100*%
%ADD19R,0.0200X0.0200*%
%ADD20C,0.0320*%
%ADD21R,1.0550X0.0300*%
%ADD22R,1.5450X0.0200*%
%ADD23R,0.0320X0.2850*%
%ADD24R,0.0320X0.1850*%
%ADD25C,0.0020*%
%ADD26R,0.0450X0.0200*%
D10*
X000600Y000430D02*
X000600Y041030D01*
X023100Y041030D01*
X023100Y000430D01*
X000600Y000430D01*
X002350Y005780D02*
X002350Y006580D01*
X001700Y006180D02*
X001702Y006230D01*
X001708Y006280D01*
X001718Y006330D01*
X001731Y006378D01*
X001748Y006426D01*
X001769Y006472D01*
X001793Y006516D01*
X001821Y006558D01*
X001852Y006598D01*
X001886Y006635D01*
X001923Y006670D01*
X001962Y006701D01*
X002003Y006730D01*
X002047Y006755D01*
X002093Y006777D01*
X002140Y006795D01*
X002188Y006809D01*
X002237Y006820D01*
X002287Y006827D01*
X002337Y006830D01*
X002388Y006829D01*
X002438Y006824D01*
X002488Y006815D01*
X002536Y006803D01*
X002584Y006786D01*
X002630Y006766D01*
X002675Y006743D01*
X002718Y006716D01*
X002758Y006686D01*
X002796Y006653D01*
X002831Y006617D01*
X002864Y006578D01*
X002893Y006537D01*
X002919Y006494D01*
X002942Y006449D01*
X002961Y006402D01*
X002976Y006354D01*
X002988Y006305D01*
X002996Y006255D01*
X003000Y006205D01*
X003000Y006155D01*
X002996Y006105D01*
X002988Y006055D01*
X002976Y006006D01*
X002961Y005958D01*
X002942Y005911D01*
X002919Y005866D01*
X002893Y005823D01*
X002864Y005782D01*
X002831Y005743D01*
X002796Y005707D01*
X002758Y005674D01*
X002718Y005644D01*
X002675Y005617D01*
X002630Y005594D01*
X002584Y005574D01*
X002536Y005557D01*
X002488Y005545D01*
X002438Y005536D01*
X002388Y005531D01*
X002337Y005530D01*
X002287Y005533D01*
X002237Y005540D01*
X002188Y005551D01*
X002140Y005565D01*
X002093Y005583D01*
X002047Y005605D01*
X002003Y005630D01*
X001962Y005659D01*
X001923Y005690D01*
X001886Y005725D01*
X001852Y005762D01*
X001821Y005802D01*
X001793Y005844D01*
X001769Y005888D01*
X001748Y005934D01*
X001731Y005982D01*
X001718Y006030D01*
X001708Y006080D01*
X001702Y006130D01*
X001700Y006180D01*
X001950Y006180D02*
X002750Y006180D01*
X002100Y008280D02*
X002100Y009080D01*
X001700Y008680D02*
X002500Y008680D01*
X002100Y010030D02*
X002100Y010830D01*
X001700Y010430D02*
X002500Y010430D01*
X002100Y012280D02*
X002100Y013080D01*
X001700Y012680D02*
X002500Y012680D01*
X002100Y014030D02*
X002100Y014830D01*
X001700Y014430D02*
X002500Y014430D01*
X004700Y018430D02*
X005500Y018430D01*
X005100Y018030D02*
X005100Y018830D01*
X004470Y020680D02*
X004472Y020730D01*
X004478Y020780D01*
X004488Y020829D01*
X004502Y020877D01*
X004519Y020924D01*
X004540Y020969D01*
X004565Y021013D01*
X004593Y021054D01*
X004625Y021093D01*
X004659Y021130D01*
X004696Y021164D01*
X004736Y021194D01*
X004778Y021221D01*
X004822Y021245D01*
X004868Y021266D01*
X004915Y021282D01*
X004963Y021295D01*
X005013Y021304D01*
X005062Y021309D01*
X005113Y021310D01*
X005163Y021307D01*
X005212Y021300D01*
X005261Y021289D01*
X005309Y021274D01*
X005355Y021256D01*
X005400Y021234D01*
X005443Y021208D01*
X005484Y021179D01*
X005523Y021147D01*
X005559Y021112D01*
X005591Y021074D01*
X005621Y021034D01*
X005648Y020991D01*
X005671Y020947D01*
X005690Y020901D01*
X005706Y020853D01*
X005718Y020804D01*
X005726Y020755D01*
X005730Y020705D01*
X005730Y020655D01*
X005726Y020605D01*
X005718Y020556D01*
X005706Y020507D01*
X005690Y020459D01*
X005671Y020413D01*
X005648Y020369D01*
X005621Y020326D01*
X005591Y020286D01*
X005559Y020248D01*
X005523Y020213D01*
X005484Y020181D01*
X005443Y020152D01*
X005400Y020126D01*
X005355Y020104D01*
X005309Y020086D01*
X005261Y020071D01*
X005212Y020060D01*
X005163Y020053D01*
X005113Y020050D01*
X005062Y020051D01*
X005013Y020056D01*
X004963Y020065D01*
X004915Y020078D01*
X004868Y020094D01*
X004822Y020115D01*
X004778Y020139D01*
X004736Y020166D01*
X004696Y020196D01*
X004659Y020230D01*
X004625Y020267D01*
X004593Y020306D01*
X004565Y020347D01*
X004540Y020391D01*
X004519Y020436D01*
X004502Y020483D01*
X004488Y020531D01*
X004478Y020580D01*
X004472Y020630D01*
X004470Y020680D01*
X003100Y023280D02*
X003100Y024080D01*
X002700Y023680D02*
X003500Y023680D01*
X003100Y027030D02*
X003100Y027830D01*
X002700Y027430D02*
X003500Y027430D01*
X007200Y027430D02*
X008000Y027430D01*
X007600Y027030D02*
X007600Y027830D01*
X007600Y024080D02*
X007600Y023280D01*
X007200Y023680D02*
X008000Y023680D01*
X011200Y024430D02*
X012000Y024430D01*
X011600Y024030D02*
X011600Y024830D01*
X011600Y026030D02*
X011600Y026830D01*
X011200Y026430D02*
X012000Y026430D01*
X011600Y028030D02*
X011600Y028830D01*
X011200Y028430D02*
X012000Y028430D01*
X012100Y033030D02*
X012100Y033830D01*
X011700Y033430D02*
X012500Y033430D01*
X013600Y037780D02*
X013600Y038580D01*
X013200Y038180D02*
X014000Y038180D01*
X013600Y039280D02*
X013600Y040080D01*
X013200Y039680D02*
X014000Y039680D01*
X016450Y038930D02*
X017250Y038930D01*
X016850Y038530D02*
X016850Y039330D01*
X020300Y039430D02*
X021100Y039430D01*
X020050Y039430D02*
X020052Y039480D01*
X020058Y039530D01*
X020068Y039580D01*
X020081Y039628D01*
X020098Y039676D01*
X020119Y039722D01*
X020143Y039766D01*
X020171Y039808D01*
X020202Y039848D01*
X020236Y039885D01*
X020273Y039920D01*
X020312Y039951D01*
X020353Y039980D01*
X020397Y040005D01*
X020443Y040027D01*
X020490Y040045D01*
X020538Y040059D01*
X020587Y040070D01*
X020637Y040077D01*
X020687Y040080D01*
X020738Y040079D01*
X020788Y040074D01*
X020838Y040065D01*
X020886Y040053D01*
X020934Y040036D01*
X020980Y040016D01*
X021025Y039993D01*
X021068Y039966D01*
X021108Y039936D01*
X021146Y039903D01*
X021181Y039867D01*
X021214Y039828D01*
X021243Y039787D01*
X021269Y039744D01*
X021292Y039699D01*
X021311Y039652D01*
X021326Y039604D01*
X021338Y039555D01*
X021346Y039505D01*
X021350Y039455D01*
X021350Y039405D01*
X021346Y039355D01*
X021338Y039305D01*
X021326Y039256D01*
X021311Y039208D01*
X021292Y039161D01*
X021269Y039116D01*
X021243Y039073D01*
X021214Y039032D01*
X021181Y038993D01*
X021146Y038957D01*
X021108Y038924D01*
X021068Y038894D01*
X021025Y038867D01*
X020980Y038844D01*
X020934Y038824D01*
X020886Y038807D01*
X020838Y038795D01*
X020788Y038786D01*
X020738Y038781D01*
X020687Y038780D01*
X020637Y038783D01*
X020587Y038790D01*
X020538Y038801D01*
X020490Y038815D01*
X020443Y038833D01*
X020397Y038855D01*
X020353Y038880D01*
X020312Y038909D01*
X020273Y038940D01*
X020236Y038975D01*
X020202Y039012D01*
X020171Y039052D01*
X020143Y039094D01*
X020119Y039138D01*
X020098Y039184D01*
X020081Y039232D01*
X020068Y039280D01*
X020058Y039330D01*
X020052Y039380D01*
X020050Y039430D01*
X020700Y039030D02*
X020700Y039830D01*
X017470Y028680D02*
X017472Y028730D01*
X017478Y028780D01*
X017488Y028829D01*
X017502Y028877D01*
X017519Y028924D01*
X017540Y028969D01*
X017565Y029013D01*
X017593Y029054D01*
X017625Y029093D01*
X017659Y029130D01*
X017696Y029164D01*
X017736Y029194D01*
X017778Y029221D01*
X017822Y029245D01*
X017868Y029266D01*
X017915Y029282D01*
X017963Y029295D01*
X018013Y029304D01*
X018062Y029309D01*
X018113Y029310D01*
X018163Y029307D01*
X018212Y029300D01*
X018261Y029289D01*
X018309Y029274D01*
X018355Y029256D01*
X018400Y029234D01*
X018443Y029208D01*
X018484Y029179D01*
X018523Y029147D01*
X018559Y029112D01*
X018591Y029074D01*
X018621Y029034D01*
X018648Y028991D01*
X018671Y028947D01*
X018690Y028901D01*
X018706Y028853D01*
X018718Y028804D01*
X018726Y028755D01*
X018730Y028705D01*
X018730Y028655D01*
X018726Y028605D01*
X018718Y028556D01*
X018706Y028507D01*
X018690Y028459D01*
X018671Y028413D01*
X018648Y028369D01*
X018621Y028326D01*
X018591Y028286D01*
X018559Y028248D01*
X018523Y028213D01*
X018484Y028181D01*
X018443Y028152D01*
X018400Y028126D01*
X018355Y028104D01*
X018309Y028086D01*
X018261Y028071D01*
X018212Y028060D01*
X018163Y028053D01*
X018113Y028050D01*
X018062Y028051D01*
X018013Y028056D01*
X017963Y028065D01*
X017915Y028078D01*
X017868Y028094D01*
X017822Y028115D01*
X017778Y028139D01*
X017736Y028166D01*
X017696Y028196D01*
X017659Y028230D01*
X017625Y028267D01*
X017593Y028306D01*
X017565Y028347D01*
X017540Y028391D01*
X017519Y028436D01*
X017502Y028483D01*
X017488Y028531D01*
X017478Y028580D01*
X017472Y028630D01*
X017470Y028680D01*
X018100Y026830D02*
X018100Y026030D01*
X017700Y026430D02*
X018500Y026430D01*
X017470Y024180D02*
X017472Y024230D01*
X017478Y024280D01*
X017488Y024329D01*
X017502Y024377D01*
X017519Y024424D01*
X017540Y024469D01*
X017565Y024513D01*
X017593Y024554D01*
X017625Y024593D01*
X017659Y024630D01*
X017696Y024664D01*
X017736Y024694D01*
X017778Y024721D01*
X017822Y024745D01*
X017868Y024766D01*
X017915Y024782D01*
X017963Y024795D01*
X018013Y024804D01*
X018062Y024809D01*
X018113Y024810D01*
X018163Y024807D01*
X018212Y024800D01*
X018261Y024789D01*
X018309Y024774D01*
X018355Y024756D01*
X018400Y024734D01*
X018443Y024708D01*
X018484Y024679D01*
X018523Y024647D01*
X018559Y024612D01*
X018591Y024574D01*
X018621Y024534D01*
X018648Y024491D01*
X018671Y024447D01*
X018690Y024401D01*
X018706Y024353D01*
X018718Y024304D01*
X018726Y024255D01*
X018730Y024205D01*
X018730Y024155D01*
X018726Y024105D01*
X018718Y024056D01*
X018706Y024007D01*
X018690Y023959D01*
X018671Y023913D01*
X018648Y023869D01*
X018621Y023826D01*
X018591Y023786D01*
X018559Y023748D01*
X018523Y023713D01*
X018484Y023681D01*
X018443Y023652D01*
X018400Y023626D01*
X018355Y023604D01*
X018309Y023586D01*
X018261Y023571D01*
X018212Y023560D01*
X018163Y023553D01*
X018113Y023550D01*
X018062Y023551D01*
X018013Y023556D01*
X017963Y023565D01*
X017915Y023578D01*
X017868Y023594D01*
X017822Y023615D01*
X017778Y023639D01*
X017736Y023666D01*
X017696Y023696D01*
X017659Y023730D01*
X017625Y023767D01*
X017593Y023806D01*
X017565Y023847D01*
X017540Y023891D01*
X017519Y023936D01*
X017502Y023983D01*
X017488Y024031D01*
X017478Y024080D01*
X017472Y024130D01*
X017470Y024180D01*
X017470Y021680D02*
X017472Y021730D01*
X017478Y021780D01*
X017488Y021829D01*
X017502Y021877D01*
X017519Y021924D01*
X017540Y021969D01*
X017565Y022013D01*
X017593Y022054D01*
X017625Y022093D01*
X017659Y022130D01*
X017696Y022164D01*
X017736Y022194D01*
X017778Y022221D01*
X017822Y022245D01*
X017868Y022266D01*
X017915Y022282D01*
X017963Y022295D01*
X018013Y022304D01*
X018062Y022309D01*
X018113Y022310D01*
X018163Y022307D01*
X018212Y022300D01*
X018261Y022289D01*
X018309Y022274D01*
X018355Y022256D01*
X018400Y022234D01*
X018443Y022208D01*
X018484Y022179D01*
X018523Y022147D01*
X018559Y022112D01*
X018591Y022074D01*
X018621Y022034D01*
X018648Y021991D01*
X018671Y021947D01*
X018690Y021901D01*
X018706Y021853D01*
X018718Y021804D01*
X018726Y021755D01*
X018730Y021705D01*
X018730Y021655D01*
X018726Y021605D01*
X018718Y021556D01*
X018706Y021507D01*
X018690Y021459D01*
X018671Y021413D01*
X018648Y021369D01*
X018621Y021326D01*
X018591Y021286D01*
X018559Y021248D01*
X018523Y021213D01*
X018484Y021181D01*
X018443Y021152D01*
X018400Y021126D01*
X018355Y021104D01*
X018309Y021086D01*
X018261Y021071D01*
X018212Y021060D01*
X018163Y021053D01*
X018113Y021050D01*
X018062Y021051D01*
X018013Y021056D01*
X017963Y021065D01*
X017915Y021078D01*
X017868Y021094D01*
X017822Y021115D01*
X017778Y021139D01*
X017736Y021166D01*
X017696Y021196D01*
X017659Y021230D01*
X017625Y021267D01*
X017593Y021306D01*
X017565Y021347D01*
X017540Y021391D01*
X017519Y021436D01*
X017502Y021483D01*
X017488Y021531D01*
X017478Y021580D01*
X017472Y021630D01*
X017470Y021680D01*
X018100Y019830D02*
X018100Y019030D01*
X017700Y019430D02*
X018500Y019430D01*
X017470Y017180D02*
X017472Y017230D01*
X017478Y017280D01*
X017488Y017329D01*
X017502Y017377D01*
X017519Y017424D01*
X017540Y017469D01*
X017565Y017513D01*
X017593Y017554D01*
X017625Y017593D01*
X017659Y017630D01*
X017696Y017664D01*
X017736Y017694D01*
X017778Y017721D01*
X017822Y017745D01*
X017868Y017766D01*
X017915Y017782D01*
X017963Y017795D01*
X018013Y017804D01*
X018062Y017809D01*
X018113Y017810D01*
X018163Y017807D01*
X018212Y017800D01*
X018261Y017789D01*
X018309Y017774D01*
X018355Y017756D01*
X018400Y017734D01*
X018443Y017708D01*
X018484Y017679D01*
X018523Y017647D01*
X018559Y017612D01*
X018591Y017574D01*
X018621Y017534D01*
X018648Y017491D01*
X018671Y017447D01*
X018690Y017401D01*
X018706Y017353D01*
X018718Y017304D01*
X018726Y017255D01*
X018730Y017205D01*
X018730Y017155D01*
X018726Y017105D01*
X018718Y017056D01*
X018706Y017007D01*
X018690Y016959D01*
X018671Y016913D01*
X018648Y016869D01*
X018621Y016826D01*
X018591Y016786D01*
X018559Y016748D01*
X018523Y016713D01*
X018484Y016681D01*
X018443Y016652D01*
X018400Y016626D01*
X018355Y016604D01*
X018309Y016586D01*
X018261Y016571D01*
X018212Y016560D01*
X018163Y016553D01*
X018113Y016550D01*
X018062Y016551D01*
X018013Y016556D01*
X017963Y016565D01*
X017915Y016578D01*
X017868Y016594D01*
X017822Y016615D01*
X017778Y016639D01*
X017736Y016666D01*
X017696Y016696D01*
X017659Y016730D01*
X017625Y016767D01*
X017593Y016806D01*
X017565Y016847D01*
X017540Y016891D01*
X017519Y016936D01*
X017502Y016983D01*
X017488Y017031D01*
X017478Y017080D01*
X017472Y017130D01*
X017470Y017180D01*
X014470Y015420D02*
X013670Y015420D01*
X014070Y015020D02*
X014070Y015820D01*
X012000Y018180D02*
X011200Y018180D01*
X011600Y017780D02*
X011600Y018580D01*
X011600Y020030D02*
X011600Y020830D01*
X011200Y020430D02*
X012000Y020430D01*
X011600Y022030D02*
X011600Y022830D01*
X011200Y022430D02*
X012000Y022430D01*
X010840Y015840D02*
X010840Y015040D01*
X010440Y015440D02*
X011240Y015440D01*
X011525Y013480D02*
X011525Y012680D01*
X011125Y013080D02*
X011925Y013080D01*
X004470Y016180D02*
X004472Y016230D01*
X004478Y016280D01*
X004488Y016329D01*
X004502Y016377D01*
X004519Y016424D01*
X004540Y016469D01*
X004565Y016513D01*
X004593Y016554D01*
X004625Y016593D01*
X004659Y016630D01*
X004696Y016664D01*
X004736Y016694D01*
X004778Y016721D01*
X004822Y016745D01*
X004868Y016766D01*
X004915Y016782D01*
X004963Y016795D01*
X005013Y016804D01*
X005062Y016809D01*
X005113Y016810D01*
X005163Y016807D01*
X005212Y016800D01*
X005261Y016789D01*
X005309Y016774D01*
X005355Y016756D01*
X005400Y016734D01*
X005443Y016708D01*
X005484Y016679D01*
X005523Y016647D01*
X005559Y016612D01*
X005591Y016574D01*
X005621Y016534D01*
X005648Y016491D01*
X005671Y016447D01*
X005690Y016401D01*
X005706Y016353D01*
X005718Y016304D01*
X005726Y016255D01*
X005730Y016205D01*
X005730Y016155D01*
X005726Y016105D01*
X005718Y016056D01*
X005706Y016007D01*
X005690Y015959D01*
X005671Y015913D01*
X005648Y015869D01*
X005621Y015826D01*
X005591Y015786D01*
X005559Y015748D01*
X005523Y015713D01*
X005484Y015681D01*
X005443Y015652D01*
X005400Y015626D01*
X005355Y015604D01*
X005309Y015586D01*
X005261Y015571D01*
X005212Y015560D01*
X005163Y015553D01*
X005113Y015550D01*
X005062Y015551D01*
X005013Y015556D01*
X004963Y015565D01*
X004915Y015578D01*
X004868Y015594D01*
X004822Y015615D01*
X004778Y015639D01*
X004736Y015666D01*
X004696Y015696D01*
X004659Y015730D01*
X004625Y015767D01*
X004593Y015806D01*
X004565Y015847D01*
X004540Y015891D01*
X004519Y015936D01*
X004502Y015983D01*
X004488Y016031D01*
X004478Y016080D01*
X004472Y016130D01*
X004470Y016180D01*
X005100Y038530D02*
X005100Y039330D01*
X004700Y038930D02*
X005500Y038930D01*
X007200Y038930D02*
X008000Y038930D01*
X007600Y038530D02*
X007600Y039330D01*
X010200Y038930D02*
X011000Y038930D01*
X010600Y038530D02*
X010600Y039330D01*
X002750Y039430D02*
X001950Y039430D01*
X001700Y039430D02*
X001702Y039480D01*
X001708Y039530D01*
X001718Y039580D01*
X001731Y039628D01*
X001748Y039676D01*
X001769Y039722D01*
X001793Y039766D01*
X001821Y039808D01*
X001852Y039848D01*
X001886Y039885D01*
X001923Y039920D01*
X001962Y039951D01*
X002003Y039980D01*
X002047Y040005D01*
X002093Y040027D01*
X002140Y040045D01*
X002188Y040059D01*
X002237Y040070D01*
X002287Y040077D01*
X002337Y040080D01*
X002388Y040079D01*
X002438Y040074D01*
X002488Y040065D01*
X002536Y040053D01*
X002584Y040036D01*
X002630Y040016D01*
X002675Y039993D01*
X002718Y039966D01*
X002758Y039936D01*
X002796Y039903D01*
X002831Y039867D01*
X002864Y039828D01*
X002893Y039787D01*
X002919Y039744D01*
X002942Y039699D01*
X002961Y039652D01*
X002976Y039604D01*
X002988Y039555D01*
X002996Y039505D01*
X003000Y039455D01*
X003000Y039405D01*
X002996Y039355D01*
X002988Y039305D01*
X002976Y039256D01*
X002961Y039208D01*
X002942Y039161D01*
X002919Y039116D01*
X002893Y039073D01*
X002864Y039032D01*
X002831Y038993D01*
X002796Y038957D01*
X002758Y038924D01*
X002718Y038894D01*
X002675Y038867D01*
X002630Y038844D01*
X002584Y038824D01*
X002536Y038807D01*
X002488Y038795D01*
X002438Y038786D01*
X002388Y038781D01*
X002337Y038780D01*
X002287Y038783D01*
X002237Y038790D01*
X002188Y038801D01*
X002140Y038815D01*
X002093Y038833D01*
X002047Y038855D01*
X002003Y038880D01*
X001962Y038909D01*
X001923Y038940D01*
X001886Y038975D01*
X001852Y039012D01*
X001821Y039052D01*
X001793Y039094D01*
X001769Y039138D01*
X001748Y039184D01*
X001731Y039232D01*
X001718Y039280D01*
X001708Y039330D01*
X001702Y039380D01*
X001700Y039430D01*
X002350Y039030D02*
X002350Y039830D01*
X020700Y006580D02*
X020700Y005780D01*
X020050Y006180D02*
X020052Y006230D01*
X020058Y006280D01*
X020068Y006330D01*
X020081Y006378D01*
X020098Y006426D01*
X020119Y006472D01*
X020143Y006516D01*
X020171Y006558D01*
X020202Y006598D01*
X020236Y006635D01*
X020273Y006670D01*
X020312Y006701D01*
X020353Y006730D01*
X020397Y006755D01*
X020443Y006777D01*
X020490Y006795D01*
X020538Y006809D01*
X020587Y006820D01*
X020637Y006827D01*
X020687Y006830D01*
X020738Y006829D01*
X020788Y006824D01*
X020838Y006815D01*
X020886Y006803D01*
X020934Y006786D01*
X020980Y006766D01*
X021025Y006743D01*
X021068Y006716D01*
X021108Y006686D01*
X021146Y006653D01*
X021181Y006617D01*
X021214Y006578D01*
X021243Y006537D01*
X021269Y006494D01*
X021292Y006449D01*
X021311Y006402D01*
X021326Y006354D01*
X021338Y006305D01*
X021346Y006255D01*
X021350Y006205D01*
X021350Y006155D01*
X021346Y006105D01*
X021338Y006055D01*
X021326Y006006D01*
X021311Y005958D01*
X021292Y005911D01*
X021269Y005866D01*
X021243Y005823D01*
X021214Y005782D01*
X021181Y005743D01*
X021146Y005707D01*
X021108Y005674D01*
X021068Y005644D01*
X021025Y005617D01*
X020980Y005594D01*
X020934Y005574D01*
X020886Y005557D01*
X020838Y005545D01*
X020788Y005536D01*
X020738Y005531D01*
X020687Y005530D01*
X020637Y005533D01*
X020587Y005540D01*
X020538Y005551D01*
X020490Y005565D01*
X020443Y005583D01*
X020397Y005605D01*
X020353Y005630D01*
X020312Y005659D01*
X020273Y005690D01*
X020236Y005725D01*
X020202Y005762D01*
X020171Y005802D01*
X020143Y005844D01*
X020119Y005888D01*
X020098Y005934D01*
X020081Y005982D01*
X020068Y006030D01*
X020058Y006080D01*
X020052Y006130D01*
X020050Y006180D01*
X020300Y006180D02*
X021100Y006180D01*
X021000Y004533D02*
X021000Y003827D01*
X020647Y004180D02*
X021353Y004180D01*
X021400Y002030D02*
X021400Y001230D01*
X021000Y001630D02*
X021800Y001630D01*
D11*
X019730Y001717D02*
X019577Y001564D01*
X019577Y001641D02*
X019577Y001410D01*
X019730Y001410D02*
X019270Y001410D01*
X019270Y001641D01*
X019346Y001717D01*
X019500Y001717D01*
X019577Y001641D01*
X019653Y001871D02*
X019346Y001871D01*
X019270Y001948D01*
X019270Y002101D01*
X019346Y002178D01*
X019653Y002178D01*
X019730Y002101D01*
X019730Y001948D01*
X019653Y001871D01*
X019653Y002331D02*
X019346Y002331D01*
X019270Y002408D01*
X019270Y002561D01*
X019346Y002638D01*
X019500Y002638D02*
X019500Y002485D01*
X019500Y002638D02*
X019653Y002638D01*
X019730Y002561D01*
X019730Y002408D01*
X019653Y002331D01*
X019500Y001257D02*
X019346Y001257D01*
X019270Y001180D01*
X019270Y000950D01*
X019730Y000950D01*
X019577Y000950D02*
X019577Y001180D01*
X019500Y001257D01*
X019572Y003950D02*
X019879Y003950D01*
X019572Y003950D02*
X019572Y004410D01*
X019418Y004410D02*
X019112Y004410D01*
X019112Y003950D01*
X019418Y003950D01*
X019265Y004180D02*
X019112Y004180D01*
X018958Y004103D02*
X018958Y004027D01*
X018881Y003950D01*
X018728Y003950D01*
X018651Y004027D01*
X018728Y004180D02*
X018881Y004180D01*
X018958Y004103D01*
X018958Y004334D02*
X018881Y004410D01*
X018728Y004410D01*
X018651Y004334D01*
X018651Y004257D01*
X018728Y004180D01*
X018498Y004180D02*
X018421Y004103D01*
X018191Y004103D01*
X018191Y003950D02*
X018191Y004410D01*
X018421Y004410D01*
X018498Y004334D01*
X018498Y004180D01*
X018344Y004103D02*
X018498Y003950D01*
X018037Y003950D02*
X018037Y004410D01*
X017884Y004103D02*
X018037Y003950D01*
X017884Y004103D02*
X017730Y003950D01*
X017730Y004410D01*
X017577Y004334D02*
X017577Y004180D01*
X017500Y004103D01*
X017270Y004103D01*
X017270Y003950D02*
X017270Y004410D01*
X017500Y004410D01*
X017577Y004334D01*
X014143Y014530D02*
X013968Y014647D01*
X014143Y014764D01*
X013968Y014880D02*
X013968Y014530D01*
X013843Y014822D02*
X013609Y014588D01*
X013609Y014530D01*
X013484Y014588D02*
X013425Y014530D01*
X013308Y014530D01*
X013250Y014588D01*
X013367Y014705D02*
X013425Y014705D01*
X013484Y014647D01*
X013484Y014588D01*
X013425Y014705D02*
X013484Y014764D01*
X013484Y014822D01*
X013425Y014880D01*
X013308Y014880D01*
X013250Y014822D01*
X013609Y014880D02*
X013843Y014880D01*
X013843Y014822D01*
X013834Y015900D02*
X013717Y015900D01*
X013659Y015958D01*
X013659Y016075D02*
X013776Y016134D01*
X013834Y016134D01*
X013893Y016075D01*
X013893Y015958D01*
X013834Y015900D01*
X013659Y016075D02*
X013659Y016250D01*
X013893Y016250D01*
X013534Y016192D02*
X013534Y016075D01*
X013475Y016017D01*
X013300Y016017D01*
X013417Y016017D02*
X013534Y015900D01*
X013300Y015900D02*
X013300Y016250D01*
X013475Y016250D01*
X013534Y016192D01*
X010913Y014784D02*
X010738Y014667D01*
X010913Y014550D01*
X010738Y014550D02*
X010738Y014900D01*
X010613Y014900D02*
X010613Y014842D01*
X010379Y014608D01*
X010379Y014550D01*
X010254Y014608D02*
X010195Y014550D01*
X010078Y014550D01*
X010020Y014608D01*
X010137Y014725D02*
X010195Y014725D01*
X010254Y014667D01*
X010254Y014608D01*
X010195Y014725D02*
X010254Y014784D01*
X010254Y014842D01*
X010195Y014900D01*
X010078Y014900D01*
X010020Y014842D01*
X010379Y014900D02*
X010613Y014900D01*
X010604Y015920D02*
X010604Y016270D01*
X010429Y016095D01*
X010663Y016095D01*
X010304Y016095D02*
X010245Y016037D01*
X010070Y016037D01*
X010187Y016037D02*
X010304Y015920D01*
X010304Y016095D02*
X010304Y016212D01*
X010245Y016270D01*
X010070Y016270D01*
X010070Y015920D01*
X010780Y021540D02*
X011014Y021540D01*
X010897Y021540D02*
X010897Y021890D01*
X010780Y021774D01*
X011139Y021715D02*
X011256Y021774D01*
X011314Y021774D01*
X011373Y021715D01*
X011373Y021598D01*
X011314Y021540D01*
X011197Y021540D01*
X011139Y021598D01*
X011139Y021715D02*
X011139Y021890D01*
X011373Y021890D01*
X011498Y021832D02*
X011557Y021890D01*
X011673Y021890D01*
X011732Y021832D01*
X011498Y021598D01*
X011557Y021540D01*
X011673Y021540D01*
X011732Y021598D01*
X011732Y021832D01*
X011498Y021832D02*
X011498Y021598D01*
X011189Y022910D02*
X011189Y022968D01*
X011423Y023202D01*
X011423Y023260D01*
X011189Y023260D01*
X011064Y023202D02*
X011064Y023085D01*
X011005Y023027D01*
X010830Y023027D01*
X010947Y023027D02*
X011064Y022910D01*
X010830Y022910D02*
X010830Y023260D01*
X011005Y023260D01*
X011064Y023202D01*
X011014Y023540D02*
X010780Y023540D01*
X010897Y023540D02*
X010897Y023890D01*
X010780Y023774D01*
X011139Y023715D02*
X011256Y023774D01*
X011314Y023774D01*
X011373Y023715D01*
X011373Y023598D01*
X011314Y023540D01*
X011197Y023540D01*
X011139Y023598D01*
X011139Y023715D02*
X011139Y023890D01*
X011373Y023890D01*
X011498Y023832D02*
X011557Y023890D01*
X011673Y023890D01*
X011732Y023832D01*
X011498Y023598D01*
X011557Y023540D01*
X011673Y023540D01*
X011732Y023598D01*
X011732Y023832D01*
X011498Y023832D02*
X011498Y023598D01*
X011364Y024910D02*
X011247Y024910D01*
X011189Y024968D01*
X011189Y025085D01*
X011364Y025085D01*
X011423Y025027D01*
X011423Y024968D01*
X011364Y024910D01*
X011189Y025085D02*
X011306Y025202D01*
X011423Y025260D01*
X011314Y025540D02*
X011139Y025657D01*
X011314Y025774D01*
X011139Y025890D02*
X011139Y025540D01*
X011014Y025540D02*
X010780Y025540D01*
X011014Y025774D01*
X011014Y025832D01*
X010955Y025890D01*
X010838Y025890D01*
X010780Y025832D01*
X010830Y025260D02*
X011005Y025260D01*
X011064Y025202D01*
X011064Y025085D01*
X011005Y025027D01*
X010830Y025027D01*
X010947Y025027D02*
X011064Y024910D01*
X010830Y024910D02*
X010830Y025260D01*
X010830Y026910D02*
X010830Y027260D01*
X011005Y027260D01*
X011064Y027202D01*
X011064Y027085D01*
X011005Y027027D01*
X010830Y027027D01*
X010947Y027027D02*
X011064Y026910D01*
X011189Y026968D02*
X011247Y026910D01*
X011364Y026910D01*
X011423Y026968D01*
X011423Y027027D01*
X011364Y027085D01*
X011306Y027085D01*
X011364Y027085D02*
X011423Y027144D01*
X011423Y027202D01*
X011364Y027260D01*
X011247Y027260D01*
X011189Y027202D01*
X011139Y027540D02*
X011139Y027890D01*
X011014Y027832D02*
X010955Y027890D01*
X010838Y027890D01*
X010780Y027832D01*
X011014Y027832D02*
X011014Y027774D01*
X010780Y027540D01*
X011014Y027540D01*
X011139Y027657D02*
X011314Y027774D01*
X011139Y027657D02*
X011314Y027540D01*
X011423Y028910D02*
X011189Y028910D01*
X011423Y029144D01*
X011423Y029202D01*
X011364Y029260D01*
X011247Y029260D01*
X011189Y029202D01*
X011064Y029202D02*
X011064Y029085D01*
X011005Y029027D01*
X010830Y029027D01*
X010947Y029027D02*
X011064Y028910D01*
X010830Y028910D02*
X010830Y029260D01*
X011005Y029260D01*
X011064Y029202D01*
X018460Y037680D02*
X018460Y037940D01*
X018546Y038027D01*
X018720Y038027D01*
X018807Y037940D01*
X018807Y037680D01*
X018980Y037680D02*
X018460Y037680D01*
X018460Y038196D02*
X018980Y038196D01*
X018980Y038543D01*
X018893Y038711D02*
X018980Y038798D01*
X018980Y038972D01*
X018893Y039058D01*
X018807Y039058D01*
X018720Y038972D01*
X018720Y038798D01*
X018633Y038711D01*
X018546Y038711D01*
X018460Y038798D01*
X018460Y038972D01*
X018546Y039058D01*
X018460Y039227D02*
X018980Y039227D01*
X018980Y039574D01*
X018720Y039400D02*
X018720Y039227D01*
X018460Y039227D02*
X018460Y039574D01*
X018460Y039743D02*
X018460Y040090D01*
X018460Y039916D02*
X018980Y039916D01*
X018460Y038543D02*
X018460Y038196D01*
X018720Y038196D02*
X018720Y038369D01*
X018980Y038027D02*
X018807Y037853D01*
X003327Y013278D02*
X003480Y013124D01*
X003327Y012971D01*
X003020Y012971D01*
X003096Y012817D02*
X003020Y012741D01*
X003020Y012587D01*
X003096Y012510D01*
X003096Y012817D02*
X003173Y012817D01*
X003480Y012510D01*
X003480Y012817D01*
X003480Y012357D02*
X003480Y012050D01*
X003480Y012203D02*
X003020Y012203D01*
X003173Y012050D01*
X003327Y013278D02*
X003020Y013278D01*
X002364Y014910D02*
X002247Y014910D01*
X002189Y014968D01*
X002189Y015027D01*
X002247Y015085D01*
X002364Y015085D01*
X002423Y015027D01*
X002423Y014968D01*
X002364Y014910D01*
X002364Y015085D02*
X002423Y015144D01*
X002423Y015202D01*
X002364Y015260D01*
X002247Y015260D01*
X002189Y015202D01*
X002189Y015144D01*
X002247Y015085D01*
X002064Y015085D02*
X002005Y015027D01*
X001830Y015027D01*
X001947Y015027D02*
X002064Y014910D01*
X002064Y015085D02*
X002064Y015202D01*
X002005Y015260D01*
X001830Y015260D01*
X001830Y014910D01*
X003020Y010817D02*
X003327Y010817D01*
X003480Y010664D01*
X003327Y010510D01*
X003020Y010510D01*
X003020Y010357D02*
X003020Y010050D01*
X003250Y010050D01*
X003173Y010203D01*
X003173Y010280D01*
X003250Y010357D01*
X003403Y010357D01*
X003480Y010280D01*
X003480Y010127D01*
X003403Y010050D01*
X002364Y008260D02*
X002247Y008260D01*
X002189Y008202D01*
X002189Y008144D01*
X002247Y008085D01*
X002423Y008085D01*
X002423Y007968D02*
X002423Y008202D01*
X002364Y008260D01*
X002423Y007968D02*
X002364Y007910D01*
X002247Y007910D01*
X002189Y007968D01*
X002064Y007910D02*
X001947Y008027D01*
X002005Y008027D02*
X001830Y008027D01*
X001830Y007910D02*
X001830Y008260D01*
X002005Y008260D01*
X002064Y008202D01*
X002064Y008085D01*
X002005Y008027D01*
X001330Y023900D02*
X000810Y023900D01*
X000810Y024416D02*
X000810Y024676D01*
X000896Y024763D01*
X001070Y024763D01*
X001157Y024676D01*
X001157Y024416D01*
X001330Y024416D02*
X000810Y024416D01*
X000810Y024931D02*
X001330Y024931D01*
X001330Y025278D01*
X001330Y025447D02*
X000810Y025447D01*
X000983Y025620D01*
X000810Y025794D01*
X001330Y025794D01*
X001070Y025105D02*
X001070Y024931D01*
X000810Y024931D02*
X000810Y025278D01*
X001330Y024247D02*
X001330Y023900D01*
X000983Y026478D02*
X001330Y026652D01*
X000983Y026825D01*
X000896Y026994D02*
X000810Y027081D01*
X000810Y027254D01*
X000896Y027341D01*
X000983Y027341D01*
X001330Y026994D01*
X001330Y027341D01*
X001330Y027509D02*
X001330Y027596D01*
X001243Y027596D01*
X001243Y027509D01*
X001330Y027509D01*
X001243Y027767D02*
X000896Y028114D01*
X001243Y028114D01*
X001330Y028028D01*
X001330Y027854D01*
X001243Y027767D01*
X000896Y027767D01*
X000810Y027854D01*
X000810Y028028D01*
X000896Y028114D01*
X001070Y028799D02*
X001070Y029146D01*
X001070Y029314D02*
X001070Y029661D01*
X000983Y030345D02*
X000896Y030345D01*
X000810Y030432D01*
X000810Y030606D01*
X000896Y030692D01*
X001070Y030606D02*
X001157Y030692D01*
X001243Y030692D01*
X001330Y030606D01*
X001330Y030432D01*
X001243Y030345D01*
X001070Y030432D02*
X001070Y030606D01*
X001070Y030432D02*
X000983Y030345D01*
X001070Y030861D02*
X000983Y030948D01*
X000983Y031121D01*
X001070Y031208D01*
X001157Y031208D01*
X001157Y030861D01*
X001243Y030861D02*
X001070Y030861D01*
X001243Y030861D02*
X001330Y030948D01*
X001330Y031121D01*
X001330Y031377D02*
X001330Y031637D01*
X001243Y031724D01*
X001070Y031724D01*
X000983Y031637D01*
X000983Y031377D01*
X001503Y031377D01*
X001243Y031979D02*
X001330Y032066D01*
X001243Y031979D02*
X000896Y031979D01*
X000983Y031892D02*
X000983Y032066D01*
X001070Y032236D02*
X000983Y032323D01*
X000983Y032496D01*
X001070Y032583D01*
X001157Y032583D01*
X001157Y032236D01*
X001243Y032236D02*
X001070Y032236D01*
X001243Y032236D02*
X001330Y032323D01*
X001330Y032496D01*
X001330Y032752D02*
X000983Y032752D01*
X000983Y032839D01*
X001070Y032925D01*
X000983Y033012D01*
X001070Y033099D01*
X001330Y033099D01*
X001330Y033267D02*
X001330Y033528D01*
X001243Y033614D01*
X001070Y033614D01*
X000983Y033528D01*
X000983Y033267D01*
X000810Y033267D02*
X001330Y033267D01*
X001330Y032925D02*
X001070Y032925D01*
X001070Y033783D02*
X000983Y033870D01*
X000983Y034043D01*
X001070Y034130D01*
X001157Y034130D01*
X001157Y033783D01*
X001243Y033783D02*
X001070Y033783D01*
X001243Y033783D02*
X001330Y033870D01*
X001330Y034043D01*
X001330Y034299D02*
X000983Y034299D01*
X000983Y034472D02*
X000983Y034559D01*
X000983Y034472D02*
X001157Y034299D01*
X001330Y035244D02*
X000983Y035591D01*
X000896Y035591D01*
X000810Y035504D01*
X000810Y035331D01*
X000896Y035244D01*
X000896Y035760D02*
X000810Y035846D01*
X000810Y036020D01*
X000896Y036107D01*
X001243Y035760D01*
X001330Y035846D01*
X001330Y036020D01*
X001243Y036107D01*
X000896Y036107D01*
X000983Y036275D02*
X000810Y036449D01*
X001330Y036449D01*
X001330Y036622D02*
X001330Y036275D01*
X001330Y036791D02*
X001243Y036791D01*
X000896Y037138D01*
X000810Y037138D01*
X000810Y036791D01*
X000896Y035760D02*
X001243Y035760D01*
X001330Y035591D02*
X001330Y035244D01*
D12*
X002100Y036080D02*
X002100Y030780D01*
X022100Y030780D01*
X022100Y033080D01*
X022061Y033082D01*
X022022Y033088D01*
X021984Y033097D01*
X021947Y033110D01*
X021911Y033127D01*
X021878Y033147D01*
X021846Y033171D01*
X021817Y033197D01*
X021791Y033226D01*
X021767Y033258D01*
X021747Y033291D01*
X021730Y033327D01*
X021717Y033364D01*
X021708Y033402D01*
X021702Y033441D01*
X021700Y033480D01*
X021702Y033519D01*
X021708Y033558D01*
X021717Y033596D01*
X021730Y033633D01*
X021747Y033669D01*
X021767Y033702D01*
X021791Y033734D01*
X021817Y033763D01*
X021846Y033789D01*
X021878Y033813D01*
X021911Y033833D01*
X021947Y033850D01*
X021984Y033863D01*
X022022Y033872D01*
X022061Y033878D01*
X022100Y033880D01*
X022100Y036080D01*
X002100Y036080D01*
X004187Y040460D02*
X004130Y040517D01*
X004187Y040460D02*
X004300Y040460D01*
X004357Y040517D01*
X004357Y040630D01*
X004300Y040687D01*
X004243Y040687D01*
X004130Y040630D01*
X004130Y040800D01*
X004357Y040800D01*
X004498Y040800D02*
X004498Y040573D01*
X004612Y040460D01*
X004725Y040573D01*
X004725Y040800D01*
X006630Y040687D02*
X006743Y040800D01*
X006743Y040460D01*
X006630Y040460D02*
X006857Y040460D01*
X006998Y040460D02*
X007225Y040687D01*
X007225Y040744D01*
X007168Y040800D01*
X007055Y040800D01*
X006998Y040744D01*
X006998Y040460D02*
X007225Y040460D01*
X007367Y040573D02*
X007480Y040460D01*
X007593Y040573D01*
X007593Y040800D01*
X007367Y040800D02*
X007367Y040573D01*
X009130Y040517D02*
X009187Y040460D01*
X009300Y040460D01*
X009357Y040517D01*
X009357Y040573D01*
X009300Y040630D01*
X009187Y040630D01*
X009130Y040687D01*
X009130Y040744D01*
X009187Y040800D01*
X009300Y040800D01*
X009357Y040744D01*
X009498Y040800D02*
X009498Y040460D01*
X009725Y040460D01*
X009867Y040460D02*
X009867Y040800D01*
X010037Y040800D01*
X010093Y040744D01*
X010093Y040630D01*
X010037Y040573D01*
X009867Y040573D01*
X009980Y040573D02*
X010093Y040460D01*
X010235Y040460D02*
X010348Y040460D01*
X010292Y040460D02*
X010292Y040800D01*
X010348Y040800D02*
X010235Y040800D01*
X010480Y040687D02*
X010594Y040800D01*
X010707Y040687D01*
X010707Y040460D01*
X010849Y040460D02*
X010849Y040800D01*
X010707Y040630D02*
X010480Y040630D01*
X010480Y040687D02*
X010480Y040460D01*
X010849Y040460D02*
X011076Y040460D01*
X009725Y040800D02*
X009498Y040800D01*
X009498Y040630D02*
X009612Y040630D01*
X012650Y038580D02*
X012650Y037780D01*
X012652Y037763D01*
X012656Y037746D01*
X012663Y037730D01*
X012673Y037716D01*
X012686Y037703D01*
X012700Y037693D01*
X012716Y037686D01*
X012733Y037682D01*
X012750Y037680D01*
X014450Y037680D01*
X014467Y037682D01*
X014484Y037686D01*
X014500Y037693D01*
X014514Y037703D01*
X014527Y037716D01*
X014537Y037730D01*
X014544Y037746D01*
X014548Y037763D01*
X014550Y037780D01*
X014550Y038580D01*
X014548Y038597D01*
X014544Y038614D01*
X014537Y038630D01*
X014527Y038644D01*
X014514Y038657D01*
X014500Y038667D01*
X014484Y038674D01*
X014467Y038678D01*
X014450Y038680D01*
X012750Y038680D01*
X012733Y038678D01*
X012716Y038674D01*
X012700Y038667D01*
X012686Y038657D01*
X012673Y038644D01*
X012663Y038630D01*
X012656Y038614D01*
X012652Y038597D01*
X012650Y038580D01*
X013000Y039330D02*
X013100Y039330D01*
X013150Y039380D01*
X014050Y039380D01*
X014100Y039330D01*
X014200Y039330D01*
X014217Y039332D01*
X014234Y039336D01*
X014250Y039343D01*
X014264Y039353D01*
X014277Y039366D01*
X014287Y039380D01*
X014294Y039396D01*
X014298Y039413D01*
X014300Y039430D01*
X014300Y039930D01*
X014298Y039947D01*
X014294Y039964D01*
X014287Y039980D01*
X014277Y039994D01*
X014264Y040007D01*
X014250Y040017D01*
X014234Y040024D01*
X014217Y040028D01*
X014200Y040030D01*
X014100Y040030D01*
X014050Y039980D01*
X013150Y039980D01*
X013100Y040030D01*
X013000Y040030D01*
X012983Y040028D01*
X012966Y040024D01*
X012950Y040017D01*
X012936Y040007D01*
X012923Y039994D01*
X012913Y039980D01*
X012906Y039964D01*
X012902Y039947D01*
X012900Y039930D01*
X012900Y039430D01*
X012902Y039413D01*
X012906Y039396D01*
X012913Y039380D01*
X012923Y039366D01*
X012936Y039353D01*
X012950Y039343D01*
X012966Y039336D01*
X012983Y039332D01*
X013000Y039330D01*
X013300Y038180D02*
X013450Y038180D01*
X013500Y038180D01*
X013700Y038180D02*
X013750Y038180D01*
X013900Y038180D01*
X012200Y028780D02*
X012100Y028780D01*
X012050Y028730D01*
X011150Y028730D01*
X011100Y028780D01*
X011000Y028780D01*
X010983Y028778D01*
X010966Y028774D01*
X010950Y028767D01*
X010936Y028757D01*
X010923Y028744D01*
X010913Y028730D01*
X010906Y028714D01*
X010902Y028697D01*
X010900Y028680D01*
X010900Y028180D01*
X010902Y028163D01*
X010906Y028146D01*
X010913Y028130D01*
X010923Y028116D01*
X010936Y028103D01*
X010950Y028093D01*
X010966Y028086D01*
X010983Y028082D01*
X011000Y028080D01*
X011100Y028080D01*
X011150Y028130D01*
X012050Y028130D01*
X012100Y028080D01*
X012200Y028080D01*
X012217Y028082D01*
X012234Y028086D01*
X012250Y028093D01*
X012264Y028103D01*
X012277Y028116D01*
X012287Y028130D01*
X012294Y028146D01*
X012298Y028163D01*
X012300Y028180D01*
X012300Y028680D01*
X012298Y028697D01*
X012294Y028714D01*
X012287Y028730D01*
X012277Y028744D01*
X012264Y028757D01*
X012250Y028767D01*
X012234Y028774D01*
X012217Y028778D01*
X012200Y028780D01*
X012200Y026780D02*
X012100Y026780D01*
X012050Y026730D01*
X011150Y026730D01*
X011100Y026780D01*
X011000Y026780D01*
X010983Y026778D01*
X010966Y026774D01*
X010950Y026767D01*
X010936Y026757D01*
X010923Y026744D01*
X010913Y026730D01*
X010906Y026714D01*
X010902Y026697D01*
X010900Y026680D01*
X010900Y026180D01*
X010902Y026163D01*
X010906Y026146D01*
X010913Y026130D01*
X010923Y026116D01*
X010936Y026103D01*
X010950Y026093D01*
X010966Y026086D01*
X010983Y026082D01*
X011000Y026080D01*
X011100Y026080D01*
X011150Y026130D01*
X012050Y026130D01*
X012100Y026080D01*
X012200Y026080D01*
X012217Y026082D01*
X012234Y026086D01*
X012250Y026093D01*
X012264Y026103D01*
X012277Y026116D01*
X012287Y026130D01*
X012294Y026146D01*
X012298Y026163D01*
X012300Y026180D01*
X012300Y026680D01*
X012298Y026697D01*
X012294Y026714D01*
X012287Y026730D01*
X012277Y026744D01*
X012264Y026757D01*
X012250Y026767D01*
X012234Y026774D01*
X012217Y026778D01*
X012200Y026780D01*
X012200Y024780D02*
X012100Y024780D01*
X012050Y024730D01*
X011150Y024730D01*
X011100Y024780D01*
X011000Y024780D01*
X010983Y024778D01*
X010966Y024774D01*
X010950Y024767D01*
X010936Y024757D01*
X010923Y024744D01*
X010913Y024730D01*
X010906Y024714D01*
X010902Y024697D01*
X010900Y024680D01*
X010900Y024180D01*
X010902Y024163D01*
X010906Y024146D01*
X010913Y024130D01*
X010923Y024116D01*
X010936Y024103D01*
X010950Y024093D01*
X010966Y024086D01*
X010983Y024082D01*
X011000Y024080D01*
X011100Y024080D01*
X011150Y024130D01*
X012050Y024130D01*
X012100Y024080D01*
X012200Y024080D01*
X012217Y024082D01*
X012234Y024086D01*
X012250Y024093D01*
X012264Y024103D01*
X012277Y024116D01*
X012287Y024130D01*
X012294Y024146D01*
X012298Y024163D01*
X012300Y024180D01*
X012300Y024680D01*
X012298Y024697D01*
X012294Y024714D01*
X012287Y024730D01*
X012277Y024744D01*
X012264Y024757D01*
X012250Y024767D01*
X012234Y024774D01*
X012217Y024778D01*
X012200Y024780D01*
X012200Y022780D02*
X012100Y022780D01*
X012050Y022730D01*
X011150Y022730D01*
X011100Y022780D01*
X011000Y022780D01*
X010983Y022778D01*
X010966Y022774D01*
X010950Y022767D01*
X010936Y022757D01*
X010923Y022744D01*
X010913Y022730D01*
X010906Y022714D01*
X010902Y022697D01*
X010900Y022680D01*
X010900Y022180D01*
X010902Y022163D01*
X010906Y022146D01*
X010913Y022130D01*
X010923Y022116D01*
X010936Y022103D01*
X010950Y022093D01*
X010966Y022086D01*
X010983Y022082D01*
X011000Y022080D01*
X011100Y022080D01*
X011150Y022130D01*
X012050Y022130D01*
X012100Y022080D01*
X012200Y022080D01*
X012217Y022082D01*
X012234Y022086D01*
X012250Y022093D01*
X012264Y022103D01*
X012277Y022116D01*
X012287Y022130D01*
X012294Y022146D01*
X012298Y022163D01*
X012300Y022180D01*
X012300Y022680D01*
X012298Y022697D01*
X012294Y022714D01*
X012287Y022730D01*
X012277Y022744D01*
X012264Y022757D01*
X012250Y022767D01*
X012234Y022774D01*
X012217Y022778D01*
X012200Y022780D01*
X012450Y020930D02*
X010750Y020930D01*
X010733Y020928D01*
X010716Y020924D01*
X010700Y020917D01*
X010686Y020907D01*
X010673Y020894D01*
X010663Y020880D01*
X010656Y020864D01*
X010652Y020847D01*
X010650Y020830D01*
X010650Y020030D01*
X010652Y020013D01*
X010656Y019996D01*
X010663Y019980D01*
X010673Y019966D01*
X010686Y019953D01*
X010700Y019943D01*
X010716Y019936D01*
X010733Y019932D01*
X010750Y019930D01*
X012450Y019930D01*
X012467Y019932D01*
X012484Y019936D01*
X012500Y019943D01*
X012514Y019953D01*
X012527Y019966D01*
X012537Y019980D01*
X012544Y019996D01*
X012548Y020013D01*
X012550Y020030D01*
X012550Y020830D01*
X012548Y020847D01*
X012544Y020864D01*
X012537Y020880D01*
X012527Y020894D01*
X012514Y020907D01*
X012500Y020917D01*
X012484Y020924D01*
X012467Y020928D01*
X012450Y020930D01*
X011900Y020430D02*
X011750Y020430D01*
X011700Y020430D01*
X011500Y020430D02*
X011450Y020430D01*
X011300Y020430D01*
X011400Y019180D02*
X010980Y019180D01*
X010957Y019178D01*
X010934Y019173D01*
X010912Y019164D01*
X010892Y019151D01*
X010874Y019136D01*
X010859Y019118D01*
X010846Y019098D01*
X010837Y019076D01*
X010832Y019053D01*
X010830Y019030D01*
X010830Y017330D01*
X010832Y017307D01*
X010837Y017284D01*
X010846Y017262D01*
X010859Y017242D01*
X010874Y017224D01*
X010892Y017209D01*
X010912Y017196D01*
X010934Y017187D01*
X010957Y017182D01*
X010980Y017180D01*
X012220Y017180D01*
X012243Y017182D01*
X012266Y017187D01*
X012288Y017196D01*
X012308Y017209D01*
X012326Y017224D01*
X012341Y017242D01*
X012354Y017262D01*
X012363Y017284D01*
X012368Y017307D01*
X012370Y017330D01*
X012370Y019030D01*
X012368Y019053D01*
X012363Y019076D01*
X012354Y019098D01*
X012341Y019118D01*
X012326Y019136D01*
X012308Y019151D01*
X012288Y019164D01*
X012266Y019173D01*
X012243Y019178D01*
X012220Y019180D01*
X011800Y019180D01*
X011400Y019180D01*
X011402Y019153D01*
X011407Y019126D01*
X011417Y019100D01*
X011429Y019076D01*
X011445Y019054D01*
X011463Y019034D01*
X011485Y019017D01*
X011508Y019002D01*
X011533Y018992D01*
X011559Y018984D01*
X011586Y018980D01*
X011614Y018980D01*
X011641Y018984D01*
X011667Y018992D01*
X011692Y019002D01*
X011715Y019017D01*
X011737Y019034D01*
X011755Y019054D01*
X011771Y019076D01*
X011783Y019100D01*
X011793Y019126D01*
X011798Y019153D01*
X011800Y019180D01*
X011440Y015790D02*
X011340Y015790D01*
X011290Y015740D01*
X010390Y015740D01*
X010340Y015790D01*
X010240Y015790D01*
X010223Y015788D01*
X010206Y015784D01*
X010190Y015777D01*
X010176Y015767D01*
X010163Y015754D01*
X010153Y015740D01*
X010146Y015724D01*
X010142Y015707D01*
X010140Y015690D01*
X010140Y015190D01*
X010142Y015173D01*
X010146Y015156D01*
X010153Y015140D01*
X010163Y015126D01*
X010176Y015113D01*
X010190Y015103D01*
X010206Y015096D01*
X010223Y015092D01*
X010240Y015090D01*
X010340Y015090D01*
X010390Y015140D01*
X011290Y015140D01*
X011340Y015090D01*
X011440Y015090D01*
X011457Y015092D01*
X011474Y015096D01*
X011490Y015103D01*
X011504Y015113D01*
X011517Y015126D01*
X011527Y015140D01*
X011534Y015156D01*
X011538Y015173D01*
X011540Y015190D01*
X011540Y015690D01*
X011538Y015707D01*
X011534Y015724D01*
X011527Y015740D01*
X011517Y015754D01*
X011504Y015767D01*
X011490Y015777D01*
X011474Y015784D01*
X011457Y015788D01*
X011440Y015790D01*
X013370Y015670D02*
X013370Y015170D01*
X013372Y015153D01*
X013376Y015136D01*
X013383Y015120D01*
X013393Y015106D01*
X013406Y015093D01*
X013420Y015083D01*
X013436Y015076D01*
X013453Y015072D01*
X013470Y015070D01*
X013570Y015070D01*
X013620Y015120D01*
X014520Y015120D01*
X014570Y015070D01*
X014670Y015070D01*
X014687Y015072D01*
X014704Y015076D01*
X014720Y015083D01*
X014734Y015093D01*
X014747Y015106D01*
X014757Y015120D01*
X014764Y015136D01*
X014768Y015153D01*
X014770Y015170D01*
X014770Y015670D01*
X014768Y015687D01*
X014764Y015704D01*
X014757Y015720D01*
X014747Y015734D01*
X014734Y015747D01*
X014720Y015757D01*
X014704Y015764D01*
X014687Y015768D01*
X014670Y015770D01*
X014570Y015770D01*
X014520Y015720D01*
X013620Y015720D01*
X013570Y015770D01*
X013470Y015770D01*
X013453Y015768D01*
X013436Y015764D01*
X013420Y015757D01*
X013406Y015747D01*
X013393Y015734D01*
X013383Y015720D01*
X013376Y015704D01*
X013372Y015687D01*
X013370Y015670D01*
X016925Y014130D02*
X016925Y010080D01*
X016825Y010080D01*
X006275Y010080D01*
X006175Y010080D01*
X006175Y014130D01*
X005975Y014330D01*
X004025Y014330D01*
X003825Y014130D01*
X003825Y010130D01*
X003825Y010080D01*
X005825Y010080D01*
X006175Y010080D01*
X006275Y010080D02*
X006275Y010380D01*
X016825Y010380D01*
X016825Y010080D01*
X016925Y010080D02*
X017275Y010080D01*
X019275Y010080D01*
X019275Y010130D01*
X019275Y014080D01*
X019025Y014330D01*
X017125Y014330D01*
X016925Y014130D01*
X017435Y013080D02*
X017437Y013130D01*
X017443Y013180D01*
X017453Y013230D01*
X017466Y013278D01*
X017483Y013326D01*
X017504Y013372D01*
X017528Y013416D01*
X017556Y013458D01*
X017587Y013498D01*
X017621Y013535D01*
X017658Y013570D01*
X017697Y013601D01*
X017738Y013630D01*
X017782Y013655D01*
X017828Y013677D01*
X017875Y013695D01*
X017923Y013709D01*
X017972Y013720D01*
X018022Y013727D01*
X018072Y013730D01*
X018123Y013729D01*
X018173Y013724D01*
X018223Y013715D01*
X018271Y013703D01*
X018319Y013686D01*
X018365Y013666D01*
X018410Y013643D01*
X018453Y013616D01*
X018493Y013586D01*
X018531Y013553D01*
X018566Y013517D01*
X018599Y013478D01*
X018628Y013437D01*
X018654Y013394D01*
X018677Y013349D01*
X018696Y013302D01*
X018711Y013254D01*
X018723Y013205D01*
X018731Y013155D01*
X018735Y013105D01*
X018735Y013055D01*
X018731Y013005D01*
X018723Y012955D01*
X018711Y012906D01*
X018696Y012858D01*
X018677Y012811D01*
X018654Y012766D01*
X018628Y012723D01*
X018599Y012682D01*
X018566Y012643D01*
X018531Y012607D01*
X018493Y012574D01*
X018453Y012544D01*
X018410Y012517D01*
X018365Y012494D01*
X018319Y012474D01*
X018271Y012457D01*
X018223Y012445D01*
X018173Y012436D01*
X018123Y012431D01*
X018072Y012430D01*
X018022Y012433D01*
X017972Y012440D01*
X017923Y012451D01*
X017875Y012465D01*
X017828Y012483D01*
X017782Y012505D01*
X017738Y012530D01*
X017697Y012559D01*
X017658Y012590D01*
X017621Y012625D01*
X017587Y012662D01*
X017556Y012702D01*
X017528Y012744D01*
X017504Y012788D01*
X017483Y012834D01*
X017466Y012882D01*
X017453Y012930D01*
X017443Y012980D01*
X017437Y013030D01*
X017435Y013080D01*
X017225Y009830D02*
X017225Y008880D01*
X017275Y008880D01*
X017275Y008680D01*
X005825Y008680D01*
X005825Y008880D01*
X005875Y008880D01*
X005875Y009830D01*
X005877Y009860D01*
X005882Y009890D01*
X005891Y009919D01*
X005904Y009946D01*
X005919Y009972D01*
X005938Y009996D01*
X005959Y010017D01*
X005983Y010036D01*
X006009Y010051D01*
X006036Y010064D01*
X006065Y010073D01*
X006095Y010078D01*
X006125Y010080D01*
X005825Y008680D02*
X004825Y008680D01*
X003825Y008680D01*
X003825Y008880D01*
X003825Y010080D01*
X003825Y008680D02*
X003825Y008480D01*
X006875Y008480D01*
X016225Y008480D01*
X019275Y008480D01*
X019275Y008680D01*
X018275Y008680D01*
X017275Y008680D01*
X016625Y008480D02*
X016595Y008478D01*
X016565Y008473D01*
X016536Y008464D01*
X016509Y008451D01*
X016483Y008436D01*
X016459Y008417D01*
X016438Y008396D01*
X016419Y008372D01*
X016404Y008346D01*
X016391Y008319D01*
X016382Y008290D01*
X016377Y008260D01*
X016375Y008230D01*
X016375Y006230D01*
X016373Y006204D01*
X016368Y006178D01*
X016360Y006153D01*
X016348Y006130D01*
X016334Y006108D01*
X016316Y006089D01*
X016297Y006071D01*
X016275Y006057D01*
X016252Y006045D01*
X016227Y006037D01*
X016201Y006032D01*
X016175Y006030D01*
X016075Y006030D01*
X007025Y006030D01*
X006925Y006030D01*
X006899Y006032D01*
X006873Y006037D01*
X006848Y006045D01*
X006825Y006057D01*
X006803Y006071D01*
X006784Y006089D01*
X006766Y006108D01*
X006752Y006130D01*
X006740Y006153D01*
X006732Y006178D01*
X006727Y006204D01*
X006725Y006230D01*
X006725Y008230D01*
X006723Y008260D01*
X006718Y008290D01*
X006709Y008319D01*
X006696Y008346D01*
X006681Y008372D01*
X006662Y008396D01*
X006641Y008417D01*
X006617Y008436D01*
X006591Y008451D01*
X006564Y008464D01*
X006535Y008473D01*
X006505Y008478D01*
X006475Y008480D01*
X004315Y013080D02*
X004317Y013130D01*
X004323Y013180D01*
X004333Y013230D01*
X004346Y013278D01*
X004363Y013326D01*
X004384Y013372D01*
X004408Y013416D01*
X004436Y013458D01*
X004467Y013498D01*
X004501Y013535D01*
X004538Y013570D01*
X004577Y013601D01*
X004618Y013630D01*
X004662Y013655D01*
X004708Y013677D01*
X004755Y013695D01*
X004803Y013709D01*
X004852Y013720D01*
X004902Y013727D01*
X004952Y013730D01*
X005003Y013729D01*
X005053Y013724D01*
X005103Y013715D01*
X005151Y013703D01*
X005199Y013686D01*
X005245Y013666D01*
X005290Y013643D01*
X005333Y013616D01*
X005373Y013586D01*
X005411Y013553D01*
X005446Y013517D01*
X005479Y013478D01*
X005508Y013437D01*
X005534Y013394D01*
X005557Y013349D01*
X005576Y013302D01*
X005591Y013254D01*
X005603Y013205D01*
X005611Y013155D01*
X005615Y013105D01*
X005615Y013055D01*
X005611Y013005D01*
X005603Y012955D01*
X005591Y012906D01*
X005576Y012858D01*
X005557Y012811D01*
X005534Y012766D01*
X005508Y012723D01*
X005479Y012682D01*
X005446Y012643D01*
X005411Y012607D01*
X005373Y012574D01*
X005333Y012544D01*
X005290Y012517D01*
X005245Y012494D01*
X005199Y012474D01*
X005151Y012457D01*
X005103Y012445D01*
X005053Y012436D01*
X005003Y012431D01*
X004952Y012430D01*
X004902Y012433D01*
X004852Y012440D01*
X004803Y012451D01*
X004755Y012465D01*
X004708Y012483D01*
X004662Y012505D01*
X004618Y012530D01*
X004577Y012559D01*
X004538Y012590D01*
X004501Y012625D01*
X004467Y012662D01*
X004436Y012702D01*
X004408Y012744D01*
X004384Y012788D01*
X004363Y012834D01*
X004346Y012882D01*
X004333Y012930D01*
X004323Y012980D01*
X004317Y013030D01*
X004315Y013080D01*
X002800Y014180D02*
X002800Y014680D01*
X002798Y014697D01*
X002794Y014714D01*
X002787Y014730D01*
X002777Y014744D01*
X002764Y014757D01*
X002750Y014767D01*
X002734Y014774D01*
X002717Y014778D01*
X002700Y014780D01*
X002600Y014780D01*
X002550Y014730D01*
X001650Y014730D01*
X001600Y014780D01*
X001500Y014780D01*
X001483Y014778D01*
X001466Y014774D01*
X001450Y014767D01*
X001436Y014757D01*
X001423Y014744D01*
X001413Y014730D01*
X001406Y014714D01*
X001402Y014697D01*
X001400Y014680D01*
X001400Y014180D01*
X001402Y014163D01*
X001406Y014146D01*
X001413Y014130D01*
X001423Y014116D01*
X001436Y014103D01*
X001450Y014093D01*
X001466Y014086D01*
X001483Y014082D01*
X001500Y014080D01*
X001600Y014080D01*
X001650Y014130D01*
X002550Y014130D01*
X002600Y014080D01*
X002700Y014080D01*
X002717Y014082D01*
X002734Y014086D01*
X002750Y014093D01*
X002764Y014103D01*
X002777Y014116D01*
X002787Y014130D01*
X002794Y014146D01*
X002798Y014163D01*
X002800Y014180D01*
X001626Y012312D02*
X001656Y012277D01*
X001687Y012244D01*
X001722Y012214D01*
X001758Y012187D01*
X001796Y012163D01*
X001836Y012141D01*
X001878Y012123D01*
X001921Y012107D01*
X001965Y012095D01*
X002009Y012087D01*
X002055Y012082D01*
X002100Y012080D01*
X001652Y012281D02*
X001621Y012319D01*
X001593Y012359D01*
X001569Y012401D01*
X001548Y012444D01*
X001531Y012490D01*
X001518Y012536D01*
X001508Y012584D01*
X001502Y012632D01*
X001500Y012680D01*
X002100Y013280D02*
X002147Y013278D01*
X002195Y013272D01*
X002241Y013263D01*
X002287Y013250D01*
X002331Y013234D01*
X002375Y013213D01*
X002416Y013190D01*
X002455Y013164D01*
X002492Y013134D01*
X002527Y013101D01*
X002559Y013066D01*
X002588Y013029D01*
X002700Y012680D02*
X002698Y012634D01*
X002693Y012588D01*
X002684Y012542D01*
X002672Y012498D01*
X002656Y012454D01*
X002637Y012412D01*
X002615Y012371D01*
X002589Y012333D01*
X002561Y012296D01*
X002700Y012680D02*
X002698Y012727D01*
X002693Y012774D01*
X002683Y012820D01*
X002670Y012866D01*
X002654Y012910D01*
X002634Y012953D01*
X002611Y012994D01*
X002585Y013033D01*
X002556Y013070D01*
X002500Y012680D02*
X002498Y012641D01*
X002492Y012602D01*
X002483Y012564D01*
X002470Y012527D01*
X002453Y012491D01*
X002433Y012458D01*
X002409Y012426D01*
X002383Y012397D01*
X002354Y012371D01*
X002322Y012347D01*
X002289Y012327D01*
X002253Y012310D01*
X002216Y012297D01*
X002178Y012288D01*
X002139Y012282D01*
X002100Y012280D01*
X001500Y012680D02*
X001502Y012726D01*
X001507Y012772D01*
X001516Y012818D01*
X001528Y012862D01*
X001544Y012906D01*
X001563Y012948D01*
X001585Y012989D01*
X001611Y013027D01*
X001639Y013064D01*
X002100Y012080D02*
X002145Y012082D01*
X002191Y012087D01*
X002235Y012095D01*
X002279Y012107D01*
X002322Y012123D01*
X002364Y012141D01*
X002404Y012163D01*
X002442Y012187D01*
X002478Y012214D01*
X002513Y012244D01*
X002544Y012277D01*
X002574Y012312D01*
X002100Y013280D02*
X002054Y013278D01*
X002008Y013273D01*
X001962Y013264D01*
X001917Y013252D01*
X001874Y013236D01*
X001832Y013217D01*
X001791Y013194D01*
X001752Y013169D01*
X001716Y013141D01*
X001681Y013110D01*
X001649Y013076D01*
X001620Y013040D01*
X002100Y012430D02*
X002130Y012432D01*
X002160Y012437D01*
X002189Y012446D01*
X002216Y012459D01*
X002242Y012474D01*
X002266Y012493D01*
X002287Y012514D01*
X002306Y012538D01*
X002321Y012564D01*
X002334Y012591D01*
X002343Y012620D01*
X002348Y012650D01*
X002350Y012680D01*
X002100Y013080D02*
X002061Y013078D01*
X002022Y013072D01*
X001984Y013063D01*
X001947Y013050D01*
X001911Y013033D01*
X001878Y013013D01*
X001846Y012989D01*
X001817Y012963D01*
X001791Y012934D01*
X001767Y012902D01*
X001747Y012869D01*
X001730Y012833D01*
X001717Y012796D01*
X001708Y012758D01*
X001702Y012719D01*
X001700Y012680D01*
X001850Y012680D02*
X001852Y012710D01*
X001857Y012740D01*
X001866Y012769D01*
X001879Y012796D01*
X001894Y012822D01*
X001913Y012846D01*
X001934Y012867D01*
X001958Y012886D01*
X001984Y012901D01*
X002011Y012914D01*
X002040Y012923D01*
X002070Y012928D01*
X002100Y012930D01*
X002700Y010430D02*
X002698Y010384D01*
X002693Y010338D01*
X002684Y010292D01*
X002672Y010248D01*
X002656Y010204D01*
X002637Y010162D01*
X002615Y010121D01*
X002589Y010083D01*
X002561Y010046D01*
X001652Y010031D02*
X001621Y010069D01*
X001593Y010109D01*
X001569Y010151D01*
X001548Y010194D01*
X001531Y010240D01*
X001518Y010286D01*
X001508Y010334D01*
X001502Y010382D01*
X001500Y010430D01*
X002100Y011030D02*
X002147Y011028D01*
X002195Y011022D01*
X002241Y011013D01*
X002287Y011000D01*
X002331Y010984D01*
X002375Y010963D01*
X002416Y010940D01*
X002455Y010914D01*
X002492Y010884D01*
X002527Y010851D01*
X002559Y010816D01*
X002588Y010779D01*
X002100Y009830D02*
X002055Y009832D01*
X002009Y009837D01*
X001965Y009845D01*
X001921Y009857D01*
X001878Y009873D01*
X001836Y009891D01*
X001796Y009913D01*
X001758Y009937D01*
X001722Y009964D01*
X001687Y009994D01*
X001656Y010027D01*
X001626Y010062D01*
X002700Y010430D02*
X002698Y010477D01*
X002693Y010524D01*
X002683Y010570D01*
X002670Y010616D01*
X002654Y010660D01*
X002634Y010703D01*
X002611Y010744D01*
X002585Y010783D01*
X002556Y010820D01*
X002500Y010430D02*
X002498Y010391D01*
X002492Y010352D01*
X002483Y010314D01*
X002470Y010277D01*
X002453Y010241D01*
X002433Y010208D01*
X002409Y010176D01*
X002383Y010147D01*
X002354Y010121D01*
X002322Y010097D01*
X002289Y010077D01*
X002253Y010060D01*
X002216Y010047D01*
X002178Y010038D01*
X002139Y010032D01*
X002100Y010030D01*
X001500Y010430D02*
X001502Y010476D01*
X001507Y010522D01*
X001516Y010568D01*
X001528Y010612D01*
X001544Y010656D01*
X001563Y010698D01*
X001585Y010739D01*
X001611Y010777D01*
X001639Y010814D01*
X002100Y009830D02*
X002145Y009832D01*
X002191Y009837D01*
X002235Y009845D01*
X002279Y009857D01*
X002322Y009873D01*
X002364Y009891D01*
X002404Y009913D01*
X002442Y009937D01*
X002478Y009964D01*
X002513Y009994D01*
X002544Y010027D01*
X002574Y010062D01*
X002100Y011030D02*
X002054Y011028D01*
X002008Y011023D01*
X001962Y011014D01*
X001917Y011002D01*
X001874Y010986D01*
X001832Y010967D01*
X001791Y010944D01*
X001752Y010919D01*
X001716Y010891D01*
X001681Y010860D01*
X001649Y010826D01*
X001620Y010790D01*
X002100Y010180D02*
X002130Y010182D01*
X002160Y010187D01*
X002189Y010196D01*
X002216Y010209D01*
X002242Y010224D01*
X002266Y010243D01*
X002287Y010264D01*
X002306Y010288D01*
X002321Y010314D01*
X002334Y010341D01*
X002343Y010370D01*
X002348Y010400D01*
X002350Y010430D01*
X002100Y010830D02*
X002061Y010828D01*
X002022Y010822D01*
X001984Y010813D01*
X001947Y010800D01*
X001911Y010783D01*
X001878Y010763D01*
X001846Y010739D01*
X001817Y010713D01*
X001791Y010684D01*
X001767Y010652D01*
X001747Y010619D01*
X001730Y010583D01*
X001717Y010546D01*
X001708Y010508D01*
X001702Y010469D01*
X001700Y010430D01*
X001850Y010430D02*
X001852Y010460D01*
X001857Y010490D01*
X001866Y010519D01*
X001879Y010546D01*
X001894Y010572D01*
X001913Y010596D01*
X001934Y010617D01*
X001958Y010636D01*
X001984Y010651D01*
X002011Y010664D01*
X002040Y010673D01*
X002070Y010678D01*
X002100Y010680D01*
X001600Y009030D02*
X001650Y008980D01*
X002550Y008980D01*
X002600Y009030D01*
X002700Y009030D01*
X002717Y009028D01*
X002734Y009024D01*
X002750Y009017D01*
X002764Y009007D01*
X002777Y008994D01*
X002787Y008980D01*
X002794Y008964D01*
X002798Y008947D01*
X002800Y008930D01*
X002800Y008430D01*
X002798Y008413D01*
X002794Y008396D01*
X002787Y008380D01*
X002777Y008366D01*
X002764Y008353D01*
X002750Y008343D01*
X002734Y008336D01*
X002717Y008332D01*
X002700Y008330D01*
X002600Y008330D01*
X002550Y008380D01*
X001650Y008380D01*
X001600Y008330D01*
X001500Y008330D01*
X001483Y008332D01*
X001466Y008336D01*
X001450Y008343D01*
X001436Y008353D01*
X001423Y008366D01*
X001413Y008380D01*
X001406Y008396D01*
X001402Y008413D01*
X001400Y008430D01*
X001400Y008930D01*
X001402Y008947D01*
X001406Y008964D01*
X001413Y008980D01*
X001423Y008994D01*
X001436Y009007D01*
X001450Y009017D01*
X001466Y009024D01*
X001483Y009028D01*
X001500Y009030D01*
X001600Y009030D01*
X001630Y025210D02*
X001630Y025550D01*
X001800Y025550D01*
X001857Y025494D01*
X001857Y025380D01*
X001800Y025323D01*
X001630Y025323D01*
X001998Y025267D02*
X002055Y025210D01*
X002168Y025210D01*
X002225Y025267D01*
X002225Y025494D01*
X002168Y025550D01*
X002055Y025550D01*
X001998Y025494D01*
X001998Y025267D01*
X002367Y025550D02*
X002593Y025550D01*
X002480Y025550D02*
X002480Y025210D01*
X002735Y025210D02*
X002962Y025437D01*
X002962Y025494D01*
X002905Y025550D01*
X002792Y025550D01*
X002735Y025494D01*
X002735Y025210D02*
X002962Y025210D01*
X002962Y028960D02*
X002735Y028960D01*
X002848Y028960D02*
X002848Y029300D01*
X002735Y029187D01*
X002593Y029300D02*
X002367Y029300D01*
X002480Y029300D02*
X002480Y028960D01*
X002225Y029017D02*
X002225Y029244D01*
X002168Y029300D01*
X002055Y029300D01*
X001998Y029244D01*
X001998Y029017D01*
X002055Y028960D01*
X002168Y028960D01*
X002225Y029017D01*
X001857Y029130D02*
X001800Y029073D01*
X001630Y029073D01*
X001630Y028960D02*
X001630Y029300D01*
X001800Y029300D01*
X001857Y029244D01*
X001857Y029130D01*
X005630Y029300D02*
X005857Y029300D01*
X005743Y029300D02*
X005743Y028960D01*
X005998Y028960D02*
X005998Y029300D01*
X006225Y029300D02*
X006225Y028960D01*
X006112Y029073D01*
X005998Y028960D01*
X006367Y028960D02*
X006480Y028960D01*
X006423Y028960D02*
X006423Y029300D01*
X006367Y029300D02*
X006480Y029300D01*
X006612Y029187D02*
X006726Y029300D01*
X006726Y028960D01*
X006839Y028960D02*
X006612Y028960D01*
X006669Y025550D02*
X006612Y025494D01*
X006669Y025550D02*
X006782Y025550D01*
X006839Y025494D01*
X006839Y025437D01*
X006612Y025210D01*
X006839Y025210D01*
X006480Y025210D02*
X006367Y025210D01*
X006423Y025210D02*
X006423Y025550D01*
X006367Y025550D02*
X006480Y025550D01*
X006225Y025550D02*
X006225Y025210D01*
X006112Y025323D01*
X005998Y025210D01*
X005998Y025550D01*
X005857Y025550D02*
X005630Y025550D01*
X005743Y025550D02*
X005743Y025210D01*
X016975Y010080D02*
X017005Y010078D01*
X017035Y010073D01*
X017064Y010064D01*
X017091Y010051D01*
X017117Y010036D01*
X017141Y010017D01*
X017162Y009996D01*
X017181Y009972D01*
X017196Y009946D01*
X017209Y009919D01*
X017218Y009890D01*
X017223Y009860D01*
X017225Y009830D01*
X019275Y010080D02*
X019275Y008880D01*
X019275Y008680D01*
X020250Y004680D02*
X020000Y004430D01*
X020000Y003930D01*
X020250Y003680D01*
X020750Y003680D01*
X021000Y003930D01*
X021250Y003680D01*
X021750Y003680D01*
X022000Y003930D01*
X022000Y004430D01*
X021750Y004680D01*
X021250Y004680D01*
X021000Y004430D01*
X021000Y003930D01*
X021000Y004430D02*
X020750Y004680D01*
X020250Y004680D01*
X020150Y002630D02*
X020650Y002630D01*
X020900Y002380D01*
X020900Y000880D01*
X020650Y000630D01*
X020150Y000630D01*
X019900Y000880D01*
X019900Y002380D01*
X020150Y002630D01*
X020900Y002380D02*
X021150Y002630D01*
X021650Y002630D01*
X021900Y002380D01*
X021900Y000880D01*
X021650Y000630D01*
X021150Y000630D01*
X020900Y000880D01*
X021900Y000880D02*
X022150Y000630D01*
X022650Y000630D01*
X022900Y000880D01*
X022900Y002380D01*
X022650Y002630D01*
X022150Y002630D01*
X021900Y002380D01*
X022230Y002860D02*
X022657Y002860D01*
X022444Y002860D02*
X022444Y003501D01*
X022230Y003287D01*
D13*
X012087Y037195D02*
X011902Y037195D01*
X011902Y037565D01*
X012087Y037565D01*
X012149Y037504D01*
X012149Y037257D01*
X012087Y037195D01*
X011780Y037195D02*
X011780Y037565D01*
X011533Y037565D02*
X011780Y037195D01*
X011533Y037195D02*
X011533Y037565D01*
X011412Y037504D02*
X011350Y037565D01*
X011227Y037565D01*
X011165Y037504D01*
X011165Y037257D01*
X011227Y037195D01*
X011350Y037195D01*
X011412Y037257D01*
X011412Y037380D01*
X011288Y037380D01*
X010880Y037195D02*
X010633Y037565D01*
X010512Y037565D02*
X010265Y037565D01*
X010388Y037565D02*
X010388Y037195D01*
X010633Y037195D02*
X010880Y037565D01*
X009930Y037565D02*
X009683Y037195D01*
X009562Y037195D02*
X009438Y037318D01*
X009500Y037318D02*
X009315Y037318D01*
X009315Y037195D02*
X009315Y037565D01*
X009500Y037565D01*
X009562Y037504D01*
X009562Y037380D01*
X009500Y037318D01*
X009683Y037565D02*
X009930Y037195D01*
X008749Y037257D02*
X008749Y037504D01*
X008687Y037565D01*
X008502Y037565D01*
X008502Y037195D01*
X008687Y037195D01*
X008749Y037257D01*
X008380Y037195D02*
X008380Y037565D01*
X008133Y037565D02*
X008133Y037195D01*
X008012Y037257D02*
X008012Y037380D01*
X007888Y037380D01*
X007765Y037257D02*
X007827Y037195D01*
X007950Y037195D01*
X008012Y037257D01*
X008012Y037504D02*
X007950Y037565D01*
X007827Y037565D01*
X007765Y037504D01*
X007765Y037257D01*
X007599Y037318D02*
X007599Y037565D01*
X007599Y037318D02*
X007475Y037195D01*
X007352Y037318D01*
X007352Y037565D01*
X007230Y037504D02*
X007168Y037565D01*
X007045Y037565D01*
X006983Y037504D01*
X007230Y037504D02*
X007230Y037442D01*
X006983Y037195D01*
X007230Y037195D01*
X006862Y037195D02*
X006615Y037195D01*
X006738Y037195D02*
X006738Y037565D01*
X006615Y037442D01*
X006249Y037504D02*
X006187Y037565D01*
X006002Y037565D01*
X006002Y037195D01*
X006187Y037195D01*
X006249Y037257D01*
X006249Y037504D01*
X005880Y037565D02*
X005880Y037195D01*
X005633Y037565D01*
X005633Y037195D01*
X005512Y037257D02*
X005512Y037380D01*
X005388Y037380D01*
X005265Y037257D02*
X005327Y037195D01*
X005450Y037195D01*
X005512Y037257D01*
X005512Y037504D02*
X005450Y037565D01*
X005327Y037565D01*
X005265Y037504D01*
X005265Y037257D01*
X004730Y037318D02*
X004730Y037565D01*
X004730Y037318D02*
X004607Y037195D01*
X004483Y037318D01*
X004483Y037565D01*
X004362Y037565D02*
X004115Y037565D01*
X004115Y037380D01*
X004238Y037442D01*
X004300Y037442D01*
X004362Y037380D01*
X004362Y037257D01*
X004300Y037195D01*
X004177Y037195D01*
X004115Y037257D01*
X008133Y037565D02*
X008380Y037195D01*
D14*
X012600Y039680D02*
X012800Y039680D01*
X014400Y039680D02*
X014600Y039680D01*
X012600Y028430D02*
X012400Y028430D01*
X012400Y026430D02*
X012600Y026430D01*
X012600Y024430D02*
X012400Y024430D01*
X012400Y022430D02*
X012600Y022430D01*
X010800Y022430D02*
X010600Y022430D01*
X010600Y024430D02*
X010800Y024430D01*
X010800Y026430D02*
X010600Y026430D01*
X010600Y028430D02*
X010800Y028430D01*
X010040Y015440D02*
X009840Y015440D01*
X011640Y015440D02*
X011840Y015440D01*
X013070Y015420D02*
X013270Y015420D01*
X014870Y015420D02*
X015070Y015420D01*
X003100Y014430D02*
X002900Y014430D01*
X001300Y014430D02*
X001100Y014430D01*
X001100Y008680D02*
X001300Y008680D01*
X002900Y008680D02*
X003100Y008680D01*
D15*
X002850Y008680D03*
X001350Y008680D03*
X001350Y014430D03*
X002850Y014430D03*
X010090Y015440D03*
X011590Y015440D03*
X013320Y015420D03*
X014820Y015420D03*
X012350Y022430D03*
X012350Y024430D03*
X012350Y026430D03*
X012350Y028430D03*
X010850Y028430D03*
X010850Y026430D03*
X010850Y024430D03*
X010850Y022430D03*
X012850Y039680D03*
X014350Y039680D03*
D16*
X014344Y040095D02*
X014344Y040152D01*
X014571Y040379D01*
X014571Y040435D01*
X014344Y040435D01*
X014155Y040435D02*
X013985Y040265D01*
X014212Y040265D01*
X014155Y040095D02*
X014155Y040435D01*
X013571Y040115D02*
X013344Y040115D01*
X013458Y040115D02*
X013458Y040455D01*
X013344Y040342D01*
X013212Y040399D02*
X013212Y040285D01*
X013155Y040228D01*
X012985Y040228D01*
X012985Y040115D02*
X012985Y040455D01*
X013155Y040455D01*
X013212Y040399D01*
X013098Y040228D02*
X013212Y040115D01*
X014703Y040095D02*
X014703Y040435D01*
X014873Y040322D02*
X014703Y040208D01*
X014873Y040095D01*
X015175Y038566D02*
X015175Y038265D01*
X015175Y038416D02*
X014725Y038416D01*
X014875Y038265D01*
X014800Y038105D02*
X014725Y038030D01*
X014725Y037880D01*
X014800Y037805D01*
X015100Y037805D01*
X015175Y037880D01*
X015175Y038030D01*
X015100Y038105D01*
X010375Y020795D02*
X010375Y020495D01*
X010075Y020795D01*
X010000Y020795D01*
X009925Y020720D01*
X009925Y020570D01*
X010000Y020495D01*
X010000Y020334D02*
X009925Y020259D01*
X009925Y020109D01*
X010000Y020034D01*
X010300Y020034D01*
X010375Y020109D01*
X010375Y020259D01*
X010300Y020334D01*
X006965Y013805D02*
X007040Y013730D01*
X007040Y013655D01*
X006965Y013580D01*
X006815Y013580D01*
X006740Y013655D01*
X006740Y013730D01*
X006815Y013805D01*
X006965Y013805D01*
X006965Y013580D02*
X007040Y013505D01*
X007040Y013430D01*
X006965Y013355D01*
X006815Y013355D01*
X006740Y013430D01*
X006740Y013505D01*
X006815Y013580D01*
X006740Y012805D02*
X006740Y012580D01*
X006890Y012655D01*
X006965Y012655D01*
X007040Y012580D01*
X007040Y012430D01*
X006965Y012355D01*
X006815Y012355D01*
X006740Y012430D01*
X006579Y012355D02*
X006279Y012355D01*
X006429Y012355D02*
X006429Y012805D01*
X006279Y012655D01*
X006740Y012805D02*
X007040Y012805D01*
X004650Y010877D02*
X004500Y011027D01*
X004500Y010952D01*
X004425Y010952D01*
X004425Y011027D01*
X004500Y011027D01*
X004425Y011184D02*
X004500Y011259D01*
X004500Y011409D01*
X004425Y011484D01*
X004275Y011484D01*
X004200Y011409D01*
X004200Y011334D01*
X004275Y011184D01*
X004050Y011184D01*
X004050Y011484D01*
X004275Y011645D02*
X004050Y011870D01*
X004500Y011870D01*
X004275Y011945D02*
X004275Y011645D01*
X004200Y010717D02*
X004125Y010717D01*
X004050Y010642D01*
X004050Y010492D01*
X004125Y010417D01*
X004200Y010717D02*
X004500Y010417D01*
X004500Y010717D01*
X014819Y009705D02*
X014819Y009255D01*
X014819Y009480D02*
X014969Y009480D01*
X014819Y009705D02*
X015119Y009705D01*
X015279Y009555D02*
X015429Y009705D01*
X015429Y009255D01*
X015279Y009255D02*
X015579Y009255D01*
X015740Y009330D02*
X015815Y009255D01*
X015965Y009255D01*
X016040Y009330D01*
X016040Y009480D01*
X015965Y009555D01*
X015890Y009555D01*
X015740Y009480D01*
X015740Y009705D01*
X016040Y009705D01*
X015965Y012355D02*
X015815Y012355D01*
X015740Y012430D01*
X015815Y012580D02*
X016040Y012580D01*
X016040Y012430D02*
X016040Y012730D01*
X015965Y012805D01*
X015815Y012805D01*
X015740Y012730D01*
X015740Y012655D01*
X015815Y012580D01*
X015965Y012355D02*
X016040Y012430D01*
X016040Y013355D02*
X015740Y013355D01*
X015890Y013355D02*
X015890Y013805D01*
X015740Y013655D01*
D17*
X014163Y016430D02*
X019281Y016430D01*
X022352Y016430D01*
X022352Y022430D01*
X019281Y022430D01*
X014163Y022430D01*
X014163Y016430D01*
X012074Y016570D02*
X011793Y016570D01*
X012074Y016850D01*
X012074Y016920D01*
X012004Y016990D01*
X011864Y016990D01*
X011793Y016920D01*
X011613Y016920D02*
X011543Y016990D01*
X011403Y016990D01*
X011333Y016920D01*
X011333Y016640D01*
X011403Y016570D01*
X011543Y016570D01*
X011613Y016640D01*
X011166Y016570D02*
X011026Y016570D01*
X011096Y016570D02*
X011096Y016990D01*
X011026Y016990D02*
X011166Y016990D01*
X009037Y015430D02*
X003919Y015430D01*
X000848Y015430D01*
X000848Y021430D01*
X003919Y021430D01*
X003919Y015430D01*
X003919Y021430D02*
X009037Y021430D01*
X009037Y015430D01*
X014163Y023430D02*
X019281Y023430D01*
X022352Y023430D01*
X022352Y029430D01*
X019281Y029430D01*
X014163Y029430D01*
X014163Y023430D01*
X019281Y023430D02*
X019281Y029430D01*
X019281Y022430D02*
X019281Y016430D01*
X017850Y037730D02*
X017250Y037730D01*
X017243Y037730D02*
X016450Y037730D01*
X015850Y037730D01*
X015650Y037930D01*
X015650Y038080D01*
X015650Y039780D01*
X015650Y039930D01*
X015850Y040130D01*
X016450Y040130D01*
X017255Y040130D01*
X017250Y040130D02*
X017850Y040130D01*
X018050Y039930D01*
X018050Y039780D01*
X018050Y038080D01*
X018050Y037930D01*
X017850Y037730D01*
X016150Y038930D02*
X016152Y038982D01*
X016158Y039034D01*
X016168Y039086D01*
X016181Y039136D01*
X016198Y039186D01*
X016219Y039234D01*
X016244Y039280D01*
X016272Y039324D01*
X016303Y039366D01*
X016337Y039406D01*
X016374Y039443D01*
X016414Y039477D01*
X016456Y039508D01*
X016500Y039536D01*
X016546Y039561D01*
X016594Y039582D01*
X016644Y039599D01*
X016694Y039612D01*
X016746Y039622D01*
X016798Y039628D01*
X016850Y039630D01*
X016902Y039628D01*
X016954Y039622D01*
X017006Y039612D01*
X017056Y039599D01*
X017106Y039582D01*
X017154Y039561D01*
X017200Y039536D01*
X017244Y039508D01*
X017286Y039477D01*
X017326Y039443D01*
X017363Y039406D01*
X017397Y039366D01*
X017428Y039324D01*
X017456Y039280D01*
X017481Y039234D01*
X017502Y039186D01*
X017519Y039136D01*
X017532Y039086D01*
X017542Y039034D01*
X017548Y038982D01*
X017550Y038930D01*
X017548Y038878D01*
X017542Y038826D01*
X017532Y038774D01*
X017519Y038724D01*
X017502Y038674D01*
X017481Y038626D01*
X017456Y038580D01*
X017428Y038536D01*
X017397Y038494D01*
X017363Y038454D01*
X017326Y038417D01*
X017286Y038383D01*
X017244Y038352D01*
X017200Y038324D01*
X017154Y038299D01*
X017106Y038278D01*
X017056Y038261D01*
X017006Y038248D01*
X016954Y038238D01*
X016902Y038232D01*
X016850Y038230D01*
X016798Y038232D01*
X016746Y038238D01*
X016694Y038248D01*
X016644Y038261D01*
X016594Y038278D01*
X016546Y038299D01*
X016500Y038324D01*
X016456Y038352D01*
X016414Y038383D01*
X016374Y038417D01*
X016337Y038454D01*
X016303Y038494D01*
X016272Y038536D01*
X016244Y038580D01*
X016219Y038626D01*
X016198Y038674D01*
X016181Y038724D01*
X016168Y038774D01*
X016158Y038826D01*
X016152Y038878D01*
X016150Y038930D01*
X016700Y039780D02*
X017050Y039930D01*
X017350Y039930D01*
X016650Y039930D02*
X016350Y039930D01*
D18*
X013700Y038480D02*
X013700Y038180D01*
X013700Y037880D01*
X013500Y037880D02*
X013500Y038180D01*
X013500Y038480D01*
X012100Y037680D02*
X009100Y037680D01*
X009100Y039430D01*
X012100Y039430D01*
X012100Y037680D01*
X012100Y039430D02*
X012100Y040180D01*
X009100Y040180D01*
X009100Y039430D01*
X008600Y039430D02*
X008600Y040180D01*
X006600Y040180D01*
X006600Y039430D01*
X008600Y039430D01*
X008600Y037680D01*
X006600Y037680D01*
X006600Y039430D01*
X006100Y039430D02*
X006100Y040180D01*
X004100Y040180D01*
X004100Y039430D01*
X006100Y039430D01*
X006100Y037680D01*
X004100Y037680D01*
X004100Y039430D01*
X004600Y028680D02*
X001600Y028680D01*
X001600Y027930D01*
X004600Y027930D01*
X004600Y026180D01*
X001600Y026180D01*
X001600Y027930D01*
X001600Y024930D02*
X001600Y024180D01*
X004600Y024180D01*
X004600Y022430D01*
X001600Y022430D01*
X001600Y024180D01*
X001600Y024930D02*
X004600Y024930D01*
X004600Y024180D01*
X005600Y024180D02*
X009600Y024180D01*
X009600Y022430D01*
X005600Y022430D01*
X005600Y024180D01*
X005600Y024930D01*
X009600Y024930D01*
X009600Y024180D01*
X009600Y026180D02*
X005600Y026180D01*
X005600Y027930D01*
X009600Y027930D01*
X009600Y026180D01*
X009600Y027930D02*
X009600Y028680D01*
X005600Y028680D01*
X005600Y027930D01*
X004600Y027930D02*
X004600Y028680D01*
X011500Y020730D02*
X011500Y020430D01*
X011500Y020130D01*
X011700Y020130D02*
X011700Y020430D01*
X011700Y020730D01*
X002720Y013180D02*
X002720Y012180D01*
X001419Y012261D02*
X001391Y012309D01*
X001367Y012358D01*
X001347Y012410D01*
X001330Y012462D01*
X001317Y012516D01*
X001308Y012570D01*
X001302Y012625D01*
X001300Y012680D01*
X001405Y012283D02*
X001435Y012235D01*
X001468Y012190D01*
X001504Y012147D01*
X001542Y012106D01*
X001584Y012069D01*
X001628Y012034D01*
X001674Y012003D01*
X001723Y011974D01*
X001773Y011950D01*
X001825Y011929D01*
X001879Y011911D01*
X001933Y011898D01*
X001988Y011888D01*
X002044Y011882D01*
X002100Y011880D01*
X001300Y012680D02*
X001302Y012736D01*
X001308Y012793D01*
X001318Y012848D01*
X001332Y012903D01*
X001349Y012956D01*
X001371Y013009D01*
X001396Y013059D01*
X002100Y013480D02*
X002154Y013478D01*
X002207Y013473D01*
X002261Y013464D01*
X002313Y013451D01*
X002364Y013435D01*
X002415Y013415D01*
X002464Y013393D01*
X002511Y013367D01*
X002556Y013337D01*
X002599Y013305D01*
X002640Y013270D01*
X002679Y013232D01*
X002715Y013192D01*
X002100Y013480D02*
X002046Y013478D01*
X001992Y013473D01*
X001939Y013464D01*
X001886Y013451D01*
X001835Y013435D01*
X001785Y013415D01*
X001736Y013392D01*
X001688Y013366D01*
X001643Y013337D01*
X001600Y013304D01*
X001559Y013269D01*
X001520Y013231D01*
X001484Y013191D01*
X001451Y013148D01*
X001421Y013103D01*
X001394Y013056D01*
X002100Y011880D02*
X002153Y011882D01*
X002207Y011887D01*
X002259Y011896D01*
X002311Y011908D01*
X002362Y011924D01*
X002412Y011943D01*
X002461Y011966D01*
X002508Y011992D01*
X002553Y012020D01*
X002596Y012052D01*
X002636Y012086D01*
X002675Y012124D01*
X002711Y012163D01*
X002720Y010930D02*
X002720Y009930D01*
X001419Y010011D02*
X001391Y010059D01*
X001367Y010108D01*
X001347Y010160D01*
X001330Y010212D01*
X001317Y010266D01*
X001308Y010320D01*
X001302Y010375D01*
X001300Y010430D01*
X001405Y010033D02*
X001435Y009985D01*
X001468Y009940D01*
X001504Y009897D01*
X001542Y009856D01*
X001584Y009819D01*
X001628Y009784D01*
X001674Y009753D01*
X001723Y009724D01*
X001773Y009700D01*
X001825Y009679D01*
X001879Y009661D01*
X001933Y009648D01*
X001988Y009638D01*
X002044Y009632D01*
X002100Y009630D01*
X001300Y010430D02*
X001302Y010486D01*
X001308Y010543D01*
X001318Y010598D01*
X001332Y010653D01*
X001349Y010706D01*
X001371Y010759D01*
X001396Y010809D01*
X002100Y011230D02*
X002154Y011228D01*
X002207Y011223D01*
X002261Y011214D01*
X002313Y011201D01*
X002364Y011185D01*
X002415Y011165D01*
X002464Y011143D01*
X002511Y011117D01*
X002556Y011087D01*
X002599Y011055D01*
X002640Y011020D01*
X002679Y010982D01*
X002715Y010942D01*
X002100Y011230D02*
X002046Y011228D01*
X001992Y011223D01*
X001939Y011214D01*
X001886Y011201D01*
X001835Y011185D01*
X001785Y011165D01*
X001736Y011142D01*
X001688Y011116D01*
X001643Y011087D01*
X001600Y011054D01*
X001559Y011019D01*
X001520Y010981D01*
X001484Y010941D01*
X001451Y010898D01*
X001421Y010853D01*
X001394Y010806D01*
X002100Y009630D02*
X002153Y009632D01*
X002207Y009637D01*
X002259Y009646D01*
X002311Y009658D01*
X002362Y009674D01*
X002412Y009693D01*
X002461Y009716D01*
X002508Y009742D01*
X002553Y009770D01*
X002596Y009802D01*
X002636Y009836D01*
X002675Y009874D01*
X002711Y009913D01*
D19*
X020400Y002130D03*
X020400Y001130D03*
X021400Y001130D03*
X021400Y002130D03*
X022400Y002130D03*
X022400Y001130D03*
X021500Y004180D03*
X020500Y004180D03*
D20*
X015305Y013130D02*
X015305Y013530D01*
X014765Y012530D02*
X014765Y012130D01*
X014225Y013130D02*
X014225Y013530D01*
X013685Y012530D02*
X013685Y012130D01*
X013145Y013130D02*
X013145Y013530D01*
X012605Y012530D02*
X012605Y012130D01*
X012065Y013130D02*
X012065Y013530D01*
X011525Y012530D02*
X011525Y012130D01*
X010985Y013130D02*
X010985Y013530D01*
X010445Y012530D02*
X010445Y012130D01*
X009905Y013130D02*
X009905Y013530D01*
X009365Y012530D02*
X009365Y012130D01*
X008825Y013130D02*
X008825Y013530D01*
X008285Y012530D02*
X008285Y012130D01*
X007745Y013130D02*
X007745Y013530D01*
D21*
X011550Y010230D03*
D22*
X011550Y008580D03*
D23*
X012065Y011805D03*
X013145Y011805D03*
X014225Y011805D03*
X015305Y011805D03*
X010985Y011805D03*
X009905Y011805D03*
X008825Y011805D03*
X007745Y011805D03*
D24*
X008285Y011305D03*
X009365Y011305D03*
X010445Y011305D03*
X011525Y011305D03*
X012605Y011305D03*
X013685Y011305D03*
X014765Y011305D03*
D25*
X010970Y017180D02*
X010970Y019180D01*
D26*
X010605Y018930D03*
X010605Y018430D03*
X010615Y017930D03*
X010605Y017430D03*
X012595Y017430D03*
X012595Y017930D03*
X012595Y018430D03*
X012595Y018930D03*
M02*
