%
M48
M72
T01C0.0120
T02C0.0320
T03C0.0394
T04C0.0400
T05C0.1260
T06C0.1300
%
T01
X12000Y19550
X16600Y17450
X18920Y20110
T02
X15070Y15420
X13070Y15420
X11840Y15440
X9840Y15440
X11100Y20430
X12100Y20430
X12600Y22430
X12600Y24430
X12600Y26430
X12600Y28430
X12600Y30430
X11600Y30430
X10600Y30430
X9600Y30430
X8600Y30430
X7600Y30430
X6600Y30430
X5600Y30430
X4600Y30430
X3600Y30430
X2600Y30430
X2600Y36430
X3600Y36430
X4600Y36430
X5600Y36430
X6600Y36430
X7600Y36430
X8600Y36430
X9600Y36430
X10600Y36430
X11600Y36430
X12600Y36430
X13600Y36430
X14600Y36430
X15600Y36430
X16600Y36430
X17600Y36430
X18600Y36430
X19600Y36430
X20600Y36430
X21600Y36430
X21600Y30430
X20600Y30430
X19600Y30430
X18600Y30430
X17600Y30430
X16600Y30430
X15600Y30430
X14600Y30430
X13600Y30430
X10600Y28430
X10600Y26430
X10600Y24430
X10600Y22430
X3100Y14430
X2600Y12680
X1600Y12680
X1100Y14430
X1600Y10430
X2600Y10430
X3100Y8680
X1100Y8680
X13100Y38180
X14100Y38180
X14600Y39680
X12600Y39680
T03
X11600Y38930
X10600Y38930
X9600Y38930
X8100Y38930
X7100Y38930
X5600Y38930
X4600Y38930
X4100Y27430
X3100Y27430
X2100Y27430
X2100Y23680
X3100Y23680
X4100Y23680
X6100Y23680
X7100Y23680
X8100Y23680
X9100Y23680
X7600Y20180
X7600Y19180
X7600Y18180
X7600Y17180
X8600Y16680
X8600Y17680
X8600Y18680
X8600Y19680
X8100Y27430
X7100Y27430
X6100Y27430
X9100Y27430
X14600Y27180
X14600Y28180
X15600Y27680
X15600Y26680
X15600Y25680
X15600Y24680
X14600Y25180
X14600Y26180
X14600Y21180
X14600Y20180
X14600Y19180
X14600Y18180
X15600Y17680
X15600Y18680
X15600Y19680
X15600Y20680
T04
X15305Y13580
X14765Y12580
X14225Y13580
X13685Y12580
X13145Y13580
X12605Y12580
X12065Y13580
X11525Y12580
X10985Y13580
X10445Y12580
X9905Y13580
X9365Y12580
X8825Y13580
X8285Y12580
X7745Y13580
X20400Y2130
X20400Y1130
X21400Y1130
X21400Y2130
X22400Y2130
X22400Y1130
X21500Y4180
X20500Y4180
X17740Y37650
X17740Y40210
X15960Y40210
X15960Y37650
T05
X18100Y28680
X18100Y24180
X18100Y21680
X18100Y17180
X5100Y16180
X5100Y20680
T06
X2350Y6180
X4965Y13080
X18085Y13080
X20700Y6180
X20700Y39430
X2350Y39430
M30
