G75*
G70*
%OFA0B0*%
%FSLAX24Y24*%
%IPPOS*%
%LPD*%
%AMOC8*
5,1,8,0,0,1.08239X$1,22.5*
%
%ADD10C,0.0740*%
%ADD11R,0.0740X0.0740*%
%ADD12OC8,0.0600*%
%ADD13OC8,0.0520*%
%ADD14C,0.0120*%
%ADD15C,0.0060*%
%ADD16C,0.0280*%
D10*
X009050Y009500D03*
X009550Y008500D03*
X010550Y008500D03*
X011550Y008500D03*
X011050Y009500D03*
X010050Y009500D03*
X012050Y009500D03*
X015550Y009500D03*
X016550Y009500D03*
X016050Y008500D03*
X017050Y008500D03*
X018050Y008500D03*
X017550Y009500D03*
X018550Y009500D03*
X014100Y016200D03*
X014100Y017200D03*
X014150Y020700D03*
X013650Y021700D03*
X013150Y020700D03*
X014650Y021700D03*
X015150Y020700D03*
X015650Y021700D03*
X016150Y020700D03*
D11*
X008550Y008500D03*
X015050Y008500D03*
X016650Y021700D03*
D12*
X011900Y012500D03*
X011900Y011500D03*
X010900Y011500D03*
X010900Y012500D03*
X009900Y012500D03*
X009900Y011500D03*
X008600Y023600D03*
X008600Y024600D03*
X007600Y024600D03*
X007600Y023600D03*
X006600Y023600D03*
X006600Y024600D03*
X005600Y024600D03*
X005600Y023600D03*
X004600Y023600D03*
X004600Y024600D03*
X003600Y024600D03*
X003600Y023600D03*
X002600Y023600D03*
X002600Y024600D03*
X001600Y024600D03*
X001600Y023600D03*
D13*
X008600Y016900D03*
X008600Y015900D03*
X014200Y012500D03*
X014200Y011500D03*
X015450Y012000D03*
X016200Y011500D03*
X016200Y012500D03*
X017900Y012500D03*
X017900Y011500D03*
X019600Y012600D03*
X020100Y014100D03*
X021100Y014100D03*
X021600Y012600D03*
X021100Y016200D03*
X020100Y016200D03*
X019600Y017700D03*
X021600Y017700D03*
X017600Y017900D03*
X017600Y018900D03*
X015600Y018900D03*
X015600Y017900D03*
X015600Y014400D03*
X017600Y014400D03*
D14*
X017560Y014820D02*
X016020Y014820D01*
X015640Y014440D01*
X015600Y014400D01*
X015600Y012420D01*
X015640Y012420D01*
X015880Y012180D01*
X015880Y011540D01*
X015880Y011500D01*
X014200Y011500D01*
X014160Y011500D01*
X011900Y011500D01*
X011860Y011540D01*
X011440Y011960D01*
X009440Y011960D01*
X009440Y015060D01*
X008600Y015900D01*
X009300Y016200D02*
X008600Y016900D01*
X009300Y016200D02*
X014100Y016200D01*
X014200Y012500D02*
X014940Y012500D01*
X015440Y012000D01*
X015450Y012000D01*
X015880Y011500D02*
X016200Y011500D01*
X016620Y010680D02*
X016620Y012460D01*
X016620Y012500D01*
X016200Y012500D01*
X016620Y012500D02*
X017900Y012500D01*
X017900Y011900D02*
X017900Y011500D01*
X017900Y011900D02*
X020100Y014100D01*
X017560Y014820D02*
X017560Y017860D01*
X017600Y017900D01*
X019400Y017900D01*
X019600Y017700D01*
X016150Y020700D02*
X016140Y020700D01*
X015680Y021160D01*
X015440Y021160D01*
X014900Y021700D01*
X014660Y021700D01*
X014650Y021700D01*
X014360Y021240D02*
X014900Y020700D01*
X015140Y020700D01*
X015150Y020700D01*
X014360Y021240D02*
X014120Y021240D01*
X013660Y021700D01*
X013650Y021700D01*
X016620Y010680D02*
X016020Y010080D01*
X015980Y010040D01*
X016500Y009520D01*
X016550Y009500D01*
X016560Y009500D01*
X017020Y009040D01*
X017260Y009040D01*
X017800Y008500D01*
X018040Y008500D01*
X018050Y008500D01*
X017050Y008500D02*
X017040Y008500D01*
X016800Y008500D01*
X016260Y009040D01*
X016020Y009040D01*
X015560Y009500D01*
X015550Y009500D01*
X015500Y009500D01*
X012060Y009500D01*
X012050Y009500D01*
X011550Y008500D02*
X011540Y008500D01*
X011300Y008500D01*
X010760Y009040D01*
X010520Y009040D01*
X010060Y009500D01*
X010050Y009500D01*
X010220Y009420D01*
X010840Y010040D01*
X015980Y010040D01*
X010550Y008500D02*
X010540Y008500D01*
X010300Y008500D01*
X009760Y009040D01*
X009520Y009040D01*
X009060Y009500D01*
X009050Y009500D01*
D15*
X008560Y008500D02*
X008550Y008500D01*
X008560Y008500D02*
X009060Y008000D01*
X014540Y008000D01*
X015040Y008500D01*
X015050Y008500D01*
X010980Y013580D02*
X010980Y015920D01*
X011300Y016480D02*
X010680Y017100D01*
X010360Y017100D01*
X007500Y019960D01*
X008140Y020440D02*
X006900Y021680D01*
X006080Y021680D01*
X005360Y022400D01*
X006280Y022660D02*
X004340Y022660D01*
X005600Y023600D02*
X006160Y023040D01*
X009540Y023040D01*
X009640Y023300D02*
X008920Y023300D01*
X008780Y023160D01*
X008040Y023160D01*
X007600Y023600D01*
X008040Y024160D02*
X007600Y024600D01*
X008040Y024160D02*
X009600Y024160D01*
X011920Y021840D01*
X012500Y021800D02*
X009700Y024600D01*
X008600Y024600D01*
X008600Y023600D02*
X009700Y023600D01*
X012240Y021060D01*
X012640Y021580D02*
X012640Y020500D01*
X012820Y020320D01*
X012820Y019560D01*
X012660Y019400D01*
X011360Y019400D01*
X011360Y018260D01*
X010720Y017620D01*
X010460Y017360D02*
X010460Y021580D01*
X007360Y021580D01*
X006280Y022660D01*
X006600Y023600D02*
X007040Y024040D01*
X009360Y024040D01*
X009540Y023860D01*
X009640Y023300D02*
X010660Y022280D01*
X011240Y023240D02*
X008680Y025800D01*
X003800Y025800D01*
X002600Y024600D01*
X001600Y023600D02*
X002280Y022920D01*
X009300Y022920D01*
X012560Y019660D01*
X011620Y018900D02*
X015600Y018900D01*
X015600Y017900D02*
X012180Y017900D01*
X011900Y017620D01*
X011420Y017620D02*
X012340Y016700D01*
X017200Y016700D01*
X016660Y016960D02*
X016080Y016960D01*
X016660Y016960D02*
X016660Y021700D01*
X016650Y021700D01*
X012760Y021700D02*
X012760Y023240D01*
X011240Y023240D01*
X012760Y021700D02*
X012640Y021580D01*
X007040Y025540D02*
X006540Y025040D01*
X006040Y025040D01*
X005600Y024600D01*
X010980Y013580D02*
X009900Y012500D01*
D16*
X010980Y015920D03*
X011300Y016480D03*
X010460Y017360D03*
X010720Y017620D03*
X011420Y017620D03*
X011900Y017620D03*
X011620Y018900D03*
X012560Y019660D03*
X012240Y021060D03*
X012500Y021800D03*
X011920Y021840D03*
X010660Y022280D03*
X009540Y023040D03*
X009540Y023860D03*
X007040Y025540D03*
X005360Y022400D03*
X004340Y022660D03*
X007500Y019960D03*
X008140Y020440D03*
X016080Y016960D03*
X017200Y016700D03*
M02*
