G75*
G70*
%OFA0B0*%
%FSLAX24Y24*%
%IPPOS*%
%LPD*%
%AMOC8*
5,1,8,0,0,1.08239X$1,22.5*
%
%ADD10C,0.0000*%
%ADD11C,0.0060*%
%ADD12C,0.0030*%
%ADD13C,0.0040*%
%ADD14R,0.0390X0.0180*%
%ADD15R,0.0180X0.0390*%
%ADD16C,0.0080*%
%ADD17C,0.0050*%
%ADD18R,0.0200X0.0200*%
%ADD19C,0.0200*%
%ADD20R,0.0100X0.0200*%
%ADD21C,0.0100*%
%ADD22C,0.0020*%
%ADD23R,0.0450X0.0200*%
D10*
X000100Y000100D02*
X000100Y003100D01*
X006900Y003100D01*
X006900Y021200D01*
X000100Y021200D01*
X000100Y028600D01*
X018300Y028600D01*
X018300Y019700D01*
X022600Y019700D01*
X022600Y000100D01*
X000100Y000100D01*
X001200Y001600D02*
X002000Y001600D01*
X000950Y001600D02*
X000952Y001650D01*
X000958Y001700D01*
X000968Y001750D01*
X000981Y001798D01*
X000998Y001846D01*
X001019Y001892D01*
X001043Y001936D01*
X001071Y001978D01*
X001102Y002018D01*
X001136Y002055D01*
X001173Y002090D01*
X001212Y002121D01*
X001253Y002150D01*
X001297Y002175D01*
X001343Y002197D01*
X001390Y002215D01*
X001438Y002229D01*
X001487Y002240D01*
X001537Y002247D01*
X001587Y002250D01*
X001638Y002249D01*
X001688Y002244D01*
X001738Y002235D01*
X001786Y002223D01*
X001834Y002206D01*
X001880Y002186D01*
X001925Y002163D01*
X001968Y002136D01*
X002008Y002106D01*
X002046Y002073D01*
X002081Y002037D01*
X002114Y001998D01*
X002143Y001957D01*
X002169Y001914D01*
X002192Y001869D01*
X002211Y001822D01*
X002226Y001774D01*
X002238Y001725D01*
X002246Y001675D01*
X002250Y001625D01*
X002250Y001575D01*
X002246Y001525D01*
X002238Y001475D01*
X002226Y001426D01*
X002211Y001378D01*
X002192Y001331D01*
X002169Y001286D01*
X002143Y001243D01*
X002114Y001202D01*
X002081Y001163D01*
X002046Y001127D01*
X002008Y001094D01*
X001968Y001064D01*
X001925Y001037D01*
X001880Y001014D01*
X001834Y000994D01*
X001786Y000977D01*
X001738Y000965D01*
X001688Y000956D01*
X001638Y000951D01*
X001587Y000950D01*
X001537Y000953D01*
X001487Y000960D01*
X001438Y000971D01*
X001390Y000985D01*
X001343Y001003D01*
X001297Y001025D01*
X001253Y001050D01*
X001212Y001079D01*
X001173Y001110D01*
X001136Y001145D01*
X001102Y001182D01*
X001071Y001222D01*
X001043Y001264D01*
X001019Y001308D01*
X000998Y001354D01*
X000981Y001402D01*
X000968Y001450D01*
X000958Y001500D01*
X000952Y001550D01*
X000950Y001600D01*
X001600Y001200D02*
X001600Y002000D01*
X007420Y006000D02*
X007422Y006050D01*
X007428Y006100D01*
X007438Y006149D01*
X007452Y006197D01*
X007469Y006244D01*
X007490Y006289D01*
X007515Y006333D01*
X007543Y006374D01*
X007575Y006413D01*
X007609Y006450D01*
X007646Y006484D01*
X007686Y006514D01*
X007728Y006541D01*
X007772Y006565D01*
X007818Y006586D01*
X007865Y006602D01*
X007913Y006615D01*
X007963Y006624D01*
X008012Y006629D01*
X008063Y006630D01*
X008113Y006627D01*
X008162Y006620D01*
X008211Y006609D01*
X008259Y006594D01*
X008305Y006576D01*
X008350Y006554D01*
X008393Y006528D01*
X008434Y006499D01*
X008473Y006467D01*
X008509Y006432D01*
X008541Y006394D01*
X008571Y006354D01*
X008598Y006311D01*
X008621Y006267D01*
X008640Y006221D01*
X008656Y006173D01*
X008668Y006124D01*
X008676Y006075D01*
X008680Y006025D01*
X008680Y005975D01*
X008676Y005925D01*
X008668Y005876D01*
X008656Y005827D01*
X008640Y005779D01*
X008621Y005733D01*
X008598Y005689D01*
X008571Y005646D01*
X008541Y005606D01*
X008509Y005568D01*
X008473Y005533D01*
X008434Y005501D01*
X008393Y005472D01*
X008350Y005446D01*
X008305Y005424D01*
X008259Y005406D01*
X008211Y005391D01*
X008162Y005380D01*
X008113Y005373D01*
X008063Y005370D01*
X008012Y005371D01*
X007963Y005376D01*
X007913Y005385D01*
X007865Y005398D01*
X007818Y005414D01*
X007772Y005435D01*
X007728Y005459D01*
X007686Y005486D01*
X007646Y005516D01*
X007609Y005550D01*
X007575Y005587D01*
X007543Y005626D01*
X007515Y005667D01*
X007490Y005711D01*
X007469Y005756D01*
X007452Y005803D01*
X007438Y005851D01*
X007428Y005900D01*
X007422Y005950D01*
X007420Y006000D01*
X009900Y006000D02*
X010700Y006000D01*
X010300Y005600D02*
X010300Y006400D01*
X011920Y006000D02*
X011922Y006050D01*
X011928Y006100D01*
X011938Y006149D01*
X011952Y006197D01*
X011969Y006244D01*
X011990Y006289D01*
X012015Y006333D01*
X012043Y006374D01*
X012075Y006413D01*
X012109Y006450D01*
X012146Y006484D01*
X012186Y006514D01*
X012228Y006541D01*
X012272Y006565D01*
X012318Y006586D01*
X012365Y006602D01*
X012413Y006615D01*
X012463Y006624D01*
X012512Y006629D01*
X012563Y006630D01*
X012613Y006627D01*
X012662Y006620D01*
X012711Y006609D01*
X012759Y006594D01*
X012805Y006576D01*
X012850Y006554D01*
X012893Y006528D01*
X012934Y006499D01*
X012973Y006467D01*
X013009Y006432D01*
X013041Y006394D01*
X013071Y006354D01*
X013098Y006311D01*
X013121Y006267D01*
X013140Y006221D01*
X013156Y006173D01*
X013168Y006124D01*
X013176Y006075D01*
X013180Y006025D01*
X013180Y005975D01*
X013176Y005925D01*
X013168Y005876D01*
X013156Y005827D01*
X013140Y005779D01*
X013121Y005733D01*
X013098Y005689D01*
X013071Y005646D01*
X013041Y005606D01*
X013009Y005568D01*
X012973Y005533D01*
X012934Y005501D01*
X012893Y005472D01*
X012850Y005446D01*
X012805Y005424D01*
X012759Y005406D01*
X012711Y005391D01*
X012662Y005380D01*
X012613Y005373D01*
X012563Y005370D01*
X012512Y005371D01*
X012463Y005376D01*
X012413Y005385D01*
X012365Y005398D01*
X012318Y005414D01*
X012272Y005435D01*
X012228Y005459D01*
X012186Y005486D01*
X012146Y005516D01*
X012109Y005550D01*
X012075Y005587D01*
X012043Y005626D01*
X012015Y005667D01*
X011990Y005711D01*
X011969Y005756D01*
X011952Y005803D01*
X011938Y005851D01*
X011928Y005900D01*
X011922Y005950D01*
X011920Y006000D01*
X013920Y006000D02*
X013922Y006050D01*
X013928Y006100D01*
X013938Y006149D01*
X013952Y006197D01*
X013969Y006244D01*
X013990Y006289D01*
X014015Y006333D01*
X014043Y006374D01*
X014075Y006413D01*
X014109Y006450D01*
X014146Y006484D01*
X014186Y006514D01*
X014228Y006541D01*
X014272Y006565D01*
X014318Y006586D01*
X014365Y006602D01*
X014413Y006615D01*
X014463Y006624D01*
X014512Y006629D01*
X014563Y006630D01*
X014613Y006627D01*
X014662Y006620D01*
X014711Y006609D01*
X014759Y006594D01*
X014805Y006576D01*
X014850Y006554D01*
X014893Y006528D01*
X014934Y006499D01*
X014973Y006467D01*
X015009Y006432D01*
X015041Y006394D01*
X015071Y006354D01*
X015098Y006311D01*
X015121Y006267D01*
X015140Y006221D01*
X015156Y006173D01*
X015168Y006124D01*
X015176Y006075D01*
X015180Y006025D01*
X015180Y005975D01*
X015176Y005925D01*
X015168Y005876D01*
X015156Y005827D01*
X015140Y005779D01*
X015121Y005733D01*
X015098Y005689D01*
X015071Y005646D01*
X015041Y005606D01*
X015009Y005568D01*
X014973Y005533D01*
X014934Y005501D01*
X014893Y005472D01*
X014850Y005446D01*
X014805Y005424D01*
X014759Y005406D01*
X014711Y005391D01*
X014662Y005380D01*
X014613Y005373D01*
X014563Y005370D01*
X014512Y005371D01*
X014463Y005376D01*
X014413Y005385D01*
X014365Y005398D01*
X014318Y005414D01*
X014272Y005435D01*
X014228Y005459D01*
X014186Y005486D01*
X014146Y005516D01*
X014109Y005550D01*
X014075Y005587D01*
X014043Y005626D01*
X014015Y005667D01*
X013990Y005711D01*
X013969Y005756D01*
X013952Y005803D01*
X013938Y005851D01*
X013928Y005900D01*
X013922Y005950D01*
X013920Y006000D01*
X016400Y006000D02*
X017200Y006000D01*
X016800Y005600D02*
X016800Y006400D01*
X018420Y006000D02*
X018422Y006050D01*
X018428Y006100D01*
X018438Y006149D01*
X018452Y006197D01*
X018469Y006244D01*
X018490Y006289D01*
X018515Y006333D01*
X018543Y006374D01*
X018575Y006413D01*
X018609Y006450D01*
X018646Y006484D01*
X018686Y006514D01*
X018728Y006541D01*
X018772Y006565D01*
X018818Y006586D01*
X018865Y006602D01*
X018913Y006615D01*
X018963Y006624D01*
X019012Y006629D01*
X019063Y006630D01*
X019113Y006627D01*
X019162Y006620D01*
X019211Y006609D01*
X019259Y006594D01*
X019305Y006576D01*
X019350Y006554D01*
X019393Y006528D01*
X019434Y006499D01*
X019473Y006467D01*
X019509Y006432D01*
X019541Y006394D01*
X019571Y006354D01*
X019598Y006311D01*
X019621Y006267D01*
X019640Y006221D01*
X019656Y006173D01*
X019668Y006124D01*
X019676Y006075D01*
X019680Y006025D01*
X019680Y005975D01*
X019676Y005925D01*
X019668Y005876D01*
X019656Y005827D01*
X019640Y005779D01*
X019621Y005733D01*
X019598Y005689D01*
X019571Y005646D01*
X019541Y005606D01*
X019509Y005568D01*
X019473Y005533D01*
X019434Y005501D01*
X019393Y005472D01*
X019350Y005446D01*
X019305Y005424D01*
X019259Y005406D01*
X019211Y005391D01*
X019162Y005380D01*
X019113Y005373D01*
X019063Y005370D01*
X019012Y005371D01*
X018963Y005376D01*
X018913Y005385D01*
X018865Y005398D01*
X018818Y005414D01*
X018772Y005435D01*
X018728Y005459D01*
X018686Y005486D01*
X018646Y005516D01*
X018609Y005550D01*
X018575Y005587D01*
X018543Y005626D01*
X018515Y005667D01*
X018490Y005711D01*
X018469Y005756D01*
X018452Y005803D01*
X018438Y005851D01*
X018428Y005900D01*
X018422Y005950D01*
X018420Y006000D01*
X021100Y002000D02*
X021100Y001200D01*
X020450Y001600D02*
X020452Y001650D01*
X020458Y001700D01*
X020468Y001750D01*
X020481Y001798D01*
X020498Y001846D01*
X020519Y001892D01*
X020543Y001936D01*
X020571Y001978D01*
X020602Y002018D01*
X020636Y002055D01*
X020673Y002090D01*
X020712Y002121D01*
X020753Y002150D01*
X020797Y002175D01*
X020843Y002197D01*
X020890Y002215D01*
X020938Y002229D01*
X020987Y002240D01*
X021037Y002247D01*
X021087Y002250D01*
X021138Y002249D01*
X021188Y002244D01*
X021238Y002235D01*
X021286Y002223D01*
X021334Y002206D01*
X021380Y002186D01*
X021425Y002163D01*
X021468Y002136D01*
X021508Y002106D01*
X021546Y002073D01*
X021581Y002037D01*
X021614Y001998D01*
X021643Y001957D01*
X021669Y001914D01*
X021692Y001869D01*
X021711Y001822D01*
X021726Y001774D01*
X021738Y001725D01*
X021746Y001675D01*
X021750Y001625D01*
X021750Y001575D01*
X021746Y001525D01*
X021738Y001475D01*
X021726Y001426D01*
X021711Y001378D01*
X021692Y001331D01*
X021669Y001286D01*
X021643Y001243D01*
X021614Y001202D01*
X021581Y001163D01*
X021546Y001127D01*
X021508Y001094D01*
X021468Y001064D01*
X021425Y001037D01*
X021380Y001014D01*
X021334Y000994D01*
X021286Y000977D01*
X021238Y000965D01*
X021188Y000956D01*
X021138Y000951D01*
X021087Y000950D01*
X021037Y000953D01*
X020987Y000960D01*
X020938Y000971D01*
X020890Y000985D01*
X020843Y001003D01*
X020797Y001025D01*
X020753Y001050D01*
X020712Y001079D01*
X020673Y001110D01*
X020636Y001145D01*
X020602Y001182D01*
X020571Y001222D01*
X020543Y001264D01*
X020519Y001308D01*
X020498Y001354D01*
X020481Y001402D01*
X020468Y001450D01*
X020458Y001500D01*
X020452Y001550D01*
X020450Y001600D01*
X020700Y001600D02*
X021500Y001600D01*
X017900Y011600D02*
X017900Y012400D01*
X017500Y012000D02*
X018300Y012000D01*
X016600Y012000D02*
X015800Y012000D01*
X016200Y011600D02*
X016200Y012400D01*
X016600Y014000D02*
X016600Y014800D01*
X016200Y014400D02*
X017000Y014400D01*
X016600Y015800D02*
X016600Y016600D01*
X016200Y016200D02*
X017000Y016200D01*
X016600Y017630D02*
X016600Y018170D01*
X016330Y017900D02*
X016870Y017900D01*
X016600Y018630D02*
X016600Y019170D01*
X016330Y018900D02*
X016870Y018900D01*
X014500Y016200D02*
X013700Y016200D01*
X014100Y015800D02*
X014100Y016600D01*
X011600Y016400D02*
X010800Y016400D01*
X011200Y016000D02*
X011200Y016800D01*
X009000Y016400D02*
X008200Y016400D01*
X008600Y016000D02*
X008600Y016800D01*
X010900Y012400D02*
X010900Y011600D01*
X010500Y012000D02*
X011300Y012000D01*
X013800Y012000D02*
X014600Y012000D01*
X014200Y011600D02*
X014200Y012400D01*
X020200Y012600D02*
X021000Y012600D01*
X020600Y012200D02*
X020600Y013000D01*
X020600Y013700D02*
X020600Y014500D01*
X020200Y014100D02*
X021000Y014100D01*
X020600Y015800D02*
X020600Y016600D01*
X020200Y016200D02*
X021000Y016200D01*
X020600Y017300D02*
X020600Y018100D01*
X020200Y017700D02*
X021000Y017700D01*
X016520Y024200D02*
X016522Y024250D01*
X016528Y024300D01*
X016538Y024349D01*
X016552Y024397D01*
X016569Y024444D01*
X016590Y024489D01*
X016615Y024533D01*
X016643Y024574D01*
X016675Y024613D01*
X016709Y024650D01*
X016746Y024684D01*
X016786Y024714D01*
X016828Y024741D01*
X016872Y024765D01*
X016918Y024786D01*
X016965Y024802D01*
X017013Y024815D01*
X017063Y024824D01*
X017112Y024829D01*
X017163Y024830D01*
X017213Y024827D01*
X017262Y024820D01*
X017311Y024809D01*
X017359Y024794D01*
X017405Y024776D01*
X017450Y024754D01*
X017493Y024728D01*
X017534Y024699D01*
X017573Y024667D01*
X017609Y024632D01*
X017641Y024594D01*
X017671Y024554D01*
X017698Y024511D01*
X017721Y024467D01*
X017740Y024421D01*
X017756Y024373D01*
X017768Y024324D01*
X017776Y024275D01*
X017780Y024225D01*
X017780Y024175D01*
X017776Y024125D01*
X017768Y024076D01*
X017756Y024027D01*
X017740Y023979D01*
X017721Y023933D01*
X017698Y023889D01*
X017671Y023846D01*
X017641Y023806D01*
X017609Y023768D01*
X017573Y023733D01*
X017534Y023701D01*
X017493Y023672D01*
X017450Y023646D01*
X017405Y023624D01*
X017359Y023606D01*
X017311Y023591D01*
X017262Y023580D01*
X017213Y023573D01*
X017163Y023570D01*
X017112Y023571D01*
X017063Y023576D01*
X017013Y023585D01*
X016965Y023598D01*
X016918Y023614D01*
X016872Y023635D01*
X016828Y023659D01*
X016786Y023686D01*
X016746Y023716D01*
X016709Y023750D01*
X016675Y023787D01*
X016643Y023826D01*
X016615Y023867D01*
X016590Y023911D01*
X016569Y023956D01*
X016552Y024003D01*
X016538Y024051D01*
X016528Y024100D01*
X016522Y024150D01*
X016520Y024200D01*
X015300Y024200D02*
X014500Y024200D01*
X014900Y023800D02*
X014900Y024600D01*
X012020Y024200D02*
X012022Y024250D01*
X012028Y024300D01*
X012038Y024349D01*
X012052Y024397D01*
X012069Y024444D01*
X012090Y024489D01*
X012115Y024533D01*
X012143Y024574D01*
X012175Y024613D01*
X012209Y024650D01*
X012246Y024684D01*
X012286Y024714D01*
X012328Y024741D01*
X012372Y024765D01*
X012418Y024786D01*
X012465Y024802D01*
X012513Y024815D01*
X012563Y024824D01*
X012612Y024829D01*
X012663Y024830D01*
X012713Y024827D01*
X012762Y024820D01*
X012811Y024809D01*
X012859Y024794D01*
X012905Y024776D01*
X012950Y024754D01*
X012993Y024728D01*
X013034Y024699D01*
X013073Y024667D01*
X013109Y024632D01*
X013141Y024594D01*
X013171Y024554D01*
X013198Y024511D01*
X013221Y024467D01*
X013240Y024421D01*
X013256Y024373D01*
X013268Y024324D01*
X013276Y024275D01*
X013280Y024225D01*
X013280Y024175D01*
X013276Y024125D01*
X013268Y024076D01*
X013256Y024027D01*
X013240Y023979D01*
X013221Y023933D01*
X013198Y023889D01*
X013171Y023846D01*
X013141Y023806D01*
X013109Y023768D01*
X013073Y023733D01*
X013034Y023701D01*
X012993Y023672D01*
X012950Y023646D01*
X012905Y023624D01*
X012859Y023606D01*
X012811Y023591D01*
X012762Y023580D01*
X012713Y023573D01*
X012663Y023570D01*
X012612Y023571D01*
X012563Y023576D01*
X012513Y023585D01*
X012465Y023598D01*
X012418Y023614D01*
X012372Y023635D01*
X012328Y023659D01*
X012286Y023686D01*
X012246Y023716D01*
X012209Y023750D01*
X012175Y023787D01*
X012143Y023826D01*
X012115Y023867D01*
X012090Y023911D01*
X012069Y023956D01*
X012052Y024003D01*
X012038Y024051D01*
X012028Y024100D01*
X012022Y024150D01*
X012020Y024200D01*
X005500Y024100D02*
X004700Y024100D01*
X005100Y023700D02*
X005100Y024500D01*
X002000Y027100D02*
X001200Y027100D01*
X000950Y027100D02*
X000952Y027150D01*
X000958Y027200D01*
X000968Y027250D01*
X000981Y027298D01*
X000998Y027346D01*
X001019Y027392D01*
X001043Y027436D01*
X001071Y027478D01*
X001102Y027518D01*
X001136Y027555D01*
X001173Y027590D01*
X001212Y027621D01*
X001253Y027650D01*
X001297Y027675D01*
X001343Y027697D01*
X001390Y027715D01*
X001438Y027729D01*
X001487Y027740D01*
X001537Y027747D01*
X001587Y027750D01*
X001638Y027749D01*
X001688Y027744D01*
X001738Y027735D01*
X001786Y027723D01*
X001834Y027706D01*
X001880Y027686D01*
X001925Y027663D01*
X001968Y027636D01*
X002008Y027606D01*
X002046Y027573D01*
X002081Y027537D01*
X002114Y027498D01*
X002143Y027457D01*
X002169Y027414D01*
X002192Y027369D01*
X002211Y027322D01*
X002226Y027274D01*
X002238Y027225D01*
X002246Y027175D01*
X002250Y027125D01*
X002250Y027075D01*
X002246Y027025D01*
X002238Y026975D01*
X002226Y026926D01*
X002211Y026878D01*
X002192Y026831D01*
X002169Y026786D01*
X002143Y026743D01*
X002114Y026702D01*
X002081Y026663D01*
X002046Y026627D01*
X002008Y026594D01*
X001968Y026564D01*
X001925Y026537D01*
X001880Y026514D01*
X001834Y026494D01*
X001786Y026477D01*
X001738Y026465D01*
X001688Y026456D01*
X001638Y026451D01*
X001587Y026450D01*
X001537Y026453D01*
X001487Y026460D01*
X001438Y026471D01*
X001390Y026485D01*
X001343Y026503D01*
X001297Y026525D01*
X001253Y026550D01*
X001212Y026579D01*
X001173Y026610D01*
X001136Y026645D01*
X001102Y026682D01*
X001071Y026722D01*
X001043Y026764D01*
X001019Y026808D01*
X000998Y026854D01*
X000981Y026902D01*
X000968Y026950D01*
X000958Y027000D01*
X000952Y027050D01*
X000950Y027100D01*
X001600Y026700D02*
X001600Y027500D01*
D11*
X001850Y025100D02*
X001350Y025100D01*
X001100Y024850D01*
X001100Y023350D01*
X001350Y023100D01*
X001850Y023100D01*
X002100Y023350D01*
X002100Y024850D01*
X001850Y025100D01*
X002100Y024850D02*
X002350Y025100D01*
X002850Y025100D01*
X003100Y024850D01*
X003100Y023350D01*
X002850Y023100D01*
X002350Y023100D01*
X002100Y023350D01*
X003100Y023350D02*
X003350Y023100D01*
X003850Y023100D01*
X004100Y023350D01*
X004100Y024850D01*
X003850Y025100D01*
X003350Y025100D01*
X003100Y024850D01*
X004100Y024850D02*
X004350Y025100D01*
X004850Y025100D01*
X005100Y024850D01*
X005100Y023350D01*
X004850Y023100D01*
X004350Y023100D01*
X004100Y023350D01*
X005100Y023350D02*
X005350Y023100D01*
X005850Y023100D01*
X006100Y023350D01*
X006100Y024850D01*
X005850Y025100D01*
X005350Y025100D01*
X005100Y024850D01*
X006100Y024850D02*
X006350Y025100D01*
X006850Y025100D01*
X007100Y024850D01*
X007100Y023350D01*
X006850Y023100D01*
X006350Y023100D01*
X006100Y023350D01*
X007100Y023350D02*
X007350Y023100D01*
X007850Y023100D01*
X008100Y023350D01*
X008100Y024850D01*
X007850Y025100D01*
X007350Y025100D01*
X007100Y024850D01*
X008100Y024850D02*
X008350Y025100D01*
X008850Y025100D01*
X009100Y024850D01*
X009100Y023350D01*
X008850Y023100D01*
X008350Y023100D01*
X008100Y023350D01*
X008930Y025230D02*
X009357Y025230D01*
X009144Y025230D02*
X009144Y025871D01*
X008930Y025657D01*
X009960Y017780D02*
X009820Y017640D01*
X009820Y015020D01*
X012580Y015020D01*
X012580Y017780D01*
X009960Y017780D01*
X009979Y017480D02*
X009981Y017503D01*
X009987Y017526D01*
X009996Y017547D01*
X010009Y017567D01*
X010025Y017584D01*
X010043Y017598D01*
X010063Y017609D01*
X010085Y017617D01*
X010108Y017621D01*
X010132Y017621D01*
X010155Y017617D01*
X010177Y017609D01*
X010197Y017598D01*
X010215Y017584D01*
X010231Y017567D01*
X010244Y017547D01*
X010253Y017526D01*
X010259Y017503D01*
X010261Y017480D01*
X010259Y017457D01*
X010253Y017434D01*
X010244Y017413D01*
X010231Y017393D01*
X010215Y017376D01*
X010197Y017362D01*
X010177Y017351D01*
X010155Y017343D01*
X010132Y017339D01*
X010108Y017339D01*
X010085Y017343D01*
X010063Y017351D01*
X010043Y017362D01*
X010025Y017376D01*
X010009Y017393D01*
X009996Y017413D01*
X009987Y017434D01*
X009981Y017457D01*
X009979Y017480D01*
X009100Y017250D02*
X009100Y015550D01*
X009098Y015533D01*
X009094Y015516D01*
X009087Y015500D01*
X009077Y015486D01*
X009064Y015473D01*
X009050Y015463D01*
X009034Y015456D01*
X009017Y015452D01*
X009000Y015450D01*
X008200Y015450D01*
X008183Y015452D01*
X008166Y015456D01*
X008150Y015463D01*
X008136Y015473D01*
X008123Y015486D01*
X008113Y015500D01*
X008106Y015516D01*
X008102Y015533D01*
X008100Y015550D01*
X008100Y017250D01*
X008102Y017267D01*
X008106Y017284D01*
X008113Y017300D01*
X008123Y017314D01*
X008136Y017327D01*
X008150Y017337D01*
X008166Y017344D01*
X008183Y017348D01*
X008200Y017350D01*
X009000Y017350D01*
X009017Y017348D01*
X009034Y017344D01*
X009050Y017337D01*
X009064Y017327D01*
X009077Y017314D01*
X009087Y017300D01*
X009094Y017284D01*
X009098Y017267D01*
X009100Y017250D01*
X008600Y016700D02*
X008600Y016550D01*
X008600Y016500D01*
X008600Y016300D02*
X008600Y016250D01*
X008600Y016100D01*
X009650Y013000D02*
X010150Y013000D01*
X010400Y012750D01*
X010400Y011250D01*
X010150Y011000D01*
X009650Y011000D01*
X009400Y011250D01*
X009400Y012750D01*
X009650Y013000D01*
X010400Y012750D02*
X010650Y013000D01*
X011150Y013000D01*
X011400Y012750D01*
X011400Y011250D01*
X011150Y011000D01*
X010650Y011000D01*
X010400Y011250D01*
X011400Y011250D02*
X011650Y011000D01*
X012150Y011000D01*
X012400Y011250D01*
X012400Y012750D01*
X012150Y013000D01*
X011650Y013000D01*
X011400Y012750D01*
X012530Y012757D02*
X012744Y012971D01*
X012744Y012330D01*
X012957Y012330D02*
X012530Y012330D01*
X013700Y012850D02*
X013700Y011150D01*
X013702Y011133D01*
X013706Y011116D01*
X013713Y011100D01*
X013723Y011086D01*
X013736Y011073D01*
X013750Y011063D01*
X013766Y011056D01*
X013783Y011052D01*
X013800Y011050D01*
X014600Y011050D01*
X014617Y011052D01*
X014634Y011056D01*
X014650Y011063D01*
X014664Y011073D01*
X014677Y011086D01*
X014687Y011100D01*
X014694Y011116D01*
X014698Y011133D01*
X014700Y011150D01*
X014700Y012850D01*
X014698Y012867D01*
X014694Y012884D01*
X014687Y012900D01*
X014677Y012914D01*
X014664Y012927D01*
X014650Y012937D01*
X014634Y012944D01*
X014617Y012948D01*
X014600Y012950D01*
X013800Y012950D01*
X013783Y012948D01*
X013766Y012944D01*
X013750Y012937D01*
X013736Y012927D01*
X013723Y012914D01*
X013713Y012900D01*
X013706Y012884D01*
X013702Y012867D01*
X013700Y012850D01*
X014200Y012300D02*
X014200Y012150D01*
X014200Y012100D01*
X014200Y011900D02*
X014200Y011850D01*
X014200Y011700D01*
X016000Y014050D02*
X016100Y014050D01*
X016150Y014100D01*
X017050Y014100D01*
X017100Y014050D01*
X017200Y014050D01*
X017217Y014052D01*
X017234Y014056D01*
X017250Y014063D01*
X017264Y014073D01*
X017277Y014086D01*
X017287Y014100D01*
X017294Y014116D01*
X017298Y014133D01*
X017300Y014150D01*
X017300Y014650D01*
X017298Y014667D01*
X017294Y014684D01*
X017287Y014700D01*
X017277Y014714D01*
X017264Y014727D01*
X017250Y014737D01*
X017234Y014744D01*
X017217Y014748D01*
X017200Y014750D01*
X017100Y014750D01*
X017050Y014700D01*
X016150Y014700D01*
X016100Y014750D01*
X016000Y014750D01*
X015983Y014748D01*
X015966Y014744D01*
X015950Y014737D01*
X015936Y014727D01*
X015923Y014714D01*
X015913Y014700D01*
X015906Y014684D01*
X015902Y014667D01*
X015900Y014650D01*
X015900Y014150D01*
X015902Y014133D01*
X015906Y014116D01*
X015913Y014100D01*
X015923Y014086D01*
X015936Y014073D01*
X015950Y014063D01*
X015966Y014056D01*
X015983Y014052D01*
X016000Y014050D01*
X016300Y013045D02*
X016300Y012887D01*
X016300Y012113D01*
X016300Y011887D01*
X016300Y011113D01*
X016300Y010955D01*
X016850Y011175D02*
X016850Y012825D01*
X017400Y012850D02*
X017400Y011150D01*
X017402Y011133D01*
X017406Y011116D01*
X017413Y011100D01*
X017423Y011086D01*
X017436Y011073D01*
X017450Y011063D01*
X017466Y011056D01*
X017483Y011052D01*
X017500Y011050D01*
X018300Y011050D01*
X018317Y011052D01*
X018334Y011056D01*
X018350Y011063D01*
X018364Y011073D01*
X018377Y011086D01*
X018387Y011100D01*
X018394Y011116D01*
X018398Y011133D01*
X018400Y011150D01*
X018400Y012850D01*
X018398Y012867D01*
X018394Y012884D01*
X018387Y012900D01*
X018377Y012914D01*
X018364Y012927D01*
X018350Y012937D01*
X018334Y012944D01*
X018317Y012948D01*
X018300Y012950D01*
X017500Y012950D01*
X017483Y012948D01*
X017466Y012944D01*
X017450Y012937D01*
X017436Y012927D01*
X017423Y012914D01*
X017413Y012900D01*
X017406Y012884D01*
X017402Y012867D01*
X017400Y012850D01*
X017900Y012300D02*
X017900Y012150D01*
X017900Y012100D01*
X017900Y011900D02*
X017900Y011850D01*
X017900Y011700D01*
X016850Y011175D02*
X016799Y011138D01*
X016746Y011103D01*
X016690Y011071D01*
X016633Y011043D01*
X016574Y011019D01*
X016514Y010998D01*
X016453Y010981D01*
X016391Y010967D01*
X016328Y010958D01*
X016265Y010952D01*
X016201Y010950D01*
X016137Y010952D01*
X016074Y010958D01*
X016011Y010967D01*
X015949Y010980D01*
X015888Y010998D01*
X015828Y011018D01*
X015769Y011043D01*
X015712Y011070D01*
X015656Y011102D01*
X015603Y011136D01*
X015552Y011174D01*
X015503Y011215D01*
X015457Y011259D01*
X015413Y011305D01*
X015372Y011354D01*
X015335Y011405D01*
X015300Y011459D01*
X015269Y011514D01*
X015241Y011571D01*
X015217Y011630D01*
X015197Y011690D01*
X015180Y011751D01*
X015167Y011812D01*
X015158Y011875D01*
X015152Y011937D01*
X015150Y012000D01*
X015152Y012063D01*
X015158Y012125D01*
X015167Y012188D01*
X015180Y012249D01*
X015197Y012310D01*
X015217Y012370D01*
X015241Y012429D01*
X015269Y012486D01*
X015300Y012541D01*
X015335Y012595D01*
X015372Y012646D01*
X015413Y012695D01*
X015457Y012741D01*
X015503Y012785D01*
X015552Y012826D01*
X015603Y012864D01*
X015656Y012898D01*
X015712Y012930D01*
X015769Y012957D01*
X015828Y012982D01*
X015888Y013002D01*
X015949Y013020D01*
X016011Y013033D01*
X016074Y013042D01*
X016137Y013048D01*
X016201Y013050D01*
X016265Y013048D01*
X016328Y013042D01*
X016391Y013033D01*
X016453Y013019D01*
X016514Y013002D01*
X016574Y012981D01*
X016633Y012957D01*
X016690Y012929D01*
X016746Y012897D01*
X016799Y012862D01*
X016850Y012825D01*
X017220Y015200D02*
X015980Y015200D01*
X015957Y015202D01*
X015934Y015207D01*
X015912Y015216D01*
X015892Y015229D01*
X015874Y015244D01*
X015859Y015262D01*
X015846Y015282D01*
X015837Y015304D01*
X015832Y015327D01*
X015830Y015350D01*
X015830Y017050D01*
X015832Y017073D01*
X015837Y017096D01*
X015846Y017118D01*
X015859Y017138D01*
X015874Y017156D01*
X015892Y017171D01*
X015912Y017184D01*
X015934Y017193D01*
X015957Y017198D01*
X015980Y017200D01*
X016400Y017200D01*
X016800Y017200D01*
X017220Y017200D01*
X017243Y017198D01*
X017266Y017193D01*
X017288Y017184D01*
X017308Y017171D01*
X017326Y017156D01*
X017341Y017138D01*
X017354Y017118D01*
X017363Y017096D01*
X017368Y017073D01*
X017370Y017050D01*
X017370Y015350D01*
X017368Y015327D01*
X017363Y015304D01*
X017354Y015282D01*
X017341Y015262D01*
X017326Y015244D01*
X017308Y015229D01*
X017288Y015216D01*
X017266Y015207D01*
X017243Y015202D01*
X017220Y015200D01*
X016800Y017200D02*
X016798Y017173D01*
X016793Y017146D01*
X016783Y017120D01*
X016771Y017096D01*
X016755Y017074D01*
X016737Y017054D01*
X016715Y017037D01*
X016692Y017022D01*
X016667Y017012D01*
X016641Y017004D01*
X016614Y017000D01*
X016586Y017000D01*
X016559Y017004D01*
X016533Y017012D01*
X016508Y017022D01*
X016485Y017037D01*
X016463Y017054D01*
X016445Y017074D01*
X016429Y017096D01*
X016417Y017120D01*
X016407Y017146D01*
X016402Y017173D01*
X016400Y017200D01*
X016100Y017550D02*
X016150Y017600D01*
X017050Y017600D01*
X017100Y017550D01*
X017200Y017550D01*
X017217Y017552D01*
X017234Y017556D01*
X017250Y017563D01*
X017264Y017573D01*
X017277Y017586D01*
X017287Y017600D01*
X017294Y017616D01*
X017298Y017633D01*
X017300Y017650D01*
X017300Y018150D01*
X017298Y018167D01*
X017294Y018184D01*
X017287Y018200D01*
X017277Y018214D01*
X017264Y018227D01*
X017250Y018237D01*
X017234Y018244D01*
X017217Y018248D01*
X017200Y018250D01*
X017100Y018250D01*
X017050Y018200D01*
X016150Y018200D01*
X016100Y018250D01*
X016000Y018250D01*
X015983Y018248D01*
X015966Y018244D01*
X015950Y018237D01*
X015936Y018227D01*
X015923Y018214D01*
X015913Y018200D01*
X015906Y018184D01*
X015902Y018167D01*
X015900Y018150D01*
X015900Y017650D01*
X015902Y017633D01*
X015906Y017616D01*
X015913Y017600D01*
X015923Y017586D01*
X015936Y017573D01*
X015950Y017563D01*
X015966Y017556D01*
X015983Y017552D01*
X016000Y017550D01*
X016100Y017550D01*
X016100Y018550D02*
X016150Y018600D01*
X017050Y018600D01*
X017100Y018550D01*
X017200Y018550D01*
X017217Y018552D01*
X017234Y018556D01*
X017250Y018563D01*
X017264Y018573D01*
X017277Y018586D01*
X017287Y018600D01*
X017294Y018616D01*
X017298Y018633D01*
X017300Y018650D01*
X017300Y019150D01*
X017298Y019167D01*
X017294Y019184D01*
X017287Y019200D01*
X017277Y019214D01*
X017264Y019227D01*
X017250Y019237D01*
X017234Y019244D01*
X017217Y019248D01*
X017200Y019250D01*
X017100Y019250D01*
X017050Y019200D01*
X016150Y019200D01*
X016100Y019250D01*
X016000Y019250D01*
X015983Y019248D01*
X015966Y019244D01*
X015950Y019237D01*
X015936Y019227D01*
X015923Y019214D01*
X015913Y019200D01*
X015906Y019184D01*
X015902Y019167D01*
X015900Y019150D01*
X015900Y018650D01*
X015902Y018633D01*
X015906Y018616D01*
X015913Y018600D01*
X015923Y018586D01*
X015936Y018573D01*
X015950Y018563D01*
X015966Y018556D01*
X015983Y018552D01*
X016000Y018550D01*
X016100Y018550D01*
X019900Y017950D02*
X019900Y017450D01*
X019902Y017433D01*
X019906Y017416D01*
X019913Y017400D01*
X019923Y017386D01*
X019936Y017373D01*
X019950Y017363D01*
X019966Y017356D01*
X019983Y017352D01*
X020000Y017350D01*
X020100Y017350D01*
X020150Y017400D01*
X021050Y017400D01*
X021100Y017350D01*
X021200Y017350D01*
X021217Y017352D01*
X021234Y017356D01*
X021250Y017363D01*
X021264Y017373D01*
X021277Y017386D01*
X021287Y017400D01*
X021294Y017416D01*
X021298Y017433D01*
X021300Y017450D01*
X021300Y017950D01*
X021298Y017967D01*
X021294Y017984D01*
X021287Y018000D01*
X021277Y018014D01*
X021264Y018027D01*
X021250Y018037D01*
X021234Y018044D01*
X021217Y018048D01*
X021200Y018050D01*
X021100Y018050D01*
X021050Y018000D01*
X020150Y018000D01*
X020100Y018050D01*
X020000Y018050D01*
X019983Y018048D01*
X019966Y018044D01*
X019950Y018037D01*
X019936Y018027D01*
X019923Y018014D01*
X019913Y018000D01*
X019906Y017984D01*
X019902Y017967D01*
X019900Y017950D01*
X021048Y016599D02*
X021079Y016561D01*
X021107Y016521D01*
X021131Y016479D01*
X021152Y016436D01*
X021169Y016390D01*
X021182Y016344D01*
X021192Y016296D01*
X021198Y016248D01*
X021200Y016200D01*
X020600Y015600D02*
X020553Y015602D01*
X020505Y015608D01*
X020459Y015617D01*
X020413Y015630D01*
X020369Y015646D01*
X020325Y015667D01*
X020284Y015690D01*
X020245Y015716D01*
X020208Y015746D01*
X020173Y015779D01*
X020141Y015814D01*
X020112Y015851D01*
X020600Y016800D02*
X020645Y016798D01*
X020691Y016793D01*
X020735Y016785D01*
X020779Y016773D01*
X020822Y016757D01*
X020864Y016739D01*
X020904Y016717D01*
X020942Y016693D01*
X020978Y016666D01*
X021013Y016636D01*
X021044Y016603D01*
X021074Y016568D01*
X020000Y016200D02*
X020002Y016153D01*
X020007Y016106D01*
X020017Y016060D01*
X020030Y016014D01*
X020046Y015970D01*
X020066Y015927D01*
X020089Y015886D01*
X020115Y015847D01*
X020144Y015810D01*
X020000Y016200D02*
X020002Y016246D01*
X020007Y016292D01*
X020016Y016338D01*
X020028Y016382D01*
X020044Y016426D01*
X020063Y016468D01*
X020085Y016509D01*
X020111Y016547D01*
X020139Y016584D01*
X020600Y015600D02*
X020646Y015602D01*
X020692Y015607D01*
X020738Y015616D01*
X020783Y015628D01*
X020826Y015644D01*
X020868Y015663D01*
X020909Y015686D01*
X020948Y015711D01*
X020984Y015739D01*
X021019Y015770D01*
X021051Y015804D01*
X021080Y015840D01*
X020600Y016800D02*
X020555Y016798D01*
X020509Y016793D01*
X020465Y016785D01*
X020421Y016773D01*
X020378Y016757D01*
X020336Y016739D01*
X020296Y016717D01*
X020258Y016693D01*
X020222Y016666D01*
X020187Y016636D01*
X020156Y016603D01*
X020126Y016568D01*
X021200Y016200D02*
X021198Y016154D01*
X021193Y016108D01*
X021184Y016062D01*
X021172Y016018D01*
X021156Y015974D01*
X021137Y015932D01*
X021115Y015891D01*
X021089Y015853D01*
X021061Y015816D01*
X020600Y016600D02*
X020561Y016598D01*
X020522Y016592D01*
X020484Y016583D01*
X020447Y016570D01*
X020411Y016553D01*
X020378Y016533D01*
X020346Y016509D01*
X020317Y016483D01*
X020291Y016454D01*
X020267Y016422D01*
X020247Y016389D01*
X020230Y016353D01*
X020217Y016316D01*
X020208Y016278D01*
X020202Y016239D01*
X020200Y016200D01*
X020350Y016200D02*
X020352Y016230D01*
X020357Y016260D01*
X020366Y016289D01*
X020379Y016316D01*
X020394Y016342D01*
X020413Y016366D01*
X020434Y016387D01*
X020458Y016406D01*
X020484Y016421D01*
X020511Y016434D01*
X020540Y016443D01*
X020570Y016448D01*
X020600Y016450D01*
X021000Y016200D02*
X020998Y016161D01*
X020992Y016122D01*
X020983Y016084D01*
X020970Y016047D01*
X020953Y016011D01*
X020933Y015978D01*
X020909Y015946D01*
X020883Y015917D01*
X020854Y015891D01*
X020822Y015867D01*
X020789Y015847D01*
X020753Y015830D01*
X020716Y015817D01*
X020678Y015808D01*
X020639Y015802D01*
X020600Y015800D01*
X020600Y015950D02*
X020630Y015952D01*
X020660Y015957D01*
X020689Y015966D01*
X020716Y015979D01*
X020742Y015994D01*
X020766Y016013D01*
X020787Y016034D01*
X020806Y016058D01*
X020821Y016084D01*
X020834Y016111D01*
X020843Y016140D01*
X020848Y016170D01*
X020850Y016200D01*
X021048Y014499D02*
X021079Y014461D01*
X021107Y014421D01*
X021131Y014379D01*
X021152Y014336D01*
X021169Y014290D01*
X021182Y014244D01*
X021192Y014196D01*
X021198Y014148D01*
X021200Y014100D01*
X020600Y013500D02*
X020553Y013502D01*
X020505Y013508D01*
X020459Y013517D01*
X020413Y013530D01*
X020369Y013546D01*
X020325Y013567D01*
X020284Y013590D01*
X020245Y013616D01*
X020208Y013646D01*
X020173Y013679D01*
X020141Y013714D01*
X020112Y013751D01*
X020600Y014700D02*
X020645Y014698D01*
X020691Y014693D01*
X020735Y014685D01*
X020779Y014673D01*
X020822Y014657D01*
X020864Y014639D01*
X020904Y014617D01*
X020942Y014593D01*
X020978Y014566D01*
X021013Y014536D01*
X021044Y014503D01*
X021074Y014468D01*
X020000Y014100D02*
X020002Y014053D01*
X020007Y014006D01*
X020017Y013960D01*
X020030Y013914D01*
X020046Y013870D01*
X020066Y013827D01*
X020089Y013786D01*
X020115Y013747D01*
X020144Y013710D01*
X020000Y014100D02*
X020002Y014146D01*
X020007Y014192D01*
X020016Y014238D01*
X020028Y014282D01*
X020044Y014326D01*
X020063Y014368D01*
X020085Y014409D01*
X020111Y014447D01*
X020139Y014484D01*
X020600Y013500D02*
X020646Y013502D01*
X020692Y013507D01*
X020738Y013516D01*
X020783Y013528D01*
X020826Y013544D01*
X020868Y013563D01*
X020909Y013586D01*
X020948Y013611D01*
X020984Y013639D01*
X021019Y013670D01*
X021051Y013704D01*
X021080Y013740D01*
X020600Y014700D02*
X020555Y014698D01*
X020509Y014693D01*
X020465Y014685D01*
X020421Y014673D01*
X020378Y014657D01*
X020336Y014639D01*
X020296Y014617D01*
X020258Y014593D01*
X020222Y014566D01*
X020187Y014536D01*
X020156Y014503D01*
X020126Y014468D01*
X021200Y014100D02*
X021198Y014054D01*
X021193Y014008D01*
X021184Y013962D01*
X021172Y013918D01*
X021156Y013874D01*
X021137Y013832D01*
X021115Y013791D01*
X021089Y013753D01*
X021061Y013716D01*
X020600Y014500D02*
X020561Y014498D01*
X020522Y014492D01*
X020484Y014483D01*
X020447Y014470D01*
X020411Y014453D01*
X020378Y014433D01*
X020346Y014409D01*
X020317Y014383D01*
X020291Y014354D01*
X020267Y014322D01*
X020247Y014289D01*
X020230Y014253D01*
X020217Y014216D01*
X020208Y014178D01*
X020202Y014139D01*
X020200Y014100D01*
X020350Y014100D02*
X020352Y014130D01*
X020357Y014160D01*
X020366Y014189D01*
X020379Y014216D01*
X020394Y014242D01*
X020413Y014266D01*
X020434Y014287D01*
X020458Y014306D01*
X020484Y014321D01*
X020511Y014334D01*
X020540Y014343D01*
X020570Y014348D01*
X020600Y014350D01*
X021000Y014100D02*
X020998Y014061D01*
X020992Y014022D01*
X020983Y013984D01*
X020970Y013947D01*
X020953Y013911D01*
X020933Y013878D01*
X020909Y013846D01*
X020883Y013817D01*
X020854Y013791D01*
X020822Y013767D01*
X020789Y013747D01*
X020753Y013730D01*
X020716Y013717D01*
X020678Y013708D01*
X020639Y013702D01*
X020600Y013700D01*
X020600Y013850D02*
X020630Y013852D01*
X020660Y013857D01*
X020689Y013866D01*
X020716Y013879D01*
X020742Y013894D01*
X020766Y013913D01*
X020787Y013934D01*
X020806Y013958D01*
X020821Y013984D01*
X020834Y014011D01*
X020843Y014040D01*
X020848Y014070D01*
X020850Y014100D01*
X021100Y012950D02*
X021050Y012900D01*
X020150Y012900D01*
X020100Y012950D01*
X020000Y012950D01*
X019983Y012948D01*
X019966Y012944D01*
X019950Y012937D01*
X019936Y012927D01*
X019923Y012914D01*
X019913Y012900D01*
X019906Y012884D01*
X019902Y012867D01*
X019900Y012850D01*
X019900Y012350D01*
X019902Y012333D01*
X019906Y012316D01*
X019913Y012300D01*
X019923Y012286D01*
X019936Y012273D01*
X019950Y012263D01*
X019966Y012256D01*
X019983Y012252D01*
X020000Y012250D01*
X020100Y012250D01*
X020150Y012300D01*
X021050Y012300D01*
X021100Y012250D01*
X021200Y012250D01*
X021217Y012252D01*
X021234Y012256D01*
X021250Y012263D01*
X021264Y012273D01*
X021277Y012286D01*
X021287Y012300D01*
X021294Y012316D01*
X021298Y012333D01*
X021300Y012350D01*
X021300Y012850D01*
X021298Y012867D01*
X021294Y012884D01*
X021287Y012900D01*
X021277Y012914D01*
X021264Y012927D01*
X021250Y012937D01*
X021234Y012944D01*
X021217Y012948D01*
X021200Y012950D01*
X021100Y012950D01*
D12*
X010810Y018415D02*
X010616Y018415D01*
X010713Y018415D02*
X010713Y018705D01*
X010616Y018608D01*
X010515Y018657D02*
X010467Y018705D01*
X010370Y018705D01*
X010321Y018657D01*
X010321Y018463D01*
X010370Y018415D01*
X010467Y018415D01*
X010515Y018463D01*
X010222Y018415D02*
X010125Y018415D01*
X010173Y018415D02*
X010173Y018705D01*
X010125Y018705D02*
X010222Y018705D01*
X004749Y026318D02*
X004701Y026318D01*
X004749Y026318D02*
X004798Y026367D01*
X004798Y026608D01*
X004899Y026560D02*
X004899Y026463D01*
X004947Y026415D01*
X005044Y026415D01*
X005092Y026463D01*
X005092Y026560D01*
X005044Y026608D01*
X004947Y026608D01*
X004899Y026560D01*
X004798Y026415D02*
X004653Y026415D01*
X004604Y026463D01*
X004604Y026608D01*
X004503Y026560D02*
X004503Y026512D01*
X004310Y026512D01*
X004310Y026560D02*
X004358Y026608D01*
X004455Y026608D01*
X004503Y026560D01*
X004455Y026415D02*
X004358Y026415D01*
X004310Y026463D01*
X004310Y026560D01*
X004208Y026560D02*
X004160Y026608D01*
X004015Y026608D01*
X004015Y026705D02*
X004015Y026415D01*
X004160Y026415D01*
X004208Y026463D01*
X004208Y026560D01*
X004208Y026895D02*
X004208Y027185D01*
X004310Y027040D02*
X004310Y026943D01*
X004358Y026895D01*
X004455Y026895D01*
X004503Y026943D01*
X004503Y027040D01*
X004455Y027088D01*
X004358Y027088D01*
X004310Y027040D01*
X004208Y026895D02*
X004015Y027185D01*
X004015Y026895D01*
X004604Y027088D02*
X004701Y027088D01*
X004653Y027137D02*
X004653Y026943D01*
X004701Y026895D01*
X005095Y026943D02*
X005144Y026895D01*
X005289Y026895D01*
X005390Y026943D02*
X005390Y027040D01*
X005438Y027088D01*
X005535Y027088D01*
X005584Y027040D01*
X005584Y026992D01*
X005390Y026992D01*
X005390Y026943D02*
X005438Y026895D01*
X005535Y026895D01*
X005685Y026895D02*
X005685Y027088D01*
X005685Y026992D02*
X005781Y027088D01*
X005830Y027088D01*
X005930Y027088D02*
X006027Y027088D01*
X005979Y027137D02*
X005979Y026943D01*
X006027Y026895D01*
X006127Y026895D02*
X006223Y026895D01*
X006175Y026895D02*
X006175Y027088D01*
X006127Y027088D01*
X006175Y027185D02*
X006175Y027234D01*
X006371Y027137D02*
X006371Y026895D01*
X006520Y026895D02*
X006616Y026895D01*
X006568Y026895D02*
X006568Y027088D01*
X006520Y027088D01*
X006568Y027185D02*
X006568Y027234D01*
X006420Y027185D02*
X006371Y027137D01*
X006323Y027040D02*
X006420Y027040D01*
X006716Y027040D02*
X006716Y026943D01*
X006764Y026895D01*
X006861Y026895D01*
X006909Y026992D02*
X006716Y026992D01*
X006716Y027040D02*
X006764Y027088D01*
X006861Y027088D01*
X006909Y027040D01*
X006909Y026992D01*
X007011Y027040D02*
X007059Y027088D01*
X007204Y027088D01*
X007204Y027185D02*
X007204Y026895D01*
X007059Y026895D01*
X007011Y026943D01*
X007011Y027040D01*
X007157Y026754D02*
X007157Y026705D01*
X007157Y026608D02*
X007157Y026415D01*
X007109Y026415D02*
X007206Y026415D01*
X007305Y026415D02*
X007305Y026608D01*
X007450Y026608D01*
X007499Y026560D01*
X007499Y026415D01*
X007600Y026463D02*
X007648Y026512D01*
X007793Y026512D01*
X007793Y026560D02*
X007793Y026415D01*
X007648Y026415D01*
X007600Y026463D01*
X007648Y026608D02*
X007745Y026608D01*
X007793Y026560D01*
X007895Y026608D02*
X007991Y026608D01*
X007943Y026657D02*
X007943Y026463D01*
X007991Y026415D01*
X008091Y026415D02*
X008188Y026415D01*
X008139Y026415D02*
X008139Y026608D01*
X008091Y026608D01*
X008139Y026705D02*
X008139Y026754D01*
X008091Y026895D02*
X008091Y027088D01*
X008091Y026992D02*
X008188Y027088D01*
X008236Y027088D01*
X007990Y027040D02*
X007990Y026943D01*
X007941Y026895D01*
X007845Y026895D01*
X007796Y026943D01*
X007796Y027040D01*
X007845Y027088D01*
X007941Y027088D01*
X007990Y027040D01*
X007697Y027040D02*
X007600Y027040D01*
X007648Y027137D02*
X007697Y027185D01*
X007648Y027137D02*
X007648Y026895D01*
X007157Y026608D02*
X007109Y026608D01*
X007008Y026560D02*
X007008Y026415D01*
X006911Y026415D02*
X006911Y026560D01*
X006959Y026608D01*
X007008Y026560D01*
X006911Y026560D02*
X006863Y026608D01*
X006814Y026608D01*
X006814Y026415D01*
X006714Y026608D02*
X006665Y026608D01*
X006569Y026512D01*
X006569Y026608D02*
X006569Y026415D01*
X006467Y026512D02*
X006274Y026512D01*
X006274Y026560D02*
X006322Y026608D01*
X006419Y026608D01*
X006467Y026560D01*
X006467Y026512D01*
X006419Y026415D02*
X006322Y026415D01*
X006274Y026463D01*
X006274Y026560D01*
X006174Y026608D02*
X006078Y026608D01*
X006126Y026657D02*
X006126Y026463D01*
X006174Y026415D01*
X005682Y026415D02*
X005537Y026415D01*
X005488Y026463D01*
X005488Y026560D01*
X005537Y026608D01*
X005682Y026608D01*
X005682Y026705D02*
X005682Y026415D01*
X005387Y026415D02*
X005387Y026560D01*
X005339Y026608D01*
X005194Y026608D01*
X005194Y026415D01*
X005095Y026943D02*
X005095Y027040D01*
X005144Y027088D01*
X005289Y027088D01*
X008287Y026560D02*
X008287Y026463D01*
X008336Y026415D01*
X008433Y026415D01*
X008481Y026463D01*
X008481Y026560D01*
X008433Y026608D01*
X008336Y026608D01*
X008287Y026560D01*
X008582Y026608D02*
X008727Y026608D01*
X008776Y026560D01*
X008776Y026415D01*
X008582Y026415D02*
X008582Y026608D01*
X008680Y026895D02*
X008680Y027137D01*
X008728Y027185D01*
X008828Y027185D02*
X008876Y027185D01*
X008876Y026895D01*
X008828Y026895D02*
X008924Y026895D01*
X009024Y026895D02*
X009121Y026895D01*
X009072Y026895D02*
X009072Y027088D01*
X009024Y027088D01*
X009072Y027185D02*
X009072Y027234D01*
X009221Y027040D02*
X009221Y026943D01*
X009269Y026895D01*
X009414Y026895D01*
X009414Y026847D02*
X009414Y027088D01*
X009269Y027088D01*
X009221Y027040D01*
X009317Y026798D02*
X009366Y026798D01*
X009414Y026847D01*
X009515Y026895D02*
X009515Y027185D01*
X009564Y027088D02*
X009515Y027040D01*
X009564Y027088D02*
X009660Y027088D01*
X009709Y027040D01*
X009709Y026895D01*
X009858Y026943D02*
X009858Y027137D01*
X009810Y027088D02*
X009907Y027088D01*
X009858Y026943D02*
X009907Y026895D01*
X009906Y026608D02*
X009809Y026608D01*
X009761Y026560D01*
X009761Y026463D01*
X009809Y026415D01*
X009906Y026415D01*
X009954Y026463D01*
X009954Y026560D01*
X009906Y026608D01*
X010055Y026560D02*
X010055Y026463D01*
X010104Y026415D01*
X010249Y026415D01*
X010350Y026415D02*
X010350Y026705D01*
X010249Y026608D02*
X010104Y026608D01*
X010055Y026560D01*
X010350Y026512D02*
X010495Y026608D01*
X010350Y026512D02*
X010495Y026415D01*
X009660Y026415D02*
X009660Y026560D01*
X009611Y026608D01*
X009514Y026608D01*
X009466Y026560D01*
X009365Y026608D02*
X009220Y026608D01*
X009171Y026560D01*
X009220Y026512D01*
X009317Y026512D01*
X009365Y026463D01*
X009317Y026415D01*
X009171Y026415D01*
X009466Y026415D02*
X009466Y026705D01*
X008728Y027040D02*
X008631Y027040D01*
D13*
X008664Y027520D02*
X008664Y027980D01*
X008817Y027980D02*
X008510Y027980D01*
X008357Y027980D02*
X008357Y027520D01*
X008050Y027980D01*
X008050Y027520D01*
X007896Y027520D02*
X007589Y027520D01*
X007589Y027980D01*
X007896Y027980D01*
X007743Y027750D02*
X007589Y027750D01*
X007436Y027980D02*
X007436Y027520D01*
X007129Y027520D02*
X007129Y027980D01*
X007282Y027827D01*
X007436Y027980D01*
X006975Y027980D02*
X006822Y027980D01*
X006899Y027980D02*
X006899Y027520D01*
X006975Y027520D02*
X006822Y027520D01*
X006668Y027520D02*
X006515Y027673D01*
X006592Y027673D02*
X006362Y027673D01*
X006362Y027520D02*
X006362Y027980D01*
X006592Y027980D01*
X006668Y027904D01*
X006668Y027750D01*
X006592Y027673D01*
X006208Y027520D02*
X005901Y027520D01*
X005901Y027980D01*
X006208Y027980D01*
X006055Y027750D02*
X005901Y027750D01*
X005748Y027750D02*
X005671Y027673D01*
X005441Y027673D01*
X005441Y027520D02*
X005441Y027980D01*
X005671Y027980D01*
X005748Y027904D01*
X005748Y027750D01*
X005287Y027520D02*
X004980Y027980D01*
X004827Y027980D02*
X004520Y027980D01*
X004520Y027520D01*
X004827Y027520D01*
X004980Y027520D02*
X005287Y027980D01*
X004673Y027750D02*
X004520Y027750D01*
X008970Y027750D02*
X009277Y027750D01*
X009277Y027827D02*
X009277Y027520D01*
X009431Y027520D02*
X009738Y027520D01*
X009431Y027520D02*
X009431Y027980D01*
X009277Y027827D02*
X009124Y027980D01*
X008970Y027827D01*
X008970Y027520D01*
X014430Y019130D02*
X014605Y019130D01*
X014664Y019072D01*
X014664Y018955D01*
X014605Y018897D01*
X014430Y018897D01*
X014547Y018897D02*
X014664Y018780D01*
X014789Y018780D02*
X015023Y018780D01*
X014906Y018780D02*
X014906Y019130D01*
X014789Y019014D01*
X014430Y019130D02*
X014430Y018780D01*
X014430Y018130D02*
X014605Y018130D01*
X014664Y018072D01*
X014664Y017955D01*
X014605Y017897D01*
X014430Y017897D01*
X014547Y017897D02*
X014664Y017780D01*
X014789Y017780D02*
X015023Y018014D01*
X015023Y018072D01*
X014964Y018130D01*
X014847Y018130D01*
X014789Y018072D01*
X014789Y017780D02*
X015023Y017780D01*
X014430Y017780D02*
X014430Y018130D01*
X016430Y013930D02*
X016605Y013930D01*
X016664Y013872D01*
X016664Y013755D01*
X016605Y013697D01*
X016430Y013697D01*
X016547Y013697D02*
X016664Y013580D01*
X016789Y013638D02*
X016847Y013580D01*
X016964Y013580D01*
X017023Y013638D01*
X017023Y013697D01*
X016964Y013755D01*
X016906Y013755D01*
X016964Y013755D02*
X017023Y013814D01*
X017023Y013872D01*
X016964Y013930D01*
X016847Y013930D01*
X016789Y013872D01*
X016430Y013930D02*
X016430Y013580D01*
X020320Y012130D02*
X020320Y011780D01*
X020320Y011897D02*
X020495Y011897D01*
X020554Y011955D01*
X020554Y012072D01*
X020495Y012130D01*
X020320Y012130D01*
X020437Y011897D02*
X020554Y011780D01*
X020679Y011838D02*
X020737Y011780D01*
X020854Y011780D01*
X020913Y011838D01*
X020913Y011897D01*
X020854Y011955D01*
X020679Y011955D01*
X020679Y011838D01*
X020679Y011955D02*
X020796Y012072D01*
X020913Y012130D01*
X021720Y011414D02*
X021873Y011567D01*
X022180Y011567D01*
X021950Y011567D02*
X021950Y011261D01*
X021873Y011261D02*
X021720Y011414D01*
X021873Y011261D02*
X022180Y011261D01*
X021873Y010647D02*
X022180Y010493D01*
X021873Y010340D01*
X021950Y010186D02*
X022027Y010186D01*
X022027Y009879D01*
X022103Y009879D02*
X021950Y009879D01*
X021873Y009956D01*
X021873Y010110D01*
X021950Y010186D01*
X022180Y010110D02*
X022180Y009956D01*
X022103Y009879D01*
X022180Y009726D02*
X022027Y009572D01*
X022027Y009649D02*
X022027Y009419D01*
X022180Y009419D02*
X021720Y009419D01*
X021720Y009649D01*
X021796Y009726D01*
X021950Y009726D01*
X022027Y009649D01*
X022027Y008805D02*
X021950Y008805D01*
X021873Y008728D01*
X021873Y008575D01*
X021950Y008498D01*
X022103Y008498D01*
X022180Y008575D01*
X022180Y008728D01*
X022027Y008805D02*
X022027Y008498D01*
X022180Y008345D02*
X022180Y008191D01*
X022180Y008268D02*
X021720Y008268D01*
X021720Y008191D01*
X021873Y008038D02*
X021873Y007808D01*
X021950Y007731D01*
X022103Y007731D01*
X022180Y007808D01*
X022180Y008038D01*
X022257Y008038D02*
X022333Y007961D01*
X022333Y007884D01*
X022257Y008038D02*
X021873Y008038D01*
X021950Y007577D02*
X022180Y007577D01*
X021950Y007577D02*
X021873Y007501D01*
X021873Y007270D01*
X022180Y007270D01*
X022103Y007117D02*
X021950Y007117D01*
X021873Y007040D01*
X021873Y006887D01*
X021950Y006810D01*
X022103Y006810D01*
X022180Y006887D01*
X022180Y007040D01*
X022103Y007117D01*
X022103Y006657D02*
X021796Y006657D01*
X021720Y006580D01*
X021720Y006350D01*
X022180Y006350D01*
X022180Y006580D01*
X022103Y006657D01*
X022103Y005736D02*
X022180Y005659D01*
X022180Y005506D01*
X022103Y005429D01*
X021796Y005429D01*
X021720Y005506D01*
X021720Y005659D01*
X021796Y005736D01*
X021796Y005275D02*
X021720Y005199D01*
X021720Y005045D01*
X021796Y004968D01*
X021720Y004815D02*
X021720Y004662D01*
X021720Y004738D02*
X022180Y004738D01*
X022180Y004662D02*
X022180Y004815D01*
X022180Y004968D02*
X021873Y005275D01*
X021796Y005275D01*
X022180Y005275D02*
X022180Y004968D01*
X021950Y004508D02*
X021950Y004201D01*
X022027Y004048D02*
X021950Y003971D01*
X021950Y003741D01*
X021950Y003587D02*
X022027Y003511D01*
X022027Y003280D01*
X022180Y003280D02*
X021720Y003280D01*
X021720Y003511D01*
X021796Y003587D01*
X021950Y003587D01*
X022180Y003741D02*
X021720Y003741D01*
X021720Y003971D01*
X021796Y004048D01*
X021873Y004048D01*
X021950Y003971D01*
X022027Y004048D02*
X022103Y004048D01*
X022180Y003971D01*
X022180Y003741D01*
X022180Y003127D02*
X022180Y002820D01*
X021720Y002820D01*
X021720Y003127D01*
X021950Y002973D02*
X021950Y002820D01*
X020679Y018180D02*
X020679Y018238D01*
X020913Y018472D01*
X020913Y018530D01*
X020679Y018530D01*
X020554Y018472D02*
X020554Y018355D01*
X020495Y018297D01*
X020320Y018297D01*
X020437Y018297D02*
X020554Y018180D01*
X020320Y018180D02*
X020320Y018530D01*
X020495Y018530D01*
X020554Y018472D01*
X006850Y001780D02*
X006850Y001704D01*
X006543Y001397D01*
X006543Y001320D01*
X006389Y001320D02*
X006082Y001320D01*
X006236Y001320D02*
X006236Y001780D01*
X006082Y001627D01*
X005929Y001704D02*
X005622Y001397D01*
X005699Y001320D01*
X005852Y001320D01*
X005929Y001397D01*
X005929Y001704D01*
X005852Y001780D01*
X005699Y001780D01*
X005622Y001704D01*
X005622Y001397D01*
X005468Y001320D02*
X005162Y001320D01*
X005468Y001627D01*
X005468Y001704D01*
X005392Y001780D01*
X005238Y001780D01*
X005162Y001704D01*
X004548Y001550D02*
X004548Y001397D01*
X004471Y001320D01*
X004241Y001320D01*
X004241Y001167D02*
X004241Y001627D01*
X004471Y001627D01*
X004548Y001550D01*
X004087Y001550D02*
X004087Y001473D01*
X003780Y001473D01*
X003780Y001397D02*
X003780Y001550D01*
X003857Y001627D01*
X004011Y001627D01*
X004087Y001550D01*
X004011Y001320D02*
X003857Y001320D01*
X003780Y001397D01*
X003627Y001397D02*
X003627Y001473D01*
X003550Y001550D01*
X003397Y001550D01*
X003320Y001627D01*
X003320Y001704D01*
X003397Y001780D01*
X003550Y001780D01*
X003627Y001704D01*
X003627Y001397D02*
X003550Y001320D01*
X003397Y001320D01*
X003320Y001397D01*
X006543Y001780D02*
X006850Y001780D01*
D14*
X009605Y015298D03*
X009605Y015613D03*
X009605Y015928D03*
X009605Y016243D03*
X009605Y016557D03*
X009605Y016872D03*
X009605Y017187D03*
X009605Y017502D03*
X012795Y017502D03*
X012795Y017187D03*
X012795Y016872D03*
X012795Y016557D03*
X012795Y016243D03*
X012795Y015928D03*
X012795Y015613D03*
X012795Y015298D03*
D15*
X012302Y014805D03*
X011987Y014805D03*
X011672Y014805D03*
X011357Y014805D03*
X011043Y014805D03*
X010728Y014805D03*
X010413Y014805D03*
X010098Y014805D03*
X010098Y017995D03*
X010413Y017995D03*
X010728Y017995D03*
X011043Y017995D03*
X011357Y017995D03*
X011672Y017995D03*
X011987Y017995D03*
X012302Y017995D03*
D16*
X013600Y017450D02*
X013600Y016950D01*
X013850Y016700D01*
X013600Y016450D01*
X013600Y015950D01*
X013850Y015700D01*
X014350Y015700D01*
X014600Y015950D01*
X014600Y016450D01*
X014350Y016700D01*
X014600Y016950D01*
X014600Y017450D01*
X014350Y017700D01*
X013850Y017700D01*
X013600Y017450D01*
X011900Y020263D02*
X011900Y025381D01*
X011900Y028452D01*
X017900Y028452D01*
X017900Y025381D01*
X011900Y025381D01*
X011900Y020263D02*
X017900Y020263D01*
X017900Y025381D01*
X018660Y016674D02*
X018730Y016674D01*
X018800Y016604D01*
X018870Y016674D01*
X018940Y016674D01*
X019010Y016604D01*
X019010Y016464D01*
X018940Y016393D01*
X018940Y016213D02*
X019010Y016143D01*
X019010Y016003D01*
X018940Y015933D01*
X018660Y015933D01*
X018590Y016003D01*
X018590Y016143D01*
X018660Y016213D01*
X018660Y016393D02*
X018590Y016464D01*
X018590Y016604D01*
X018660Y016674D01*
X018800Y016604D02*
X018800Y016534D01*
X019010Y015766D02*
X019010Y015626D01*
X019010Y015696D02*
X018590Y015696D01*
X018590Y015626D02*
X018590Y015766D01*
X019800Y009937D02*
X019800Y004819D01*
X019800Y001748D01*
X013800Y001748D01*
X013800Y004819D01*
X019800Y004819D01*
X019800Y009937D02*
X013800Y009937D01*
X013800Y004819D01*
X013300Y004819D02*
X013300Y001748D01*
X007300Y001748D01*
X007300Y004819D01*
X013300Y004819D01*
X013300Y009937D01*
X007300Y009937D01*
X007300Y004819D01*
D17*
X010583Y010275D02*
X010583Y010725D01*
X010809Y010725D01*
X010884Y010650D01*
X010884Y010500D01*
X010809Y010425D01*
X010583Y010425D01*
X011044Y010425D02*
X011269Y010425D01*
X011344Y010500D01*
X011344Y010650D01*
X011269Y010725D01*
X011044Y010725D01*
X011044Y010275D01*
X011194Y010425D02*
X011344Y010275D01*
X011504Y010350D02*
X011579Y010275D01*
X011729Y010275D01*
X011804Y010350D01*
X011804Y010650D01*
X011729Y010725D01*
X011579Y010725D01*
X011504Y010650D01*
X011504Y010350D01*
X011965Y010350D02*
X012040Y010275D01*
X012190Y010275D01*
X012265Y010350D01*
X012265Y010500D01*
X012115Y010500D01*
X012265Y010650D02*
X012190Y010725D01*
X012040Y010725D01*
X011965Y010650D01*
X011965Y010350D01*
X013200Y011525D02*
X013125Y011600D01*
X013125Y011750D01*
X013200Y011825D01*
X013200Y011985D02*
X013125Y012060D01*
X013125Y012211D01*
X013200Y012286D01*
X013275Y012286D01*
X013350Y012211D01*
X013425Y012286D01*
X013500Y012286D01*
X013575Y012211D01*
X013575Y012060D01*
X013500Y011985D01*
X013500Y011825D02*
X013575Y011750D01*
X013575Y011600D01*
X013500Y011525D01*
X013200Y011525D01*
X013350Y012136D02*
X013350Y012211D01*
X013470Y015045D02*
X013620Y015045D01*
X013695Y015120D01*
X013695Y015420D01*
X013620Y015495D01*
X013470Y015495D01*
X013395Y015420D01*
X013395Y015120D01*
X013470Y015045D01*
X013855Y015045D02*
X013855Y015495D01*
X014081Y015495D01*
X014156Y015420D01*
X014156Y015270D01*
X014081Y015195D01*
X013855Y015195D01*
X014316Y015495D02*
X014616Y015495D01*
X014466Y015495D02*
X014466Y015045D01*
X015675Y010825D02*
X015825Y010825D01*
X015750Y010825D02*
X015750Y010375D01*
X015675Y010375D02*
X015825Y010375D01*
X015982Y010450D02*
X015982Y010750D01*
X016057Y010825D01*
X016207Y010825D01*
X016282Y010750D01*
X016442Y010750D02*
X016517Y010825D01*
X016668Y010825D01*
X016743Y010750D01*
X016743Y010675D01*
X016442Y010375D01*
X016743Y010375D01*
X016282Y010450D02*
X016207Y010375D01*
X016057Y010375D01*
X015982Y010450D01*
X018525Y011600D02*
X018600Y011525D01*
X018900Y011525D01*
X018975Y011600D01*
X018975Y011750D01*
X018900Y011825D01*
X018975Y011985D02*
X018675Y012286D01*
X018600Y012286D01*
X018525Y012211D01*
X018525Y012060D01*
X018600Y011985D01*
X018600Y011825D02*
X018525Y011750D01*
X018525Y011600D01*
X018975Y011985D02*
X018975Y012286D01*
X021675Y013625D02*
X022125Y013625D01*
X022125Y013475D02*
X022125Y013775D01*
X022125Y013935D02*
X021825Y014236D01*
X021750Y014236D01*
X021675Y014161D01*
X021675Y014010D01*
X021750Y013935D01*
X021675Y013625D02*
X021825Y013475D01*
X022125Y013935D02*
X022125Y014236D01*
X021975Y014396D02*
X022125Y014546D01*
X021975Y014696D01*
X021675Y014696D01*
X021675Y014396D02*
X021975Y014396D01*
X022050Y015775D02*
X022125Y015850D01*
X022125Y016000D01*
X022050Y016075D01*
X021900Y016075D01*
X021825Y016000D01*
X021825Y015925D01*
X021900Y015775D01*
X021675Y015775D01*
X021675Y016075D01*
X021675Y016235D02*
X021975Y016235D01*
X022125Y016386D01*
X021975Y016536D01*
X021675Y016536D01*
X008986Y017525D02*
X008685Y017525D01*
X008836Y017525D02*
X008836Y017975D01*
X008685Y017825D01*
X008525Y017900D02*
X008450Y017975D01*
X008300Y017975D01*
X008225Y017900D01*
X008225Y017600D01*
X008300Y017525D01*
X008450Y017525D01*
X008525Y017600D01*
X008429Y022375D02*
X008279Y022375D01*
X008204Y022450D01*
X008204Y022825D01*
X008044Y022750D02*
X008044Y022675D01*
X007969Y022600D01*
X007744Y022600D01*
X007744Y022375D02*
X007969Y022375D01*
X008044Y022450D01*
X008044Y022525D01*
X007969Y022600D01*
X008044Y022750D02*
X007969Y022825D01*
X007744Y022825D01*
X007744Y022375D01*
X008429Y022375D02*
X008504Y022450D01*
X008504Y022825D01*
X008665Y022750D02*
X008665Y022675D01*
X008740Y022600D01*
X008890Y022600D01*
X008965Y022525D01*
X008965Y022450D01*
X008890Y022375D01*
X008740Y022375D01*
X008665Y022450D01*
X008665Y022750D02*
X008740Y022825D01*
X008890Y022825D01*
X008965Y022750D01*
D18*
X008600Y023600D03*
X008600Y024600D03*
X007600Y024600D03*
X007600Y023600D03*
X006600Y023600D03*
X006600Y024600D03*
X005600Y024600D03*
X005600Y023600D03*
X004600Y023600D03*
X004600Y024600D03*
X003600Y024600D03*
X003600Y023600D03*
X002600Y023600D03*
X002600Y024600D03*
X001600Y024600D03*
X001600Y023600D03*
X009900Y012500D03*
X009900Y011500D03*
X010900Y011500D03*
X010900Y012500D03*
X011900Y012500D03*
X011900Y011500D03*
X014100Y016200D03*
X014100Y017200D03*
D19*
X015600Y017900D02*
X015800Y017900D01*
X015800Y018900D02*
X015600Y018900D01*
X017400Y018900D02*
X017600Y018900D01*
X017600Y017900D02*
X017400Y017900D01*
X019600Y017700D02*
X019800Y017700D01*
X021400Y017700D02*
X021600Y017700D01*
X021600Y012600D02*
X021400Y012600D01*
X019800Y012600D02*
X019600Y012600D01*
X017600Y014400D02*
X017400Y014400D01*
X015800Y014400D02*
X015600Y014400D01*
D20*
X015850Y014400D03*
X017350Y014400D03*
X019850Y012600D03*
X021350Y012600D03*
X021350Y017700D03*
X019850Y017700D03*
X017350Y017900D03*
X017350Y018900D03*
X015850Y018900D03*
X015850Y017900D03*
D21*
X019980Y016700D02*
X019980Y015700D01*
X020600Y015400D02*
X020654Y015402D01*
X020708Y015407D01*
X020761Y015416D01*
X020814Y015429D01*
X020865Y015445D01*
X020915Y015465D01*
X020964Y015488D01*
X021012Y015514D01*
X021057Y015543D01*
X021100Y015576D01*
X021141Y015611D01*
X021180Y015649D01*
X021216Y015689D01*
X021249Y015732D01*
X021279Y015777D01*
X021306Y015824D01*
X021295Y016597D02*
X021265Y016645D01*
X021232Y016690D01*
X021196Y016733D01*
X021158Y016774D01*
X021116Y016811D01*
X021072Y016846D01*
X021026Y016877D01*
X020977Y016906D01*
X020927Y016930D01*
X020875Y016951D01*
X020821Y016969D01*
X020767Y016982D01*
X020712Y016992D01*
X020656Y016998D01*
X020600Y017000D01*
X021281Y016619D02*
X021309Y016571D01*
X021333Y016522D01*
X021353Y016470D01*
X021370Y016418D01*
X021383Y016364D01*
X021392Y016310D01*
X021398Y016255D01*
X021400Y016200D01*
X021398Y016144D01*
X021392Y016087D01*
X021382Y016032D01*
X021368Y015977D01*
X021351Y015924D01*
X021329Y015871D01*
X021304Y015821D01*
X020600Y015400D02*
X020546Y015402D01*
X020493Y015407D01*
X020439Y015416D01*
X020387Y015429D01*
X020336Y015445D01*
X020285Y015465D01*
X020236Y015487D01*
X020189Y015513D01*
X020144Y015543D01*
X020101Y015575D01*
X020060Y015610D01*
X020021Y015648D01*
X019985Y015688D01*
X019989Y016717D02*
X020025Y016756D01*
X020064Y016794D01*
X020104Y016828D01*
X020147Y016860D01*
X020192Y016888D01*
X020239Y016914D01*
X020288Y016937D01*
X020338Y016956D01*
X020389Y016972D01*
X020441Y016984D01*
X020493Y016993D01*
X020547Y016998D01*
X020600Y017000D01*
X019980Y014600D02*
X019980Y013600D01*
X020600Y013300D02*
X020654Y013302D01*
X020708Y013307D01*
X020761Y013316D01*
X020814Y013329D01*
X020865Y013345D01*
X020915Y013365D01*
X020964Y013388D01*
X021012Y013414D01*
X021057Y013443D01*
X021100Y013476D01*
X021141Y013511D01*
X021180Y013549D01*
X021216Y013589D01*
X021249Y013632D01*
X021279Y013677D01*
X021306Y013724D01*
X021295Y014497D02*
X021265Y014545D01*
X021232Y014590D01*
X021196Y014633D01*
X021158Y014674D01*
X021116Y014711D01*
X021072Y014746D01*
X021026Y014777D01*
X020977Y014806D01*
X020927Y014830D01*
X020875Y014851D01*
X020821Y014869D01*
X020767Y014882D01*
X020712Y014892D01*
X020656Y014898D01*
X020600Y014900D01*
X021281Y014519D02*
X021309Y014471D01*
X021333Y014422D01*
X021353Y014370D01*
X021370Y014318D01*
X021383Y014264D01*
X021392Y014210D01*
X021398Y014155D01*
X021400Y014100D01*
X021398Y014044D01*
X021392Y013987D01*
X021382Y013932D01*
X021368Y013877D01*
X021351Y013824D01*
X021329Y013771D01*
X021304Y013721D01*
X020600Y013300D02*
X020546Y013302D01*
X020493Y013307D01*
X020439Y013316D01*
X020387Y013329D01*
X020336Y013345D01*
X020285Y013365D01*
X020236Y013387D01*
X020189Y013413D01*
X020144Y013443D01*
X020101Y013475D01*
X020060Y013510D01*
X020021Y013548D01*
X019985Y013588D01*
X019989Y014617D02*
X020025Y014656D01*
X020064Y014694D01*
X020104Y014728D01*
X020147Y014760D01*
X020192Y014788D01*
X020239Y014814D01*
X020288Y014837D01*
X020338Y014856D01*
X020389Y014872D01*
X020441Y014884D01*
X020493Y014893D01*
X020547Y014898D01*
X020600Y014900D01*
X018200Y012100D02*
X017900Y012100D01*
X017600Y012100D01*
X017600Y011900D02*
X017900Y011900D01*
X018200Y011900D01*
X014500Y011900D02*
X014200Y011900D01*
X013900Y011900D01*
X013900Y012100D02*
X014200Y012100D01*
X014500Y012100D01*
X008900Y016300D02*
X008600Y016300D01*
X008300Y016300D01*
X008300Y016500D02*
X008600Y016500D01*
X008900Y016500D01*
D22*
X015970Y017200D02*
X015970Y015200D01*
D23*
X015605Y015450D03*
X015615Y015950D03*
X015605Y016450D03*
X015605Y016950D03*
X017595Y016950D03*
X017595Y016450D03*
X017595Y015950D03*
X017595Y015450D03*
M02*
