%
M48
M72
T01C0.0120
T02C0.0320
T03C0.0394
T04C0.0400
T05C0.1260
T06C0.1300
%
T01
X11300Y15460
X10900Y16860
X10780Y17340
X11360Y17080
X11620Y17340
X12040Y17340
X11560Y18840
X12240Y19980
X10340Y19860
X12040Y22460
X12400Y22460
X9540Y23260
X9540Y24860
X7860Y21980
X7600Y19800
X7600Y19440
X8120Y18920
X4960Y22620
X4760Y22300
X15800Y19660
X17220Y16700
T02
X17900Y17900
X17900Y18900
X15900Y18900
X15900Y17900
X15900Y14400
X17900Y14400
X19900Y12600
X18900Y11800
X18900Y10800
X17650Y11300
X16900Y10800
X16900Y11800
X15400Y11800
X15400Y10800
X14350Y11300
X13600Y10800
X13600Y11800
X8600Y15900
X8600Y16900
X19800Y17700
X20100Y16200
X21100Y16200
X21800Y17700
X21100Y14100
X20100Y14100
X21900Y12600
T03
X18450Y8200
X17950Y7200
X17450Y8200
X16950Y7200
X16450Y8200
X15950Y7200
X15450Y8200
X14950Y7200
X12050Y8200
X11550Y7200
X11050Y8200
X10550Y7200
X10050Y8200
X9550Y7200
X9050Y8200
X8550Y7200
X13150Y20700
X13650Y21700
X14150Y20700
X14650Y21700
X15150Y20700
X15650Y21700
X16150Y20700
X16650Y21700
T04
X14100Y17200
X14100Y16200
X11700Y11800
X11700Y10800
X10700Y10800
X10700Y11800
X9700Y11800
X9700Y10800
X8100Y10700
X8100Y9700
X8100Y12400
X8100Y13400
X7600Y23600
X7600Y24600
X8600Y24600
X8600Y23600
X6600Y23600
X6600Y24600
X5600Y24600
X5600Y23600
X4600Y23600
X4600Y24600
X3600Y24600
X3600Y23600
X2600Y23600
X2600Y24600
X1600Y24600
X1600Y23600
T05
X12650Y24200
X17150Y24200
X18950Y4700
X14450Y4700
X12550Y4700
X8050Y4700
T06
X1600Y1600
X21100Y1600
X1600Y27100
M30
