G75*
G70*
%OFA0B0*%
%FSLAX24Y24*%
%IPPOS*%
%LPD*%
%AMOC8*
5,1,8,0,0,1.08239X$1,22.5*
%
%ADD10R,0.0500X0.0220*%
%ADD11R,0.0220X0.0500*%
%ADD12C,0.0740*%
%ADD13R,0.0740X0.0740*%
%ADD14OC8,0.0600*%
%ADD15OC8,0.0520*%
%ADD16R,0.0800X0.0260*%
%ADD17C,0.0600*%
%ADD18C,0.0120*%
%ADD19C,0.0060*%
%ADD20C,0.0280*%
D10*
X009510Y015298D03*
X009510Y015613D03*
X009510Y015928D03*
X009510Y016243D03*
X009510Y016557D03*
X009510Y016872D03*
X009510Y017187D03*
X009510Y017502D03*
X012890Y017502D03*
X012890Y017187D03*
X012890Y016872D03*
X012890Y016557D03*
X012890Y016243D03*
X012890Y015928D03*
X012890Y015613D03*
X012890Y015298D03*
D11*
X012302Y014710D03*
X011987Y014710D03*
X011672Y014710D03*
X011357Y014710D03*
X011043Y014710D03*
X010728Y014710D03*
X010413Y014710D03*
X010098Y014710D03*
X010098Y018090D03*
X010413Y018090D03*
X010728Y018090D03*
X011043Y018090D03*
X011357Y018090D03*
X011672Y018090D03*
X011987Y018090D03*
X012302Y018090D03*
D12*
X014100Y017200D03*
X014100Y016200D03*
X014150Y020700D03*
X013650Y021700D03*
X013150Y020700D03*
X014650Y021700D03*
X015150Y020700D03*
X015650Y021700D03*
X016150Y020700D03*
X016450Y008200D03*
X015950Y007200D03*
X015450Y008200D03*
X016950Y007200D03*
X017450Y008200D03*
X017950Y007200D03*
X018450Y008200D03*
X012050Y008200D03*
X011550Y007200D03*
X011050Y008200D03*
X010550Y007200D03*
X010050Y008200D03*
X009550Y007200D03*
X009050Y008200D03*
D13*
X008550Y007200D03*
X014950Y007200D03*
X016650Y021700D03*
D14*
X011700Y011800D03*
X011700Y010800D03*
X010700Y010800D03*
X010700Y011800D03*
X009700Y011800D03*
X009700Y010800D03*
X008600Y023600D03*
X008600Y024600D03*
X007600Y024600D03*
X007600Y023600D03*
X006600Y023600D03*
X006600Y024600D03*
X005600Y024600D03*
X005600Y023600D03*
X004600Y023600D03*
X004600Y024600D03*
X003600Y024600D03*
X003600Y023600D03*
X002600Y023600D03*
X002600Y024600D03*
X001600Y024600D03*
X001600Y023600D03*
D15*
X008600Y016900D03*
X008600Y015900D03*
X013600Y011800D03*
X014350Y011300D03*
X013600Y010800D03*
X015400Y010800D03*
X015400Y011800D03*
X016900Y011800D03*
X017650Y011300D03*
X016900Y010800D03*
X018900Y010800D03*
X018900Y011800D03*
X019900Y012600D03*
X020100Y014100D03*
X021100Y014100D03*
X021900Y012600D03*
X021100Y016200D03*
X020100Y016200D03*
X019800Y017700D03*
X021800Y017700D03*
X017900Y017900D03*
X017900Y018900D03*
X015900Y018900D03*
X015900Y017900D03*
X015900Y014400D03*
X017900Y014400D03*
D16*
X018110Y015450D03*
X018110Y015950D03*
X018110Y016450D03*
X018110Y016950D03*
X015690Y016950D03*
X015690Y016450D03*
X015690Y015950D03*
X015690Y015450D03*
D17*
X008400Y009700D02*
X007800Y009700D01*
X007800Y010700D02*
X008400Y010700D01*
X008400Y012400D02*
X007800Y012400D01*
X007800Y013400D02*
X008400Y013400D01*
D18*
X008100Y013400D02*
X008100Y012400D01*
X008100Y010700D01*
X008140Y010740D01*
X008140Y010800D01*
X009700Y010800D01*
X008100Y010700D02*
X008100Y009700D01*
X008140Y009660D01*
X008140Y009100D01*
X009040Y008200D01*
X009050Y008200D01*
X010550Y007200D02*
X010560Y007200D01*
X011040Y007680D01*
X011040Y008200D01*
X011050Y008200D01*
X012050Y008200D01*
X014340Y011300D02*
X014350Y011300D01*
X014340Y011300D02*
X014340Y015960D01*
X014100Y016200D01*
X014640Y016740D01*
X014640Y020140D01*
X014140Y020640D01*
X014150Y020700D01*
X014180Y020740D01*
X014180Y021240D01*
X014640Y021700D01*
X014650Y021700D01*
X014150Y020700D02*
X013150Y020700D01*
X015150Y020700D02*
X015160Y020700D01*
X016480Y019380D01*
X016480Y011220D01*
X016900Y010800D01*
X015400Y011800D02*
X015400Y015140D01*
X015660Y015400D01*
X015690Y015450D01*
X015700Y015460D01*
X017900Y017900D02*
X017900Y018900D01*
X018110Y016950D02*
X018120Y016940D01*
X018900Y016940D01*
X018900Y012600D01*
X019900Y012600D01*
X018900Y012600D02*
X018900Y011800D01*
X020100Y014100D02*
X020100Y016200D01*
X018450Y008200D02*
X017450Y008200D01*
X017440Y008200D01*
X017440Y007680D01*
X016960Y007200D01*
X016950Y007200D01*
X009920Y016260D02*
X009920Y016740D01*
X009800Y016860D01*
X009520Y016860D01*
X009510Y016872D01*
X009460Y016900D01*
X008600Y016900D01*
X009100Y016520D02*
X009100Y015900D01*
X009460Y015900D01*
X009510Y015928D01*
X009520Y015940D01*
X009510Y016243D02*
X009580Y016260D01*
X009920Y016260D01*
X009520Y016260D02*
X009510Y016243D01*
X009460Y016520D02*
X009510Y016557D01*
X009520Y016560D01*
X009460Y016520D02*
X009100Y016520D01*
X009510Y016872D02*
X009520Y016880D01*
X009100Y015900D02*
X008600Y015900D01*
D19*
X008300Y015640D02*
X008120Y015820D01*
X008120Y018920D01*
X007600Y019440D02*
X007240Y019800D01*
X007240Y021340D01*
X004980Y023600D01*
X004600Y023600D01*
X004040Y023540D02*
X004040Y024160D01*
X003600Y024600D01*
X003600Y023600D02*
X003600Y023460D01*
X004760Y022300D01*
X004960Y022620D02*
X004040Y023540D01*
X004600Y024600D02*
X004600Y025040D01*
X008780Y025040D01*
X009160Y024660D01*
X009160Y018480D01*
X010080Y017560D01*
X010080Y015620D01*
X009520Y015620D01*
X009510Y015613D01*
X009500Y015300D02*
X009510Y015298D01*
X009500Y015300D02*
X008600Y015300D01*
X008300Y015640D01*
X007860Y015560D02*
X007860Y021980D01*
X008860Y022720D02*
X008040Y023540D01*
X008040Y023780D01*
X007780Y024040D01*
X005600Y024040D01*
X005600Y023600D01*
X005600Y024160D02*
X005600Y024600D01*
X005600Y024160D02*
X008660Y024160D01*
X009040Y023780D01*
X009040Y017980D01*
X009500Y017520D01*
X009510Y017502D01*
X009500Y017200D02*
X009510Y017187D01*
X009500Y017200D02*
X008860Y017200D01*
X008860Y022720D01*
X009540Y023260D02*
X009540Y018640D01*
X010080Y018100D01*
X010098Y018090D01*
X010340Y018160D02*
X010340Y019860D01*
X011560Y018840D02*
X011040Y018320D01*
X011040Y018120D01*
X011043Y018090D01*
X011040Y018080D01*
X010980Y018020D01*
X010980Y017780D01*
X010800Y017600D01*
X010520Y017600D01*
X010520Y015740D01*
X009700Y014920D01*
X009700Y011800D01*
X009880Y011360D02*
X008840Y011360D01*
X008840Y014580D01*
X007860Y015560D01*
X010098Y014710D02*
X010100Y014700D01*
X010140Y014660D01*
X010140Y011620D01*
X009880Y011360D01*
X010260Y011360D02*
X010700Y011800D01*
X011140Y011860D02*
X011140Y011240D01*
X010700Y010800D01*
X010260Y011360D02*
X010260Y010240D01*
X011760Y010240D01*
X012560Y011040D01*
X012560Y014960D01*
X012880Y015280D01*
X012890Y015298D01*
X012302Y014710D02*
X012300Y014700D01*
X012240Y014640D01*
X012240Y012340D01*
X011700Y011800D01*
X011140Y011860D02*
X011920Y012640D01*
X011920Y014640D01*
X011980Y014700D01*
X011987Y014710D01*
X011740Y014780D02*
X011740Y016680D01*
X012500Y017440D01*
X012500Y017740D01*
X012560Y017800D01*
X012560Y020400D01*
X012040Y020920D01*
X012040Y022460D01*
X011920Y022220D02*
X010780Y023360D01*
X010780Y023620D01*
X009540Y024860D01*
X008720Y025280D02*
X002040Y025280D01*
X002040Y024040D01*
X001600Y023600D01*
X007600Y023600D02*
X007600Y019800D01*
X010340Y018160D02*
X010400Y018100D01*
X010413Y018090D01*
X010660Y018160D02*
X010660Y023340D01*
X008720Y025280D01*
X011920Y022220D02*
X011920Y018160D01*
X011980Y018100D01*
X011987Y018090D01*
X011740Y018020D02*
X011740Y017640D01*
X012040Y017340D01*
X011620Y017340D02*
X011620Y016980D01*
X011040Y016400D01*
X011040Y014720D01*
X011043Y014710D01*
X010800Y014780D02*
X010800Y016760D01*
X010900Y016860D01*
X010640Y017200D02*
X010780Y017340D01*
X010640Y017200D02*
X010640Y015680D01*
X010480Y015520D01*
X010480Y014780D01*
X010420Y014720D01*
X010413Y014710D01*
X010728Y014710D02*
X010740Y014720D01*
X010800Y014780D01*
X011300Y014760D02*
X011300Y015460D01*
X011300Y014760D02*
X011340Y014720D01*
X011357Y014710D01*
X011672Y014710D02*
X011680Y014720D01*
X011740Y014780D01*
X011360Y017080D02*
X011360Y018080D01*
X011357Y018090D01*
X011672Y018090D02*
X011680Y018080D01*
X011740Y018020D01*
X012240Y018160D02*
X012240Y019980D01*
X012680Y020460D02*
X012400Y020740D01*
X012400Y022460D01*
X012680Y020460D02*
X012680Y017720D01*
X012880Y017520D01*
X012890Y017502D01*
X012900Y017200D02*
X012890Y017187D01*
X012900Y017200D02*
X014100Y017200D01*
X014940Y015940D02*
X014940Y007200D01*
X014950Y007200D01*
X015940Y007200D02*
X015940Y006700D01*
X018960Y006700D01*
X018960Y010180D01*
X018080Y011060D01*
X018080Y013980D01*
X018060Y014000D01*
X016860Y014000D01*
X016860Y020900D01*
X016360Y021200D01*
X015660Y021200D01*
X015660Y021700D01*
X015650Y021700D01*
X015800Y019660D02*
X014960Y019020D01*
X014960Y015940D01*
X015680Y015940D01*
X015690Y015950D01*
X015700Y015960D01*
X015700Y016440D01*
X015690Y016450D01*
X015690Y016950D02*
X015900Y017160D01*
X015900Y017900D01*
X017220Y016700D02*
X017580Y016700D01*
X017580Y014720D01*
X017900Y014400D01*
X018060Y014000D02*
X018300Y014240D01*
X018300Y015280D01*
X018140Y015440D01*
X018110Y015450D01*
X018120Y015460D01*
X018120Y015940D01*
X018110Y015950D01*
X018110Y016450D02*
X018100Y016460D01*
X017880Y016460D01*
X017640Y016700D01*
X017580Y016700D01*
X014960Y015940D02*
X014940Y015940D01*
X012302Y018090D02*
X012300Y018100D01*
X012240Y018160D01*
X010728Y018090D02*
X010720Y018100D01*
X010660Y018160D01*
X009560Y007200D02*
X009550Y007200D01*
X009560Y007200D02*
X010060Y006700D01*
X015940Y006700D01*
X015940Y007200D02*
X015950Y007200D01*
X021900Y012600D02*
X021100Y013400D01*
X021100Y014100D01*
X021100Y016200D02*
X021800Y016900D01*
X021800Y017700D01*
D20*
X017220Y016700D03*
X015800Y019660D03*
X012400Y022460D03*
X012040Y022460D03*
X012240Y019980D03*
X011560Y018840D03*
X011620Y017340D03*
X011360Y017080D03*
X010900Y016860D03*
X010780Y017340D03*
X012040Y017340D03*
X011300Y015460D03*
X008120Y018920D03*
X007600Y019440D03*
X007600Y019800D03*
X007860Y021980D03*
X009540Y023260D03*
X009540Y024860D03*
X010340Y019860D03*
X004960Y022620D03*
X004760Y022300D03*
M02*
