G75*
G70*
%OFA0B0*%
%FSLAX24Y24*%
%IPPOS*%
%LPD*%
%AMOC8*
5,1,8,0,0,1.08239X$1,22.5*
%
%ADD10C,0.0740*%
%ADD11R,0.0740X0.0740*%
%ADD12OC8,0.0600*%
%ADD13OC8,0.0520*%
%ADD14C,0.0600*%
%ADD15C,0.0120*%
%ADD16C,0.0060*%
%ADD17C,0.0280*%
D10*
X009050Y008200D03*
X009550Y007200D03*
X010050Y008200D03*
X010550Y007200D03*
X011050Y008200D03*
X011550Y007200D03*
X012050Y008200D03*
X015450Y008200D03*
X015950Y007200D03*
X016450Y008200D03*
X016950Y007200D03*
X017450Y008200D03*
X017950Y007200D03*
X018450Y008200D03*
X014100Y016200D03*
X014100Y017200D03*
X014150Y020700D03*
X013650Y021700D03*
X013150Y020700D03*
X014650Y021700D03*
X015150Y020700D03*
X015650Y021700D03*
X016150Y020700D03*
D11*
X016650Y021700D03*
X014950Y007200D03*
X008550Y007200D03*
D12*
X009700Y010800D03*
X009700Y011800D03*
X010700Y011800D03*
X010700Y010800D03*
X011700Y010800D03*
X011700Y011800D03*
X008600Y023600D03*
X008600Y024600D03*
X007600Y024600D03*
X007600Y023600D03*
X006600Y023600D03*
X006600Y024600D03*
X005600Y024600D03*
X005600Y023600D03*
X004600Y023600D03*
X004600Y024600D03*
X003600Y024600D03*
X003600Y023600D03*
X002600Y023600D03*
X002600Y024600D03*
X001600Y024600D03*
X001600Y023600D03*
D13*
X008600Y016900D03*
X008600Y015900D03*
X013600Y011800D03*
X014350Y011300D03*
X013600Y010800D03*
X015400Y010800D03*
X015400Y011800D03*
X016900Y011800D03*
X017650Y011300D03*
X016900Y010800D03*
X018900Y010800D03*
X018900Y011800D03*
X019900Y012600D03*
X020100Y014100D03*
X021100Y014100D03*
X021900Y012600D03*
X021100Y016200D03*
X020100Y016200D03*
X019800Y017700D03*
X021800Y017700D03*
X017900Y017900D03*
X017900Y018900D03*
X015900Y018900D03*
X015900Y017900D03*
X015900Y014400D03*
X017900Y014400D03*
D14*
X008400Y009700D02*
X007800Y009700D01*
X007800Y010700D02*
X008400Y010700D01*
X008400Y012400D02*
X007800Y012400D01*
X007800Y013400D02*
X008400Y013400D01*
D15*
X008100Y013400D02*
X008100Y016400D01*
X008600Y016900D01*
X008600Y015900D02*
X013100Y011400D01*
X013120Y011400D01*
X013160Y011360D01*
X013600Y011800D01*
X013640Y011840D01*
X013640Y012140D01*
X015900Y014400D01*
X016320Y014820D01*
X017860Y014820D01*
X017860Y017860D01*
X017900Y017900D01*
X019600Y017900D01*
X019800Y017700D01*
X020100Y014100D02*
X019320Y013320D01*
X019320Y010840D01*
X018940Y010840D01*
X018900Y010800D01*
X018460Y010800D01*
X018460Y008200D01*
X018450Y008200D01*
X017950Y007200D02*
X017700Y007200D01*
X017160Y007740D01*
X016920Y007740D01*
X016460Y008200D01*
X016450Y008200D01*
X016420Y008240D01*
X016420Y010800D01*
X016900Y010800D01*
X016420Y010800D02*
X015400Y010800D01*
X013600Y010800D01*
X013560Y010760D01*
X012860Y010760D01*
X010340Y008240D01*
X010050Y008200D01*
X010300Y008200D01*
X010840Y007660D01*
X011080Y007660D01*
X011540Y007200D01*
X011550Y007200D01*
X012050Y008200D02*
X015450Y008200D01*
X015460Y008200D01*
X015920Y007740D01*
X016160Y007740D01*
X016700Y007200D01*
X016950Y007200D01*
X018160Y010800D02*
X018460Y010800D01*
X018160Y010800D02*
X017660Y011300D01*
X017650Y011300D01*
X017600Y011320D01*
X017540Y011380D01*
X015820Y011380D01*
X015400Y011800D01*
X014860Y011800D01*
X014360Y011300D01*
X014350Y011300D01*
X013160Y011360D02*
X012600Y010800D01*
X011700Y010800D01*
X009300Y008200D02*
X009050Y008200D01*
X009300Y008200D02*
X009840Y007660D01*
X010080Y007660D01*
X010540Y007200D01*
X010550Y007200D01*
X016900Y011800D02*
X018900Y011800D01*
X016150Y020700D02*
X016140Y020700D01*
X015680Y021160D01*
X015440Y021160D01*
X014900Y021700D01*
X014650Y021700D01*
X014360Y021240D02*
X014900Y020700D01*
X015150Y020700D01*
X014360Y021240D02*
X014120Y021240D01*
X013660Y021700D01*
X013650Y021700D01*
D16*
X012400Y022460D02*
X010260Y024600D01*
X008600Y024600D01*
X008040Y025040D02*
X007600Y024600D01*
X008040Y025040D02*
X009360Y025040D01*
X009540Y024860D01*
X010520Y024160D02*
X007040Y024160D01*
X006600Y024600D01*
X006600Y023600D02*
X007040Y023160D01*
X009440Y023160D01*
X009540Y023260D01*
X008600Y023600D02*
X010800Y023600D01*
X010800Y021420D01*
X012240Y019980D01*
X011560Y018840D02*
X015840Y018840D01*
X015900Y018900D01*
X015800Y019660D02*
X016660Y019660D01*
X016660Y021700D01*
X016650Y021700D01*
X015900Y017900D02*
X012600Y017900D01*
X012040Y017340D01*
X011620Y017340D02*
X010620Y018340D01*
X010620Y023000D01*
X003200Y023000D01*
X002600Y023600D01*
X002040Y023540D02*
X002040Y024600D01*
X001600Y024600D01*
X001160Y025040D02*
X002160Y025040D01*
X002600Y024600D01*
X002040Y023540D02*
X002700Y022880D01*
X007320Y022880D01*
X010340Y019860D01*
X009000Y018580D02*
X008820Y018580D01*
X007600Y019800D01*
X007600Y019440D02*
X008120Y018920D01*
X009000Y018580D02*
X009000Y016840D01*
X010160Y015680D01*
X011080Y015680D01*
X011300Y015460D01*
X011740Y016700D02*
X017220Y016700D01*
X012040Y022460D02*
X012040Y022640D01*
X010520Y024160D01*
X007860Y021980D02*
X007220Y022620D01*
X004960Y022620D01*
X004760Y022300D02*
X007360Y022300D01*
X007360Y021420D01*
X010780Y018000D01*
X010780Y017340D01*
X010900Y016860D02*
X007240Y020520D01*
X007240Y022040D01*
X002540Y022040D01*
X001160Y023420D01*
X001160Y025040D01*
X011360Y017080D02*
X011740Y016700D01*
X008560Y007200D02*
X008550Y007200D01*
X008560Y007200D02*
X009060Y006700D01*
X014440Y006700D01*
X014940Y007200D01*
X014950Y007200D01*
D17*
X011300Y015460D03*
X010900Y016860D03*
X010780Y017340D03*
X011360Y017080D03*
X011620Y017340D03*
X012040Y017340D03*
X011560Y018840D03*
X012240Y019980D03*
X010340Y019860D03*
X012040Y022460D03*
X012400Y022460D03*
X009540Y023260D03*
X009540Y024860D03*
X007860Y021980D03*
X007600Y019800D03*
X007600Y019440D03*
X008120Y018920D03*
X004960Y022620D03*
X004760Y022300D03*
X015800Y019660D03*
X017220Y016700D03*
M02*
