G75*
G70*
%OFA0B0*%
%FSLAX24Y24*%
%IPPOS*%
%LPD*%
%AMOC8*
5,1,8,0,0,1.08239X$1,22.5*
%
%ADD10C,0.0480*%
%ADD11OC8,0.0480*%
%ADD12C,0.0740*%
%ADD13C,0.0591*%
%ADD14OC8,0.0600*%
%ADD15C,0.2000*%
%ADD16C,0.0600*%
%ADD17R,0.0740X0.0740*%
%ADD18R,0.0800X0.0260*%
%ADD19C,0.0120*%
%ADD20C,0.0060*%
%ADD21C,0.0260*%
D10*
X002600Y030190D02*
X002600Y030670D01*
X003600Y030670D02*
X003600Y030190D01*
X004600Y030190D02*
X004600Y030670D01*
X005600Y030670D02*
X005600Y030190D01*
X006600Y030190D02*
X006600Y030670D01*
X007600Y030670D02*
X007600Y030190D01*
X008600Y030190D02*
X008600Y030670D01*
X009600Y030670D02*
X009600Y030190D01*
X010600Y030190D02*
X010600Y030670D01*
X011600Y030670D02*
X011600Y030190D01*
X012600Y030190D02*
X012600Y030670D01*
X013600Y030670D02*
X013600Y030190D01*
X014600Y030190D02*
X014600Y030670D01*
X015600Y030670D02*
X015600Y030190D01*
X016600Y030190D02*
X016600Y030670D01*
X017600Y030670D02*
X017600Y030190D01*
X018600Y030190D02*
X018600Y030670D01*
X019600Y030670D02*
X019600Y030190D01*
X020600Y030190D02*
X020600Y030670D01*
X021600Y030670D02*
X021600Y030190D01*
X021600Y036190D02*
X021600Y036670D01*
X020600Y036670D02*
X020600Y036190D01*
X019600Y036190D02*
X019600Y036670D01*
X018600Y036670D02*
X018600Y036190D01*
X017600Y036190D02*
X017600Y036670D01*
X016600Y036670D02*
X016600Y036190D01*
X015600Y036190D02*
X015600Y036670D01*
X014600Y036670D02*
X014600Y036190D01*
X013600Y036190D02*
X013600Y036670D01*
X012600Y036670D02*
X012600Y036190D01*
X011600Y036190D02*
X011600Y036670D01*
X010600Y036670D02*
X010600Y036190D01*
X009600Y036190D02*
X009600Y036670D01*
X008600Y036670D02*
X008600Y036190D01*
X007600Y036190D02*
X007600Y036670D01*
X006600Y036670D02*
X006600Y036190D01*
X005600Y036190D02*
X005600Y036670D01*
X004600Y036670D02*
X004600Y036190D01*
X003600Y036190D02*
X003600Y036670D01*
X002600Y036670D02*
X002600Y036190D01*
D11*
X001100Y008680D03*
X001600Y010430D03*
X002600Y010430D03*
X003100Y008680D03*
X002600Y012680D03*
X001600Y012680D03*
X001100Y014430D03*
X003100Y014430D03*
X009840Y015440D03*
X011100Y016930D03*
X011100Y018180D03*
X011600Y019680D03*
X012600Y019680D03*
X013100Y018180D03*
X013100Y016930D03*
X013070Y015420D03*
X011840Y015440D03*
X015070Y015420D03*
X012600Y024930D03*
X012100Y025680D03*
X011600Y024930D03*
X011100Y026930D03*
X011100Y028430D03*
X013100Y028430D03*
X013100Y026930D03*
X012600Y037930D03*
X012100Y038930D03*
X011600Y039680D03*
X012600Y039680D03*
X011600Y037930D03*
X013600Y037930D03*
X014100Y039680D03*
X015100Y039680D03*
X015600Y037930D03*
D12*
X016570Y038040D03*
X016570Y039820D03*
X019130Y039820D03*
X019130Y038040D03*
X015100Y028180D03*
X015100Y027180D03*
X015100Y026180D03*
X015100Y025180D03*
X016100Y025680D03*
X016100Y026680D03*
X016100Y027680D03*
X015100Y021180D03*
X015100Y020180D03*
X015100Y019180D03*
X015100Y018180D03*
X016100Y018680D03*
X016100Y019680D03*
X016100Y020680D03*
X008600Y019680D03*
X008600Y018680D03*
X008600Y017680D03*
X008600Y016680D03*
X007600Y017180D03*
X007600Y018180D03*
X007600Y019180D03*
D13*
X007100Y023385D02*
X007100Y023975D01*
X006100Y023975D02*
X006100Y023385D01*
X004600Y023385D02*
X004600Y023975D01*
X003600Y023975D02*
X003600Y023385D01*
X002600Y023385D02*
X002600Y023975D01*
X001600Y023975D02*
X001600Y023385D01*
X001600Y027135D02*
X001600Y027725D01*
X002600Y027725D02*
X002600Y027135D01*
X003600Y027135D02*
X003600Y027725D01*
X004600Y027725D02*
X004600Y027135D01*
X006100Y027135D02*
X006100Y027725D01*
X007100Y027725D02*
X007100Y027135D01*
X008100Y027135D02*
X008100Y027725D01*
X009100Y027725D02*
X009100Y027135D01*
X009100Y023975D02*
X009100Y023385D01*
X008100Y023385D02*
X008100Y023975D01*
X007600Y038635D02*
X007600Y039225D01*
X008600Y039225D02*
X008600Y038635D01*
X009600Y038635D02*
X009600Y039225D01*
X005600Y039225D02*
X005600Y038635D01*
X004600Y038635D02*
X004600Y039225D01*
D14*
X007745Y013580D03*
X008285Y012580D03*
X008825Y013580D03*
X009365Y012580D03*
X009905Y013580D03*
X010445Y012580D03*
X010985Y013580D03*
X011525Y012580D03*
X012065Y013580D03*
X012605Y012580D03*
X013145Y013580D03*
X013685Y012580D03*
X014225Y013580D03*
X014765Y012580D03*
X015305Y013580D03*
X020400Y002130D03*
X020400Y001130D03*
X021400Y001130D03*
X021400Y002130D03*
X022400Y002130D03*
X022400Y001130D03*
D15*
X018085Y013080D03*
X004965Y013080D03*
D16*
X020500Y004180D03*
X021500Y004180D03*
D17*
X016100Y017680D03*
X016100Y024680D03*
X007600Y020180D03*
D18*
X010890Y021180D03*
X010890Y021680D03*
X010890Y022180D03*
X010890Y022680D03*
X013310Y022680D03*
X013310Y022180D03*
X013310Y021680D03*
X013310Y021180D03*
D19*
X012620Y022210D02*
X012620Y019730D01*
X012600Y019680D01*
X012600Y019670D01*
X013080Y019190D01*
X013080Y018230D01*
X013100Y018180D01*
X013100Y016930D01*
X011840Y015490D02*
X011840Y015440D01*
X011840Y015430D01*
X011040Y014630D01*
X012080Y013590D01*
X012065Y013580D01*
X011000Y013590D02*
X010985Y013580D01*
X011000Y013590D02*
X011000Y014590D01*
X011040Y014630D01*
X011840Y015490D02*
X011620Y015710D01*
X011620Y019630D01*
X011600Y019680D01*
X011600Y020430D01*
X010900Y021130D01*
X010890Y021180D01*
X010900Y021190D01*
X012620Y022210D02*
X013180Y022770D01*
X013310Y022680D01*
X013320Y022690D01*
X011600Y024410D01*
X011600Y024930D01*
X012100Y025680D02*
X012100Y029930D01*
X012600Y030430D01*
X012560Y030470D01*
X012560Y035430D01*
X011600Y036390D01*
X011600Y036430D01*
X011600Y036970D01*
X011560Y036970D01*
X009600Y038930D01*
X011640Y038470D02*
X011640Y037970D01*
X011600Y037930D01*
X011600Y036970D01*
X012600Y036430D02*
X012600Y037930D01*
X012600Y039680D01*
X012100Y038930D02*
X011640Y038470D01*
X012600Y037930D02*
X013600Y037930D01*
X015100Y038670D02*
X014100Y039670D01*
X014100Y039680D01*
X015100Y038670D02*
X015100Y028890D01*
X016080Y027910D01*
X016080Y027730D01*
X016100Y027680D01*
X016100Y027670D01*
X015600Y027170D01*
X015600Y026690D01*
X015140Y026230D01*
X015100Y026180D01*
X015100Y026190D01*
X013860Y026190D01*
X012600Y024930D01*
X014500Y023030D01*
X014500Y019790D01*
X015100Y019190D01*
X015100Y019180D01*
X015100Y020180D02*
X015100Y021180D01*
X015100Y018180D02*
X015100Y015450D01*
X015070Y015420D01*
X015305Y013580D02*
X015300Y013570D01*
X015300Y013150D01*
X008380Y013150D01*
X008380Y014710D01*
X009100Y015430D01*
X009100Y020630D01*
X006100Y023630D01*
X006100Y023680D01*
X006100Y027430D01*
X004600Y027430D02*
X004600Y023680D01*
X004640Y024070D01*
X008580Y020130D01*
X008580Y019730D01*
X008600Y019680D01*
X008600Y019670D01*
X008100Y019170D01*
X008100Y018690D01*
X007600Y018190D01*
X007600Y018180D01*
X007580Y018130D01*
X007100Y017650D01*
X007100Y016990D01*
X002640Y012530D01*
X002600Y012680D01*
X002600Y010430D01*
X003100Y008690D02*
X003100Y008680D01*
X003100Y008690D02*
X007560Y013150D01*
X008380Y013150D01*
X008600Y016680D02*
X008600Y017680D01*
X008100Y017690D02*
X008100Y018170D01*
X008600Y018670D01*
X008600Y018680D01*
X008100Y017690D02*
X007600Y017190D01*
X007600Y017180D01*
X009100Y023680D02*
X009100Y027430D01*
X013100Y026930D02*
X013100Y028430D01*
X013100Y028470D01*
X013600Y028970D01*
X013600Y030430D01*
X015100Y028180D02*
X015100Y027180D01*
X016100Y026670D02*
X015600Y026170D01*
X015600Y025690D01*
X015100Y025190D01*
X015100Y025180D01*
X016100Y026670D02*
X016100Y026680D01*
D20*
X016100Y025680D02*
X016100Y025670D01*
X016580Y025190D01*
X016580Y019170D01*
X016100Y018690D01*
X016100Y018680D01*
X015620Y018170D02*
X016100Y017690D01*
X016100Y017680D01*
X015620Y018170D02*
X015620Y024190D01*
X016100Y024670D01*
X016100Y024680D01*
X014340Y022690D02*
X014340Y013690D01*
X014240Y013590D01*
X014225Y013580D01*
X013145Y013580D02*
X013140Y013590D01*
X013140Y015350D01*
X013070Y015420D01*
X011100Y018180D02*
X011100Y018190D01*
X010380Y018910D01*
X010380Y020210D01*
X010360Y020210D01*
X010380Y020210D02*
X010380Y021350D01*
X010880Y021850D01*
X010900Y021850D01*
X010900Y021690D01*
X010890Y021680D01*
X010900Y021850D02*
X010900Y022170D01*
X010890Y022180D01*
X010890Y022680D02*
X010900Y022690D01*
X010760Y022830D01*
X010760Y028090D01*
X011100Y028430D01*
X011760Y029270D02*
X011760Y025270D01*
X014340Y022690D01*
X013820Y022870D02*
X013820Y022450D01*
X013580Y022450D01*
X013310Y022180D01*
X013310Y021680D02*
X013320Y021670D01*
X013320Y021190D01*
X013310Y021180D01*
X014100Y020390D01*
X014100Y019930D01*
X013820Y022870D02*
X012640Y024050D01*
X011220Y025790D02*
X011100Y025910D01*
X011100Y026930D01*
X011760Y029270D02*
X010600Y030430D01*
X009600Y030430D02*
X009580Y030410D01*
X009580Y015670D01*
X008840Y014930D01*
X008840Y013590D01*
X008825Y013580D01*
X009900Y013590D02*
X009905Y013580D01*
X009900Y013590D02*
X009900Y015370D01*
X009840Y015430D01*
X009840Y015440D01*
X008100Y023680D02*
X008100Y024790D01*
X007980Y024910D01*
X007100Y027430D02*
X008440Y028770D01*
X008600Y036430D02*
X008600Y038930D01*
X007600Y038930D02*
X007600Y036430D01*
X003600Y030430D02*
X003600Y027430D01*
X003600Y023680D01*
X001100Y014430D02*
X001100Y013190D01*
X001600Y012690D01*
X001600Y012680D01*
X001600Y010430D02*
X001600Y009190D01*
X001100Y008690D01*
X001100Y008680D01*
X016940Y005590D02*
X016940Y034350D01*
X015260Y036030D01*
X015260Y037590D01*
X015600Y037930D01*
X015600Y036430D02*
X021260Y030770D01*
X021260Y009810D01*
X022400Y008420D01*
X022400Y002130D01*
X021800Y001730D02*
X022400Y001130D01*
X021800Y001730D02*
X021800Y003870D01*
X021500Y004170D01*
X021500Y004180D01*
X020400Y002130D02*
X016940Y005590D01*
X019420Y019850D02*
X019420Y029250D01*
X020600Y030430D01*
D21*
X019420Y019850D03*
X014100Y019930D03*
X012640Y024050D03*
X011220Y025790D03*
X008440Y028770D03*
X007980Y024910D03*
X010360Y020210D03*
M02*
