%
M48
M72
T01C0.0120
T02C0.0320
T03C0.0394
T04C0.0400
T05C0.1260
T06C0.1300
%
T01
X10360Y20210
X12640Y24050
X11220Y25790
X8440Y28770
X7980Y24910
X14100Y19930
X19420Y19850
T02
X15070Y15420
X13070Y15420
X13100Y16930
X13100Y18180
X12600Y19680
X11600Y19680
X11100Y18180
X11100Y16930
X11840Y15440
X9840Y15440
X11600Y24930
X12100Y25680
X12600Y24930
X13100Y26930
X13100Y28430
X12600Y30430
X11600Y30430
X10600Y30430
X9600Y30430
X8600Y30430
X7600Y30430
X6600Y30430
X5600Y30430
X4600Y30430
X3600Y30430
X2600Y30430
X2600Y36430
X3600Y36430
X4600Y36430
X5600Y36430
X6600Y36430
X7600Y36430
X8600Y36430
X9600Y36430
X10600Y36430
X11600Y36430
X12600Y36430
X13600Y36430
X14600Y36430
X15600Y36430
X15600Y37930
X15100Y39680
X14100Y39680
X13600Y37930
X12600Y37930
X12100Y38930
X11600Y39680
X12600Y39680
X11600Y37930
X13600Y30430
X14600Y30430
X15600Y30430
X16600Y30430
X17600Y30430
X18600Y30430
X19600Y30430
X20600Y30430
X21600Y30430
X21600Y36430
X20600Y36430
X19600Y36430
X18600Y36430
X17600Y36430
X16600Y36430
X11100Y28430
X11100Y26930
X3100Y14430
X2600Y12680
X1600Y12680
X1100Y14430
X1600Y10430
X2600Y10430
X3100Y8680
X1100Y8680
T03
X7600Y17180
X7600Y18180
X7600Y19180
X7600Y20180
X8600Y19680
X8600Y18680
X8600Y17680
X8600Y16680
X8100Y23680
X7100Y23680
X6100Y23680
X4600Y23680
X3600Y23680
X2600Y23680
X1600Y23680
X1600Y27430
X2600Y27430
X3600Y27430
X4600Y27430
X6100Y27430
X7100Y27430
X8100Y27430
X9100Y27430
X9100Y23680
X15100Y25180
X15100Y26180
X15100Y27180
X15100Y28180
X16100Y27680
X16100Y26680
X16100Y25680
X16100Y24680
X15100Y21180
X15100Y20180
X15100Y19180
X15100Y18180
X16100Y17680
X16100Y18680
X16100Y19680
X16100Y20680
X9600Y38930
X8600Y38930
X7600Y38930
X5600Y38930
X4600Y38930
T04
X16570Y38040
X16570Y39820
X19130Y39820
X19130Y38040
X15305Y13580
X14765Y12580
X14225Y13580
X13685Y12580
X13145Y13580
X12605Y12580
X12065Y13580
X11525Y12580
X10985Y13580
X10445Y12580
X9905Y13580
X9365Y12580
X8825Y13580
X8285Y12580
X7745Y13580
X20400Y2130
X20400Y1130
X21400Y1130
X21400Y2130
X22400Y2130
X22400Y1130
X21500Y4180
X20500Y4180
T05
X18600Y17180
X18600Y21680
X18600Y24180
X18600Y28680
X5100Y20680
X5100Y16180
T06
X2350Y6180
X4965Y13080
X18085Y13080
X20700Y6180
X20700Y39430
X2350Y39430
M30
