G75*
G70*
%OFA0B0*%
%FSLAX24Y24*%
%IPPOS*%
%LPD*%
%AMOC8*
5,1,8,0,0,1.08239X$1,22.5*
%
%ADD10C,0.0540*%
%ADD11C,0.0660*%
%ADD12C,0.1360*%
%ADD13OC8,0.0540*%
%ADD14OC8,0.0660*%
%ADD15C,0.0440*%
D10*
X017042Y001282D02*
X017522Y001282D01*
X017522Y002282D02*
X017042Y002282D01*
X017042Y003282D02*
X017522Y003282D01*
X017522Y004282D02*
X017042Y004282D01*
X017042Y005282D02*
X017522Y005282D01*
X017522Y006282D02*
X017042Y006282D01*
X017042Y007282D02*
X017522Y007282D01*
X020042Y007282D02*
X020522Y007282D01*
X020522Y006282D02*
X020042Y006282D01*
X020042Y005282D02*
X020522Y005282D01*
X020522Y004282D02*
X020042Y004282D01*
X020042Y003282D02*
X020522Y003282D01*
X020522Y002282D02*
X020042Y002282D01*
X020042Y001282D02*
X020522Y001282D01*
D11*
X022482Y001782D02*
X023082Y001782D01*
X023082Y002782D02*
X022482Y002782D01*
X022482Y003782D02*
X023082Y003782D01*
X023082Y006782D02*
X022482Y006782D01*
X022482Y007782D02*
X023082Y007782D01*
X023082Y008782D02*
X022482Y008782D01*
X020282Y010482D02*
X020282Y011082D01*
X019282Y011082D02*
X019282Y010482D01*
X018282Y010482D02*
X018282Y011082D01*
X015282Y011082D02*
X015282Y010482D01*
X014282Y010482D02*
X014282Y011082D01*
X013282Y011082D02*
X013282Y010482D01*
X011282Y005582D02*
X011282Y004982D01*
X010282Y004982D02*
X010282Y005582D01*
X009282Y005582D02*
X009282Y004982D01*
X008282Y004982D02*
X008282Y005582D01*
X007282Y005582D02*
X007282Y004982D01*
X006282Y004982D02*
X006282Y005582D01*
X003782Y004582D02*
X003782Y003982D01*
X002782Y003982D02*
X002782Y004582D01*
X001782Y004582D02*
X001782Y003982D01*
D12*
X002782Y010182D03*
D13*
X001282Y000982D03*
X001282Y002982D03*
X005782Y001282D03*
X007782Y001282D03*
X008782Y001282D03*
X010782Y001282D03*
X011782Y001282D03*
X013782Y001282D03*
X012282Y002782D03*
X011282Y002782D03*
X011782Y003532D03*
X009782Y002782D03*
X008782Y002782D03*
X009282Y003532D03*
X007282Y002782D03*
X006282Y002782D03*
X006782Y003532D03*
X013782Y004782D03*
X015782Y004782D03*
X017782Y008782D03*
X019782Y008782D03*
D14*
X015282Y008282D03*
X014282Y008282D03*
X014282Y007282D03*
X015282Y007282D03*
X015282Y006282D03*
X014282Y006282D03*
D15*
X016282Y007082D03*
X009382Y006482D03*
X006382Y006882D03*
X015982Y003282D03*
X015982Y002282D03*
M02*
