%
M48
M72
T01C0.0240
T02C0.0320
T03C0.0400
T04C0.1300
%
T01
X9382Y6482
X6382Y6882
X15982Y3282
X15982Y2282
X16282Y7082
T02
X1282Y982
X1282Y2982
X5782Y1282
X7782Y1282
X8782Y1282
X10782Y1282
X11782Y1282
X13782Y1282
X12282Y2782
X11282Y2782
X11782Y3532
X9782Y2782
X8782Y2782
X9282Y3532
X7282Y2782
X6282Y2782
X6782Y3532
X13782Y4782
X15782Y4782
X17282Y4282
X17282Y3282
X17282Y2282
X17282Y1282
X20282Y1282
X20282Y2282
X20282Y3282
X20282Y4282
X20282Y5282
X20282Y6282
X20282Y7282
X17282Y7282
X17282Y6282
X17282Y5282
X17782Y8782
X19782Y8782
T03
X22782Y8782
X22782Y7782
X22782Y6782
X22782Y3782
X22782Y2782
X22782Y1782
X15282Y6282
X14282Y6282
X14282Y7282
X15282Y7282
X15282Y8282
X14282Y8282
X14282Y10782
X13282Y10782
X15282Y10782
X18282Y10782
X19282Y10782
X20282Y10782
X11282Y5282
X10282Y5282
X9282Y5282
X8282Y5282
X7282Y5282
X6282Y5282
X3782Y4282
X2782Y4282
X1782Y4282
T04
X2782Y10182
M30
