G75*
G70*
%OFA0B0*%
%FSLAX24Y24*%
%IPPOS*%
%LPD*%
%AMOC8*
5,1,8,0,0,1.08239X$1,22.5*
%
%ADD10C,0.0000*%
%ADD11C,0.0060*%
%ADD12C,0.0030*%
%ADD13C,0.0050*%
%ADD14C,0.0070*%
%ADD15C,0.0020*%
%ADD16R,0.0500X0.0350*%
%ADD17R,0.0500X0.0650*%
%ADD18C,0.0120*%
%ADD19R,0.0200X0.0200*%
%ADD20C,0.0040*%
%ADD21C,0.0200*%
%ADD22R,0.0100X0.0200*%
%ADD23C,0.0300*%
%ADD24R,0.0300X0.0200*%
%ADD25R,0.0300X0.0400*%
%ADD26R,0.0230X0.0180*%
%ADD27R,0.0200X0.0100*%
D10*
X000282Y000282D02*
X000282Y012093D01*
X024235Y012093D01*
X024235Y000282D01*
X000282Y000282D01*
X002132Y010182D02*
X002134Y010232D01*
X002140Y010282D01*
X002150Y010332D01*
X002163Y010380D01*
X002180Y010428D01*
X002201Y010474D01*
X002225Y010518D01*
X002253Y010560D01*
X002284Y010600D01*
X002318Y010637D01*
X002355Y010672D01*
X002394Y010703D01*
X002435Y010732D01*
X002479Y010757D01*
X002525Y010779D01*
X002572Y010797D01*
X002620Y010811D01*
X002669Y010822D01*
X002719Y010829D01*
X002769Y010832D01*
X002820Y010831D01*
X002870Y010826D01*
X002920Y010817D01*
X002968Y010805D01*
X003016Y010788D01*
X003062Y010768D01*
X003107Y010745D01*
X003150Y010718D01*
X003190Y010688D01*
X003228Y010655D01*
X003263Y010619D01*
X003296Y010580D01*
X003325Y010539D01*
X003351Y010496D01*
X003374Y010451D01*
X003393Y010404D01*
X003408Y010356D01*
X003420Y010307D01*
X003428Y010257D01*
X003432Y010207D01*
X003432Y010157D01*
X003428Y010107D01*
X003420Y010057D01*
X003408Y010008D01*
X003393Y009960D01*
X003374Y009913D01*
X003351Y009868D01*
X003325Y009825D01*
X003296Y009784D01*
X003263Y009745D01*
X003228Y009709D01*
X003190Y009676D01*
X003150Y009646D01*
X003107Y009619D01*
X003062Y009596D01*
X003016Y009576D01*
X002968Y009559D01*
X002920Y009547D01*
X002870Y009538D01*
X002820Y009533D01*
X002769Y009532D01*
X002719Y009535D01*
X002669Y009542D01*
X002620Y009553D01*
X002572Y009567D01*
X002525Y009585D01*
X002479Y009607D01*
X002435Y009632D01*
X002394Y009661D01*
X002355Y009692D01*
X002318Y009727D01*
X002284Y009764D01*
X002253Y009804D01*
X002225Y009846D01*
X002201Y009890D01*
X002180Y009936D01*
X002163Y009984D01*
X002150Y010032D01*
X002140Y010082D01*
X002134Y010132D01*
X002132Y010182D01*
D11*
X002072Y010182D02*
X002074Y010235D01*
X002080Y010288D01*
X002090Y010340D01*
X002104Y010391D01*
X002121Y010441D01*
X002142Y010490D01*
X002167Y010537D01*
X002195Y010582D01*
X002227Y010625D01*
X002262Y010665D01*
X002299Y010702D01*
X002339Y010737D01*
X002382Y010769D01*
X002427Y010797D01*
X002474Y010822D01*
X002523Y010843D01*
X002573Y010860D01*
X002624Y010874D01*
X002676Y010884D01*
X002729Y010890D01*
X002782Y010892D01*
X002835Y010890D01*
X002888Y010884D01*
X002940Y010874D01*
X002991Y010860D01*
X003041Y010843D01*
X003090Y010822D01*
X003137Y010797D01*
X003182Y010769D01*
X003225Y010737D01*
X003265Y010702D01*
X003302Y010665D01*
X003337Y010625D01*
X003369Y010582D01*
X003397Y010537D01*
X003422Y010490D01*
X003443Y010441D01*
X003460Y010391D01*
X003474Y010340D01*
X003484Y010288D01*
X003490Y010235D01*
X003492Y010182D01*
X003490Y010129D01*
X003484Y010076D01*
X003474Y010024D01*
X003460Y009973D01*
X003443Y009923D01*
X003422Y009874D01*
X003397Y009827D01*
X003369Y009782D01*
X003337Y009739D01*
X003302Y009699D01*
X003265Y009662D01*
X003225Y009627D01*
X003182Y009595D01*
X003137Y009567D01*
X003090Y009542D01*
X003041Y009521D01*
X002991Y009504D01*
X002940Y009490D01*
X002888Y009480D01*
X002835Y009474D01*
X002782Y009472D01*
X002729Y009474D01*
X002676Y009480D01*
X002624Y009490D01*
X002573Y009504D01*
X002523Y009521D01*
X002474Y009542D01*
X002427Y009567D01*
X002382Y009595D01*
X002339Y009627D01*
X002299Y009662D01*
X002262Y009699D01*
X002227Y009739D01*
X002195Y009782D01*
X002167Y009827D01*
X002142Y009874D01*
X002121Y009923D01*
X002104Y009973D01*
X002090Y010024D01*
X002080Y010076D01*
X002074Y010129D01*
X002072Y010182D01*
X001082Y010182D02*
X001082Y010782D01*
X000732Y010782D01*
X000732Y011532D01*
X004832Y011532D01*
X004832Y010782D01*
X004482Y010782D01*
X004482Y010182D01*
X004832Y010182D01*
X004832Y005282D01*
X000732Y005282D01*
X000732Y010182D01*
X001082Y010182D01*
X005782Y007032D02*
X005782Y006032D01*
X006782Y006032D01*
X007782Y006032D01*
X008782Y006032D01*
X009782Y006032D01*
X010782Y006032D01*
X011782Y006032D01*
X011782Y007032D01*
X010782Y007032D01*
X009782Y007032D01*
X008782Y007032D01*
X007782Y007032D01*
X006782Y007032D01*
X005782Y007032D01*
X006782Y007032D02*
X006782Y006032D01*
X007782Y006032D02*
X007782Y007032D01*
X008782Y007032D02*
X008782Y006032D01*
X009782Y006032D02*
X009782Y007032D01*
X010782Y007032D02*
X010782Y006032D01*
X013782Y006032D02*
X013782Y006532D01*
X014032Y006782D01*
X015532Y006782D01*
X015782Y007032D01*
X015782Y007532D01*
X015532Y007782D01*
X015782Y008032D01*
X015782Y008532D01*
X015532Y008782D01*
X014032Y008782D01*
X013782Y008532D01*
X013782Y008032D01*
X014032Y007782D01*
X015532Y007782D01*
X014032Y007782D02*
X013782Y007532D01*
X013782Y007032D01*
X014032Y006782D01*
X013782Y006032D02*
X014032Y005782D01*
X015532Y005782D01*
X015782Y006032D01*
X015782Y006532D01*
X015532Y006782D01*
X015912Y006439D02*
X016126Y006653D01*
X016126Y006012D01*
X016339Y006012D02*
X015912Y006012D01*
X015382Y005132D02*
X015282Y005132D01*
X015232Y005082D01*
X014332Y005082D01*
X014282Y005132D01*
X014182Y005132D01*
X014165Y005130D01*
X014148Y005126D01*
X014132Y005119D01*
X014118Y005109D01*
X014105Y005096D01*
X014095Y005082D01*
X014088Y005066D01*
X014084Y005049D01*
X014082Y005032D01*
X014082Y004532D01*
X014084Y004515D01*
X014088Y004498D01*
X014095Y004482D01*
X014105Y004468D01*
X014118Y004455D01*
X014132Y004445D01*
X014148Y004438D01*
X014165Y004434D01*
X014182Y004432D01*
X014282Y004432D01*
X014332Y004482D01*
X015232Y004482D01*
X015282Y004432D01*
X015382Y004432D01*
X015399Y004434D01*
X015416Y004438D01*
X015432Y004445D01*
X015446Y004455D01*
X015459Y004468D01*
X015469Y004482D01*
X015476Y004498D01*
X015480Y004515D01*
X015482Y004532D01*
X015482Y005032D01*
X015480Y005049D01*
X015476Y005066D01*
X015469Y005082D01*
X015459Y005096D01*
X015446Y005109D01*
X015432Y005119D01*
X015416Y005126D01*
X015399Y005130D01*
X015382Y005132D01*
X011400Y003652D02*
X011346Y003626D01*
X011292Y003596D01*
X011241Y003563D01*
X011192Y003527D01*
X011146Y003488D01*
X011102Y003445D01*
X011061Y003401D01*
X011023Y003353D01*
X010988Y003303D01*
X010956Y003251D01*
X010928Y003198D01*
X010903Y003142D01*
X010882Y003085D01*
X010864Y003027D01*
X010850Y002968D01*
X010840Y002908D01*
X010834Y002847D01*
X010832Y002786D01*
X010834Y002725D01*
X010839Y002665D01*
X010849Y002605D01*
X010862Y002545D01*
X010879Y002487D01*
X010900Y002430D01*
X010924Y002374D01*
X010952Y002320D01*
X010983Y002268D01*
X011018Y002218D01*
X011056Y002170D01*
X011096Y002125D01*
X011140Y002082D01*
X012424Y002082D01*
X012282Y001632D02*
X012182Y001632D01*
X012165Y001630D01*
X012148Y001626D01*
X012132Y001619D01*
X012118Y001609D01*
X012105Y001596D01*
X012095Y001582D01*
X012088Y001566D01*
X012084Y001549D01*
X012082Y001532D01*
X012082Y001032D01*
X012084Y001015D01*
X012088Y000998D01*
X012095Y000982D01*
X012105Y000968D01*
X012118Y000955D01*
X012132Y000945D01*
X012148Y000938D01*
X012165Y000934D01*
X012182Y000932D01*
X012282Y000932D01*
X012332Y000982D01*
X013232Y000982D01*
X013282Y000932D01*
X013382Y000932D01*
X013399Y000934D01*
X013416Y000938D01*
X013432Y000945D01*
X013446Y000955D01*
X013459Y000968D01*
X013469Y000982D01*
X013476Y000998D01*
X013480Y001015D01*
X013482Y001032D01*
X013482Y001532D01*
X013480Y001549D01*
X013476Y001566D01*
X013469Y001582D01*
X013459Y001596D01*
X013446Y001609D01*
X013432Y001619D01*
X013416Y001626D01*
X013399Y001630D01*
X013382Y001632D01*
X013282Y001632D01*
X013232Y001582D01*
X012332Y001582D01*
X012282Y001632D01*
X010482Y001532D02*
X010482Y001032D01*
X010480Y001015D01*
X010476Y000998D01*
X010469Y000982D01*
X010459Y000968D01*
X010446Y000955D01*
X010432Y000945D01*
X010416Y000938D01*
X010399Y000934D01*
X010382Y000932D01*
X010282Y000932D01*
X010232Y000982D01*
X009332Y000982D01*
X009282Y000932D01*
X009182Y000932D01*
X009165Y000934D01*
X009148Y000938D01*
X009132Y000945D01*
X009118Y000955D01*
X009105Y000968D01*
X009095Y000982D01*
X009088Y000998D01*
X009084Y001015D01*
X009082Y001032D01*
X009082Y001532D01*
X009084Y001549D01*
X009088Y001566D01*
X009095Y001582D01*
X009105Y001596D01*
X009118Y001609D01*
X009132Y001619D01*
X009148Y001626D01*
X009165Y001630D01*
X009182Y001632D01*
X009282Y001632D01*
X009332Y001582D01*
X010232Y001582D01*
X010282Y001632D01*
X010382Y001632D01*
X010399Y001630D01*
X010416Y001626D01*
X010432Y001619D01*
X010446Y001609D01*
X010459Y001596D01*
X010469Y001582D01*
X010476Y001566D01*
X010480Y001549D01*
X010482Y001532D01*
X009924Y002082D02*
X008640Y002082D01*
X007424Y002082D02*
X006140Y002082D01*
X006182Y001632D02*
X006282Y001632D01*
X006332Y001582D01*
X007232Y001582D01*
X007282Y001632D01*
X007382Y001632D01*
X007399Y001630D01*
X007416Y001626D01*
X007432Y001619D01*
X007446Y001609D01*
X007459Y001596D01*
X007469Y001582D01*
X007476Y001566D01*
X007480Y001549D01*
X007482Y001532D01*
X007482Y001032D01*
X007480Y001015D01*
X007476Y000998D01*
X007469Y000982D01*
X007459Y000968D01*
X007446Y000955D01*
X007432Y000945D01*
X007416Y000938D01*
X007399Y000934D01*
X007382Y000932D01*
X007282Y000932D01*
X007232Y000982D01*
X006332Y000982D01*
X006282Y000932D01*
X006182Y000932D01*
X006165Y000934D01*
X006148Y000938D01*
X006132Y000945D01*
X006118Y000955D01*
X006105Y000968D01*
X006095Y000982D01*
X006088Y000998D01*
X006084Y001015D01*
X006082Y001032D01*
X006082Y001532D01*
X006084Y001549D01*
X006088Y001566D01*
X006095Y001582D01*
X006105Y001596D01*
X006118Y001609D01*
X006132Y001619D01*
X006148Y001626D01*
X006165Y001630D01*
X006182Y001632D01*
X007424Y002082D02*
X007468Y002125D01*
X007508Y002170D01*
X007546Y002218D01*
X007581Y002268D01*
X007612Y002320D01*
X007640Y002374D01*
X007664Y002430D01*
X007685Y002487D01*
X007702Y002545D01*
X007715Y002605D01*
X007725Y002665D01*
X007730Y002725D01*
X007732Y002786D01*
X007730Y002847D01*
X007724Y002908D01*
X007714Y002968D01*
X007700Y003027D01*
X007682Y003085D01*
X007661Y003142D01*
X007636Y003198D01*
X007608Y003251D01*
X007576Y003303D01*
X007541Y003353D01*
X007503Y003401D01*
X007462Y003445D01*
X007418Y003488D01*
X007372Y003527D01*
X007323Y003563D01*
X007272Y003596D01*
X007218Y003626D01*
X007164Y003652D01*
X006400Y003652D02*
X006346Y003626D01*
X006292Y003596D01*
X006241Y003563D01*
X006192Y003527D01*
X006146Y003488D01*
X006102Y003445D01*
X006061Y003401D01*
X006023Y003353D01*
X005988Y003303D01*
X005956Y003251D01*
X005928Y003198D01*
X005903Y003142D01*
X005882Y003085D01*
X005864Y003027D01*
X005850Y002968D01*
X005840Y002908D01*
X005834Y002847D01*
X005832Y002786D01*
X005834Y002725D01*
X005839Y002665D01*
X005849Y002605D01*
X005862Y002545D01*
X005879Y002487D01*
X005900Y002430D01*
X005924Y002374D01*
X005952Y002320D01*
X005983Y002268D01*
X006018Y002218D01*
X006056Y002170D01*
X006096Y002125D01*
X006140Y002082D01*
X006400Y003652D02*
X006456Y003674D01*
X006514Y003693D01*
X006572Y003709D01*
X006632Y003720D01*
X006692Y003728D01*
X006752Y003732D01*
X006812Y003732D01*
X006872Y003728D01*
X006932Y003720D01*
X006992Y003709D01*
X007050Y003693D01*
X007108Y003674D01*
X007164Y003652D01*
X009664Y003652D02*
X009718Y003626D01*
X009772Y003596D01*
X009823Y003563D01*
X009872Y003527D01*
X009918Y003488D01*
X009962Y003445D01*
X010003Y003401D01*
X010041Y003353D01*
X010076Y003303D01*
X010108Y003251D01*
X010136Y003198D01*
X010161Y003142D01*
X010182Y003085D01*
X010200Y003027D01*
X010214Y002968D01*
X010224Y002908D01*
X010230Y002847D01*
X010232Y002786D01*
X010230Y002725D01*
X010225Y002665D01*
X010215Y002605D01*
X010202Y002545D01*
X010185Y002487D01*
X010164Y002430D01*
X010140Y002374D01*
X010112Y002320D01*
X010081Y002268D01*
X010046Y002218D01*
X010008Y002170D01*
X009968Y002125D01*
X009924Y002082D01*
X008640Y002082D02*
X008596Y002125D01*
X008556Y002170D01*
X008518Y002218D01*
X008483Y002268D01*
X008452Y002320D01*
X008424Y002374D01*
X008400Y002430D01*
X008379Y002487D01*
X008362Y002545D01*
X008349Y002605D01*
X008339Y002665D01*
X008334Y002725D01*
X008332Y002786D01*
X008334Y002847D01*
X008340Y002908D01*
X008350Y002968D01*
X008364Y003027D01*
X008382Y003085D01*
X008403Y003142D01*
X008428Y003198D01*
X008456Y003251D01*
X008488Y003303D01*
X008523Y003353D01*
X008561Y003401D01*
X008602Y003445D01*
X008646Y003488D01*
X008692Y003527D01*
X008741Y003563D01*
X008792Y003596D01*
X008846Y003626D01*
X008900Y003652D01*
X008956Y003674D01*
X009014Y003693D01*
X009072Y003709D01*
X009132Y003720D01*
X009192Y003728D01*
X009252Y003732D01*
X009312Y003732D01*
X009372Y003728D01*
X009432Y003720D01*
X009492Y003709D01*
X009550Y003693D01*
X009608Y003674D01*
X009664Y003652D01*
X012164Y003652D02*
X012218Y003626D01*
X012272Y003596D01*
X012323Y003563D01*
X012372Y003527D01*
X012418Y003488D01*
X012462Y003445D01*
X012503Y003401D01*
X012541Y003353D01*
X012576Y003303D01*
X012608Y003251D01*
X012636Y003198D01*
X012661Y003142D01*
X012682Y003085D01*
X012700Y003027D01*
X012714Y002968D01*
X012724Y002908D01*
X012730Y002847D01*
X012732Y002786D01*
X012730Y002725D01*
X012725Y002665D01*
X012715Y002605D01*
X012702Y002545D01*
X012685Y002487D01*
X012664Y002430D01*
X012640Y002374D01*
X012612Y002320D01*
X012581Y002268D01*
X012546Y002218D01*
X012508Y002170D01*
X012468Y002125D01*
X012424Y002082D01*
X012164Y003652D02*
X012108Y003674D01*
X012050Y003693D01*
X011992Y003709D01*
X011932Y003720D01*
X011872Y003728D01*
X011812Y003732D01*
X011752Y003732D01*
X011692Y003728D01*
X011632Y003720D01*
X011572Y003709D01*
X011514Y003693D01*
X011456Y003674D01*
X011400Y003652D01*
X005839Y004912D02*
X005412Y004912D01*
X005626Y004912D02*
X005626Y005553D01*
X005412Y005339D01*
X001532Y002682D02*
X001032Y002682D01*
X001015Y002680D01*
X000998Y002676D01*
X000982Y002669D01*
X000968Y002659D01*
X000955Y002646D01*
X000945Y002632D01*
X000938Y002616D01*
X000934Y002599D01*
X000932Y002582D01*
X000932Y002482D01*
X000982Y002432D01*
X000982Y001532D01*
X000932Y001482D01*
X000932Y001382D01*
X000934Y001365D01*
X000938Y001348D01*
X000945Y001332D01*
X000955Y001318D01*
X000968Y001305D01*
X000982Y001295D01*
X000998Y001288D01*
X001015Y001284D01*
X001032Y001282D01*
X001532Y001282D01*
X001549Y001284D01*
X001566Y001288D01*
X001582Y001295D01*
X001596Y001305D01*
X001609Y001318D01*
X001619Y001332D01*
X001626Y001348D01*
X001630Y001365D01*
X001632Y001382D01*
X001632Y001482D01*
X001582Y001532D01*
X001582Y002432D01*
X001632Y002482D01*
X001632Y002582D01*
X001630Y002599D01*
X001626Y002616D01*
X001619Y002632D01*
X001609Y002646D01*
X001596Y002659D01*
X001582Y002669D01*
X001566Y002676D01*
X001549Y002680D01*
X001532Y002682D01*
X003022Y001842D02*
X003022Y000722D01*
X003542Y000722D01*
X003542Y001842D01*
X003022Y001842D01*
X017332Y008182D02*
X017332Y009382D01*
X017334Y009399D01*
X017338Y009416D01*
X017345Y009432D01*
X017355Y009446D01*
X017368Y009459D01*
X017382Y009469D01*
X017398Y009476D01*
X017415Y009480D01*
X017432Y009482D01*
X020132Y009482D01*
X020149Y009480D01*
X020166Y009476D01*
X020182Y009469D01*
X020196Y009459D01*
X020209Y009446D01*
X020219Y009432D01*
X020226Y009416D01*
X020230Y009399D01*
X020232Y009382D01*
X020232Y008182D01*
X020230Y008165D01*
X020226Y008148D01*
X020219Y008132D01*
X020209Y008118D01*
X020196Y008105D01*
X020182Y008095D01*
X020166Y008088D01*
X020149Y008084D01*
X020132Y008082D01*
X017432Y008082D01*
X017415Y008084D01*
X017398Y008088D01*
X017382Y008095D01*
X017368Y008105D01*
X017355Y008118D01*
X017345Y008132D01*
X017338Y008148D01*
X017334Y008165D01*
X017332Y008182D01*
X017632Y007782D02*
X018382Y007782D01*
X018384Y007743D01*
X018390Y007704D01*
X018399Y007666D01*
X018412Y007629D01*
X018429Y007593D01*
X018449Y007560D01*
X018473Y007528D01*
X018499Y007499D01*
X018528Y007473D01*
X018560Y007449D01*
X018593Y007429D01*
X018629Y007412D01*
X018666Y007399D01*
X018704Y007390D01*
X018743Y007384D01*
X018782Y007382D01*
X018821Y007384D01*
X018860Y007390D01*
X018898Y007399D01*
X018935Y007412D01*
X018971Y007429D01*
X019004Y007449D01*
X019036Y007473D01*
X019065Y007499D01*
X019091Y007528D01*
X019115Y007560D01*
X019135Y007593D01*
X019152Y007629D01*
X019165Y007666D01*
X019174Y007704D01*
X019180Y007743D01*
X019182Y007782D01*
X019932Y007782D01*
X019932Y000782D01*
X017632Y000782D01*
X017632Y007782D01*
X018182Y008782D02*
X018662Y008782D01*
X018912Y008782D02*
X019382Y008782D01*
X021468Y008939D02*
X021681Y009153D01*
X021681Y008512D01*
X021468Y008512D02*
X021895Y008512D01*
X022282Y008532D02*
X022282Y009032D01*
X022532Y009282D01*
X023032Y009282D01*
X023282Y009032D01*
X023282Y008532D01*
X023032Y008282D01*
X023282Y008032D01*
X023282Y007532D01*
X023032Y007282D01*
X023282Y007032D01*
X023282Y006532D01*
X023032Y006282D01*
X022532Y006282D01*
X022282Y006532D01*
X022282Y007032D01*
X022532Y007282D01*
X022282Y007532D01*
X022282Y008032D01*
X022532Y008282D01*
X022282Y008532D01*
X022532Y008282D02*
X023032Y008282D01*
X023032Y007282D02*
X022532Y007282D01*
X022532Y004282D02*
X022282Y004032D01*
X022282Y003532D01*
X022532Y003282D01*
X022282Y003032D01*
X022282Y002532D01*
X022532Y002282D01*
X022282Y002032D01*
X022282Y001532D01*
X022532Y001282D01*
X023032Y001282D01*
X023282Y001532D01*
X023282Y002032D01*
X023032Y002282D01*
X022532Y002282D01*
X023032Y002282D02*
X023282Y002532D01*
X023282Y003032D01*
X023032Y003282D01*
X022532Y003282D01*
X023032Y003282D02*
X023282Y003532D01*
X023282Y004032D01*
X023032Y004282D01*
X022532Y004282D01*
X021681Y004153D02*
X021681Y003512D01*
X021468Y003512D02*
X021895Y003512D01*
X021468Y003939D02*
X021681Y004153D01*
X020532Y010282D02*
X020032Y010282D01*
X019782Y010532D01*
X019532Y010282D01*
X019032Y010282D01*
X018782Y010532D01*
X018532Y010282D01*
X018032Y010282D01*
X017782Y010532D01*
X017782Y011032D01*
X018032Y011282D01*
X018532Y011282D01*
X018782Y011032D01*
X019032Y011282D01*
X019532Y011282D01*
X019782Y011032D01*
X020032Y011282D01*
X020532Y011282D01*
X020782Y011032D01*
X020782Y010532D01*
X020532Y010282D01*
X019782Y010532D02*
X019782Y011032D01*
X018782Y011032D02*
X018782Y010532D01*
X017639Y010412D02*
X017212Y010412D01*
X017426Y010412D02*
X017426Y011053D01*
X017212Y010839D01*
X015782Y011032D02*
X015782Y010532D01*
X015532Y010282D01*
X015032Y010282D01*
X014782Y010532D01*
X014532Y010282D01*
X014032Y010282D01*
X013782Y010532D01*
X013532Y010282D01*
X013032Y010282D01*
X012782Y010532D01*
X012782Y011032D01*
X013032Y011282D01*
X013532Y011282D01*
X013782Y011032D01*
X014032Y011282D01*
X014532Y011282D01*
X014782Y011032D01*
X015032Y011282D01*
X015532Y011282D01*
X015782Y011032D01*
X014782Y011032D02*
X014782Y010532D01*
X013782Y010532D02*
X013782Y011032D01*
X012539Y010412D02*
X012112Y010412D01*
X012326Y010412D02*
X012326Y011053D01*
X012112Y010839D01*
D12*
X012074Y010797D02*
X011978Y010797D01*
X012026Y010797D02*
X012026Y011087D01*
X011978Y011087D01*
X011829Y011087D02*
X011829Y010797D01*
X011781Y010797D02*
X011878Y010797D01*
X011680Y010846D02*
X011680Y010942D01*
X011632Y010991D01*
X011535Y010991D01*
X011486Y010942D01*
X011486Y010846D01*
X011535Y010797D01*
X011632Y010797D01*
X011680Y010846D01*
X011386Y010991D02*
X011338Y010991D01*
X011241Y010894D01*
X011241Y010797D02*
X011241Y010991D01*
X011141Y010991D02*
X011045Y010991D01*
X011093Y011039D02*
X011093Y010846D01*
X011141Y010797D01*
X010943Y010797D02*
X010943Y010942D01*
X010895Y010991D01*
X010750Y010991D01*
X010750Y010797D01*
X010649Y010846D02*
X010649Y010942D01*
X010600Y010991D01*
X010504Y010991D01*
X010455Y010942D01*
X010455Y010846D01*
X010504Y010797D01*
X010600Y010797D01*
X010649Y010846D01*
X010354Y010846D02*
X010306Y010797D01*
X010209Y010797D01*
X010161Y010846D01*
X010161Y011039D01*
X010209Y011087D01*
X010306Y011087D01*
X010354Y011039D01*
X009765Y011039D02*
X009765Y010942D01*
X009716Y010894D01*
X009571Y010894D01*
X009571Y010797D02*
X009571Y011087D01*
X009716Y011087D01*
X009765Y011039D01*
X009668Y010894D02*
X009765Y010797D01*
X009470Y010797D02*
X009277Y010797D01*
X009277Y011087D01*
X009470Y011087D01*
X009373Y010942D02*
X009277Y010942D01*
X009175Y010846D02*
X009175Y011039D01*
X009127Y011087D01*
X008982Y011087D01*
X008982Y010797D01*
X009127Y010797D01*
X009175Y010846D01*
X008881Y010846D02*
X008881Y011039D01*
X008832Y011087D01*
X008736Y011087D01*
X008687Y011039D01*
X008687Y010846D01*
X008736Y010797D01*
X008832Y010797D01*
X008881Y010846D01*
X008588Y010797D02*
X008491Y010797D01*
X008539Y010797D02*
X008539Y011087D01*
X008491Y011087D02*
X008588Y011087D01*
X008390Y011039D02*
X008341Y011087D01*
X008196Y011087D01*
X008196Y010797D01*
X008341Y010797D01*
X008390Y010846D01*
X008390Y011039D01*
X007800Y010991D02*
X007607Y010797D01*
X007506Y010846D02*
X007506Y010942D01*
X007457Y010991D01*
X007361Y010991D01*
X007312Y010942D01*
X007312Y010846D01*
X007361Y010797D01*
X007457Y010797D01*
X007506Y010846D01*
X007607Y010991D02*
X007800Y010797D01*
X007211Y010846D02*
X007211Y010942D01*
X007163Y010991D01*
X007018Y010991D01*
X007018Y011087D02*
X007018Y010797D01*
X007163Y010797D01*
X007211Y010846D01*
X006917Y010846D02*
X006917Y010942D01*
X006868Y010991D01*
X006771Y010991D01*
X006723Y010942D01*
X006723Y010846D01*
X006771Y010797D01*
X006868Y010797D01*
X006917Y010846D01*
X006623Y010991D02*
X006574Y010991D01*
X006478Y010894D01*
X006478Y010797D02*
X006478Y010991D01*
X006378Y010991D02*
X006281Y010991D01*
X006329Y011039D02*
X006329Y010846D01*
X006378Y010797D01*
X006180Y010797D02*
X006035Y010797D01*
X005986Y010846D01*
X005986Y010942D01*
X006035Y010991D01*
X006180Y010991D01*
X005885Y010942D02*
X005885Y010894D01*
X005692Y010894D01*
X005692Y010942D02*
X005740Y010991D01*
X005837Y010991D01*
X005885Y010942D01*
X005837Y010797D02*
X005740Y010797D01*
X005692Y010846D01*
X005692Y010942D01*
X005591Y010797D02*
X005397Y010797D01*
X005397Y011087D01*
X011781Y011087D02*
X011829Y011087D01*
X012174Y010942D02*
X012222Y010991D01*
X012319Y010991D01*
X012367Y010942D01*
X012367Y010894D01*
X012174Y010894D01*
X012174Y010846D02*
X012174Y010942D01*
X012174Y010846D02*
X012222Y010797D01*
X012319Y010797D01*
X012469Y010797D02*
X012469Y010991D01*
X012565Y010991D02*
X012469Y010894D01*
X012565Y010991D02*
X012614Y010991D01*
X012714Y010942D02*
X012908Y010942D01*
X013009Y010942D02*
X013202Y010942D01*
X013105Y010846D02*
X013105Y011039D01*
X012811Y011039D02*
X012811Y010846D01*
D13*
X012777Y011527D02*
X012777Y011978D01*
X013002Y011978D01*
X013077Y011903D01*
X013077Y011752D01*
X013002Y011677D01*
X012777Y011677D01*
X013238Y011602D02*
X013313Y011527D01*
X013463Y011527D01*
X013538Y011602D01*
X013538Y011903D01*
X013463Y011978D01*
X013313Y011978D01*
X013238Y011903D01*
X013238Y011602D01*
X013698Y011978D02*
X013998Y011978D01*
X013848Y011978D02*
X013848Y011527D01*
X014158Y011527D02*
X014459Y011527D01*
X014308Y011527D02*
X014308Y011978D01*
X014158Y011827D01*
X017407Y010033D02*
X017407Y009732D01*
X017482Y009657D01*
X017632Y009657D01*
X017707Y009732D01*
X017868Y009657D02*
X018168Y009657D01*
X018018Y009657D02*
X018018Y010108D01*
X017868Y009957D01*
X017707Y010033D02*
X017632Y010108D01*
X017482Y010108D01*
X017407Y010033D01*
X017777Y011527D02*
X017777Y011978D01*
X018002Y011978D01*
X018077Y011903D01*
X018077Y011752D01*
X018002Y011677D01*
X017777Y011677D01*
X018238Y011602D02*
X018238Y011903D01*
X018313Y011978D01*
X018463Y011978D01*
X018538Y011903D01*
X018538Y011602D01*
X018463Y011527D01*
X018313Y011527D01*
X018238Y011602D01*
X018848Y011527D02*
X018848Y011978D01*
X018698Y011978D02*
X018998Y011978D01*
X019158Y011903D02*
X019233Y011978D01*
X019383Y011978D01*
X019459Y011903D01*
X019459Y011827D01*
X019158Y011527D01*
X019459Y011527D01*
X021877Y009878D02*
X022102Y009878D01*
X022177Y009803D01*
X022177Y009652D01*
X022102Y009577D01*
X021877Y009577D01*
X021877Y009427D02*
X021877Y009878D01*
X022338Y009803D02*
X022338Y009502D01*
X022413Y009427D01*
X022563Y009427D01*
X022638Y009502D01*
X022638Y009803D01*
X022563Y009878D01*
X022413Y009878D01*
X022338Y009803D01*
X022798Y009878D02*
X023098Y009878D01*
X022948Y009878D02*
X022948Y009427D01*
X023258Y009502D02*
X023333Y009427D01*
X023483Y009427D01*
X023559Y009502D01*
X023559Y009577D01*
X023483Y009652D01*
X023408Y009652D01*
X023483Y009652D02*
X023559Y009727D01*
X023559Y009803D01*
X023483Y009878D01*
X023333Y009878D01*
X023258Y009803D01*
X018675Y007957D02*
X018374Y007957D01*
X018525Y007957D02*
X018525Y008408D01*
X018374Y008257D01*
X018214Y008333D02*
X018139Y008408D01*
X017989Y008408D01*
X017914Y008333D01*
X017914Y008032D01*
X017989Y007957D01*
X018139Y007957D01*
X018214Y008032D01*
X017757Y007957D02*
X017607Y007957D01*
X017682Y007957D02*
X017682Y008408D01*
X017607Y008408D02*
X017757Y008408D01*
X013507Y007028D02*
X013507Y006728D01*
X013507Y006878D02*
X013057Y006878D01*
X013207Y006728D01*
X013132Y006568D02*
X013282Y006568D01*
X013357Y006493D01*
X013357Y006268D01*
X013507Y006268D02*
X013057Y006268D01*
X013057Y006493D01*
X013132Y006568D01*
X013057Y006107D02*
X013057Y005957D01*
X013057Y006032D02*
X013432Y006032D01*
X013507Y005957D01*
X013507Y005882D01*
X013432Y005807D01*
X011468Y004533D02*
X011393Y004608D01*
X011243Y004608D01*
X011168Y004533D01*
X011007Y004533D02*
X010932Y004608D01*
X010782Y004608D01*
X010707Y004533D01*
X010707Y004232D01*
X010782Y004157D01*
X010932Y004157D01*
X011007Y004232D01*
X011007Y004533D01*
X010857Y004307D02*
X011007Y004157D01*
X011168Y004232D02*
X011243Y004157D01*
X011393Y004157D01*
X011468Y004232D01*
X011468Y004307D01*
X011393Y004382D01*
X011318Y004382D01*
X011393Y004382D02*
X011468Y004457D01*
X011468Y004533D01*
X008968Y004533D02*
X008893Y004608D01*
X008743Y004608D01*
X008668Y004533D01*
X008507Y004533D02*
X008432Y004608D01*
X008282Y004608D01*
X008207Y004533D01*
X008207Y004232D01*
X008282Y004157D01*
X008432Y004157D01*
X008507Y004232D01*
X008507Y004533D01*
X008357Y004307D02*
X008507Y004157D01*
X008668Y004157D02*
X008968Y004457D01*
X008968Y004533D01*
X008968Y004157D02*
X008668Y004157D01*
X006468Y004157D02*
X006168Y004157D01*
X006318Y004157D02*
X006318Y004608D01*
X006168Y004457D01*
X006007Y004533D02*
X005932Y004608D01*
X005782Y004608D01*
X005707Y004533D01*
X005707Y004232D01*
X005782Y004157D01*
X005932Y004157D01*
X006007Y004232D01*
X006007Y004533D01*
X005857Y004307D02*
X006007Y004157D01*
X005432Y005307D02*
X005507Y005382D01*
X005507Y005457D01*
X005432Y005532D01*
X005057Y005532D01*
X005057Y005457D02*
X005057Y005607D01*
X005057Y005768D02*
X005057Y005993D01*
X005132Y006068D01*
X005282Y006068D01*
X005357Y005993D01*
X005357Y005768D01*
X005507Y005768D02*
X005057Y005768D01*
X005132Y006228D02*
X005057Y006303D01*
X005057Y006453D01*
X005132Y006528D01*
X005207Y006528D01*
X005507Y006228D01*
X005507Y006528D01*
X003907Y006183D02*
X003907Y005882D01*
X003832Y005807D01*
X003682Y005807D01*
X003607Y005882D01*
X003607Y006183D01*
X003682Y006258D01*
X003832Y006258D01*
X003907Y006183D01*
X002907Y006032D02*
X002607Y006032D01*
X001757Y005807D02*
X001607Y005807D01*
X001682Y005807D02*
X001682Y006258D01*
X001607Y006258D02*
X001757Y006258D01*
X021877Y004878D02*
X021877Y004427D01*
X022338Y004502D02*
X022413Y004427D01*
X022563Y004427D01*
X022638Y004502D01*
X022638Y004803D01*
X022563Y004878D01*
X022413Y004878D01*
X022338Y004803D01*
X022338Y004502D01*
X022177Y004652D02*
X022102Y004577D01*
X021877Y004577D01*
X022177Y004652D02*
X022177Y004803D01*
X022102Y004878D01*
X021877Y004878D01*
X022798Y004878D02*
X023098Y004878D01*
X022948Y004878D02*
X022948Y004427D01*
X023258Y004652D02*
X023559Y004652D01*
X023483Y004878D02*
X023258Y004652D01*
X023483Y004427D02*
X023483Y004878D01*
D14*
X002812Y007817D02*
X002391Y007817D01*
X002812Y008238D01*
X002812Y008343D01*
X002707Y008448D01*
X002496Y008448D01*
X002391Y008343D01*
X002167Y008343D02*
X002062Y008448D01*
X001852Y008448D01*
X001747Y008343D01*
X001747Y007922D01*
X001852Y007817D01*
X002062Y007817D01*
X002167Y007922D01*
X001527Y007817D02*
X001317Y007817D01*
X001422Y007817D02*
X001422Y008448D01*
X001317Y008448D02*
X001527Y008448D01*
D15*
X000982Y008782D02*
X000982Y005532D01*
X004582Y005532D01*
X004582Y008782D01*
X000982Y008782D01*
D16*
X001782Y005107D03*
X002782Y005107D03*
X003782Y005107D03*
D17*
X003782Y004607D03*
X002782Y004607D03*
X001782Y004607D03*
D18*
X018662Y008532D02*
X018662Y008782D01*
X018662Y009032D01*
X018912Y009032D02*
X018912Y008782D01*
X018912Y008532D01*
D19*
X015282Y008282D03*
X014282Y008282D03*
X014282Y007282D03*
X015282Y007282D03*
X015282Y006282D03*
X014282Y006282D03*
X022782Y006782D03*
X022782Y007782D03*
X022782Y008782D03*
X020282Y010782D03*
X019282Y010782D03*
X018282Y010782D03*
X015282Y010782D03*
X014282Y010782D03*
X013282Y010782D03*
X022782Y003782D03*
X022782Y002782D03*
X022782Y001782D03*
D20*
X015467Y003952D02*
X015233Y003952D01*
X015350Y003952D02*
X015350Y004302D01*
X015233Y004186D01*
X015108Y004244D02*
X015108Y004127D01*
X015049Y004069D01*
X014874Y004069D01*
X014991Y004069D02*
X015108Y003952D01*
X014874Y003952D02*
X014874Y004302D01*
X015049Y004302D01*
X015108Y004244D01*
X013408Y000802D02*
X013233Y000627D01*
X013467Y000627D01*
X013408Y000452D02*
X013408Y000802D01*
X013108Y000744D02*
X013108Y000627D01*
X013049Y000569D01*
X012874Y000569D01*
X012991Y000569D02*
X013108Y000452D01*
X012874Y000452D02*
X012874Y000802D01*
X013049Y000802D01*
X013108Y000744D01*
X010467Y000744D02*
X010467Y000686D01*
X010408Y000627D01*
X010467Y000569D01*
X010467Y000511D01*
X010408Y000452D01*
X010291Y000452D01*
X010233Y000511D01*
X010108Y000452D02*
X009991Y000569D01*
X010049Y000569D02*
X009874Y000569D01*
X009874Y000452D02*
X009874Y000802D01*
X010049Y000802D01*
X010108Y000744D01*
X010108Y000627D01*
X010049Y000569D01*
X010233Y000744D02*
X010291Y000802D01*
X010408Y000802D01*
X010467Y000744D01*
X010408Y000627D02*
X010350Y000627D01*
X007467Y000686D02*
X007467Y000744D01*
X007408Y000802D01*
X007291Y000802D01*
X007233Y000744D01*
X007108Y000744D02*
X007108Y000627D01*
X007049Y000569D01*
X006874Y000569D01*
X006991Y000569D02*
X007108Y000452D01*
X007233Y000452D02*
X007467Y000686D01*
X007467Y000452D02*
X007233Y000452D01*
X006874Y000452D02*
X006874Y000802D01*
X007049Y000802D01*
X007108Y000744D01*
X002512Y000782D02*
X002512Y000629D01*
X002436Y000552D01*
X002129Y000552D01*
X002052Y000629D01*
X002052Y000782D01*
X002129Y000859D01*
X002436Y000859D01*
X002512Y000782D01*
X002512Y000859D02*
X002359Y000706D01*
X002282Y001013D02*
X002282Y001319D01*
X002052Y001243D02*
X002282Y001013D01*
X002512Y001243D02*
X002052Y001243D01*
X000802Y001212D02*
X000452Y001212D01*
X000452Y001387D01*
X000510Y001446D01*
X000627Y001446D01*
X000685Y001387D01*
X000685Y001212D01*
X000685Y001329D02*
X000802Y001446D01*
X000744Y001571D02*
X000802Y001630D01*
X000802Y001746D01*
X000744Y001805D01*
X000627Y001805D01*
X000569Y001746D01*
X000569Y001688D01*
X000627Y001571D01*
X000452Y001571D01*
X000452Y001805D01*
D21*
X001282Y001182D02*
X001282Y000982D01*
X001282Y002782D02*
X001282Y002982D01*
X005782Y001282D02*
X005982Y001282D01*
X007582Y001282D02*
X007782Y001282D01*
X008782Y001282D02*
X008982Y001282D01*
X010582Y001282D02*
X010782Y001282D01*
X011782Y001282D02*
X011982Y001282D01*
X013582Y001282D02*
X013782Y001282D01*
X013782Y004782D02*
X013982Y004782D01*
X015582Y004782D02*
X015782Y004782D01*
D22*
X015532Y004782D03*
X014032Y004782D03*
X013532Y001282D03*
X012032Y001282D03*
X010532Y001282D03*
X009032Y001282D03*
X007532Y001282D03*
X006032Y001282D03*
D23*
X006282Y007282D02*
X006282Y009532D01*
X007282Y009532D02*
X007282Y007282D01*
X008282Y007282D02*
X008282Y009532D01*
X009282Y009532D02*
X009282Y007282D01*
X010282Y007282D02*
X010282Y009532D01*
X011282Y009532D02*
X011282Y007282D01*
D24*
X011282Y007132D03*
X010282Y007132D03*
X009282Y007132D03*
X008282Y007132D03*
X007282Y007132D03*
X006282Y007132D03*
D25*
X006282Y005832D03*
X007282Y005832D03*
X008282Y005832D03*
X009282Y005832D03*
X010282Y005832D03*
X011282Y005832D03*
D26*
X003677Y001652D03*
X002887Y001282D03*
X003677Y000912D03*
D27*
X001282Y001232D03*
X001282Y002732D03*
M02*
